<?xml version="1.0" encoding="utf-8" standalone="no"?>
<!DOCTYPE svg PUBLIC "-//W3C//DTD SVG 1.1//EN"
  "http://www.w3.org/Graphics/SVG/1.1/DTD/svg11.dtd">
<svg xmlns:xlink="http://www.w3.org/1999/xlink" width="432pt" height="144pt" viewBox="0 0 432 144" xmlns="http://www.w3.org/2000/svg" version="1.1">
 <metadata>
  <rdf:RDF xmlns:dc="http://purl.org/dc/elements/1.1/" xmlns:cc="http://creativecommons.org/ns#" xmlns:rdf="http://www.w3.org/1999/02/22-rdf-syntax-ns#">
   <cc:Work>
    <dc:type rdf:resource="http://purl.org/dc/dcmitype/StillImage"/>
    <dc:date>2023-11-16T11:53:35.542484</dc:date>
    <dc:format>image/svg+xml</dc:format>
    <dc:creator>
     <cc:Agent>
      <dc:title>Matplotlib v3.7.3, https://matplotlib.org/</dc:title>
     </cc:Agent>
    </dc:creator>
   </cc:Work>
  </rdf:RDF>
 </metadata>
 <defs>
  <style type="text/css">*{stroke-linejoin: round; stroke-linecap: butt}</style>
 </defs>
 <g id="figure_1">
  <g id="patch_1">
   <path d="M 0 144 
L 432 144 
L 432 0 
L 0 0 
z
" style="fill: #ffffff"/>
  </g>
  <g id="axes_1">
   <g id="patch_2">
    <path d="M 54 128.16 
L 152.470588 128.16 
L 152.470588 17.28 
L 54 17.28 
z
" style="fill: #ffffff"/>
   </g>
   <g id="matplotlib.axis_1">
    <g id="xtick_1">
     <g id="line2d_1">
      <defs>
       <path id="m841bb9eb74" d="M 0 0 
L 0 3.5 
" style="stroke: #000000; stroke-width: 0.8"/>
      </defs>
      <g>
       <use xlink:href="#m841bb9eb74" x="58.475936" y="128.16" style="stroke: #000000; stroke-width: 0.8"/>
      </g>
     </g>
     <g id="text_1">
      <!-- 0 -->
      <g transform="translate(55.294686 142.758438) scale(0.1 -0.1)">
       <defs>
        <path id="DejaVuSans-30" d="M 2034 4250 
Q 1547 4250 1301 3770 
Q 1056 3291 1056 2328 
Q 1056 1369 1301 889 
Q 1547 409 2034 409 
Q 2525 409 2770 889 
Q 3016 1369 3016 2328 
Q 3016 3291 2770 3770 
Q 2525 4250 2034 4250 
z
M 2034 4750 
Q 2819 4750 3233 4129 
Q 3647 3509 3647 2328 
Q 3647 1150 3233 529 
Q 2819 -91 2034 -91 
Q 1250 -91 836 529 
Q 422 1150 422 2328 
Q 422 3509 836 4129 
Q 1250 4750 2034 4750 
z
" transform="scale(0.015625)"/>
       </defs>
       <use xlink:href="#DejaVuSans-30"/>
      </g>
     </g>
    </g>
    <g id="xtick_2">
     <g id="line2d_2">
      <g>
       <use xlink:href="#m841bb9eb74" x="103.280098" y="128.16" style="stroke: #000000; stroke-width: 0.8"/>
      </g>
     </g>
     <g id="text_2">
      <!-- 500 -->
      <g transform="translate(93.736348 142.758438) scale(0.1 -0.1)">
       <defs>
        <path id="DejaVuSans-35" d="M 691 4666 
L 3169 4666 
L 3169 4134 
L 1269 4134 
L 1269 2991 
Q 1406 3038 1543 3061 
Q 1681 3084 1819 3084 
Q 2600 3084 3056 2656 
Q 3513 2228 3513 1497 
Q 3513 744 3044 326 
Q 2575 -91 1722 -91 
Q 1428 -91 1123 -41 
Q 819 9 494 109 
L 494 744 
Q 775 591 1075 516 
Q 1375 441 1709 441 
Q 2250 441 2565 725 
Q 2881 1009 2881 1497 
Q 2881 1984 2565 2268 
Q 2250 2553 1709 2553 
Q 1456 2553 1204 2497 
Q 953 2441 691 2322 
L 691 4666 
z
" transform="scale(0.015625)"/>
       </defs>
       <use xlink:href="#DejaVuSans-35"/>
       <use xlink:href="#DejaVuSans-30" x="63.623047"/>
       <use xlink:href="#DejaVuSans-30" x="127.246094"/>
      </g>
     </g>
    </g>
    <g id="xtick_3">
     <g id="line2d_3">
      <g>
       <use xlink:href="#m841bb9eb74" x="148.084261" y="128.16" style="stroke: #000000; stroke-width: 0.8"/>
      </g>
     </g>
     <g id="text_3">
      <!-- 1000 -->
      <g transform="translate(135.359261 142.758438) scale(0.1 -0.1)">
       <defs>
        <path id="DejaVuSans-31" d="M 794 531 
L 1825 531 
L 1825 4091 
L 703 3866 
L 703 4441 
L 1819 4666 
L 2450 4666 
L 2450 531 
L 3481 531 
L 3481 0 
L 794 0 
L 794 531 
z
" transform="scale(0.015625)"/>
       </defs>
       <use xlink:href="#DejaVuSans-31"/>
       <use xlink:href="#DejaVuSans-30" x="63.623047"/>
       <use xlink:href="#DejaVuSans-30" x="127.246094"/>
       <use xlink:href="#DejaVuSans-30" x="190.869141"/>
      </g>
     </g>
    </g>
   </g>
   <g id="matplotlib.axis_2">
    <g id="ytick_1">
     <g id="line2d_4">
      <defs>
       <path id="m0738b40c9c" d="M 0 0 
L -3.5 0 
" style="stroke: #000000; stroke-width: 0.8"/>
      </defs>
      <g>
       <use xlink:href="#m0738b40c9c" x="54" y="109.68" style="stroke: #000000; stroke-width: 0.8"/>
      </g>
     </g>
     <g id="text_4">
      <!-- −1 -->
      <g transform="translate(32.257812 113.479219) scale(0.1 -0.1)">
       <defs>
        <path id="DejaVuSans-2212" d="M 678 2272 
L 4684 2272 
L 4684 1741 
L 678 1741 
L 678 2272 
z
" transform="scale(0.015625)"/>
       </defs>
       <use xlink:href="#DejaVuSans-2212"/>
       <use xlink:href="#DejaVuSans-31" x="83.789062"/>
      </g>
     </g>
    </g>
    <g id="ytick_2">
     <g id="line2d_5">
      <g>
       <use xlink:href="#m0738b40c9c" x="54" y="72.72" style="stroke: #000000; stroke-width: 0.8"/>
      </g>
     </g>
     <g id="text_5">
      <!-- 0 -->
      <g transform="translate(40.6375 76.519219) scale(0.1 -0.1)">
       <use xlink:href="#DejaVuSans-30"/>
      </g>
     </g>
    </g>
    <g id="ytick_3">
     <g id="line2d_6">
      <g>
       <use xlink:href="#m0738b40c9c" x="54" y="35.76" style="stroke: #000000; stroke-width: 0.8"/>
      </g>
     </g>
     <g id="text_6">
      <!-- 1 -->
      <g transform="translate(40.6375 39.559219) scale(0.1 -0.1)">
       <use xlink:href="#DejaVuSans-31"/>
      </g>
     </g>
    </g>
   </g>
   <g id="line2d_7">
    <path d="M 58.475936 75.654144 
L 58.565544 75.616038 
L 58.655152 75.387403 
L 58.834369 75.50172 
L 59.192802 75.577932 
L 59.461627 75.196874 
L 59.730452 75.387403 
L 59.820061 75.730355 
L 59.909669 75.692249 
L 59.999277 75.539826 
L 60.178494 75.577932 
L 60.357711 75.425509 
L 60.447319 75.425509 
L 60.536927 75.539826 
L 60.626536 75.273086 
L 60.805752 75.425509 
L 61.074577 75.539826 
L 61.433011 75.577932 
L 61.791444 75.577932 
L 61.881052 75.349297 
L 61.970661 75.387403 
L 62.50831 75.882778 
L 62.687527 75.539826 
L 62.777135 75.196874 
L 62.956352 75.654144 
L 63.494002 75.273086 
L 63.762827 75.425509 
L 64.031652 75.158769 
L 64.210869 74.96824 
L 64.390085 74.7015 
L 64.65891 75.23498 
L 64.927735 74.892028 
L 65.286169 75.082557 
L 65.554993 75.196874 
L 65.823818 74.663394 
L 66.003035 74.815817 
L 66.27186 75.120663 
L 66.540685 75.120663 
L 66.630293 75.120663 
L 66.899118 75.387403 
L 67.167943 75.654144 
L 67.436768 75.616038 
L 67.705593 75.654144 
L 67.88481 75.577932 
L 68.064027 75.616038 
L 68.332852 75.882778 
L 68.96011 75.692249 
L 69.228935 75.882778 
L 69.318543 75.882778 
L 69.49776 75.768461 
L 69.676976 75.768461 
L 69.856193 75.806567 
L 70.03541 75.692249 
L 70.214626 75.844672 
L 70.57306 75.425509 
L 70.931493 75.95899 
L 71.289926 75.387403 
L 71.469143 75.692249 
L 71.558751 75.730355 
L 71.737968 75.577932 
L 71.827576 75.577932 
L 71.917185 75.273086 
L 72.006793 75.616038 
L 72.275618 75.425509 
L 72.454835 75.273086 
L 72.723659 75.044451 
L 72.902876 75.196874 
L 73.082093 75.044451 
L 73.261309 75.082557 
L 73.440526 75.044451 
L 73.888568 75.311192 
L 74.247001 75.463615 
L 74.426218 75.273086 
L 74.605434 75.425509 
L 74.784651 75.158769 
L 74.874259 75.196874 
L 74.963868 74.892028 
L 75.143084 75.387403 
L 75.411909 75.120663 
L 75.591126 75.23498 
L 75.770343 75.273086 
L 76.039168 75.273086 
L 76.128776 75.23498 
L 76.307992 75.50172 
L 76.576817 75.311192 
L 76.935251 75.539826 
L 77.293684 75.425509 
L 77.383292 75.50172 
L 77.472901 75.425509 
L 77.920942 75.692249 
L 78.189767 75.654144 
L 78.548201 75.425509 
L 78.906634 75.768461 
L 79.265067 75.196874 
L 79.444284 75.806567 
L 79.533892 75.844672 
L 79.713109 75.654144 
L 79.802717 75.692249 
L 79.981934 75.997095 
L 80.16115 75.844672 
L 80.429975 75.920884 
L 80.788409 75.50172 
L 80.878017 75.577932 
L 81.057234 75.425509 
L 81.146842 75.387403 
L 81.326059 75.539826 
L 81.505275 75.273086 
L 82.401359 74.96824 
L 82.580575 75.082557 
L 82.8494 75.082557 
L 83.118225 74.739605 
L 83.297442 75.006346 
L 83.655875 75.044451 
L 83.745483 74.892028 
L 84.103917 75.311192 
L 84.193525 75.425509 
L 84.283133 75.311192 
L 84.46235 75.349297 
L 84.551958 75.273086 
L 84.820783 75.387403 
L 85.179217 75.311192 
L 85.448042 75.50172 
L 85.716867 75.273086 
L 85.896083 75.23498 
L 86.0753 75.044451 
L 86.61295 75.539826 
L 86.792166 75.196874 
L 86.971383 75.006346 
L 87.1506 75.158769 
L 87.329816 75.006346 
L 87.598641 75.158769 
L 87.867466 75.006346 
L 88.136291 75.044451 
L 88.315508 74.853923 
L 88.76355 74.96824 
L 88.942766 74.739605 
L 89.032375 74.663394 
L 89.3012 74.892028 
L 89.570025 74.815817 
L 89.749241 74.777711 
L 90.107675 75.082557 
L 90.466108 75.120663 
L 90.555716 74.96824 
L 90.734933 75.158769 
L 91.451799 74.96824 
L 91.810233 75.425509 
L 92.258274 75.044451 
L 92.437491 75.273086 
L 92.616708 75.387403 
L 92.795924 75.23498 
L 93.154358 75.273086 
L 93.243966 75.120663 
L 93.333574 75.23498 
L 93.781616 74.739605 
L 93.960832 75.273086 
L 94.319266 75.196874 
L 94.498482 75.273086 
L 94.946524 74.96824 
L 95.036132 74.853923 
L 95.304957 74.96824 
L 95.752999 75.044451 
L 96.021824 75.006346 
L 96.201041 75.120663 
L 96.290649 75.158769 
L 96.649082 74.739605 
L 96.828299 74.472865 
L 97.007516 75.044451 
L 97.097124 74.96824 
L 97.634774 75.387403 
L 97.724382 75.273086 
L 97.903599 75.349297 
L 98.710074 75.082557 
L 98.88929 75.044451 
L 99.068507 75.120663 
L 99.337332 75.120663 
L 99.785374 74.96824 
L 99.96459 75.044451 
L 100.143807 75.006346 
L 100.233415 75.158769 
L 100.323024 75.044451 
L 100.412632 74.358548 
L 100.591849 75.044451 
L 100.771065 74.930134 
L 101.129498 74.892028 
L 101.308715 74.815817 
L 101.487932 74.930134 
L 102.11519 74.777711 
L 102.204798 74.472865 
L 102.384015 74.815817 
L 102.65284 74.625288 
L 103.011273 74.853923 
L 103.19049 74.7015 
L 103.369707 74.853923 
L 103.548923 74.739605 
L 103.907357 74.663394 
L 104.534615 75.082557 
L 104.893048 74.663394 
L 104.982656 74.777711 
L 105.251481 75.044451 
L 105.430698 74.930134 
L 105.520306 74.96824 
L 105.789131 74.625288 
L 106.057956 74.815817 
L 106.237173 74.625288 
L 106.41639 74.739605 
L 106.685215 74.625288 
L 106.774823 74.739605 
L 106.95404 74.663394 
L 107.222865 74.587182 
L 107.312473 74.549076 
L 107.402081 74.663394 
L 107.581298 74.510971 
L 107.670906 74.472865 
L 107.760515 74.625288 
L 107.850123 74.510971 
L 107.939731 74.625288 
L 108.029339 74.549076 
L 108.298164 74.815817 
L 108.387773 75.006346 
L 108.566989 74.930134 
L 108.746206 74.892028 
L 108.925423 74.739605 
L 109.194248 75.006346 
L 109.463073 74.96824 
L 109.642289 75.196874 
L 110.090331 75.082557 
L 110.538373 75.273086 
L 110.717589 75.196874 
L 110.896806 75.463615 
L 111.165631 75.273086 
L 111.344848 75.23498 
L 111.434456 75.425509 
L 111.703281 74.96824 
L 111.972106 74.96824 
L 112.151322 75.120663 
L 112.330539 75.387403 
L 112.509756 75.311192 
L 112.778581 75.311192 
L 112.868189 75.044451 
L 112.957797 75.311192 
L 113.047406 75.158769 
L 113.226622 75.273086 
L 113.405839 75.120663 
L 113.674664 75.273086 
L 114.122706 75.196874 
L 114.212314 75.044451 
L 114.391531 75.158769 
L 115.198005 74.930134 
L 115.377222 75.044451 
L 115.646047 74.7015 
L 115.825264 74.815817 
L 115.914872 74.510971 
L 116.00448 74.815817 
L 116.183697 74.7015 
L 116.452522 74.853923 
L 116.631739 74.777711 
L 116.900564 74.930134 
L 117.07978 74.777711 
L 117.348605 74.472865 
L 117.527822 74.777711 
L 117.886255 74.358548 
L 118.065472 74.282336 
L 118.15508 74.282336 
L 118.334297 74.663394 
L 118.513514 75.082557 
L 118.782338 74.739605 
L 119.140772 75.196874 
L 119.319988 75.349297 
L 119.499205 75.425509 
L 119.588813 75.387403 
L 119.76803 75.082557 
L 119.857638 75.158769 
L 120.036855 75.387403 
L 120.30568 75.120663 
L 120.395288 74.739605 
L 120.484897 75.044451 
L 120.664113 74.930134 
L 120.753722 75.044451 
L 121.112155 74.206125 
L 121.201763 74.434759 
L 121.38098 74.358548 
L 121.649805 74.663394 
L 122.008238 73.901279 
L 122.187455 74.396653 
L 122.45628 74.206125 
L 122.635496 74.510971 
L 122.814713 74.206125 
L 122.904321 74.282336 
L 123.352363 74.434759 
L 123.441971 74.282336 
L 123.53158 74.434759 
L 123.710796 74.396653 
L 123.800405 74.472865 
L 123.890013 74.320442 
L 124.06923 74.510971 
L 124.248446 74.549076 
L 124.338055 74.625288 
L 124.427663 74.549076 
L 124.696488 74.777711 
L 124.965313 74.815817 
L 125.054921 74.663394 
L 125.323746 74.930134 
L 125.413355 74.815817 
L 125.592571 74.892028 
L 125.861396 74.853923 
L 125.951004 74.777711 
L 126.130221 74.892028 
L 126.219829 74.815817 
L 126.578263 75.006346 
L 127.115913 74.815817 
L 127.205521 74.358548 
L 127.384738 74.892028 
L 127.563954 75.082557 
L 128.011996 74.358548 
L 128.191213 74.587182 
L 128.280821 74.396653 
L 128.460038 75.539826 
L 128.549646 75.50172 
L 128.728863 74.853923 
L 128.908079 74.777711 
L 128.997688 74.930134 
L 129.266513 74.472865 
L 129.624946 74.510971 
L 129.714554 74.510971 
L 129.983379 74.206125 
L 130.252204 74.206125 
L 130.341812 74.434759 
L 130.431421 74.396653 
L 130.521029 74.472865 
L 130.610637 74.396653 
L 130.700246 74.472865 
L 130.789854 74.358548 
L 130.969071 74.472865 
L 131.058679 74.396653 
L 131.417112 74.663394 
L 131.506721 74.472865 
L 131.685937 74.663394 
L 132.223587 74.663394 
L 132.402804 74.892028 
L 132.492412 74.892028 
L 132.671629 74.777711 
L 133.11967 74.739605 
L 133.209279 74.510971 
L 133.388495 74.587182 
L 133.567712 74.434759 
L 133.746929 74.472865 
L 133.836537 74.24423 
L 133.926145 74.587182 
L 134.015754 74.549076 
L 134.19497 74.625288 
L 134.374187 74.549076 
L 134.463795 74.625288 
L 134.553404 74.434759 
L 134.911837 74.739605 
L 135.001445 74.739605 
L 135.180662 74.549076 
L 135.359879 74.625288 
L 135.718312 74.739605 
L 135.897529 74.472865 
L 135.987137 74.472865 
L 136.34557 74.930134 
L 136.614395 74.663394 
L 136.972828 75.082557 
L 137.152045 74.96824 
L 137.42087 75.311192 
L 137.510478 75.273086 
L 137.600087 74.96824 
L 137.868912 75.50172 
L 138.048128 75.196874 
L 138.227345 75.349297 
L 138.316953 75.273086 
L 138.49617 74.930134 
L 138.585778 74.892028 
L 138.764995 75.196874 
L 138.944212 74.96824 
L 139.03382 74.777711 
L 139.302645 74.96824 
L 139.750687 74.663394 
L 140.10912 74.739605 
L 140.198728 74.472865 
L 140.288336 74.739605 
L 140.377945 74.663394 
L 140.64677 74.739605 
L 140.825986 74.549076 
L 141.094811 74.739605 
L 141.18442 74.663394 
L 141.453245 74.777711 
L 141.72207 74.777711 
L 141.811678 74.7015 
L 141.901286 74.930134 
L 141.990895 74.7015 
L 142.080503 74.739605 
L 142.25972 74.625288 
L 142.438936 74.853923 
L 142.707761 74.739605 
L 142.79737 74.739605 
L 143.066195 74.282336 
L 143.155803 74.472865 
L 143.245411 74.320442 
L 143.33502 74.7015 
L 143.424628 74.663394 
L 143.514236 74.472865 
L 143.693453 74.7015 
L 143.872669 74.663394 
L 143.962278 74.777711 
L 144.231103 74.549076 
L 144.410319 74.510971 
L 144.589536 74.777711 
L 144.858361 74.663394 
L 145.037578 74.815817 
L 145.306403 74.777711 
L 145.485619 74.930134 
L 145.664836 74.815817 
L 145.754444 74.777711 
L 145.933661 74.96824 
L 146.023269 74.96824 
L 146.202486 74.853923 
L 146.381703 74.815817 
L 146.471311 74.549076 
L 146.650528 74.7015 
L 146.740136 74.663394 
L 146.919353 74.892028 
L 147.098569 74.7015 
L 147.277786 74.739605 
L 147.367394 74.625288 
L 147.636219 74.853923 
L 147.815436 74.549076 
L 147.905044 74.625288 
L 147.994652 74.777711 
L 147.994652 74.777711 
" clip-path="url(#p8e1936bb39)" style="fill: none; stroke: #1f77b4; stroke-width: 1.5; stroke-linecap: square"/>
   </g>
   <g id="patch_3">
    <path d="M 54 128.16 
L 54 17.28 
" style="fill: none; stroke: #000000; stroke-width: 0.8; stroke-linejoin: miter; stroke-linecap: square"/>
   </g>
   <g id="patch_4">
    <path d="M 152.470588 128.16 
L 152.470588 17.28 
" style="fill: none; stroke: #000000; stroke-width: 0.8; stroke-linejoin: miter; stroke-linecap: square"/>
   </g>
   <g id="patch_5">
    <path d="M 54 128.16 
L 152.470588 128.16 
" style="fill: none; stroke: #000000; stroke-width: 0.8; stroke-linejoin: miter; stroke-linecap: square"/>
   </g>
   <g id="patch_6">
    <path d="M 54 17.28 
L 152.470588 17.28 
" style="fill: none; stroke: #000000; stroke-width: 0.8; stroke-linejoin: miter; stroke-linecap: square"/>
   </g>
  </g>
  <g id="axes_2">
   <g id="patch_7">
    <path d="M 172.164706 128.16 
L 270.635294 128.16 
L 270.635294 17.28 
L 172.164706 17.28 
z
" style="fill: #ffffff"/>
   </g>
   <g id="matplotlib.axis_3">
    <g id="xtick_4">
     <g id="line2d_8">
      <g>
       <use xlink:href="#m841bb9eb74" x="176.640642" y="128.16" style="stroke: #000000; stroke-width: 0.8"/>
      </g>
     </g>
     <g id="text_7">
      <!-- 0 -->
      <g transform="translate(173.459392 142.758438) scale(0.1 -0.1)">
       <use xlink:href="#DejaVuSans-30"/>
      </g>
     </g>
    </g>
    <g id="xtick_5">
     <g id="line2d_9">
      <g>
       <use xlink:href="#m841bb9eb74" x="221.444804" y="128.16" style="stroke: #000000; stroke-width: 0.8"/>
      </g>
     </g>
     <g id="text_8">
      <!-- 500 -->
      <g transform="translate(211.901054 142.758438) scale(0.1 -0.1)">
       <use xlink:href="#DejaVuSans-35"/>
       <use xlink:href="#DejaVuSans-30" x="63.623047"/>
       <use xlink:href="#DejaVuSans-30" x="127.246094"/>
      </g>
     </g>
    </g>
    <g id="xtick_6">
     <g id="line2d_10">
      <g>
       <use xlink:href="#m841bb9eb74" x="266.248967" y="128.16" style="stroke: #000000; stroke-width: 0.8"/>
      </g>
     </g>
     <g id="text_9">
      <!-- 1000 -->
      <g transform="translate(253.523967 142.758438) scale(0.1 -0.1)">
       <use xlink:href="#DejaVuSans-31"/>
       <use xlink:href="#DejaVuSans-30" x="63.623047"/>
       <use xlink:href="#DejaVuSans-30" x="127.246094"/>
       <use xlink:href="#DejaVuSans-30" x="190.869141"/>
      </g>
     </g>
    </g>
   </g>
   <g id="matplotlib.axis_4">
    <g id="ytick_4">
     <g id="line2d_11">
      <g>
       <use xlink:href="#m0738b40c9c" x="172.164706" y="109.68" style="stroke: #000000; stroke-width: 0.8"/>
      </g>
     </g>
    </g>
    <g id="ytick_5">
     <g id="line2d_12">
      <g>
       <use xlink:href="#m0738b40c9c" x="172.164706" y="72.72" style="stroke: #000000; stroke-width: 0.8"/>
      </g>
     </g>
    </g>
    <g id="ytick_6">
     <g id="line2d_13">
      <g>
       <use xlink:href="#m0738b40c9c" x="172.164706" y="35.76" style="stroke: #000000; stroke-width: 0.8"/>
      </g>
     </g>
    </g>
   </g>
   <g id="line2d_14">
    <path d="M 176.640642 74.206125 
L 177.088683 74.168019 
L 177.357508 73.863173 
L 177.447117 73.939384 
L 177.626333 73.786961 
L 177.895158 73.825067 
L 177.984767 73.939384 
L 178.163983 73.748856 
L 179.149675 73.786961 
L 179.328891 73.863173 
L 179.597716 73.901279 
L 179.776933 74.053702 
L 179.866541 73.939384 
L 179.95615 74.434759 
L 180.045758 74.053702 
L 180.224975 74.129913 
L 181.03145 74.206125 
L 181.210666 74.320442 
L 181.300275 74.206125 
L 181.658708 74.396653 
L 182.017141 74.358548 
L 183.719699 74.396653 
L 183.809308 74.472865 
L 184.078133 74.24423 
L 184.615783 74.396653 
L 184.794999 74.282336 
L 184.884608 74.282336 
L 184.974216 74.168019 
L 185.153433 74.434759 
L 185.332649 74.320442 
L 185.691083 74.358548 
L 185.780691 74.282336 
L 186.139124 74.549076 
L 186.318341 74.396653 
L 186.497557 74.549076 
L 187.393641 74.24423 
L 187.483249 74.320442 
L 187.662466 74.168019 
L 188.020899 74.129913 
L 188.110507 73.863173 
L 188.289724 74.282336 
L 188.468941 74.053702 
L 189.096199 74.24423 
L 189.633849 74.129913 
L 190.171499 74.091807 
L 190.261107 73.97749 
L 190.440324 74.168019 
L 190.709149 74.168019 
L 190.798757 74.091807 
L 190.977974 74.206125 
L 191.067582 74.129913 
L 191.336407 74.24423 
L 191.515624 74.168019 
L 191.874057 74.091807 
L 191.963665 74.24423 
L 192.053274 74.129913 
L 192.23249 74.206125 
L 192.411707 74.053702 
L 192.501315 73.97749 
L 192.77014 74.129913 
L 193.038965 74.129913 
L 193.30779 74.206125 
L 193.397398 73.863173 
L 193.576615 74.206125 
L 194.114265 74.091807 
L 194.203873 74.206125 
L 194.293482 74.015596 
L 194.472698 74.129913 
L 194.741523 74.015596 
L 194.831132 73.825067 
L 195.010348 74.091807 
L 195.279173 73.863173 
L 195.368782 74.053702 
L 195.637607 73.672644 
L 195.816823 73.71075 
L 195.906432 73.748856 
L 196.085648 73.520221 
L 196.175257 73.596432 
L 196.264865 73.482115 
L 196.444082 73.520221 
L 196.892123 73.253481 
L 196.981731 73.101058 
L 197.250556 73.215375 
L 197.60899 72.910529 
L 197.788206 72.643788 
L 197.877815 72.491365 
L 198.057031 72.605683 
L 198.14664 72.605683 
L 198.325856 72.338942 
L 198.415465 72.300837 
L 198.505073 72.072202 
L 198.594681 72.338942 
L 198.68429 72.300837 
L 198.773898 72.148414 
L 198.953115 72.224625 
L 199.22194 71.957885 
L 199.938806 71.653039 
L 200.118023 71.233875 
L 200.207631 71.19577 
L 200.297239 71.348193 
L 200.834889 70.967135 
L 201.014106 70.967135 
L 201.193323 70.852818 
L 201.282931 70.890924 
L 201.462148 70.662289 
L 201.641364 70.7385 
L 201.999798 70.662289 
L 202.089406 70.586077 
L 202.179014 70.700395 
L 202.358231 70.433654 
L 202.447839 70.509866 
L 203.164706 70.700395 
L 203.343923 70.7385 
L 203.971181 71.19577 
L 204.060789 71.19577 
L 204.329614 71.46251 
L 204.508831 71.614933 
L 204.688047 71.653039 
L 204.867264 71.919779 
L 205.046481 72.034096 
L 205.136089 71.919779 
L 205.404914 72.224625 
L 205.494522 72.072202 
L 205.673739 72.338942 
L 206.032172 72.377048 
L 206.211389 72.45326 
L 206.838647 72.643788 
L 206.928256 72.605683 
L 207.465905 73.139163 
L 207.555514 73.215375 
L 207.824339 73.024846 
L 208.003555 73.444009 
L 208.989247 73.901279 
L 209.078855 73.748856 
L 209.34768 74.053702 
L 209.526897 74.053702 
L 209.795722 74.282336 
L 209.974939 74.206125 
L 210.064547 74.434759 
L 210.154155 74.396653 
L 210.512589 74.472865 
L 210.691805 74.663394 
L 210.781413 74.587182 
L 211.050238 74.7015 
L 211.139847 74.7015 
L 211.319063 74.853923 
L 211.49828 74.815817 
L 211.677497 74.930134 
L 211.767105 74.815817 
L 212.03593 75.082557 
L 212.125538 74.96824 
L 212.483972 75.273086 
L 212.663188 75.158769 
L 212.932013 75.387403 
L 213.11123 75.273086 
L 213.290447 75.463615 
L 213.469663 75.539826 
L 213.64888 75.425509 
L 214.18653 75.50172 
L 214.365746 75.616038 
L 214.634571 75.50172 
L 214.813788 75.616038 
L 214.993005 75.50172 
L 215.082613 75.692249 
L 215.26183 75.577932 
L 215.441046 75.616038 
L 215.620263 75.692249 
L 215.889088 75.616038 
L 216.157913 75.768461 
L 216.33713 75.692249 
L 216.426738 75.806567 
L 216.695563 75.692249 
L 216.785171 75.273086 
L 216.964388 75.730355 
L 217.143605 75.692249 
L 217.322821 75.539826 
L 217.591646 75.654144 
L 217.770863 75.616038 
L 218.577338 75.577932 
L 218.666946 75.50172 
L 218.756554 75.616038 
L 218.935771 75.539826 
L 219.294204 75.577932 
L 219.921463 75.23498 
L 220.011071 75.082557 
L 220.190288 75.425509 
L 220.907154 75.425509 
L 220.996763 75.577932 
L 221.175979 75.349297 
L 221.265588 75.425509 
L 221.355196 75.349297 
L 221.534412 75.425509 
L 221.624021 75.425509 
L 221.713629 75.273086 
L 221.892846 75.349297 
L 222.161671 75.23498 
L 222.430496 75.387403 
L 222.520104 75.196874 
L 222.699321 75.273086 
L 222.968146 75.120663 
L 223.147362 75.23498 
L 223.416187 75.23498 
L 223.505796 75.158769 
L 223.595404 75.23498 
L 223.685012 75.120663 
L 223.774621 75.23498 
L 223.864229 75.120663 
L 224.043446 75.196874 
L 224.133054 74.892028 
L 224.222662 75.120663 
L 224.312271 75.082557 
L 224.491487 75.044451 
L 224.581096 75.23498 
L 224.849921 75.006346 
L 225.208354 75.006346 
L 225.38757 75.082557 
L 225.477179 74.96824 
L 225.656395 75.006346 
L 226.104437 74.892028 
L 226.46287 74.930134 
L 227.00052 74.892028 
L 227.090129 74.7015 
L 227.269345 74.777711 
L 227.806995 74.7015 
L 228.165429 74.663394 
L 228.523862 74.7015 
L 228.971903 74.625288 
L 229.330337 74.663394 
L 230.047203 74.663394 
L 230.22642 74.434759 
L 230.405637 74.663394 
L 230.76407 74.625288 
L 230.943287 74.587182 
L 231.212112 74.587182 
L 231.30172 74.739605 
L 231.570545 74.549076 
L 232.108195 74.7015 
L 232.556236 74.510971 
L 232.735453 74.663394 
L 233.362711 74.434759 
L 233.45232 74.510971 
L 233.541928 74.739605 
L 233.631536 74.7015 
L 233.721145 74.549076 
L 233.810753 74.625288 
L 234.079578 74.510971 
L 234.348403 74.549076 
L 234.52762 74.625288 
L 234.706836 74.510971 
L 235.692528 74.549076 
L 235.782136 74.663394 
L 236.050961 74.472865 
L 236.588611 74.510971 
L 236.678219 74.739605 
L 236.857436 74.510971 
L 237.395086 74.472865 
L 237.484694 74.7015 
L 237.574303 74.663394 
L 237.663911 74.739605 
L 237.843128 74.510971 
L 238.022344 74.663394 
L 238.111953 74.739605 
L 238.291169 74.663394 
L 238.380778 74.739605 
L 238.470386 74.587182 
L 238.559994 74.7015 
L 238.739211 74.549076 
L 239.008036 74.815817 
L 239.187252 74.625288 
L 239.635294 74.7015 
L 239.904119 74.625288 
L 239.993727 74.129913 
L 240.172944 74.472865 
L 240.262552 74.549076 
L 240.531377 74.320442 
L 240.710594 74.434759 
L 240.979419 74.129913 
L 241.248244 74.24423 
L 241.427461 74.015596 
L 241.606677 74.015596 
L 241.785894 73.71075 
L 241.875502 73.863173 
L 242.144327 73.748856 
L 242.233936 73.748856 
L 242.413152 73.596432 
L 243.130019 73.215375 
L 243.309235 73.062952 
L 243.398844 73.139163 
L 243.667669 72.98674 
L 243.846885 73.062952 
L 244.026102 72.72 
L 244.205319 72.834317 
L 244.294927 72.681894 
L 244.384535 72.834317 
L 244.563752 72.567577 
L 244.742969 72.529471 
L 244.832577 72.415154 
L 245.101402 72.529471 
L 245.370227 72.338942 
L 245.549444 72.224625 
L 245.72866 72.224625 
L 245.907877 72.034096 
L 245.997485 72.186519 
L 246.355918 71.843568 
L 246.535135 71.919779 
L 246.714352 71.881673 
L 246.80396 71.72925 
L 246.893568 71.919779 
L 247.252002 71.614933 
L 247.431218 71.805462 
L 247.700043 71.614933 
L 247.87926 71.881673 
L 248.148085 71.843568 
L 248.327302 72.072202 
L 248.41691 71.957885 
L 248.506518 72.110308 
L 248.596127 72.034096 
L 248.775343 72.338942 
L 248.95456 72.377048 
L 249.044168 72.224625 
L 249.223385 72.605683 
L 249.312993 72.529471 
L 249.49221 72.643788 
L 249.671427 73.139163 
L 249.850643 73.139163 
L 249.940251 73.024846 
L 250.119468 73.329692 
L 250.477901 73.520221 
L 250.657118 73.634538 
L 250.925943 73.634538 
L 251.015551 73.97749 
L 251.10516 73.939384 
L 251.194768 73.863173 
L 251.284376 74.168019 
L 251.373985 74.129913 
L 251.463593 74.091807 
L 251.553201 74.206125 
L 251.64281 74.053702 
L 251.911635 74.320442 
L 252.090851 74.206125 
L 252.449285 74.663394 
L 252.71811 74.663394 
L 252.807718 74.815817 
L 253.166151 74.434759 
L 253.345368 74.930134 
L 253.614193 74.96824 
L 253.703801 75.044451 
L 253.883018 74.930134 
L 254.062234 75.120663 
L 254.241451 75.23498 
L 254.420668 75.082557 
L 254.599884 75.120663 
L 254.958318 75.463615 
L 255.047926 75.387403 
L 255.137534 75.539826 
L 255.316751 75.273086 
L 255.585576 75.654144 
L 255.675184 75.577932 
L 255.764793 75.463615 
L 256.123226 75.692249 
L 256.212834 75.577932 
L 256.481659 75.844672 
L 256.571268 75.844672 
L 256.660876 75.730355 
L 256.929701 75.95899 
L 257.108917 75.806567 
L 257.198526 76.073307 
L 257.288134 76.035201 
L 257.467351 76.111413 
L 257.646567 76.111413 
L 257.915392 76.22573 
L 258.094609 76.263836 
L 258.273826 76.301941 
L 258.453042 76.22573 
L 258.721867 76.49247 
L 258.901084 76.416259 
L 258.990692 76.416259 
L 259.080301 76.568682 
L 259.259517 76.340047 
L 259.528342 76.568682 
L 259.617951 76.530576 
L 259.707559 76.340047 
L 259.976384 76.606788 
L 260.514034 76.568682 
L 260.782859 76.378153 
L 261.051684 76.606788 
L 261.2309 76.49247 
L 261.76855 76.340047 
L 261.858159 76.454364 
L 262.037375 76.340047 
L 262.3062 76.49247 
L 262.395809 76.340047 
L 262.664634 76.49247 
L 263.023067 76.454364 
L 263.291892 76.49247 
L 263.471109 76.454364 
L 263.650325 76.49247 
L 263.829542 76.263836 
L 264.277583 76.301941 
L 264.4568 76.340047 
L 264.725625 76.073307 
L 264.904842 76.149518 
L 265.621708 75.882778 
L 265.711317 76.035201 
L 265.980142 75.692249 
L 266.159358 75.692249 
L 266.159358 75.692249 
" clip-path="url(#p71aba45174)" style="fill: none; stroke: #1f77b4; stroke-width: 1.5; stroke-linecap: square"/>
   </g>
   <g id="patch_8">
    <path d="M 172.164706 128.16 
L 172.164706 17.28 
" style="fill: none; stroke: #000000; stroke-width: 0.8; stroke-linejoin: miter; stroke-linecap: square"/>
   </g>
   <g id="patch_9">
    <path d="M 270.635294 128.16 
L 270.635294 17.28 
" style="fill: none; stroke: #000000; stroke-width: 0.8; stroke-linejoin: miter; stroke-linecap: square"/>
   </g>
   <g id="patch_10">
    <path d="M 172.164706 128.16 
L 270.635294 128.16 
" style="fill: none; stroke: #000000; stroke-width: 0.8; stroke-linejoin: miter; stroke-linecap: square"/>
   </g>
   <g id="patch_11">
    <path d="M 172.164706 17.28 
L 270.635294 17.28 
" style="fill: none; stroke: #000000; stroke-width: 0.8; stroke-linejoin: miter; stroke-linecap: square"/>
   </g>
  </g>
  <g id="axes_3">
   <g id="patch_12">
    <path d="M 290.329412 128.16 
L 388.8 128.16 
L 388.8 17.28 
L 290.329412 17.28 
z
" style="fill: #ffffff"/>
   </g>
   <g id="matplotlib.axis_5">
    <g id="xtick_7">
     <g id="line2d_15">
      <g>
       <use xlink:href="#m841bb9eb74" x="294.805348" y="128.16" style="stroke: #000000; stroke-width: 0.8"/>
      </g>
     </g>
     <g id="text_10">
      <!-- 0 -->
      <g transform="translate(291.624098 142.758438) scale(0.1 -0.1)">
       <use xlink:href="#DejaVuSans-30"/>
      </g>
     </g>
    </g>
    <g id="xtick_8">
     <g id="line2d_16">
      <g>
       <use xlink:href="#m841bb9eb74" x="339.60951" y="128.16" style="stroke: #000000; stroke-width: 0.8"/>
      </g>
     </g>
     <g id="text_11">
      <!-- 500 -->
      <g transform="translate(330.06576 142.758438) scale(0.1 -0.1)">
       <use xlink:href="#DejaVuSans-35"/>
       <use xlink:href="#DejaVuSans-30" x="63.623047"/>
       <use xlink:href="#DejaVuSans-30" x="127.246094"/>
      </g>
     </g>
    </g>
    <g id="xtick_9">
     <g id="line2d_17">
      <g>
       <use xlink:href="#m841bb9eb74" x="384.413672" y="128.16" style="stroke: #000000; stroke-width: 0.8"/>
      </g>
     </g>
     <g id="text_12">
      <!-- 1000 -->
      <g transform="translate(371.688672 142.758438) scale(0.1 -0.1)">
       <use xlink:href="#DejaVuSans-31"/>
       <use xlink:href="#DejaVuSans-30" x="63.623047"/>
       <use xlink:href="#DejaVuSans-30" x="127.246094"/>
       <use xlink:href="#DejaVuSans-30" x="190.869141"/>
      </g>
     </g>
    </g>
   </g>
   <g id="matplotlib.axis_6">
    <g id="ytick_7">
     <g id="line2d_18">
      <g>
       <use xlink:href="#m0738b40c9c" x="290.329412" y="109.68" style="stroke: #000000; stroke-width: 0.8"/>
      </g>
     </g>
    </g>
    <g id="ytick_8">
     <g id="line2d_19">
      <g>
       <use xlink:href="#m0738b40c9c" x="290.329412" y="72.72" style="stroke: #000000; stroke-width: 0.8"/>
      </g>
     </g>
    </g>
    <g id="ytick_9">
     <g id="line2d_20">
      <g>
       <use xlink:href="#m0738b40c9c" x="290.329412" y="35.76" style="stroke: #000000; stroke-width: 0.8"/>
      </g>
     </g>
    </g>
   </g>
   <g id="line2d_21">
    <path d="M 294.805348 71.919779 
L 295.074173 72.186519 
L 295.163781 72.072202 
L 295.522214 72.529471 
L 295.611823 72.605683 
L 295.701431 72.491365 
L 295.970256 72.834317 
L 296.059864 72.72 
L 296.418297 73.024846 
L 296.597514 72.910529 
L 296.866339 73.101058 
L 297.135164 73.139163 
L 297.403989 73.291586 
L 297.493597 73.215375 
L 298.031247 73.558327 
L 298.389681 73.71075 
L 298.568897 73.97749 
L 298.837722 73.748856 
L 299.46498 74.24423 
L 299.644197 74.053702 
L 299.733805 74.206125 
L 299.823414 74.053702 
L 300.00263 74.282336 
L 300.181847 74.206125 
L 300.450672 74.434759 
L 300.629889 74.282336 
L 300.809105 74.549076 
L 300.988322 74.472865 
L 301.346755 74.625288 
L 301.436364 74.510971 
L 301.705189 74.739605 
L 301.884405 74.663394 
L 302.063622 74.7015 
L 302.15323 74.815817 
L 302.332447 74.7015 
L 302.69088 74.739605 
L 302.870097 74.510971 
L 303.049313 74.96824 
L 303.318138 74.815817 
L 303.497355 74.892028 
L 303.586963 75.273086 
L 303.76618 77.21648 
L 304.035005 74.663394 
L 304.30383 75.120663 
L 304.572655 74.587182 
L 304.751872 75.006346 
L 304.84148 75.082557 
L 305.020697 74.96824 
L 305.37913 75.082557 
L 305.558347 74.96824 
L 305.827172 75.120663 
L 305.91678 75.120663 
L 306.095997 75.196874 
L 306.185605 75.273086 
L 306.45443 75.120663 
L 306.544038 75.196874 
L 306.902471 74.96824 
L 307.081688 75.082557 
L 307.260905 74.892028 
L 307.440121 74.7015 
L 307.798555 75.120663 
L 308.156988 74.892028 
L 308.336205 74.777711 
L 308.515421 74.815817 
L 308.694638 74.739605 
L 308.873855 74.853923 
L 308.963463 74.739605 
L 309.14268 74.892028 
L 309.321896 74.815817 
L 309.769938 74.815817 
L 309.859546 74.663394 
L 310.217979 74.853923 
L 310.397196 74.853923 
L 310.576413 74.739605 
L 310.666021 74.892028 
L 310.934846 74.7015 
L 311.114063 74.739605 
L 311.293279 74.587182 
L 311.651713 74.625288 
L 311.830929 74.434759 
L 311.920538 74.625288 
L 312.010146 74.358548 
L 312.099754 74.663394 
L 312.189363 74.587182 
L 312.278971 74.663394 
L 312.368579 74.434759 
L 312.547796 74.549076 
L 312.637404 74.358548 
L 312.816621 74.472865 
L 313.085446 74.472865 
L 313.623096 74.472865 
L 313.802312 74.625288 
L 314.071137 74.510971 
L 314.250354 74.663394 
L 314.339962 74.7015 
L 314.519179 74.625288 
L 314.608787 74.663394 
L 314.877612 74.472865 
L 315.325654 74.625288 
L 315.504871 74.549076 
L 316.042521 74.663394 
L 316.132129 74.663394 
L 316.221737 74.510971 
L 316.400954 74.625288 
L 317.028212 74.625288 
L 317.207429 74.549076 
L 317.476254 74.663394 
L 317.565862 74.663394 
L 317.745079 74.549076 
L 317.834687 74.625288 
L 318.013904 74.396653 
L 318.19312 74.625288 
L 318.641162 74.510971 
L 318.999595 74.549076 
L 319.089204 74.396653 
L 319.26842 74.472865 
L 320.702153 73.748856 
L 320.791762 73.634538 
L 320.88137 73.748856 
L 320.970978 73.291586 
L 321.060587 73.596432 
L 321.150195 73.558327 
L 321.41902 73.482115 
L 321.867062 73.215375 
L 322.046278 73.253481 
L 322.225495 73.139163 
L 322.583928 72.948635 
L 322.763145 72.98674 
L 322.942362 72.681894 
L 323.03197 72.567577 
L 323.211187 72.681894 
L 324.10727 72.415154 
L 324.286486 72.377048 
L 324.555311 72.262731 
L 324.64492 72.300837 
L 324.734528 72.034096 
L 325.003353 72.491365 
L 325.092961 72.377048 
L 325.272178 72.529471 
L 325.541003 72.567577 
L 325.630611 72.491365 
L 325.989045 72.834317 
L 326.168261 72.605683 
L 326.25787 72.872423 
L 326.347478 72.605683 
L 326.437086 72.681894 
L 326.616303 73.062952 
L 326.705911 72.948635 
L 326.885128 73.101058 
L 327.064345 73.139163 
L 327.33317 73.253481 
L 328.229253 73.558327 
L 328.498078 73.558327 
L 328.677294 73.748856 
L 329.483769 74.053702 
L 329.573378 73.97749 
L 329.662986 74.053702 
L 329.752594 73.97749 
L 329.842203 74.129913 
L 330.021419 74.053702 
L 330.200636 74.129913 
L 330.469461 74.320442 
L 330.648678 74.282336 
L 330.827894 74.434759 
L 330.917503 74.206125 
L 331.275936 74.625288 
L 331.455152 74.663394 
L 331.634369 74.587182 
L 331.723977 74.777711 
L 331.903194 74.7015 
L 332.172019 74.777711 
L 332.351236 74.663394 
L 332.620061 74.663394 
L 332.799277 74.739605 
L 332.978494 74.625288 
L 333.516144 74.739605 
L 333.784969 74.510971 
L 334.053794 74.7015 
L 334.233011 74.625288 
L 334.322619 74.663394 
L 334.412227 74.549076 
L 334.591444 74.625288 
L 335.30831 74.815817 
L 335.487527 74.7015 
L 335.84596 75.082557 
L 335.935569 75.006346 
L 336.114785 75.120663 
L 336.294002 75.120663 
L 336.562827 75.50172 
L 336.742044 75.387403 
L 337.279694 73.786961 
L 337.548519 76.263836 
L 337.727735 73.748856 
L 337.817344 73.97749 
L 338.086169 75.882778 
L 338.623818 74.930134 
L 338.713427 75.044451 
L 338.982252 76.340047 
L 339.07186 76.263836 
L 339.161468 75.844672 
L 339.430293 76.797316 
L 339.519902 76.606788 
L 339.878335 75.349297 
L 339.967943 75.196874 
L 340.057552 75.425509 
L 340.14716 75.273086 
L 340.236768 75.692249 
L 340.415985 75.50172 
L 340.774418 75.577932 
L 340.864027 74.777711 
L 341.312068 66.394444 
L 341.401677 66.394444 
L 341.580893 67.423299 
L 341.849718 68.909424 
L 342.028935 69.633433 
L 343.37306 76.454364 
L 343.641885 76.644893 
L 343.821101 76.759211 
L 343.91071 76.530576 
L 344.089926 76.797316 
L 344.269143 76.911634 
L 344.537968 76.797316 
L 344.717185 76.987845 
L 344.896401 77.064057 
L 345.165226 77.064057 
L 345.254835 77.064057 
L 345.434051 76.797316 
L 345.613268 76.911634 
L 345.792484 76.682999 
L 345.971701 76.797316 
L 346.240526 76.721105 
L 346.330134 76.454364 
L 346.419743 76.49247 
L 346.509351 76.530576 
L 346.688568 76.454364 
L 346.867784 76.263836 
L 347.584651 74.7015 
L 347.674259 74.549076 
L 347.853476 74.625288 
L 348.122301 74.625288 
L 348.391126 74.96824 
L 348.570343 74.663394 
L 348.659951 74.777711 
L 348.839168 74.739605 
L 348.928776 74.396653 
L 349.197601 74.777711 
L 349.287209 74.663394 
L 349.376817 74.777711 
L 349.556034 74.663394 
L 349.735251 74.472865 
L 350.093684 74.282336 
L 350.183292 74.358548 
L 350.362509 74.091807 
L 350.720942 74.739605 
L 351.079376 74.549076 
L 351.258592 74.168019 
L 351.796242 74.053702 
L 352.065067 74.24423 
L 352.154676 74.015596 
L 352.333892 74.168019 
L 352.423501 74.206125 
L 352.602717 73.863173 
L 352.781934 74.206125 
L 352.871542 74.129913 
L 353.140367 73.97749 
L 353.857234 74.206125 
L 353.946842 74.053702 
L 354.215667 74.358548 
L 354.394884 74.24423 
L 354.5741 74.396653 
L 354.753317 74.091807 
L 354.842925 74.168019 
L 355.022142 74.129913 
L 355.11175 74.206125 
L 355.201359 74.053702 
L 355.380575 74.206125 
L 355.559792 74.320442 
L 355.739009 73.901279 
L 355.918225 74.358548 
L 356.18705 74.015596 
L 356.455875 74.015596 
L 356.635092 73.177269 
L 356.814308 71.957885 
L 357.441567 74.053702 
L 357.8 74.625288 
L 358.068825 74.129913 
L 358.158433 74.320442 
L 358.427258 74.282336 
L 358.696083 74.587182 
L 358.964908 74.434759 
L 359.233733 74.510971 
L 359.681775 73.939384 
L 359.771383 74.053702 
L 359.9506 73.634538 
L 360.219425 72.834317 
L 360.309033 72.834317 
L 360.577858 74.206125 
L 360.757075 74.168019 
L 360.936291 74.24423 
L 361.115508 74.358548 
L 361.384333 74.930134 
L 361.473941 74.853923 
L 361.653158 74.96824 
L 362.370025 76.035201 
L 363.445324 73.634538 
L 363.624541 73.786961 
L 363.803758 73.71075 
L 363.893366 73.558327 
L 364.162191 73.863173 
L 364.341408 74.434759 
L 364.431016 74.358548 
L 364.520624 74.587182 
L 364.789449 74.129913 
L 364.879058 74.282336 
L 365.058274 74.091807 
L 365.595924 72.491365 
L 365.775141 72.605683 
L 365.864749 72.643788 
L 366.043966 72.415154 
L 366.492008 73.177269 
L 366.940049 73.634538 
L 367.029657 73.634538 
L 367.208874 73.748856 
L 367.477699 73.786961 
L 367.656916 73.939384 
L 367.836132 73.748856 
L 367.925741 73.748856 
L 368.104957 73.939384 
L 368.284174 73.634538 
L 368.463391 73.672644 
L 368.821824 73.291586 
L 369.001041 73.405904 
L 369.269866 72.98674 
L 369.538691 72.948635 
L 369.717907 72.529471 
L 369.897124 72.529471 
L 370.165949 72.377048 
L 370.255557 72.605683 
L 370.524382 72.491365 
L 370.703599 72.529471 
L 371.510074 73.405904 
L 371.68929 73.596432 
L 372.943807 76.568682 
L 373.033415 76.568682 
L 373.212632 76.682999 
L 373.481457 76.873528 
L 373.929498 76.378153 
L 374.108715 76.073307 
L 374.198323 76.073307 
L 375.004798 74.472865 
L 375.273623 74.472865 
L 375.900882 74.510971 
L 376.080098 74.815817 
L 376.438532 74.892028 
L 377.334615 75.730355 
L 377.60344 76.111413 
L 377.693048 76.035201 
L 377.961873 76.606788 
L 378.051481 76.530576 
L 378.230698 76.644893 
L 378.67874 77.521326 
L 378.947565 78.131018 
L 379.037173 78.169124 
L 379.75404 79.617143 
L 380.112473 79.540931 
L 380.202081 79.121768 
L 380.29169 79.388508 
L 380.381298 79.350402 
L 380.470906 79.274191 
L 380.650123 79.350402 
L 380.918948 79.083662 
L 381.008556 79.083662 
L 381.277381 78.816922 
L 381.456598 78.74071 
L 381.725423 78.550181 
L 382.083856 78.47397 
L 382.263073 78.397758 
L 382.531898 78.550181 
L 382.621506 78.550181 
L 382.800723 78.435864 
L 382.979939 78.321547 
L 383.069548 78.169124 
L 383.248764 78.207229 
L 383.338373 78.207229 
L 383.517589 78.283441 
L 383.876023 78.092912 
L 384.055239 77.864278 
L 384.144848 77.940489 
L 384.324064 77.597537 
L 384.324064 77.597537 
" clip-path="url(#peb11e359e2)" style="fill: none; stroke: #1f77b4; stroke-width: 1.5; stroke-linecap: square"/>
   </g>
   <g id="patch_13">
    <path d="M 290.329412 128.16 
L 290.329412 17.28 
" style="fill: none; stroke: #000000; stroke-width: 0.8; stroke-linejoin: miter; stroke-linecap: square"/>
   </g>
   <g id="patch_14">
    <path d="M 388.8 128.16 
L 388.8 17.28 
" style="fill: none; stroke: #000000; stroke-width: 0.8; stroke-linejoin: miter; stroke-linecap: square"/>
   </g>
   <g id="patch_15">
    <path d="M 290.329412 128.16 
L 388.8 128.16 
" style="fill: none; stroke: #000000; stroke-width: 0.8; stroke-linejoin: miter; stroke-linecap: square"/>
   </g>
   <g id="patch_16">
    <path d="M 290.329412 17.28 
L 388.8 17.28 
" style="fill: none; stroke: #000000; stroke-width: 0.8; stroke-linejoin: miter; stroke-linecap: square"/>
   </g>
  </g>
 </g>
 <defs>
  <clipPath id="p8e1936bb39">
   <rect x="54" y="17.28" width="98.470588" height="110.88"/>
  </clipPath>
  <clipPath id="p71aba45174">
   <rect x="172.164706" y="17.28" width="98.470588" height="110.88"/>
  </clipPath>
  <clipPath id="peb11e359e2">
   <rect x="290.329412" y="17.28" width="98.470588" height="110.88"/>
  </clipPath>
 </defs>
</svg>
