<?xml version="1.0" encoding="utf-8" standalone="no"?>
<!DOCTYPE svg PUBLIC "-//W3C//DTD SVG 1.1//EN"
  "http://www.w3.org/Graphics/SVG/1.1/DTD/svg11.dtd">
<svg xmlns:xlink="http://www.w3.org/1999/xlink" width="432pt" height="144pt" viewBox="0 0 432 144" xmlns="http://www.w3.org/2000/svg" version="1.1">
 <metadata>
  <rdf:RDF xmlns:dc="http://purl.org/dc/elements/1.1/" xmlns:cc="http://creativecommons.org/ns#" xmlns:rdf="http://www.w3.org/1999/02/22-rdf-syntax-ns#">
   <cc:Work>
    <dc:type rdf:resource="http://purl.org/dc/dcmitype/StillImage"/>
    <dc:date>2023-11-16T11:53:35.651776</dc:date>
    <dc:format>image/svg+xml</dc:format>
    <dc:creator>
     <cc:Agent>
      <dc:title>Matplotlib v3.7.3, https://matplotlib.org/</dc:title>
     </cc:Agent>
    </dc:creator>
   </cc:Work>
  </rdf:RDF>
 </metadata>
 <defs>
  <style type="text/css">*{stroke-linejoin: round; stroke-linecap: butt}</style>
 </defs>
 <g id="figure_1">
  <g id="patch_1">
   <path d="M 0 144 
L 432 144 
L 432 0 
L 0 0 
z
" style="fill: #ffffff"/>
  </g>
  <g id="axes_1">
   <g id="patch_2">
    <path d="M 54 128.16 
L 152.470588 128.16 
L 152.470588 17.28 
L 54 17.28 
z
" style="fill: #ffffff"/>
   </g>
   <g id="matplotlib.axis_1">
    <g id="xtick_1">
     <g id="line2d_1">
      <defs>
       <path id="me4f231a289" d="M 0 0 
L 0 3.5 
" style="stroke: #000000; stroke-width: 0.8"/>
      </defs>
      <g>
       <use xlink:href="#me4f231a289" x="58.475936" y="128.16" style="stroke: #000000; stroke-width: 0.8"/>
      </g>
     </g>
     <g id="text_1">
      <!-- 0 -->
      <g transform="translate(55.294686 142.758438) scale(0.1 -0.1)">
       <defs>
        <path id="DejaVuSans-30" d="M 2034 4250 
Q 1547 4250 1301 3770 
Q 1056 3291 1056 2328 
Q 1056 1369 1301 889 
Q 1547 409 2034 409 
Q 2525 409 2770 889 
Q 3016 1369 3016 2328 
Q 3016 3291 2770 3770 
Q 2525 4250 2034 4250 
z
M 2034 4750 
Q 2819 4750 3233 4129 
Q 3647 3509 3647 2328 
Q 3647 1150 3233 529 
Q 2819 -91 2034 -91 
Q 1250 -91 836 529 
Q 422 1150 422 2328 
Q 422 3509 836 4129 
Q 1250 4750 2034 4750 
z
" transform="scale(0.015625)"/>
       </defs>
       <use xlink:href="#DejaVuSans-30"/>
      </g>
     </g>
    </g>
    <g id="xtick_2">
     <g id="line2d_2">
      <g>
       <use xlink:href="#me4f231a289" x="103.280098" y="128.16" style="stroke: #000000; stroke-width: 0.8"/>
      </g>
     </g>
     <g id="text_2">
      <!-- 500 -->
      <g transform="translate(93.736348 142.758438) scale(0.1 -0.1)">
       <defs>
        <path id="DejaVuSans-35" d="M 691 4666 
L 3169 4666 
L 3169 4134 
L 1269 4134 
L 1269 2991 
Q 1406 3038 1543 3061 
Q 1681 3084 1819 3084 
Q 2600 3084 3056 2656 
Q 3513 2228 3513 1497 
Q 3513 744 3044 326 
Q 2575 -91 1722 -91 
Q 1428 -91 1123 -41 
Q 819 9 494 109 
L 494 744 
Q 775 591 1075 516 
Q 1375 441 1709 441 
Q 2250 441 2565 725 
Q 2881 1009 2881 1497 
Q 2881 1984 2565 2268 
Q 2250 2553 1709 2553 
Q 1456 2553 1204 2497 
Q 953 2441 691 2322 
L 691 4666 
z
" transform="scale(0.015625)"/>
       </defs>
       <use xlink:href="#DejaVuSans-35"/>
       <use xlink:href="#DejaVuSans-30" x="63.623047"/>
       <use xlink:href="#DejaVuSans-30" x="127.246094"/>
      </g>
     </g>
    </g>
    <g id="xtick_3">
     <g id="line2d_3">
      <g>
       <use xlink:href="#me4f231a289" x="148.084261" y="128.16" style="stroke: #000000; stroke-width: 0.8"/>
      </g>
     </g>
     <g id="text_3">
      <!-- 1000 -->
      <g transform="translate(135.359261 142.758438) scale(0.1 -0.1)">
       <defs>
        <path id="DejaVuSans-31" d="M 794 531 
L 1825 531 
L 1825 4091 
L 703 3866 
L 703 4441 
L 1819 4666 
L 2450 4666 
L 2450 531 
L 3481 531 
L 3481 0 
L 794 0 
L 794 531 
z
" transform="scale(0.015625)"/>
       </defs>
       <use xlink:href="#DejaVuSans-31"/>
       <use xlink:href="#DejaVuSans-30" x="63.623047"/>
       <use xlink:href="#DejaVuSans-30" x="127.246094"/>
       <use xlink:href="#DejaVuSans-30" x="190.869141"/>
      </g>
     </g>
    </g>
   </g>
   <g id="matplotlib.axis_2">
    <g id="ytick_1">
     <g id="line2d_4">
      <defs>
       <path id="m54f25df20b" d="M 0 0 
L -3.5 0 
" style="stroke: #000000; stroke-width: 0.8"/>
      </defs>
      <g>
       <use xlink:href="#m54f25df20b" x="54" y="109.68" style="stroke: #000000; stroke-width: 0.8"/>
      </g>
     </g>
     <g id="text_4">
      <!-- −1 -->
      <g transform="translate(32.257812 113.479219) scale(0.1 -0.1)">
       <defs>
        <path id="DejaVuSans-2212" d="M 678 2272 
L 4684 2272 
L 4684 1741 
L 678 1741 
L 678 2272 
z
" transform="scale(0.015625)"/>
       </defs>
       <use xlink:href="#DejaVuSans-2212"/>
       <use xlink:href="#DejaVuSans-31" x="83.789062"/>
      </g>
     </g>
    </g>
    <g id="ytick_2">
     <g id="line2d_5">
      <g>
       <use xlink:href="#m54f25df20b" x="54" y="72.72" style="stroke: #000000; stroke-width: 0.8"/>
      </g>
     </g>
     <g id="text_5">
      <!-- 0 -->
      <g transform="translate(40.6375 76.519219) scale(0.1 -0.1)">
       <use xlink:href="#DejaVuSans-30"/>
      </g>
     </g>
    </g>
    <g id="ytick_3">
     <g id="line2d_6">
      <g>
       <use xlink:href="#m54f25df20b" x="54" y="35.76" style="stroke: #000000; stroke-width: 0.8"/>
      </g>
     </g>
     <g id="text_6">
      <!-- 1 -->
      <g transform="translate(40.6375 39.559219) scale(0.1 -0.1)">
       <use xlink:href="#DejaVuSans-31"/>
      </g>
     </g>
    </g>
   </g>
   <g id="line2d_7">
    <path d="M 58.475936 80.303046 
L 58.834369 79.655248 
L 59.103194 78.397758 
L 59.372019 77.102162 
L 59.461627 77.21648 
L 59.730452 76.797316 
L 59.820061 76.835422 
L 60.536927 81.065161 
L 60.716144 82.284546 
L 60.805752 82.132123 
L 61.074577 82.322652 
L 61.343402 82.475075 
L 61.433011 82.665603 
L 61.522619 82.475075 
L 61.612227 82.589392 
L 61.970661 82.322652 
L 62.149877 82.665603 
L 62.418702 82.208334 
L 62.597919 81.941594 
L 62.866744 81.941594 
L 63.04596 81.560536 
L 63.135569 81.674854 
L 63.314785 81.522431 
L 63.494002 81.751065 
L 63.58361 81.751065 
L 63.762827 81.217584 
L 64.210869 81.141373 
L 64.300477 81.179479 
L 64.390085 80.874633 
L 64.65891 75.730355 
L 65.017344 68.871318 
L 65.286169 63.803252 
L 65.465385 62.774397 
L 65.73421 61.402589 
L 65.913427 63.841358 
L 66.27186 71.500616 
L 66.451077 69.366693 
L 66.630293 67.499511 
L 66.719902 67.651934 
L 66.899118 69.48101 
L 67.257552 73.748856 
L 67.705593 76.454364 
L 67.88481 76.721105 
L 68.064027 77.21648 
L 68.153635 77.178374 
L 68.332852 76.911634 
L 68.601677 77.635643 
L 68.780893 77.521326 
L 69.318543 77.788066 
L 69.587368 78.131018 
L 69.676976 78.016701 
L 69.766585 78.245335 
L 69.856193 78.207229 
L 70.841885 79.883883 
L 71.021101 80.379258 
L 71.200318 80.760315 
L 71.558751 81.446219 
L 71.917185 81.865382 
L 72.006793 81.827277 
L 72.18601 82.055911 
L 72.365226 82.665603 
L 72.454835 82.894238 
L 72.544443 82.818026 
L 72.634051 82.970449 
L 72.723659 82.665603 
L 72.813268 82.741815 
L 72.992484 83.160978 
L 73.082093 83.008555 
L 73.171701 83.046661 
L 73.261309 82.741815 
L 73.440526 82.894238 
L 73.709351 82.894238 
L 73.888568 82.970449 
L 74.067784 83.008555 
L 74.247001 82.818026 
L 74.426218 82.818026 
L 74.605434 82.589392 
L 74.695043 82.51318 
L 75.143084 82.818026 
L 75.232693 82.741815 
L 75.411909 82.322652 
L 75.591126 82.322652 
L 75.680734 82.170228 
L 75.770343 82.322652 
L 76.218384 81.827277 
L 76.397601 81.827277 
L 76.666426 81.484325 
L 76.756034 81.560536 
L 77.024859 80.98895 
L 77.204076 80.836527 
L 77.293684 80.607892 
L 77.383292 80.874633 
L 77.652117 80.150623 
L 77.741726 80.303046 
L 77.920942 80.417364 
L 78.189767 79.617143 
L 78.368984 79.502825 
L 78.458592 79.655248 
L 78.727417 79.121768 
L 78.906634 78.931239 
L 78.996242 79.083662 
L 79.175459 79.045556 
L 79.265067 79.045556 
L 79.623501 78.435864 
L 79.713109 78.702604 
L 79.892325 78.321547 
L 80.250759 78.131018 
L 80.429975 78.245335 
L 80.519584 78.321547 
L 80.6988 77.902383 
L 80.788409 78.016701 
L 80.967625 78.054806 
L 81.146842 78.169124 
L 81.326059 77.711855 
L 81.415667 77.673749 
L 81.594884 77.978595 
L 81.684492 77.864278 
L 81.953317 77.445114 
L 82.401359 77.74996 
L 82.759792 76.797316 
L 82.939009 77.48322 
L 83.118225 77.292691 
L 83.476658 76.797316 
L 83.655875 76.873528 
L 84.103917 76.606788 
L 84.283133 76.911634 
L 84.820783 76.530576 
L 85 76.797316 
L 85.089608 76.644893 
L 85.358433 76.378153 
L 85.448042 76.568682 
L 85.53765 76.49247 
L 85.716867 76.644893 
L 86.254517 76.49247 
L 86.344125 76.644893 
L 86.61295 76.49247 
L 86.702558 76.606788 
L 86.792166 76.454364 
L 86.881775 76.568682 
L 86.971383 76.49247 
L 87.060991 76.568682 
L 87.1506 76.301941 
L 87.240208 76.340047 
L 87.598641 76.301941 
L 87.777858 76.340047 
L 88.046683 76.073307 
L 88.2259 76.340047 
L 88.494725 75.806567 
L 88.673941 75.882778 
L 88.76355 76.187624 
L 89.032375 75.730355 
L 89.211591 75.844672 
L 89.3012 75.806567 
L 89.570025 75.997095 
L 89.659633 75.997095 
L 89.749241 75.730355 
L 89.83885 75.806567 
L 89.928458 75.577932 
L 90.107675 75.806567 
L 90.286891 75.806567 
L 90.376499 75.654144 
L 90.466108 75.730355 
L 90.645324 76.035201 
L 90.734933 75.920884 
L 90.914149 75.997095 
L 91.272583 75.463615 
L 91.451799 75.806567 
L 91.631016 76.073307 
L 91.899841 75.616038 
L 92.527099 75.349297 
L 92.616708 75.654144 
L 92.706316 75.425509 
L 92.795924 75.50172 
L 92.885533 75.311192 
L 93.064749 75.577932 
L 93.243966 75.463615 
L 93.333574 75.654144 
L 93.423183 75.539826 
L 93.512791 75.692249 
L 93.692008 75.387403 
L 93.781616 75.539826 
L 93.960832 75.425509 
L 94.140049 75.577932 
L 94.319266 75.273086 
L 94.408874 75.50172 
L 94.498482 75.425509 
L 94.677699 75.50172 
L 94.856916 75.120663 
L 94.946524 75.158769 
L 95.125741 75.349297 
L 95.304957 75.387403 
L 95.394566 75.120663 
L 95.484174 75.23498 
L 95.573782 75.006346 
L 95.842607 75.539826 
L 95.932216 75.577932 
L 96.201041 75.120663 
L 96.290649 75.387403 
L 96.738691 74.96824 
L 96.828299 74.892028 
L 96.917907 75.006346 
L 97.097124 74.663394 
L 97.634774 74.96824 
L 97.903599 74.510971 
L 97.993207 74.510971 
L 98.082815 74.739605 
L 98.172424 74.663394 
L 98.262032 74.739605 
L 98.620465 74.510971 
L 98.799682 74.206125 
L 98.88929 74.549076 
L 98.978899 74.434759 
L 99.068507 74.587182 
L 99.42694 74.396653 
L 99.516549 74.472865 
L 99.695765 74.396653 
L 99.874982 74.320442 
L 100.143807 74.053702 
L 100.50224 74.282336 
L 100.681457 74.358548 
L 100.771065 74.739605 
L 101.03989 74.24423 
L 101.129498 74.129913 
L 101.308715 74.206125 
L 101.57754 74.053702 
L 101.756757 74.129913 
L 101.935973 73.863173 
L 102.025582 73.901279 
L 102.204798 74.282336 
L 102.384015 74.053702 
L 102.473623 74.168019 
L 102.65284 74.206125 
L 102.921665 74.091807 
L 103.011273 74.091807 
L 103.280098 73.748856 
L 103.369707 73.634538 
L 103.459315 73.863173 
L 103.548923 73.786961 
L 103.638532 73.863173 
L 103.72814 73.558327 
L 104.086573 73.939384 
L 104.624223 73.596432 
L 104.713831 73.596432 
L 104.893048 73.71075 
L 104.982656 73.748856 
L 105.161873 73.520221 
L 105.34109 73.596432 
L 105.609915 73.444009 
L 105.789131 73.405904 
L 105.968348 73.253481 
L 106.147565 73.558327 
L 106.237173 73.596432 
L 106.505998 73.177269 
L 106.595606 73.215375 
L 106.774823 73.558327 
L 106.864431 73.558327 
L 107.043648 73.482115 
L 107.49169 73.596432 
L 107.581298 73.482115 
L 107.670906 73.139163 
L 107.760515 73.177269 
L 108.029339 73.291586 
L 108.118948 73.139163 
L 108.387773 72.338942 
L 108.656598 71.767356 
L 108.835814 71.614933 
L 109.104639 70.586077 
L 109.463073 68.985636 
L 109.731898 68.566472 
L 109.821506 68.414049 
L 110.090331 69.404799 
L 110.717589 73.596432 
L 110.986414 74.549076 
L 111.165631 74.739605 
L 111.344848 74.472865 
L 111.434456 74.472865 
L 111.524064 74.625288 
L 111.613672 74.549076 
L 111.792889 74.777711 
L 111.882497 74.663394 
L 112.240931 74.510971 
L 112.509756 74.853923 
L 112.688972 74.625288 
L 112.957797 74.472865 
L 113.047406 74.739605 
L 113.316231 74.358548 
L 113.405839 74.472865 
L 113.585056 74.168019 
L 113.674664 74.168019 
L 113.764272 74.396653 
L 114.122706 74.015596 
L 114.301922 74.282336 
L 114.481139 74.853923 
L 114.570747 74.625288 
L 114.749964 71.310087 
L 115.108397 64.108098 
L 115.556439 55.534302 
L 115.735655 54.048178 
L 115.825264 54.010072 
L 116.00448 56.258312 
L 116.452522 66.43255 
L 116.810955 63.688935 
L 116.900564 64.298627 
L 117.527822 72.872423 
L 117.707039 73.825067 
L 117.796647 74.015596 
L 118.065472 73.825067 
L 118.15508 73.786961 
L 118.334297 73.329692 
L 118.423905 73.520221 
L 119.140772 71.957885 
L 119.588813 71.46251 
L 119.857638 71.538721 
L 120.036855 71.919779 
L 120.216072 71.805462 
L 120.30568 71.919779 
L 120.664113 73.177269 
L 120.753722 73.177269 
L 120.932938 73.901279 
L 121.201763 74.96824 
L 121.560197 75.882778 
L 122.008238 76.606788 
L 122.097847 76.568682 
L 122.45628 77.102162 
L 122.545888 77.102162 
L 122.725105 76.873528 
L 123.083538 77.521326 
L 123.173146 77.48322 
L 123.262755 77.21648 
L 123.352363 77.254585 
L 123.53158 77.21648 
L 123.621188 77.407008 
L 123.890013 76.835422 
L 124.06923 76.606788 
L 124.338055 76.721105 
L 124.517271 76.797316 
L 124.875705 76.22573 
L 125.054921 76.568682 
L 125.14453 76.49247 
L 125.323746 75.882778 
L 125.413355 75.806567 
L 125.502963 75.882778 
L 125.592571 75.806567 
L 125.771788 75.349297 
L 125.951004 75.311192 
L 126.040613 75.349297 
L 126.130221 75.616038 
L 126.578263 74.739605 
L 126.847088 74.853923 
L 127.295129 74.434759 
L 127.653563 74.472865 
L 127.832779 74.091807 
L 127.922388 74.053702 
L 128.101604 74.320442 
L 128.191213 74.320442 
L 128.370429 73.863173 
L 128.549646 73.863173 
L 128.728863 73.596432 
L 128.908079 73.901279 
L 129.266513 73.444009 
L 129.535337 73.97749 
L 129.804162 73.748856 
L 129.893771 74.206125 
L 130.162596 73.825067 
L 130.521029 73.558327 
L 130.700246 74.015596 
L 130.789854 74.053702 
L 130.879462 73.901279 
L 130.969071 73.97749 
L 131.237896 73.863173 
L 131.865154 74.015596 
L 132.044371 73.901279 
L 132.133979 74.129913 
L 132.313196 73.901279 
L 132.492412 73.672644 
L 132.582021 73.863173 
L 132.850845 73.444009 
L 132.940454 73.444009 
L 133.298887 72.948635 
L 133.478104 73.062952 
L 133.567712 72.910529 
L 133.746929 72.415154 
L 133.836537 72.377048 
L 133.926145 72.834317 
L 134.19497 72.377048 
L 134.284579 72.338942 
L 134.463795 72.110308 
L 134.643012 72.338942 
L 134.822229 72.377048 
L 135.001445 72.072202 
L 135.27027 72.377048 
L 135.449487 72.300837 
L 135.539095 72.224625 
L 135.80792 72.491365 
L 135.897529 72.491365 
L 135.987137 72.377048 
L 136.166354 72.681894 
L 136.435178 72.338942 
L 136.524787 72.338942 
L 136.704003 72.605683 
L 136.793612 72.567577 
L 136.88322 72.872423 
L 136.972828 72.834317 
L 137.152045 72.681894 
L 137.331262 72.529471 
L 137.42087 72.643788 
L 137.689695 72.377048 
L 137.779303 72.415154 
L 137.868912 72.72 
L 137.95852 72.643788 
L 138.227345 72.300837 
L 138.406562 72.491365 
L 138.49617 72.72 
L 138.764995 72.529471 
L 139.03382 72.338942 
L 139.392253 72.567577 
L 139.481862 72.300837 
L 139.840295 72.643788 
L 140.288336 72.262731 
L 140.557161 72.377048 
L 140.736378 72.415154 
L 140.915595 72.491365 
L 141.094811 72.224625 
L 141.18442 72.300837 
L 141.363636 72.224625 
L 141.72207 72.300837 
L 141.901286 71.919779 
L 142.170111 72.45326 
L 142.25972 72.338942 
L 142.438936 72.377048 
L 142.618153 72.034096 
L 142.79737 72.072202 
L 142.886978 72.338942 
L 143.066195 72.110308 
L 143.514236 72.034096 
L 143.783061 72.110308 
L 143.962278 71.957885 
L 144.051886 71.957885 
L 144.141494 71.843568 
L 144.320711 71.957885 
L 144.499928 71.805462 
L 144.679144 71.843568 
L 144.768753 71.919779 
L 144.858361 71.843568 
L 144.947969 71.919779 
L 145.127186 71.843568 
L 145.485619 71.576827 
L 145.575228 71.653039 
L 145.664836 71.957885 
L 145.754444 71.919779 
L 145.844053 71.957885 
L 145.933661 71.843568 
L 146.023269 71.919779 
L 146.202486 71.691144 
L 146.471311 72.186519 
L 146.650528 71.72925 
L 146.740136 71.843568 
L 146.829744 71.843568 
L 147.008961 72.186519 
L 147.367394 71.843568 
L 147.457002 71.843568 
L 147.546611 72.072202 
L 147.636219 72.034096 
L 147.815436 72.262731 
L 147.994652 71.843568 
L 147.994652 71.843568 
" clip-path="url(#pd8081580f8)" style="fill: none; stroke: #1f77b4; stroke-width: 1.5; stroke-linecap: square"/>
   </g>
   <g id="patch_3">
    <path d="M 54 128.16 
L 54 17.28 
" style="fill: none; stroke: #000000; stroke-width: 0.8; stroke-linejoin: miter; stroke-linecap: square"/>
   </g>
   <g id="patch_4">
    <path d="M 152.470588 128.16 
L 152.470588 17.28 
" style="fill: none; stroke: #000000; stroke-width: 0.8; stroke-linejoin: miter; stroke-linecap: square"/>
   </g>
   <g id="patch_5">
    <path d="M 54 128.16 
L 152.470588 128.16 
" style="fill: none; stroke: #000000; stroke-width: 0.8; stroke-linejoin: miter; stroke-linecap: square"/>
   </g>
   <g id="patch_6">
    <path d="M 54 17.28 
L 152.470588 17.28 
" style="fill: none; stroke: #000000; stroke-width: 0.8; stroke-linejoin: miter; stroke-linecap: square"/>
   </g>
  </g>
  <g id="axes_2">
   <g id="patch_7">
    <path d="M 172.164706 128.16 
L 270.635294 128.16 
L 270.635294 17.28 
L 172.164706 17.28 
z
" style="fill: #ffffff"/>
   </g>
   <g id="matplotlib.axis_3">
    <g id="xtick_4">
     <g id="line2d_8">
      <g>
       <use xlink:href="#me4f231a289" x="176.640642" y="128.16" style="stroke: #000000; stroke-width: 0.8"/>
      </g>
     </g>
     <g id="text_7">
      <!-- 0 -->
      <g transform="translate(173.459392 142.758438) scale(0.1 -0.1)">
       <use xlink:href="#DejaVuSans-30"/>
      </g>
     </g>
    </g>
    <g id="xtick_5">
     <g id="line2d_9">
      <g>
       <use xlink:href="#me4f231a289" x="221.444804" y="128.16" style="stroke: #000000; stroke-width: 0.8"/>
      </g>
     </g>
     <g id="text_8">
      <!-- 500 -->
      <g transform="translate(211.901054 142.758438) scale(0.1 -0.1)">
       <use xlink:href="#DejaVuSans-35"/>
       <use xlink:href="#DejaVuSans-30" x="63.623047"/>
       <use xlink:href="#DejaVuSans-30" x="127.246094"/>
      </g>
     </g>
    </g>
    <g id="xtick_6">
     <g id="line2d_10">
      <g>
       <use xlink:href="#me4f231a289" x="266.248967" y="128.16" style="stroke: #000000; stroke-width: 0.8"/>
      </g>
     </g>
     <g id="text_9">
      <!-- 1000 -->
      <g transform="translate(253.523967 142.758438) scale(0.1 -0.1)">
       <use xlink:href="#DejaVuSans-31"/>
       <use xlink:href="#DejaVuSans-30" x="63.623047"/>
       <use xlink:href="#DejaVuSans-30" x="127.246094"/>
       <use xlink:href="#DejaVuSans-30" x="190.869141"/>
      </g>
     </g>
    </g>
   </g>
   <g id="matplotlib.axis_4">
    <g id="ytick_4">
     <g id="line2d_11">
      <g>
       <use xlink:href="#m54f25df20b" x="172.164706" y="109.68" style="stroke: #000000; stroke-width: 0.8"/>
      </g>
     </g>
    </g>
    <g id="ytick_5">
     <g id="line2d_12">
      <g>
       <use xlink:href="#m54f25df20b" x="172.164706" y="72.72" style="stroke: #000000; stroke-width: 0.8"/>
      </g>
     </g>
    </g>
    <g id="ytick_6">
     <g id="line2d_13">
      <g>
       <use xlink:href="#m54f25df20b" x="172.164706" y="35.76" style="stroke: #000000; stroke-width: 0.8"/>
      </g>
     </g>
    </g>
   </g>
   <g id="line2d_14">
    <path d="M 176.640642 69.862068 
L 176.73025 69.900174 
L 176.819858 70.090703 
L 177.178292 69.671539 
L 177.447117 70.090703 
L 177.536725 69.976385 
L 177.626333 70.166914 
L 177.715942 69.93828 
L 177.984767 70.20502 
L 178.074375 70.090703 
L 178.253592 70.357443 
L 178.612025 70.090703 
L 178.791242 70.243126 
L 178.88085 70.128808 
L 179.060066 70.243126 
L 179.239283 70.128808 
L 179.328891 70.243126 
L 179.597716 71.386298 
L 179.687325 70.243126 
L 180.583408 44.674161 
L 180.673016 44.521738 
L 180.762625 44.636055 
L 180.941841 49.856544 
L 181.210666 58.239811 
L 181.389883 59.078138 
L 181.5691 58.277917 
L 181.658708 59.192455 
L 181.927533 68.642684 
L 182.196358 76.073307 
L 182.375575 77.48322 
L 182.465183 77.559432 
L 182.644399 77.140268 
L 182.823616 76.835422 
L 183.271658 73.863173 
L 183.630091 71.576827 
L 184.167741 69.93828 
L 184.526174 69.061847 
L 184.794999 69.061847 
L 184.974216 69.48101 
L 185.870299 71.538721 
L 186.228732 72.567577 
L 186.318341 72.643788 
L 186.407949 72.948635 
L 186.497557 72.910529 
L 186.587166 72.948635 
L 186.766382 73.634538 
L 186.855991 73.825067 
L 186.945599 73.558327 
L 187.304032 74.053702 
L 187.572857 74.091807 
L 187.662466 74.053702 
L 187.752074 74.206125 
L 187.931291 73.97749 
L 188.020899 74.168019 
L 188.468941 73.825067 
L 188.558549 74.053702 
L 188.648157 73.786961 
L 188.737766 73.863173 
L 189.006591 73.672644 
L 189.096199 73.748856 
L 189.275416 73.444009 
L 189.365024 73.634538 
L 189.454632 73.367798 
L 189.54424 73.444009 
L 189.633849 73.444009 
L 189.723457 73.139163 
L 189.902674 73.444009 
L 189.992282 73.444009 
L 190.261107 72.910529 
L 190.529932 73.101058 
L 190.61954 72.948635 
L 190.709149 72.529471 
L 190.798757 72.910529 
L 190.888365 72.681894 
L 190.977974 72.72 
L 191.336407 72.491365 
L 191.515624 72.186519 
L 191.69484 72.529471 
L 191.784449 72.45326 
L 191.963665 72.186519 
L 192.053274 72.034096 
L 192.142882 72.186519 
L 192.23249 71.881673 
L 192.322099 71.957885 
L 192.501315 72.034096 
L 192.590924 71.805462 
L 192.680532 71.881673 
L 192.859749 71.72925 
L 192.949357 71.653039 
L 193.038965 71.72925 
L 193.128573 71.576827 
L 193.218182 71.843568 
L 193.30779 71.653039 
L 193.397398 71.919779 
L 193.487007 71.614933 
L 193.576615 71.843568 
L 193.935048 71.348193 
L 194.024657 71.424404 
L 194.562307 71.271981 
L 194.651915 71.005241 
L 194.741523 71.348193 
L 194.831132 71.19577 
L 195.010348 71.271981 
L 195.099957 71.271981 
L 195.368782 71.005241 
L 195.45839 70.967135 
L 195.547998 71.271981 
L 195.637607 71.005241 
L 195.816823 71.119558 
L 195.99604 70.700395 
L 196.085648 70.662289 
L 196.175257 70.967135 
L 196.264865 70.929029 
L 196.354473 71.005241 
L 196.53369 70.776606 
L 196.802515 70.967135 
L 196.892123 70.662289 
L 197.07134 70.776606 
L 197.340165 70.509866 
L 197.519381 70.967135 
L 197.698598 70.852818 
L 197.788206 70.967135 
L 197.877815 70.624183 
L 197.967423 70.700395 
L 198.057031 70.586077 
L 198.236248 70.814712 
L 198.325856 70.700395 
L 198.415465 70.814712 
L 198.68429 70.509866 
L 198.863506 70.929029 
L 198.953115 70.852818 
L 199.042723 70.547972 
L 199.132331 70.624183 
L 199.22194 70.7385 
L 199.401156 70.662289 
L 199.669981 70.852818 
L 199.75959 70.852818 
L 199.849198 70.586077 
L 199.938806 70.624183 
L 200.028415 70.547972 
L 200.207631 70.814712 
L 200.476456 70.586077 
L 200.566064 70.624183 
L 200.655673 70.814712 
L 201.014106 70.509866 
L 201.282931 70.357443 
L 201.372539 70.700395 
L 201.462148 70.662289 
L 201.641364 70.700395 
L 201.730973 70.395549 
L 201.820581 70.47176 
L 201.910189 70.47176 
L 202.089406 70.700395 
L 202.179014 70.395549 
L 202.268623 70.624183 
L 202.358231 70.357443 
L 202.447839 70.433654 
L 202.627056 70.624183 
L 202.806273 70.509866 
L 202.985489 70.509866 
L 203.075098 70.547972 
L 203.254314 70.20502 
L 203.343923 70.509866 
L 203.612748 70.014491 
L 203.702356 70.319337 
L 203.791964 70.20502 
L 203.881572 69.785856 
L 203.971181 69.976385 
L 204.508831 69.061847 
L 205.046481 66.508761 
L 205.225697 66.851713 
L 205.404914 66.546867 
L 205.584131 66.69929 
L 206.480214 71.805462 
L 206.569822 72.072202 
L 206.659431 72.034096 
L 206.838647 72.110308 
L 207.017864 72.186519 
L 207.376297 71.691144 
L 207.465905 71.72925 
L 207.645122 71.576827 
L 207.824339 71.614933 
L 207.913947 71.614933 
L 208.003555 71.500616 
L 208.093164 71.614933 
L 208.27238 71.386298 
L 208.451597 71.310087 
L 208.541205 71.119558 
L 208.720422 71.424404 
L 208.81003 71.348193 
L 208.989247 71.043347 
L 209.258072 71.348193 
L 209.437289 71.157664 
L 209.616505 70.967135 
L 209.706114 70.967135 
L 209.795722 71.081452 
L 209.974939 70.814712 
L 210.064547 70.814712 
L 210.154155 70.624183 
L 210.243764 70.814712 
L 210.42298 71.881673 
L 210.512589 71.233875 
L 211.49828 47.112929 
L 211.587888 47.227247 
L 211.677497 48.332314 
L 212.125538 60.869109 
L 212.483972 59.192455 
L 212.663188 64.336733 
L 213.021622 75.158769 
L 213.290447 77.445114 
L 213.559272 76.568682 
L 213.828097 75.654144 
L 214.365746 71.46251 
L 214.455355 71.271981 
L 214.903396 69.48101 
L 214.993005 69.328587 
L 215.082613 68.909424 
L 215.172221 68.94753 
L 215.26183 68.757001 
L 215.351438 68.871318 
L 215.620263 68.566472 
L 215.79948 69.138059 
L 215.978696 69.557222 
L 216.068305 69.557222 
L 216.426738 70.586077 
L 216.695563 71.46251 
L 216.785171 71.46251 
L 217.053996 72.148414 
L 217.233213 72.567577 
L 217.591646 73.215375 
L 217.770863 73.71075 
L 218.129296 73.863173 
L 218.218904 74.282336 
L 218.398121 74.053702 
L 218.577338 74.206125 
L 218.666946 74.206125 
L 218.846163 73.901279 
L 218.935771 74.129913 
L 219.025379 74.091807 
L 219.473421 73.634538 
L 219.563029 73.748856 
L 219.652638 73.444009 
L 219.742246 73.672644 
L 219.921463 73.444009 
L 220.100679 73.405904 
L 220.190288 73.253481 
L 220.279896 73.405904 
L 220.459113 73.367798 
L 220.638329 72.948635 
L 220.907154 72.98674 
L 221.086371 72.681894 
L 221.175979 72.872423 
L 221.355196 72.415154 
L 221.444804 72.491365 
L 221.534412 72.224625 
L 221.624021 72.300837 
L 221.982454 72.034096 
L 222.072062 71.957885 
L 222.251279 72.072202 
L 222.520104 71.767356 
L 223.236971 71.424404 
L 223.326579 71.19577 
L 223.416187 71.310087 
L 223.505796 71.119558 
L 223.595404 71.271981 
L 224.043446 70.890924 
L 224.133054 71.119558 
L 224.222662 71.081452 
L 224.312271 71.081452 
L 224.581096 70.814712 
L 224.670704 70.7385 
L 224.849921 71.081452 
L 225.029137 70.509866 
L 225.208354 70.662289 
L 225.297962 70.662289 
L 225.477179 70.776606 
L 225.566787 70.395549 
L 225.746004 70.700395 
L 225.835612 70.662289 
L 225.92522 70.395549 
L 226.014829 70.509866 
L 226.104437 70.395549 
L 226.194045 70.509866 
L 226.283654 70.243126 
L 226.373262 70.624183 
L 226.46287 70.243126 
L 226.552479 70.281231 
L 226.642087 70.281231 
L 226.821304 70.624183 
L 226.910912 70.47176 
L 227.00052 70.547972 
L 227.090129 70.395549 
L 227.179737 70.624183 
L 227.269345 70.281231 
L 227.448562 70.624183 
L 227.627779 70.395549 
L 227.806995 70.20502 
L 227.986212 70.395549 
L 228.07582 70.47176 
L 228.255037 70.357443 
L 228.434254 70.47176 
L 228.523862 70.243126 
L 228.61347 70.281231 
L 228.882295 70.433654 
L 229.061512 70.128808 
L 229.15112 70.052597 
L 229.240728 70.128808 
L 229.419945 70.357443 
L 229.68877 69.93828 
L 229.778378 70.014491 
L 229.957595 70.357443 
L 230.047203 70.166914 
L 230.136812 70.395549 
L 230.22642 70.243126 
L 230.316028 70.395549 
L 230.495245 69.93828 
L 230.674462 70.47176 
L 230.76407 70.433654 
L 230.853678 70.357443 
L 230.943287 69.900174 
L 231.032895 70.128808 
L 231.122503 70.014491 
L 231.30172 70.20502 
L 231.391328 70.090703 
L 231.480937 70.243126 
L 231.570545 70.166914 
L 231.660153 70.357443 
L 231.749762 70.090703 
L 231.928978 70.243126 
L 232.108195 70.433654 
L 232.287411 69.976385 
L 232.466628 70.243126 
L 232.645845 70.395549 
L 232.825061 70.090703 
L 232.91467 70.357443 
L 233.004278 70.243126 
L 233.093886 70.433654 
L 233.541928 70.166914 
L 233.631536 70.624183 
L 233.721145 70.509866 
L 233.810753 70.395549 
L 233.98997 70.47176 
L 234.258795 70.166914 
L 234.348403 70.547972 
L 234.438011 70.47176 
L 234.52762 70.509866 
L 234.886053 70.052597 
L 235.06527 69.900174 
L 235.244486 70.090703 
L 235.423703 69.93828 
L 235.513311 70.090703 
L 235.602919 69.747751 
L 235.692528 69.976385 
L 235.961353 69.785856 
L 236.050961 69.785856 
L 236.140569 70.014491 
L 236.319786 69.862068 
L 236.409394 69.785856 
L 236.588611 69.900174 
L 236.678219 69.595328 
L 236.767828 69.633433 
L 236.857436 69.709645 
L 237.126261 69.442905 
L 237.215869 69.328587 
L 237.305478 69.595328 
L 237.395086 69.290482 
L 237.484694 69.404799 
L 237.663911 69.176164 
L 237.753519 69.519116 
L 237.843128 69.176164 
L 238.022344 69.442905 
L 238.111953 69.366693 
L 238.291169 69.557222 
L 238.380778 69.519116 
L 238.649603 69.747751 
L 238.828819 69.595328 
L 238.918428 69.976385 
L 239.097644 69.785856 
L 239.276861 70.014491 
L 239.456077 70.20502 
L 239.545686 69.93828 
L 239.724902 70.395549 
L 239.814511 70.243126 
L 239.904119 70.395549 
L 240.172944 70.20502 
L 240.262552 70.509866 
L 240.352161 70.47176 
L 240.620986 70.357443 
L 240.889811 70.433654 
L 241.069027 70.852818 
L 241.337852 70.586077 
L 241.606677 71.005241 
L 241.696286 70.700395 
L 241.875502 70.967135 
L 242.054719 70.662289 
L 242.144327 70.890924 
L 242.323544 70.700395 
L 242.502761 70.700395 
L 242.592369 70.547972 
L 242.681977 70.700395 
L 242.861194 70.509866 
L 242.950802 70.890924 
L 243.04041 70.624183 
L 243.219627 70.967135 
L 243.398844 70.814712 
L 243.488452 70.814712 
L 243.757277 71.157664 
L 243.846885 71.005241 
L 243.936494 71.081452 
L 244.026102 70.967135 
L 244.205319 71.119558 
L 244.563752 70.814712 
L 244.65336 70.890924 
L 244.742969 70.776606 
L 245.011794 71.19577 
L 245.19101 70.814712 
L 245.280619 70.890924 
L 245.370227 70.700395 
L 245.459835 70.776606 
L 245.549444 71.043347 
L 245.72866 70.662289 
L 245.907877 70.776606 
L 245.997485 70.662289 
L 246.176702 70.776606 
L 246.355918 70.624183 
L 246.445527 70.624183 
L 246.535135 70.509866 
L 246.624743 70.7385 
L 247.072785 70.243126 
L 247.162393 70.357443 
L 247.520827 70.319337 
L 247.700043 70.47176 
L 247.87926 70.281231 
L 248.058477 70.433654 
L 248.237693 70.433654 
L 248.327302 70.090703 
L 248.41691 70.128808 
L 248.596127 70.20502 
L 248.685735 70.128808 
L 248.864952 70.243126 
L 248.95456 70.243126 
L 249.044168 70.128808 
L 249.133777 70.281231 
L 249.223385 69.93828 
L 249.312993 70.20502 
L 249.402602 70.128808 
L 250.02986 69.900174 
L 250.119468 70.090703 
L 250.209076 70.014491 
L 250.298685 70.090703 
L 250.388293 69.900174 
L 250.657118 70.395549 
L 250.836335 70.7385 
L 251.10516 70.433654 
L 251.64281 70.547972 
L 251.911635 70.281231 
L 252.001243 70.47176 
L 252.090851 70.243126 
L 252.18046 70.281231 
L 252.270068 70.357443 
L 252.449285 70.20502 
L 252.628501 70.509866 
L 252.71811 70.47176 
L 252.897326 70.090703 
L 252.986935 70.433654 
L 253.166151 70.20502 
L 253.434976 70.395549 
L 253.703801 70.128808 
L 253.793409 70.243126 
L 253.883018 70.166914 
L 254.062234 70.281231 
L 254.241451 70.052597 
L 254.420668 70.128808 
L 254.510276 70.243126 
L 254.689493 70.20502 
L 254.779101 70.243126 
L 255.047926 69.862068 
L 255.137534 70.090703 
L 255.227143 69.976385 
L 255.406359 70.128808 
L 255.585576 69.93828 
L 255.764793 69.93828 
L 255.944009 70.090703 
L 256.302443 70.052597 
L 256.392051 70.243126 
L 256.481659 70.052597 
L 256.660876 70.243126 
L 256.840092 69.976385 
L 257.019309 69.93828 
L 257.198526 70.243126 
L 257.377742 69.93828 
L 257.556959 70.090703 
L 257.915392 70.128808 
L 258.005001 70.20502 
L 258.184217 70.090703 
L 258.273826 70.052597 
L 258.542651 70.509866 
L 258.632259 70.20502 
L 258.901084 70.624183 
L 258.990692 70.547972 
L 259.169909 70.700395 
L 259.259517 70.7385 
L 259.349126 70.929029 
L 259.528342 70.624183 
L 259.976384 72.643788 
L 260.065992 72.491365 
L 260.245209 68.375943 
L 260.962075 45.931651 
L 261.141292 44.788478 
L 261.2309 45.093324 
L 261.410117 50.085179 
L 261.678942 59.306772 
L 261.858159 60.183205 
L 261.947767 60.145099 
L 262.037375 59.840253 
L 262.126984 60.488051 
L 262.395809 69.595328 
L 262.664634 76.49247 
L 262.933459 77.559432 
L 263.023067 77.635643 
L 263.739934 74.206125 
L 264.367192 70.852818 
L 264.725625 69.785856 
L 264.815233 69.785856 
L 264.99445 69.366693 
L 265.084058 69.366693 
L 265.173667 69.252376 
L 265.263275 69.404799 
L 265.442492 69.290482 
L 265.621708 69.93828 
L 265.711317 69.900174 
L 266.159358 70.814712 
L 266.159358 70.814712 
" clip-path="url(#p93e810e2e5)" style="fill: none; stroke: #1f77b4; stroke-width: 1.5; stroke-linecap: square"/>
   </g>
   <g id="patch_8">
    <path d="M 172.164706 128.16 
L 172.164706 17.28 
" style="fill: none; stroke: #000000; stroke-width: 0.8; stroke-linejoin: miter; stroke-linecap: square"/>
   </g>
   <g id="patch_9">
    <path d="M 270.635294 128.16 
L 270.635294 17.28 
" style="fill: none; stroke: #000000; stroke-width: 0.8; stroke-linejoin: miter; stroke-linecap: square"/>
   </g>
   <g id="patch_10">
    <path d="M 172.164706 128.16 
L 270.635294 128.16 
" style="fill: none; stroke: #000000; stroke-width: 0.8; stroke-linejoin: miter; stroke-linecap: square"/>
   </g>
   <g id="patch_11">
    <path d="M 172.164706 17.28 
L 270.635294 17.28 
" style="fill: none; stroke: #000000; stroke-width: 0.8; stroke-linejoin: miter; stroke-linecap: square"/>
   </g>
  </g>
  <g id="axes_3">
   <g id="patch_12">
    <path d="M 290.329412 128.16 
L 388.8 128.16 
L 388.8 17.28 
L 290.329412 17.28 
z
" style="fill: #ffffff"/>
   </g>
   <g id="matplotlib.axis_5">
    <g id="xtick_7">
     <g id="line2d_15">
      <g>
       <use xlink:href="#me4f231a289" x="294.805348" y="128.16" style="stroke: #000000; stroke-width: 0.8"/>
      </g>
     </g>
     <g id="text_10">
      <!-- 0 -->
      <g transform="translate(291.624098 142.758438) scale(0.1 -0.1)">
       <use xlink:href="#DejaVuSans-30"/>
      </g>
     </g>
    </g>
    <g id="xtick_8">
     <g id="line2d_16">
      <g>
       <use xlink:href="#me4f231a289" x="339.60951" y="128.16" style="stroke: #000000; stroke-width: 0.8"/>
      </g>
     </g>
     <g id="text_11">
      <!-- 500 -->
      <g transform="translate(330.06576 142.758438) scale(0.1 -0.1)">
       <use xlink:href="#DejaVuSans-35"/>
       <use xlink:href="#DejaVuSans-30" x="63.623047"/>
       <use xlink:href="#DejaVuSans-30" x="127.246094"/>
      </g>
     </g>
    </g>
    <g id="xtick_9">
     <g id="line2d_17">
      <g>
       <use xlink:href="#me4f231a289" x="384.413672" y="128.16" style="stroke: #000000; stroke-width: 0.8"/>
      </g>
     </g>
     <g id="text_12">
      <!-- 1000 -->
      <g transform="translate(371.688672 142.758438) scale(0.1 -0.1)">
       <use xlink:href="#DejaVuSans-31"/>
       <use xlink:href="#DejaVuSans-30" x="63.623047"/>
       <use xlink:href="#DejaVuSans-30" x="127.246094"/>
       <use xlink:href="#DejaVuSans-30" x="190.869141"/>
      </g>
     </g>
    </g>
   </g>
   <g id="matplotlib.axis_6">
    <g id="ytick_7">
     <g id="line2d_18">
      <g>
       <use xlink:href="#m54f25df20b" x="290.329412" y="109.68" style="stroke: #000000; stroke-width: 0.8"/>
      </g>
     </g>
    </g>
    <g id="ytick_8">
     <g id="line2d_19">
      <g>
       <use xlink:href="#m54f25df20b" x="290.329412" y="72.72" style="stroke: #000000; stroke-width: 0.8"/>
      </g>
     </g>
    </g>
    <g id="ytick_9">
     <g id="line2d_20">
      <g>
       <use xlink:href="#m54f25df20b" x="290.329412" y="35.76" style="stroke: #000000; stroke-width: 0.8"/>
      </g>
     </g>
    </g>
   </g>
   <g id="line2d_21">
    <path d="M 294.805348 70.814712 
L 294.984564 70.852818 
L 295.163781 70.586077 
L 295.342998 70.700395 
L 295.522214 70.509866 
L 295.701431 70.852818 
L 295.970256 70.586077 
L 296.059864 70.509866 
L 296.149472 70.967135 
L 296.239081 70.852818 
L 296.507906 70.624183 
L 296.597514 70.547972 
L 296.776731 70.700395 
L 296.866339 70.547972 
L 297.045556 70.624183 
L 297.224772 70.547972 
L 297.314381 70.700395 
L 297.493597 70.47176 
L 297.583206 70.700395 
L 297.852031 70.357443 
L 298.031247 70.624183 
L 298.300072 70.281231 
L 298.479289 70.281231 
L 298.568897 70.662289 
L 298.658506 70.281231 
L 298.837722 70.509866 
L 299.196156 70.090703 
L 299.375372 70.47176 
L 299.46498 70.509866 
L 299.644197 70.052597 
L 299.913022 70.243126 
L 300.092239 70.20502 
L 300.181847 70.357443 
L 300.450672 70.014491 
L 300.719497 70.357443 
L 300.988322 69.900174 
L 301.167539 70.243126 
L 301.346755 70.090703 
L 301.436364 69.900174 
L 301.705189 70.090703 
L 301.794797 69.785856 
L 301.884405 70.090703 
L 301.974014 69.976385 
L 302.063622 70.052597 
L 302.242839 69.823962 
L 302.511664 70.20502 
L 302.870097 69.785856 
L 303.049313 69.976385 
L 303.676572 69.747751 
L 303.855788 69.93828 
L 303.945397 70.052597 
L 304.124613 69.557222 
L 304.393438 69.900174 
L 304.572655 69.557222 
L 304.751872 69.671539 
L 304.84148 69.671539 
L 304.931088 69.862068 
L 305.020697 69.671539 
L 305.110305 69.862068 
L 305.289522 69.595328 
L 305.468738 69.442905 
L 305.558347 69.48101 
L 305.737563 69.709645 
L 306.006388 69.48101 
L 306.185605 69.633433 
L 306.275213 69.48101 
L 306.544038 69.785856 
L 306.812863 69.48101 
L 306.902471 69.595328 
L 307.081688 69.900174 
L 307.260905 69.595328 
L 307.350513 69.519116 
L 307.52973 69.823962 
L 307.619338 69.633433 
L 307.798555 69.747751 
L 307.888163 69.785856 
L 308.06738 69.442905 
L 308.246596 69.519116 
L 308.336205 69.862068 
L 308.425813 69.823962 
L 308.515421 69.557222 
L 308.60503 69.595328 
L 308.873855 69.785856 
L 308.963463 69.633433 
L 309.14268 69.93828 
L 309.321896 69.900174 
L 309.411505 69.633433 
L 309.68033 70.20502 
L 309.769938 70.166914 
L 309.859546 69.862068 
L 309.949155 69.900174 
L 310.038763 70.014491 
L 310.128371 70.395549 
L 310.397196 70.014491 
L 310.576413 70.243126 
L 310.666021 70.166914 
L 310.755629 69.93828 
L 311.024454 70.509866 
L 311.114063 70.433654 
L 311.203671 70.395549 
L 311.293279 70.166914 
L 311.562104 70.509866 
L 311.741321 70.395549 
L 311.830929 70.395549 
L 311.920538 70.586077 
L 312.099754 70.395549 
L 312.458188 70.967135 
L 312.637404 70.624183 
L 312.906229 70.852818 
L 313.085446 70.776606 
L 313.264663 70.814712 
L 313.623096 70.776606 
L 313.712704 70.967135 
L 313.981529 70.586077 
L 314.160746 70.967135 
L 314.519179 70.700395 
L 314.608787 70.814712 
L 314.877612 70.547972 
L 315.056829 70.7385 
L 315.236046 70.281231 
L 315.415262 70.47176 
L 315.504871 70.547972 
L 315.863304 70.090703 
L 316.042521 69.823962 
L 316.221737 69.671539 
L 316.400954 69.595328 
L 316.580171 68.718895 
L 316.848996 67.728145 
L 317.028212 67.423299 
L 317.11782 67.499511 
L 317.297037 67.042242 
L 317.386645 67.194665 
L 318.103512 70.281231 
L 318.551554 72.45326 
L 318.641162 72.605683 
L 318.909987 74.282336 
L 318.999595 73.444009 
L 319.80607 46.884295 
L 319.985287 45.893545 
L 320.074895 45.931651 
L 320.164504 46.960506 
L 320.791762 62.126599 
L 321.150195 64.908319 
L 321.687845 75.692249 
L 321.95667 75.95899 
L 322.673537 73.596432 
L 323.300795 71.881673 
L 323.748837 71.691144 
L 324.017662 72.224625 
L 324.196878 72.186519 
L 324.824136 73.558327 
L 325.541003 74.434759 
L 325.809828 75.196874 
L 325.989045 75.425509 
L 326.078653 75.425509 
L 326.347478 75.882778 
L 326.526695 75.768461 
L 326.616303 75.882778 
L 326.974736 75.349297 
L 327.153953 75.577932 
L 327.422778 75.196874 
L 327.960428 75.273086 
L 328.229253 74.777711 
L 328.498078 74.815817 
L 328.856511 74.053702 
L 328.946119 74.053702 
L 329.662986 73.139163 
L 329.752594 73.482115 
L 330.111028 72.681894 
L 330.200636 72.834317 
L 330.379853 72.948635 
L 330.559069 72.491365 
L 330.827894 72.224625 
L 331.007111 72.034096 
L 331.096719 72.377048 
L 331.186328 72.338942 
L 331.365544 72.072202 
L 331.544761 71.919779 
L 331.634369 72.186519 
L 331.723977 72.148414 
L 331.903194 71.805462 
L 331.992802 71.919779 
L 332.082411 71.805462 
L 332.172019 71.957885 
L 332.351236 71.72925 
L 332.440844 72.072202 
L 332.620061 71.767356 
L 332.799277 71.691144 
L 332.978494 71.995991 
L 333.068102 71.919779 
L 333.157711 71.500616 
L 333.247319 71.576827 
L 333.336927 71.46251 
L 333.426536 71.691144 
L 333.874577 71.424404 
L 334.143402 71.386298 
L 334.233011 71.576827 
L 334.501836 71.157664 
L 335.039485 71.424404 
L 335.129094 71.576827 
L 335.397919 71.386298 
L 335.487527 71.653039 
L 335.577135 71.614933 
L 335.666744 71.72925 
L 335.935569 71.424404 
L 336.204394 71.614933 
L 336.294002 71.500616 
L 336.473219 71.576827 
L 336.562827 71.576827 
L 336.652435 71.386298 
L 336.742044 71.614933 
L 336.831652 71.500616 
L 337.010869 71.691144 
L 337.190085 71.500616 
L 337.279694 71.310087 
L 337.548519 71.500616 
L 338.265385 71.310087 
L 338.354993 71.386298 
L 338.623818 70.852818 
L 338.803035 71.233875 
L 338.892643 71.157664 
L 339.07186 70.776606 
L 339.161468 71.081452 
L 339.251077 71.005241 
L 339.519902 71.005241 
L 339.60951 71.19577 
L 339.878335 70.852818 
L 339.967943 70.814712 
L 340.14716 71.081452 
L 340.236768 71.081452 
L 340.415985 70.814712 
L 340.595202 71.005241 
L 341.043243 70.967135 
L 341.22246 70.814712 
L 341.312068 70.852818 
L 341.491285 71.119558 
L 341.76011 70.7385 
L 341.939326 70.852818 
L 342.118543 70.700395 
L 342.29776 70.967135 
L 342.566585 70.662289 
L 342.83541 70.852818 
L 343.014626 70.776606 
L 343.104235 70.509866 
L 343.283451 70.967135 
L 343.37306 70.700395 
L 343.462668 70.7385 
L 343.552276 70.586077 
L 343.731493 70.776606 
L 343.91071 70.547972 
L 344.179535 71.005241 
L 344.358751 70.547972 
L 344.627576 71.005241 
L 344.896401 70.700395 
L 345.075618 70.852818 
L 345.165226 70.852818 
L 345.254835 70.700395 
L 345.523659 71.005241 
L 345.702876 70.547972 
L 345.792484 70.624183 
L 345.971701 70.929029 
L 346.240526 70.624183 
L 346.509351 70.967135 
L 346.688568 70.852818 
L 346.778176 71.081452 
L 347.047001 70.662289 
L 347.226218 71.005241 
L 347.405434 70.929029 
L 347.584651 70.547972 
L 347.853476 70.852818 
L 348.391126 70.547972 
L 348.570343 70.890924 
L 348.659951 70.967135 
L 348.928776 70.509866 
L 349.107992 71.005241 
L 349.197601 70.852818 
L 349.376817 70.547972 
L 349.645642 70.776606 
L 349.735251 70.547972 
L 350.004076 70.814712 
L 350.183292 70.47176 
L 350.272901 70.547972 
L 350.362509 70.547972 
L 350.541726 70.852818 
L 350.631334 70.547972 
L 350.720942 70.586077 
L 350.810551 70.547972 
L 350.900159 70.700395 
L 350.989767 70.547972 
L 351.258592 70.776606 
L 351.437809 70.586077 
L 351.527417 70.624183 
L 351.617026 70.509866 
L 351.796242 70.852818 
L 352.065067 70.357443 
L 352.154676 70.547972 
L 352.244284 70.547972 
L 352.333892 70.700395 
L 352.513109 70.509866 
L 352.602717 70.7385 
L 352.871542 70.357443 
L 353.050759 70.700395 
L 353.140367 71.310087 
L 353.319584 70.547972 
L 353.409192 70.395549 
L 353.678017 70.586077 
L 353.857234 70.624183 
L 354.03645 70.700395 
L 354.215667 70.509866 
L 354.484492 70.814712 
L 354.753317 70.47176 
L 354.842925 70.7385 
L 354.932534 70.700395 
L 355.201359 70.509866 
L 355.380575 70.586077 
L 355.559792 70.281231 
L 355.6494 70.547972 
L 355.739009 70.509866 
L 355.918225 70.547972 
L 356.097442 70.243126 
L 356.276658 70.776606 
L 356.545483 70.509866 
L 356.635092 70.509866 
L 356.7247 70.624183 
L 356.903917 70.433654 
L 357.172742 70.776606 
L 357.441567 70.243126 
L 357.531175 70.395549 
L 357.620783 70.776606 
L 357.710392 70.700395 
L 357.8 70.547972 
L 357.889608 70.624183 
L 358.158433 70.509866 
L 358.516867 70.700395 
L 358.696083 70.433654 
L 358.8753 70.586077 
L 358.964908 70.814712 
L 359.233733 70.433654 
L 359.681775 70.547972 
L 359.771383 70.47176 
L 359.860991 70.586077 
L 360.129816 70.357443 
L 360.219425 70.700395 
L 360.309033 70.624183 
L 360.398641 70.624183 
L 360.577858 70.47176 
L 360.846683 70.662289 
L 360.936291 70.547972 
L 361.115508 70.662289 
L 361.384333 70.395549 
L 361.56355 70.624183 
L 361.653158 70.624183 
L 361.921983 70.166914 
L 362.011591 70.243126 
L 362.370025 71.995991 
L 362.459633 71.72925 
L 362.63885 66.280127 
L 363.176499 48.980112 
L 363.355716 45.703016 
L 363.534933 44.445526 
L 363.624541 45.093324 
L 363.803758 50.123284 
L 364.072583 58.887609 
L 364.699841 64.45105 
L 365.058274 74.396653 
L 365.327099 74.853923 
L 365.416708 74.892028 
L 365.506316 75.158769 
L 365.595924 75.082557 
L 365.685533 74.892028 
L 366.043966 73.215375 
L 366.133574 73.177269 
L 366.402399 72.224625 
L 366.671224 71.424404 
L 366.760832 71.119558 
L 366.940049 71.310087 
L 367.029657 71.271981 
L 367.208874 70.852818 
L 368.552999 73.024846 
L 368.642607 73.062952 
L 368.821824 73.596432 
L 369.001041 73.444009 
L 369.359474 74.015596 
L 369.449082 73.901279 
L 369.717907 74.396653 
L 369.897124 74.129913 
L 370.076341 74.510971 
L 370.345165 74.206125 
L 370.61399 74.472865 
L 371.062032 74.015596 
L 371.15164 74.091807 
L 371.420465 73.901279 
L 371.68929 73.329692 
L 371.868507 73.672644 
L 372.137332 73.329692 
L 372.22694 73.101058 
L 372.316549 73.139163 
L 372.854199 72.872423 
L 373.033415 72.567577 
L 373.123024 72.529471 
L 373.30224 72.681894 
L 373.571065 72.148414 
L 373.660674 72.45326 
L 373.750282 72.377048 
L 374.108715 71.957885 
L 374.467148 71.881673 
L 374.646365 72.034096 
L 374.91519 71.614933 
L 375.094407 71.843568 
L 375.273623 71.424404 
L 375.363232 71.538721 
L 375.45284 71.576827 
L 375.632057 71.348193 
L 375.721665 71.46251 
L 375.900882 71.424404 
L 375.99049 71.424404 
L 376.169707 71.119558 
L 376.259315 71.081452 
L 376.438532 71.310087 
L 376.617748 71.081452 
L 376.707357 70.852818 
L 376.886573 71.19577 
L 377.155398 70.852818 
L 377.334615 70.852818 
L 377.513831 70.776606 
L 377.782656 70.776606 
L 378.051481 70.547972 
L 378.230698 70.852818 
L 378.320306 70.7385 
L 378.499523 70.433654 
L 378.768348 70.662289 
L 378.857956 70.586077 
L 379.037173 70.700395 
L 379.305998 70.281231 
L 379.574823 70.624183 
L 379.843648 70.20502 
L 379.933256 70.319337 
L 380.112473 70.395549 
L 380.381298 70.433654 
L 380.560515 70.166914 
L 380.650123 70.090703 
L 380.829339 70.395549 
L 381.187773 69.93828 
L 381.366989 70.395549 
L 381.725423 69.862068 
L 381.904639 69.900174 
L 382.083856 69.93828 
L 382.263073 70.090703 
L 382.531898 69.671539 
L 382.711114 69.900174 
L 382.800723 69.900174 
L 382.979939 69.785856 
L 383.069548 69.976385 
L 383.248764 69.747751 
L 383.338373 69.747751 
L 383.607198 70.090703 
L 383.876023 69.785856 
L 383.965631 69.823962 
L 384.055239 70.052597 
L 384.144848 69.976385 
L 384.234456 69.747751 
L 384.324064 69.900174 
L 384.324064 69.900174 
" clip-path="url(#pc95c7cce66)" style="fill: none; stroke: #1f77b4; stroke-width: 1.5; stroke-linecap: square"/>
   </g>
   <g id="patch_13">
    <path d="M 290.329412 128.16 
L 290.329412 17.28 
" style="fill: none; stroke: #000000; stroke-width: 0.8; stroke-linejoin: miter; stroke-linecap: square"/>
   </g>
   <g id="patch_14">
    <path d="M 388.8 128.16 
L 388.8 17.28 
" style="fill: none; stroke: #000000; stroke-width: 0.8; stroke-linejoin: miter; stroke-linecap: square"/>
   </g>
   <g id="patch_15">
    <path d="M 290.329412 128.16 
L 388.8 128.16 
" style="fill: none; stroke: #000000; stroke-width: 0.8; stroke-linejoin: miter; stroke-linecap: square"/>
   </g>
   <g id="patch_16">
    <path d="M 290.329412 17.28 
L 388.8 17.28 
" style="fill: none; stroke: #000000; stroke-width: 0.8; stroke-linejoin: miter; stroke-linecap: square"/>
   </g>
  </g>
 </g>
 <defs>
  <clipPath id="pd8081580f8">
   <rect x="54" y="17.28" width="98.470588" height="110.88"/>
  </clipPath>
  <clipPath id="p93e810e2e5">
   <rect x="172.164706" y="17.28" width="98.470588" height="110.88"/>
  </clipPath>
  <clipPath id="pc95c7cce66">
   <rect x="290.329412" y="17.28" width="98.470588" height="110.88"/>
  </clipPath>
 </defs>
</svg>
