<?xml version="1.0" encoding="utf-8" standalone="no"?>
<!DOCTYPE svg PUBLIC "-//W3C//DTD SVG 1.1//EN"
  "http://www.w3.org/Graphics/SVG/1.1/DTD/svg11.dtd">
<svg xmlns:xlink="http://www.w3.org/1999/xlink" width="432pt" height="144pt" viewBox="0 0 432 144" xmlns="http://www.w3.org/2000/svg" version="1.1">
 <metadata>
  <rdf:RDF xmlns:dc="http://purl.org/dc/elements/1.1/" xmlns:cc="http://creativecommons.org/ns#" xmlns:rdf="http://www.w3.org/1999/02/22-rdf-syntax-ns#">
   <cc:Work>
    <dc:type rdf:resource="http://purl.org/dc/dcmitype/StillImage"/>
    <dc:date>2023-11-16T11:53:35.767610</dc:date>
    <dc:format>image/svg+xml</dc:format>
    <dc:creator>
     <cc:Agent>
      <dc:title>Matplotlib v3.7.3, https://matplotlib.org/</dc:title>
     </cc:Agent>
    </dc:creator>
   </cc:Work>
  </rdf:RDF>
 </metadata>
 <defs>
  <style type="text/css">*{stroke-linejoin: round; stroke-linecap: butt}</style>
 </defs>
 <g id="figure_1">
  <g id="patch_1">
   <path d="M 0 144 
L 432 144 
L 432 0 
L 0 0 
z
" style="fill: #ffffff"/>
  </g>
  <g id="axes_1">
   <g id="patch_2">
    <path d="M 54 128.16 
L 152.470588 128.16 
L 152.470588 17.28 
L 54 17.28 
z
" style="fill: #ffffff"/>
   </g>
   <g id="matplotlib.axis_1">
    <g id="xtick_1">
     <g id="line2d_1">
      <defs>
       <path id="m047447719f" d="M 0 0 
L 0 3.5 
" style="stroke: #000000; stroke-width: 0.8"/>
      </defs>
      <g>
       <use xlink:href="#m047447719f" x="58.475936" y="128.16" style="stroke: #000000; stroke-width: 0.8"/>
      </g>
     </g>
     <g id="text_1">
      <!-- 0 -->
      <g transform="translate(55.294686 142.758438) scale(0.1 -0.1)">
       <defs>
        <path id="DejaVuSans-30" d="M 2034 4250 
Q 1547 4250 1301 3770 
Q 1056 3291 1056 2328 
Q 1056 1369 1301 889 
Q 1547 409 2034 409 
Q 2525 409 2770 889 
Q 3016 1369 3016 2328 
Q 3016 3291 2770 3770 
Q 2525 4250 2034 4250 
z
M 2034 4750 
Q 2819 4750 3233 4129 
Q 3647 3509 3647 2328 
Q 3647 1150 3233 529 
Q 2819 -91 2034 -91 
Q 1250 -91 836 529 
Q 422 1150 422 2328 
Q 422 3509 836 4129 
Q 1250 4750 2034 4750 
z
" transform="scale(0.015625)"/>
       </defs>
       <use xlink:href="#DejaVuSans-30"/>
      </g>
     </g>
    </g>
    <g id="xtick_2">
     <g id="line2d_2">
      <g>
       <use xlink:href="#m047447719f" x="103.280098" y="128.16" style="stroke: #000000; stroke-width: 0.8"/>
      </g>
     </g>
     <g id="text_2">
      <!-- 500 -->
      <g transform="translate(93.736348 142.758438) scale(0.1 -0.1)">
       <defs>
        <path id="DejaVuSans-35" d="M 691 4666 
L 3169 4666 
L 3169 4134 
L 1269 4134 
L 1269 2991 
Q 1406 3038 1543 3061 
Q 1681 3084 1819 3084 
Q 2600 3084 3056 2656 
Q 3513 2228 3513 1497 
Q 3513 744 3044 326 
Q 2575 -91 1722 -91 
Q 1428 -91 1123 -41 
Q 819 9 494 109 
L 494 744 
Q 775 591 1075 516 
Q 1375 441 1709 441 
Q 2250 441 2565 725 
Q 2881 1009 2881 1497 
Q 2881 1984 2565 2268 
Q 2250 2553 1709 2553 
Q 1456 2553 1204 2497 
Q 953 2441 691 2322 
L 691 4666 
z
" transform="scale(0.015625)"/>
       </defs>
       <use xlink:href="#DejaVuSans-35"/>
       <use xlink:href="#DejaVuSans-30" x="63.623047"/>
       <use xlink:href="#DejaVuSans-30" x="127.246094"/>
      </g>
     </g>
    </g>
    <g id="xtick_3">
     <g id="line2d_3">
      <g>
       <use xlink:href="#m047447719f" x="148.084261" y="128.16" style="stroke: #000000; stroke-width: 0.8"/>
      </g>
     </g>
     <g id="text_3">
      <!-- 1000 -->
      <g transform="translate(135.359261 142.758438) scale(0.1 -0.1)">
       <defs>
        <path id="DejaVuSans-31" d="M 794 531 
L 1825 531 
L 1825 4091 
L 703 3866 
L 703 4441 
L 1819 4666 
L 2450 4666 
L 2450 531 
L 3481 531 
L 3481 0 
L 794 0 
L 794 531 
z
" transform="scale(0.015625)"/>
       </defs>
       <use xlink:href="#DejaVuSans-31"/>
       <use xlink:href="#DejaVuSans-30" x="63.623047"/>
       <use xlink:href="#DejaVuSans-30" x="127.246094"/>
       <use xlink:href="#DejaVuSans-30" x="190.869141"/>
      </g>
     </g>
    </g>
   </g>
   <g id="matplotlib.axis_2">
    <g id="ytick_1">
     <g id="line2d_4">
      <defs>
       <path id="m938291f4da" d="M 0 0 
L -3.5 0 
" style="stroke: #000000; stroke-width: 0.8"/>
      </defs>
      <g>
       <use xlink:href="#m938291f4da" x="54" y="109.68" style="stroke: #000000; stroke-width: 0.8"/>
      </g>
     </g>
     <g id="text_4">
      <!-- −1 -->
      <g transform="translate(32.257812 113.479219) scale(0.1 -0.1)">
       <defs>
        <path id="DejaVuSans-2212" d="M 678 2272 
L 4684 2272 
L 4684 1741 
L 678 1741 
L 678 2272 
z
" transform="scale(0.015625)"/>
       </defs>
       <use xlink:href="#DejaVuSans-2212"/>
       <use xlink:href="#DejaVuSans-31" x="83.789062"/>
      </g>
     </g>
    </g>
    <g id="ytick_2">
     <g id="line2d_5">
      <g>
       <use xlink:href="#m938291f4da" x="54" y="72.72" style="stroke: #000000; stroke-width: 0.8"/>
      </g>
     </g>
     <g id="text_5">
      <!-- 0 -->
      <g transform="translate(40.6375 76.519219) scale(0.1 -0.1)">
       <use xlink:href="#DejaVuSans-30"/>
      </g>
     </g>
    </g>
    <g id="ytick_3">
     <g id="line2d_6">
      <g>
       <use xlink:href="#m938291f4da" x="54" y="35.76" style="stroke: #000000; stroke-width: 0.8"/>
      </g>
     </g>
     <g id="text_6">
      <!-- 1 -->
      <g transform="translate(40.6375 39.559219) scale(0.1 -0.1)">
       <use xlink:href="#DejaVuSans-31"/>
      </g>
     </g>
    </g>
   </g>
   <g id="line2d_7">
    <path d="M 58.475936 72.034096 
L 58.923977 74.206125 
L 59.013586 74.129913 
L 59.282411 74.549076 
L 59.551236 75.006346 
L 59.640844 74.930134 
L 59.820061 75.044451 
L 59.999277 75.082557 
L 60.357711 75.120663 
L 60.447319 74.892028 
L 60.536927 74.96824 
L 60.805752 76.187624 
L 61.074577 79.236085 
L 61.164186 78.664499 
L 61.433011 73.139163 
L 61.612227 57.973071 
L 61.791444 46.274603 
L 62.060269 55.724831 
L 62.418702 77.711855 
L 62.597919 77.940489 
L 62.956352 75.23498 
L 63.04596 75.50172 
L 63.314785 78.397758 
L 63.762827 80.874633 
L 64.031652 75.882778 
L 64.210869 73.558327 
L 64.479694 73.253481 
L 65.19656 74.853923 
L 65.286169 74.777711 
L 65.465385 74.510971 
L 65.823818 73.901279 
L 66.27186 74.358548 
L 66.80951 72.681894 
L 67.167943 72.186519 
L 67.34716 72.224625 
L 67.526377 72.377048 
L 67.615985 72.224625 
L 67.705593 72.415154 
L 67.795202 72.072202 
L 68.243243 72.948635 
L 68.42246 72.605683 
L 68.780893 73.558327 
L 68.96011 73.825067 
L 69.139326 73.558327 
L 69.228935 73.482115 
L 69.318543 73.71075 
L 69.49776 73.444009 
L 69.856193 73.939384 
L 69.945801 73.672644 
L 70.03541 73.748856 
L 70.214626 73.748856 
L 70.304235 73.596432 
L 70.393843 73.672644 
L 70.483451 73.596432 
L 70.662668 73.748856 
L 70.841885 73.71075 
L 71.11071 73.444009 
L 71.200318 73.672644 
L 71.379535 73.444009 
L 71.469143 73.520221 
L 71.827576 72.45326 
L 72.006793 68.261626 
L 72.275618 61.097743 
L 72.454835 61.897964 
L 72.544443 64.260521 
L 72.902876 100.499099 
L 73.261309 134.260802 
L 73.350918 129.078419 
L 73.798959 78.283441 
L 73.978176 69.93828 
L 74.247001 63.688935 
L 74.426218 61.059637 
L 74.515826 61.097743 
L 74.784651 63.841358 
L 74.874259 63.498406 
L 75.680734 50.275707 
L 75.770343 50.085179 
L 76.039168 51.114034 
L 76.218384 51.228351 
L 76.397601 51.304563 
L 76.845642 52.905005 
L 77.024859 53.133639 
L 77.741726 57.020427 
L 79.265067 70.357443 
L 79.533892 71.424404 
L 79.802717 72.338942 
L 79.981934 73.177269 
L 80.250759 73.367798 
L 80.340367 73.444009 
L 80.6988 75.387403 
L 80.788409 75.387403 
L 80.967625 75.044451 
L 81.146842 75.158769 
L 81.505275 75.730355 
L 81.594884 75.577932 
L 81.684492 75.692249 
L 82.132534 75.23498 
L 82.31175 75.425509 
L 82.580575 75.539826 
L 82.759792 72.910529 
L 83.028617 64.641579 
L 83.118225 64.565367 
L 83.38705 68.985636 
L 83.745483 106.481703 
L 84.103917 138.681071 
L 84.283133 120.695152 
L 84.641567 79.73146 
L 84.910392 69.519116 
L 85.268825 61.631224 
L 85.358433 61.859858 
L 85.627258 63.879464 
L 85.716867 63.079243 
L 86.254517 53.476591 
L 86.523342 50.847294 
L 86.971383 52.981216 
L 87.419425 56.525052 
L 88.405116 61.440695 
L 89.928458 72.948635 
L 90.018066 73.101058 
L 90.376499 74.510971 
L 90.466108 74.587182 
L 90.734933 75.463615 
L 91.362191 76.301941 
L 91.631016 76.987845 
L 91.720624 76.682999 
L 91.899841 75.806567 
L 92.168666 76.263836 
L 92.258274 75.882778 
L 92.437491 75.95899 
L 92.885533 75.387403 
L 93.064749 75.539826 
L 93.154358 75.23498 
L 93.333574 71.805462 
L 93.602399 64.565367 
L 93.871224 66.013386 
L 93.960832 68.985636 
L 94.408874 117.951537 
L 94.588091 136.318513 
L 94.677699 136.62336 
L 94.946524 101.985224 
L 95.304957 72.072202 
L 95.842607 62.469551 
L 95.932216 62.774397 
L 96.201041 65.479906 
L 96.380257 62.774397 
L 97.007516 52.40963 
L 97.097124 52.104784 
L 97.186732 52.14289 
L 97.276341 52.180995 
L 97.724382 53.895755 
L 97.81399 53.971966 
L 98.082815 53.743332 
L 98.172424 53.781437 
L 98.530857 55.000822 
L 98.620465 54.962716 
L 98.799682 55.64862 
L 99.068507 56.791792 
L 99.158115 57.058533 
L 99.516549 61.250166 
L 100.054199 66.737396 
L 100.591849 71.576827 
L 101.03989 74.472865 
L 101.129498 74.282336 
L 101.57754 75.730355 
L 101.667148 75.654144 
L 101.756757 75.425509 
L 101.846365 75.463615 
L 102.11519 75.692249 
L 102.473623 75.273086 
L 102.563232 75.273086 
L 102.832057 74.663394 
L 102.921665 74.358548 
L 103.011273 74.510971 
L 103.100882 75.349297 
L 103.19049 74.815817 
L 103.280098 74.853923 
L 103.369707 75.044451 
L 103.638532 76.073307 
L 103.72814 75.882778 
L 103.996965 74.510971 
L 104.176182 70.395549 
L 104.355398 65.70854 
L 104.445007 65.518011 
L 104.713831 68.566472 
L 104.982656 93.449533 
L 105.430698 138.185696 
L 105.609915 120.542729 
L 105.968348 79.807671 
L 106.237173 69.023741 
L 106.595606 60.754791 
L 106.685215 60.869109 
L 106.95404 63.079243 
L 107.043648 62.20281 
L 107.402081 56.1821 
L 107.760515 51.190246 
L 107.850123 51.037823 
L 109.104639 57.325273 
L 110.269548 64.489156 
L 110.627981 67.232771 
L 111.076023 70.47176 
L 111.792889 74.625288 
L 112.061714 75.273086 
L 112.868189 76.606788 
L 113.047406 76.22573 
L 113.137014 76.568682 
L 113.226622 76.49247 
L 113.405839 76.301941 
L 113.495447 76.035201 
L 113.585056 76.073307 
L 114.033097 76.949739 
L 114.570747 74.853923 
L 114.660356 74.96824 
L 114.839572 71.46251 
L 115.108397 63.345983 
L 115.377222 65.899069 
L 115.46683 68.642684 
L 115.825264 103.54756 
L 116.183697 135.022918 
L 116.362914 116.084355 
L 116.721347 78.969345 
L 116.900564 71.614933 
L 117.348605 64.222416 
L 117.527822 65.518011 
L 117.707039 66.623078 
L 117.796647 65.97528 
L 118.423905 52.523947 
L 118.603122 51.075928 
L 118.69273 51.037823 
L 118.961555 51.799938 
L 119.051163 51.838044 
L 119.23038 52.257207 
L 119.319988 52.257207 
L 119.588813 52.828793 
L 119.76803 53.362274 
L 120.395288 56.982321 
L 121.201763 65.060742 
L 121.470588 67.651934 
L 121.739413 69.48101 
L 122.097847 71.081452 
L 122.187455 71.005241 
L 122.366671 70.357443 
L 122.545888 71.271981 
L 122.814713 72.567577 
L 123.173146 74.168019 
L 123.352363 74.358548 
L 123.710796 75.158769 
L 123.979621 75.50172 
L 124.158838 75.425509 
L 124.517271 76.149518 
L 124.60688 76.301941 
L 124.696488 76.187624 
L 125.502963 76.873528 
L 125.592571 76.49247 
L 125.861396 68.185415 
L 126.040613 64.679685 
L 126.130221 64.71779 
L 126.219829 65.17506 
L 126.309438 68.261626 
L 126.757479 113.683692 
L 127.026304 134.298908 
L 127.205521 116.046249 
L 127.563954 78.435864 
L 127.743171 71.081452 
L 127.922388 67.423299 
L 128.191213 61.974176 
L 128.280821 62.240916 
L 128.549646 64.374839 
L 128.639254 63.422195 
L 128.997688 57.134744 
L 129.356121 52.219101 
L 129.535337 51.68562 
L 129.624946 52.066678 
L 129.893771 53.66712 
L 130.072987 52.943111 
L 130.341812 52.180995 
L 130.431421 52.14289 
L 131.327504 59.725936 
L 133.030062 75.577932 
L 133.209279 76.073307 
L 133.478104 76.797316 
L 133.567712 76.721105 
L 133.746929 76.187624 
L 133.926145 75.082557 
L 134.19497 73.367798 
L 134.374187 73.215375 
L 134.553404 73.253481 
L 134.822229 74.015596 
L 135.180662 74.777711 
L 135.359879 76.644893 
L 135.449487 77.902383 
L 135.539095 77.826172 
L 135.80792 72.186519 
L 135.987137 61.288272 
L 136.166354 43.645305 
L 136.255962 44.026363 
L 136.524787 56.829898 
L 136.793612 77.864278 
L 136.88322 79.00745 
L 136.972828 78.969345 
L 137.331262 75.692249 
L 137.42087 75.577932 
L 137.868912 79.388508 
L 137.95852 79.655248 
L 138.137737 81.103267 
L 138.227345 80.874633 
L 138.764995 73.139163 
L 139.03382 73.863173 
L 139.213037 74.053702 
L 139.392253 73.71075 
L 139.481862 73.634538 
L 139.661078 73.748856 
L 140.198728 72.681894 
L 140.288336 72.872423 
L 140.557161 72.300837 
L 140.736378 71.691144 
L 140.825986 71.576827 
L 141.18442 70.509866 
L 141.274028 70.357443 
L 141.72207 68.337838 
L 141.990895 68.871318 
L 142.080503 68.871318 
L 142.438936 70.090703 
L 142.707761 71.957885 
L 143.066195 67.804357 
L 143.424628 39.415566 
L 143.514236 41.35896 
L 143.693453 48.827688 
L 144.051886 74.168019 
L 144.231103 75.616038 
L 144.410319 74.663394 
L 144.589536 73.786961 
L 144.947969 78.131018 
L 145.127186 77.864278 
L 145.306403 78.131018 
L 145.575228 72.224625 
L 145.754444 69.404799 
L 145.844053 69.404799 
L 145.933661 69.595328 
L 146.112878 70.243126 
L 146.202486 70.357443 
L 146.381703 70.166914 
L 147.008961 72.072202 
L 147.188177 72.110308 
L 147.277786 72.186519 
L 147.367394 71.957885 
L 147.457002 72.148414 
L 147.725827 71.805462 
L 147.994652 71.233875 
L 147.994652 71.233875 
" clip-path="url(#pede493f2bd)" style="fill: none; stroke: #1f77b4; stroke-width: 1.5; stroke-linecap: square"/>
   </g>
   <g id="patch_3">
    <path d="M 54 128.16 
L 54 17.28 
" style="fill: none; stroke: #000000; stroke-width: 0.8; stroke-linejoin: miter; stroke-linecap: square"/>
   </g>
   <g id="patch_4">
    <path d="M 152.470588 128.16 
L 152.470588 17.28 
" style="fill: none; stroke: #000000; stroke-width: 0.8; stroke-linejoin: miter; stroke-linecap: square"/>
   </g>
   <g id="patch_5">
    <path d="M 54 128.16 
L 152.470588 128.16 
" style="fill: none; stroke: #000000; stroke-width: 0.8; stroke-linejoin: miter; stroke-linecap: square"/>
   </g>
   <g id="patch_6">
    <path d="M 54 17.28 
L 152.470588 17.28 
" style="fill: none; stroke: #000000; stroke-width: 0.8; stroke-linejoin: miter; stroke-linecap: square"/>
   </g>
  </g>
  <g id="axes_2">
   <g id="patch_7">
    <path d="M 172.164706 128.16 
L 270.635294 128.16 
L 270.635294 17.28 
L 172.164706 17.28 
z
" style="fill: #ffffff"/>
   </g>
   <g id="matplotlib.axis_3">
    <g id="xtick_4">
     <g id="line2d_8">
      <g>
       <use xlink:href="#m047447719f" x="176.640642" y="128.16" style="stroke: #000000; stroke-width: 0.8"/>
      </g>
     </g>
     <g id="text_7">
      <!-- 0 -->
      <g transform="translate(173.459392 142.758438) scale(0.1 -0.1)">
       <use xlink:href="#DejaVuSans-30"/>
      </g>
     </g>
    </g>
    <g id="xtick_5">
     <g id="line2d_9">
      <g>
       <use xlink:href="#m047447719f" x="221.444804" y="128.16" style="stroke: #000000; stroke-width: 0.8"/>
      </g>
     </g>
     <g id="text_8">
      <!-- 500 -->
      <g transform="translate(211.901054 142.758438) scale(0.1 -0.1)">
       <use xlink:href="#DejaVuSans-35"/>
       <use xlink:href="#DejaVuSans-30" x="63.623047"/>
       <use xlink:href="#DejaVuSans-30" x="127.246094"/>
      </g>
     </g>
    </g>
    <g id="xtick_6">
     <g id="line2d_10">
      <g>
       <use xlink:href="#m047447719f" x="266.248967" y="128.16" style="stroke: #000000; stroke-width: 0.8"/>
      </g>
     </g>
     <g id="text_9">
      <!-- 1000 -->
      <g transform="translate(253.523967 142.758438) scale(0.1 -0.1)">
       <use xlink:href="#DejaVuSans-31"/>
       <use xlink:href="#DejaVuSans-30" x="63.623047"/>
       <use xlink:href="#DejaVuSans-30" x="127.246094"/>
       <use xlink:href="#DejaVuSans-30" x="190.869141"/>
      </g>
     </g>
    </g>
   </g>
   <g id="matplotlib.axis_4">
    <g id="ytick_4">
     <g id="line2d_11">
      <g>
       <use xlink:href="#m938291f4da" x="172.164706" y="109.68" style="stroke: #000000; stroke-width: 0.8"/>
      </g>
     </g>
    </g>
    <g id="ytick_5">
     <g id="line2d_12">
      <g>
       <use xlink:href="#m938291f4da" x="172.164706" y="72.72" style="stroke: #000000; stroke-width: 0.8"/>
      </g>
     </g>
    </g>
    <g id="ytick_6">
     <g id="line2d_13">
      <g>
       <use xlink:href="#m938291f4da" x="172.164706" y="35.76" style="stroke: #000000; stroke-width: 0.8"/>
      </g>
     </g>
    </g>
   </g>
   <g id="line2d_14">
    <path d="M 176.640642 73.558327 
L 176.999075 73.444009 
L 177.178292 73.71075 
L 177.2679 73.825067 
L 177.357508 73.558327 
L 177.536725 70.090703 
L 177.80555 63.422195 
L 178.074375 67.194665 
L 178.253592 81.446219 
L 178.791242 138.566753 
L 178.88085 136.62336 
L 179.508108 71.843568 
L 180.045758 62.240916 
L 180.314583 64.755896 
L 180.404191 64.603473 
L 181.121058 53.476591 
L 181.210666 53.019322 
L 181.300275 53.057428 
L 181.479491 53.781437 
L 182.644399 59.840253 
L 183.002833 60.145099 
L 183.182049 60.41184 
L 183.361266 59.230561 
L 183.450874 58.773292 
L 183.540483 58.811398 
L 183.719699 60.106993 
L 184.257349 63.993781 
L 184.794999 66.69929 
L 185.422258 67.575722 
L 185.511866 67.651934 
L 185.691083 68.22352 
L 185.780691 68.261626 
L 185.870299 68.490261 
L 185.959908 68.414049 
L 186.407949 70.700395 
L 186.766382 75.158769 
L 186.945599 75.654144 
L 187.035207 72.072202 
L 187.304032 47.227247 
L 187.483249 48.9039 
L 187.572857 50.16139 
L 187.752074 62.812502 
L 187.931291 72.034096 
L 188.110507 72.529471 
L 188.200116 72.338942 
L 188.468941 70.395549 
L 188.558549 70.662289 
L 189.006591 77.254585 
L 189.275416 80.150623 
L 189.454632 77.673749 
L 189.723457 74.091807 
L 189.813065 74.053702 
L 189.992282 74.892028 
L 190.08189 74.96824 
L 190.171499 74.892028 
L 190.261107 74.549076 
L 190.440324 75.158769 
L 190.61954 76.759211 
L 190.888365 76.340047 
L 191.963665 68.718895 
L 192.053274 68.757001 
L 192.23249 68.375943 
L 192.322099 68.337838 
L 192.501315 67.918674 
L 192.590924 67.842463 
L 192.680532 67.918674 
L 192.859749 68.261626 
L 193.038965 68.337838 
L 193.218182 68.299732 
L 193.666223 70.090703 
L 193.84544 71.233875 
L 194.024657 70.852818 
L 194.203873 72.338942 
L 194.38309 74.282336 
L 194.472698 74.434759 
L 194.92074 73.139163 
L 195.368782 71.157664 
L 195.547998 71.386298 
L 195.637607 71.271981 
L 195.727215 71.614933 
L 195.816823 71.46251 
L 195.99604 71.691144 
L 196.085648 71.386298 
L 196.175257 71.424404 
L 196.264865 71.310087 
L 196.354473 70.547972 
L 196.53369 65.365588 
L 196.712906 59.764042 
L 196.802515 59.154349 
L 196.892123 59.573513 
L 196.981731 59.459196 
L 197.07134 62.050387 
L 197.429773 100.04183 
L 197.788206 134.527543 
L 197.967423 116.84647 
L 198.325856 81.674854 
L 198.594681 72.377048 
L 198.953115 63.612723 
L 199.042723 63.384089 
L 199.311548 64.298627 
L 199.580373 59.68783 
L 200.207631 51.647515 
L 200.297239 51.647515 
L 200.476456 51.914255 
L 200.655673 51.952361 
L 201.014106 52.714476 
L 201.103714 52.790688 
L 201.551756 55.458091 
L 201.641364 55.381879 
L 201.730973 55.458091 
L 201.820581 55.305668 
L 203.164706 65.822857 
L 204.150397 73.062952 
L 204.419222 74.168019 
L 204.598439 74.434759 
L 204.956872 76.073307 
L 205.046481 76.149518 
L 205.225697 76.035201 
L 205.315306 76.149518 
L 205.673739 78.092912 
L 205.852956 80.531681 
L 205.942564 80.455469 
L 206.121781 79.197979 
L 206.211389 78.931239 
L 206.300997 75.95899 
L 206.569822 51.495092 
L 206.838647 56.410735 
L 207.017864 66.69929 
L 207.197081 75.920884 
L 207.286689 76.416259 
L 207.465905 75.006346 
L 207.824339 72.186519 
L 208.361989 80.150623 
L 208.541205 82.094017 
L 208.720422 80.112517 
L 208.989247 77.21648 
L 209.078855 77.178374 
L 209.34768 78.054806 
L 209.437289 78.016701 
L 209.706114 77.864278 
L 209.88533 77.330797 
L 210.064547 77.48322 
L 210.243764 77.21648 
L 210.333372 76.987845 
L 210.602197 76.035201 
L 210.781413 75.50172 
L 211.408672 72.415154 
L 211.856713 71.271981 
L 211.946322 71.310087 
L 212.03593 71.424404 
L 212.215147 71.957885 
L 212.304755 71.957885 
L 212.483972 72.567577 
L 212.752797 72.377048 
L 212.842405 72.338942 
L 212.932013 72.45326 
L 213.290447 71.614933 
L 213.559272 70.7385 
L 213.64888 70.700395 
L 214.276138 69.519116 
L 214.544963 69.785856 
L 214.634571 69.823962 
L 215.351438 71.119558 
L 215.441046 71.043347 
L 215.530655 70.624183 
L 215.709871 67.308982 
L 215.978696 61.555012 
L 216.157913 61.974176 
L 216.247521 63.345983 
L 216.516346 88.076621 
L 216.964388 133.460581 
L 217.053996 130.450226 
L 217.591646 73.177269 
L 217.860471 67.118453 
L 218.129296 61.631224 
L 218.218904 61.745541 
L 218.487729 64.298627 
L 218.577338 63.993781 
L 219.294204 51.799938 
L 219.383813 51.41888 
L 219.921463 53.019322 
L 220.190288 54.734081 
L 220.369504 54.543552 
L 220.548721 55.038927 
L 220.817546 54.353024 
L 220.907154 54.391129 
L 221.175979 54.848399 
L 221.265588 54.886504 
L 221.534412 56.1821 
L 221.982454 60.526157 
L 222.340887 64.069992 
L 223.147362 70.967135 
L 223.953837 76.759211 
L 224.043446 76.721105 
L 224.222662 76.759211 
L 224.312271 77.102162 
L 224.581096 76.759211 
L 224.760312 76.378153 
L 224.849921 76.606788 
L 225.118745 76.111413 
L 225.297962 75.311192 
L 225.38757 75.273086 
L 225.477179 75.082557 
L 225.656395 74.358548 
L 225.835612 74.282336 
L 226.014829 70.967135 
L 226.283654 62.92682 
L 226.373262 62.888714 
L 226.552479 64.755896 
L 226.642087 67.728145 
L 227.00052 105.872011 
L 227.358954 139.13834 
L 227.53817 119.666296 
L 227.896604 80.569787 
L 228.07582 73.71075 
L 228.255037 70.014491 
L 228.434254 66.280127 
L 228.523862 65.899069 
L 228.882295 67.728145 
L 229.061512 64.412944 
L 229.599162 53.362274 
L 229.778378 52.866899 
L 230.316028 55.610514 
L 230.584853 57.134744 
L 230.674462 57.287167 
L 231.212112 59.840253 
L 232.108195 66.69929 
L 232.466628 69.404799 
L 232.556236 69.785856 
L 232.735453 71.005241 
L 233.004278 71.348193 
L 233.183495 71.843568 
L 233.810753 74.358548 
L 233.98997 74.472865 
L 234.617228 75.577932 
L 235.06527 75.882778 
L 235.423703 76.797316 
L 235.961353 75.844672 
L 236.050961 75.425509 
L 236.230178 71.005241 
L 236.499003 63.307877 
L 236.678219 63.650829 
L 236.767828 64.641579 
L 236.947044 78.207229 
L 237.484694 132.241197 
L 237.574303 129.6119 
L 238.201561 70.700395 
L 238.380778 67.95678 
L 238.649603 62.774397 
L 238.739211 62.812502 
L 239.008036 66.394444 
L 239.097644 65.670434 
L 239.545686 58.201705 
L 239.993727 52.752582 
L 240.083336 52.790688 
L 240.172944 53.133639 
L 240.262552 53.095534 
L 240.352161 53.019322 
L 240.620986 52.485841 
L 240.889811 53.019322 
L 240.979419 52.866899 
L 241.248244 54.238706 
L 241.517069 55.64862 
L 241.696286 55.91536 
L 241.965111 57.744436 
L 243.309235 70.014491 
L 243.57806 71.881673 
L 244.026102 72.72 
L 244.294927 72.262731 
L 244.474144 72.45326 
L 244.563752 72.377048 
L 244.832577 72.948635 
L 244.922185 72.72 
L 245.19101 73.596432 
L 245.459835 74.434759 
L 245.549444 74.815817 
L 245.639052 74.777711 
L 245.907877 75.082557 
L 246.087094 75.463615 
L 246.176702 75.425509 
L 246.26631 75.196874 
L 246.355918 74.510971 
L 246.535135 70.166914 
L 246.80396 63.231666 
L 246.983177 64.108098 
L 247.072785 65.822857 
L 247.34161 89.981909 
L 247.789652 135.175341 
L 247.87926 132.050668 
L 248.506518 71.19577 
L 248.685735 68.833212 
L 248.95456 64.336733 
L 249.044168 64.298627 
L 249.312993 67.270876 
L 249.402602 66.737396 
L 249.940251 57.401484 
L 250.209076 54.65787 
L 250.298685 54.391129 
L 250.388293 54.619764 
L 250.657118 55.839148 
L 250.925943 55.839148 
L 251.015551 55.610514 
L 251.194768 55.991571 
L 251.463593 57.287167 
L 251.732418 57.553908 
L 252.449285 62.240916 
L 252.986935 67.347088 
L 253.166151 69.176164 
L 253.434976 71.424404 
L 254.151843 73.596432 
L 254.331059 73.634538 
L 254.689493 74.129913 
L 254.958318 73.71075 
L 255.227143 74.053702 
L 255.406359 73.939384 
L 255.495968 73.863173 
L 255.764793 74.663394 
L 255.944009 75.539826 
L 256.033618 75.654144 
L 256.212834 75.50172 
L 256.392051 75.692249 
L 256.481659 76.035201 
L 256.660876 75.654144 
L 256.840092 75.425509 
L 256.929701 75.082557 
L 257.108917 71.614933 
L 257.377742 62.774397 
L 257.467351 62.469551 
L 257.646567 63.688935 
L 257.825784 76.759211 
L 258.363434 134.870495 
L 258.453042 134.679966 
L 258.721867 101.185003 
L 259.080301 73.177269 
L 259.617951 64.18431 
L 259.797167 65.670434 
L 259.886776 66.737396 
L 259.976384 66.470655 
L 260.872467 52.828793 
L 260.962075 52.981216 
L 261.141292 53.552803 
L 261.2309 53.66712 
L 261.589334 55.343773 
L 261.678942 55.305668 
L 261.76855 55.343773 
L 261.947767 54.962716 
L 262.126984 55.534302 
L 262.3062 55.991571 
L 262.395809 55.572408 
L 262.575025 56.1821 
L 263.112675 59.573513 
L 264.904842 74.206125 
L 265.173667 75.120663 
L 265.263275 75.082557 
L 265.442492 75.349297 
L 265.890533 75.425509 
L 266.159358 74.663394 
L 266.159358 74.663394 
" clip-path="url(#pba25a7ae6a)" style="fill: none; stroke: #1f77b4; stroke-width: 1.5; stroke-linecap: square"/>
   </g>
   <g id="patch_8">
    <path d="M 172.164706 128.16 
L 172.164706 17.28 
" style="fill: none; stroke: #000000; stroke-width: 0.8; stroke-linejoin: miter; stroke-linecap: square"/>
   </g>
   <g id="patch_9">
    <path d="M 270.635294 128.16 
L 270.635294 17.28 
" style="fill: none; stroke: #000000; stroke-width: 0.8; stroke-linejoin: miter; stroke-linecap: square"/>
   </g>
   <g id="patch_10">
    <path d="M 172.164706 128.16 
L 270.635294 128.16 
" style="fill: none; stroke: #000000; stroke-width: 0.8; stroke-linejoin: miter; stroke-linecap: square"/>
   </g>
   <g id="patch_11">
    <path d="M 172.164706 17.28 
L 270.635294 17.28 
" style="fill: none; stroke: #000000; stroke-width: 0.8; stroke-linejoin: miter; stroke-linecap: square"/>
   </g>
  </g>
  <g id="axes_3">
   <g id="patch_12">
    <path d="M 290.329412 128.16 
L 388.8 128.16 
L 388.8 17.28 
L 290.329412 17.28 
z
" style="fill: #ffffff"/>
   </g>
   <g id="matplotlib.axis_5">
    <g id="xtick_7">
     <g id="line2d_15">
      <g>
       <use xlink:href="#m047447719f" x="294.805348" y="128.16" style="stroke: #000000; stroke-width: 0.8"/>
      </g>
     </g>
     <g id="text_10">
      <!-- 0 -->
      <g transform="translate(291.624098 142.758438) scale(0.1 -0.1)">
       <use xlink:href="#DejaVuSans-30"/>
      </g>
     </g>
    </g>
    <g id="xtick_8">
     <g id="line2d_16">
      <g>
       <use xlink:href="#m047447719f" x="339.60951" y="128.16" style="stroke: #000000; stroke-width: 0.8"/>
      </g>
     </g>
     <g id="text_11">
      <!-- 500 -->
      <g transform="translate(330.06576 142.758438) scale(0.1 -0.1)">
       <use xlink:href="#DejaVuSans-35"/>
       <use xlink:href="#DejaVuSans-30" x="63.623047"/>
       <use xlink:href="#DejaVuSans-30" x="127.246094"/>
      </g>
     </g>
    </g>
    <g id="xtick_9">
     <g id="line2d_17">
      <g>
       <use xlink:href="#m047447719f" x="384.413672" y="128.16" style="stroke: #000000; stroke-width: 0.8"/>
      </g>
     </g>
     <g id="text_12">
      <!-- 1000 -->
      <g transform="translate(371.688672 142.758438) scale(0.1 -0.1)">
       <use xlink:href="#DejaVuSans-31"/>
       <use xlink:href="#DejaVuSans-30" x="63.623047"/>
       <use xlink:href="#DejaVuSans-30" x="127.246094"/>
       <use xlink:href="#DejaVuSans-30" x="190.869141"/>
      </g>
     </g>
    </g>
   </g>
   <g id="matplotlib.axis_6">
    <g id="ytick_7">
     <g id="line2d_18">
      <g>
       <use xlink:href="#m938291f4da" x="290.329412" y="109.68" style="stroke: #000000; stroke-width: 0.8"/>
      </g>
     </g>
    </g>
    <g id="ytick_8">
     <g id="line2d_19">
      <g>
       <use xlink:href="#m938291f4da" x="290.329412" y="72.72" style="stroke: #000000; stroke-width: 0.8"/>
      </g>
     </g>
    </g>
    <g id="ytick_9">
     <g id="line2d_20">
      <g>
       <use xlink:href="#m938291f4da" x="290.329412" y="35.76" style="stroke: #000000; stroke-width: 0.8"/>
      </g>
     </g>
    </g>
   </g>
   <g id="line2d_21">
    <path d="M 294.805348 65.822857 
L 295.522214 54.353024 
L 295.611823 54.238706 
L 295.791039 54.695976 
L 296.149472 54.848399 
L 296.418297 55.762937 
L 296.507906 55.91536 
L 298.300072 66.318232 
L 298.658506 68.299732 
L 298.837722 68.909424 
L 299.196156 70.852818 
L 299.644197 71.995991 
L 299.823414 72.224625 
L 299.913022 72.262731 
L 300.092239 72.643788 
L 300.361064 74.168019 
L 300.629889 74.587182 
L 301.07793 75.844672 
L 301.346755 75.082557 
L 301.525972 75.120663 
L 301.705189 74.739605 
L 301.794797 74.091807 
L 302.063622 67.232771 
L 302.242839 64.069992 
L 302.422055 65.594223 
L 302.511664 66.661184 
L 302.69088 79.883883 
L 303.22853 132.469832 
L 303.318138 130.031063 
L 303.945397 73.405904 
L 304.393438 65.746646 
L 304.483047 66.127704 
L 304.751872 69.21427 
L 304.931088 65.784752 
L 305.468738 55.496196 
L 305.647955 54.238706 
L 305.91678 54.886504 
L 306.006388 54.886504 
L 306.275213 54.65787 
L 306.544038 54.65787 
L 306.633646 54.772187 
L 306.99208 55.877254 
L 307.440121 57.43959 
L 307.708946 58.316023 
L 307.798555 58.43034 
L 307.977771 59.535407 
L 308.60503 65.060742 
L 309.501113 71.043347 
L 309.590721 71.19577 
L 310.128371 73.520221 
L 310.217979 73.482115 
L 310.397196 73.71075 
L 310.755629 75.082557 
L 310.845238 74.96824 
L 311.024454 75.082557 
L 311.114063 75.082557 
L 311.203671 75.23498 
L 311.651713 73.901279 
L 311.741321 73.939384 
L 311.830929 73.901279 
L 311.920538 73.672644 
L 312.099754 71.233875 
L 312.458188 62.698185 
L 312.637404 66.127704 
L 312.816621 73.901279 
L 313.443879 123.095815 
L 313.533487 118.751758 
L 314.071137 68.909424 
L 314.160746 67.156559 
L 314.250354 67.194665 
L 314.519179 66.851713 
L 314.698396 69.061847 
L 314.877612 71.767356 
L 314.967221 71.995991 
L 315.146437 69.023741 
L 315.773696 58.011177 
L 315.863304 57.820648 
L 315.952912 57.934965 
L 316.221737 58.849503 
L 316.490562 59.154349 
L 316.848996 60.373734 
L 317.028212 60.449945 
L 317.11782 60.640474 
L 317.476254 62.355233 
L 317.834687 63.536512 
L 318.282729 67.080348 
L 318.551554 68.985636 
L 318.641162 69.176164 
L 318.73077 69.099953 
L 318.909987 69.595328 
L 319.358029 71.348193 
L 319.447637 71.310087 
L 319.537245 70.967135 
L 319.626854 71.081452 
L 319.716462 70.967135 
L 319.895679 71.157664 
L 320.254112 71.119558 
L 320.34372 71.310087 
L 320.612545 72.338942 
L 321.150195 74.053702 
L 321.329412 74.358548 
L 321.508628 74.434759 
L 321.687845 75.577932 
L 321.95667 78.054806 
L 322.135887 75.387403 
L 322.404712 66.051492 
L 322.673537 44.293103 
L 322.852753 48.827688 
L 323.03197 58.354128 
L 323.300795 75.730355 
L 323.480012 75.768461 
L 323.659228 74.892028 
L 323.838445 73.596432 
L 323.928053 74.168019 
L 324.286486 79.9982 
L 324.465703 82.398863 
L 324.64492 84.799526 
L 324.734528 83.999305 
L 325.092961 78.207229 
L 325.272178 78.626393 
L 325.361786 78.626393 
L 325.541003 78.169124 
L 326.078653 75.692249 
L 326.79552 71.005241 
L 326.974736 70.624183 
L 327.960428 66.394444 
L 328.050036 66.508761 
L 328.318861 67.194665 
L 328.587686 68.566472 
L 328.856511 71.691144 
L 329.035728 71.157664 
L 329.125336 71.576827 
L 329.214944 70.014491 
L 329.573378 42.959401 
L 329.662986 43.416671 
L 329.752594 43.645305 
L 329.842203 46.617554 
L 330.200636 71.119558 
L 330.379853 74.129913 
L 330.469461 73.901279 
L 330.648678 72.377048 
L 330.738286 73.139163 
L 331.096719 79.617143 
L 331.365544 81.331902 
L 331.455152 81.103267 
L 331.903194 72.910529 
L 332.082411 73.558327 
L 332.261627 74.625288 
L 332.620061 76.949739 
L 332.888886 76.568682 
L 333.068102 76.568682 
L 333.516144 74.663394 
L 334.322619 69.900174 
L 334.591444 68.680789 
L 334.770661 68.490261 
L 334.860269 68.566472 
L 334.949877 68.452155 
L 335.129094 69.138059 
L 335.935569 71.919779 
L 336.025177 71.843568 
L 336.38361 73.177269 
L 336.652435 72.834317 
L 336.742044 73.062952 
L 336.831652 72.910529 
L 337.190085 71.72925 
L 337.548519 71.19577 
L 337.727735 67.194665 
L 337.99656 60.41184 
L 338.175777 61.250166 
L 338.265385 62.888714 
L 338.53421 85.714064 
L 338.982252 130.183486 
L 339.07186 128.811679 
L 339.699118 72.98674 
L 340.236768 66.43255 
L 340.505593 68.032992 
L 340.595202 67.118453 
L 340.953635 59.840253 
L 341.491285 53.438485 
L 341.580893 53.476591 
L 341.849718 52.981216 
L 342.028935 52.257207 
L 342.208151 52.333418 
L 342.476976 52.752582 
L 342.566585 52.752582 
L 343.641885 56.220206 
L 344.000318 58.582763 
L 344.537968 63.498406 
L 345.523659 71.043347 
L 345.971701 73.177269 
L 346.061309 73.101058 
L 346.240526 73.177269 
L 346.598959 75.50172 
L 346.778176 75.425509 
L 346.957393 76.301941 
L 347.136609 77.864278 
L 347.495043 75.120663 
L 347.674259 60.602368 
L 347.853476 49.818438 
L 348.211909 62.812502 
L 348.480734 77.826172 
L 348.839168 75.844672 
L 349.018384 75.006346 
L 349.735251 85.48543 
L 349.824859 85.409218 
L 350.272901 79.921989 
L 350.452117 80.226835 
L 350.720942 79.807671 
L 350.900159 80.112517 
L 351.796242 78.855027 
L 351.975459 78.207229 
L 352.065067 78.397758 
L 352.244284 78.016701 
L 352.602717 74.815817 
L 352.96115 72.072202 
L 353.050759 72.034096 
L 353.588409 70.700395 
L 353.767625 69.862068 
L 353.857234 69.823962 
L 353.946842 70.20502 
L 354.03645 70.090703 
L 354.126059 70.166914 
L 354.484492 69.366693 
L 354.5741 69.519116 
L 354.753317 69.252376 
L 354.842925 69.290482 
L 355.022142 69.099953 
L 355.470184 70.47176 
L 355.739009 70.624183 
L 355.828617 70.967135 
L 355.918225 70.852818 
L 356.007834 70.929029 
L 356.097442 70.814712 
L 356.18705 70.281231 
L 356.635092 61.402589 
L 356.814308 62.126599 
L 356.903917 64.45105 
L 357.26235 96.840946 
L 357.620783 128.201987 
L 357.8 109.83501 
L 358.158433 74.853923 
L 358.33765 69.290482 
L 358.785692 64.069992 
L 359.054517 67.613828 
L 359.144125 67.347088 
L 360.040208 55.000822 
L 360.219425 55.419985 
L 360.309033 55.343773 
L 360.398641 55.229456 
L 361.0259 53.133639 
L 361.115508 53.171745 
L 361.205116 53.057428 
L 361.473941 51.952361 
L 361.56355 51.990467 
L 361.653158 51.876149 
L 361.832375 52.219101 
L 362.280416 55.305668 
L 363.086891 63.841358 
L 363.534933 68.909424 
L 363.982974 71.919779 
L 364.251799 72.529471 
L 364.341408 72.605683 
L 364.431016 72.529471 
L 364.610233 73.253481 
L 364.699841 73.405904 
L 364.879058 72.948635 
L 364.968666 72.910529 
L 365.058274 72.567577 
L 365.416708 73.520221 
L 365.595924 73.405904 
L 365.685533 73.596432 
L 365.864749 73.215375 
L 366.043966 69.976385 
L 366.312791 65.365588 
L 366.581616 69.21427 
L 366.760832 81.065161 
L 367.298482 136.051773 
L 367.388091 134.756177 
L 368.015349 75.120663 
L 368.194566 71.614933 
L 368.463391 65.594223 
L 368.552999 65.670434 
L 368.821824 67.804357 
L 369.001041 64.984531 
L 369.449082 58.354128 
L 369.628299 56.563158 
L 369.717907 56.715581 
L 371.062032 63.536512 
L 371.330857 64.222416 
L 371.510074 64.374839 
L 371.778899 64.260521 
L 371.958115 64.527262 
L 372.137332 64.565367 
L 372.22694 64.641579 
L 372.495765 65.479906 
L 372.674982 66.69929 
L 373.212632 70.700395 
L 373.481457 71.805462 
L 373.750282 73.177269 
L 373.929498 73.634538 
L 374.108715 74.015596 
L 374.37754 74.358548 
L 374.467148 74.358548 
L 374.556757 74.549076 
L 374.646365 74.396653 
L 374.735973 74.472865 
L 374.825582 74.396653 
L 375.004798 74.815817 
L 375.094407 74.053702 
L 375.45284 64.755896 
L 375.542448 65.060742 
L 375.811273 68.032992 
L 376.169707 99.927513 
L 376.52814 131.479082 
L 376.707357 113.074 
L 377.06579 77.254585 
L 377.245007 72.872423 
L 377.693048 66.508761 
L 377.961873 69.48101 
L 378.051481 68.985636 
L 378.947565 55.19135 
L 379.21639 56.372629 
L 379.305998 56.372629 
L 379.574823 55.762937 
L 379.843648 54.962716 
L 379.933256 55.038927 
L 380.022865 54.962716 
L 380.112473 55.038927 
L 380.202081 55.305668 
L 380.29169 55.267562 
L 380.470906 55.153245 
L 380.650123 55.610514 
L 381.187773 58.1636 
L 381.994248 66.242021 
L 382.531898 70.128808 
L 383.159156 73.062952 
L 383.248764 72.948635 
L 383.338373 72.910529 
L 383.427981 72.643788 
L 383.517589 72.834317 
L 383.696806 72.415154 
L 383.786414 72.529471 
L 383.965631 72.45326 
L 384.055239 72.567577 
L 384.234456 72.910529 
L 384.324064 72.98674 
L 384.324064 72.98674 
" clip-path="url(#pa823df4149)" style="fill: none; stroke: #1f77b4; stroke-width: 1.5; stroke-linecap: square"/>
   </g>
   <g id="patch_13">
    <path d="M 290.329412 128.16 
L 290.329412 17.28 
" style="fill: none; stroke: #000000; stroke-width: 0.8; stroke-linejoin: miter; stroke-linecap: square"/>
   </g>
   <g id="patch_14">
    <path d="M 388.8 128.16 
L 388.8 17.28 
" style="fill: none; stroke: #000000; stroke-width: 0.8; stroke-linejoin: miter; stroke-linecap: square"/>
   </g>
   <g id="patch_15">
    <path d="M 290.329412 128.16 
L 388.8 128.16 
" style="fill: none; stroke: #000000; stroke-width: 0.8; stroke-linejoin: miter; stroke-linecap: square"/>
   </g>
   <g id="patch_16">
    <path d="M 290.329412 17.28 
L 388.8 17.28 
" style="fill: none; stroke: #000000; stroke-width: 0.8; stroke-linejoin: miter; stroke-linecap: square"/>
   </g>
  </g>
 </g>
 <defs>
  <clipPath id="pede493f2bd">
   <rect x="54" y="17.28" width="98.470588" height="110.88"/>
  </clipPath>
  <clipPath id="pba25a7ae6a">
   <rect x="172.164706" y="17.28" width="98.470588" height="110.88"/>
  </clipPath>
  <clipPath id="pa823df4149">
   <rect x="290.329412" y="17.28" width="98.470588" height="110.88"/>
  </clipPath>
 </defs>
</svg>
