<?xml version="1.0" encoding="utf-8" standalone="no"?>
<!DOCTYPE svg PUBLIC "-//W3C//DTD SVG 1.1//EN"
  "http://www.w3.org/Graphics/SVG/1.1/DTD/svg11.dtd">
<svg xmlns:xlink="http://www.w3.org/1999/xlink" width="432pt" height="144pt" viewBox="0 0 432 144" xmlns="http://www.w3.org/2000/svg" version="1.1">
 <metadata>
  <rdf:RDF xmlns:dc="http://purl.org/dc/elements/1.1/" xmlns:cc="http://creativecommons.org/ns#" xmlns:rdf="http://www.w3.org/1999/02/22-rdf-syntax-ns#">
   <cc:Work>
    <dc:type rdf:resource="http://purl.org/dc/dcmitype/StillImage"/>
    <dc:date>2023-11-16T11:53:35.856513</dc:date>
    <dc:format>image/svg+xml</dc:format>
    <dc:creator>
     <cc:Agent>
      <dc:title>Matplotlib v3.7.3, https://matplotlib.org/</dc:title>
     </cc:Agent>
    </dc:creator>
   </cc:Work>
  </rdf:RDF>
 </metadata>
 <defs>
  <style type="text/css">*{stroke-linejoin: round; stroke-linecap: butt}</style>
 </defs>
 <g id="figure_1">
  <g id="patch_1">
   <path d="M 0 144 
L 432 144 
L 432 0 
L 0 0 
z
" style="fill: #ffffff"/>
  </g>
  <g id="axes_1">
   <g id="patch_2">
    <path d="M 54 128.16 
L 152.470588 128.16 
L 152.470588 17.28 
L 54 17.28 
z
" style="fill: #ffffff"/>
   </g>
   <g id="matplotlib.axis_1">
    <g id="xtick_1">
     <g id="line2d_1">
      <defs>
       <path id="m97bccdc680" d="M 0 0 
L 0 3.5 
" style="stroke: #000000; stroke-width: 0.8"/>
      </defs>
      <g>
       <use xlink:href="#m97bccdc680" x="58.475936" y="128.16" style="stroke: #000000; stroke-width: 0.8"/>
      </g>
     </g>
     <g id="text_1">
      <!-- 0 -->
      <g transform="translate(55.294686 142.758438) scale(0.1 -0.1)">
       <defs>
        <path id="DejaVuSans-30" d="M 2034 4250 
Q 1547 4250 1301 3770 
Q 1056 3291 1056 2328 
Q 1056 1369 1301 889 
Q 1547 409 2034 409 
Q 2525 409 2770 889 
Q 3016 1369 3016 2328 
Q 3016 3291 2770 3770 
Q 2525 4250 2034 4250 
z
M 2034 4750 
Q 2819 4750 3233 4129 
Q 3647 3509 3647 2328 
Q 3647 1150 3233 529 
Q 2819 -91 2034 -91 
Q 1250 -91 836 529 
Q 422 1150 422 2328 
Q 422 3509 836 4129 
Q 1250 4750 2034 4750 
z
" transform="scale(0.015625)"/>
       </defs>
       <use xlink:href="#DejaVuSans-30"/>
      </g>
     </g>
    </g>
    <g id="xtick_2">
     <g id="line2d_2">
      <g>
       <use xlink:href="#m97bccdc680" x="103.280098" y="128.16" style="stroke: #000000; stroke-width: 0.8"/>
      </g>
     </g>
     <g id="text_2">
      <!-- 500 -->
      <g transform="translate(93.736348 142.758438) scale(0.1 -0.1)">
       <defs>
        <path id="DejaVuSans-35" d="M 691 4666 
L 3169 4666 
L 3169 4134 
L 1269 4134 
L 1269 2991 
Q 1406 3038 1543 3061 
Q 1681 3084 1819 3084 
Q 2600 3084 3056 2656 
Q 3513 2228 3513 1497 
Q 3513 744 3044 326 
Q 2575 -91 1722 -91 
Q 1428 -91 1123 -41 
Q 819 9 494 109 
L 494 744 
Q 775 591 1075 516 
Q 1375 441 1709 441 
Q 2250 441 2565 725 
Q 2881 1009 2881 1497 
Q 2881 1984 2565 2268 
Q 2250 2553 1709 2553 
Q 1456 2553 1204 2497 
Q 953 2441 691 2322 
L 691 4666 
z
" transform="scale(0.015625)"/>
       </defs>
       <use xlink:href="#DejaVuSans-35"/>
       <use xlink:href="#DejaVuSans-30" x="63.623047"/>
       <use xlink:href="#DejaVuSans-30" x="127.246094"/>
      </g>
     </g>
    </g>
    <g id="xtick_3">
     <g id="line2d_3">
      <g>
       <use xlink:href="#m97bccdc680" x="148.084261" y="128.16" style="stroke: #000000; stroke-width: 0.8"/>
      </g>
     </g>
     <g id="text_3">
      <!-- 1000 -->
      <g transform="translate(135.359261 142.758438) scale(0.1 -0.1)">
       <defs>
        <path id="DejaVuSans-31" d="M 794 531 
L 1825 531 
L 1825 4091 
L 703 3866 
L 703 4441 
L 1819 4666 
L 2450 4666 
L 2450 531 
L 3481 531 
L 3481 0 
L 794 0 
L 794 531 
z
" transform="scale(0.015625)"/>
       </defs>
       <use xlink:href="#DejaVuSans-31"/>
       <use xlink:href="#DejaVuSans-30" x="63.623047"/>
       <use xlink:href="#DejaVuSans-30" x="127.246094"/>
       <use xlink:href="#DejaVuSans-30" x="190.869141"/>
      </g>
     </g>
    </g>
   </g>
   <g id="matplotlib.axis_2">
    <g id="ytick_1">
     <g id="line2d_4">
      <defs>
       <path id="m897cdab941" d="M 0 0 
L -3.5 0 
" style="stroke: #000000; stroke-width: 0.8"/>
      </defs>
      <g>
       <use xlink:href="#m897cdab941" x="54" y="109.68" style="stroke: #000000; stroke-width: 0.8"/>
      </g>
     </g>
     <g id="text_4">
      <!-- −1 -->
      <g transform="translate(32.257812 113.479219) scale(0.1 -0.1)">
       <defs>
        <path id="DejaVuSans-2212" d="M 678 2272 
L 4684 2272 
L 4684 1741 
L 678 1741 
L 678 2272 
z
" transform="scale(0.015625)"/>
       </defs>
       <use xlink:href="#DejaVuSans-2212"/>
       <use xlink:href="#DejaVuSans-31" x="83.789062"/>
      </g>
     </g>
    </g>
    <g id="ytick_2">
     <g id="line2d_5">
      <g>
       <use xlink:href="#m897cdab941" x="54" y="72.72" style="stroke: #000000; stroke-width: 0.8"/>
      </g>
     </g>
     <g id="text_5">
      <!-- 0 -->
      <g transform="translate(40.6375 76.519219) scale(0.1 -0.1)">
       <use xlink:href="#DejaVuSans-30"/>
      </g>
     </g>
    </g>
    <g id="ytick_3">
     <g id="line2d_6">
      <g>
       <use xlink:href="#m897cdab941" x="54" y="35.76" style="stroke: #000000; stroke-width: 0.8"/>
      </g>
     </g>
     <g id="text_6">
      <!-- 1 -->
      <g transform="translate(40.6375 39.559219) scale(0.1 -0.1)">
       <use xlink:href="#DejaVuSans-31"/>
      </g>
     </g>
    </g>
   </g>
   <g id="line2d_7">
    <path d="M 58.475936 83.351507 
L 58.923977 78.321547 
L 59.551236 67.537617 
L 59.730452 66.927924 
L 59.909669 67.651934 
L 60.447319 72.605683 
L 61.701836 90.362967 
L 62.149877 96.917158 
L 62.239485 97.298215 
L 62.329094 97.222004 
L 62.687527 95.507244 
L 63.58361 83.961199 
L 64.210869 73.672644 
L 65.375777 59.116244 
L 65.554993 60.488051 
L 66.092643 66.394444 
L 66.361468 67.69004 
L 66.719902 68.833212 
L 66.899118 68.680789 
L 67.078335 69.023741 
L 67.34716 71.653039 
L 67.705593 75.387403 
L 68.243243 77.559432 
L 68.332852 77.48322 
L 68.512068 77.064057 
L 68.691285 77.064057 
L 68.96011 77.673749 
L 69.139326 78.47397 
L 69.408151 81.484325 
L 70.214626 90.667813 
L 70.393843 91.734774 
L 70.57306 91.734774 
L 71.200318 94.592706 
L 71.469143 96.231254 
L 71.558751 95.964514 
L 72.365226 88.762525 
L 73.350918 76.340047 
L 73.619743 74.434759 
L 74.336609 67.042242 
L 74.515826 66.43255 
L 74.605434 66.43255 
L 74.784651 66.280127 
L 75.053476 68.299732 
L 75.322301 70.128808 
L 75.501518 70.929029 
L 76.128776 75.273086 
L 76.397601 76.835422 
L 76.487209 76.949739 
L 76.756034 78.47397 
L 77.383292 84.570891 
L 77.920942 90.972659 
L 78.010551 91.048871 
L 78.279376 90.667813 
L 78.458592 90.972659 
L 78.637809 90.324861 
L 78.996242 86.971554 
L 79.444284 82.398863 
L 80.250759 80.150623 
L 80.429975 80.379258 
L 80.609192 79.540931 
L 80.878017 78.626393 
L 81.23645 77.521326 
L 81.505275 77.978595 
L 81.594884 77.940489 
L 81.684492 77.635643 
L 82.132534 80.874633 
L 82.31175 81.446219 
L 82.580575 81.865382 
L 82.670184 81.370008 
L 83.028617 77.826172 
L 83.118225 77.445114 
L 83.207834 77.48322 
L 83.297442 77.521326 
L 83.38705 77.407008 
L 83.655875 75.692249 
L 84.193525 71.348193 
L 84.731175 69.633433 
L 85 71.005241 
L 85.268825 71.19577 
L 85.627258 72.45326 
L 85.896083 73.939384 
L 85.985692 74.015596 
L 86.0753 73.786961 
L 86.433733 72.224625 
L 86.61295 71.919779 
L 87.060991 73.520221 
L 87.329816 75.692249 
L 87.598641 77.711855 
L 87.957075 79.045556 
L 88.673941 84.837632 
L 89.659633 95.697773 
L 89.749241 95.964514 
L 90.018066 94.630812 
L 90.107675 94.668918 
L 90.197283 94.745129 
L 90.376499 93.944908 
L 90.914149 90.096227 
L 91.451799 82.970449 
L 91.989449 75.539826 
L 92.527099 71.500616 
L 92.616708 71.576827 
L 92.975141 72.910529 
L 93.243966 74.815817 
L 93.333574 74.96824 
L 93.781616 77.178374 
L 93.871224 77.368903 
L 94.319266 79.540931 
L 94.498482 79.045556 
L 95.215349 70.47176 
L 95.573782 66.813607 
L 95.663391 67.004136 
L 96.021824 69.328587 
L 96.469866 75.23498 
L 96.828299 79.693354 
L 97.545165 90.591601 
L 98.262032 96.193148 
L 98.35164 96.155042 
L 98.620465 95.01187 
L 98.88929 91.620457 
L 99.695765 75.006346 
L 100.233415 73.139163 
L 100.50224 71.881673 
L 100.681457 71.614933 
L 100.771065 71.691144 
L 101.129498 72.98674 
L 101.487932 76.340047 
L 101.846365 79.617143 
L 102.11519 80.26494 
L 102.294407 81.065161 
L 102.473623 80.112517 
L 103.19049 74.053702 
L 103.280098 74.320442 
L 103.817748 77.635643 
L 103.996965 78.169124 
L 104.176182 77.178374 
L 104.445007 75.577932 
L 104.893048 74.815817 
L 104.982656 75.044451 
L 105.609915 81.408113 
L 105.699523 81.331902 
L 105.789131 81.370008 
L 105.968348 80.112517 
L 106.685215 72.186519 
L 106.864431 73.558327 
L 107.133256 74.930134 
L 107.312473 75.844672 
L 108.566989 87.619352 
L 108.746206 87.847987 
L 109.015031 87.00966 
L 109.104639 87.00966 
L 109.463073 88.229044 
L 109.552681 88.076621 
L 109.821506 85.942699 
L 110.090331 84.685209 
L 110.269548 83.808776 
L 110.627981 80.98895 
L 110.807198 80.607892 
L 110.896806 80.912738 
L 110.986414 80.874633 
L 111.165631 80.912738 
L 111.434456 81.179479 
L 111.613672 80.912738 
L 111.792889 81.217584 
L 111.882497 81.370008 
L 111.972106 81.217584 
L 112.240931 81.598642 
L 112.599364 80.72221 
L 113.137014 74.358548 
L 113.674664 67.728145 
L 114.033097 66.546867 
L 114.212314 66.69929 
L 114.570747 68.261626 
L 114.660356 68.185415 
L 114.749964 68.261626 
L 114.839572 68.604578 
L 115.377222 72.948635 
L 115.646047 75.425509 
L 115.914872 77.521326 
L 116.273305 79.769566 
L 116.631739 83.618247 
L 116.900564 85.142478 
L 116.990172 85.142478 
L 117.258997 84.799526 
L 117.438214 84.875737 
L 117.796647 83.846882 
L 117.975864 84.037411 
L 118.244689 84.799526 
L 118.513514 84.151728 
L 118.782338 83.122872 
L 118.871947 82.970449 
L 119.23038 81.027056 
L 119.678422 79.159873 
L 119.857638 78.893133 
L 120.126463 77.978595 
L 120.484897 73.558327 
L 120.84333 66.661184 
L 120.932938 65.670434 
L 121.022547 65.70854 
L 121.470588 66.43255 
L 121.829022 68.757001 
L 122.635496 79.845777 
L 122.99393 86.399968 
L 123.262755 88.648208 
L 123.352363 88.686313 
L 123.800405 86.209439 
L 124.06923 84.532786 
L 124.517271 82.094017 
L 124.786096 79.960094 
L 124.875705 79.693354 
L 124.965313 79.73146 
L 125.14453 80.531681 
L 125.771788 84.723314 
L 126.040613 85.675958 
L 126.309438 85.447324 
L 126.936696 82.665603 
L 127.205521 80.569787 
L 127.474346 76.759211 
L 127.832779 70.357443 
L 128.101604 66.43255 
L 128.639254 62.20281 
L 128.818471 62.164704 
L 129.087296 62.583868 
L 129.356121 64.870213 
L 129.714554 68.985636 
L 130.341812 81.25569 
L 130.789854 93.830591 
L 131.237896 97.679273 
L 131.327504 98.022225 
L 131.417112 97.831696 
L 131.775546 94.478389 
L 131.865154 94.630812 
L 131.954762 94.897552 
L 132.044371 94.668918 
L 132.402804 95.697773 
L 132.761237 93.678168 
L 133.478104 88.419573 
L 133.926145 87.771775 
L 134.015754 87.733669 
L 134.19497 87.886092 
L 134.374187 87.695564 
L 134.73262 86.095122 
L 135.27027 82.436969 
L 135.539095 79.540931 
L 135.987137 74.206125 
L 136.255962 72.872423 
L 136.614395 71.386298 
L 137.152045 66.43255 
L 137.42087 64.908319 
L 137.779303 63.650829 
L 138.227345 65.70854 
L 138.49617 68.109203 
L 138.675387 67.842463 
L 138.854603 68.985636 
L 139.481862 73.329692 
L 139.661078 73.444009 
L 139.929903 74.777711 
L 140.467553 80.26494 
L 140.64677 82.703709 
L 140.736378 82.856132 
L 141.094811 82.51318 
L 141.274028 81.598642 
L 141.453245 81.674854 
L 141.542853 81.712959 
L 141.990895 80.531681 
L 142.707761 75.616038 
L 142.976586 72.072202 
L 143.33502 67.766251 
L 143.693453 66.508761 
L 143.783061 66.43255 
L 144.141494 67.270876 
L 144.320711 66.737396 
L 144.410319 67.042242 
L 144.679144 71.919779 
L 145.127186 80.455469 
L 145.396011 81.560536 
L 145.485619 81.598642 
L 145.754444 81.179479 
L 146.112878 79.883883 
L 146.650528 76.49247 
L 146.829744 74.96824 
L 147.008961 75.006346 
L 147.546611 76.797316 
L 147.815436 76.49247 
L 147.905044 76.606788 
L 147.994652 76.987845 
L 147.994652 76.987845 
" clip-path="url(#pbd9366e015)" style="fill: none; stroke: #1f77b4; stroke-width: 1.5; stroke-linecap: square"/>
   </g>
   <g id="patch_3">
    <path d="M 54 128.16 
L 54 17.28 
" style="fill: none; stroke: #000000; stroke-width: 0.8; stroke-linejoin: miter; stroke-linecap: square"/>
   </g>
   <g id="patch_4">
    <path d="M 152.470588 128.16 
L 152.470588 17.28 
" style="fill: none; stroke: #000000; stroke-width: 0.8; stroke-linejoin: miter; stroke-linecap: square"/>
   </g>
   <g id="patch_5">
    <path d="M 54 128.16 
L 152.470588 128.16 
" style="fill: none; stroke: #000000; stroke-width: 0.8; stroke-linejoin: miter; stroke-linecap: square"/>
   </g>
   <g id="patch_6">
    <path d="M 54 17.28 
L 152.470588 17.28 
" style="fill: none; stroke: #000000; stroke-width: 0.8; stroke-linejoin: miter; stroke-linecap: square"/>
   </g>
  </g>
  <g id="axes_2">
   <g id="patch_7">
    <path d="M 172.164706 128.16 
L 270.635294 128.16 
L 270.635294 17.28 
L 172.164706 17.28 
z
" style="fill: #ffffff"/>
   </g>
   <g id="matplotlib.axis_3">
    <g id="xtick_4">
     <g id="line2d_8">
      <g>
       <use xlink:href="#m97bccdc680" x="176.640642" y="128.16" style="stroke: #000000; stroke-width: 0.8"/>
      </g>
     </g>
     <g id="text_7">
      <!-- 0 -->
      <g transform="translate(173.459392 142.758438) scale(0.1 -0.1)">
       <use xlink:href="#DejaVuSans-30"/>
      </g>
     </g>
    </g>
    <g id="xtick_5">
     <g id="line2d_9">
      <g>
       <use xlink:href="#m97bccdc680" x="221.444804" y="128.16" style="stroke: #000000; stroke-width: 0.8"/>
      </g>
     </g>
     <g id="text_8">
      <!-- 500 -->
      <g transform="translate(211.901054 142.758438) scale(0.1 -0.1)">
       <use xlink:href="#DejaVuSans-35"/>
       <use xlink:href="#DejaVuSans-30" x="63.623047"/>
       <use xlink:href="#DejaVuSans-30" x="127.246094"/>
      </g>
     </g>
    </g>
    <g id="xtick_6">
     <g id="line2d_10">
      <g>
       <use xlink:href="#m97bccdc680" x="266.248967" y="128.16" style="stroke: #000000; stroke-width: 0.8"/>
      </g>
     </g>
     <g id="text_9">
      <!-- 1000 -->
      <g transform="translate(253.523967 142.758438) scale(0.1 -0.1)">
       <use xlink:href="#DejaVuSans-31"/>
       <use xlink:href="#DejaVuSans-30" x="63.623047"/>
       <use xlink:href="#DejaVuSans-30" x="127.246094"/>
       <use xlink:href="#DejaVuSans-30" x="190.869141"/>
      </g>
     </g>
    </g>
   </g>
   <g id="matplotlib.axis_4">
    <g id="ytick_4">
     <g id="line2d_11">
      <g>
       <use xlink:href="#m897cdab941" x="172.164706" y="109.68" style="stroke: #000000; stroke-width: 0.8"/>
      </g>
     </g>
    </g>
    <g id="ytick_5">
     <g id="line2d_12">
      <g>
       <use xlink:href="#m897cdab941" x="172.164706" y="72.72" style="stroke: #000000; stroke-width: 0.8"/>
      </g>
     </g>
    </g>
    <g id="ytick_6">
     <g id="line2d_13">
      <g>
       <use xlink:href="#m897cdab941" x="172.164706" y="35.76" style="stroke: #000000; stroke-width: 0.8"/>
      </g>
     </g>
    </g>
   </g>
   <g id="line2d_14">
    <path d="M 176.640642 74.015596 
L 176.999075 63.498406 
L 177.178292 62.774397 
L 177.2679 63.19356 
L 177.536725 67.347088 
L 177.895158 71.843568 
L 178.432808 75.273086 
L 178.88085 74.358548 
L 179.149675 71.310087 
L 179.95615 61.631224 
L 180.224975 62.279022 
L 180.314583 62.20281 
L 180.404191 62.317128 
L 180.941841 65.899069 
L 181.479491 73.444009 
L 181.837925 79.540931 
L 182.017141 80.798421 
L 182.554791 86.01891 
L 183.002833 87.352612 
L 183.271658 88.419573 
L 183.361266 88.381467 
L 183.450874 88.00041 
L 185.511866 64.679685 
L 185.691083 64.069992 
L 185.870299 63.955675 
L 186.139124 63.4603 
L 186.318341 65.213165 
L 186.945599 76.187624 
L 187.393641 84.22794 
L 187.752074 90.058121 
L 187.931291 89.448429 
L 188.468941 91.887197 
L 188.827374 95.850196 
L 188.916982 95.773985 
L 189.185807 93.563851 
L 189.454632 89.677063 
L 189.813065 82.51318 
L 190.61954 68.757001 
L 190.798757 68.109203 
L 190.977974 67.804357 
L 191.246799 65.327483 
L 192.053274 56.525052 
L 192.501315 62.050387 
L 192.77014 65.784752 
L 192.949357 66.43255 
L 193.038965 66.127704 
L 193.397398 62.736291 
L 194.024657 66.43255 
L 194.38309 71.576827 
L 195.099957 90.020015 
L 195.189565 89.905698 
L 195.637607 87.619352 
L 195.727215 87.466929 
L 195.906432 85.333007 
L 197.877815 52.752582 
L 197.967423 52.485841 
L 198.057031 52.714476 
L 198.236248 55.000822 
L 198.863506 71.310087 
L 199.490765 90.058121 
L 199.75959 93.144687 
L 199.849198 93.29711 
L 199.938806 92.992264 
L 200.834889 78.016701 
L 201.372539 65.327483 
L 201.641364 62.050387 
L 201.730973 61.516907 
L 201.820581 61.66933 
L 201.910189 61.440695 
L 202.089406 61.707435 
L 202.268623 61.974176 
L 202.358231 61.859858 
L 203.075098 58.658975 
L 203.254314 58.201705 
L 203.343923 58.43034 
L 203.612748 60.449945 
L 203.971181 64.946425 
L 204.240006 73.177269 
L 204.956872 99.813195 
L 205.225697 102.251964 
L 205.315306 102.175752 
L 205.494522 100.727734 
L 205.942564 91.696668 
L 206.390606 80.036306 
L 206.838647 75.997095 
L 207.017864 76.035201 
L 207.107472 76.22573 
L 207.197081 75.920884 
L 207.555514 73.558327 
L 207.73473 73.825067 
L 207.824339 73.71075 
L 207.913947 73.367798 
L 208.541205 66.737396 
L 209.258072 55.839148 
L 209.34768 56.791792 
L 210.064547 72.338942 
L 210.42298 74.168019 
L 210.871022 79.540931 
L 210.96063 79.617143 
L 211.139847 81.141373 
L 211.408672 84.189834 
L 211.49828 84.266045 
L 211.677497 81.751065 
L 211.946322 78.283441 
L 212.394363 75.387403 
L 212.57358 74.892028 
L 212.752797 74.510971 
L 212.842405 74.434759 
L 213.021622 75.006346 
L 213.11123 74.739605 
L 213.828097 69.900174 
L 213.917705 69.862068 
L 214.096922 70.090703 
L 214.18653 69.900174 
L 215.441046 63.307877 
L 215.79948 65.556117 
L 215.889088 65.518011 
L 216.068305 65.327483 
L 216.157913 65.632329 
L 216.426738 70.014491 
L 217.053996 85.294901 
L 217.41243 91.544245 
L 217.681255 95.621562 
L 217.860471 97.831696 
L 217.950079 97.564956 
L 218.756554 88.686313 
L 219.114988 81.560536 
L 219.921463 62.507656 
L 220.190288 60.145099 
L 220.279896 60.183205 
L 220.459113 60.67858 
L 220.638329 59.992676 
L 220.817546 59.192455 
L 220.996763 59.42109 
L 221.175979 60.67858 
L 221.444804 64.298627 
L 222.072062 78.092912 
L 222.520104 84.685209 
L 222.968146 83.808776 
L 223.147362 83.084767 
L 223.416187 80.684104 
L 223.685012 80.226835 
L 223.774621 80.188729 
L 223.953837 80.303046 
L 224.043446 80.303046 
L 224.312271 77.902383 
L 226.014829 55.877254 
L 226.104437 55.762937 
L 226.194045 55.91536 
L 226.283654 55.839148 
L 226.46287 55.305668 
L 226.552479 55.572408 
L 226.731695 57.363379 
L 227.090129 62.507656 
L 227.627779 76.797316 
L 227.986212 87.543141 
L 228.61347 98.555705 
L 228.703078 98.670023 
L 228.792687 98.555705 
L 228.971903 97.717379 
L 229.240728 91.163188 
L 229.867987 75.730355 
L 230.22642 70.967135 
L 230.584853 68.261626 
L 230.674462 68.337838 
L 230.76407 68.680789 
L 230.853678 68.642684 
L 231.391328 66.280127 
L 231.570545 65.594223 
L 231.660153 65.746646 
L 232.287411 69.21427 
L 232.37702 69.138059 
L 232.466628 69.023741 
L 232.645845 69.138059 
L 232.825061 67.613828 
L 233.183495 63.993781 
L 233.273103 64.108098 
L 233.631536 67.080348 
L 233.900361 74.053702 
L 234.438011 87.733669 
L 234.796445 92.496889 
L 234.975661 92.76363 
L 235.06527 93.144687 
L 235.154878 92.992264 
L 235.334095 91.163188 
L 236.857436 69.252376 
L 237.126261 67.270876 
L 237.395086 65.594223 
L 237.484694 65.632329 
L 237.843128 66.889819 
L 238.111953 68.833212 
L 238.380778 71.005241 
L 238.649603 70.433654 
L 238.828819 69.862068 
L 239.187252 68.261626 
L 239.366469 71.72925 
L 239.993727 88.838736 
L 240.172944 90.667813 
L 240.352161 90.858342 
L 240.441769 90.858342 
L 240.800202 89.677063 
L 241.158636 86.857237 
L 241.427461 81.903488 
L 241.696286 77.21648 
L 241.965111 72.872423 
L 242.413152 64.755896 
L 242.502761 64.45105 
L 242.681977 65.822857 
L 243.936494 82.132123 
L 244.026102 82.322652 
L 244.11571 81.751065 
L 244.832577 72.377048 
L 245.19101 70.243126 
L 245.818269 62.164704 
L 245.907877 62.20281 
L 245.997485 62.507656 
L 246.445527 69.747751 
L 246.893568 81.103267 
L 247.072785 82.132123 
L 247.162393 82.284546 
L 247.252002 82.132123 
L 247.431218 82.208334 
L 248.148085 84.685209 
L 248.237693 84.570891 
L 248.41691 83.580142 
L 248.596127 80.72221 
L 249.312993 63.688935 
L 249.671427 60.754791 
L 249.940251 60.145099 
L 250.02986 60.068888 
L 250.119468 60.183205 
L 250.298685 61.631224 
L 250.657118 65.594223 
L 251.373985 80.379258 
L 251.553201 81.9797 
L 251.822026 82.627498 
L 252.001243 82.894238 
L 252.090851 82.703709 
L 252.359676 79.502825 
L 252.986935 69.176164 
L 253.076543 68.909424 
L 253.25576 69.747751 
L 253.703801 72.072202 
L 253.883018 72.072202 
L 254.151843 71.653039 
L 254.331059 72.110308 
L 254.420668 71.919779 
L 254.599884 71.310087 
L 254.689493 71.576827 
L 255.137534 78.016701 
L 255.406359 79.960094 
L 255.495968 79.960094 
L 255.675184 79.159873 
L 256.033618 77.292691 
L 256.123226 77.178374 
L 256.302443 78.512076 
L 256.660876 81.370008 
L 257.288134 88.076621 
L 257.377742 87.886092 
L 258.811476 75.730355 
L 259.080301 72.948635 
L 259.259517 72.605683 
L 259.617951 71.46251 
L 259.797167 71.081452 
L 260.065992 73.863173 
L 260.782859 83.275296 
L 261.051684 84.685209 
L 261.141292 84.647103 
L 261.2309 84.304151 
L 261.499725 82.741815 
L 261.589334 82.589392 
L 261.858159 82.932344 
L 262.126984 82.779921 
L 262.3062 82.436969 
L 262.575025 81.522431 
L 262.754242 81.751065 
L 262.84385 81.751065 
L 263.023067 80.036306 
L 263.3815 74.96824 
L 264.187975 58.354128 
L 264.367192 56.372629 
L 264.4568 56.296417 
L 264.546408 56.753687 
L 265.621708 68.795107 
L 265.800925 69.48101 
L 265.980142 69.48101 
L 266.159358 71.576827 
L 266.159358 71.576827 
" clip-path="url(#pe5adef7a43)" style="fill: none; stroke: #1f77b4; stroke-width: 1.5; stroke-linecap: square"/>
   </g>
   <g id="patch_8">
    <path d="M 172.164706 128.16 
L 172.164706 17.28 
" style="fill: none; stroke: #000000; stroke-width: 0.8; stroke-linejoin: miter; stroke-linecap: square"/>
   </g>
   <g id="patch_9">
    <path d="M 270.635294 128.16 
L 270.635294 17.28 
" style="fill: none; stroke: #000000; stroke-width: 0.8; stroke-linejoin: miter; stroke-linecap: square"/>
   </g>
   <g id="patch_10">
    <path d="M 172.164706 128.16 
L 270.635294 128.16 
" style="fill: none; stroke: #000000; stroke-width: 0.8; stroke-linejoin: miter; stroke-linecap: square"/>
   </g>
   <g id="patch_11">
    <path d="M 172.164706 17.28 
L 270.635294 17.28 
" style="fill: none; stroke: #000000; stroke-width: 0.8; stroke-linejoin: miter; stroke-linecap: square"/>
   </g>
  </g>
  <g id="axes_3">
   <g id="patch_12">
    <path d="M 290.329412 128.16 
L 388.8 128.16 
L 388.8 17.28 
L 290.329412 17.28 
z
" style="fill: #ffffff"/>
   </g>
   <g id="matplotlib.axis_5">
    <g id="xtick_7">
     <g id="line2d_15">
      <g>
       <use xlink:href="#m97bccdc680" x="294.805348" y="128.16" style="stroke: #000000; stroke-width: 0.8"/>
      </g>
     </g>
     <g id="text_10">
      <!-- 0 -->
      <g transform="translate(291.624098 142.758438) scale(0.1 -0.1)">
       <use xlink:href="#DejaVuSans-30"/>
      </g>
     </g>
    </g>
    <g id="xtick_8">
     <g id="line2d_16">
      <g>
       <use xlink:href="#m97bccdc680" x="339.60951" y="128.16" style="stroke: #000000; stroke-width: 0.8"/>
      </g>
     </g>
     <g id="text_11">
      <!-- 500 -->
      <g transform="translate(330.06576 142.758438) scale(0.1 -0.1)">
       <use xlink:href="#DejaVuSans-35"/>
       <use xlink:href="#DejaVuSans-30" x="63.623047"/>
       <use xlink:href="#DejaVuSans-30" x="127.246094"/>
      </g>
     </g>
    </g>
    <g id="xtick_9">
     <g id="line2d_17">
      <g>
       <use xlink:href="#m97bccdc680" x="384.413672" y="128.16" style="stroke: #000000; stroke-width: 0.8"/>
      </g>
     </g>
     <g id="text_12">
      <!-- 1000 -->
      <g transform="translate(371.688672 142.758438) scale(0.1 -0.1)">
       <use xlink:href="#DejaVuSans-31"/>
       <use xlink:href="#DejaVuSans-30" x="63.623047"/>
       <use xlink:href="#DejaVuSans-30" x="127.246094"/>
       <use xlink:href="#DejaVuSans-30" x="190.869141"/>
      </g>
     </g>
    </g>
   </g>
   <g id="matplotlib.axis_6">
    <g id="ytick_7">
     <g id="line2d_18">
      <g>
       <use xlink:href="#m897cdab941" x="290.329412" y="109.68" style="stroke: #000000; stroke-width: 0.8"/>
      </g>
     </g>
    </g>
    <g id="ytick_8">
     <g id="line2d_19">
      <g>
       <use xlink:href="#m897cdab941" x="290.329412" y="72.72" style="stroke: #000000; stroke-width: 0.8"/>
      </g>
     </g>
    </g>
    <g id="ytick_9">
     <g id="line2d_20">
      <g>
       <use xlink:href="#m897cdab941" x="290.329412" y="35.76" style="stroke: #000000; stroke-width: 0.8"/>
      </g>
     </g>
    </g>
   </g>
   <g id="line2d_21">
    <path d="M 294.805348 72.415154 
L 295.342998 66.127704 
L 295.522214 64.870213 
L 295.611823 64.794002 
L 295.880647 64.984531 
L 295.970256 64.755896 
L 296.239081 67.080348 
L 296.418297 67.728145 
L 296.507906 67.728145 
L 296.687122 67.118453 
L 296.866339 66.546867 
L 297.045556 67.651934 
L 297.852031 77.521326 
L 297.941639 77.407008 
L 298.120856 77.292691 
L 298.300072 77.635643 
L 298.479289 77.711855 
L 298.568897 77.445114 
L 298.658506 77.48322 
L 298.748114 77.407008 
L 299.016939 78.47397 
L 299.106547 78.435864 
L 299.196156 78.626393 
L 299.554589 80.379258 
L 299.644197 80.455469 
L 299.823414 80.188729 
L 300.092239 80.26494 
L 300.629889 81.941594 
L 300.809105 81.141373 
L 300.988322 80.493575 
L 301.07793 80.26494 
L 301.436364 76.911634 
L 302.332447 70.47176 
L 302.601272 71.500616 
L 302.780489 71.576827 
L 302.870097 71.500616 
L 303.586963 76.644893 
L 304.035005 80.950844 
L 304.30383 83.732565 
L 304.393438 83.846882 
L 304.483047 83.656353 
L 304.662263 82.284546 
L 304.84148 78.931239 
L 305.199913 71.881673 
L 305.647955 67.270876 
L 305.737563 67.308982 
L 305.91678 66.889819 
L 306.45443 63.993781 
L 306.633646 66.165809 
L 307.260905 76.568682 
L 307.440121 77.025951 
L 307.52973 77.064057 
L 307.798555 76.49247 
L 308.425813 69.061847 
L 308.694638 67.042242 
L 309.232288 68.795107 
L 309.501113 70.852818 
L 309.859546 74.815817 
L 310.576413 80.493575 
L 310.755629 81.217584 
L 310.845238 81.179479 
L 311.293279 79.921989 
L 311.472496 78.816922 
L 311.741321 73.825067 
L 312.010146 70.509866 
L 312.099754 70.166914 
L 312.189363 70.20502 
L 312.368579 70.357443 
L 312.727013 69.176164 
L 312.816621 69.21427 
L 312.995838 70.547972 
L 313.443879 73.786961 
L 313.623096 74.206125 
L 313.891921 74.853923 
L 314.339962 78.283441 
L 314.429571 78.169124 
L 314.967221 77.254585 
L 315.146437 77.407008 
L 315.415262 76.187624 
L 315.684087 73.215375 
L 316.221737 63.574618 
L 316.490562 63.117348 
L 316.580171 62.964925 
L 316.669779 63.307877 
L 316.848996 65.746646 
L 318.013904 90.134332 
L 318.282729 92.001515 
L 318.461945 92.077726 
L 318.551554 91.887197 
L 318.73077 90.134332 
L 319.089204 84.380363 
L 319.985287 66.242021 
L 320.164504 66.165809 
L 320.34372 66.508761 
L 320.522937 67.499511 
L 320.702153 67.575722 
L 320.970978 67.651934 
L 321.060587 67.804357 
L 321.598237 70.433654 
L 321.777453 71.310087 
L 321.867062 71.348193 
L 322.135887 69.823962 
L 322.49432 67.994886 
L 322.673537 68.795107 
L 322.852753 70.243126 
L 323.390403 77.445114 
L 323.480012 77.826172 
L 323.56962 77.407008 
L 323.748837 75.616038 
L 323.838445 75.654144 
L 324.286486 78.016701 
L 324.376095 77.826172 
L 324.555311 76.721105 
L 324.64492 76.682999 
L 324.734528 76.835422 
L 324.824136 76.721105 
L 325.092961 75.120663 
L 325.361786 73.97749 
L 325.451395 74.091807 
L 325.630611 74.96824 
L 326.168261 78.397758 
L 326.25787 78.321547 
L 326.79552 75.577932 
L 327.153953 72.834317 
L 327.422778 71.843568 
L 327.601995 71.500616 
L 327.691603 71.576827 
L 327.781211 71.46251 
L 328.050036 70.929029 
L 328.318861 70.128808 
L 328.408469 69.709645 
L 328.498078 69.976385 
L 328.587686 69.93828 
L 328.946119 69.48101 
L 329.125336 70.967135 
L 330.021419 82.970449 
L 330.379853 84.075516 
L 330.469461 83.961199 
L 330.827894 81.636748 
L 331.634369 76.035201 
L 331.813586 76.187624 
L 332.172019 77.102162 
L 332.261627 77.140268 
L 332.530452 78.054806 
L 332.620061 78.169124 
L 332.978494 76.416259 
L 334.143402 67.575722 
L 334.233011 67.69004 
L 334.322619 67.575722 
L 334.412227 67.194665 
L 334.591444 64.870213 
L 334.949877 60.030782 
L 335.218702 58.963821 
L 335.397919 58.506552 
L 335.487527 58.582763 
L 335.756352 60.106993 
L 336.92126 75.730355 
L 337.100477 75.95899 
L 337.279694 75.692249 
L 337.548519 76.49247 
L 338.175777 79.388508 
L 338.623818 83.351507 
L 338.803035 85.142478 
L 339.161468 83.618247 
L 339.340685 81.827277 
L 339.60951 78.855027 
L 339.788727 80.455469 
L 340.595202 90.172438 
L 340.864027 90.210544 
L 341.043243 88.953054 
L 341.312068 82.665603 
L 341.76011 72.224625 
L 342.028935 70.014491 
L 342.476976 68.566472 
L 342.656193 68.375943 
L 343.641885 70.662289 
L 343.821101 71.881673 
L 344.269143 76.035201 
L 344.627576 76.797316 
L 344.806793 77.064057 
L 345.165226 76.606788 
L 345.344443 76.149518 
L 345.434051 76.111413 
L 345.792484 76.721105 
L 345.882093 76.911634 
L 346.240526 75.425509 
L 346.509351 76.035201 
L 346.598959 76.035201 
L 346.688568 75.806567 
L 347.226218 69.176164 
L 347.405434 66.623078 
L 347.495043 66.203915 
L 347.674259 67.804357 
L 347.853476 69.061847 
L 348.032693 69.21427 
L 348.480734 71.157664 
L 348.570343 71.119558 
L 348.659951 71.081452 
L 348.839168 71.348193 
L 349.197601 74.282336 
L 349.556034 76.797316 
L 349.645642 76.911634 
L 350.004076 76.340047 
L 350.183292 75.425509 
L 350.631334 72.110308 
L 350.900159 69.93828 
L 351.079376 69.747751 
L 351.348201 70.776606 
L 352.154676 75.730355 
L 352.423501 77.064057 
L 352.781934 78.550181 
L 352.96115 78.778816 
L 353.319584 80.607892 
L 353.409192 80.607892 
L 353.4988 80.26494 
L 353.946842 76.416259 
L 354.126059 74.739605 
L 354.842925 66.203915 
L 354.932534 66.013386 
L 355.201359 67.042242 
L 355.559792 71.19577 
L 356.097442 77.864278 
L 356.366267 79.236085 
L 356.635092 80.150623 
L 356.993525 82.094017 
L 357.172742 82.818026 
L 357.351958 83.313401 
L 357.441567 83.23719 
L 357.8 81.636748 
L 358.516867 74.777711 
L 358.964908 73.139163 
L 359.233733 71.995991 
L 359.323342 72.262731 
L 359.681775 75.273086 
L 360.129816 79.00745 
L 360.398641 79.845777 
L 360.48825 79.883883 
L 360.667466 79.426614 
L 360.846683 77.445114 
L 361.115508 73.520221 
L 361.473941 71.614933 
L 361.921983 68.071097 
L 362.280416 69.900174 
L 363.086891 76.149518 
L 363.355716 76.454364 
L 363.893366 78.397758 
L 364.341408 80.226835 
L 364.520624 79.236085 
L 364.699841 77.711855 
L 364.879058 72.948635 
L 365.237491 64.18431 
L 365.506316 61.135849 
L 365.685533 62.317128 
L 366.850441 73.71075 
L 367.029657 73.97749 
L 367.119266 74.282336 
L 367.836132 81.408113 
L 367.925741 81.484325 
L 368.194566 80.760315 
L 368.373782 81.141373 
L 368.463391 80.645998 
L 369.001041 74.510971 
L 369.449082 72.643788 
L 369.628299 71.157664 
L 369.717907 71.005241 
L 369.897124 71.233875 
L 370.345165 73.253481 
L 370.703599 75.50172 
L 371.15164 75.844672 
L 371.241249 75.692249 
L 371.420465 75.768461 
L 371.510074 75.730355 
L 371.778899 76.721105 
L 371.958115 77.788066 
L 372.047724 77.864278 
L 372.316549 77.407008 
L 372.406157 77.48322 
L 372.585374 77.788066 
L 372.854199 78.016701 
L 373.033415 77.292691 
L 373.30224 76.340047 
L 373.750282 76.949739 
L 373.83989 76.873528 
L 374.108715 75.95899 
L 374.287932 75.120663 
L 374.467148 72.034096 
L 374.825582 65.251271 
L 375.004798 64.794002 
L 375.363232 64.374839 
L 375.542448 65.098848 
L 375.721665 67.347088 
L 376.080098 72.300837 
L 376.886573 80.417364 
L 377.06579 81.065161 
L 377.872265 77.711855 
L 378.320306 76.035201 
L 378.67874 73.444009 
L 378.768348 73.482115 
L 379.21639 76.111413 
L 379.305998 76.073307 
L 379.485215 75.95899 
L 379.75404 77.559432 
L 380.112473 79.883883 
L 380.470906 80.912738 
L 380.650123 80.72221 
L 381.098164 80.112517 
L 381.277381 79.159873 
L 381.456598 78.245335 
L 381.546206 78.359652 
L 381.635814 78.397758 
L 382.173464 76.340047 
L 382.263073 76.378153 
L 382.442289 76.568682 
L 382.531898 76.49247 
L 382.621506 76.263836 
L 382.800723 74.358548 
L 383.159156 70.547972 
L 383.248764 70.166914 
L 383.338373 70.20502 
L 383.517589 70.281231 
L 383.876023 68.032992 
L 383.965631 68.414049 
L 384.234456 69.21427 
L 384.324064 69.366693 
L 384.324064 69.366693 
" clip-path="url(#pff0679876a)" style="fill: none; stroke: #1f77b4; stroke-width: 1.5; stroke-linecap: square"/>
   </g>
   <g id="patch_13">
    <path d="M 290.329412 128.16 
L 290.329412 17.28 
" style="fill: none; stroke: #000000; stroke-width: 0.8; stroke-linejoin: miter; stroke-linecap: square"/>
   </g>
   <g id="patch_14">
    <path d="M 388.8 128.16 
L 388.8 17.28 
" style="fill: none; stroke: #000000; stroke-width: 0.8; stroke-linejoin: miter; stroke-linecap: square"/>
   </g>
   <g id="patch_15">
    <path d="M 290.329412 128.16 
L 388.8 128.16 
" style="fill: none; stroke: #000000; stroke-width: 0.8; stroke-linejoin: miter; stroke-linecap: square"/>
   </g>
   <g id="patch_16">
    <path d="M 290.329412 17.28 
L 388.8 17.28 
" style="fill: none; stroke: #000000; stroke-width: 0.8; stroke-linejoin: miter; stroke-linecap: square"/>
   </g>
  </g>
 </g>
 <defs>
  <clipPath id="pbd9366e015">
   <rect x="54" y="17.28" width="98.470588" height="110.88"/>
  </clipPath>
  <clipPath id="pe5adef7a43">
   <rect x="172.164706" y="17.28" width="98.470588" height="110.88"/>
  </clipPath>
  <clipPath id="pff0679876a">
   <rect x="290.329412" y="17.28" width="98.470588" height="110.88"/>
  </clipPath>
 </defs>
</svg>
