<?xml version="1.0" encoding="utf-8" standalone="no"?>
<!DOCTYPE svg PUBLIC "-//W3C//DTD SVG 1.1//EN"
  "http://www.w3.org/Graphics/SVG/1.1/DTD/svg11.dtd">
<svg xmlns:xlink="http://www.w3.org/1999/xlink" width="432pt" height="144pt" viewBox="0 0 432 144" xmlns="http://www.w3.org/2000/svg" version="1.1">
 <metadata>
  <rdf:RDF xmlns:dc="http://purl.org/dc/elements/1.1/" xmlns:cc="http://creativecommons.org/ns#" xmlns:rdf="http://www.w3.org/1999/02/22-rdf-syntax-ns#">
   <cc:Work>
    <dc:type rdf:resource="http://purl.org/dc/dcmitype/StillImage"/>
    <dc:date>2023-11-16T11:53:36.077311</dc:date>
    <dc:format>image/svg+xml</dc:format>
    <dc:creator>
     <cc:Agent>
      <dc:title>Matplotlib v3.7.3, https://matplotlib.org/</dc:title>
     </cc:Agent>
    </dc:creator>
   </cc:Work>
  </rdf:RDF>
 </metadata>
 <defs>
  <style type="text/css">*{stroke-linejoin: round; stroke-linecap: butt}</style>
 </defs>
 <g id="figure_1">
  <g id="patch_1">
   <path d="M 0 144 
L 432 144 
L 432 0 
L 0 0 
z
" style="fill: #ffffff"/>
  </g>
  <g id="axes_1">
   <g id="patch_2">
    <path d="M 54 128.16 
L 152.470588 128.16 
L 152.470588 17.28 
L 54 17.28 
z
" style="fill: #ffffff"/>
   </g>
   <g id="matplotlib.axis_1">
    <g id="xtick_1">
     <g id="line2d_1">
      <defs>
       <path id="m9ac56438e3" d="M 0 0 
L 0 3.5 
" style="stroke: #000000; stroke-width: 0.8"/>
      </defs>
      <g>
       <use xlink:href="#m9ac56438e3" x="58.475936" y="128.16" style="stroke: #000000; stroke-width: 0.8"/>
      </g>
     </g>
     <g id="text_1">
      <!-- 0 -->
      <g transform="translate(55.294686 142.758438) scale(0.1 -0.1)">
       <defs>
        <path id="DejaVuSans-30" d="M 2034 4250 
Q 1547 4250 1301 3770 
Q 1056 3291 1056 2328 
Q 1056 1369 1301 889 
Q 1547 409 2034 409 
Q 2525 409 2770 889 
Q 3016 1369 3016 2328 
Q 3016 3291 2770 3770 
Q 2525 4250 2034 4250 
z
M 2034 4750 
Q 2819 4750 3233 4129 
Q 3647 3509 3647 2328 
Q 3647 1150 3233 529 
Q 2819 -91 2034 -91 
Q 1250 -91 836 529 
Q 422 1150 422 2328 
Q 422 3509 836 4129 
Q 1250 4750 2034 4750 
z
" transform="scale(0.015625)"/>
       </defs>
       <use xlink:href="#DejaVuSans-30"/>
      </g>
     </g>
    </g>
    <g id="xtick_2">
     <g id="line2d_2">
      <g>
       <use xlink:href="#m9ac56438e3" x="103.280098" y="128.16" style="stroke: #000000; stroke-width: 0.8"/>
      </g>
     </g>
     <g id="text_2">
      <!-- 500 -->
      <g transform="translate(93.736348 142.758438) scale(0.1 -0.1)">
       <defs>
        <path id="DejaVuSans-35" d="M 691 4666 
L 3169 4666 
L 3169 4134 
L 1269 4134 
L 1269 2991 
Q 1406 3038 1543 3061 
Q 1681 3084 1819 3084 
Q 2600 3084 3056 2656 
Q 3513 2228 3513 1497 
Q 3513 744 3044 326 
Q 2575 -91 1722 -91 
Q 1428 -91 1123 -41 
Q 819 9 494 109 
L 494 744 
Q 775 591 1075 516 
Q 1375 441 1709 441 
Q 2250 441 2565 725 
Q 2881 1009 2881 1497 
Q 2881 1984 2565 2268 
Q 2250 2553 1709 2553 
Q 1456 2553 1204 2497 
Q 953 2441 691 2322 
L 691 4666 
z
" transform="scale(0.015625)"/>
       </defs>
       <use xlink:href="#DejaVuSans-35"/>
       <use xlink:href="#DejaVuSans-30" x="63.623047"/>
       <use xlink:href="#DejaVuSans-30" x="127.246094"/>
      </g>
     </g>
    </g>
    <g id="xtick_3">
     <g id="line2d_3">
      <g>
       <use xlink:href="#m9ac56438e3" x="148.084261" y="128.16" style="stroke: #000000; stroke-width: 0.8"/>
      </g>
     </g>
     <g id="text_3">
      <!-- 1000 -->
      <g transform="translate(135.359261 142.758438) scale(0.1 -0.1)">
       <defs>
        <path id="DejaVuSans-31" d="M 794 531 
L 1825 531 
L 1825 4091 
L 703 3866 
L 703 4441 
L 1819 4666 
L 2450 4666 
L 2450 531 
L 3481 531 
L 3481 0 
L 794 0 
L 794 531 
z
" transform="scale(0.015625)"/>
       </defs>
       <use xlink:href="#DejaVuSans-31"/>
       <use xlink:href="#DejaVuSans-30" x="63.623047"/>
       <use xlink:href="#DejaVuSans-30" x="127.246094"/>
       <use xlink:href="#DejaVuSans-30" x="190.869141"/>
      </g>
     </g>
    </g>
   </g>
   <g id="matplotlib.axis_2">
    <g id="ytick_1">
     <g id="line2d_4">
      <defs>
       <path id="md55c968b21" d="M 0 0 
L -3.5 0 
" style="stroke: #000000; stroke-width: 0.8"/>
      </defs>
      <g>
       <use xlink:href="#md55c968b21" x="54" y="109.68" style="stroke: #000000; stroke-width: 0.8"/>
      </g>
     </g>
     <g id="text_4">
      <!-- −1 -->
      <g transform="translate(32.257812 113.479219) scale(0.1 -0.1)">
       <defs>
        <path id="DejaVuSans-2212" d="M 678 2272 
L 4684 2272 
L 4684 1741 
L 678 1741 
L 678 2272 
z
" transform="scale(0.015625)"/>
       </defs>
       <use xlink:href="#DejaVuSans-2212"/>
       <use xlink:href="#DejaVuSans-31" x="83.789062"/>
      </g>
     </g>
    </g>
    <g id="ytick_2">
     <g id="line2d_5">
      <g>
       <use xlink:href="#md55c968b21" x="54" y="72.72" style="stroke: #000000; stroke-width: 0.8"/>
      </g>
     </g>
     <g id="text_5">
      <!-- 0 -->
      <g transform="translate(40.6375 76.519219) scale(0.1 -0.1)">
       <use xlink:href="#DejaVuSans-30"/>
      </g>
     </g>
    </g>
    <g id="ytick_3">
     <g id="line2d_6">
      <g>
       <use xlink:href="#md55c968b21" x="54" y="35.76" style="stroke: #000000; stroke-width: 0.8"/>
      </g>
     </g>
     <g id="text_6">
      <!-- 1 -->
      <g transform="translate(40.6375 39.559219) scale(0.1 -0.1)">
       <use xlink:href="#DejaVuSans-31"/>
      </g>
     </g>
    </g>
   </g>
   <g id="line2d_7">
    <path d="M 58.475936 72.377048 
L 58.744761 69.785856 
L 59.013586 69.023741 
L 59.103194 69.023741 
L 59.192802 69.21427 
L 59.461627 70.395549 
L 59.551236 70.395549 
L 59.730452 68.566472 
L 60.268102 60.449945 
L 60.447319 61.859858 
L 60.536927 61.821753 
L 60.716144 62.888714 
L 60.984969 64.565367 
L 61.253794 65.060742 
L 61.612227 64.984531 
L 61.701836 65.213165 
L 63.135569 75.577932 
L 63.58361 77.21648 
L 63.852435 78.131018 
L 64.031652 77.864278 
L 64.748519 75.273086 
L 65.017344 73.444009 
L 65.19656 72.605683 
L 65.465385 69.633433 
L 65.644602 66.280127 
L 65.913427 60.869109 
L 66.27186 57.820648 
L 66.719902 61.21206 
L 67.078335 64.755896 
L 67.88481 69.252376 
L 68.153635 70.395549 
L 68.780893 74.96824 
L 69.318543 76.949739 
L 69.408151 76.987845 
L 69.766585 78.321547 
L 69.945801 78.169124 
L 70.304235 78.245335 
L 70.393843 78.359652 
L 70.57306 78.016701 
L 70.841885 76.797316 
L 70.931493 76.721105 
L 71.379535 75.082557 
L 71.469143 75.006346 
L 72.18601 72.338942 
L 72.275618 72.186519 
L 72.454835 70.890924 
L 72.634051 69.290482 
L 72.723659 69.328587 
L 72.902876 69.862068 
L 72.992484 70.090703 
L 73.171701 69.099953 
L 73.440526 65.632329 
L 73.619743 63.765146 
L 73.798959 64.222416 
L 73.978176 63.765146 
L 74.157393 64.18431 
L 74.695043 66.737396 
L 75.053476 67.95678 
L 75.232693 67.499511 
L 75.322301 67.69004 
L 75.859951 70.967135 
L 76.487209 76.835422 
L 76.935251 78.016701 
L 77.024859 78.016701 
L 77.831334 75.768461 
L 78.458592 73.329692 
L 78.727417 72.529471 
L 79.085851 70.776606 
L 79.175459 70.776606 
L 79.354676 70.014491 
L 79.981934 62.355233 
L 80.250759 63.422195 
L 80.340367 63.498406 
L 80.609192 64.45105 
L 80.6988 64.527262 
L 80.788409 64.412944 
L 80.967625 64.71779 
L 81.146842 65.213165 
L 81.415667 67.004136 
L 81.684492 68.185415 
L 82.132534 70.47176 
L 82.580575 71.500616 
L 82.759792 72.415154 
L 82.8494 72.45326 
L 83.476658 75.387403 
L 83.655875 75.196874 
L 83.835092 75.120663 
L 84.014308 75.120663 
L 84.193525 74.815817 
L 84.283133 74.892028 
L 84.731175 75.616038 
L 84.820783 75.577932 
L 84.910392 75.730355 
L 85.268825 75.349297 
L 85.53765 73.901279 
L 85.985692 71.081452 
L 86.254517 70.014491 
L 86.344125 70.090703 
L 86.792166 72.338942 
L 86.881775 72.491365 
L 87.060991 73.329692 
L 87.240208 73.253481 
L 87.509033 67.651934 
L 87.777858 63.269772 
L 88.584333 65.365588 
L 88.76355 65.479906 
L 89.121983 65.17506 
L 89.3012 65.556117 
L 89.390808 65.822857 
L 89.480416 65.746646 
L 89.570025 65.784752 
L 90.018066 67.575722 
L 91.541408 80.760315 
L 91.631016 80.874633 
L 92.079058 79.769566 
L 92.527099 76.263836 
L 92.795924 73.786961 
L 92.975141 73.444009 
L 93.064749 73.482115 
L 93.243966 73.291586 
L 93.333574 73.482115 
L 93.602399 72.224625 
L 93.960832 69.290482 
L 94.408874 62.050387 
L 94.946524 63.384089 
L 95.215349 64.603473 
L 95.394566 64.908319 
L 95.752999 66.127704 
L 95.842607 66.089598 
L 96.201041 67.194665 
L 96.380257 67.651934 
L 96.559474 68.032992 
L 96.738691 68.337838 
L 97.097124 70.433654 
L 97.186732 70.700395 
L 98.172424 77.025951 
L 98.35164 77.48322 
L 98.441249 77.407008 
L 98.710074 76.644893 
L 98.978899 75.349297 
L 99.42694 74.663394 
L 99.785374 72.681894 
L 100.143807 70.586077 
L 100.50224 67.423299 
L 100.591849 67.270876 
L 101.398323 62.850608 
L 101.487932 63.155454 
L 102.025582 67.004136 
L 102.294407 67.575722 
L 102.563232 67.461405 
L 102.921665 67.651934 
L 103.100882 67.537617 
L 103.817748 69.93828 
L 103.996965 71.348193 
L 104.982656 78.47397 
L 105.430698 79.579037 
L 105.520306 79.502825 
L 106.774823 73.101058 
L 106.864431 72.98674 
L 107.222865 71.271981 
L 107.312473 71.005241 
L 107.581298 69.442905 
L 107.760515 69.633433 
L 108.029339 70.509866 
L 108.118948 70.509866 
L 108.208556 70.20502 
L 108.746206 65.365588 
L 109.015031 63.841358 
L 109.283856 61.593118 
L 109.821506 67.651934 
L 110.000723 67.766251 
L 110.179939 67.69004 
L 110.448764 68.299732 
L 110.717589 68.94753 
L 111.165631 70.357443 
L 111.792889 73.139163 
L 112.151322 74.663394 
L 112.330539 75.082557 
L 112.420147 75.082557 
L 112.599364 75.654144 
L 112.688972 75.997095 
L 113.226622 75.273086 
L 113.495447 75.95899 
L 113.853881 74.663394 
L 113.943489 74.7015 
L 114.122706 73.596432 
L 114.570747 69.595328 
L 114.660356 69.48101 
L 115.018789 70.547972 
L 115.108397 70.586077 
L 115.46683 71.805462 
L 115.914872 72.643788 
L 116.00448 72.45326 
L 116.094089 71.691144 
L 116.631739 62.545762 
L 116.810955 62.012281 
L 116.990172 61.974176 
L 117.169389 62.507656 
L 117.527822 65.136954 
L 117.707039 65.060742 
L 118.065472 66.584973 
L 118.244689 66.470655 
L 118.782338 69.252376 
L 119.588813 75.844672 
L 120.216072 79.502825 
L 120.664113 80.569787 
L 120.932938 79.045556 
L 121.112155 79.274191 
L 121.201763 79.197979 
L 121.38098 77.711855 
L 122.008238 72.110308 
L 122.277063 71.46251 
L 122.366671 71.653039 
L 122.635496 71.46251 
L 122.814713 70.090703 
L 123.083538 65.518011 
L 123.441971 59.192455 
L 123.53158 59.001926 
L 123.800405 60.449945 
L 124.517271 64.45105 
L 124.696488 64.641579 
L 125.234138 67.042242 
L 125.592571 69.328587 
L 126.219829 73.825067 
L 126.936696 78.054806 
L 127.026304 78.321547 
L 127.115913 78.283441 
L 127.474346 77.597537 
L 127.653563 77.597537 
L 127.832779 77.864278 
L 127.922388 77.673749 
L 128.191213 76.378153 
L 128.370429 75.882778 
L 128.549646 74.510971 
L 128.908079 71.843568 
L 128.997688 71.691144 
L 129.535337 73.444009 
L 129.804162 74.587182 
L 129.983379 72.300837 
L 130.521029 62.012281 
L 130.610637 62.660079 
L 130.969071 65.746646 
L 131.148287 65.97528 
L 131.417112 66.242021 
L 131.954762 66.051492 
L 132.223587 66.546867 
L 132.761237 69.900174 
L 132.940454 71.005241 
L 133.030062 71.043347 
L 134.19497 76.682999 
L 134.284579 76.644893 
L 134.374187 76.49247 
L 134.643012 76.873528 
L 134.822229 77.292691 
L 135.091054 76.759211 
L 135.80792 71.19577 
L 136.076745 68.414049 
L 136.166354 68.299732 
L 136.435178 69.099953 
L 136.614395 68.109203 
L 136.88322 64.031887 
L 137.152045 60.602368 
L 137.241653 60.869109 
L 137.689695 64.679685 
L 137.95852 67.156559 
L 140.10912 75.882778 
L 140.467553 75.844672 
L 141.18442 73.71075 
L 141.274028 73.558327 
L 141.453245 72.45326 
L 141.632461 71.46251 
L 141.72207 71.691144 
L 141.901286 71.500616 
L 142.080503 71.005241 
L 142.438936 68.985636 
L 142.528545 68.833212 
L 142.618153 68.94753 
L 142.707761 68.757001 
L 143.066195 67.156559 
L 143.245411 67.69004 
L 144.051886 73.367798 
L 144.947969 66.737396 
L 145.575228 68.299732 
L 145.754444 68.109203 
L 146.202486 66.813607 
L 146.381703 66.851713 
L 146.560919 67.423299 
L 146.919353 69.557222 
L 147.277786 72.338942 
L 147.994652 77.064057 
L 147.994652 77.064057 
" clip-path="url(#pf463f05c8e)" style="fill: none; stroke: #1f77b4; stroke-width: 1.5; stroke-linecap: square"/>
   </g>
   <g id="patch_3">
    <path d="M 54 128.16 
L 54 17.28 
" style="fill: none; stroke: #000000; stroke-width: 0.8; stroke-linejoin: miter; stroke-linecap: square"/>
   </g>
   <g id="patch_4">
    <path d="M 152.470588 128.16 
L 152.470588 17.28 
" style="fill: none; stroke: #000000; stroke-width: 0.8; stroke-linejoin: miter; stroke-linecap: square"/>
   </g>
   <g id="patch_5">
    <path d="M 54 128.16 
L 152.470588 128.16 
" style="fill: none; stroke: #000000; stroke-width: 0.8; stroke-linejoin: miter; stroke-linecap: square"/>
   </g>
   <g id="patch_6">
    <path d="M 54 17.28 
L 152.470588 17.28 
" style="fill: none; stroke: #000000; stroke-width: 0.8; stroke-linejoin: miter; stroke-linecap: square"/>
   </g>
  </g>
  <g id="axes_2">
   <g id="patch_7">
    <path d="M 172.164706 128.16 
L 270.635294 128.16 
L 270.635294 17.28 
L 172.164706 17.28 
z
" style="fill: #ffffff"/>
   </g>
   <g id="matplotlib.axis_3">
    <g id="xtick_4">
     <g id="line2d_8">
      <g>
       <use xlink:href="#m9ac56438e3" x="176.640642" y="128.16" style="stroke: #000000; stroke-width: 0.8"/>
      </g>
     </g>
     <g id="text_7">
      <!-- 0 -->
      <g transform="translate(173.459392 142.758438) scale(0.1 -0.1)">
       <use xlink:href="#DejaVuSans-30"/>
      </g>
     </g>
    </g>
    <g id="xtick_5">
     <g id="line2d_9">
      <g>
       <use xlink:href="#m9ac56438e3" x="221.444804" y="128.16" style="stroke: #000000; stroke-width: 0.8"/>
      </g>
     </g>
     <g id="text_8">
      <!-- 500 -->
      <g transform="translate(211.901054 142.758438) scale(0.1 -0.1)">
       <use xlink:href="#DejaVuSans-35"/>
       <use xlink:href="#DejaVuSans-30" x="63.623047"/>
       <use xlink:href="#DejaVuSans-30" x="127.246094"/>
      </g>
     </g>
    </g>
    <g id="xtick_6">
     <g id="line2d_10">
      <g>
       <use xlink:href="#m9ac56438e3" x="266.248967" y="128.16" style="stroke: #000000; stroke-width: 0.8"/>
      </g>
     </g>
     <g id="text_9">
      <!-- 1000 -->
      <g transform="translate(253.523967 142.758438) scale(0.1 -0.1)">
       <use xlink:href="#DejaVuSans-31"/>
       <use xlink:href="#DejaVuSans-30" x="63.623047"/>
       <use xlink:href="#DejaVuSans-30" x="127.246094"/>
       <use xlink:href="#DejaVuSans-30" x="190.869141"/>
      </g>
     </g>
    </g>
   </g>
   <g id="matplotlib.axis_4">
    <g id="ytick_4">
     <g id="line2d_11">
      <g>
       <use xlink:href="#md55c968b21" x="172.164706" y="109.68" style="stroke: #000000; stroke-width: 0.8"/>
      </g>
     </g>
    </g>
    <g id="ytick_5">
     <g id="line2d_12">
      <g>
       <use xlink:href="#md55c968b21" x="172.164706" y="72.72" style="stroke: #000000; stroke-width: 0.8"/>
      </g>
     </g>
    </g>
    <g id="ytick_6">
     <g id="line2d_13">
      <g>
       <use xlink:href="#md55c968b21" x="172.164706" y="35.76" style="stroke: #000000; stroke-width: 0.8"/>
      </g>
     </g>
    </g>
   </g>
   <g id="line2d_14">
    <path d="M 176.640642 76.873528 
L 176.909467 75.997095 
L 177.088683 75.387403 
L 177.357508 74.549076 
L 177.447117 74.892028 
L 177.626333 74.434759 
L 177.80555 73.672644 
L 178.432808 69.976385 
L 178.522417 69.862068 
L 178.612025 70.090703 
L 178.791242 70.776606 
L 179.060066 70.700395 
L 179.149675 70.776606 
L 179.597716 71.995991 
L 179.776933 72.034096 
L 180.045758 69.290482 
L 180.4938 63.041137 
L 180.941841 66.051492 
L 181.210666 67.308982 
L 181.300275 67.423299 
L 181.5691 68.299732 
L 181.927533 68.566472 
L 183.361266 76.797316 
L 183.450874 76.644893 
L 183.630091 76.187624 
L 183.898916 75.463615 
L 184.794999 70.395549 
L 185.332649 59.535407 
L 185.511866 56.715581 
L 185.601474 56.44884 
L 185.780691 57.401484 
L 186.139124 59.840253 
L 186.318341 61.555012 
L 186.676774 65.860963 
L 187.035207 68.261626 
L 188.289724 77.178374 
L 188.468941 78.092912 
L 188.827374 79.274191 
L 189.185807 80.341152 
L 189.275416 80.26494 
L 189.633849 79.579037 
L 189.902674 79.579037 
L 190.08189 79.350402 
L 190.350715 78.131018 
L 190.61954 75.997095 
L 191.426015 62.317128 
L 191.515624 62.355233 
L 191.69484 62.012281 
L 191.874057 62.355233 
L 192.411707 66.356338 
L 192.77014 69.138059 
L 192.949357 70.052597 
L 193.218182 72.110308 
L 193.397398 72.415154 
L 193.487007 72.377048 
L 193.666223 72.529471 
L 193.755832 72.567577 
L 193.935048 72.034096 
L 194.203873 72.377048 
L 194.293482 72.415154 
L 195.099957 75.539826 
L 195.368782 76.682999 
L 195.45839 76.759211 
L 195.637607 75.616038 
L 195.906432 70.433654 
L 196.175257 66.051492 
L 196.53369 62.812502 
L 196.623298 62.888714 
L 196.892123 63.574618 
L 196.981731 63.498406 
L 197.250556 64.755896 
L 197.340165 64.71779 
L 197.519381 64.031887 
L 197.698598 64.832108 
L 198.057031 67.308982 
L 198.505073 70.852818 
L 199.042723 73.367798 
L 199.401156 74.053702 
L 199.490765 74.168019 
L 199.580373 74.053702 
L 199.669981 74.358548 
L 199.75959 74.24423 
L 199.938806 74.358548 
L 200.207631 74.053702 
L 200.297239 74.396653 
L 200.655673 73.786961 
L 200.834889 73.748856 
L 200.924498 73.596432 
L 201.193323 73.863173 
L 201.282931 73.863173 
L 201.462148 73.748856 
L 201.551756 73.786961 
L 201.641364 74.015596 
L 201.820581 73.71075 
L 201.999798 73.253481 
L 202.179014 73.291586 
L 202.268623 73.405904 
L 202.537448 71.919779 
L 203.343923 63.269772 
L 203.433531 63.422195 
L 203.702356 64.45105 
L 203.971181 66.242021 
L 204.329614 69.21427 
L 204.777656 70.852818 
L 204.956872 71.843568 
L 205.225697 72.338942 
L 205.494522 72.681894 
L 205.763347 73.748856 
L 205.852956 73.825067 
L 205.942564 73.71075 
L 206.211389 74.472865 
L 206.300997 74.358548 
L 206.659431 74.663394 
L 207.107472 75.882778 
L 207.197081 75.730355 
L 207.286689 75.882778 
L 207.555514 76.644893 
L 207.73473 76.644893 
L 208.093164 77.102162 
L 208.361989 76.530576 
L 208.720422 74.206125 
L 208.81003 74.129913 
L 209.258072 72.338942 
L 209.34768 72.45326 
L 209.616505 71.614933 
L 210.512589 69.442905 
L 210.602197 69.519116 
L 210.781413 70.128808 
L 211.229455 69.633433 
L 211.587888 68.071097 
L 211.767105 67.423299 
L 211.856713 67.651934 
L 212.215147 69.442905 
L 212.57358 70.967135 
L 212.752797 71.46251 
L 212.932013 71.995991 
L 213.021622 71.767356 
L 213.11123 71.805462 
L 213.380055 72.338942 
L 213.64888 72.224625 
L 213.828097 72.415154 
L 214.18653 72.338942 
L 214.455355 71.767356 
L 214.72418 72.224625 
L 214.813788 71.995991 
L 214.903396 72.110308 
L 215.172221 73.291586 
L 215.26183 73.444009 
L 215.441046 71.843568 
L 215.978696 63.688935 
L 216.247521 61.555012 
L 216.33713 61.66933 
L 216.785171 64.45105 
L 216.87478 64.71779 
L 216.964388 64.603473 
L 217.143605 64.908319 
L 217.591646 66.203915 
L 217.681255 66.318232 
L 218.308513 70.395549 
L 219.114988 76.682999 
L 219.383813 79.350402 
L 219.742246 81.370008 
L 219.831854 81.446219 
L 219.921463 81.674854 
L 220.011071 81.636748 
L 220.727938 78.550181 
L 221.086371 75.920884 
L 221.355196 74.24423 
L 221.713629 71.157664 
L 221.803237 71.119558 
L 221.982454 70.395549 
L 222.161671 69.595328 
L 222.340887 69.747751 
L 222.520104 69.557222 
L 222.788929 70.014491 
L 222.968146 70.243126 
L 223.147362 70.700395 
L 223.236971 70.700395 
L 223.505796 68.414049 
L 224.312271 59.497301 
L 224.401879 59.42109 
L 224.849921 63.727041 
L 225.118745 65.213165 
L 225.38757 65.213165 
L 225.656395 63.993781 
L 225.746004 64.222416 
L 226.46287 69.93828 
L 226.552479 69.976385 
L 227.269345 73.139163 
L 227.358954 73.139163 
L 227.53817 73.634538 
L 227.717387 74.396653 
L 227.896604 74.472865 
L 228.344645 75.577932 
L 228.523862 75.616038 
L 228.792687 75.577932 
L 228.971903 75.920884 
L 229.240728 75.273086 
L 229.330337 75.196874 
L 229.509553 75.425509 
L 229.867987 74.777711 
L 229.957595 74.930134 
L 230.22642 74.015596 
L 230.405637 71.957885 
L 231.032895 64.298627 
L 231.212112 63.993781 
L 231.391328 65.518011 
L 231.660153 67.461405 
L 231.928978 67.461405 
L 232.108195 66.813607 
L 232.466628 64.031887 
L 232.556236 64.108098 
L 232.825061 65.479906 
L 233.362711 68.718895 
L 233.721145 71.081452 
L 234.886053 77.711855 
L 234.975661 77.788066 
L 235.244486 78.435864 
L 235.602919 77.48322 
L 236.050961 76.759211 
L 236.230178 76.873528 
L 236.409394 76.416259 
L 236.499003 76.49247 
L 236.678219 77.102162 
L 236.947044 76.340047 
L 237.126261 75.120663 
L 238.022344 62.317128 
L 238.111953 62.050387 
L 238.470386 62.92682 
L 238.559994 62.888714 
L 238.649603 63.041137 
L 238.918428 64.527262 
L 239.366469 64.794002 
L 239.456077 64.565367 
L 239.635294 63.803252 
L 240.979419 70.243126 
L 241.248244 71.881673 
L 241.517069 72.834317 
L 241.965111 74.015596 
L 242.233936 73.558327 
L 242.323544 73.291586 
L 242.502761 73.97749 
L 242.681977 73.939384 
L 242.771585 73.97749 
L 242.861194 73.748856 
L 242.950802 74.053702 
L 243.04041 73.558327 
L 243.130019 73.634538 
L 243.667669 73.520221 
L 243.846885 73.97749 
L 243.936494 74.053702 
L 244.294927 74.815817 
L 244.384535 74.777711 
L 244.65336 72.110308 
L 245.19101 62.20281 
L 245.370227 59.725936 
L 245.907877 66.470655 
L 246.087094 67.042242 
L 246.176702 67.042242 
L 246.624743 66.394444 
L 246.714352 66.089598 
L 246.80396 66.127704 
L 246.893568 66.470655 
L 247.87926 75.95899 
L 248.148085 77.711855 
L 248.506518 80.98895 
L 248.864952 82.589392 
L 249.044168 82.551286 
L 249.223385 82.589392 
L 249.761035 80.417364 
L 250.298685 76.606788 
L 250.836335 73.291586 
L 250.925943 73.215375 
L 251.463593 69.747751 
L 251.911635 62.964925 
L 252.270068 58.506552 
L 252.359676 58.811398 
L 253.25576 63.345983 
L 253.345368 63.19356 
L 253.434976 62.812502 
L 253.524584 62.888714 
L 253.703801 62.812502 
L 253.883018 62.20281 
L 253.972626 62.469551 
L 255.047926 71.233875 
L 255.227143 72.110308 
L 255.585576 74.472865 
L 255.764793 75.273086 
L 256.212834 77.445114 
L 256.302443 77.711855 
L 256.392051 77.673749 
L 256.571268 77.597537 
L 256.929701 78.550181 
L 257.019309 78.47397 
L 257.198526 78.054806 
L 258.273826 73.444009 
L 258.542651 71.614933 
L 258.811476 70.700395 
L 259.080301 64.908319 
L 259.349126 59.154349 
L 259.886776 64.412944 
L 260.245209 65.899069 
L 260.514034 65.937175 
L 260.872467 65.365588 
L 261.051684 64.679685 
L 261.499725 67.651934 
L 262.216592 72.529471 
L 262.3062 72.567577 
L 262.485417 73.291586 
L 263.3815 78.321547 
L 263.650325 79.045556 
L 263.829542 78.626393 
L 263.91915 78.397758 
L 264.008758 78.512076 
L 264.187975 77.788066 
L 264.367192 77.368903 
L 264.546408 76.263836 
L 264.99445 73.71075 
L 265.173667 71.653039 
L 265.621708 63.917569 
L 265.800925 62.812502 
L 265.890533 62.736291 
L 266.06975 63.079243 
L 266.159358 63.574618 
L 266.159358 63.574618 
" clip-path="url(#p84d9af8391)" style="fill: none; stroke: #1f77b4; stroke-width: 1.5; stroke-linecap: square"/>
   </g>
   <g id="patch_8">
    <path d="M 172.164706 128.16 
L 172.164706 17.28 
" style="fill: none; stroke: #000000; stroke-width: 0.8; stroke-linejoin: miter; stroke-linecap: square"/>
   </g>
   <g id="patch_9">
    <path d="M 270.635294 128.16 
L 270.635294 17.28 
" style="fill: none; stroke: #000000; stroke-width: 0.8; stroke-linejoin: miter; stroke-linecap: square"/>
   </g>
   <g id="patch_10">
    <path d="M 172.164706 128.16 
L 270.635294 128.16 
" style="fill: none; stroke: #000000; stroke-width: 0.8; stroke-linejoin: miter; stroke-linecap: square"/>
   </g>
   <g id="patch_11">
    <path d="M 172.164706 17.28 
L 270.635294 17.28 
" style="fill: none; stroke: #000000; stroke-width: 0.8; stroke-linejoin: miter; stroke-linecap: square"/>
   </g>
  </g>
  <g id="axes_3">
   <g id="patch_12">
    <path d="M 290.329412 128.16 
L 388.8 128.16 
L 388.8 17.28 
L 290.329412 17.28 
z
" style="fill: #ffffff"/>
   </g>
   <g id="matplotlib.axis_5">
    <g id="xtick_7">
     <g id="line2d_15">
      <g>
       <use xlink:href="#m9ac56438e3" x="294.805348" y="128.16" style="stroke: #000000; stroke-width: 0.8"/>
      </g>
     </g>
     <g id="text_10">
      <!-- 0 -->
      <g transform="translate(291.624098 142.758438) scale(0.1 -0.1)">
       <use xlink:href="#DejaVuSans-30"/>
      </g>
     </g>
    </g>
    <g id="xtick_8">
     <g id="line2d_16">
      <g>
       <use xlink:href="#m9ac56438e3" x="339.60951" y="128.16" style="stroke: #000000; stroke-width: 0.8"/>
      </g>
     </g>
     <g id="text_11">
      <!-- 500 -->
      <g transform="translate(330.06576 142.758438) scale(0.1 -0.1)">
       <use xlink:href="#DejaVuSans-35"/>
       <use xlink:href="#DejaVuSans-30" x="63.623047"/>
       <use xlink:href="#DejaVuSans-30" x="127.246094"/>
      </g>
     </g>
    </g>
    <g id="xtick_9">
     <g id="line2d_17">
      <g>
       <use xlink:href="#m9ac56438e3" x="384.413672" y="128.16" style="stroke: #000000; stroke-width: 0.8"/>
      </g>
     </g>
     <g id="text_12">
      <!-- 1000 -->
      <g transform="translate(371.688672 142.758438) scale(0.1 -0.1)">
       <use xlink:href="#DejaVuSans-31"/>
       <use xlink:href="#DejaVuSans-30" x="63.623047"/>
       <use xlink:href="#DejaVuSans-30" x="127.246094"/>
       <use xlink:href="#DejaVuSans-30" x="190.869141"/>
      </g>
     </g>
    </g>
   </g>
   <g id="matplotlib.axis_6">
    <g id="ytick_7">
     <g id="line2d_18">
      <g>
       <use xlink:href="#md55c968b21" x="290.329412" y="109.68" style="stroke: #000000; stroke-width: 0.8"/>
      </g>
     </g>
    </g>
    <g id="ytick_8">
     <g id="line2d_19">
      <g>
       <use xlink:href="#md55c968b21" x="290.329412" y="72.72" style="stroke: #000000; stroke-width: 0.8"/>
      </g>
     </g>
    </g>
    <g id="ytick_9">
     <g id="line2d_20">
      <g>
       <use xlink:href="#md55c968b21" x="290.329412" y="35.76" style="stroke: #000000; stroke-width: 0.8"/>
      </g>
     </g>
    </g>
   </g>
   <g id="line2d_21">
    <path d="M 294.805348 78.397758 
L 295.163781 74.930134 
L 295.611823 70.700395 
L 295.880647 68.109203 
L 296.418297 54.848399 
L 296.507906 54.314918 
L 296.776731 56.143994 
L 296.866339 56.105889 
L 296.955947 55.953466 
L 297.045556 56.029677 
L 297.583206 60.869109 
L 298.300072 74.663394 
L 298.389681 74.663394 
L 298.479289 74.472865 
L 298.658506 75.273086 
L 299.016939 77.635643 
L 299.285764 77.368903 
L 299.554589 75.95899 
L 299.913022 74.168019 
L 300.092239 73.253481 
L 300.450672 70.7385 
L 300.629889 69.023741 
L 301.167539 58.925715 
L 301.257147 58.887609 
L 302.422055 67.651934 
L 303.318138 78.321547 
L 303.407747 78.550181 
L 303.76618 81.179479 
L 303.855788 81.065161 
L 304.124613 81.484325 
L 304.214222 81.408113 
L 304.30383 81.293796 
L 305.110305 73.748856 
L 305.289522 70.700395 
L 305.827172 59.154349 
L 305.91678 58.69708 
L 306.185605 59.802147 
L 306.275213 59.802147 
L 306.45443 60.792897 
L 306.812863 63.879464 
L 307.619338 74.587182 
L 307.708946 74.549076 
L 308.156988 72.415154 
L 308.246596 72.605683 
L 308.515421 73.672644 
L 308.784246 72.300837 
L 308.873855 72.377048 
L 309.053071 72.948635 
L 309.590721 70.814712 
L 309.769938 69.823962 
L 309.949155 66.889819 
L 310.307588 60.259416 
L 310.486804 59.535407 
L 311.830929 74.739605 
L 312.189363 81.598642 
L 312.458188 82.932344 
L 312.637404 82.627498 
L 312.727013 82.094017 
L 312.995838 82.436969 
L 314.071137 70.47176 
L 314.250354 70.624183 
L 314.608787 68.94753 
L 314.877612 64.527262 
L 315.236046 59.268667 
L 315.325654 59.497301 
L 315.504871 61.021532 
L 315.684087 61.021532 
L 315.773696 61.288272 
L 316.221737 66.242021 
L 316.580171 70.7385 
L 316.938604 77.445114 
L 317.11782 78.321547 
L 317.476254 78.359652 
L 317.565862 78.435864 
L 317.834687 79.045556 
L 317.924295 78.778816 
L 319.178812 68.985636 
L 319.447637 67.194665 
L 319.895679 60.030782 
L 319.985287 59.916465 
L 320.074895 60.449945 
L 320.34372 63.422195 
L 320.612545 65.365588 
L 321.95667 81.9797 
L 322.315103 79.921989 
L 322.404712 80.112517 
L 322.49432 80.150623 
L 322.583928 80.036306 
L 323.03197 75.387403 
L 323.838445 64.489156 
L 324.017662 64.336733 
L 324.10727 64.45105 
L 324.376095 63.688935 
L 324.465703 63.993781 
L 324.555311 63.422195 
L 325.003353 57.287167 
L 325.092961 57.096638 
L 326.437086 73.177269 
L 326.79552 78.664499 
L 327.064345 78.626393 
L 327.33317 79.274191 
L 327.512386 79.883883 
L 327.601995 80.455469 
L 328.050036 79.274191 
L 328.229253 78.702604 
L 328.498078 76.873528 
L 328.766903 75.616038 
L 329.214944 73.520221 
L 329.483769 69.290482 
L 330.021419 56.220206 
L 330.111028 56.258312 
L 331.365544 69.519116 
L 331.634369 73.596432 
L 331.903194 76.644893 
L 332.261627 76.22573 
L 332.620061 77.711855 
L 332.799277 76.49247 
L 333.336927 71.386298 
L 333.605752 69.404799 
L 333.874577 67.918674 
L 334.233011 64.069992 
L 334.770661 56.982321 
L 334.860269 56.639369 
L 334.949877 56.829898 
L 336.294002 72.491365 
L 336.652435 78.435864 
L 336.742044 78.931239 
L 337.010869 78.016701 
L 337.100477 78.054806 
L 337.279694 77.788066 
L 337.638127 76.721105 
L 338.265385 72.681894 
L 338.354993 72.681894 
L 338.803035 71.119558 
L 338.892643 71.119558 
L 338.982252 71.271981 
L 339.340685 72.643788 
L 339.519902 70.433654 
L 339.878335 63.879464 
L 340.057552 62.240916 
L 340.68481 66.470655 
L 341.401677 73.291586 
L 341.849718 78.778816 
L 342.208151 80.912738 
L 342.566585 83.50393 
L 342.745801 82.360757 
L 343.014626 79.312296 
L 343.552276 71.72925 
L 344.000318 68.22352 
L 344.269143 66.775501 
L 345.075618 57.553908 
L 345.165226 57.630119 
L 345.254835 58.049282 
L 345.523659 62.583868 
L 345.792484 66.280127 
L 346.061309 66.813607 
L 346.330134 68.94753 
L 346.778176 73.748856 
L 347.584651 81.25569 
L 347.674259 81.370008 
L 347.763868 81.179479 
L 348.211909 77.178374 
L 348.839168 68.261626 
L 349.287209 59.916465 
L 349.466426 58.620869 
L 349.645642 59.992676 
L 350.452117 71.881673 
L 350.989767 74.396653 
L 351.079376 74.24423 
L 351.258592 73.329692 
L 351.348201 73.520221 
L 351.527417 73.101058 
L 351.617026 73.177269 
L 351.885851 75.006346 
L 352.154676 77.559432 
L 352.244284 77.521326 
L 352.513109 76.263836 
L 352.692325 74.358548 
L 353.588409 57.706331 
L 353.678017 57.744436 
L 353.857234 57.858754 
L 353.946842 57.896859 
L 354.305275 61.364484 
L 355.201359 74.472865 
L 355.380575 75.882778 
L 355.559792 77.48322 
L 355.828617 77.788066 
L 356.007834 78.74071 
L 356.097442 78.626393 
L 356.18705 78.74071 
L 356.455875 78.512076 
L 356.903917 76.149518 
L 357.8 61.059637 
L 357.889608 61.21206 
L 358.33765 65.822857 
L 358.8753 72.98674 
L 359.144125 74.129913 
L 359.233733 74.053702 
L 359.41295 74.434759 
L 359.771383 73.367798 
L 359.860991 73.748856 
L 360.219425 78.245335 
L 360.48825 80.912738 
L 360.577858 80.836527 
L 361.0259 77.292691 
L 361.384333 75.50172 
L 361.742766 73.71075 
L 362.011591 68.985636 
L 362.549241 55.458091 
L 362.63885 54.543552 
L 362.728458 55.000822 
L 362.907675 57.706331 
L 363.266108 64.984531 
L 363.714149 68.261626 
L 364.431016 72.910529 
L 364.610233 73.291586 
L 364.699841 73.215375 
L 364.879058 72.910529 
L 365.058274 73.062952 
L 365.147883 72.681894 
L 365.327099 73.405904 
L 365.416708 73.329692 
L 365.595924 72.681894 
L 366.312791 75.577932 
L 366.402399 75.044451 
L 367.477699 61.516907 
L 368.911432 75.23498 
L 369.090649 76.835422 
L 369.449082 81.484325 
L 369.538691 81.446219 
L 369.628299 81.25569 
L 369.717907 81.370008 
L 369.897124 81.217584 
L 370.165949 80.760315 
L 370.255557 80.950844 
L 370.434774 80.188729 
L 371.062032 73.97749 
L 372.22694 55.305668 
L 372.316549 55.381879 
L 372.854199 60.792897 
L 373.123024 66.546867 
L 374.108715 75.196874 
L 374.37754 76.22573 
L 374.735973 75.730355 
L 374.825582 75.95899 
L 375.273623 74.587182 
L 375.542448 72.834317 
L 375.721665 71.386298 
L 376.080098 67.042242 
L 376.169707 66.69929 
L 376.52814 64.069992 
L 376.617748 63.917569 
L 376.707357 63.498406 
L 376.796965 63.688935 
L 376.976182 64.755896 
L 377.424223 71.614933 
L 377.872265 79.960094 
L 378.051481 81.522431 
L 378.320306 81.674854 
L 378.589131 79.845777 
L 379.037173 75.920884 
L 380.022865 59.573513 
L 380.470906 57.134744 
L 380.560515 57.287167 
L 381.277381 61.821753 
L 381.635814 67.994886 
L 382.352681 83.313401 
L 382.621506 85.942699 
L 382.711114 86.095122 
L 382.800723 86.01891 
L 383.069548 82.094017 
L 384.055239 64.603473 
L 384.324064 62.164704 
L 384.324064 62.164704 
" clip-path="url(#p91744e7847)" style="fill: none; stroke: #1f77b4; stroke-width: 1.5; stroke-linecap: square"/>
   </g>
   <g id="patch_13">
    <path d="M 290.329412 128.16 
L 290.329412 17.28 
" style="fill: none; stroke: #000000; stroke-width: 0.8; stroke-linejoin: miter; stroke-linecap: square"/>
   </g>
   <g id="patch_14">
    <path d="M 388.8 128.16 
L 388.8 17.28 
" style="fill: none; stroke: #000000; stroke-width: 0.8; stroke-linejoin: miter; stroke-linecap: square"/>
   </g>
   <g id="patch_15">
    <path d="M 290.329412 128.16 
L 388.8 128.16 
" style="fill: none; stroke: #000000; stroke-width: 0.8; stroke-linejoin: miter; stroke-linecap: square"/>
   </g>
   <g id="patch_16">
    <path d="M 290.329412 17.28 
L 388.8 17.28 
" style="fill: none; stroke: #000000; stroke-width: 0.8; stroke-linejoin: miter; stroke-linecap: square"/>
   </g>
  </g>
 </g>
 <defs>
  <clipPath id="pf463f05c8e">
   <rect x="54" y="17.28" width="98.470588" height="110.88"/>
  </clipPath>
  <clipPath id="p84d9af8391">
   <rect x="172.164706" y="17.28" width="98.470588" height="110.88"/>
  </clipPath>
  <clipPath id="p91744e7847">
   <rect x="290.329412" y="17.28" width="98.470588" height="110.88"/>
  </clipPath>
 </defs>
</svg>
