<?xml version="1.0" encoding="utf-8" standalone="no"?>
<!DOCTYPE svg PUBLIC "-//W3C//DTD SVG 1.1//EN"
  "http://www.w3.org/Graphics/SVG/1.1/DTD/svg11.dtd">
<svg xmlns:xlink="http://www.w3.org/1999/xlink" width="576pt" height="1152pt" viewBox="0 0 576 1152" xmlns="http://www.w3.org/2000/svg" version="1.1">
 <metadata>
  <rdf:RDF xmlns:dc="http://purl.org/dc/elements/1.1/" xmlns:cc="http://creativecommons.org/ns#" xmlns:rdf="http://www.w3.org/1999/02/22-rdf-syntax-ns#">
   <cc:Work>
    <dc:type rdf:resource="http://purl.org/dc/dcmitype/StillImage"/>
    <dc:date>2023-11-16T12:25:31.927904</dc:date>
    <dc:format>image/svg+xml</dc:format>
    <dc:creator>
     <cc:Agent>
      <dc:title>Matplotlib v3.7.3, https://matplotlib.org/</dc:title>
     </cc:Agent>
    </dc:creator>
   </cc:Work>
  </rdf:RDF>
 </metadata>
 <defs>
  <style type="text/css">*{stroke-linejoin: round; stroke-linecap: butt}</style>
 </defs>
 <g id="figure_1">
  <g id="patch_1">
   <path d="M 0 1152 
L 576 1152 
L 576 0 
L 0 0 
z
" style="fill: #ffffff"/>
  </g>
  <g id="axes_1">
   <g id="patch_2">
    <path d="M 72 541.44 
L 518.4 541.44 
L 518.4 138.24 
L 72 138.24 
z
" style="fill: #ffffff"/>
   </g>
   <g id="matplotlib.axis_1">
    <g id="xtick_1">
     <g id="line2d_1">
      <defs>
       <path id="m845c9ac8ad" d="M 0 0 
L 0 3.5 
" style="stroke: #000000; stroke-width: 0.8"/>
      </defs>
      <g>
       <use xlink:href="#m845c9ac8ad" x="92.290909" y="541.44" style="stroke: #000000; stroke-width: 0.8"/>
      </g>
     </g>
     <g id="text_1">
      <!-- 0 -->
      <g transform="translate(89.109659 556.038437) scale(0.1 -0.1)">
       <defs>
        <path id="DejaVuSans-30" d="M 2034 4250 
Q 1547 4250 1301 3770 
Q 1056 3291 1056 2328 
Q 1056 1369 1301 889 
Q 1547 409 2034 409 
Q 2525 409 2770 889 
Q 3016 1369 3016 2328 
Q 3016 3291 2770 3770 
Q 2525 4250 2034 4250 
z
M 2034 4750 
Q 2819 4750 3233 4129 
Q 3647 3509 3647 2328 
Q 3647 1150 3233 529 
Q 2819 -91 2034 -91 
Q 1250 -91 836 529 
Q 422 1150 422 2328 
Q 422 3509 836 4129 
Q 1250 4750 2034 4750 
z
" transform="scale(0.015625)"/>
       </defs>
       <use xlink:href="#DejaVuSans-30"/>
      </g>
     </g>
    </g>
    <g id="xtick_2">
     <g id="line2d_2">
      <g>
       <use xlink:href="#m845c9ac8ad" x="173.780504" y="541.44" style="stroke: #000000; stroke-width: 0.8"/>
      </g>
     </g>
     <g id="text_2">
      <!-- 50 -->
      <g transform="translate(167.418004 556.038437) scale(0.1 -0.1)">
       <defs>
        <path id="DejaVuSans-35" d="M 691 4666 
L 3169 4666 
L 3169 4134 
L 1269 4134 
L 1269 2991 
Q 1406 3038 1543 3061 
Q 1681 3084 1819 3084 
Q 2600 3084 3056 2656 
Q 3513 2228 3513 1497 
Q 3513 744 3044 326 
Q 2575 -91 1722 -91 
Q 1428 -91 1123 -41 
Q 819 9 494 109 
L 494 744 
Q 775 591 1075 516 
Q 1375 441 1709 441 
Q 2250 441 2565 725 
Q 2881 1009 2881 1497 
Q 2881 1984 2565 2268 
Q 2250 2553 1709 2553 
Q 1456 2553 1204 2497 
Q 953 2441 691 2322 
L 691 4666 
z
" transform="scale(0.015625)"/>
       </defs>
       <use xlink:href="#DejaVuSans-35"/>
       <use xlink:href="#DejaVuSans-30" x="63.623047"/>
      </g>
     </g>
    </g>
    <g id="xtick_3">
     <g id="line2d_3">
      <g>
       <use xlink:href="#m845c9ac8ad" x="255.270099" y="541.44" style="stroke: #000000; stroke-width: 0.8"/>
      </g>
     </g>
     <g id="text_3">
      <!-- 100 -->
      <g transform="translate(245.726349 556.038437) scale(0.1 -0.1)">
       <defs>
        <path id="DejaVuSans-31" d="M 794 531 
L 1825 531 
L 1825 4091 
L 703 3866 
L 703 4441 
L 1819 4666 
L 2450 4666 
L 2450 531 
L 3481 531 
L 3481 0 
L 794 0 
L 794 531 
z
" transform="scale(0.015625)"/>
       </defs>
       <use xlink:href="#DejaVuSans-31"/>
       <use xlink:href="#DejaVuSans-30" x="63.623047"/>
       <use xlink:href="#DejaVuSans-30" x="127.246094"/>
      </g>
     </g>
    </g>
    <g id="xtick_4">
     <g id="line2d_4">
      <g>
       <use xlink:href="#m845c9ac8ad" x="336.759693" y="541.44" style="stroke: #000000; stroke-width: 0.8"/>
      </g>
     </g>
     <g id="text_4">
      <!-- 150 -->
      <g transform="translate(327.215943 556.038437) scale(0.1 -0.1)">
       <use xlink:href="#DejaVuSans-31"/>
       <use xlink:href="#DejaVuSans-35" x="63.623047"/>
       <use xlink:href="#DejaVuSans-30" x="127.246094"/>
      </g>
     </g>
    </g>
    <g id="xtick_5">
     <g id="line2d_5">
      <g>
       <use xlink:href="#m845c9ac8ad" x="418.249288" y="541.44" style="stroke: #000000; stroke-width: 0.8"/>
      </g>
     </g>
     <g id="text_5">
      <!-- 200 -->
      <g transform="translate(408.705538 556.038437) scale(0.1 -0.1)">
       <defs>
        <path id="DejaVuSans-32" d="M 1228 531 
L 3431 531 
L 3431 0 
L 469 0 
L 469 531 
Q 828 903 1448 1529 
Q 2069 2156 2228 2338 
Q 2531 2678 2651 2914 
Q 2772 3150 2772 3378 
Q 2772 3750 2511 3984 
Q 2250 4219 1831 4219 
Q 1534 4219 1204 4116 
Q 875 4013 500 3803 
L 500 4441 
Q 881 4594 1212 4672 
Q 1544 4750 1819 4750 
Q 2544 4750 2975 4387 
Q 3406 4025 3406 3419 
Q 3406 3131 3298 2873 
Q 3191 2616 2906 2266 
Q 2828 2175 2409 1742 
Q 1991 1309 1228 531 
z
" transform="scale(0.015625)"/>
       </defs>
       <use xlink:href="#DejaVuSans-32"/>
       <use xlink:href="#DejaVuSans-30" x="63.623047"/>
       <use xlink:href="#DejaVuSans-30" x="127.246094"/>
      </g>
     </g>
    </g>
    <g id="xtick_6">
     <g id="line2d_6">
      <g>
       <use xlink:href="#m845c9ac8ad" x="499.738883" y="541.44" style="stroke: #000000; stroke-width: 0.8"/>
      </g>
     </g>
     <g id="text_6">
      <!-- 250 -->
      <g transform="translate(490.195133 556.038437) scale(0.1 -0.1)">
       <use xlink:href="#DejaVuSans-32"/>
       <use xlink:href="#DejaVuSans-35" x="63.623047"/>
       <use xlink:href="#DejaVuSans-30" x="127.246094"/>
      </g>
     </g>
    </g>
    <g id="text_7">
     <!-- Epoch -->
     <g transform="translate(279.889062 569.716563) scale(0.1 -0.1)">
      <defs>
       <path id="DejaVuSans-45" d="M 628 4666 
L 3578 4666 
L 3578 4134 
L 1259 4134 
L 1259 2753 
L 3481 2753 
L 3481 2222 
L 1259 2222 
L 1259 531 
L 3634 531 
L 3634 0 
L 628 0 
L 628 4666 
z
" transform="scale(0.015625)"/>
       <path id="DejaVuSans-70" d="M 1159 525 
L 1159 -1331 
L 581 -1331 
L 581 3500 
L 1159 3500 
L 1159 2969 
Q 1341 3281 1617 3432 
Q 1894 3584 2278 3584 
Q 2916 3584 3314 3078 
Q 3713 2572 3713 1747 
Q 3713 922 3314 415 
Q 2916 -91 2278 -91 
Q 1894 -91 1617 61 
Q 1341 213 1159 525 
z
M 3116 1747 
Q 3116 2381 2855 2742 
Q 2594 3103 2138 3103 
Q 1681 3103 1420 2742 
Q 1159 2381 1159 1747 
Q 1159 1113 1420 752 
Q 1681 391 2138 391 
Q 2594 391 2855 752 
Q 3116 1113 3116 1747 
z
" transform="scale(0.015625)"/>
       <path id="DejaVuSans-6f" d="M 1959 3097 
Q 1497 3097 1228 2736 
Q 959 2375 959 1747 
Q 959 1119 1226 758 
Q 1494 397 1959 397 
Q 2419 397 2687 759 
Q 2956 1122 2956 1747 
Q 2956 2369 2687 2733 
Q 2419 3097 1959 3097 
z
M 1959 3584 
Q 2709 3584 3137 3096 
Q 3566 2609 3566 1747 
Q 3566 888 3137 398 
Q 2709 -91 1959 -91 
Q 1206 -91 779 398 
Q 353 888 353 1747 
Q 353 2609 779 3096 
Q 1206 3584 1959 3584 
z
" transform="scale(0.015625)"/>
       <path id="DejaVuSans-63" d="M 3122 3366 
L 3122 2828 
Q 2878 2963 2633 3030 
Q 2388 3097 2138 3097 
Q 1578 3097 1268 2742 
Q 959 2388 959 1747 
Q 959 1106 1268 751 
Q 1578 397 2138 397 
Q 2388 397 2633 464 
Q 2878 531 3122 666 
L 3122 134 
Q 2881 22 2623 -34 
Q 2366 -91 2075 -91 
Q 1284 -91 818 406 
Q 353 903 353 1747 
Q 353 2603 823 3093 
Q 1294 3584 2113 3584 
Q 2378 3584 2631 3529 
Q 2884 3475 3122 3366 
z
" transform="scale(0.015625)"/>
       <path id="DejaVuSans-68" d="M 3513 2113 
L 3513 0 
L 2938 0 
L 2938 2094 
Q 2938 2591 2744 2837 
Q 2550 3084 2163 3084 
Q 1697 3084 1428 2787 
Q 1159 2491 1159 1978 
L 1159 0 
L 581 0 
L 581 4863 
L 1159 4863 
L 1159 2956 
Q 1366 3272 1645 3428 
Q 1925 3584 2291 3584 
Q 2894 3584 3203 3211 
Q 3513 2838 3513 2113 
z
" transform="scale(0.015625)"/>
      </defs>
      <use xlink:href="#DejaVuSans-45"/>
      <use xlink:href="#DejaVuSans-70" x="63.183594"/>
      <use xlink:href="#DejaVuSans-6f" x="126.660156"/>
      <use xlink:href="#DejaVuSans-63" x="187.841797"/>
      <use xlink:href="#DejaVuSans-68" x="242.822266"/>
     </g>
    </g>
   </g>
   <g id="matplotlib.axis_2">
    <g id="ytick_1">
     <g id="line2d_7">
      <defs>
       <path id="mf8215f13dd" d="M 0 0 
L -3.5 0 
" style="stroke: #000000; stroke-width: 0.8"/>
      </defs>
      <g>
       <use xlink:href="#mf8215f13dd" x="72" y="502.441452" style="stroke: #000000; stroke-width: 0.8"/>
      </g>
     </g>
     <g id="text_8">
      <!-- 0.2 -->
      <g transform="translate(49.096875 506.240671) scale(0.1 -0.1)">
       <defs>
        <path id="DejaVuSans-2e" d="M 684 794 
L 1344 794 
L 1344 0 
L 684 0 
L 684 794 
z
" transform="scale(0.015625)"/>
       </defs>
       <use xlink:href="#DejaVuSans-30"/>
       <use xlink:href="#DejaVuSans-2e" x="63.623047"/>
       <use xlink:href="#DejaVuSans-32" x="95.410156"/>
      </g>
     </g>
    </g>
    <g id="ytick_2">
     <g id="line2d_8">
      <g>
       <use xlink:href="#mf8215f13dd" x="72" y="414.588523" style="stroke: #000000; stroke-width: 0.8"/>
      </g>
     </g>
     <g id="text_9">
      <!-- 0.4 -->
      <g transform="translate(49.096875 418.387742) scale(0.1 -0.1)">
       <defs>
        <path id="DejaVuSans-34" d="M 2419 4116 
L 825 1625 
L 2419 1625 
L 2419 4116 
z
M 2253 4666 
L 3047 4666 
L 3047 1625 
L 3713 1625 
L 3713 1100 
L 3047 1100 
L 3047 0 
L 2419 0 
L 2419 1100 
L 313 1100 
L 313 1709 
L 2253 4666 
z
" transform="scale(0.015625)"/>
       </defs>
       <use xlink:href="#DejaVuSans-30"/>
       <use xlink:href="#DejaVuSans-2e" x="63.623047"/>
       <use xlink:href="#DejaVuSans-34" x="95.410156"/>
      </g>
     </g>
    </g>
    <g id="ytick_3">
     <g id="line2d_9">
      <g>
       <use xlink:href="#mf8215f13dd" x="72" y="326.735593" style="stroke: #000000; stroke-width: 0.8"/>
      </g>
     </g>
     <g id="text_10">
      <!-- 0.6 -->
      <g transform="translate(49.096875 330.534812) scale(0.1 -0.1)">
       <defs>
        <path id="DejaVuSans-36" d="M 2113 2584 
Q 1688 2584 1439 2293 
Q 1191 2003 1191 1497 
Q 1191 994 1439 701 
Q 1688 409 2113 409 
Q 2538 409 2786 701 
Q 3034 994 3034 1497 
Q 3034 2003 2786 2293 
Q 2538 2584 2113 2584 
z
M 3366 4563 
L 3366 3988 
Q 3128 4100 2886 4159 
Q 2644 4219 2406 4219 
Q 1781 4219 1451 3797 
Q 1122 3375 1075 2522 
Q 1259 2794 1537 2939 
Q 1816 3084 2150 3084 
Q 2853 3084 3261 2657 
Q 3669 2231 3669 1497 
Q 3669 778 3244 343 
Q 2819 -91 2113 -91 
Q 1303 -91 875 529 
Q 447 1150 447 2328 
Q 447 3434 972 4092 
Q 1497 4750 2381 4750 
Q 2619 4750 2861 4703 
Q 3103 4656 3366 4563 
z
" transform="scale(0.015625)"/>
       </defs>
       <use xlink:href="#DejaVuSans-30"/>
       <use xlink:href="#DejaVuSans-2e" x="63.623047"/>
       <use xlink:href="#DejaVuSans-36" x="95.410156"/>
      </g>
     </g>
    </g>
    <g id="ytick_4">
     <g id="line2d_10">
      <g>
       <use xlink:href="#mf8215f13dd" x="72" y="238.882664" style="stroke: #000000; stroke-width: 0.8"/>
      </g>
     </g>
     <g id="text_11">
      <!-- 0.8 -->
      <g transform="translate(49.096875 242.681883) scale(0.1 -0.1)">
       <defs>
        <path id="DejaVuSans-38" d="M 2034 2216 
Q 1584 2216 1326 1975 
Q 1069 1734 1069 1313 
Q 1069 891 1326 650 
Q 1584 409 2034 409 
Q 2484 409 2743 651 
Q 3003 894 3003 1313 
Q 3003 1734 2745 1975 
Q 2488 2216 2034 2216 
z
M 1403 2484 
Q 997 2584 770 2862 
Q 544 3141 544 3541 
Q 544 4100 942 4425 
Q 1341 4750 2034 4750 
Q 2731 4750 3128 4425 
Q 3525 4100 3525 3541 
Q 3525 3141 3298 2862 
Q 3072 2584 2669 2484 
Q 3125 2378 3379 2068 
Q 3634 1759 3634 1313 
Q 3634 634 3220 271 
Q 2806 -91 2034 -91 
Q 1263 -91 848 271 
Q 434 634 434 1313 
Q 434 1759 690 2068 
Q 947 2378 1403 2484 
z
M 1172 3481 
Q 1172 3119 1398 2916 
Q 1625 2713 2034 2713 
Q 2441 2713 2670 2916 
Q 2900 3119 2900 3481 
Q 2900 3844 2670 4047 
Q 2441 4250 2034 4250 
Q 1625 4250 1398 4047 
Q 1172 3844 1172 3481 
z
" transform="scale(0.015625)"/>
       </defs>
       <use xlink:href="#DejaVuSans-30"/>
       <use xlink:href="#DejaVuSans-2e" x="63.623047"/>
       <use xlink:href="#DejaVuSans-38" x="95.410156"/>
      </g>
     </g>
    </g>
    <g id="ytick_5">
     <g id="line2d_11">
      <g>
       <use xlink:href="#mf8215f13dd" x="72" y="151.029735" style="stroke: #000000; stroke-width: 0.8"/>
      </g>
     </g>
     <g id="text_12">
      <!-- 1.0 -->
      <g transform="translate(49.096875 154.828953) scale(0.1 -0.1)">
       <use xlink:href="#DejaVuSans-31"/>
       <use xlink:href="#DejaVuSans-2e" x="63.623047"/>
       <use xlink:href="#DejaVuSans-30" x="95.410156"/>
      </g>
     </g>
    </g>
   </g>
   <g id="line2d_12">
    <path d="M 92.290909 324.077591 
L 93.920701 246.967464 
L 95.550493 230.493302 
L 97.180285 220.110431 
L 98.810077 217.75699 
L 100.439869 213.603837 
L 102.06966 207.235668 
L 103.699452 206.266612 
L 105.329244 203.220966 
L 106.959036 198.790935 
L 108.588828 198.929387 
L 110.21862 196.299043 
L 111.848412 192.97652 
L 113.478204 190.346203 
L 115.107996 194.499356 
L 116.737788 192.561218 
L 118.367579 188.269639 
L 119.997371 188.823393 
L 121.627163 192.14589 
L 123.256955 188.684941 
L 124.886747 183.285855 
L 126.516539 182.316773 
L 128.146331 183.978034 
L 129.776123 191.730587 
L 131.405915 183.562732 
L 134.665498 188.408064 
L 136.29529 186.608378 
L 137.925082 182.593649 
L 139.554874 177.47144 
L 141.184666 182.039896 
L 142.814458 180.37866 
L 144.44425 178.994276 
L 146.074042 179.824907 
L 147.703834 174.841122 
L 149.333625 174.841122 
L 150.963417 177.886768 
L 152.593209 178.994276 
L 154.223001 178.302071 
L 155.852793 175.533301 
L 157.482585 173.733615 
L 159.112377 176.363932 
L 160.742169 174.287368 
L 162.371961 177.748317 
L 164.001752 181.486168 
L 165.631544 173.179861 
L 167.261336 176.225507 
L 168.891128 176.087055 
L 170.52092 174.425794 
L 172.150712 172.487655 
L 173.780504 183.285855 
L 175.410296 172.487655 
L 177.040088 174.702671 
L 178.66988 171.933902 
L 180.299671 170.549543 
L 181.929463 172.34923 
L 183.559255 172.487655 
L 185.189047 168.057651 
L 186.818839 172.34923 
L 188.448631 169.99579 
L 190.078423 170.964846 
L 191.708215 172.626107 
L 193.338007 172.072353 
L 194.967798 173.87204 
L 196.59759 170.964846 
L 198.227382 171.103297 
L 199.857174 169.442036 
L 201.486966 172.902984 
L 203.116758 169.442036 
L 204.74655 169.165159 
L 208.006134 173.733615 
L 209.635926 168.888282 
L 211.265717 173.318286 
L 212.895509 170.82642 
L 214.525301 168.611405 
L 216.155093 169.303584 
L 217.784885 169.026707 
L 219.414677 171.795476 
L 221.044469 171.795476 
L 222.674261 168.888282 
L 224.304053 169.442036 
L 225.933844 166.950144 
L 227.563636 170.134215 
L 229.193428 172.902984 
L 230.82322 165.842636 
L 232.453012 167.780774 
L 234.082804 178.994276 
L 235.712596 173.733615 
L 237.342388 172.210779 
L 238.97218 167.642323 
L 240.601972 168.057651 
L 242.231763 164.596677 
L 243.861555 168.472953 
L 245.491347 164.735128 
L 247.121139 166.950144 
L 248.750931 168.888282 
L 250.380723 166.534815 
L 252.010515 165.427308 
L 253.640307 166.39639 
L 255.270099 169.99579 
L 256.89989 169.580461 
L 258.529682 166.673267 
L 260.159474 169.718913 
L 261.789266 164.873554 
L 263.419058 165.842636 
L 265.04885 167.088569 
L 266.678642 167.780774 
L 268.308434 164.873554 
L 269.938226 168.196077 
L 271.568018 166.39639 
L 273.197809 168.888282 
L 274.827601 165.704184 
L 276.457393 168.611405 
L 278.087185 168.611405 
L 279.716977 162.935415 
L 281.346769 165.704184 
L 282.976561 162.935415 
L 284.606353 166.39639 
L 286.236145 164.458251 
L 287.865936 162.935415 
L 289.495728 165.150431 
L 291.12552 168.472953 
L 292.755312 164.596677 
L 294.385104 166.534815 
L 296.014896 165.288882 
L 297.644688 161.689482 
L 299.27448 164.873554 
L 300.904272 163.904498 
L 302.534064 164.042923 
L 304.163855 162.658538 
L 305.793647 166.811692 
L 307.423439 164.042923 
L 309.053231 166.811692 
L 310.683023 166.119513 
L 312.312815 166.534815 
L 313.942607 165.565759 
L 315.572399 167.22702 
L 317.202191 164.735128 
L 318.831982 163.489169 
L 320.461774 164.458251 
L 322.091566 161.966359 
L 323.721358 160.858852 
L 325.35115 163.627621 
L 326.980942 165.012005 
L 328.610734 163.073867 
L 330.240526 162.79699 
L 331.870318 162.243236 
L 333.50011 165.981061 
L 335.129901 163.350744 
L 336.759693 163.489169 
L 338.389485 160.305098 
L 340.019277 161.274154 
L 341.649069 160.997303 
L 343.278861 159.751344 
L 344.908653 160.305098 
L 346.538445 162.79699 
L 348.168237 161.274154 
L 349.798028 163.212292 
L 351.42782 161.135729 
L 353.057612 162.79699 
L 354.687404 165.565759 
L 356.317196 161.274154 
L 357.946988 162.243236 
L 361.206572 162.520113 
L 362.836364 161.827908 
L 364.466156 164.042923 
L 366.095947 160.997303 
L 367.725739 164.042923 
L 369.355531 163.212292 
L 370.985323 163.350744 
L 372.615115 161.551031 
L 374.244907 160.720426 
L 375.874699 161.135729 
L 377.504491 160.305098 
L 379.134283 163.489169 
L 380.764074 162.520113 
L 382.393866 163.489169 
L 384.023658 161.274154 
L 385.65345 166.534815 
L 387.283242 160.720426 
L 388.913034 160.997303 
L 390.542826 161.412605 
L 392.172618 160.166672 
L 393.80241 164.873554 
L 395.432202 165.288882 
L 397.061993 162.520113 
L 398.691785 161.274154 
L 400.321577 161.274154 
L 401.951369 161.135729 
L 403.581161 160.305098 
L 405.210953 160.581975 
L 406.840745 164.458251 
L 408.470537 164.3198 
L 410.100329 160.305098 
L 411.73012 159.336042 
L 413.359912 165.842636 
L 414.989704 161.551031 
L 416.619496 161.412605 
L 418.249288 162.243236 
L 419.87908 160.166672 
L 421.508872 161.551031 
L 423.138664 159.889796 
L 424.768456 164.042923 
L 426.398248 160.858852 
L 428.028039 160.305098 
L 429.657831 162.935415 
L 431.287623 159.474467 
L 432.917415 160.720426 
L 434.547207 162.658538 
L 436.176999 160.720426 
L 437.806791 162.104785 
L 439.436583 159.751344 
L 441.066375 160.720426 
L 442.696166 163.212292 
L 444.325958 164.181375 
L 445.95575 163.766046 
L 447.585542 160.166672 
L 449.215334 162.79699 
L 450.845126 160.858852 
L 452.474918 158.505411 
L 454.10471 163.073867 
L 455.734502 158.643836 
L 457.364294 159.889796 
L 458.994085 159.059165 
L 460.623877 159.059165 
L 462.253669 157.813206 
L 465.513253 160.720426 
L 467.143045 158.920713 
L 468.772837 158.643836 
L 470.402629 164.596677 
L 472.032421 161.551031 
L 473.662212 165.012005 
L 475.292004 161.827908 
L 476.921796 160.581975 
L 478.551588 165.981061 
L 480.18138 159.474467 
L 481.811172 159.751344 
L 483.440964 159.612919 
L 486.700548 160.166672 
L 488.33034 161.135729 
L 489.960131 160.166672 
L 491.589923 157.951657 
L 493.219715 160.028221 
L 494.849507 157.951657 
L 496.479299 156.567273 
L 498.109091 159.19759 
L 498.109091 159.19759 
" clip-path="url(#p90bb4eb508)" style="fill: none; stroke: #1f77b4; stroke-width: 1.5; stroke-linecap: square"/>
   </g>
   <g id="line2d_13">
    <path d="M 92.290909 523.112727 
L 93.920701 454.208466 
L 95.550493 325.012977 
L 97.180285 266.444361 
L 98.810077 257.831329 
L 100.439869 237.160052 
L 102.06966 238.882659 
L 103.699452 237.160052 
L 105.329244 247.495691 
L 106.959036 206.153138 
L 108.588828 223.379202 
L 110.21862 202.707925 
L 111.848412 204.430532 
L 113.478204 202.707925 
L 115.107996 202.707925 
L 116.737788 206.153138 
L 118.367579 200.985319 
L 119.997371 194.094894 
L 121.627163 218.211383 
L 123.256955 197.540106 
L 124.886747 190.649681 
L 126.516539 197.540106 
L 128.146331 200.985319 
L 129.776123 200.985319 
L 131.405915 192.372287 
L 133.035706 202.707925 
L 134.665498 188.927074 
L 136.29529 194.094894 
L 137.925082 207.875744 
L 139.554874 197.540106 
L 141.184666 188.927074 
L 142.814458 194.094894 
L 144.44425 200.985319 
L 146.074042 197.540106 
L 147.703834 197.540106 
L 149.333625 204.430532 
L 150.963417 199.262713 
L 152.593209 197.540106 
L 154.223001 188.927074 
L 159.112377 209.598351 
L 160.742169 192.372287 
L 162.371961 195.8175 
L 164.001752 195.8175 
L 165.631544 206.153138 
L 167.261336 197.540106 
L 168.891128 192.372287 
L 170.52092 200.985319 
L 172.150712 188.927074 
L 173.780504 202.707925 
L 175.410296 192.372287 
L 177.040088 187.204468 
L 180.299671 183.759255 
L 181.929463 197.540106 
L 183.559255 185.481862 
L 185.189047 195.8175 
L 186.818839 200.985319 
L 188.448631 202.707925 
L 190.078423 187.204468 
L 191.708215 192.372287 
L 193.338007 195.8175 
L 194.967798 197.540106 
L 196.59759 187.204468 
L 198.227382 192.372287 
L 199.857174 192.372287 
L 201.486966 195.8175 
L 203.116758 188.927074 
L 204.74655 194.094894 
L 206.376342 187.204468 
L 211.265717 197.540106 
L 212.895509 188.927074 
L 214.525301 192.372287 
L 216.155093 192.372287 
L 217.784885 187.204468 
L 219.414677 192.372287 
L 221.044469 190.649681 
L 222.674261 192.372287 
L 224.304053 183.759255 
L 225.933844 187.204468 
L 227.563636 183.759255 
L 229.193428 204.430532 
L 230.82322 194.094894 
L 232.453012 190.649681 
L 234.082804 190.649681 
L 235.712596 185.481862 
L 237.342388 182.036649 
L 238.97218 194.094894 
L 240.601972 185.481862 
L 242.231763 195.8175 
L 243.861555 183.759255 
L 245.491347 185.481862 
L 247.121139 197.540106 
L 248.750931 187.204468 
L 250.380723 195.8175 
L 252.010515 188.927074 
L 253.640307 194.094894 
L 255.270099 188.927074 
L 256.89989 188.927074 
L 258.529682 195.8175 
L 260.159474 192.372287 
L 261.789266 190.649681 
L 263.419058 199.262713 
L 265.04885 192.372287 
L 266.678642 182.036649 
L 268.308434 190.649681 
L 269.938226 194.094894 
L 271.568018 185.481862 
L 273.197809 187.204468 
L 274.827601 190.649681 
L 276.457393 183.759255 
L 278.087185 187.204468 
L 279.716977 192.372287 
L 281.346769 187.204468 
L 282.976561 197.540106 
L 284.606353 197.540106 
L 286.236145 187.204468 
L 287.865936 192.372287 
L 289.495728 192.372287 
L 291.12552 187.204468 
L 292.755312 180.314043 
L 294.385104 187.204468 
L 296.014896 183.759255 
L 297.644688 183.759255 
L 299.27448 188.927074 
L 300.904272 202.707925 
L 302.534064 187.204468 
L 304.163855 188.927074 
L 305.793647 195.8175 
L 307.423439 182.036649 
L 309.053231 194.094894 
L 310.683023 187.204468 
L 312.312815 183.759255 
L 313.942607 187.204468 
L 315.572399 188.927074 
L 317.202191 197.540106 
L 318.831982 192.372287 
L 320.461774 180.314043 
L 322.091566 188.927074 
L 323.721358 192.372287 
L 325.35115 185.481862 
L 326.980942 188.927074 
L 328.610734 199.262713 
L 330.240526 192.372287 
L 331.870318 188.927074 
L 333.50011 183.759255 
L 335.129901 188.927074 
L 336.759693 187.204468 
L 338.389485 192.372287 
L 340.019277 178.591436 
L 341.649069 178.591436 
L 344.908653 188.927074 
L 346.538445 187.204468 
L 348.168237 182.036649 
L 349.798028 188.927074 
L 351.42782 182.036649 
L 353.057612 192.372287 
L 354.687404 183.759255 
L 356.317196 187.204468 
L 357.946988 187.204468 
L 359.57678 188.927074 
L 361.206572 188.927074 
L 364.466156 182.036649 
L 366.095947 190.649681 
L 367.725739 194.094894 
L 369.355531 190.649681 
L 370.985323 190.649681 
L 372.615115 183.759255 
L 374.244907 185.481862 
L 375.874699 190.649681 
L 377.504491 188.927074 
L 379.134283 178.591436 
L 380.764074 188.927074 
L 384.023658 199.262713 
L 385.65345 187.204468 
L 387.283242 185.481862 
L 388.913034 185.481862 
L 390.542826 180.314043 
L 392.172618 188.927074 
L 393.80241 182.036649 
L 395.432202 180.314043 
L 397.061993 183.759255 
L 398.691785 182.036649 
L 400.321577 183.759255 
L 401.951369 182.036649 
L 403.581161 190.649681 
L 405.210953 180.314043 
L 406.840745 176.86883 
L 408.470537 188.927074 
L 410.100329 185.481862 
L 411.73012 185.481862 
L 413.359912 187.204468 
L 414.989704 187.204468 
L 416.619496 183.759255 
L 419.87908 187.204468 
L 421.508872 187.204468 
L 423.138664 190.649681 
L 426.398248 183.759255 
L 428.028039 183.759255 
L 429.657831 194.094894 
L 431.287623 182.036649 
L 432.917415 192.372287 
L 434.547207 190.649681 
L 436.176999 199.262713 
L 437.806791 188.927074 
L 439.436583 185.481862 
L 441.066375 190.649681 
L 442.696166 192.372287 
L 444.325958 192.372287 
L 447.585542 185.481862 
L 449.215334 190.649681 
L 450.845126 194.094894 
L 452.474918 190.649681 
L 454.10471 188.927074 
L 455.734502 190.649681 
L 457.364294 194.094894 
L 458.994085 188.927074 
L 460.623877 182.036649 
L 462.253669 195.8175 
L 463.883461 187.204468 
L 467.143045 190.649681 
L 468.772837 185.481862 
L 470.402629 187.204468 
L 472.032421 192.372287 
L 473.662212 192.372287 
L 475.292004 187.204468 
L 476.921796 192.372287 
L 478.551588 190.649681 
L 480.18138 185.481862 
L 481.811172 190.649681 
L 483.440964 187.204468 
L 485.070756 190.649681 
L 486.700548 187.204468 
L 488.33034 187.204468 
L 489.960131 182.036649 
L 491.589923 183.759255 
L 493.219715 188.927074 
L 494.849507 188.927074 
L 496.479299 183.759255 
L 498.109091 183.759255 
L 498.109091 183.759255 
" clip-path="url(#p90bb4eb508)" style="fill: none; stroke: #ff7f0e; stroke-width: 1.5; stroke-linecap: square"/>
   </g>
   <g id="patch_3">
    <path d="M 72 541.44 
L 72 138.24 
" style="fill: none; stroke: #000000; stroke-width: 0.8; stroke-linejoin: miter; stroke-linecap: square"/>
   </g>
   <g id="patch_4">
    <path d="M 518.4 541.44 
L 518.4 138.24 
" style="fill: none; stroke: #000000; stroke-width: 0.8; stroke-linejoin: miter; stroke-linecap: square"/>
   </g>
   <g id="patch_5">
    <path d="M 72 541.44 
L 518.4 541.44 
" style="fill: none; stroke: #000000; stroke-width: 0.8; stroke-linejoin: miter; stroke-linecap: square"/>
   </g>
   <g id="patch_6">
    <path d="M 72 138.24 
L 518.4 138.24 
" style="fill: none; stroke: #000000; stroke-width: 0.8; stroke-linejoin: miter; stroke-linecap: square"/>
   </g>
   <g id="legend_1">
    <g id="patch_7">
     <path d="M 79 175.874375 
L 175.94375 175.874375 
Q 177.94375 175.874375 177.94375 173.874375 
L 177.94375 145.24 
Q 177.94375 143.24 175.94375 143.24 
L 79 143.24 
Q 77 143.24 77 145.24 
L 77 173.874375 
Q 77 175.874375 79 175.874375 
z
" style="fill: #ffffff; opacity: 0.8; stroke: #cccccc; stroke-linejoin: miter"/>
    </g>
    <g id="line2d_14">
     <path d="M 81 151.338437 
L 91 151.338437 
L 101 151.338437 
" style="fill: none; stroke: #1f77b4; stroke-width: 1.5; stroke-linecap: square"/>
    </g>
    <g id="text_13">
     <!-- accuracy -->
     <g transform="translate(109 154.838437) scale(0.1 -0.1)">
      <defs>
       <path id="DejaVuSans-61" d="M 2194 1759 
Q 1497 1759 1228 1600 
Q 959 1441 959 1056 
Q 959 750 1161 570 
Q 1363 391 1709 391 
Q 2188 391 2477 730 
Q 2766 1069 2766 1631 
L 2766 1759 
L 2194 1759 
z
M 3341 1997 
L 3341 0 
L 2766 0 
L 2766 531 
Q 2569 213 2275 61 
Q 1981 -91 1556 -91 
Q 1019 -91 701 211 
Q 384 513 384 1019 
Q 384 1609 779 1909 
Q 1175 2209 1959 2209 
L 2766 2209 
L 2766 2266 
Q 2766 2663 2505 2880 
Q 2244 3097 1772 3097 
Q 1472 3097 1187 3025 
Q 903 2953 641 2809 
L 641 3341 
Q 956 3463 1253 3523 
Q 1550 3584 1831 3584 
Q 2591 3584 2966 3190 
Q 3341 2797 3341 1997 
z
" transform="scale(0.015625)"/>
       <path id="DejaVuSans-75" d="M 544 1381 
L 544 3500 
L 1119 3500 
L 1119 1403 
Q 1119 906 1312 657 
Q 1506 409 1894 409 
Q 2359 409 2629 706 
Q 2900 1003 2900 1516 
L 2900 3500 
L 3475 3500 
L 3475 0 
L 2900 0 
L 2900 538 
Q 2691 219 2414 64 
Q 2138 -91 1772 -91 
Q 1169 -91 856 284 
Q 544 659 544 1381 
z
M 1991 3584 
L 1991 3584 
z
" transform="scale(0.015625)"/>
       <path id="DejaVuSans-72" d="M 2631 2963 
Q 2534 3019 2420 3045 
Q 2306 3072 2169 3072 
Q 1681 3072 1420 2755 
Q 1159 2438 1159 1844 
L 1159 0 
L 581 0 
L 581 3500 
L 1159 3500 
L 1159 2956 
Q 1341 3275 1631 3429 
Q 1922 3584 2338 3584 
Q 2397 3584 2469 3576 
Q 2541 3569 2628 3553 
L 2631 2963 
z
" transform="scale(0.015625)"/>
       <path id="DejaVuSans-79" d="M 2059 -325 
Q 1816 -950 1584 -1140 
Q 1353 -1331 966 -1331 
L 506 -1331 
L 506 -850 
L 844 -850 
Q 1081 -850 1212 -737 
Q 1344 -625 1503 -206 
L 1606 56 
L 191 3500 
L 800 3500 
L 1894 763 
L 2988 3500 
L 3597 3500 
L 2059 -325 
z
" transform="scale(0.015625)"/>
      </defs>
      <use xlink:href="#DejaVuSans-61"/>
      <use xlink:href="#DejaVuSans-63" x="61.279297"/>
      <use xlink:href="#DejaVuSans-63" x="116.259766"/>
      <use xlink:href="#DejaVuSans-75" x="171.240234"/>
      <use xlink:href="#DejaVuSans-72" x="234.619141"/>
      <use xlink:href="#DejaVuSans-61" x="275.732422"/>
      <use xlink:href="#DejaVuSans-63" x="337.011719"/>
      <use xlink:href="#DejaVuSans-79" x="391.992188"/>
     </g>
    </g>
    <g id="line2d_15">
     <path d="M 81 166.016562 
L 91 166.016562 
L 101 166.016562 
" style="fill: none; stroke: #ff7f0e; stroke-width: 1.5; stroke-linecap: square"/>
    </g>
    <g id="text_14">
     <!-- val_accuracy -->
     <g transform="translate(109 169.516562) scale(0.1 -0.1)">
      <defs>
       <path id="DejaVuSans-76" d="M 191 3500 
L 800 3500 
L 1894 563 
L 2988 3500 
L 3597 3500 
L 2284 0 
L 1503 0 
L 191 3500 
z
" transform="scale(0.015625)"/>
       <path id="DejaVuSans-6c" d="M 603 4863 
L 1178 4863 
L 1178 0 
L 603 0 
L 603 4863 
z
" transform="scale(0.015625)"/>
       <path id="DejaVuSans-5f" d="M 3263 -1063 
L 3263 -1509 
L -63 -1509 
L -63 -1063 
L 3263 -1063 
z
" transform="scale(0.015625)"/>
      </defs>
      <use xlink:href="#DejaVuSans-76"/>
      <use xlink:href="#DejaVuSans-61" x="59.179688"/>
      <use xlink:href="#DejaVuSans-6c" x="120.458984"/>
      <use xlink:href="#DejaVuSans-5f" x="148.242188"/>
      <use xlink:href="#DejaVuSans-61" x="198.242188"/>
      <use xlink:href="#DejaVuSans-63" x="259.521484"/>
      <use xlink:href="#DejaVuSans-63" x="314.501953"/>
      <use xlink:href="#DejaVuSans-75" x="369.482422"/>
      <use xlink:href="#DejaVuSans-72" x="432.861328"/>
      <use xlink:href="#DejaVuSans-61" x="473.974609"/>
      <use xlink:href="#DejaVuSans-63" x="535.253906"/>
      <use xlink:href="#DejaVuSans-79" x="590.234375"/>
     </g>
    </g>
   </g>
  </g>
  <g id="axes_2">
   <g id="patch_8">
    <path d="M 72 1025.28 
L 518.4 1025.28 
L 518.4 622.08 
L 72 622.08 
z
" style="fill: #ffffff"/>
   </g>
   <g id="matplotlib.axis_3">
    <g id="xtick_7">
     <g id="line2d_16">
      <g>
       <use xlink:href="#m845c9ac8ad" x="92.290909" y="1025.28" style="stroke: #000000; stroke-width: 0.8"/>
      </g>
     </g>
     <g id="text_15">
      <!-- 0 -->
      <g transform="translate(89.109659 1039.878438) scale(0.1 -0.1)">
       <use xlink:href="#DejaVuSans-30"/>
      </g>
     </g>
    </g>
    <g id="xtick_8">
     <g id="line2d_17">
      <g>
       <use xlink:href="#m845c9ac8ad" x="173.780504" y="1025.28" style="stroke: #000000; stroke-width: 0.8"/>
      </g>
     </g>
     <g id="text_16">
      <!-- 50 -->
      <g transform="translate(167.418004 1039.878438) scale(0.1 -0.1)">
       <use xlink:href="#DejaVuSans-35"/>
       <use xlink:href="#DejaVuSans-30" x="63.623047"/>
      </g>
     </g>
    </g>
    <g id="xtick_9">
     <g id="line2d_18">
      <g>
       <use xlink:href="#m845c9ac8ad" x="255.270099" y="1025.28" style="stroke: #000000; stroke-width: 0.8"/>
      </g>
     </g>
     <g id="text_17">
      <!-- 100 -->
      <g transform="translate(245.726349 1039.878438) scale(0.1 -0.1)">
       <use xlink:href="#DejaVuSans-31"/>
       <use xlink:href="#DejaVuSans-30" x="63.623047"/>
       <use xlink:href="#DejaVuSans-30" x="127.246094"/>
      </g>
     </g>
    </g>
    <g id="xtick_10">
     <g id="line2d_19">
      <g>
       <use xlink:href="#m845c9ac8ad" x="336.759693" y="1025.28" style="stroke: #000000; stroke-width: 0.8"/>
      </g>
     </g>
     <g id="text_18">
      <!-- 150 -->
      <g transform="translate(327.215943 1039.878438) scale(0.1 -0.1)">
       <use xlink:href="#DejaVuSans-31"/>
       <use xlink:href="#DejaVuSans-35" x="63.623047"/>
       <use xlink:href="#DejaVuSans-30" x="127.246094"/>
      </g>
     </g>
    </g>
    <g id="xtick_11">
     <g id="line2d_20">
      <g>
       <use xlink:href="#m845c9ac8ad" x="418.249288" y="1025.28" style="stroke: #000000; stroke-width: 0.8"/>
      </g>
     </g>
     <g id="text_19">
      <!-- 200 -->
      <g transform="translate(408.705538 1039.878438) scale(0.1 -0.1)">
       <use xlink:href="#DejaVuSans-32"/>
       <use xlink:href="#DejaVuSans-30" x="63.623047"/>
       <use xlink:href="#DejaVuSans-30" x="127.246094"/>
      </g>
     </g>
    </g>
    <g id="xtick_12">
     <g id="line2d_21">
      <g>
       <use xlink:href="#m845c9ac8ad" x="499.738883" y="1025.28" style="stroke: #000000; stroke-width: 0.8"/>
      </g>
     </g>
     <g id="text_20">
      <!-- 250 -->
      <g transform="translate(490.195133 1039.878438) scale(0.1 -0.1)">
       <use xlink:href="#DejaVuSans-32"/>
       <use xlink:href="#DejaVuSans-35" x="63.623047"/>
       <use xlink:href="#DejaVuSans-30" x="127.246094"/>
      </g>
     </g>
    </g>
    <g id="text_21">
     <!-- Epoch -->
     <g transform="translate(279.889062 1053.556562) scale(0.1 -0.1)">
      <use xlink:href="#DejaVuSans-45"/>
      <use xlink:href="#DejaVuSans-70" x="63.183594"/>
      <use xlink:href="#DejaVuSans-6f" x="126.660156"/>
      <use xlink:href="#DejaVuSans-63" x="187.841797"/>
      <use xlink:href="#DejaVuSans-68" x="242.822266"/>
     </g>
    </g>
   </g>
   <g id="matplotlib.axis_4">
    <g id="ytick_6">
     <g id="line2d_22">
      <g>
       <use xlink:href="#mf8215f13dd" x="72" y="1016.175849" style="stroke: #000000; stroke-width: 0.8"/>
      </g>
     </g>
     <g id="text_22">
      <!-- 0.00 -->
      <g transform="translate(42.734375 1019.975068) scale(0.1 -0.1)">
       <use xlink:href="#DejaVuSans-30"/>
       <use xlink:href="#DejaVuSans-2e" x="63.623047"/>
       <use xlink:href="#DejaVuSans-30" x="95.410156"/>
       <use xlink:href="#DejaVuSans-30" x="159.033203"/>
      </g>
     </g>
    </g>
    <g id="ytick_7">
     <g id="line2d_23">
      <g>
       <use xlink:href="#mf8215f13dd" x="72" y="961.274423" style="stroke: #000000; stroke-width: 0.8"/>
      </g>
     </g>
     <g id="text_23">
      <!-- 0.25 -->
      <g transform="translate(42.734375 965.073642) scale(0.1 -0.1)">
       <use xlink:href="#DejaVuSans-30"/>
       <use xlink:href="#DejaVuSans-2e" x="63.623047"/>
       <use xlink:href="#DejaVuSans-32" x="95.410156"/>
       <use xlink:href="#DejaVuSans-35" x="159.033203"/>
      </g>
     </g>
    </g>
    <g id="ytick_8">
     <g id="line2d_24">
      <g>
       <use xlink:href="#mf8215f13dd" x="72" y="906.372996" style="stroke: #000000; stroke-width: 0.8"/>
      </g>
     </g>
     <g id="text_24">
      <!-- 0.50 -->
      <g transform="translate(42.734375 910.172215) scale(0.1 -0.1)">
       <use xlink:href="#DejaVuSans-30"/>
       <use xlink:href="#DejaVuSans-2e" x="63.623047"/>
       <use xlink:href="#DejaVuSans-35" x="95.410156"/>
       <use xlink:href="#DejaVuSans-30" x="159.033203"/>
      </g>
     </g>
    </g>
    <g id="ytick_9">
     <g id="line2d_25">
      <g>
       <use xlink:href="#mf8215f13dd" x="72" y="851.47157" style="stroke: #000000; stroke-width: 0.8"/>
      </g>
     </g>
     <g id="text_25">
      <!-- 0.75 -->
      <g transform="translate(42.734375 855.270788) scale(0.1 -0.1)">
       <defs>
        <path id="DejaVuSans-37" d="M 525 4666 
L 3525 4666 
L 3525 4397 
L 1831 0 
L 1172 0 
L 2766 4134 
L 525 4134 
L 525 4666 
z
" transform="scale(0.015625)"/>
       </defs>
       <use xlink:href="#DejaVuSans-30"/>
       <use xlink:href="#DejaVuSans-2e" x="63.623047"/>
       <use xlink:href="#DejaVuSans-37" x="95.410156"/>
       <use xlink:href="#DejaVuSans-35" x="159.033203"/>
      </g>
     </g>
    </g>
    <g id="ytick_10">
     <g id="line2d_26">
      <g>
       <use xlink:href="#mf8215f13dd" x="72" y="796.570143" style="stroke: #000000; stroke-width: 0.8"/>
      </g>
     </g>
     <g id="text_26">
      <!-- 1.00 -->
      <g transform="translate(42.734375 800.369362) scale(0.1 -0.1)">
       <use xlink:href="#DejaVuSans-31"/>
       <use xlink:href="#DejaVuSans-2e" x="63.623047"/>
       <use xlink:href="#DejaVuSans-30" x="95.410156"/>
       <use xlink:href="#DejaVuSans-30" x="159.033203"/>
      </g>
     </g>
    </g>
    <g id="ytick_11">
     <g id="line2d_27">
      <g>
       <use xlink:href="#mf8215f13dd" x="72" y="741.668717" style="stroke: #000000; stroke-width: 0.8"/>
      </g>
     </g>
     <g id="text_27">
      <!-- 1.25 -->
      <g transform="translate(42.734375 745.467935) scale(0.1 -0.1)">
       <use xlink:href="#DejaVuSans-31"/>
       <use xlink:href="#DejaVuSans-2e" x="63.623047"/>
       <use xlink:href="#DejaVuSans-32" x="95.410156"/>
       <use xlink:href="#DejaVuSans-35" x="159.033203"/>
      </g>
     </g>
    </g>
    <g id="ytick_12">
     <g id="line2d_28">
      <g>
       <use xlink:href="#mf8215f13dd" x="72" y="686.76729" style="stroke: #000000; stroke-width: 0.8"/>
      </g>
     </g>
     <g id="text_28">
      <!-- 1.50 -->
      <g transform="translate(42.734375 690.566509) scale(0.1 -0.1)">
       <use xlink:href="#DejaVuSans-31"/>
       <use xlink:href="#DejaVuSans-2e" x="63.623047"/>
       <use xlink:href="#DejaVuSans-35" x="95.410156"/>
       <use xlink:href="#DejaVuSans-30" x="159.033203"/>
      </g>
     </g>
    </g>
    <g id="ytick_13">
     <g id="line2d_29">
      <g>
       <use xlink:href="#mf8215f13dd" x="72" y="631.865863" style="stroke: #000000; stroke-width: 0.8"/>
      </g>
     </g>
     <g id="text_29">
      <!-- 1.75 -->
      <g transform="translate(42.734375 635.665082) scale(0.1 -0.1)">
       <use xlink:href="#DejaVuSans-31"/>
       <use xlink:href="#DejaVuSans-2e" x="63.623047"/>
       <use xlink:href="#DejaVuSans-37" x="95.410156"/>
       <use xlink:href="#DejaVuSans-35" x="159.033203"/>
      </g>
     </g>
    </g>
   </g>
   <g id="line2d_30">
    <path d="M 92.290909 798.626611 
L 93.920701 886.266656 
L 95.550493 912.372676 
L 97.180285 922.18261 
L 98.810077 930.959225 
L 100.439869 933.588668 
L 102.06966 940.134154 
L 103.699452 940.774448 
L 105.329244 947.867717 
L 106.959036 951.62835 
L 108.588828 953.951203 
L 110.21862 955.459783 
L 111.848412 957.407163 
L 113.478204 961.246968 
L 115.107996 959.446943 
L 116.737788 960.053616 
L 118.367579 966.976689 
L 119.997371 966.571199 
L 121.627163 963.723145 
L 123.256955 966.150335 
L 124.886747 971.578572 
L 126.516539 973.944466 
L 128.146331 974.240375 
L 129.776123 960.529433 
L 131.405915 975.073437 
L 133.035706 972.221768 
L 134.665498 970.877736 
L 136.29529 971.368 
L 137.925082 974.556195 
L 139.554874 978.398905 
L 141.184666 974.623341 
L 142.814458 976.514908 
L 144.44425 977.802759 
L 146.074042 974.86265 
L 147.703834 983.341852 
L 149.333625 983.334371 
L 150.963417 977.423464 
L 152.593209 981.697687 
L 154.223001 981.01854 
L 155.852793 982.806261 
L 157.482585 985.02502 
L 159.112377 982.690658 
L 160.742169 981.735512 
L 162.371961 981.774251 
L 164.001752 977.877704 
L 165.631544 984.9461 
L 167.261336 983.448554 
L 168.891128 981.046565 
L 170.52092 983.056742 
L 172.150712 986.572826 
L 173.780504 971.716332 
L 175.410296 987.761754 
L 177.040088 986.275521 
L 178.66988 987.617491 
L 180.299671 988.626713 
L 181.929463 988.594189 
L 183.559255 986.688574 
L 185.189047 991.838207 
L 186.818839 987.999564 
L 188.448631 990.327362 
L 190.078423 988.643634 
L 191.708215 988.952396 
L 193.338007 988.651616 
L 194.967798 985.25623 
L 196.59759 989.413856 
L 198.227382 988.186538 
L 199.857174 989.755831 
L 201.486966 987.763665 
L 203.116758 991.570603 
L 206.376342 989.555555 
L 208.006134 986.488837 
L 209.635926 989.936426 
L 211.265717 985.261083 
L 212.895509 990.150874 
L 214.525301 992.068087 
L 216.155093 990.687422 
L 217.784885 991.430563 
L 219.414677 987.535187 
L 221.044469 987.883938 
L 222.674261 992.922706 
L 224.304053 992.897571 
L 225.933844 993.855605 
L 227.563636 991.475305 
L 229.193428 987.224344 
L 230.82322 995.783568 
L 232.453012 993.269597 
L 234.082804 976.997842 
L 235.712596 986.221101 
L 237.342388 984.352353 
L 238.97218 991.450958 
L 240.601972 993.961257 
L 242.231763 998.22917 
L 243.861555 993.111568 
L 245.491347 995.805408 
L 247.121139 994.488488 
L 248.750931 993.841504 
L 250.380723 996.565772 
L 252.010515 997.112696 
L 253.640307 996.251092 
L 255.270099 992.953105 
L 256.89989 990.598345 
L 258.529682 995.29056 
L 260.159474 993.737396 
L 261.789266 996.818755 
L 263.419058 995.93978 
L 265.04885 996.875259 
L 266.678642 994.444923 
L 268.308434 996.91019 
L 269.938226 995.142987 
L 271.568018 996.04929 
L 273.197809 994.221071 
L 274.827601 995.916381 
L 276.457393 991.840903 
L 278.087185 991.197562 
L 279.716977 998.718481 
L 281.346769 996.467178 
L 282.976561 997.942081 
L 284.606353 994.931185 
L 286.236145 997.15671 
L 287.865936 997.96048 
L 289.495728 993.387129 
L 291.12552 990.456673 
L 292.755312 997.422551 
L 294.385104 996.50582 
L 296.014896 996.002378 
L 297.644688 1001.633208 
L 299.27448 998.224284 
L 300.904272 999.046134 
L 302.534064 999.289328 
L 304.163855 998.47702 
L 305.793647 995.773329 
L 307.423439 997.2459 
L 309.053231 994.030235 
L 310.683023 997.188399 
L 312.312815 994.771236 
L 313.942607 996.104391 
L 315.572399 993.030253 
L 317.202191 998.500818 
L 318.831982 999.364779 
L 320.461774 998.990185 
L 322.091566 1000.781443 
L 323.721358 1001.856642 
L 325.35115 1001.283608 
L 326.980942 996.712232 
L 328.610734 999.764266 
L 330.240526 1001.056655 
L 331.870318 999.504922 
L 333.50011 995.03533 
L 335.129901 1000.349949 
L 336.759693 997.933429 
L 338.389485 1001.609647 
L 340.019277 1001.470817 
L 341.649069 1001.168754 
L 343.278861 1003.366889 
L 344.908653 1002.312413 
L 346.538445 999.895435 
L 348.168237 1002.163713 
L 349.798028 1000.652632 
L 351.42782 1000.089222 
L 353.057612 1000.835364 
L 354.687404 997.37096 
L 356.317196 1003.706809 
L 357.946988 1001.338785 
L 359.57678 1001.895451 
L 361.206572 1001.378055 
L 362.836364 1001.91161 
L 364.466156 999.82653 
L 366.095947 1001.539884 
L 367.725739 998.219384 
L 369.355531 996.938493 
L 370.985323 1000.717319 
L 372.615115 1001.645988 
L 374.244907 1002.06931 
L 375.874699 1002.210436 
L 377.504491 1001.867016 
L 379.134283 999.251434 
L 380.764074 1000.859046 
L 382.393866 1000.513668 
L 384.023658 1000.478521 
L 385.65345 993.989813 
L 387.283242 1002.315239 
L 388.913034 1004.700491 
L 390.542826 1002.547887 
L 392.172618 1003.261588 
L 393.80241 996.769181 
L 395.432202 997.717618 
L 397.061993 1000.234424 
L 398.691785 1001.365651 
L 400.321577 1001.404977 
L 401.951369 1001.755776 
L 403.581161 1003.522117 
L 405.210953 1003.051944 
L 406.840745 998.077804 
L 408.470537 998.64159 
L 410.100329 1003.067606 
L 411.73012 1002.632223 
L 413.359912 995.794041 
L 414.989704 1002.497788 
L 416.619496 1001.113804 
L 419.87908 1004.352456 
L 421.508872 1001.000089 
L 423.138664 1002.683332 
L 424.768456 996.613666 
L 426.398248 1002.614658 
L 428.028039 1004.573154 
L 429.657831 999.724389 
L 431.287623 1004.318713 
L 432.917415 1004.020177 
L 434.547207 1000.280787 
L 436.176999 1000.971204 
L 437.806791 1001.255431 
L 439.436583 1004.91403 
L 441.066375 1004.235119 
L 444.325958 998.032844 
L 447.585542 1003.737679 
L 449.215334 999.178432 
L 450.845126 1005.125879 
L 452.474918 1004.674137 
L 454.10471 998.259099 
L 455.734502 1005.342645 
L 457.364294 1003.869722 
L 458.994085 1004.925712 
L 462.253669 1006.124566 
L 463.883461 1002.265389 
L 465.513253 1003.364788 
L 467.143045 1005.582381 
L 468.772837 1005.894469 
L 470.402629 996.694728 
L 472.032421 1000.900487 
L 473.662212 997.213157 
L 475.292004 1002.591932 
L 476.921796 1003.059776 
L 478.551588 993.059945 
L 480.18138 1005.783936 
L 481.811172 1004.065852 
L 483.440964 1004.460636 
L 485.070756 1003.039498 
L 486.700548 1004.414762 
L 488.33034 1001.69635 
L 489.960131 1004.751412 
L 491.589923 1005.28103 
L 493.219715 1003.613738 
L 494.849507 1006.861887 
L 496.479299 1006.952727 
L 498.109091 1004.710003 
L 498.109091 1004.710003 
" clip-path="url(#p6ea2d2f4ec)" style="fill: none; stroke: #1f77b4; stroke-width: 1.5; stroke-linecap: square"/>
   </g>
   <g id="line2d_31">
    <path d="M 92.290909 640.407273 
L 93.920701 666.601497 
L 95.550493 802.244856 
L 97.180285 867.486624 
L 98.810077 882.163471 
L 100.439869 906.569045 
L 102.06966 896.850056 
L 103.699452 896.789399 
L 105.329244 892.155094 
L 106.959036 929.686145 
L 108.588828 915.37157 
L 110.21862 941.039249 
L 111.848412 936.727161 
L 113.478204 939.111699 
L 115.107996 946.304102 
L 116.737788 942.536912 
L 118.367579 941.988029 
L 119.997371 948.746253 
L 121.627163 921.984383 
L 123.256955 949.782341 
L 124.886747 954.58846 
L 126.516539 951.286386 
L 128.146331 946.95293 
L 129.776123 946.343273 
L 131.405915 946.936208 
L 133.035706 948.447878 
L 134.665498 957.650157 
L 136.29529 949.656708 
L 137.925082 945.932059 
L 139.554874 950.443113 
L 141.184666 957.307696 
L 142.814458 955.70728 
L 146.074042 950.140169 
L 147.703834 953.709498 
L 149.333625 943.582621 
L 150.963417 942.804253 
L 152.593209 955.648311 
L 154.223001 961.628661 
L 155.852793 952.339975 
L 157.482585 950.558373 
L 159.112377 940.614448 
L 160.742169 958.802559 
L 162.371961 953.413328 
L 164.001752 953.221338 
L 165.631544 948.024 
L 167.261336 953.711311 
L 168.891128 950.957315 
L 170.52092 955.497376 
L 172.150712 961.027581 
L 173.780504 948.356068 
L 175.410296 962.331585 
L 177.040088 965.297516 
L 178.66988 962.121266 
L 180.299671 963.227114 
L 181.929463 944.194635 
L 183.559255 962.203209 
L 185.189047 954.770221 
L 186.818839 942.875224 
L 188.448631 952.390186 
L 190.078423 954.309312 
L 191.708215 958.970654 
L 193.338007 953.370238 
L 194.967798 957.48913 
L 196.59759 962.678902 
L 198.227382 958.741725 
L 199.857174 958.038052 
L 201.486966 958.492134 
L 203.116758 960.66758 
L 204.74655 955.189982 
L 206.376342 963.0074 
L 208.006134 962.981293 
L 209.635926 954.687953 
L 211.265717 961.321908 
L 212.895509 953.929304 
L 214.525301 962.318109 
L 216.155093 957.576077 
L 217.784885 963.188991 
L 219.414677 955.156564 
L 221.044469 958.527397 
L 222.674261 952.037031 
L 224.304053 962.604914 
L 225.933844 956.801348 
L 227.563636 965.826562 
L 229.193428 948.469096 
L 230.82322 957.825465 
L 232.453012 951.36097 
L 234.082804 962.106389 
L 235.712596 961.769802 
L 237.342388 963.190634 
L 238.97218 950.353404 
L 240.601972 962.793498 
L 242.231763 953.242877 
L 243.861555 961.047667 
L 245.491347 959.218308 
L 247.121139 954.370971 
L 248.750931 959.222876 
L 250.380723 961.425541 
L 252.010515 961.194557 
L 253.640307 954.756928 
L 255.270099 957.834124 
L 256.89989 955.300516 
L 258.529682 953.527377 
L 260.159474 957.465863 
L 261.789266 954.607898 
L 263.419058 950.160491 
L 265.04885 954.659477 
L 266.678642 961.901735 
L 268.308434 953.373942 
L 269.938226 947.923865 
L 271.568018 960.316185 
L 273.197809 953.231816 
L 274.827601 952.904532 
L 276.457393 962.295081 
L 278.087185 964.416241 
L 279.716977 957.234179 
L 281.346769 964.628213 
L 282.976561 953.193163 
L 284.606353 952.979758 
L 286.236145 954.890684 
L 287.865936 959.111353 
L 289.495728 952.578865 
L 291.12552 956.561783 
L 292.755312 964.696655 
L 294.385104 964.197915 
L 296.014896 959.99309 
L 297.644688 959.20565 
L 299.27448 958.231679 
L 300.904272 942.77291 
L 302.534064 961.308855 
L 304.163855 953.164254 
L 305.793647 955.53294 
L 307.423439 964.846625 
L 309.053231 955.792702 
L 310.683023 959.294895 
L 312.312815 961.396417 
L 313.942607 960.872372 
L 315.572399 958.815452 
L 317.202191 960.23518 
L 318.831982 956.703314 
L 320.461774 965.702516 
L 322.091566 960.131328 
L 323.721358 959.423964 
L 325.35115 953.298939 
L 326.980942 961.116563 
L 328.610734 948.165779 
L 330.240526 956.197109 
L 331.870318 950.263767 
L 333.50011 960.864047 
L 335.129901 959.840165 
L 336.759693 959.5473 
L 338.389485 957.932806 
L 340.019277 963.517342 
L 341.649069 962.171543 
L 343.278861 959.902091 
L 344.908653 957.949868 
L 346.538445 958.040146 
L 348.168237 961.140825 
L 349.798028 961.250731 
L 351.42782 959.524649 
L 353.057612 959.230893 
L 354.687404 966.397435 
L 356.317196 960.082969 
L 357.946988 945.435272 
L 359.57678 951.045506 
L 361.206572 953.475274 
L 362.836364 960.557183 
L 364.466156 964.96517 
L 366.095947 955.394008 
L 367.725739 957.805837 
L 369.355531 964.544843 
L 370.985323 950.852789 
L 372.615115 966.805069 
L 374.244907 956.299626 
L 375.874699 958.36385 
L 377.504491 950.926804 
L 379.134283 967.339445 
L 380.764074 963.101065 
L 382.393866 950.670007 
L 384.023658 950.126969 
L 385.65345 958.694073 
L 387.283242 962.932266 
L 388.913034 960.904258 
L 390.542826 964.909284 
L 392.172618 961.196881 
L 393.80241 963.927741 
L 395.432202 965.473423 
L 397.061993 961.097151 
L 398.691785 966.865444 
L 400.321577 962.972107 
L 401.951369 965.596573 
L 403.581161 955.218471 
L 405.210953 967.373508 
L 406.840745 960.812657 
L 408.470537 958.517024 
L 410.100329 963.030591 
L 411.73012 964.229281 
L 413.359912 960.122964 
L 414.989704 959.731731 
L 416.619496 964.73702 
L 418.249288 960.29123 
L 419.87908 960.710487 
L 421.508872 953.028667 
L 423.138664 953.634927 
L 424.768456 957.818286 
L 426.398248 964.401696 
L 428.028039 965.398597 
L 429.657831 960.225514 
L 431.287623 961.198216 
L 432.917415 950.19669 
L 434.547207 954.875657 
L 436.176999 946.013535 
L 437.806791 963.436363 
L 439.436583 961.939887 
L 441.066375 953.899067 
L 442.696166 952.233864 
L 444.325958 962.39931 
L 445.95575 958.175505 
L 447.585542 962.135615 
L 449.215334 964.973819 
L 450.845126 958.532404 
L 452.474918 957.429448 
L 454.10471 964.304902 
L 455.734502 958.799299 
L 457.364294 957.106032 
L 458.994085 964.927443 
L 460.623877 961.931677 
L 462.253669 943.453532 
L 463.883461 960.450758 
L 465.513253 962.863121 
L 467.143045 960.64017 
L 468.772837 955.001611 
L 470.402629 960.244814 
L 472.032421 947.468193 
L 473.662212 958.399349 
L 475.292004 957.899539 
L 476.921796 960.328888 
L 478.551588 958.465589 
L 480.18138 962.845152 
L 481.811172 955.87694 
L 483.440964 963.690797 
L 485.070756 960.689858 
L 486.700548 959.033746 
L 488.33034 964.01081 
L 489.960131 960.770502 
L 491.589923 964.577936 
L 493.219715 954.430305 
L 494.849507 953.779926 
L 496.479299 960.973554 
L 498.109091 961.591703 
L 498.109091 961.591703 
" clip-path="url(#p6ea2d2f4ec)" style="fill: none; stroke: #ff7f0e; stroke-width: 1.5; stroke-linecap: square"/>
   </g>
   <g id="patch_9">
    <path d="M 72 1025.28 
L 72 622.08 
" style="fill: none; stroke: #000000; stroke-width: 0.8; stroke-linejoin: miter; stroke-linecap: square"/>
   </g>
   <g id="patch_10">
    <path d="M 518.4 1025.28 
L 518.4 622.08 
" style="fill: none; stroke: #000000; stroke-width: 0.8; stroke-linejoin: miter; stroke-linecap: square"/>
   </g>
   <g id="patch_11">
    <path d="M 72 1025.28 
L 518.4 1025.28 
" style="fill: none; stroke: #000000; stroke-width: 0.8; stroke-linejoin: miter; stroke-linecap: square"/>
   </g>
   <g id="patch_12">
    <path d="M 72 622.08 
L 518.4 622.08 
" style="fill: none; stroke: #000000; stroke-width: 0.8; stroke-linejoin: miter; stroke-linecap: square"/>
   </g>
   <g id="legend_2">
    <g id="patch_13">
     <path d="M 79 659.714375 
L 150.140625 659.714375 
Q 152.140625 659.714375 152.140625 657.714375 
L 152.140625 629.08 
Q 152.140625 627.08 150.140625 627.08 
L 79 627.08 
Q 77 627.08 77 629.08 
L 77 657.714375 
Q 77 659.714375 79 659.714375 
z
" style="fill: #ffffff; opacity: 0.8; stroke: #cccccc; stroke-linejoin: miter"/>
    </g>
    <g id="line2d_32">
     <path d="M 81 635.178437 
L 91 635.178437 
L 101 635.178437 
" style="fill: none; stroke: #1f77b4; stroke-width: 1.5; stroke-linecap: square"/>
    </g>
    <g id="text_30">
     <!-- loss -->
     <g transform="translate(109 638.678437) scale(0.1 -0.1)">
      <defs>
       <path id="DejaVuSans-73" d="M 2834 3397 
L 2834 2853 
Q 2591 2978 2328 3040 
Q 2066 3103 1784 3103 
Q 1356 3103 1142 2972 
Q 928 2841 928 2578 
Q 928 2378 1081 2264 
Q 1234 2150 1697 2047 
L 1894 2003 
Q 2506 1872 2764 1633 
Q 3022 1394 3022 966 
Q 3022 478 2636 193 
Q 2250 -91 1575 -91 
Q 1294 -91 989 -36 
Q 684 19 347 128 
L 347 722 
Q 666 556 975 473 
Q 1284 391 1588 391 
Q 1994 391 2212 530 
Q 2431 669 2431 922 
Q 2431 1156 2273 1281 
Q 2116 1406 1581 1522 
L 1381 1569 
Q 847 1681 609 1914 
Q 372 2147 372 2553 
Q 372 3047 722 3315 
Q 1072 3584 1716 3584 
Q 2034 3584 2315 3537 
Q 2597 3491 2834 3397 
z
" transform="scale(0.015625)"/>
      </defs>
      <use xlink:href="#DejaVuSans-6c"/>
      <use xlink:href="#DejaVuSans-6f" x="27.783203"/>
      <use xlink:href="#DejaVuSans-73" x="88.964844"/>
      <use xlink:href="#DejaVuSans-73" x="141.064453"/>
     </g>
    </g>
    <g id="line2d_33">
     <path d="M 81 649.856562 
L 91 649.856562 
L 101 649.856562 
" style="fill: none; stroke: #ff7f0e; stroke-width: 1.5; stroke-linecap: square"/>
    </g>
    <g id="text_31">
     <!-- val_loss -->
     <g transform="translate(109 653.356562) scale(0.1 -0.1)">
      <use xlink:href="#DejaVuSans-76"/>
      <use xlink:href="#DejaVuSans-61" x="59.179688"/>
      <use xlink:href="#DejaVuSans-6c" x="120.458984"/>
      <use xlink:href="#DejaVuSans-5f" x="148.242188"/>
      <use xlink:href="#DejaVuSans-6c" x="198.242188"/>
      <use xlink:href="#DejaVuSans-6f" x="226.025391"/>
      <use xlink:href="#DejaVuSans-73" x="287.207031"/>
      <use xlink:href="#DejaVuSans-73" x="339.306641"/>
     </g>
    </g>
   </g>
  </g>
 </g>
 <defs>
  <clipPath id="p90bb4eb508">
   <rect x="72" y="138.24" width="446.4" height="403.2"/>
  </clipPath>
  <clipPath id="p6ea2d2f4ec">
   <rect x="72" y="622.08" width="446.4" height="403.2"/>
  </clipPath>
 </defs>
</svg>
