<?xml version="1.0" encoding="utf-8" standalone="no"?>
<!DOCTYPE svg PUBLIC "-//W3C//DTD SVG 1.1//EN"
  "http://www.w3.org/Graphics/SVG/1.1/DTD/svg11.dtd">
<svg xmlns:xlink="http://www.w3.org/1999/xlink" width="576pt" height="1152pt" viewBox="0 0 576 1152" xmlns="http://www.w3.org/2000/svg" version="1.1">
 <metadata>
  <rdf:RDF xmlns:dc="http://purl.org/dc/elements/1.1/" xmlns:cc="http://creativecommons.org/ns#" xmlns:rdf="http://www.w3.org/1999/02/22-rdf-syntax-ns#">
   <cc:Work>
    <dc:type rdf:resource="http://purl.org/dc/dcmitype/StillImage"/>
    <dc:date>2023-11-16T12:19:14.654355</dc:date>
    <dc:format>image/svg+xml</dc:format>
    <dc:creator>
     <cc:Agent>
      <dc:title>Matplotlib v3.7.3, https://matplotlib.org/</dc:title>
     </cc:Agent>
    </dc:creator>
   </cc:Work>
  </rdf:RDF>
 </metadata>
 <defs>
  <style type="text/css">*{stroke-linejoin: round; stroke-linecap: butt}</style>
 </defs>
 <g id="figure_1">
  <g id="patch_1">
   <path d="M 0 1152 
L 576 1152 
L 576 0 
L 0 0 
z
" style="fill: #ffffff"/>
  </g>
  <g id="axes_1">
   <g id="patch_2">
    <path d="M 72 541.44 
L 518.4 541.44 
L 518.4 138.24 
L 72 138.24 
z
" style="fill: #ffffff"/>
   </g>
   <g id="matplotlib.axis_1">
    <g id="xtick_1">
     <g id="line2d_1">
      <defs>
       <path id="m934ebf0b59" d="M 0 0 
L 0 3.5 
" style="stroke: #000000; stroke-width: 0.8"/>
      </defs>
      <g>
       <use xlink:href="#m934ebf0b59" x="92.290909" y="541.44" style="stroke: #000000; stroke-width: 0.8"/>
      </g>
     </g>
     <g id="text_1">
      <!-- 0 -->
      <g transform="translate(89.109659 556.038437) scale(0.1 -0.1)">
       <defs>
        <path id="DejaVuSans-30" d="M 2034 4250 
Q 1547 4250 1301 3770 
Q 1056 3291 1056 2328 
Q 1056 1369 1301 889 
Q 1547 409 2034 409 
Q 2525 409 2770 889 
Q 3016 1369 3016 2328 
Q 3016 3291 2770 3770 
Q 2525 4250 2034 4250 
z
M 2034 4750 
Q 2819 4750 3233 4129 
Q 3647 3509 3647 2328 
Q 3647 1150 3233 529 
Q 2819 -91 2034 -91 
Q 1250 -91 836 529 
Q 422 1150 422 2328 
Q 422 3509 836 4129 
Q 1250 4750 2034 4750 
z
" transform="scale(0.015625)"/>
       </defs>
       <use xlink:href="#DejaVuSans-30"/>
      </g>
     </g>
    </g>
    <g id="xtick_2">
     <g id="line2d_2">
      <g>
       <use xlink:href="#m934ebf0b59" x="147.131204" y="541.44" style="stroke: #000000; stroke-width: 0.8"/>
      </g>
     </g>
     <g id="text_2">
      <!-- 25 -->
      <g transform="translate(140.768704 556.038437) scale(0.1 -0.1)">
       <defs>
        <path id="DejaVuSans-32" d="M 1228 531 
L 3431 531 
L 3431 0 
L 469 0 
L 469 531 
Q 828 903 1448 1529 
Q 2069 2156 2228 2338 
Q 2531 2678 2651 2914 
Q 2772 3150 2772 3378 
Q 2772 3750 2511 3984 
Q 2250 4219 1831 4219 
Q 1534 4219 1204 4116 
Q 875 4013 500 3803 
L 500 4441 
Q 881 4594 1212 4672 
Q 1544 4750 1819 4750 
Q 2544 4750 2975 4387 
Q 3406 4025 3406 3419 
Q 3406 3131 3298 2873 
Q 3191 2616 2906 2266 
Q 2828 2175 2409 1742 
Q 1991 1309 1228 531 
z
" transform="scale(0.015625)"/>
        <path id="DejaVuSans-35" d="M 691 4666 
L 3169 4666 
L 3169 4134 
L 1269 4134 
L 1269 2991 
Q 1406 3038 1543 3061 
Q 1681 3084 1819 3084 
Q 2600 3084 3056 2656 
Q 3513 2228 3513 1497 
Q 3513 744 3044 326 
Q 2575 -91 1722 -91 
Q 1428 -91 1123 -41 
Q 819 9 494 109 
L 494 744 
Q 775 591 1075 516 
Q 1375 441 1709 441 
Q 2250 441 2565 725 
Q 2881 1009 2881 1497 
Q 2881 1984 2565 2268 
Q 2250 2553 1709 2553 
Q 1456 2553 1204 2497 
Q 953 2441 691 2322 
L 691 4666 
z
" transform="scale(0.015625)"/>
       </defs>
       <use xlink:href="#DejaVuSans-32"/>
       <use xlink:href="#DejaVuSans-35" x="63.623047"/>
      </g>
     </g>
    </g>
    <g id="xtick_3">
     <g id="line2d_3">
      <g>
       <use xlink:href="#m934ebf0b59" x="201.971499" y="541.44" style="stroke: #000000; stroke-width: 0.8"/>
      </g>
     </g>
     <g id="text_3">
      <!-- 50 -->
      <g transform="translate(195.608999 556.038437) scale(0.1 -0.1)">
       <use xlink:href="#DejaVuSans-35"/>
       <use xlink:href="#DejaVuSans-30" x="63.623047"/>
      </g>
     </g>
    </g>
    <g id="xtick_4">
     <g id="line2d_4">
      <g>
       <use xlink:href="#m934ebf0b59" x="256.811794" y="541.44" style="stroke: #000000; stroke-width: 0.8"/>
      </g>
     </g>
     <g id="text_4">
      <!-- 75 -->
      <g transform="translate(250.449294 556.038437) scale(0.1 -0.1)">
       <defs>
        <path id="DejaVuSans-37" d="M 525 4666 
L 3525 4666 
L 3525 4397 
L 1831 0 
L 1172 0 
L 2766 4134 
L 525 4134 
L 525 4666 
z
" transform="scale(0.015625)"/>
       </defs>
       <use xlink:href="#DejaVuSans-37"/>
       <use xlink:href="#DejaVuSans-35" x="63.623047"/>
      </g>
     </g>
    </g>
    <g id="xtick_5">
     <g id="line2d_5">
      <g>
       <use xlink:href="#m934ebf0b59" x="311.652088" y="541.44" style="stroke: #000000; stroke-width: 0.8"/>
      </g>
     </g>
     <g id="text_5">
      <!-- 100 -->
      <g transform="translate(302.108338 556.038437) scale(0.1 -0.1)">
       <defs>
        <path id="DejaVuSans-31" d="M 794 531 
L 1825 531 
L 1825 4091 
L 703 3866 
L 703 4441 
L 1819 4666 
L 2450 4666 
L 2450 531 
L 3481 531 
L 3481 0 
L 794 0 
L 794 531 
z
" transform="scale(0.015625)"/>
       </defs>
       <use xlink:href="#DejaVuSans-31"/>
       <use xlink:href="#DejaVuSans-30" x="63.623047"/>
       <use xlink:href="#DejaVuSans-30" x="127.246094"/>
      </g>
     </g>
    </g>
    <g id="xtick_6">
     <g id="line2d_6">
      <g>
       <use xlink:href="#m934ebf0b59" x="366.492383" y="541.44" style="stroke: #000000; stroke-width: 0.8"/>
      </g>
     </g>
     <g id="text_6">
      <!-- 125 -->
      <g transform="translate(356.948633 556.038437) scale(0.1 -0.1)">
       <use xlink:href="#DejaVuSans-31"/>
       <use xlink:href="#DejaVuSans-32" x="63.623047"/>
       <use xlink:href="#DejaVuSans-35" x="127.246094"/>
      </g>
     </g>
    </g>
    <g id="xtick_7">
     <g id="line2d_7">
      <g>
       <use xlink:href="#m934ebf0b59" x="421.332678" y="541.44" style="stroke: #000000; stroke-width: 0.8"/>
      </g>
     </g>
     <g id="text_7">
      <!-- 150 -->
      <g transform="translate(411.788928 556.038437) scale(0.1 -0.1)">
       <use xlink:href="#DejaVuSans-31"/>
       <use xlink:href="#DejaVuSans-35" x="63.623047"/>
       <use xlink:href="#DejaVuSans-30" x="127.246094"/>
      </g>
     </g>
    </g>
    <g id="xtick_8">
     <g id="line2d_8">
      <g>
       <use xlink:href="#m934ebf0b59" x="476.172973" y="541.44" style="stroke: #000000; stroke-width: 0.8"/>
      </g>
     </g>
     <g id="text_8">
      <!-- 175 -->
      <g transform="translate(466.629223 556.038437) scale(0.1 -0.1)">
       <use xlink:href="#DejaVuSans-31"/>
       <use xlink:href="#DejaVuSans-37" x="63.623047"/>
       <use xlink:href="#DejaVuSans-35" x="127.246094"/>
      </g>
     </g>
    </g>
    <g id="text_9">
     <!-- Epoch -->
     <g transform="translate(279.889062 569.716563) scale(0.1 -0.1)">
      <defs>
       <path id="DejaVuSans-45" d="M 628 4666 
L 3578 4666 
L 3578 4134 
L 1259 4134 
L 1259 2753 
L 3481 2753 
L 3481 2222 
L 1259 2222 
L 1259 531 
L 3634 531 
L 3634 0 
L 628 0 
L 628 4666 
z
" transform="scale(0.015625)"/>
       <path id="DejaVuSans-70" d="M 1159 525 
L 1159 -1331 
L 581 -1331 
L 581 3500 
L 1159 3500 
L 1159 2969 
Q 1341 3281 1617 3432 
Q 1894 3584 2278 3584 
Q 2916 3584 3314 3078 
Q 3713 2572 3713 1747 
Q 3713 922 3314 415 
Q 2916 -91 2278 -91 
Q 1894 -91 1617 61 
Q 1341 213 1159 525 
z
M 3116 1747 
Q 3116 2381 2855 2742 
Q 2594 3103 2138 3103 
Q 1681 3103 1420 2742 
Q 1159 2381 1159 1747 
Q 1159 1113 1420 752 
Q 1681 391 2138 391 
Q 2594 391 2855 752 
Q 3116 1113 3116 1747 
z
" transform="scale(0.015625)"/>
       <path id="DejaVuSans-6f" d="M 1959 3097 
Q 1497 3097 1228 2736 
Q 959 2375 959 1747 
Q 959 1119 1226 758 
Q 1494 397 1959 397 
Q 2419 397 2687 759 
Q 2956 1122 2956 1747 
Q 2956 2369 2687 2733 
Q 2419 3097 1959 3097 
z
M 1959 3584 
Q 2709 3584 3137 3096 
Q 3566 2609 3566 1747 
Q 3566 888 3137 398 
Q 2709 -91 1959 -91 
Q 1206 -91 779 398 
Q 353 888 353 1747 
Q 353 2609 779 3096 
Q 1206 3584 1959 3584 
z
" transform="scale(0.015625)"/>
       <path id="DejaVuSans-63" d="M 3122 3366 
L 3122 2828 
Q 2878 2963 2633 3030 
Q 2388 3097 2138 3097 
Q 1578 3097 1268 2742 
Q 959 2388 959 1747 
Q 959 1106 1268 751 
Q 1578 397 2138 397 
Q 2388 397 2633 464 
Q 2878 531 3122 666 
L 3122 134 
Q 2881 22 2623 -34 
Q 2366 -91 2075 -91 
Q 1284 -91 818 406 
Q 353 903 353 1747 
Q 353 2603 823 3093 
Q 1294 3584 2113 3584 
Q 2378 3584 2631 3529 
Q 2884 3475 3122 3366 
z
" transform="scale(0.015625)"/>
       <path id="DejaVuSans-68" d="M 3513 2113 
L 3513 0 
L 2938 0 
L 2938 2094 
Q 2938 2591 2744 2837 
Q 2550 3084 2163 3084 
Q 1697 3084 1428 2787 
Q 1159 2491 1159 1978 
L 1159 0 
L 581 0 
L 581 4863 
L 1159 4863 
L 1159 2956 
Q 1366 3272 1645 3428 
Q 1925 3584 2291 3584 
Q 2894 3584 3203 3211 
Q 3513 2838 3513 2113 
z
" transform="scale(0.015625)"/>
      </defs>
      <use xlink:href="#DejaVuSans-45"/>
      <use xlink:href="#DejaVuSans-70" x="63.183594"/>
      <use xlink:href="#DejaVuSans-6f" x="126.660156"/>
      <use xlink:href="#DejaVuSans-63" x="187.841797"/>
      <use xlink:href="#DejaVuSans-68" x="242.822266"/>
     </g>
    </g>
   </g>
   <g id="matplotlib.axis_2">
    <g id="ytick_1">
     <g id="line2d_9">
      <defs>
       <path id="m6560b2ba08" d="M 0 0 
L -3.5 0 
" style="stroke: #000000; stroke-width: 0.8"/>
      </defs>
      <g>
       <use xlink:href="#m6560b2ba08" x="72" y="500.612137" style="stroke: #000000; stroke-width: 0.8"/>
      </g>
     </g>
     <g id="text_10">
      <!-- 0.2 -->
      <g transform="translate(49.096875 504.411356) scale(0.1 -0.1)">
       <defs>
        <path id="DejaVuSans-2e" d="M 684 794 
L 1344 794 
L 1344 0 
L 684 0 
L 684 794 
z
" transform="scale(0.015625)"/>
       </defs>
       <use xlink:href="#DejaVuSans-30"/>
       <use xlink:href="#DejaVuSans-2e" x="63.623047"/>
       <use xlink:href="#DejaVuSans-32" x="95.410156"/>
      </g>
     </g>
    </g>
    <g id="ytick_2">
     <g id="line2d_10">
      <g>
       <use xlink:href="#m6560b2ba08" x="72" y="412.34058" style="stroke: #000000; stroke-width: 0.8"/>
      </g>
     </g>
     <g id="text_11">
      <!-- 0.4 -->
      <g transform="translate(49.096875 416.139798) scale(0.1 -0.1)">
       <defs>
        <path id="DejaVuSans-34" d="M 2419 4116 
L 825 1625 
L 2419 1625 
L 2419 4116 
z
M 2253 4666 
L 3047 4666 
L 3047 1625 
L 3713 1625 
L 3713 1100 
L 3047 1100 
L 3047 0 
L 2419 0 
L 2419 1100 
L 313 1100 
L 313 1709 
L 2253 4666 
z
" transform="scale(0.015625)"/>
       </defs>
       <use xlink:href="#DejaVuSans-30"/>
       <use xlink:href="#DejaVuSans-2e" x="63.623047"/>
       <use xlink:href="#DejaVuSans-34" x="95.410156"/>
      </g>
     </g>
    </g>
    <g id="ytick_3">
     <g id="line2d_11">
      <g>
       <use xlink:href="#m6560b2ba08" x="72" y="324.069022" style="stroke: #000000; stroke-width: 0.8"/>
      </g>
     </g>
     <g id="text_12">
      <!-- 0.6 -->
      <g transform="translate(49.096875 327.868241) scale(0.1 -0.1)">
       <defs>
        <path id="DejaVuSans-36" d="M 2113 2584 
Q 1688 2584 1439 2293 
Q 1191 2003 1191 1497 
Q 1191 994 1439 701 
Q 1688 409 2113 409 
Q 2538 409 2786 701 
Q 3034 994 3034 1497 
Q 3034 2003 2786 2293 
Q 2538 2584 2113 2584 
z
M 3366 4563 
L 3366 3988 
Q 3128 4100 2886 4159 
Q 2644 4219 2406 4219 
Q 1781 4219 1451 3797 
Q 1122 3375 1075 2522 
Q 1259 2794 1537 2939 
Q 1816 3084 2150 3084 
Q 2853 3084 3261 2657 
Q 3669 2231 3669 1497 
Q 3669 778 3244 343 
Q 2819 -91 2113 -91 
Q 1303 -91 875 529 
Q 447 1150 447 2328 
Q 447 3434 972 4092 
Q 1497 4750 2381 4750 
Q 2619 4750 2861 4703 
Q 3103 4656 3366 4563 
z
" transform="scale(0.015625)"/>
       </defs>
       <use xlink:href="#DejaVuSans-30"/>
       <use xlink:href="#DejaVuSans-2e" x="63.623047"/>
       <use xlink:href="#DejaVuSans-36" x="95.410156"/>
      </g>
     </g>
    </g>
    <g id="ytick_4">
     <g id="line2d_12">
      <g>
       <use xlink:href="#m6560b2ba08" x="72" y="235.797465" style="stroke: #000000; stroke-width: 0.8"/>
      </g>
     </g>
     <g id="text_13">
      <!-- 0.8 -->
      <g transform="translate(49.096875 239.596684) scale(0.1 -0.1)">
       <defs>
        <path id="DejaVuSans-38" d="M 2034 2216 
Q 1584 2216 1326 1975 
Q 1069 1734 1069 1313 
Q 1069 891 1326 650 
Q 1584 409 2034 409 
Q 2484 409 2743 651 
Q 3003 894 3003 1313 
Q 3003 1734 2745 1975 
Q 2488 2216 2034 2216 
z
M 1403 2484 
Q 997 2584 770 2862 
Q 544 3141 544 3541 
Q 544 4100 942 4425 
Q 1341 4750 2034 4750 
Q 2731 4750 3128 4425 
Q 3525 4100 3525 3541 
Q 3525 3141 3298 2862 
Q 3072 2584 2669 2484 
Q 3125 2378 3379 2068 
Q 3634 1759 3634 1313 
Q 3634 634 3220 271 
Q 2806 -91 2034 -91 
Q 1263 -91 848 271 
Q 434 634 434 1313 
Q 434 1759 690 2068 
Q 947 2378 1403 2484 
z
M 1172 3481 
Q 1172 3119 1398 2916 
Q 1625 2713 2034 2713 
Q 2441 2713 2670 2916 
Q 2900 3119 2900 3481 
Q 2900 3844 2670 4047 
Q 2441 4250 2034 4250 
Q 1625 4250 1398 4047 
Q 1172 3844 1172 3481 
z
" transform="scale(0.015625)"/>
       </defs>
       <use xlink:href="#DejaVuSans-30"/>
       <use xlink:href="#DejaVuSans-2e" x="63.623047"/>
       <use xlink:href="#DejaVuSans-38" x="95.410156"/>
      </g>
     </g>
    </g>
    <g id="ytick_5">
     <g id="line2d_13">
      <g>
       <use xlink:href="#m6560b2ba08" x="72" y="147.525908" style="stroke: #000000; stroke-width: 0.8"/>
      </g>
     </g>
     <g id="text_14">
      <!-- 1.0 -->
      <g transform="translate(49.096875 151.325126) scale(0.1 -0.1)">
       <use xlink:href="#DejaVuSans-31"/>
       <use xlink:href="#DejaVuSans-2e" x="63.623047"/>
       <use xlink:href="#DejaVuSans-30" x="95.410156"/>
      </g>
     </g>
    </g>
   </g>
   <g id="line2d_14">
    <path d="M 92.290909 340.872065 
L 94.484521 236.965884 
L 98.871744 214.71021 
L 101.065356 209.146285 
L 103.258968 203.165079 
L 105.45258 204.138779 
L 107.646192 203.025994 
L 109.839803 194.819218 
L 112.033415 195.236499 
L 114.227027 195.097414 
L 116.420639 194.680106 
L 118.614251 193.15004 
L 120.807862 190.646274 
L 123.001474 187.864311 
L 125.195086 189.116181 
L 127.388698 184.804153 
L 129.58231 194.680106 
L 131.775921 191.759059 
L 133.969533 184.943264 
L 136.163145 187.44703 
L 138.356757 182.300386 
L 140.550369 181.604909 
L 142.74398 180.074816 
L 144.937592 180.492124 
L 147.131204 179.101143 
L 149.324816 180.353013 
L 151.518428 182.717694 
L 153.712039 177.153769 
L 155.905651 176.597376 
L 158.099263 178.405639 
L 160.292875 177.849273 
L 162.486486 177.849273 
L 164.680098 177.29288 
L 166.87371 172.146236 
L 169.067322 176.31918 
L 171.260934 174.789114 
L 173.454545 172.146236 
L 175.648157 176.458292 
L 177.841769 175.206395 
L 180.035381 175.484591 
L 182.228993 175.206395 
L 184.422604 187.307919 
L 186.616216 174.09361 
L 188.809828 176.458292 
L 191.00344 171.033451 
L 193.197052 168.807881 
L 195.390663 171.86804 
L 197.584275 167.13873 
L 199.777887 170.477059 
L 201.971499 175.762788 
L 204.165111 168.946993 
L 206.358722 167.416927 
L 208.552334 169.64247 
L 210.745946 167.277815 
L 212.939558 167.416927 
L 215.13317 172.424433 
L 217.326781 166.582338 
L 219.520393 167.13873 
L 221.714005 169.920666 
L 223.907617 170.059778 
L 226.101229 166.16503 
L 228.29484 167.277815 
L 230.488452 167.416927 
L 232.682064 170.198863 
L 234.875676 167.416927 
L 237.069287 165.886834 
L 239.262899 168.529685 
L 241.456511 169.086078 
L 243.650123 166.025945 
L 245.843735 164.91316 
L 248.037346 173.815414 
L 250.230958 165.330441 
L 252.42457 165.330441 
L 254.618182 171.589844 
L 256.811794 166.999619 
L 259.005405 163.243983 
L 261.199017 167.695123 
L 263.392629 162.548479 
L 265.586241 166.025945 
L 267.779853 170.894366 
L 269.973464 164.495853 
L 272.167076 163.800375 
L 274.360688 168.3906 
L 276.5543 162.965786 
L 278.747912 163.522179 
L 280.941523 165.052245 
L 283.135135 163.93946 
L 285.328747 160.322909 
L 287.522359 167.834208 
L 289.715971 162.965786 
L 291.909582 163.243983 
L 294.103194 168.946993 
L 296.296806 164.217656 
L 298.490418 168.112404 
L 300.684029 161.018413 
L 302.877641 160.740216 
L 305.071253 164.774049 
L 307.264865 167.556011 
L 309.458477 170.61617 
L 311.652088 161.71389 
L 313.8457 161.71389 
L 316.039312 162.965786 
L 318.232924 164.91316 
L 320.426536 162.965786 
L 322.620147 160.601105 
L 324.813759 163.243983 
L 329.200983 161.018413 
L 331.394595 160.601105 
L 333.588206 164.078572 
L 335.781818 159.349235 
L 337.97543 161.71389 
L 340.169042 160.46202 
L 342.362654 162.409394 
L 344.556265 161.296609 
L 346.749877 161.574805 
L 348.943489 165.886834 
L 351.137101 163.522179 
L 353.330713 158.792843 
L 355.524324 162.131198 
L 357.717936 162.409394 
L 359.911548 160.740216 
L 362.10516 161.71389 
L 364.298771 160.46202 
L 366.492383 160.601105 
L 368.685995 157.819143 
L 370.879607 160.322909 
L 373.073219 164.634964 
L 375.26683 161.296609 
L 377.460442 162.965786 
L 379.654054 160.879301 
L 381.847666 160.46202 
L 384.041278 159.766516 
L 386.234889 161.157498 
L 388.428501 160.740216 
L 390.622113 162.965786 
L 392.815725 162.131198 
L 395.009337 161.018413 
L 397.202948 161.71389 
L 399.39656 158.23645 
L 401.590172 159.48832 
L 403.783784 160.601105 
L 405.977396 158.792843 
L 408.171007 160.46202 
L 410.364619 159.905628 
L 412.558231 162.409394 
L 414.751843 166.999619 
L 416.945455 161.992086 
L 419.139066 157.958254 
L 421.332678 158.792843 
L 423.52629 161.435694 
L 425.719902 162.548479 
L 427.913514 166.304142 
L 430.107125 158.097339 
L 432.300737 157.262777 
L 434.494349 157.819143 
L 436.687961 157.958254 
L 438.881572 156.567273 
L 441.075184 156.98458 
L 443.268796 160.740216 
L 445.462408 162.826675 
L 447.65602 163.383068 
L 449.849631 160.601105 
L 452.043243 159.627431 
L 454.236855 159.349235 
L 456.430467 159.349235 
L 458.624079 156.567273 
L 460.81769 160.183824 
L 463.011302 156.567273 
L 465.204914 157.540973 
L 467.398526 159.210124 
L 469.592138 158.23645 
L 471.785749 163.383068 
L 473.979361 160.601105 
L 476.172973 158.792843 
L 478.366585 158.23645 
L 480.560197 158.792843 
L 484.94742 158.792843 
L 487.141032 157.540973 
L 489.334644 158.653731 
L 491.528256 157.262777 
L 493.721867 157.819143 
L 495.915479 156.98458 
L 498.109091 158.931928 
L 498.109091 158.931928 
" clip-path="url(#p5fb52507ec)" style="fill: none; stroke: #1f77b4; stroke-width: 1.5; stroke-linecap: square"/>
   </g>
   <g id="line2d_15">
    <path d="M 92.290909 523.112727 
L 94.484521 467.726649 
L 96.678133 424.45628 
L 98.871744 324.069012 
L 101.065356 265.22131 
L 103.258968 240.989904 
L 105.45258 228.874201 
L 107.646192 242.720719 
L 109.839803 220.220127 
L 112.033415 221.950942 
L 114.227027 215.027683 
L 116.420639 227.143386 
L 118.614251 209.835239 
L 120.807862 223.681757 
L 123.001474 218.489312 
L 125.195086 211.566053 
L 127.388698 218.489312 
L 129.58231 216.758498 
L 131.775921 208.104424 
L 133.969533 194.257906 
L 136.163145 202.91198 
L 138.356757 204.642794 
L 142.74398 211.566053 
L 144.937592 206.373609 
L 147.131204 204.642794 
L 149.324816 208.104424 
L 151.518428 204.642794 
L 153.712039 199.45035 
L 155.905651 201.181165 
L 158.099263 189.065462 
L 160.292875 201.181165 
L 162.486486 204.642794 
L 164.680098 197.719535 
L 166.87371 209.835239 
L 169.067322 199.45035 
L 171.260934 197.719535 
L 173.454545 201.181165 
L 175.648157 194.257906 
L 177.841769 204.642794 
L 180.035381 201.181165 
L 182.228993 202.91198 
L 184.422604 197.719535 
L 186.616216 197.719535 
L 188.809828 189.065462 
L 191.00344 199.45035 
L 193.197052 197.719535 
L 195.390663 199.45035 
L 197.584275 199.45035 
L 199.777887 194.257906 
L 201.971499 202.91198 
L 204.165111 197.719535 
L 206.358722 201.181165 
L 208.552334 202.91198 
L 210.745946 192.527091 
L 212.939558 197.719535 
L 215.13317 189.065462 
L 217.326781 194.257906 
L 219.520393 195.988721 
L 221.714005 189.065462 
L 223.907617 187.334647 
L 226.101229 199.45035 
L 228.29484 197.719535 
L 230.488452 189.065462 
L 232.682064 195.988721 
L 234.875676 189.065462 
L 237.069287 192.527091 
L 239.262899 194.257906 
L 241.456511 187.334647 
L 243.650123 182.142203 
L 245.843735 197.719535 
L 248.037346 195.988721 
L 250.230958 190.796276 
L 252.42457 202.91198 
L 254.618182 189.065462 
L 256.811794 195.988721 
L 259.005405 185.603832 
L 261.199017 185.603832 
L 263.392629 197.719535 
L 265.586241 195.988721 
L 267.779853 185.603832 
L 269.973464 189.065462 
L 272.167076 189.065462 
L 274.360688 187.334647 
L 276.5543 190.796276 
L 278.747912 189.065462 
L 280.941523 185.603832 
L 283.135135 195.988721 
L 285.328747 185.603832 
L 287.522359 192.527091 
L 289.715971 178.680573 
L 291.909582 195.988721 
L 294.103194 195.988721 
L 296.296806 192.527091 
L 298.490418 192.527091 
L 300.684029 189.065462 
L 302.877641 195.988721 
L 305.071253 185.603832 
L 307.264865 192.527091 
L 309.458477 192.527091 
L 311.652088 201.181165 
L 313.8457 185.603832 
L 318.232924 185.603832 
L 320.426536 187.334647 
L 322.620147 178.680573 
L 324.813759 192.527091 
L 327.007371 187.334647 
L 329.200983 189.065462 
L 331.394595 187.334647 
L 333.588206 199.45035 
L 335.781818 194.257906 
L 337.97543 202.91198 
L 340.169042 187.334647 
L 342.362654 189.065462 
L 344.556265 195.988721 
L 346.749877 183.873017 
L 348.943489 185.603832 
L 351.137101 182.142203 
L 353.330713 189.065462 
L 355.524324 187.334647 
L 357.717936 183.873017 
L 359.911548 185.603832 
L 362.10516 194.257906 
L 364.298771 182.142203 
L 368.685995 185.603832 
L 370.879607 189.065462 
L 373.073219 187.334647 
L 375.26683 194.257906 
L 377.460442 187.334647 
L 379.654054 192.527091 
L 381.847666 194.257906 
L 384.041278 183.873017 
L 386.234889 183.873017 
L 388.428501 194.257906 
L 390.622113 192.527091 
L 392.815725 185.603832 
L 395.009337 182.142203 
L 397.202948 192.527091 
L 399.39656 187.334647 
L 401.590172 187.334647 
L 403.783784 183.873017 
L 405.977396 187.334647 
L 410.364619 176.949758 
L 412.558231 182.142203 
L 414.751843 189.065462 
L 416.945455 185.603832 
L 421.332678 185.603832 
L 423.52629 183.873017 
L 425.719902 190.796276 
L 427.913514 194.257906 
L 430.107125 192.527091 
L 432.300737 187.334647 
L 434.494349 180.411388 
L 438.881572 183.873017 
L 441.075184 192.527091 
L 443.268796 185.603832 
L 445.462408 189.065462 
L 447.65602 187.334647 
L 449.849631 187.334647 
L 452.043243 189.065462 
L 454.236855 187.334647 
L 456.430467 183.873017 
L 458.624079 189.065462 
L 463.011302 185.603832 
L 465.204914 185.603832 
L 467.398526 183.873017 
L 469.592138 185.603832 
L 471.785749 180.411388 
L 473.979361 195.988721 
L 476.172973 182.142203 
L 478.366585 185.603832 
L 480.560197 185.603832 
L 482.753808 187.334647 
L 484.94742 182.142203 
L 487.141032 187.334647 
L 489.334644 183.873017 
L 491.528256 183.873017 
L 493.721867 185.603832 
L 495.915479 190.796276 
L 498.109091 187.334647 
L 498.109091 187.334647 
" clip-path="url(#p5fb52507ec)" style="fill: none; stroke: #ff7f0e; stroke-width: 1.5; stroke-linecap: square"/>
   </g>
   <g id="patch_3">
    <path d="M 72 541.44 
L 72 138.24 
" style="fill: none; stroke: #000000; stroke-width: 0.8; stroke-linejoin: miter; stroke-linecap: square"/>
   </g>
   <g id="patch_4">
    <path d="M 518.4 541.44 
L 518.4 138.24 
" style="fill: none; stroke: #000000; stroke-width: 0.8; stroke-linejoin: miter; stroke-linecap: square"/>
   </g>
   <g id="patch_5">
    <path d="M 72 541.44 
L 518.4 541.44 
" style="fill: none; stroke: #000000; stroke-width: 0.8; stroke-linejoin: miter; stroke-linecap: square"/>
   </g>
   <g id="patch_6">
    <path d="M 72 138.24 
L 518.4 138.24 
" style="fill: none; stroke: #000000; stroke-width: 0.8; stroke-linejoin: miter; stroke-linecap: square"/>
   </g>
   <g id="legend_1">
    <g id="patch_7">
     <path d="M 79 175.874375 
L 175.94375 175.874375 
Q 177.94375 175.874375 177.94375 173.874375 
L 177.94375 145.24 
Q 177.94375 143.24 175.94375 143.24 
L 79 143.24 
Q 77 143.24 77 145.24 
L 77 173.874375 
Q 77 175.874375 79 175.874375 
z
" style="fill: #ffffff; opacity: 0.8; stroke: #cccccc; stroke-linejoin: miter"/>
    </g>
    <g id="line2d_16">
     <path d="M 81 151.338437 
L 91 151.338437 
L 101 151.338437 
" style="fill: none; stroke: #1f77b4; stroke-width: 1.5; stroke-linecap: square"/>
    </g>
    <g id="text_15">
     <!-- accuracy -->
     <g transform="translate(109 154.838437) scale(0.1 -0.1)">
      <defs>
       <path id="DejaVuSans-61" d="M 2194 1759 
Q 1497 1759 1228 1600 
Q 959 1441 959 1056 
Q 959 750 1161 570 
Q 1363 391 1709 391 
Q 2188 391 2477 730 
Q 2766 1069 2766 1631 
L 2766 1759 
L 2194 1759 
z
M 3341 1997 
L 3341 0 
L 2766 0 
L 2766 531 
Q 2569 213 2275 61 
Q 1981 -91 1556 -91 
Q 1019 -91 701 211 
Q 384 513 384 1019 
Q 384 1609 779 1909 
Q 1175 2209 1959 2209 
L 2766 2209 
L 2766 2266 
Q 2766 2663 2505 2880 
Q 2244 3097 1772 3097 
Q 1472 3097 1187 3025 
Q 903 2953 641 2809 
L 641 3341 
Q 956 3463 1253 3523 
Q 1550 3584 1831 3584 
Q 2591 3584 2966 3190 
Q 3341 2797 3341 1997 
z
" transform="scale(0.015625)"/>
       <path id="DejaVuSans-75" d="M 544 1381 
L 544 3500 
L 1119 3500 
L 1119 1403 
Q 1119 906 1312 657 
Q 1506 409 1894 409 
Q 2359 409 2629 706 
Q 2900 1003 2900 1516 
L 2900 3500 
L 3475 3500 
L 3475 0 
L 2900 0 
L 2900 538 
Q 2691 219 2414 64 
Q 2138 -91 1772 -91 
Q 1169 -91 856 284 
Q 544 659 544 1381 
z
M 1991 3584 
L 1991 3584 
z
" transform="scale(0.015625)"/>
       <path id="DejaVuSans-72" d="M 2631 2963 
Q 2534 3019 2420 3045 
Q 2306 3072 2169 3072 
Q 1681 3072 1420 2755 
Q 1159 2438 1159 1844 
L 1159 0 
L 581 0 
L 581 3500 
L 1159 3500 
L 1159 2956 
Q 1341 3275 1631 3429 
Q 1922 3584 2338 3584 
Q 2397 3584 2469 3576 
Q 2541 3569 2628 3553 
L 2631 2963 
z
" transform="scale(0.015625)"/>
       <path id="DejaVuSans-79" d="M 2059 -325 
Q 1816 -950 1584 -1140 
Q 1353 -1331 966 -1331 
L 506 -1331 
L 506 -850 
L 844 -850 
Q 1081 -850 1212 -737 
Q 1344 -625 1503 -206 
L 1606 56 
L 191 3500 
L 800 3500 
L 1894 763 
L 2988 3500 
L 3597 3500 
L 2059 -325 
z
" transform="scale(0.015625)"/>
      </defs>
      <use xlink:href="#DejaVuSans-61"/>
      <use xlink:href="#DejaVuSans-63" x="61.279297"/>
      <use xlink:href="#DejaVuSans-63" x="116.259766"/>
      <use xlink:href="#DejaVuSans-75" x="171.240234"/>
      <use xlink:href="#DejaVuSans-72" x="234.619141"/>
      <use xlink:href="#DejaVuSans-61" x="275.732422"/>
      <use xlink:href="#DejaVuSans-63" x="337.011719"/>
      <use xlink:href="#DejaVuSans-79" x="391.992188"/>
     </g>
    </g>
    <g id="line2d_17">
     <path d="M 81 166.016562 
L 91 166.016562 
L 101 166.016562 
" style="fill: none; stroke: #ff7f0e; stroke-width: 1.5; stroke-linecap: square"/>
    </g>
    <g id="text_16">
     <!-- val_accuracy -->
     <g transform="translate(109 169.516562) scale(0.1 -0.1)">
      <defs>
       <path id="DejaVuSans-76" d="M 191 3500 
L 800 3500 
L 1894 563 
L 2988 3500 
L 3597 3500 
L 2284 0 
L 1503 0 
L 191 3500 
z
" transform="scale(0.015625)"/>
       <path id="DejaVuSans-6c" d="M 603 4863 
L 1178 4863 
L 1178 0 
L 603 0 
L 603 4863 
z
" transform="scale(0.015625)"/>
       <path id="DejaVuSans-5f" d="M 3263 -1063 
L 3263 -1509 
L -63 -1509 
L -63 -1063 
L 3263 -1063 
z
" transform="scale(0.015625)"/>
      </defs>
      <use xlink:href="#DejaVuSans-76"/>
      <use xlink:href="#DejaVuSans-61" x="59.179688"/>
      <use xlink:href="#DejaVuSans-6c" x="120.458984"/>
      <use xlink:href="#DejaVuSans-5f" x="148.242188"/>
      <use xlink:href="#DejaVuSans-61" x="198.242188"/>
      <use xlink:href="#DejaVuSans-63" x="259.521484"/>
      <use xlink:href="#DejaVuSans-63" x="314.501953"/>
      <use xlink:href="#DejaVuSans-75" x="369.482422"/>
      <use xlink:href="#DejaVuSans-72" x="432.861328"/>
      <use xlink:href="#DejaVuSans-61" x="473.974609"/>
      <use xlink:href="#DejaVuSans-63" x="535.253906"/>
      <use xlink:href="#DejaVuSans-79" x="590.234375"/>
     </g>
    </g>
   </g>
  </g>
  <g id="axes_2">
   <g id="patch_8">
    <path d="M 72 1025.28 
L 518.4 1025.28 
L 518.4 622.08 
L 72 622.08 
z
" style="fill: #ffffff"/>
   </g>
   <g id="matplotlib.axis_3">
    <g id="xtick_9">
     <g id="line2d_18">
      <g>
       <use xlink:href="#m934ebf0b59" x="92.290909" y="1025.28" style="stroke: #000000; stroke-width: 0.8"/>
      </g>
     </g>
     <g id="text_17">
      <!-- 0 -->
      <g transform="translate(89.109659 1039.878438) scale(0.1 -0.1)">
       <use xlink:href="#DejaVuSans-30"/>
      </g>
     </g>
    </g>
    <g id="xtick_10">
     <g id="line2d_19">
      <g>
       <use xlink:href="#m934ebf0b59" x="147.131204" y="1025.28" style="stroke: #000000; stroke-width: 0.8"/>
      </g>
     </g>
     <g id="text_18">
      <!-- 25 -->
      <g transform="translate(140.768704 1039.878438) scale(0.1 -0.1)">
       <use xlink:href="#DejaVuSans-32"/>
       <use xlink:href="#DejaVuSans-35" x="63.623047"/>
      </g>
     </g>
    </g>
    <g id="xtick_11">
     <g id="line2d_20">
      <g>
       <use xlink:href="#m934ebf0b59" x="201.971499" y="1025.28" style="stroke: #000000; stroke-width: 0.8"/>
      </g>
     </g>
     <g id="text_19">
      <!-- 50 -->
      <g transform="translate(195.608999 1039.878438) scale(0.1 -0.1)">
       <use xlink:href="#DejaVuSans-35"/>
       <use xlink:href="#DejaVuSans-30" x="63.623047"/>
      </g>
     </g>
    </g>
    <g id="xtick_12">
     <g id="line2d_21">
      <g>
       <use xlink:href="#m934ebf0b59" x="256.811794" y="1025.28" style="stroke: #000000; stroke-width: 0.8"/>
      </g>
     </g>
     <g id="text_20">
      <!-- 75 -->
      <g transform="translate(250.449294 1039.878438) scale(0.1 -0.1)">
       <use xlink:href="#DejaVuSans-37"/>
       <use xlink:href="#DejaVuSans-35" x="63.623047"/>
      </g>
     </g>
    </g>
    <g id="xtick_13">
     <g id="line2d_22">
      <g>
       <use xlink:href="#m934ebf0b59" x="311.652088" y="1025.28" style="stroke: #000000; stroke-width: 0.8"/>
      </g>
     </g>
     <g id="text_21">
      <!-- 100 -->
      <g transform="translate(302.108338 1039.878438) scale(0.1 -0.1)">
       <use xlink:href="#DejaVuSans-31"/>
       <use xlink:href="#DejaVuSans-30" x="63.623047"/>
       <use xlink:href="#DejaVuSans-30" x="127.246094"/>
      </g>
     </g>
    </g>
    <g id="xtick_14">
     <g id="line2d_23">
      <g>
       <use xlink:href="#m934ebf0b59" x="366.492383" y="1025.28" style="stroke: #000000; stroke-width: 0.8"/>
      </g>
     </g>
     <g id="text_22">
      <!-- 125 -->
      <g transform="translate(356.948633 1039.878438) scale(0.1 -0.1)">
       <use xlink:href="#DejaVuSans-31"/>
       <use xlink:href="#DejaVuSans-32" x="63.623047"/>
       <use xlink:href="#DejaVuSans-35" x="127.246094"/>
      </g>
     </g>
    </g>
    <g id="xtick_15">
     <g id="line2d_24">
      <g>
       <use xlink:href="#m934ebf0b59" x="421.332678" y="1025.28" style="stroke: #000000; stroke-width: 0.8"/>
      </g>
     </g>
     <g id="text_23">
      <!-- 150 -->
      <g transform="translate(411.788928 1039.878438) scale(0.1 -0.1)">
       <use xlink:href="#DejaVuSans-31"/>
       <use xlink:href="#DejaVuSans-35" x="63.623047"/>
       <use xlink:href="#DejaVuSans-30" x="127.246094"/>
      </g>
     </g>
    </g>
    <g id="xtick_16">
     <g id="line2d_25">
      <g>
       <use xlink:href="#m934ebf0b59" x="476.172973" y="1025.28" style="stroke: #000000; stroke-width: 0.8"/>
      </g>
     </g>
     <g id="text_24">
      <!-- 175 -->
      <g transform="translate(466.629223 1039.878438) scale(0.1 -0.1)">
       <use xlink:href="#DejaVuSans-31"/>
       <use xlink:href="#DejaVuSans-37" x="63.623047"/>
       <use xlink:href="#DejaVuSans-35" x="127.246094"/>
      </g>
     </g>
    </g>
    <g id="text_25">
     <!-- Epoch -->
     <g transform="translate(279.889062 1053.556562) scale(0.1 -0.1)">
      <use xlink:href="#DejaVuSans-45"/>
      <use xlink:href="#DejaVuSans-70" x="63.183594"/>
      <use xlink:href="#DejaVuSans-6f" x="126.660156"/>
      <use xlink:href="#DejaVuSans-63" x="187.841797"/>
      <use xlink:href="#DejaVuSans-68" x="242.822266"/>
     </g>
    </g>
   </g>
   <g id="matplotlib.axis_4">
    <g id="ytick_6">
     <g id="line2d_26">
      <g>
       <use xlink:href="#m6560b2ba08" x="72" y="1016.603502" style="stroke: #000000; stroke-width: 0.8"/>
      </g>
     </g>
     <g id="text_26">
      <!-- 0.0 -->
      <g transform="translate(49.096875 1020.402721) scale(0.1 -0.1)">
       <use xlink:href="#DejaVuSans-30"/>
       <use xlink:href="#DejaVuSans-2e" x="63.623047"/>
       <use xlink:href="#DejaVuSans-30" x="95.410156"/>
      </g>
     </g>
    </g>
    <g id="ytick_7">
     <g id="line2d_27">
      <g>
       <use xlink:href="#m6560b2ba08" x="72" y="929.009152" style="stroke: #000000; stroke-width: 0.8"/>
      </g>
     </g>
     <g id="text_27">
      <!-- 0.5 -->
      <g transform="translate(49.096875 932.808371) scale(0.1 -0.1)">
       <use xlink:href="#DejaVuSans-30"/>
       <use xlink:href="#DejaVuSans-2e" x="63.623047"/>
       <use xlink:href="#DejaVuSans-35" x="95.410156"/>
      </g>
     </g>
    </g>
    <g id="ytick_8">
     <g id="line2d_28">
      <g>
       <use xlink:href="#m6560b2ba08" x="72" y="841.414802" style="stroke: #000000; stroke-width: 0.8"/>
      </g>
     </g>
     <g id="text_28">
      <!-- 1.0 -->
      <g transform="translate(49.096875 845.214021) scale(0.1 -0.1)">
       <use xlink:href="#DejaVuSans-31"/>
       <use xlink:href="#DejaVuSans-2e" x="63.623047"/>
       <use xlink:href="#DejaVuSans-30" x="95.410156"/>
      </g>
     </g>
    </g>
    <g id="ytick_9">
     <g id="line2d_29">
      <g>
       <use xlink:href="#m6560b2ba08" x="72" y="753.820452" style="stroke: #000000; stroke-width: 0.8"/>
      </g>
     </g>
     <g id="text_29">
      <!-- 1.5 -->
      <g transform="translate(49.096875 757.619671) scale(0.1 -0.1)">
       <use xlink:href="#DejaVuSans-31"/>
       <use xlink:href="#DejaVuSans-2e" x="63.623047"/>
       <use xlink:href="#DejaVuSans-35" x="95.410156"/>
      </g>
     </g>
    </g>
    <g id="ytick_10">
     <g id="line2d_30">
      <g>
       <use xlink:href="#m6560b2ba08" x="72" y="666.226102" style="stroke: #000000; stroke-width: 0.8"/>
      </g>
     </g>
     <g id="text_30">
      <!-- 2.0 -->
      <g transform="translate(49.096875 670.025321) scale(0.1 -0.1)">
       <use xlink:href="#DejaVuSans-32"/>
       <use xlink:href="#DejaVuSans-2e" x="63.623047"/>
       <use xlink:href="#DejaVuSans-30" x="95.410156"/>
      </g>
     </g>
    </g>
   </g>
   <g id="line2d_31">
    <path d="M 92.290909 833.516511 
L 94.484521 919.145049 
L 96.678133 932.585015 
L 98.871744 944.272212 
L 101.065356 948.707112 
L 103.258968 955.758155 
L 105.45258 956.879094 
L 107.646192 959.617524 
L 109.839803 965.228357 
L 112.033415 965.126124 
L 114.227027 967.243439 
L 116.420639 966.006295 
L 118.614251 971.359287 
L 120.807862 971.006157 
L 123.001474 977.031307 
L 125.195086 974.91247 
L 127.388698 977.808181 
L 129.58231 967.672749 
L 131.775921 967.162921 
L 133.969533 975.813606 
L 136.163145 977.388431 
L 138.356757 980.767664 
L 140.550369 981.423828 
L 142.74398 983.033074 
L 144.937592 981.451653 
L 147.131204 983.465595 
L 149.324816 983.684147 
L 151.518428 980.634927 
L 153.712039 984.454709 
L 155.905651 984.52945 
L 158.099263 983.70599 
L 160.292875 985.823245 
L 162.486486 983.299326 
L 164.680098 985.379854 
L 166.87371 990.097582 
L 169.067322 986.258875 
L 171.260934 988.745195 
L 173.454545 988.686583 
L 175.648157 986.816436 
L 177.841769 987.853302 
L 180.035381 985.036436 
L 182.228993 988.816415 
L 184.422604 974.331262 
L 186.616216 986.908329 
L 188.809828 986.620632 
L 191.00344 992.771141 
L 193.197052 995.378384 
L 195.390663 990.226492 
L 197.584275 994.398732 
L 199.777887 991.543142 
L 201.971499 986.629171 
L 204.165111 993.370651 
L 206.358722 995.066854 
L 208.552334 994.193032 
L 210.745946 996.352746 
L 212.939558 995.7019 
L 215.13317 990.447321 
L 217.326781 996.260323 
L 219.520393 995.528399 
L 221.714005 993.966723 
L 223.907617 993.565396 
L 226.101229 996.500299 
L 228.29484 996.94362 
L 230.488452 994.956039 
L 232.682064 993.635144 
L 234.875676 996.391649 
L 237.069287 996.389589 
L 239.262899 993.609652 
L 241.456511 995.367723 
L 245.843735 998.249412 
L 248.037346 989.775928 
L 250.230958 996.653562 
L 252.42457 997.139395 
L 254.618182 992.530462 
L 256.811794 996.896409 
L 259.005405 998.41055 
L 261.199017 995.888297 
L 263.392629 1000.602264 
L 267.779853 993.316058 
L 269.973464 999.493146 
L 272.167076 997.731213 
L 274.360688 995.742555 
L 276.5543 1002.069726 
L 278.747912 999.733902 
L 280.941523 997.825189 
L 283.135135 1000.04143 
L 285.328747 1001.152868 
L 287.522359 994.369043 
L 289.715971 999.464669 
L 291.909582 998.85644 
L 294.103194 995.210228 
L 296.296806 997.766092 
L 298.490418 994.35392 
L 300.684029 1001.864713 
L 302.877641 1001.584 
L 305.071253 999.337983 
L 307.264865 996.391111 
L 309.458477 994.291286 
L 311.652088 1001.306624 
L 313.8457 1000.173631 
L 316.039312 999.505059 
L 318.232924 997.318258 
L 320.426536 1001.483588 
L 322.620147 1003.690523 
L 324.813759 1000.685882 
L 327.007371 1001.99684 
L 329.200983 1002.654978 
L 331.394595 1001.983945 
L 333.588206 998.813883 
L 335.781818 1004.192685 
L 337.97543 1002.485599 
L 340.169042 1001.889622 
L 344.556265 1002.67171 
L 346.749877 1000.817715 
L 348.943489 997.830727 
L 351.137101 1000.265263 
L 353.330713 1005.00002 
L 355.524324 1000.752785 
L 357.717936 1001.185959 
L 359.911548 1003.938002 
L 362.10516 1001.013926 
L 364.298771 1002.986435 
L 366.492383 1003.302175 
L 368.685995 1005.023411 
L 370.879607 1003.765952 
L 373.073219 999.513967 
L 375.26683 1002.582556 
L 377.460442 1000.703236 
L 379.654054 1001.918029 
L 384.041278 1003.784394 
L 386.234889 1001.214907 
L 388.428501 1002.046963 
L 390.622113 1001.51155 
L 392.815725 1001.136878 
L 395.009337 1001.755715 
L 397.202948 1002.629151 
L 399.39656 1005.200922 
L 401.590172 1003.744268 
L 403.783784 1003.989568 
L 405.977396 1003.01425 
L 408.171007 1001.820972 
L 410.364619 1003.031702 
L 412.558231 998.927513 
L 414.751843 995.695007 
L 416.945455 1000.808346 
L 419.139066 1005.63329 
L 421.332678 1004.935819 
L 423.52629 1001.527318 
L 425.719902 1001.434421 
L 427.913514 994.954627 
L 430.107125 1004.5563 
L 432.300737 1006.261643 
L 434.494349 1004.772639 
L 436.687961 1005.583348 
L 438.881572 1006.624399 
L 441.075184 1005.588394 
L 443.268796 1003.662325 
L 445.462408 1002.928182 
L 447.65602 998.272596 
L 449.849631 1003.072133 
L 452.043243 1002.718654 
L 454.236855 1004.507177 
L 456.430467 1004.285847 
L 458.624079 1005.806431 
L 460.81769 1003.524174 
L 463.011302 1006.911929 
L 465.204914 1005.801132 
L 467.398526 1004.954221 
L 469.592138 1005.667936 
L 471.785749 999.084673 
L 473.979361 1003.400882 
L 476.172973 1004.266467 
L 478.366585 1006.527153 
L 480.560197 1006.04342 
L 482.753808 1005.216298 
L 484.94742 1004.882107 
L 487.141032 1005.507013 
L 489.334644 1004.779977 
L 491.528256 1006.952727 
L 493.721867 1005.402835 
L 495.915479 1006.517949 
L 498.109091 1003.594205 
L 498.109091 1003.594205 
" clip-path="url(#pd1f4d9248a)" style="fill: none; stroke: #1f77b4; stroke-width: 1.5; stroke-linecap: square"/>
   </g>
   <g id="line2d_32">
    <path d="M 92.290909 692.279836 
L 94.484521 640.407273 
L 96.678133 693.748908 
L 98.871744 835.088563 
L 101.065356 893.118976 
L 103.258968 925.715663 
L 105.45258 931.635513 
L 107.646192 916.829261 
L 109.839803 941.445071 
L 112.033415 937.414546 
L 114.227027 942.51674 
L 116.420639 938.089411 
L 118.614251 944.982366 
L 120.807862 943.923395 
L 123.001474 950.653105 
L 125.195086 950.735451 
L 127.388698 945.018652 
L 129.58231 945.753847 
L 131.775921 952.647517 
L 133.969533 957.386578 
L 136.163145 956.647667 
L 138.356757 951.255173 
L 140.550369 952.797131 
L 142.74398 951.170326 
L 144.937592 947.900901 
L 147.131204 951.162635 
L 149.324816 948.852183 
L 151.518428 956.202282 
L 153.712039 958.470903 
L 155.905651 955.994798 
L 158.099263 964.455937 
L 160.292875 958.560402 
L 162.486486 955.020575 
L 164.680098 960.582266 
L 166.87371 949.841151 
L 169.067322 959.028143 
L 171.260934 956.926 
L 173.454545 956.23897 
L 175.648157 957.980048 
L 177.841769 946.688458 
L 180.035381 957.228407 
L 182.228993 954.511023 
L 184.422604 956.576029 
L 186.616216 956.669063 
L 188.809828 964.107187 
L 191.00344 958.846373 
L 193.197052 956.292532 
L 195.390663 958.465342 
L 197.584275 959.423114 
L 199.777887 962.593982 
L 201.971499 956.262955 
L 204.165111 957.999955 
L 206.358722 951.241384 
L 208.552334 957.349634 
L 210.745946 965.559156 
L 212.939558 961.043529 
L 215.13317 959.152701 
L 217.326781 957.100487 
L 219.520393 963.226838 
L 221.714005 962.196066 
L 223.907617 970.845606 
L 226.101229 959.616663 
L 228.29484 958.355758 
L 230.488452 967.902814 
L 232.682064 966.410116 
L 234.875676 968.458222 
L 237.069287 965.022382 
L 239.262899 960.007441 
L 241.456511 970.662509 
L 243.650123 970.94114 
L 245.843735 964.819388 
L 248.037346 965.540694 
L 250.230958 967.041735 
L 252.42457 953.609711 
L 254.618182 965.736812 
L 256.811794 963.374567 
L 259.005405 968.08307 
L 261.199017 968.033606 
L 263.392629 962.171397 
L 265.586241 961.51338 
L 267.779853 968.07445 
L 269.973464 966.264413 
L 272.167076 969.601398 
L 274.360688 969.464189 
L 276.5543 967.878087 
L 278.747912 967.613793 
L 280.941523 970.539345 
L 283.135135 961.087474 
L 285.328747 970.974314 
L 287.522359 963.493779 
L 289.715971 968.920267 
L 291.909582 955.9835 
L 294.103194 966.190901 
L 296.296806 966.888263 
L 298.490418 963.45353 
L 300.684029 966.307852 
L 302.877641 967.761068 
L 305.071253 968.117174 
L 307.264865 962.738077 
L 309.458477 966.912264 
L 311.652088 963.109229 
L 313.8457 969.649958 
L 316.039312 964.432901 
L 318.232924 970.613557 
L 320.426536 970.109195 
L 322.620147 974.150706 
L 324.813759 969.597492 
L 327.007371 967.050752 
L 329.200983 968.627702 
L 331.394595 968.424776 
L 333.588206 959.067651 
L 335.781818 958.018636 
L 337.97543 956.829943 
L 340.169042 965.001868 
L 342.362654 964.350373 
L 344.556265 961.173475 
L 346.749877 966.374117 
L 348.943489 965.20269 
L 351.137101 969.690641 
L 353.330713 961.774238 
L 355.524324 962.41018 
L 357.717936 966.789763 
L 362.10516 961.734375 
L 364.298771 966.620085 
L 366.492383 965.949125 
L 368.685995 962.786956 
L 370.879607 957.136715 
L 373.073219 963.811849 
L 375.26683 960.091667 
L 377.460442 964.023479 
L 379.654054 953.683552 
L 381.847666 959.562176 
L 384.041278 962.369728 
L 386.234889 969.063658 
L 388.428501 958.408767 
L 390.622113 957.243063 
L 392.815725 965.330266 
L 395.009337 968.721957 
L 397.202948 958.350845 
L 399.39656 958.551218 
L 401.590172 960.820439 
L 403.783784 966.416715 
L 405.977396 963.670245 
L 408.171007 968.291551 
L 410.364619 968.078836 
L 412.558231 961.454805 
L 414.751843 964.260279 
L 416.945455 969.186357 
L 419.139066 964.966318 
L 421.332678 966.046957 
L 423.52629 968.414814 
L 425.719902 963.972955 
L 427.913514 963.675403 
L 430.107125 967.23825 
L 432.300737 965.587866 
L 434.494349 969.730686 
L 436.687961 968.564522 
L 438.881572 965.806022 
L 441.075184 962.831335 
L 443.268796 965.121963 
L 445.462408 970.804892 
L 447.65602 966.716262 
L 449.849631 964.760542 
L 452.043243 965.61678 
L 454.236855 963.5336 
L 456.430467 965.094218 
L 458.624079 965.645976 
L 460.81769 955.557698 
L 463.011302 963.821075 
L 465.204914 962.641629 
L 467.398526 964.748998 
L 469.592138 960.041926 
L 471.785749 969.256857 
L 473.979361 952.629792 
L 476.172973 965.691316 
L 478.366585 968.279386 
L 480.560197 961.063703 
L 482.753808 952.515498 
L 484.94742 962.56183 
L 487.141032 958.921311 
L 489.334644 960.793327 
L 491.528256 958.723851 
L 493.721867 964.335179 
L 495.915479 957.809445 
L 498.109091 962.087145 
L 498.109091 962.087145 
" clip-path="url(#pd1f4d9248a)" style="fill: none; stroke: #ff7f0e; stroke-width: 1.5; stroke-linecap: square"/>
   </g>
   <g id="patch_9">
    <path d="M 72 1025.28 
L 72 622.08 
" style="fill: none; stroke: #000000; stroke-width: 0.8; stroke-linejoin: miter; stroke-linecap: square"/>
   </g>
   <g id="patch_10">
    <path d="M 518.4 1025.28 
L 518.4 622.08 
" style="fill: none; stroke: #000000; stroke-width: 0.8; stroke-linejoin: miter; stroke-linecap: square"/>
   </g>
   <g id="patch_11">
    <path d="M 72 1025.28 
L 518.4 1025.28 
" style="fill: none; stroke: #000000; stroke-width: 0.8; stroke-linejoin: miter; stroke-linecap: square"/>
   </g>
   <g id="patch_12">
    <path d="M 72 622.08 
L 518.4 622.08 
" style="fill: none; stroke: #000000; stroke-width: 0.8; stroke-linejoin: miter; stroke-linecap: square"/>
   </g>
   <g id="legend_2">
    <g id="patch_13">
     <path d="M 79 659.714375 
L 150.140625 659.714375 
Q 152.140625 659.714375 152.140625 657.714375 
L 152.140625 629.08 
Q 152.140625 627.08 150.140625 627.08 
L 79 627.08 
Q 77 627.08 77 629.08 
L 77 657.714375 
Q 77 659.714375 79 659.714375 
z
" style="fill: #ffffff; opacity: 0.8; stroke: #cccccc; stroke-linejoin: miter"/>
    </g>
    <g id="line2d_33">
     <path d="M 81 635.178437 
L 91 635.178437 
L 101 635.178437 
" style="fill: none; stroke: #1f77b4; stroke-width: 1.5; stroke-linecap: square"/>
    </g>
    <g id="text_31">
     <!-- loss -->
     <g transform="translate(109 638.678437) scale(0.1 -0.1)">
      <defs>
       <path id="DejaVuSans-73" d="M 2834 3397 
L 2834 2853 
Q 2591 2978 2328 3040 
Q 2066 3103 1784 3103 
Q 1356 3103 1142 2972 
Q 928 2841 928 2578 
Q 928 2378 1081 2264 
Q 1234 2150 1697 2047 
L 1894 2003 
Q 2506 1872 2764 1633 
Q 3022 1394 3022 966 
Q 3022 478 2636 193 
Q 2250 -91 1575 -91 
Q 1294 -91 989 -36 
Q 684 19 347 128 
L 347 722 
Q 666 556 975 473 
Q 1284 391 1588 391 
Q 1994 391 2212 530 
Q 2431 669 2431 922 
Q 2431 1156 2273 1281 
Q 2116 1406 1581 1522 
L 1381 1569 
Q 847 1681 609 1914 
Q 372 2147 372 2553 
Q 372 3047 722 3315 
Q 1072 3584 1716 3584 
Q 2034 3584 2315 3537 
Q 2597 3491 2834 3397 
z
" transform="scale(0.015625)"/>
      </defs>
      <use xlink:href="#DejaVuSans-6c"/>
      <use xlink:href="#DejaVuSans-6f" x="27.783203"/>
      <use xlink:href="#DejaVuSans-73" x="88.964844"/>
      <use xlink:href="#DejaVuSans-73" x="141.064453"/>
     </g>
    </g>
    <g id="line2d_34">
     <path d="M 81 649.856562 
L 91 649.856562 
L 101 649.856562 
" style="fill: none; stroke: #ff7f0e; stroke-width: 1.5; stroke-linecap: square"/>
    </g>
    <g id="text_32">
     <!-- val_loss -->
     <g transform="translate(109 653.356562) scale(0.1 -0.1)">
      <use xlink:href="#DejaVuSans-76"/>
      <use xlink:href="#DejaVuSans-61" x="59.179688"/>
      <use xlink:href="#DejaVuSans-6c" x="120.458984"/>
      <use xlink:href="#DejaVuSans-5f" x="148.242188"/>
      <use xlink:href="#DejaVuSans-6c" x="198.242188"/>
      <use xlink:href="#DejaVuSans-6f" x="226.025391"/>
      <use xlink:href="#DejaVuSans-73" x="287.207031"/>
      <use xlink:href="#DejaVuSans-73" x="339.306641"/>
     </g>
    </g>
   </g>
  </g>
 </g>
 <defs>
  <clipPath id="p5fb52507ec">
   <rect x="72" y="138.24" width="446.4" height="403.2"/>
  </clipPath>
  <clipPath id="pd1f4d9248a">
   <rect x="72" y="622.08" width="446.4" height="403.2"/>
  </clipPath>
 </defs>
</svg>
