<?xml version="1.0" encoding="utf-8" standalone="no"?>
<!DOCTYPE svg PUBLIC "-//W3C//DTD SVG 1.1//EN"
  "http://www.w3.org/Graphics/SVG/1.1/DTD/svg11.dtd">
<svg xmlns:xlink="http://www.w3.org/1999/xlink" width="576pt" height="1152pt" viewBox="0 0 576 1152" xmlns="http://www.w3.org/2000/svg" version="1.1">
 <metadata>
  <rdf:RDF xmlns:dc="http://purl.org/dc/elements/1.1/" xmlns:cc="http://creativecommons.org/ns#" xmlns:rdf="http://www.w3.org/1999/02/22-rdf-syntax-ns#">
   <cc:Work>
    <dc:type rdf:resource="http://purl.org/dc/dcmitype/StillImage"/>
    <dc:date>2023-11-16T12:54:43.059724</dc:date>
    <dc:format>image/svg+xml</dc:format>
    <dc:creator>
     <cc:Agent>
      <dc:title>Matplotlib v3.7.3, https://matplotlib.org/</dc:title>
     </cc:Agent>
    </dc:creator>
   </cc:Work>
  </rdf:RDF>
 </metadata>
 <defs>
  <style type="text/css">*{stroke-linejoin: round; stroke-linecap: butt}</style>
 </defs>
 <g id="figure_1">
  <g id="patch_1">
   <path d="M 0 1152 
L 576 1152 
L 576 0 
L 0 0 
z
" style="fill: #ffffff"/>
  </g>
  <g id="axes_1">
   <g id="patch_2">
    <path d="M 72 541.44 
L 518.4 541.44 
L 518.4 138.24 
L 72 138.24 
z
" style="fill: #ffffff"/>
   </g>
   <g id="matplotlib.axis_1">
    <g id="xtick_1">
     <g id="line2d_1">
      <defs>
       <path id="m3940c9897e" d="M 0 0 
L 0 3.5 
" style="stroke: #000000; stroke-width: 0.8"/>
      </defs>
      <g>
       <use xlink:href="#m3940c9897e" x="92.290909" y="541.44" style="stroke: #000000; stroke-width: 0.8"/>
      </g>
     </g>
     <g id="text_1">
      <!-- 0 -->
      <g transform="translate(89.109659 556.038437) scale(0.1 -0.1)">
       <defs>
        <path id="DejaVuSans-30" d="M 2034 4250 
Q 1547 4250 1301 3770 
Q 1056 3291 1056 2328 
Q 1056 1369 1301 889 
Q 1547 409 2034 409 
Q 2525 409 2770 889 
Q 3016 1369 3016 2328 
Q 3016 3291 2770 3770 
Q 2525 4250 2034 4250 
z
M 2034 4750 
Q 2819 4750 3233 4129 
Q 3647 3509 3647 2328 
Q 3647 1150 3233 529 
Q 2819 -91 2034 -91 
Q 1250 -91 836 529 
Q 422 1150 422 2328 
Q 422 3509 836 4129 
Q 1250 4750 2034 4750 
z
" transform="scale(0.015625)"/>
       </defs>
       <use xlink:href="#DejaVuSans-30"/>
      </g>
     </g>
    </g>
    <g id="xtick_2">
     <g id="line2d_2">
      <g>
       <use xlink:href="#m3940c9897e" x="183.281533" y="541.44" style="stroke: #000000; stroke-width: 0.8"/>
      </g>
     </g>
     <g id="text_2">
      <!-- 50 -->
      <g transform="translate(176.919033 556.038437) scale(0.1 -0.1)">
       <defs>
        <path id="DejaVuSans-35" d="M 691 4666 
L 3169 4666 
L 3169 4134 
L 1269 4134 
L 1269 2991 
Q 1406 3038 1543 3061 
Q 1681 3084 1819 3084 
Q 2600 3084 3056 2656 
Q 3513 2228 3513 1497 
Q 3513 744 3044 326 
Q 2575 -91 1722 -91 
Q 1428 -91 1123 -41 
Q 819 9 494 109 
L 494 744 
Q 775 591 1075 516 
Q 1375 441 1709 441 
Q 2250 441 2565 725 
Q 2881 1009 2881 1497 
Q 2881 1984 2565 2268 
Q 2250 2553 1709 2553 
Q 1456 2553 1204 2497 
Q 953 2441 691 2322 
L 691 4666 
z
" transform="scale(0.015625)"/>
       </defs>
       <use xlink:href="#DejaVuSans-35"/>
       <use xlink:href="#DejaVuSans-30" x="63.623047"/>
      </g>
     </g>
    </g>
    <g id="xtick_3">
     <g id="line2d_3">
      <g>
       <use xlink:href="#m3940c9897e" x="274.272157" y="541.44" style="stroke: #000000; stroke-width: 0.8"/>
      </g>
     </g>
     <g id="text_3">
      <!-- 100 -->
      <g transform="translate(264.728407 556.038437) scale(0.1 -0.1)">
       <defs>
        <path id="DejaVuSans-31" d="M 794 531 
L 1825 531 
L 1825 4091 
L 703 3866 
L 703 4441 
L 1819 4666 
L 2450 4666 
L 2450 531 
L 3481 531 
L 3481 0 
L 794 0 
L 794 531 
z
" transform="scale(0.015625)"/>
       </defs>
       <use xlink:href="#DejaVuSans-31"/>
       <use xlink:href="#DejaVuSans-30" x="63.623047"/>
       <use xlink:href="#DejaVuSans-30" x="127.246094"/>
      </g>
     </g>
    </g>
    <g id="xtick_4">
     <g id="line2d_4">
      <g>
       <use xlink:href="#m3940c9897e" x="365.26278" y="541.44" style="stroke: #000000; stroke-width: 0.8"/>
      </g>
     </g>
     <g id="text_4">
      <!-- 150 -->
      <g transform="translate(355.71903 556.038437) scale(0.1 -0.1)">
       <use xlink:href="#DejaVuSans-31"/>
       <use xlink:href="#DejaVuSans-35" x="63.623047"/>
       <use xlink:href="#DejaVuSans-30" x="127.246094"/>
      </g>
     </g>
    </g>
    <g id="xtick_5">
     <g id="line2d_5">
      <g>
       <use xlink:href="#m3940c9897e" x="456.253404" y="541.44" style="stroke: #000000; stroke-width: 0.8"/>
      </g>
     </g>
     <g id="text_5">
      <!-- 200 -->
      <g transform="translate(446.709654 556.038437) scale(0.1 -0.1)">
       <defs>
        <path id="DejaVuSans-32" d="M 1228 531 
L 3431 531 
L 3431 0 
L 469 0 
L 469 531 
Q 828 903 1448 1529 
Q 2069 2156 2228 2338 
Q 2531 2678 2651 2914 
Q 2772 3150 2772 3378 
Q 2772 3750 2511 3984 
Q 2250 4219 1831 4219 
Q 1534 4219 1204 4116 
Q 875 4013 500 3803 
L 500 4441 
Q 881 4594 1212 4672 
Q 1544 4750 1819 4750 
Q 2544 4750 2975 4387 
Q 3406 4025 3406 3419 
Q 3406 3131 3298 2873 
Q 3191 2616 2906 2266 
Q 2828 2175 2409 1742 
Q 1991 1309 1228 531 
z
" transform="scale(0.015625)"/>
       </defs>
       <use xlink:href="#DejaVuSans-32"/>
       <use xlink:href="#DejaVuSans-30" x="63.623047"/>
       <use xlink:href="#DejaVuSans-30" x="127.246094"/>
      </g>
     </g>
    </g>
    <g id="text_6">
     <!-- Epoch -->
     <g transform="translate(279.889062 569.716563) scale(0.1 -0.1)">
      <defs>
       <path id="DejaVuSans-45" d="M 628 4666 
L 3578 4666 
L 3578 4134 
L 1259 4134 
L 1259 2753 
L 3481 2753 
L 3481 2222 
L 1259 2222 
L 1259 531 
L 3634 531 
L 3634 0 
L 628 0 
L 628 4666 
z
" transform="scale(0.015625)"/>
       <path id="DejaVuSans-70" d="M 1159 525 
L 1159 -1331 
L 581 -1331 
L 581 3500 
L 1159 3500 
L 1159 2969 
Q 1341 3281 1617 3432 
Q 1894 3584 2278 3584 
Q 2916 3584 3314 3078 
Q 3713 2572 3713 1747 
Q 3713 922 3314 415 
Q 2916 -91 2278 -91 
Q 1894 -91 1617 61 
Q 1341 213 1159 525 
z
M 3116 1747 
Q 3116 2381 2855 2742 
Q 2594 3103 2138 3103 
Q 1681 3103 1420 2742 
Q 1159 2381 1159 1747 
Q 1159 1113 1420 752 
Q 1681 391 2138 391 
Q 2594 391 2855 752 
Q 3116 1113 3116 1747 
z
" transform="scale(0.015625)"/>
       <path id="DejaVuSans-6f" d="M 1959 3097 
Q 1497 3097 1228 2736 
Q 959 2375 959 1747 
Q 959 1119 1226 758 
Q 1494 397 1959 397 
Q 2419 397 2687 759 
Q 2956 1122 2956 1747 
Q 2956 2369 2687 2733 
Q 2419 3097 1959 3097 
z
M 1959 3584 
Q 2709 3584 3137 3096 
Q 3566 2609 3566 1747 
Q 3566 888 3137 398 
Q 2709 -91 1959 -91 
Q 1206 -91 779 398 
Q 353 888 353 1747 
Q 353 2609 779 3096 
Q 1206 3584 1959 3584 
z
" transform="scale(0.015625)"/>
       <path id="DejaVuSans-63" d="M 3122 3366 
L 3122 2828 
Q 2878 2963 2633 3030 
Q 2388 3097 2138 3097 
Q 1578 3097 1268 2742 
Q 959 2388 959 1747 
Q 959 1106 1268 751 
Q 1578 397 2138 397 
Q 2388 397 2633 464 
Q 2878 531 3122 666 
L 3122 134 
Q 2881 22 2623 -34 
Q 2366 -91 2075 -91 
Q 1284 -91 818 406 
Q 353 903 353 1747 
Q 353 2603 823 3093 
Q 1294 3584 2113 3584 
Q 2378 3584 2631 3529 
Q 2884 3475 3122 3366 
z
" transform="scale(0.015625)"/>
       <path id="DejaVuSans-68" d="M 3513 2113 
L 3513 0 
L 2938 0 
L 2938 2094 
Q 2938 2591 2744 2837 
Q 2550 3084 2163 3084 
Q 1697 3084 1428 2787 
Q 1159 2491 1159 1978 
L 1159 0 
L 581 0 
L 581 4863 
L 1159 4863 
L 1159 2956 
Q 1366 3272 1645 3428 
Q 1925 3584 2291 3584 
Q 2894 3584 3203 3211 
Q 3513 2838 3513 2113 
z
" transform="scale(0.015625)"/>
      </defs>
      <use xlink:href="#DejaVuSans-45"/>
      <use xlink:href="#DejaVuSans-70" x="63.183594"/>
      <use xlink:href="#DejaVuSans-6f" x="126.660156"/>
      <use xlink:href="#DejaVuSans-63" x="187.841797"/>
      <use xlink:href="#DejaVuSans-68" x="242.822266"/>
     </g>
    </g>
   </g>
   <g id="matplotlib.axis_2">
    <g id="ytick_1">
     <g id="line2d_6">
      <defs>
       <path id="m3f95fd1f73" d="M 0 0 
L -3.5 0 
" style="stroke: #000000; stroke-width: 0.8"/>
      </defs>
      <g>
       <use xlink:href="#m3f95fd1f73" x="72" y="500.74793" style="stroke: #000000; stroke-width: 0.8"/>
      </g>
     </g>
     <g id="text_7">
      <!-- 0.2 -->
      <g transform="translate(49.096875 504.547149) scale(0.1 -0.1)">
       <defs>
        <path id="DejaVuSans-2e" d="M 684 794 
L 1344 794 
L 1344 0 
L 684 0 
L 684 794 
z
" transform="scale(0.015625)"/>
       </defs>
       <use xlink:href="#DejaVuSans-30"/>
       <use xlink:href="#DejaVuSans-2e" x="63.623047"/>
       <use xlink:href="#DejaVuSans-32" x="95.410156"/>
      </g>
     </g>
    </g>
    <g id="ytick_2">
     <g id="line2d_7">
      <g>
       <use xlink:href="#m3f95fd1f73" x="72" y="413.009101" style="stroke: #000000; stroke-width: 0.8"/>
      </g>
     </g>
     <g id="text_8">
      <!-- 0.4 -->
      <g transform="translate(49.096875 416.808319) scale(0.1 -0.1)">
       <defs>
        <path id="DejaVuSans-34" d="M 2419 4116 
L 825 1625 
L 2419 1625 
L 2419 4116 
z
M 2253 4666 
L 3047 4666 
L 3047 1625 
L 3713 1625 
L 3713 1100 
L 3047 1100 
L 3047 0 
L 2419 0 
L 2419 1100 
L 313 1100 
L 313 1709 
L 2253 4666 
z
" transform="scale(0.015625)"/>
       </defs>
       <use xlink:href="#DejaVuSans-30"/>
       <use xlink:href="#DejaVuSans-2e" x="63.623047"/>
       <use xlink:href="#DejaVuSans-34" x="95.410156"/>
      </g>
     </g>
    </g>
    <g id="ytick_3">
     <g id="line2d_8">
      <g>
       <use xlink:href="#m3f95fd1f73" x="72" y="325.270271" style="stroke: #000000; stroke-width: 0.8"/>
      </g>
     </g>
     <g id="text_9">
      <!-- 0.6 -->
      <g transform="translate(49.096875 329.06949) scale(0.1 -0.1)">
       <defs>
        <path id="DejaVuSans-36" d="M 2113 2584 
Q 1688 2584 1439 2293 
Q 1191 2003 1191 1497 
Q 1191 994 1439 701 
Q 1688 409 2113 409 
Q 2538 409 2786 701 
Q 3034 994 3034 1497 
Q 3034 2003 2786 2293 
Q 2538 2584 2113 2584 
z
M 3366 4563 
L 3366 3988 
Q 3128 4100 2886 4159 
Q 2644 4219 2406 4219 
Q 1781 4219 1451 3797 
Q 1122 3375 1075 2522 
Q 1259 2794 1537 2939 
Q 1816 3084 2150 3084 
Q 2853 3084 3261 2657 
Q 3669 2231 3669 1497 
Q 3669 778 3244 343 
Q 2819 -91 2113 -91 
Q 1303 -91 875 529 
Q 447 1150 447 2328 
Q 447 3434 972 4092 
Q 1497 4750 2381 4750 
Q 2619 4750 2861 4703 
Q 3103 4656 3366 4563 
z
" transform="scale(0.015625)"/>
       </defs>
       <use xlink:href="#DejaVuSans-30"/>
       <use xlink:href="#DejaVuSans-2e" x="63.623047"/>
       <use xlink:href="#DejaVuSans-36" x="95.410156"/>
      </g>
     </g>
    </g>
    <g id="ytick_4">
     <g id="line2d_9">
      <g>
       <use xlink:href="#m3f95fd1f73" x="72" y="237.531441" style="stroke: #000000; stroke-width: 0.8"/>
      </g>
     </g>
     <g id="text_10">
      <!-- 0.8 -->
      <g transform="translate(49.096875 241.33066) scale(0.1 -0.1)">
       <defs>
        <path id="DejaVuSans-38" d="M 2034 2216 
Q 1584 2216 1326 1975 
Q 1069 1734 1069 1313 
Q 1069 891 1326 650 
Q 1584 409 2034 409 
Q 2484 409 2743 651 
Q 3003 894 3003 1313 
Q 3003 1734 2745 1975 
Q 2488 2216 2034 2216 
z
M 1403 2484 
Q 997 2584 770 2862 
Q 544 3141 544 3541 
Q 544 4100 942 4425 
Q 1341 4750 2034 4750 
Q 2731 4750 3128 4425 
Q 3525 4100 3525 3541 
Q 3525 3141 3298 2862 
Q 3072 2584 2669 2484 
Q 3125 2378 3379 2068 
Q 3634 1759 3634 1313 
Q 3634 634 3220 271 
Q 2806 -91 2034 -91 
Q 1263 -91 848 271 
Q 434 634 434 1313 
Q 434 1759 690 2068 
Q 947 2378 1403 2484 
z
M 1172 3481 
Q 1172 3119 1398 2916 
Q 1625 2713 2034 2713 
Q 2441 2713 2670 2916 
Q 2900 3119 2900 3481 
Q 2900 3844 2670 4047 
Q 2441 4250 2034 4250 
Q 1625 4250 1398 4047 
Q 1172 3844 1172 3481 
z
" transform="scale(0.015625)"/>
       </defs>
       <use xlink:href="#DejaVuSans-30"/>
       <use xlink:href="#DejaVuSans-2e" x="63.623047"/>
       <use xlink:href="#DejaVuSans-38" x="95.410156"/>
      </g>
     </g>
    </g>
    <g id="ytick_5">
     <g id="line2d_10">
      <g>
       <use xlink:href="#m3f95fd1f73" x="72" y="149.792612" style="stroke: #000000; stroke-width: 0.8"/>
      </g>
     </g>
     <g id="text_11">
      <!-- 1.0 -->
      <g transform="translate(49.096875 153.59183) scale(0.1 -0.1)">
       <use xlink:href="#DejaVuSans-31"/>
       <use xlink:href="#DejaVuSans-2e" x="63.623047"/>
       <use xlink:href="#DejaVuSans-30" x="95.410156"/>
      </g>
     </g>
    </g>
   </g>
   <g id="line2d_11">
    <path d="M 92.290909 344.737053 
L 94.110722 250.306536 
L 95.930534 236.757188 
L 97.750347 219.060106 
L 99.570159 214.635829 
L 101.389971 214.359312 
L 103.209784 210.211578 
L 105.029596 207.446405 
L 106.849409 201.224753 
L 108.669221 199.150886 
L 110.489034 200.80999 
L 112.308846 194.726609 
L 114.128659 193.067505 
L 115.948471 190.164087 
L 117.768284 193.758812 
L 119.588096 191.270156 
L 121.407909 190.302358 
L 123.227721 188.643254 
L 125.047534 190.025841 
L 126.867346 186.154599 
L 128.687159 191.82319 
L 130.506971 182.421602 
L 132.326784 182.559874 
L 134.146596 184.910258 
L 135.966408 179.794701 
L 137.786221 182.145085 
L 139.606033 188.09022 
L 141.425846 179.656455 
L 143.245658 182.698119 
L 145.065471 179.379938 
L 146.885283 178.135597 
L 148.705096 178.826903 
L 150.524908 177.029527 
L 152.344721 176.199975 
L 154.164533 177.306045 
L 155.984346 176.06173 
L 157.804158 173.849591 
L 159.623971 173.71132 
L 161.443783 178.826903 
L 163.263596 174.264354 
L 165.083408 173.02004 
L 166.903221 174.817389 
L 168.723033 182.283356 
L 170.542845 178.273868 
L 172.362658 173.71132 
L 174.18247 171.222664 
L 176.002283 172.190488 
L 177.822095 176.476493 
L 179.641908 173.02004 
L 181.46172 170.807901 
L 183.281533 175.785213 
L 185.101345 172.881768 
L 186.921158 172.60525 
L 188.74097 172.743522 
L 190.560783 171.222664 
L 192.380595 170.946147 
L 194.200408 177.167799 
L 196.02022 167.351448 
L 197.840033 169.287069 
L 199.659845 168.87228 
L 201.479658 168.181 
L 203.29947 168.457517 
L 205.119283 171.775699 
L 206.939095 171.637453 
L 208.758907 173.434802 
L 210.57872 173.434802 
L 212.398532 170.531384 
L 214.218345 168.87228 
L 216.038157 174.955661 
L 217.85797 170.807901 
L 219.677782 167.351448 
L 221.497595 171.222664 
L 223.317407 167.351448 
L 225.13722 168.319245 
L 226.957032 170.116621 
L 228.776845 168.319245 
L 230.596657 165.692344 
L 232.41647 166.660141 
L 234.236282 170.254866 
L 236.056095 165.554072 
L 237.875907 168.042728 
L 239.69572 165.968861 
L 241.515532 177.444316 
L 243.335344 169.148797 
L 245.155157 164.448003 
L 246.974969 166.936659 
L 248.794782 165.139309 
L 250.614594 166.798413 
L 252.434407 164.862792 
L 254.254219 173.296557 
L 256.074032 167.627965 
L 257.893844 167.07493 
L 259.713657 163.341934 
L 261.533469 162.788899 
L 263.353282 165.968861 
L 265.173094 165.968861 
L 266.992907 168.595763 
L 268.812719 164.586275 
L 270.632532 165.139309 
L 272.452344 165.277555 
L 274.272157 163.894968 
L 276.091969 166.521896 
L 277.911781 165.001038 
L 279.731594 162.650654 
L 281.551406 162.788899 
L 283.371219 163.065416 
L 285.191031 163.894968 
L 287.010844 168.734034 
L 288.830656 166.383624 
L 290.650469 166.521896 
L 292.470281 163.480205 
L 294.290094 167.351448 
L 296.109906 165.277555 
L 297.929719 164.72452 
L 299.749531 163.203688 
L 301.569344 161.268067 
L 303.389156 163.894968 
L 305.208969 165.139309 
L 307.028781 165.415827 
L 308.848594 162.512382 
L 310.668406 164.448003 
L 312.488219 163.203688 
L 314.308031 163.756723 
L 316.127843 171.360936 
L 317.947656 164.448003 
L 319.767468 162.235864 
L 323.407093 161.406313 
L 325.226906 162.512382 
L 327.046718 162.097619 
L 328.866531 165.277555 
L 330.686343 161.129795 
L 332.506156 164.03324 
L 334.325968 163.480205 
L 336.145781 161.959347 
L 337.965593 163.341934 
L 339.785406 164.309757 
L 341.605218 164.171486 
L 343.425031 163.341934 
L 345.244843 167.627965 
L 347.064656 162.097619 
L 348.884468 162.927171 
L 350.70428 158.779411 
L 352.524093 159.88548 
L 354.343905 160.853278 
L 356.163718 163.203688 
L 357.98353 168.042728 
L 359.803343 167.213176 
L 361.623155 164.03324 
L 363.442968 165.277555 
L 365.26278 163.065416 
L 367.082593 162.788899 
L 368.902405 161.406313 
L 370.722218 164.586275 
L 372.54203 165.415827 
L 374.361843 162.512382 
L 376.181655 160.853278 
L 378.001468 162.788899 
L 379.82128 161.544584 
L 381.641093 159.747235 
L 383.460905 160.023726 
L 385.280717 161.959347 
L 387.10053 162.235864 
L 388.920342 160.853278 
L 390.740155 160.99155 
L 392.559967 164.171486 
L 394.37978 160.161998 
L 396.199592 161.406313 
L 398.019405 160.853278 
L 399.839217 159.055929 
L 401.65903 161.821102 
L 403.478842 161.959347 
L 405.298655 160.99155 
L 407.118467 161.959347 
L 408.93828 165.968861 
L 410.758092 160.99155 
L 412.577905 160.853278 
L 414.397717 159.470718 
L 416.21753 160.023726 
L 418.037342 161.268067 
L 419.857155 161.268067 
L 421.676967 159.1942 
L 423.496779 165.139309 
L 425.316592 160.300243 
L 427.136404 158.779411 
L 428.956217 161.129795 
L 430.776029 162.235864 
L 432.595842 159.88548 
L 434.415654 158.779411 
L 436.235467 158.917683 
L 438.055279 160.300243 
L 439.875092 163.203688 
L 441.694904 158.917683 
L 443.514717 158.226377 
L 445.334529 158.779411 
L 447.154342 158.917683 
L 448.974154 159.1942 
L 450.793967 159.608963 
L 452.613779 159.608963 
L 454.433592 160.300243 
L 456.253404 160.023726 
L 458.073216 157.811614 
L 459.893029 159.470718 
L 461.712841 165.139309 
L 463.532654 163.756723 
L 465.352466 158.226377 
L 467.172279 159.608963 
L 468.992091 160.023726 
L 470.811904 160.161998 
L 472.631716 161.129795 
L 474.451529 157.673342 
L 476.271341 159.470718 
L 478.091154 159.747235 
L 479.910966 160.99155 
L 481.730779 160.161998 
L 483.550591 160.300243 
L 487.190216 159.1942 
L 489.010029 160.300243 
L 490.829841 159.470718 
L 492.649653 158.502894 
L 494.469466 159.055929 
L 496.289278 156.705544 
L 498.109091 156.567273 
L 498.109091 156.567273 
" clip-path="url(#p2670e917c6)" style="fill: none; stroke: #1f77b4; stroke-width: 1.5; stroke-linecap: square"/>
   </g>
   <g id="line2d_12">
    <path d="M 92.290909 523.112727 
L 94.110722 466.34054 
L 95.930534 387.203561 
L 97.750347 321.829522 
L 99.570159 292.583248 
L 101.389971 254.735127 
L 103.209784 228.929591 
L 105.029596 239.251805 
L 106.849409 239.251805 
L 108.669221 234.090698 
L 110.489034 208.285161 
L 112.308846 206.564792 
L 114.128659 215.166638 
L 115.948471 204.844423 
L 117.768284 210.00553 
L 119.588096 213.446269 
L 121.407909 211.7259 
L 123.227721 196.242578 
L 125.047534 201.403685 
L 126.867346 211.7259 
L 128.687159 201.403685 
L 130.506971 192.801839 
L 132.326784 208.285161 
L 134.146596 204.844423 
L 135.966408 197.962947 
L 137.786221 203.124054 
L 139.606033 210.00553 
L 141.425846 197.962947 
L 143.245658 197.962947 
L 145.065471 206.564792 
L 146.885283 187.640732 
L 148.705096 187.640732 
L 150.524908 211.7259 
L 152.344721 194.522208 
L 154.164533 203.124054 
L 155.984346 184.199994 
L 157.804158 197.962947 
L 159.623971 189.361101 
L 161.443783 191.08147 
L 163.263596 199.683316 
L 165.083408 196.242578 
L 166.903221 199.683316 
L 168.723033 194.522208 
L 170.542845 196.242578 
L 172.362658 185.920363 
L 174.18247 187.640732 
L 176.002283 192.801839 
L 177.822095 189.361101 
L 179.641908 196.242578 
L 181.46172 197.962947 
L 183.281533 194.522208 
L 185.101345 192.801839 
L 186.921158 187.640732 
L 188.74097 196.242578 
L 190.560783 180.759256 
L 192.380595 196.242578 
L 194.200408 208.285161 
L 196.02022 189.361101 
L 197.840033 189.361101 
L 201.479658 179.038887 
L 203.29947 197.962947 
L 205.119283 185.920363 
L 206.939095 185.920363 
L 208.758907 187.640732 
L 210.57872 187.640732 
L 212.398532 197.962947 
L 214.218345 199.683316 
L 217.85797 189.361101 
L 219.677782 192.801839 
L 221.497595 187.640732 
L 223.317407 180.759256 
L 225.13722 184.199994 
L 226.957032 191.08147 
L 228.776845 191.08147 
L 230.596657 185.920363 
L 232.41647 187.640732 
L 234.236282 185.920363 
L 236.056095 179.038887 
L 237.875907 180.759256 
L 239.69572 187.640732 
L 241.515532 192.801839 
L 243.335344 189.361101 
L 245.155157 187.640732 
L 246.974969 184.199994 
L 248.794782 192.801839 
L 250.614594 182.479625 
L 252.434407 196.242578 
L 254.254219 194.522208 
L 256.074032 189.361101 
L 257.893844 194.522208 
L 259.713657 187.640732 
L 261.533469 182.479625 
L 263.353282 182.479625 
L 265.173094 189.361101 
L 266.992907 192.801839 
L 268.812719 184.199994 
L 270.632532 182.479625 
L 272.452344 189.361101 
L 274.272157 185.920363 
L 276.091969 179.038887 
L 277.911781 187.640732 
L 279.731594 185.920363 
L 281.551406 185.920363 
L 283.371219 184.199994 
L 285.191031 179.038887 
L 287.010844 185.920363 
L 288.830656 184.199994 
L 290.650469 184.199994 
L 292.470281 191.08147 
L 294.290094 189.361101 
L 296.109906 173.877779 
L 297.929719 191.08147 
L 299.749531 179.038887 
L 301.569344 203.124054 
L 303.389156 182.479625 
L 305.208969 189.361101 
L 308.848594 175.598148 
L 310.668406 184.199994 
L 312.488219 182.479625 
L 314.308031 172.15741 
L 316.127843 184.199994 
L 317.947656 177.318517 
L 319.767468 177.318517 
L 321.587281 184.199994 
L 323.407093 179.038887 
L 325.226906 184.199994 
L 328.866531 177.318517 
L 330.686343 175.598148 
L 332.506156 184.199994 
L 334.325968 177.318517 
L 336.145781 179.038887 
L 337.965593 179.038887 
L 339.785406 189.361101 
L 341.605218 182.479625 
L 343.425031 191.08147 
L 345.244843 177.318517 
L 347.064656 182.479625 
L 350.70428 179.038887 
L 352.524093 173.877779 
L 354.343905 185.920363 
L 356.163718 175.598148 
L 357.98353 179.038887 
L 359.803343 192.801839 
L 361.623155 191.08147 
L 363.442968 182.479625 
L 365.26278 179.038887 
L 367.082593 177.318517 
L 368.902405 182.479625 
L 370.722218 177.318517 
L 372.54203 179.038887 
L 374.361843 182.479625 
L 376.181655 177.318517 
L 378.001468 180.759256 
L 379.82128 179.038887 
L 381.641093 189.361101 
L 383.460905 180.759256 
L 385.280717 182.479625 
L 387.10053 182.479625 
L 388.920342 184.199994 
L 390.740155 177.318517 
L 392.559967 184.199994 
L 394.37978 180.759256 
L 396.199592 182.479625 
L 398.019405 185.920363 
L 399.839217 179.038887 
L 401.65903 184.199994 
L 405.298655 184.199994 
L 407.118467 187.640732 
L 408.93828 180.759256 
L 410.758092 185.920363 
L 412.577905 182.479625 
L 416.21753 185.920363 
L 418.037342 175.598148 
L 419.857155 173.877779 
L 421.676967 180.759256 
L 423.496779 185.920363 
L 425.316592 179.038887 
L 427.136404 179.038887 
L 428.956217 180.759256 
L 430.776029 185.920363 
L 432.595842 184.199994 
L 434.415654 185.920363 
L 438.055279 179.038887 
L 439.875092 185.920363 
L 441.694904 184.199994 
L 445.334529 187.640732 
L 447.154342 180.759256 
L 448.974154 177.318517 
L 450.793967 185.920363 
L 452.613779 180.759256 
L 456.253404 180.759256 
L 459.893029 177.318517 
L 461.712841 182.479625 
L 463.532654 185.920363 
L 465.352466 179.038887 
L 467.172279 187.640732 
L 470.811904 184.199994 
L 472.631716 185.920363 
L 474.451529 185.920363 
L 476.271341 180.759256 
L 478.091154 177.318517 
L 479.910966 182.479625 
L 481.730779 184.199994 
L 483.550591 180.759256 
L 490.829841 173.877779 
L 492.649653 184.199994 
L 494.469466 189.361101 
L 496.289278 179.038887 
L 498.109091 177.318517 
L 498.109091 177.318517 
" clip-path="url(#p2670e917c6)" style="fill: none; stroke: #ff7f0e; stroke-width: 1.5; stroke-linecap: square"/>
   </g>
   <g id="patch_3">
    <path d="M 72 541.44 
L 72 138.24 
" style="fill: none; stroke: #000000; stroke-width: 0.8; stroke-linejoin: miter; stroke-linecap: square"/>
   </g>
   <g id="patch_4">
    <path d="M 518.4 541.44 
L 518.4 138.24 
" style="fill: none; stroke: #000000; stroke-width: 0.8; stroke-linejoin: miter; stroke-linecap: square"/>
   </g>
   <g id="patch_5">
    <path d="M 72 541.44 
L 518.4 541.44 
" style="fill: none; stroke: #000000; stroke-width: 0.8; stroke-linejoin: miter; stroke-linecap: square"/>
   </g>
   <g id="patch_6">
    <path d="M 72 138.24 
L 518.4 138.24 
" style="fill: none; stroke: #000000; stroke-width: 0.8; stroke-linejoin: miter; stroke-linecap: square"/>
   </g>
   <g id="legend_1">
    <g id="patch_7">
     <path d="M 79 175.874375 
L 175.94375 175.874375 
Q 177.94375 175.874375 177.94375 173.874375 
L 177.94375 145.24 
Q 177.94375 143.24 175.94375 143.24 
L 79 143.24 
Q 77 143.24 77 145.24 
L 77 173.874375 
Q 77 175.874375 79 175.874375 
z
" style="fill: #ffffff; opacity: 0.8; stroke: #cccccc; stroke-linejoin: miter"/>
    </g>
    <g id="line2d_13">
     <path d="M 81 151.338437 
L 91 151.338437 
L 101 151.338437 
" style="fill: none; stroke: #1f77b4; stroke-width: 1.5; stroke-linecap: square"/>
    </g>
    <g id="text_12">
     <!-- accuracy -->
     <g transform="translate(109 154.838437) scale(0.1 -0.1)">
      <defs>
       <path id="DejaVuSans-61" d="M 2194 1759 
Q 1497 1759 1228 1600 
Q 959 1441 959 1056 
Q 959 750 1161 570 
Q 1363 391 1709 391 
Q 2188 391 2477 730 
Q 2766 1069 2766 1631 
L 2766 1759 
L 2194 1759 
z
M 3341 1997 
L 3341 0 
L 2766 0 
L 2766 531 
Q 2569 213 2275 61 
Q 1981 -91 1556 -91 
Q 1019 -91 701 211 
Q 384 513 384 1019 
Q 384 1609 779 1909 
Q 1175 2209 1959 2209 
L 2766 2209 
L 2766 2266 
Q 2766 2663 2505 2880 
Q 2244 3097 1772 3097 
Q 1472 3097 1187 3025 
Q 903 2953 641 2809 
L 641 3341 
Q 956 3463 1253 3523 
Q 1550 3584 1831 3584 
Q 2591 3584 2966 3190 
Q 3341 2797 3341 1997 
z
" transform="scale(0.015625)"/>
       <path id="DejaVuSans-75" d="M 544 1381 
L 544 3500 
L 1119 3500 
L 1119 1403 
Q 1119 906 1312 657 
Q 1506 409 1894 409 
Q 2359 409 2629 706 
Q 2900 1003 2900 1516 
L 2900 3500 
L 3475 3500 
L 3475 0 
L 2900 0 
L 2900 538 
Q 2691 219 2414 64 
Q 2138 -91 1772 -91 
Q 1169 -91 856 284 
Q 544 659 544 1381 
z
M 1991 3584 
L 1991 3584 
z
" transform="scale(0.015625)"/>
       <path id="DejaVuSans-72" d="M 2631 2963 
Q 2534 3019 2420 3045 
Q 2306 3072 2169 3072 
Q 1681 3072 1420 2755 
Q 1159 2438 1159 1844 
L 1159 0 
L 581 0 
L 581 3500 
L 1159 3500 
L 1159 2956 
Q 1341 3275 1631 3429 
Q 1922 3584 2338 3584 
Q 2397 3584 2469 3576 
Q 2541 3569 2628 3553 
L 2631 2963 
z
" transform="scale(0.015625)"/>
       <path id="DejaVuSans-79" d="M 2059 -325 
Q 1816 -950 1584 -1140 
Q 1353 -1331 966 -1331 
L 506 -1331 
L 506 -850 
L 844 -850 
Q 1081 -850 1212 -737 
Q 1344 -625 1503 -206 
L 1606 56 
L 191 3500 
L 800 3500 
L 1894 763 
L 2988 3500 
L 3597 3500 
L 2059 -325 
z
" transform="scale(0.015625)"/>
      </defs>
      <use xlink:href="#DejaVuSans-61"/>
      <use xlink:href="#DejaVuSans-63" x="61.279297"/>
      <use xlink:href="#DejaVuSans-63" x="116.259766"/>
      <use xlink:href="#DejaVuSans-75" x="171.240234"/>
      <use xlink:href="#DejaVuSans-72" x="234.619141"/>
      <use xlink:href="#DejaVuSans-61" x="275.732422"/>
      <use xlink:href="#DejaVuSans-63" x="337.011719"/>
      <use xlink:href="#DejaVuSans-79" x="391.992188"/>
     </g>
    </g>
    <g id="line2d_14">
     <path d="M 81 166.016562 
L 91 166.016562 
L 101 166.016562 
" style="fill: none; stroke: #ff7f0e; stroke-width: 1.5; stroke-linecap: square"/>
    </g>
    <g id="text_13">
     <!-- val_accuracy -->
     <g transform="translate(109 169.516562) scale(0.1 -0.1)">
      <defs>
       <path id="DejaVuSans-76" d="M 191 3500 
L 800 3500 
L 1894 563 
L 2988 3500 
L 3597 3500 
L 2284 0 
L 1503 0 
L 191 3500 
z
" transform="scale(0.015625)"/>
       <path id="DejaVuSans-6c" d="M 603 4863 
L 1178 4863 
L 1178 0 
L 603 0 
L 603 4863 
z
" transform="scale(0.015625)"/>
       <path id="DejaVuSans-5f" d="M 3263 -1063 
L 3263 -1509 
L -63 -1509 
L -63 -1063 
L 3263 -1063 
z
" transform="scale(0.015625)"/>
      </defs>
      <use xlink:href="#DejaVuSans-76"/>
      <use xlink:href="#DejaVuSans-61" x="59.179688"/>
      <use xlink:href="#DejaVuSans-6c" x="120.458984"/>
      <use xlink:href="#DejaVuSans-5f" x="148.242188"/>
      <use xlink:href="#DejaVuSans-61" x="198.242188"/>
      <use xlink:href="#DejaVuSans-63" x="259.521484"/>
      <use xlink:href="#DejaVuSans-63" x="314.501953"/>
      <use xlink:href="#DejaVuSans-75" x="369.482422"/>
      <use xlink:href="#DejaVuSans-72" x="432.861328"/>
      <use xlink:href="#DejaVuSans-61" x="473.974609"/>
      <use xlink:href="#DejaVuSans-63" x="535.253906"/>
      <use xlink:href="#DejaVuSans-79" x="590.234375"/>
     </g>
    </g>
   </g>
  </g>
  <g id="axes_2">
   <g id="patch_8">
    <path d="M 72 1025.28 
L 518.4 1025.28 
L 518.4 622.08 
L 72 622.08 
z
" style="fill: #ffffff"/>
   </g>
   <g id="matplotlib.axis_3">
    <g id="xtick_6">
     <g id="line2d_15">
      <g>
       <use xlink:href="#m3940c9897e" x="92.290909" y="1025.28" style="stroke: #000000; stroke-width: 0.8"/>
      </g>
     </g>
     <g id="text_14">
      <!-- 0 -->
      <g transform="translate(89.109659 1039.878438) scale(0.1 -0.1)">
       <use xlink:href="#DejaVuSans-30"/>
      </g>
     </g>
    </g>
    <g id="xtick_7">
     <g id="line2d_16">
      <g>
       <use xlink:href="#m3940c9897e" x="183.281533" y="1025.28" style="stroke: #000000; stroke-width: 0.8"/>
      </g>
     </g>
     <g id="text_15">
      <!-- 50 -->
      <g transform="translate(176.919033 1039.878438) scale(0.1 -0.1)">
       <use xlink:href="#DejaVuSans-35"/>
       <use xlink:href="#DejaVuSans-30" x="63.623047"/>
      </g>
     </g>
    </g>
    <g id="xtick_8">
     <g id="line2d_17">
      <g>
       <use xlink:href="#m3940c9897e" x="274.272157" y="1025.28" style="stroke: #000000; stroke-width: 0.8"/>
      </g>
     </g>
     <g id="text_16">
      <!-- 100 -->
      <g transform="translate(264.728407 1039.878438) scale(0.1 -0.1)">
       <use xlink:href="#DejaVuSans-31"/>
       <use xlink:href="#DejaVuSans-30" x="63.623047"/>
       <use xlink:href="#DejaVuSans-30" x="127.246094"/>
      </g>
     </g>
    </g>
    <g id="xtick_9">
     <g id="line2d_18">
      <g>
       <use xlink:href="#m3940c9897e" x="365.26278" y="1025.28" style="stroke: #000000; stroke-width: 0.8"/>
      </g>
     </g>
     <g id="text_17">
      <!-- 150 -->
      <g transform="translate(355.71903 1039.878438) scale(0.1 -0.1)">
       <use xlink:href="#DejaVuSans-31"/>
       <use xlink:href="#DejaVuSans-35" x="63.623047"/>
       <use xlink:href="#DejaVuSans-30" x="127.246094"/>
      </g>
     </g>
    </g>
    <g id="xtick_10">
     <g id="line2d_19">
      <g>
       <use xlink:href="#m3940c9897e" x="456.253404" y="1025.28" style="stroke: #000000; stroke-width: 0.8"/>
      </g>
     </g>
     <g id="text_18">
      <!-- 200 -->
      <g transform="translate(446.709654 1039.878438) scale(0.1 -0.1)">
       <use xlink:href="#DejaVuSans-32"/>
       <use xlink:href="#DejaVuSans-30" x="63.623047"/>
       <use xlink:href="#DejaVuSans-30" x="127.246094"/>
      </g>
     </g>
    </g>
    <g id="text_19">
     <!-- Epoch -->
     <g transform="translate(279.889062 1053.556562) scale(0.1 -0.1)">
      <use xlink:href="#DejaVuSans-45"/>
      <use xlink:href="#DejaVuSans-70" x="63.183594"/>
      <use xlink:href="#DejaVuSans-6f" x="126.660156"/>
      <use xlink:href="#DejaVuSans-63" x="187.841797"/>
      <use xlink:href="#DejaVuSans-68" x="242.822266"/>
     </g>
    </g>
   </g>
   <g id="matplotlib.axis_4">
    <g id="ytick_6">
     <g id="line2d_20">
      <g>
       <use xlink:href="#m3f95fd1f73" x="72" y="1015.388274" style="stroke: #000000; stroke-width: 0.8"/>
      </g>
     </g>
     <g id="text_20">
      <!-- 0.00 -->
      <g transform="translate(42.734375 1019.187493) scale(0.1 -0.1)">
       <use xlink:href="#DejaVuSans-30"/>
       <use xlink:href="#DejaVuSans-2e" x="63.623047"/>
       <use xlink:href="#DejaVuSans-30" x="95.410156"/>
       <use xlink:href="#DejaVuSans-30" x="159.033203"/>
      </g>
     </g>
    </g>
    <g id="ytick_7">
     <g id="line2d_21">
      <g>
       <use xlink:href="#m3f95fd1f73" x="72" y="968.209623" style="stroke: #000000; stroke-width: 0.8"/>
      </g>
     </g>
     <g id="text_21">
      <!-- 0.25 -->
      <g transform="translate(42.734375 972.008842) scale(0.1 -0.1)">
       <use xlink:href="#DejaVuSans-30"/>
       <use xlink:href="#DejaVuSans-2e" x="63.623047"/>
       <use xlink:href="#DejaVuSans-32" x="95.410156"/>
       <use xlink:href="#DejaVuSans-35" x="159.033203"/>
      </g>
     </g>
    </g>
    <g id="ytick_8">
     <g id="line2d_22">
      <g>
       <use xlink:href="#m3f95fd1f73" x="72" y="921.030972" style="stroke: #000000; stroke-width: 0.8"/>
      </g>
     </g>
     <g id="text_22">
      <!-- 0.50 -->
      <g transform="translate(42.734375 924.830191) scale(0.1 -0.1)">
       <use xlink:href="#DejaVuSans-30"/>
       <use xlink:href="#DejaVuSans-2e" x="63.623047"/>
       <use xlink:href="#DejaVuSans-35" x="95.410156"/>
       <use xlink:href="#DejaVuSans-30" x="159.033203"/>
      </g>
     </g>
    </g>
    <g id="ytick_9">
     <g id="line2d_23">
      <g>
       <use xlink:href="#m3f95fd1f73" x="72" y="873.852321" style="stroke: #000000; stroke-width: 0.8"/>
      </g>
     </g>
     <g id="text_23">
      <!-- 0.75 -->
      <g transform="translate(42.734375 877.65154) scale(0.1 -0.1)">
       <defs>
        <path id="DejaVuSans-37" d="M 525 4666 
L 3525 4666 
L 3525 4397 
L 1831 0 
L 1172 0 
L 2766 4134 
L 525 4134 
L 525 4666 
z
" transform="scale(0.015625)"/>
       </defs>
       <use xlink:href="#DejaVuSans-30"/>
       <use xlink:href="#DejaVuSans-2e" x="63.623047"/>
       <use xlink:href="#DejaVuSans-37" x="95.410156"/>
       <use xlink:href="#DejaVuSans-35" x="159.033203"/>
      </g>
     </g>
    </g>
    <g id="ytick_10">
     <g id="line2d_24">
      <g>
       <use xlink:href="#m3f95fd1f73" x="72" y="826.67367" style="stroke: #000000; stroke-width: 0.8"/>
      </g>
     </g>
     <g id="text_24">
      <!-- 1.00 -->
      <g transform="translate(42.734375 830.472888) scale(0.1 -0.1)">
       <use xlink:href="#DejaVuSans-31"/>
       <use xlink:href="#DejaVuSans-2e" x="63.623047"/>
       <use xlink:href="#DejaVuSans-30" x="95.410156"/>
       <use xlink:href="#DejaVuSans-30" x="159.033203"/>
      </g>
     </g>
    </g>
    <g id="ytick_11">
     <g id="line2d_25">
      <g>
       <use xlink:href="#m3f95fd1f73" x="72" y="779.495018" style="stroke: #000000; stroke-width: 0.8"/>
      </g>
     </g>
     <g id="text_25">
      <!-- 1.25 -->
      <g transform="translate(42.734375 783.294237) scale(0.1 -0.1)">
       <use xlink:href="#DejaVuSans-31"/>
       <use xlink:href="#DejaVuSans-2e" x="63.623047"/>
       <use xlink:href="#DejaVuSans-32" x="95.410156"/>
       <use xlink:href="#DejaVuSans-35" x="159.033203"/>
      </g>
     </g>
    </g>
    <g id="ytick_12">
     <g id="line2d_26">
      <g>
       <use xlink:href="#m3f95fd1f73" x="72" y="732.316367" style="stroke: #000000; stroke-width: 0.8"/>
      </g>
     </g>
     <g id="text_26">
      <!-- 1.50 -->
      <g transform="translate(42.734375 736.115586) scale(0.1 -0.1)">
       <use xlink:href="#DejaVuSans-31"/>
       <use xlink:href="#DejaVuSans-2e" x="63.623047"/>
       <use xlink:href="#DejaVuSans-35" x="95.410156"/>
       <use xlink:href="#DejaVuSans-30" x="159.033203"/>
      </g>
     </g>
    </g>
    <g id="ytick_13">
     <g id="line2d_27">
      <g>
       <use xlink:href="#m3f95fd1f73" x="72" y="685.137716" style="stroke: #000000; stroke-width: 0.8"/>
      </g>
     </g>
     <g id="text_27">
      <!-- 1.75 -->
      <g transform="translate(42.734375 688.936935) scale(0.1 -0.1)">
       <use xlink:href="#DejaVuSans-31"/>
       <use xlink:href="#DejaVuSans-2e" x="63.623047"/>
       <use xlink:href="#DejaVuSans-37" x="95.410156"/>
       <use xlink:href="#DejaVuSans-35" x="159.033203"/>
      </g>
     </g>
    </g>
    <g id="ytick_14">
     <g id="line2d_28">
      <g>
       <use xlink:href="#m3f95fd1f73" x="72" y="637.959065" style="stroke: #000000; stroke-width: 0.8"/>
      </g>
     </g>
     <g id="text_28">
      <!-- 2.00 -->
      <g transform="translate(42.734375 641.758284) scale(0.1 -0.1)">
       <use xlink:href="#DejaVuSans-32"/>
       <use xlink:href="#DejaVuSans-2e" x="63.623047"/>
       <use xlink:href="#DejaVuSans-30" x="95.410156"/>
       <use xlink:href="#DejaVuSans-30" x="159.033203"/>
      </g>
     </g>
    </g>
   </g>
   <g id="line2d_29">
    <path d="M 92.290909 806.156988 
L 94.110722 898.245616 
L 95.930534 919.557944 
L 97.750347 936.961836 
L 99.570159 941.516715 
L 101.389971 944.75337 
L 103.209784 947.700017 
L 105.029596 952.236854 
L 106.849409 957.919236 
L 108.669221 959.333739 
L 110.489034 958.797861 
L 112.308846 965.017961 
L 115.948471 966.47604 
L 117.768284 966.727956 
L 119.588096 968.196249 
L 121.407909 969.464975 
L 123.227721 971.175701 
L 125.047534 969.962131 
L 126.867346 974.320334 
L 128.687159 965.386049 
L 130.506971 978.242082 
L 132.326784 976.812329 
L 134.146596 976.974509 
L 135.966408 981.139366 
L 137.786221 978.728598 
L 139.606033 971.611417 
L 141.425846 980.728778 
L 143.245658 977.388454 
L 145.065471 981.007443 
L 146.885283 983.017441 
L 148.705096 982.223873 
L 150.524908 982.73595 
L 152.344721 984.072078 
L 154.164533 982.207248 
L 155.984346 984.942267 
L 157.804158 985.68776 
L 159.623971 987.507966 
L 161.443783 982.975985 
L 163.263596 986.783808 
L 165.083408 986.903773 
L 166.903221 986.527328 
L 168.723033 979.705535 
L 170.542845 983.24911 
L 172.362658 988.061389 
L 174.18247 989.604977 
L 176.002283 989.983883 
L 177.822095 986.058559 
L 179.641908 985.843956 
L 181.46172 990.627521 
L 183.281533 987.503922 
L 185.101345 989.614094 
L 186.921158 988.265252 
L 188.74097 988.736333 
L 190.560783 991.949676 
L 192.380595 991.260126 
L 194.200408 983.25999 
L 196.02022 994.076775 
L 197.840033 990.460172 
L 199.659845 993.033223 
L 201.479658 994.513788 
L 203.29947 994.496193 
L 205.119283 989.574179 
L 206.939095 990.235417 
L 208.758907 988.690442 
L 210.57872 988.127852 
L 212.398532 992.18514 
L 214.218345 992.371106 
L 216.038157 986.688206 
L 217.85797 991.772333 
L 219.677782 994.371835 
L 221.497595 989.20818 
L 223.317407 995.430432 
L 225.13722 994.679148 
L 226.957032 992.728632 
L 228.776845 995.415624 
L 230.596657 996.150638 
L 232.41647 995.641963 
L 234.236282 992.737522 
L 236.056095 997.736224 
L 237.875907 992.974455 
L 239.69572 996.702441 
L 241.515532 983.312674 
L 243.335344 994.938547 
L 245.155157 997.064284 
L 246.974969 994.823155 
L 248.794782 995.473575 
L 250.614594 995.526703 
L 252.434407 996.792878 
L 254.254219 987.903187 
L 256.074032 993.424148 
L 257.893844 995.790003 
L 259.713657 998.74445 
L 261.533469 997.64499 
L 265.173094 996.609716 
L 266.992907 993.851714 
L 268.812719 998.176196 
L 270.632532 997.652427 
L 272.452344 996.229973 
L 274.272157 999.581334 
L 276.091969 996.228014 
L 277.911781 996.597313 
L 279.731594 1000.258522 
L 281.551406 999.100773 
L 283.371219 998.18965 
L 285.191031 999.89374 
L 287.010844 993.479915 
L 288.830656 997.120151 
L 290.650469 997.482032 
L 292.470281 998.578679 
L 294.290094 997.472973 
L 296.109906 998.352033 
L 297.929719 998.008819 
L 299.749531 999.308781 
L 301.569344 1001.329837 
L 303.389156 999.48122 
L 305.208969 996.38916 
L 308.848594 1000.13848 
L 310.668406 999.310229 
L 312.488219 1000.397149 
L 314.308031 998.311193 
L 316.127843 989.366207 
L 317.947656 998.616145 
L 319.767468 1000.568787 
L 321.587281 1002.170072 
L 323.407093 1000.596325 
L 325.226906 999.741427 
L 327.046718 1000.954349 
L 328.866531 998.083214 
L 330.686343 1000.818758 
L 332.506156 998.295728 
L 334.325968 1000.776154 
L 336.145781 1000.811626 
L 337.965593 999.776694 
L 339.785406 998.304862 
L 341.605218 999.224849 
L 343.425031 998.823333 
L 345.244843 993.45103 
L 347.064656 1002.121594 
L 348.884468 999.292644 
L 350.70428 1003.784538 
L 354.343905 1002.068313 
L 356.163718 999.779268 
L 357.98353 990.372196 
L 359.803343 994.059079 
L 361.623155 999.109714 
L 363.442968 998.639845 
L 365.26278 1000.202965 
L 367.082593 1001.392826 
L 368.902405 1001.264624 
L 370.722218 998.195893 
L 372.54203 995.803269 
L 374.361843 999.661413 
L 376.181655 1002.693157 
L 378.001468 1000.564282 
L 379.82128 1001.769444 
L 381.641093 1003.968421 
L 383.460905 1001.669167 
L 385.280717 1001.419199 
L 387.10053 1000.183899 
L 388.920342 1002.544861 
L 390.740155 1001.086973 
L 392.559967 1000.559247 
L 394.37978 1002.937572 
L 396.199592 1001.167483 
L 398.019405 1002.471885 
L 399.839217 1003.616652 
L 401.65903 1001.523613 
L 403.478842 1001.203834 
L 405.298655 1001.274662 
L 407.118467 1000.340582 
L 408.93828 996.1243 
L 410.758092 1002.377064 
L 412.577905 1002.847627 
L 414.397717 1004.183257 
L 416.21753 1003.069075 
L 418.037342 1002.686329 
L 419.857155 1001.356638 
L 421.676967 1003.419047 
L 423.496779 996.992444 
L 425.316592 1003.388086 
L 427.136404 1004.818477 
L 428.956217 1002.983719 
L 430.776029 1001.364624 
L 432.595842 1003.560958 
L 434.415654 1003.544807 
L 436.235467 1005.330627 
L 438.055279 1003.088088 
L 439.875092 998.588999 
L 441.694904 1003.607645 
L 443.514717 1004.6588 
L 445.334529 1003.355078 
L 447.154342 1004.998906 
L 448.974154 1003.818308 
L 450.793967 1004.266416 
L 452.613779 1003.889499 
L 454.433592 1003.946281 
L 456.253404 1005.112544 
L 458.073216 1006.828523 
L 459.893029 1005.077323 
L 461.712841 996.969781 
L 463.532654 1000.586711 
L 465.352466 1005.151627 
L 467.172279 1004.91271 
L 468.992091 1003.778802 
L 470.811904 1000.986214 
L 474.451529 1005.609856 
L 476.271341 1004.656146 
L 478.091154 1002.309793 
L 479.910966 1000.662166 
L 481.730779 1003.712518 
L 483.550591 1003.002377 
L 485.370404 1002.972617 
L 487.190216 1004.505717 
L 489.010029 1003.762797 
L 490.829841 1003.814518 
L 492.649653 1005.319574 
L 494.469466 1005.007839 
L 496.289278 1006.416219 
L 498.109091 1006.952727 
L 498.109091 1006.952727 
" clip-path="url(#pb6d3adee74)" style="fill: none; stroke: #1f77b4; stroke-width: 1.5; stroke-linecap: square"/>
   </g>
   <g id="line2d_30">
    <path d="M 92.290909 640.407273 
L 94.110722 671.736711 
L 95.930534 750.190606 
L 97.750347 818.906989 
L 101.389971 909.613149 
L 103.209784 916.573059 
L 105.029596 918.549132 
L 106.849409 916.077606 
L 108.669221 931.997453 
L 110.489034 939.307674 
L 112.308846 946.024036 
L 114.128659 933.693523 
L 115.948471 948.495764 
L 117.768284 942.027533 
L 119.588096 942.358462 
L 121.407909 940.881722 
L 123.227721 955.40923 
L 125.047534 952.162981 
L 126.867346 945.046629 
L 128.687159 953.812078 
L 130.506971 959.500804 
L 132.326784 950.147522 
L 134.146596 953.570105 
L 135.966408 960.592876 
L 137.786221 956.907162 
L 139.606033 948.535808 
L 141.425846 958.721108 
L 143.245658 959.133391 
L 145.065471 954.234816 
L 148.705096 971.641236 
L 150.524908 952.033822 
L 152.344721 959.407134 
L 154.164533 961.795816 
L 155.984346 964.969802 
L 157.804158 959.253826 
L 159.623971 968.511327 
L 161.443783 964.444159 
L 163.263596 957.168144 
L 165.083408 956.688231 
L 166.903221 954.381403 
L 168.723033 962.316651 
L 170.542845 956.826833 
L 172.362658 966.113874 
L 174.18247 966.674083 
L 176.002283 967.625833 
L 177.822095 960.234461 
L 179.641908 962.464897 
L 181.46172 966.569598 
L 183.281533 959.973569 
L 185.101345 965.231555 
L 186.921158 967.366217 
L 188.74097 961.380767 
L 190.560783 969.059489 
L 192.380595 963.365265 
L 194.200408 956.439977 
L 196.02022 971.544785 
L 197.840033 969.967528 
L 199.659845 971.757585 
L 201.479658 975.557067 
L 203.29947 963.733252 
L 205.119283 967.705279 
L 206.939095 965.050649 
L 208.758907 965.557259 
L 210.57872 973.846931 
L 212.398532 964.331198 
L 214.218345 961.227756 
L 216.038157 971.748789 
L 217.85797 969.630774 
L 219.677782 961.015046 
L 221.497595 969.911545 
L 223.317407 973.496154 
L 225.13722 977.541776 
L 226.957032 967.812576 
L 228.776845 962.18657 
L 230.596657 971.128284 
L 232.41647 966.75696 
L 234.236282 972.56689 
L 236.056095 969.818353 
L 237.875907 973.037843 
L 239.69572 972.523834 
L 241.515532 968.982334 
L 243.335344 972.604715 
L 245.155157 969.8773 
L 246.974969 969.040049 
L 248.794782 968.730598 
L 250.614594 972.625254 
L 252.434407 967.06113 
L 254.254219 967.221559 
L 256.074032 971.407812 
L 257.893844 967.349913 
L 259.713657 975.167289 
L 261.533469 975.979007 
L 263.353282 971.771744 
L 265.173094 974.856089 
L 266.992907 967.557347 
L 268.812719 974.696077 
L 272.452344 975.829123 
L 274.272157 971.300917 
L 276.091969 979.054952 
L 277.911781 973.790963 
L 279.731594 973.080874 
L 281.551406 965.056622 
L 285.191031 976.535363 
L 287.010844 971.010383 
L 288.830656 974.562015 
L 290.650469 973.68916 
L 292.470281 970.327914 
L 294.290094 964.626617 
L 296.109906 976.382887 
L 297.929719 967.83838 
L 299.749531 977.623517 
L 301.569344 958.443743 
L 303.389156 973.83579 
L 305.208969 961.70114 
L 307.028781 977.592351 
L 308.848594 976.011255 
L 310.668406 972.430606 
L 312.488219 969.603944 
L 314.308031 978.459837 
L 316.127843 973.078467 
L 317.947656 980.150719 
L 319.767468 980.407376 
L 321.587281 971.505956 
L 323.407093 977.09051 
L 325.226906 966.972449 
L 327.046718 973.950997 
L 328.866531 977.318942 
L 330.686343 976.173857 
L 332.506156 976.81466 
L 334.325968 976.157463 
L 336.145781 978.651249 
L 337.965593 972.074255 
L 339.785406 966.713188 
L 341.605218 970.340714 
L 343.425031 967.586126 
L 345.244843 973.533642 
L 347.064656 972.262351 
L 348.884468 973.294917 
L 350.70428 975.214886 
L 352.524093 981.285503 
L 354.343905 971.9656 
L 356.163718 978.78726 
L 357.98353 976.230948 
L 359.803343 961.9931 
L 361.623155 963.952216 
L 363.442968 978.401532 
L 365.26278 975.508016 
L 367.082593 977.521622 
L 368.902405 975.80458 
L 370.722218 974.66155 
L 372.54203 977.46389 
L 374.361843 972.704417 
L 376.181655 976.061819 
L 378.001468 977.894794 
L 379.82128 972.723589 
L 381.641093 968.749357 
L 383.460905 971.733092 
L 385.280717 972.070591 
L 387.10053 969.104319 
L 388.920342 974.325719 
L 390.740155 973.819342 
L 392.559967 972.357832 
L 394.37978 970.51797 
L 396.199592 972.404633 
L 398.019405 969.857441 
L 399.839217 968.935924 
L 401.65903 971.029882 
L 403.478842 971.404795 
L 405.298655 975.094943 
L 407.118467 969.685306 
L 408.93828 976.620014 
L 410.758092 965.357215 
L 412.577905 973.879051 
L 414.397717 973.986697 
L 416.21753 973.546934 
L 418.037342 978.582828 
L 419.857155 973.963801 
L 421.676967 973.020974 
L 423.496779 973.548428 
L 427.136404 975.904355 
L 428.956217 977.840623 
L 430.776029 973.726645 
L 432.595842 969.249829 
L 434.415654 971.284666 
L 436.235467 975.462022 
L 438.055279 977.120427 
L 439.875092 975.038587 
L 441.694904 971.520868 
L 443.514717 970.44509 
L 445.334529 972.457261 
L 447.154342 971.992789 
L 448.974154 976.342244 
L 450.793967 970.904281 
L 452.613779 972.203616 
L 454.433592 966.061165 
L 456.253404 974.865684 
L 458.073216 972.213011 
L 459.893029 978.3577 
L 461.712841 978.817459 
L 463.532654 972.886371 
L 465.352466 970.260987 
L 467.172279 965.680524 
L 468.992091 978.844452 
L 470.811904 967.539243 
L 472.631716 973.02006 
L 474.451529 972.262995 
L 476.271341 972.288489 
L 478.091154 975.391757 
L 479.910966 974.204899 
L 481.730779 971.347448 
L 483.550591 980.544526 
L 485.370404 979.136097 
L 487.190216 980.301952 
L 489.010029 979.732098 
L 490.829841 977.462085 
L 492.649653 972.873368 
L 494.469466 973.291489 
L 496.289278 978.367936 
L 498.109091 976.623155 
L 498.109091 976.623155 
" clip-path="url(#pb6d3adee74)" style="fill: none; stroke: #ff7f0e; stroke-width: 1.5; stroke-linecap: square"/>
   </g>
   <g id="patch_9">
    <path d="M 72 1025.28 
L 72 622.08 
" style="fill: none; stroke: #000000; stroke-width: 0.8; stroke-linejoin: miter; stroke-linecap: square"/>
   </g>
   <g id="patch_10">
    <path d="M 518.4 1025.28 
L 518.4 622.08 
" style="fill: none; stroke: #000000; stroke-width: 0.8; stroke-linejoin: miter; stroke-linecap: square"/>
   </g>
   <g id="patch_11">
    <path d="M 72 1025.28 
L 518.4 1025.28 
" style="fill: none; stroke: #000000; stroke-width: 0.8; stroke-linejoin: miter; stroke-linecap: square"/>
   </g>
   <g id="patch_12">
    <path d="M 72 622.08 
L 518.4 622.08 
" style="fill: none; stroke: #000000; stroke-width: 0.8; stroke-linejoin: miter; stroke-linecap: square"/>
   </g>
   <g id="legend_2">
    <g id="patch_13">
     <path d="M 79 659.714375 
L 150.140625 659.714375 
Q 152.140625 659.714375 152.140625 657.714375 
L 152.140625 629.08 
Q 152.140625 627.08 150.140625 627.08 
L 79 627.08 
Q 77 627.08 77 629.08 
L 77 657.714375 
Q 77 659.714375 79 659.714375 
z
" style="fill: #ffffff; opacity: 0.8; stroke: #cccccc; stroke-linejoin: miter"/>
    </g>
    <g id="line2d_31">
     <path d="M 81 635.178437 
L 91 635.178437 
L 101 635.178437 
" style="fill: none; stroke: #1f77b4; stroke-width: 1.5; stroke-linecap: square"/>
    </g>
    <g id="text_29">
     <!-- loss -->
     <g transform="translate(109 638.678437) scale(0.1 -0.1)">
      <defs>
       <path id="DejaVuSans-73" d="M 2834 3397 
L 2834 2853 
Q 2591 2978 2328 3040 
Q 2066 3103 1784 3103 
Q 1356 3103 1142 2972 
Q 928 2841 928 2578 
Q 928 2378 1081 2264 
Q 1234 2150 1697 2047 
L 1894 2003 
Q 2506 1872 2764 1633 
Q 3022 1394 3022 966 
Q 3022 478 2636 193 
Q 2250 -91 1575 -91 
Q 1294 -91 989 -36 
Q 684 19 347 128 
L 347 722 
Q 666 556 975 473 
Q 1284 391 1588 391 
Q 1994 391 2212 530 
Q 2431 669 2431 922 
Q 2431 1156 2273 1281 
Q 2116 1406 1581 1522 
L 1381 1569 
Q 847 1681 609 1914 
Q 372 2147 372 2553 
Q 372 3047 722 3315 
Q 1072 3584 1716 3584 
Q 2034 3584 2315 3537 
Q 2597 3491 2834 3397 
z
" transform="scale(0.015625)"/>
      </defs>
      <use xlink:href="#DejaVuSans-6c"/>
      <use xlink:href="#DejaVuSans-6f" x="27.783203"/>
      <use xlink:href="#DejaVuSans-73" x="88.964844"/>
      <use xlink:href="#DejaVuSans-73" x="141.064453"/>
     </g>
    </g>
    <g id="line2d_32">
     <path d="M 81 649.856562 
L 91 649.856562 
L 101 649.856562 
" style="fill: none; stroke: #ff7f0e; stroke-width: 1.5; stroke-linecap: square"/>
    </g>
    <g id="text_30">
     <!-- val_loss -->
     <g transform="translate(109 653.356562) scale(0.1 -0.1)">
      <use xlink:href="#DejaVuSans-76"/>
      <use xlink:href="#DejaVuSans-61" x="59.179688"/>
      <use xlink:href="#DejaVuSans-6c" x="120.458984"/>
      <use xlink:href="#DejaVuSans-5f" x="148.242188"/>
      <use xlink:href="#DejaVuSans-6c" x="198.242188"/>
      <use xlink:href="#DejaVuSans-6f" x="226.025391"/>
      <use xlink:href="#DejaVuSans-73" x="287.207031"/>
      <use xlink:href="#DejaVuSans-73" x="339.306641"/>
     </g>
    </g>
   </g>
  </g>
 </g>
 <defs>
  <clipPath id="p2670e917c6">
   <rect x="72" y="138.24" width="446.4" height="403.2"/>
  </clipPath>
  <clipPath id="pb6d3adee74">
   <rect x="72" y="622.08" width="446.4" height="403.2"/>
  </clipPath>
 </defs>
</svg>
