<?xml version="1.0" encoding="utf-8" standalone="no"?>
<!DOCTYPE svg PUBLIC "-//W3C//DTD SVG 1.1//EN"
  "http://www.w3.org/Graphics/SVG/1.1/DTD/svg11.dtd">
<svg xmlns:xlink="http://www.w3.org/1999/xlink" width="576pt" height="1152pt" viewBox="0 0 576 1152" xmlns="http://www.w3.org/2000/svg" version="1.1">
 <metadata>
  <rdf:RDF xmlns:dc="http://purl.org/dc/elements/1.1/" xmlns:cc="http://creativecommons.org/ns#" xmlns:rdf="http://www.w3.org/1999/02/22-rdf-syntax-ns#">
   <cc:Work>
    <dc:type rdf:resource="http://purl.org/dc/dcmitype/StillImage"/>
    <dc:date>2023-11-16T13:01:03.615771</dc:date>
    <dc:format>image/svg+xml</dc:format>
    <dc:creator>
     <cc:Agent>
      <dc:title>Matplotlib v3.7.3, https://matplotlib.org/</dc:title>
     </cc:Agent>
    </dc:creator>
   </cc:Work>
  </rdf:RDF>
 </metadata>
 <defs>
  <style type="text/css">*{stroke-linejoin: round; stroke-linecap: butt}</style>
 </defs>
 <g id="figure_1">
  <g id="patch_1">
   <path d="M 0 1152 
L 576 1152 
L 576 0 
L 0 0 
z
" style="fill: #ffffff"/>
  </g>
  <g id="axes_1">
   <g id="patch_2">
    <path d="M 72 541.44 
L 518.4 541.44 
L 518.4 138.24 
L 72 138.24 
z
" style="fill: #ffffff"/>
   </g>
   <g id="matplotlib.axis_1">
    <g id="xtick_1">
     <g id="line2d_1">
      <defs>
       <path id="m29122dd4dc" d="M 0 0 
L 0 3.5 
" style="stroke: #000000; stroke-width: 0.8"/>
      </defs>
      <g>
       <use xlink:href="#m29122dd4dc" x="92.290909" y="541.44" style="stroke: #000000; stroke-width: 0.8"/>
      </g>
     </g>
     <g id="text_1">
      <!-- 0 -->
      <g transform="translate(89.109659 556.038437) scale(0.1 -0.1)">
       <defs>
        <path id="DejaVuSans-30" d="M 2034 4250 
Q 1547 4250 1301 3770 
Q 1056 3291 1056 2328 
Q 1056 1369 1301 889 
Q 1547 409 2034 409 
Q 2525 409 2770 889 
Q 3016 1369 3016 2328 
Q 3016 3291 2770 3770 
Q 2525 4250 2034 4250 
z
M 2034 4750 
Q 2819 4750 3233 4129 
Q 3647 3509 3647 2328 
Q 3647 1150 3233 529 
Q 2819 -91 2034 -91 
Q 1250 -91 836 529 
Q 422 1150 422 2328 
Q 422 3509 836 4129 
Q 1250 4750 2034 4750 
z
" transform="scale(0.015625)"/>
       </defs>
       <use xlink:href="#DejaVuSans-30"/>
      </g>
     </g>
    </g>
    <g id="xtick_2">
     <g id="line2d_2">
      <g>
       <use xlink:href="#m29122dd4dc" x="174.440339" y="541.44" style="stroke: #000000; stroke-width: 0.8"/>
      </g>
     </g>
     <g id="text_2">
      <!-- 50 -->
      <g transform="translate(168.077839 556.038437) scale(0.1 -0.1)">
       <defs>
        <path id="DejaVuSans-35" d="M 691 4666 
L 3169 4666 
L 3169 4134 
L 1269 4134 
L 1269 2991 
Q 1406 3038 1543 3061 
Q 1681 3084 1819 3084 
Q 2600 3084 3056 2656 
Q 3513 2228 3513 1497 
Q 3513 744 3044 326 
Q 2575 -91 1722 -91 
Q 1428 -91 1123 -41 
Q 819 9 494 109 
L 494 744 
Q 775 591 1075 516 
Q 1375 441 1709 441 
Q 2250 441 2565 725 
Q 2881 1009 2881 1497 
Q 2881 1984 2565 2268 
Q 2250 2553 1709 2553 
Q 1456 2553 1204 2497 
Q 953 2441 691 2322 
L 691 4666 
z
" transform="scale(0.015625)"/>
       </defs>
       <use xlink:href="#DejaVuSans-35"/>
       <use xlink:href="#DejaVuSans-30" x="63.623047"/>
      </g>
     </g>
    </g>
    <g id="xtick_3">
     <g id="line2d_3">
      <g>
       <use xlink:href="#m29122dd4dc" x="256.589768" y="541.44" style="stroke: #000000; stroke-width: 0.8"/>
      </g>
     </g>
     <g id="text_3">
      <!-- 100 -->
      <g transform="translate(247.046018 556.038437) scale(0.1 -0.1)">
       <defs>
        <path id="DejaVuSans-31" d="M 794 531 
L 1825 531 
L 1825 4091 
L 703 3866 
L 703 4441 
L 1819 4666 
L 2450 4666 
L 2450 531 
L 3481 531 
L 3481 0 
L 794 0 
L 794 531 
z
" transform="scale(0.015625)"/>
       </defs>
       <use xlink:href="#DejaVuSans-31"/>
       <use xlink:href="#DejaVuSans-30" x="63.623047"/>
       <use xlink:href="#DejaVuSans-30" x="127.246094"/>
      </g>
     </g>
    </g>
    <g id="xtick_4">
     <g id="line2d_4">
      <g>
       <use xlink:href="#m29122dd4dc" x="338.739198" y="541.44" style="stroke: #000000; stroke-width: 0.8"/>
      </g>
     </g>
     <g id="text_4">
      <!-- 150 -->
      <g transform="translate(329.195448 556.038437) scale(0.1 -0.1)">
       <use xlink:href="#DejaVuSans-31"/>
       <use xlink:href="#DejaVuSans-35" x="63.623047"/>
       <use xlink:href="#DejaVuSans-30" x="127.246094"/>
      </g>
     </g>
    </g>
    <g id="xtick_5">
     <g id="line2d_5">
      <g>
       <use xlink:href="#m29122dd4dc" x="420.888627" y="541.44" style="stroke: #000000; stroke-width: 0.8"/>
      </g>
     </g>
     <g id="text_5">
      <!-- 200 -->
      <g transform="translate(411.344877 556.038437) scale(0.1 -0.1)">
       <defs>
        <path id="DejaVuSans-32" d="M 1228 531 
L 3431 531 
L 3431 0 
L 469 0 
L 469 531 
Q 828 903 1448 1529 
Q 2069 2156 2228 2338 
Q 2531 2678 2651 2914 
Q 2772 3150 2772 3378 
Q 2772 3750 2511 3984 
Q 2250 4219 1831 4219 
Q 1534 4219 1204 4116 
Q 875 4013 500 3803 
L 500 4441 
Q 881 4594 1212 4672 
Q 1544 4750 1819 4750 
Q 2544 4750 2975 4387 
Q 3406 4025 3406 3419 
Q 3406 3131 3298 2873 
Q 3191 2616 2906 2266 
Q 2828 2175 2409 1742 
Q 1991 1309 1228 531 
z
" transform="scale(0.015625)"/>
       </defs>
       <use xlink:href="#DejaVuSans-32"/>
       <use xlink:href="#DejaVuSans-30" x="63.623047"/>
       <use xlink:href="#DejaVuSans-30" x="127.246094"/>
      </g>
     </g>
    </g>
    <g id="xtick_6">
     <g id="line2d_6">
      <g>
       <use xlink:href="#m29122dd4dc" x="503.038057" y="541.44" style="stroke: #000000; stroke-width: 0.8"/>
      </g>
     </g>
     <g id="text_6">
      <!-- 250 -->
      <g transform="translate(493.494307 556.038437) scale(0.1 -0.1)">
       <use xlink:href="#DejaVuSans-32"/>
       <use xlink:href="#DejaVuSans-35" x="63.623047"/>
       <use xlink:href="#DejaVuSans-30" x="127.246094"/>
      </g>
     </g>
    </g>
    <g id="text_7">
     <!-- Epoch -->
     <g transform="translate(279.889062 569.716563) scale(0.1 -0.1)">
      <defs>
       <path id="DejaVuSans-45" d="M 628 4666 
L 3578 4666 
L 3578 4134 
L 1259 4134 
L 1259 2753 
L 3481 2753 
L 3481 2222 
L 1259 2222 
L 1259 531 
L 3634 531 
L 3634 0 
L 628 0 
L 628 4666 
z
" transform="scale(0.015625)"/>
       <path id="DejaVuSans-70" d="M 1159 525 
L 1159 -1331 
L 581 -1331 
L 581 3500 
L 1159 3500 
L 1159 2969 
Q 1341 3281 1617 3432 
Q 1894 3584 2278 3584 
Q 2916 3584 3314 3078 
Q 3713 2572 3713 1747 
Q 3713 922 3314 415 
Q 2916 -91 2278 -91 
Q 1894 -91 1617 61 
Q 1341 213 1159 525 
z
M 3116 1747 
Q 3116 2381 2855 2742 
Q 2594 3103 2138 3103 
Q 1681 3103 1420 2742 
Q 1159 2381 1159 1747 
Q 1159 1113 1420 752 
Q 1681 391 2138 391 
Q 2594 391 2855 752 
Q 3116 1113 3116 1747 
z
" transform="scale(0.015625)"/>
       <path id="DejaVuSans-6f" d="M 1959 3097 
Q 1497 3097 1228 2736 
Q 959 2375 959 1747 
Q 959 1119 1226 758 
Q 1494 397 1959 397 
Q 2419 397 2687 759 
Q 2956 1122 2956 1747 
Q 2956 2369 2687 2733 
Q 2419 3097 1959 3097 
z
M 1959 3584 
Q 2709 3584 3137 3096 
Q 3566 2609 3566 1747 
Q 3566 888 3137 398 
Q 2709 -91 1959 -91 
Q 1206 -91 779 398 
Q 353 888 353 1747 
Q 353 2609 779 3096 
Q 1206 3584 1959 3584 
z
" transform="scale(0.015625)"/>
       <path id="DejaVuSans-63" d="M 3122 3366 
L 3122 2828 
Q 2878 2963 2633 3030 
Q 2388 3097 2138 3097 
Q 1578 3097 1268 2742 
Q 959 2388 959 1747 
Q 959 1106 1268 751 
Q 1578 397 2138 397 
Q 2388 397 2633 464 
Q 2878 531 3122 666 
L 3122 134 
Q 2881 22 2623 -34 
Q 2366 -91 2075 -91 
Q 1284 -91 818 406 
Q 353 903 353 1747 
Q 353 2603 823 3093 
Q 1294 3584 2113 3584 
Q 2378 3584 2631 3529 
Q 2884 3475 3122 3366 
z
" transform="scale(0.015625)"/>
       <path id="DejaVuSans-68" d="M 3513 2113 
L 3513 0 
L 2938 0 
L 2938 2094 
Q 2938 2591 2744 2837 
Q 2550 3084 2163 3084 
Q 1697 3084 1428 2787 
Q 1159 2491 1159 1978 
L 1159 0 
L 581 0 
L 581 4863 
L 1159 4863 
L 1159 2956 
Q 1366 3272 1645 3428 
Q 1925 3584 2291 3584 
Q 2894 3584 3203 3211 
Q 3513 2838 3513 2113 
z
" transform="scale(0.015625)"/>
      </defs>
      <use xlink:href="#DejaVuSans-45"/>
      <use xlink:href="#DejaVuSans-70" x="63.183594"/>
      <use xlink:href="#DejaVuSans-6f" x="126.660156"/>
      <use xlink:href="#DejaVuSans-63" x="187.841797"/>
      <use xlink:href="#DejaVuSans-68" x="242.822266"/>
     </g>
    </g>
   </g>
   <g id="matplotlib.axis_2">
    <g id="ytick_1">
     <g id="line2d_7">
      <defs>
       <path id="ma35e93c0ef" d="M 0 0 
L -3.5 0 
" style="stroke: #000000; stroke-width: 0.8"/>
      </defs>
      <g>
       <use xlink:href="#ma35e93c0ef" x="72" y="505.670016" style="stroke: #000000; stroke-width: 0.8"/>
      </g>
     </g>
     <g id="text_8">
      <!-- 0.2 -->
      <g transform="translate(49.096875 509.469235) scale(0.1 -0.1)">
       <defs>
        <path id="DejaVuSans-2e" d="M 684 794 
L 1344 794 
L 1344 0 
L 684 0 
L 684 794 
z
" transform="scale(0.015625)"/>
       </defs>
       <use xlink:href="#DejaVuSans-30"/>
       <use xlink:href="#DejaVuSans-2e" x="63.623047"/>
       <use xlink:href="#DejaVuSans-32" x="95.410156"/>
      </g>
     </g>
    </g>
    <g id="ytick_2">
     <g id="line2d_8">
      <g>
       <use xlink:href="#ma35e93c0ef" x="72" y="416.712175" style="stroke: #000000; stroke-width: 0.8"/>
      </g>
     </g>
     <g id="text_9">
      <!-- 0.4 -->
      <g transform="translate(49.096875 420.511394) scale(0.1 -0.1)">
       <defs>
        <path id="DejaVuSans-34" d="M 2419 4116 
L 825 1625 
L 2419 1625 
L 2419 4116 
z
M 2253 4666 
L 3047 4666 
L 3047 1625 
L 3713 1625 
L 3713 1100 
L 3047 1100 
L 3047 0 
L 2419 0 
L 2419 1100 
L 313 1100 
L 313 1709 
L 2253 4666 
z
" transform="scale(0.015625)"/>
       </defs>
       <use xlink:href="#DejaVuSans-30"/>
       <use xlink:href="#DejaVuSans-2e" x="63.623047"/>
       <use xlink:href="#DejaVuSans-34" x="95.410156"/>
      </g>
     </g>
    </g>
    <g id="ytick_3">
     <g id="line2d_9">
      <g>
       <use xlink:href="#ma35e93c0ef" x="72" y="327.754335" style="stroke: #000000; stroke-width: 0.8"/>
      </g>
     </g>
     <g id="text_10">
      <!-- 0.6 -->
      <g transform="translate(49.096875 331.553553) scale(0.1 -0.1)">
       <defs>
        <path id="DejaVuSans-36" d="M 2113 2584 
Q 1688 2584 1439 2293 
Q 1191 2003 1191 1497 
Q 1191 994 1439 701 
Q 1688 409 2113 409 
Q 2538 409 2786 701 
Q 3034 994 3034 1497 
Q 3034 2003 2786 2293 
Q 2538 2584 2113 2584 
z
M 3366 4563 
L 3366 3988 
Q 3128 4100 2886 4159 
Q 2644 4219 2406 4219 
Q 1781 4219 1451 3797 
Q 1122 3375 1075 2522 
Q 1259 2794 1537 2939 
Q 1816 3084 2150 3084 
Q 2853 3084 3261 2657 
Q 3669 2231 3669 1497 
Q 3669 778 3244 343 
Q 2819 -91 2113 -91 
Q 1303 -91 875 529 
Q 447 1150 447 2328 
Q 447 3434 972 4092 
Q 1497 4750 2381 4750 
Q 2619 4750 2861 4703 
Q 3103 4656 3366 4563 
z
" transform="scale(0.015625)"/>
       </defs>
       <use xlink:href="#DejaVuSans-30"/>
       <use xlink:href="#DejaVuSans-2e" x="63.623047"/>
       <use xlink:href="#DejaVuSans-36" x="95.410156"/>
      </g>
     </g>
    </g>
    <g id="ytick_4">
     <g id="line2d_10">
      <g>
       <use xlink:href="#ma35e93c0ef" x="72" y="238.796494" style="stroke: #000000; stroke-width: 0.8"/>
      </g>
     </g>
     <g id="text_11">
      <!-- 0.8 -->
      <g transform="translate(49.096875 242.595713) scale(0.1 -0.1)">
       <defs>
        <path id="DejaVuSans-38" d="M 2034 2216 
Q 1584 2216 1326 1975 
Q 1069 1734 1069 1313 
Q 1069 891 1326 650 
Q 1584 409 2034 409 
Q 2484 409 2743 651 
Q 3003 894 3003 1313 
Q 3003 1734 2745 1975 
Q 2488 2216 2034 2216 
z
M 1403 2484 
Q 997 2584 770 2862 
Q 544 3141 544 3541 
Q 544 4100 942 4425 
Q 1341 4750 2034 4750 
Q 2731 4750 3128 4425 
Q 3525 4100 3525 3541 
Q 3525 3141 3298 2862 
Q 3072 2584 2669 2484 
Q 3125 2378 3379 2068 
Q 3634 1759 3634 1313 
Q 3634 634 3220 271 
Q 2806 -91 2034 -91 
Q 1263 -91 848 271 
Q 434 634 434 1313 
Q 434 1759 690 2068 
Q 947 2378 1403 2484 
z
M 1172 3481 
Q 1172 3119 1398 2916 
Q 1625 2713 2034 2713 
Q 2441 2713 2670 2916 
Q 2900 3119 2900 3481 
Q 2900 3844 2670 4047 
Q 2441 4250 2034 4250 
Q 1625 4250 1398 4047 
Q 1172 3844 1172 3481 
z
" transform="scale(0.015625)"/>
       </defs>
       <use xlink:href="#DejaVuSans-30"/>
       <use xlink:href="#DejaVuSans-2e" x="63.623047"/>
       <use xlink:href="#DejaVuSans-38" x="95.410156"/>
      </g>
     </g>
    </g>
    <g id="ytick_5">
     <g id="line2d_11">
      <g>
       <use xlink:href="#ma35e93c0ef" x="72" y="149.838653" style="stroke: #000000; stroke-width: 0.8"/>
      </g>
     </g>
     <g id="text_12">
      <!-- 1.0 -->
      <g transform="translate(49.096875 153.637872) scale(0.1 -0.1)">
       <use xlink:href="#DejaVuSans-31"/>
       <use xlink:href="#DejaVuSans-2e" x="63.623047"/>
       <use xlink:href="#DejaVuSans-30" x="95.410156"/>
      </g>
     </g>
    </g>
   </g>
   <g id="line2d_12">
    <path d="M 92.290909 301.652928 
L 93.933898 246.141898 
L 95.576886 227.778388 
L 97.219875 220.769436 
L 98.862863 218.526563 
L 100.505852 219.507806 
L 102.148841 214.461342 
L 103.791829 205.209517 
L 105.434818 203.527362 
L 107.077806 203.667528 
L 108.720795 196.938936 
L 110.363784 197.63982 
L 112.006772 195.116588 
L 115.292749 191.892471 
L 116.935738 190.07015 
L 118.578727 192.032637 
L 120.221715 189.789791 
L 121.864704 192.593356 
L 123.507692 189.929957 
L 125.150681 185.864763 
L 126.793669 184.603134 
L 128.436658 182.220094 
L 130.079647 186.425481 
L 131.722635 184.883493 
L 133.365624 186.145122 
L 135.008612 186.145122 
L 136.651601 178.995977 
L 138.29459 180.818298 
L 139.937578 179.136144 
L 141.580567 184.182608 
L 143.223555 177.734348 
L 144.866544 182.079901 
L 146.509533 176.89327 
L 148.152521 175.912027 
L 149.79551 180.397773 
L 151.438498 183.341531 
L 153.081487 181.939735 
L 154.724476 177.734348 
L 156.367464 178.995977 
L 158.010453 174.089679 
L 159.653441 175.631668 
L 161.29643 181.098658 
L 162.939418 179.556696 
L 164.582407 175.771834 
L 166.225396 176.192386 
L 167.868384 174.930757 
L 169.511373 178.295066 
L 171.154361 175.211116 
L 172.79735 179.276336 
L 174.440339 174.79059 
L 176.083327 176.753104 
L 177.726316 179.136144 
L 179.369304 173.669154 
L 181.012293 174.79059 
L 182.655282 175.491475 
L 184.29827 176.612911 
L 185.941259 170.445037 
L 187.584247 171.986999 
L 189.227236 174.229872 
L 190.870225 171.005729 
L 192.513213 170.865562 
L 194.156202 172.968243 
L 195.79919 169.744126 
L 197.442179 170.865562 
L 199.085167 173.108435 
L 200.728156 174.370038 
L 202.371145 168.622689 
L 204.014133 170.164678 
L 205.657122 174.370038 
L 207.30011 171.005729 
L 208.943099 168.622689 
L 210.586088 168.061971 
L 212.229076 171.70664 
L 215.515053 167.361086 
L 217.158042 167.921805 
L 218.801031 169.183407 
L 220.444019 167.641445 
L 222.087008 170.445037 
L 223.729996 171.846806 
L 225.372985 166.940534 
L 228.658962 170.304844 
L 230.301951 170.725369 
L 231.944939 167.921805 
L 233.587928 169.884319 
L 235.230916 163.996777 
L 238.516894 166.940534 
L 240.159882 166.099457 
L 241.802871 171.286088 
L 243.445859 168.061971 
L 245.088848 169.3236 
L 246.731837 170.024485 
L 248.374825 171.986999 
L 250.017814 167.781612 
L 251.660802 166.379816 
L 253.303791 167.641445 
L 254.94678 166.379816 
L 256.589768 164.136943 
L 258.232757 168.622689 
L 259.875745 165.538739 
L 261.518734 165.678931 
L 263.161722 165.538739 
L 264.804711 166.379816 
L 266.4477 167.501253 
L 268.090688 164.417302 
L 269.733677 167.361086 
L 271.376665 167.921805 
L 273.019654 164.557495 
L 274.662643 163.295866 
L 276.305631 161.89407 
L 277.94862 167.080727 
L 279.591608 168.482523 
L 281.234597 165.678931 
L 282.877586 162.454788 
L 284.520574 163.015506 
L 286.163563 166.099457 
L 287.806551 163.576225 
L 289.44954 166.099457 
L 291.092529 162.735147 
L 292.735517 164.417302 
L 294.378506 163.155699 
L 296.021494 161.193185 
L 297.664483 164.837854 
L 299.307471 162.87534 
L 300.95046 163.436058 
L 302.593449 164.97802 
L 304.236437 163.856584 
L 305.879426 169.463767 
L 307.522414 162.314622 
L 309.165403 163.576225 
L 310.808392 162.454788 
L 312.45138 164.557495 
L 314.094369 164.697661 
L 315.737357 163.155699 
L 317.380346 162.454788 
L 319.023335 165.959291 
L 320.666323 163.716417 
L 322.309312 164.837854 
L 323.9523 164.136943 
L 325.595289 163.716417 
L 327.238278 163.436058 
L 328.881266 161.333352 
L 330.524255 161.753904 
L 332.167243 162.735147 
L 333.810232 163.015506 
L 335.45322 164.417302 
L 337.096209 161.473544 
L 338.739198 161.753904 
L 340.382186 166.660175 
L 342.025175 165.118213 
L 343.668163 162.594981 
L 345.311152 163.716417 
L 346.954141 160.632467 
L 348.597129 165.25838 
L 350.240118 167.501253 
L 351.883106 161.473544 
L 353.526095 160.772633 
L 355.169084 161.613711 
L 356.812072 165.678931 
L 358.455061 164.277136 
L 360.098049 161.89407 
L 361.741038 164.277136 
L 363.384026 164.136943 
L 365.027015 162.034263 
L 366.670004 159.090505 
L 368.312992 159.090505 
L 369.955981 162.594981 
L 371.598969 161.052992 
L 373.241958 160.352108 
L 374.884947 163.155699 
L 376.527935 158.109235 
L 378.170924 160.352108 
L 379.813912 161.193185 
L 381.456901 165.678931 
L 383.09989 163.436058 
L 384.742878 161.613711 
L 386.385867 160.772633 
L 388.028855 159.651223 
L 389.671844 166.800368 
L 391.314833 162.174429 
L 392.957821 163.856584 
L 394.60081 161.333352 
L 396.243798 161.613711 
L 397.886787 160.912826 
L 399.529775 163.576225 
L 401.172764 160.211915 
L 402.815753 162.87534 
L 404.458741 159.79139 
L 406.10173 160.211915 
L 407.744718 160.492274 
L 409.387707 162.314622 
L 411.030696 161.613711 
L 412.673684 163.155699 
L 414.316673 161.193185 
L 415.959661 161.052992 
L 417.60265 160.071749 
L 419.245639 159.931582 
L 420.888627 160.071749 
L 422.531616 163.716417 
L 424.174604 160.352108 
L 425.817593 162.454788 
L 429.10357 159.931582 
L 430.746559 161.052992 
L 432.389547 159.931582 
L 434.032536 160.492274 
L 435.675524 161.333352 
L 437.318513 162.735147 
L 438.961502 163.155699 
L 440.60449 161.193185 
L 442.247479 158.950312 
L 443.890467 159.230671 
L 445.533456 160.071749 
L 447.176445 159.51103 
L 448.819433 161.333352 
L 450.462422 160.071749 
L 452.10541 156.707439 
L 453.748399 159.090505 
L 455.391388 160.492274 
L 457.034376 159.230671 
L 458.677365 160.352108 
L 460.320353 159.090505 
L 461.963342 163.716417 
L 463.606331 160.492274 
L 465.249319 159.931582 
L 466.892308 161.193185 
L 468.535296 160.352108 
L 470.178285 160.492274 
L 471.821273 157.688709 
L 473.464262 161.473544 
L 475.107251 161.052992 
L 476.750239 162.174429 
L 478.393228 158.389594 
L 480.036216 157.127991 
L 481.679205 159.230671 
L 483.322194 157.969068 
L 484.965182 161.333352 
L 486.608171 162.735147 
L 488.251159 158.669953 
L 489.894148 160.912826 
L 491.537137 161.753904 
L 493.180125 156.567273 
L 494.823114 159.931582 
L 496.466102 158.389594 
L 498.109091 159.931582 
L 498.109091 159.931582 
" clip-path="url(#p1318ea1aad)" style="fill: none; stroke: #1f77b4; stroke-width: 1.5; stroke-linecap: square"/>
   </g>
   <g id="line2d_13">
    <path d="M 92.290909 523.112727 
L 93.933898 463.807497 
L 97.219875 287.636085 
L 98.862863 237.052217 
L 100.505852 210.888148 
L 102.148841 207.399606 
L 103.791829 217.865233 
L 105.434818 203.911063 
L 107.077806 219.609505 
L 108.720795 205.655334 
L 110.363784 203.911063 
L 112.006772 198.678249 
L 113.649761 203.911063 
L 115.292749 196.933978 
L 116.935738 196.933978 
L 118.578727 219.609505 
L 120.221715 202.166792 
L 121.864704 209.143877 
L 123.507692 196.933978 
L 125.150681 200.422521 
L 126.793669 195.189707 
L 128.436658 200.422521 
L 130.079647 195.189707 
L 131.722635 202.166792 
L 133.365624 186.46835 
L 135.008612 191.701164 
L 136.651601 189.956893 
L 138.29459 186.46835 
L 139.937578 186.46835 
L 143.223555 193.445435 
L 144.866544 184.724079 
L 146.509533 202.166792 
L 149.79551 191.701164 
L 153.081487 198.678249 
L 154.724476 198.678249 
L 156.367464 186.46835 
L 158.010453 198.678249 
L 159.653441 184.724079 
L 161.29643 184.724079 
L 162.939418 189.956893 
L 164.582407 181.235536 
L 166.225396 182.979808 
L 167.868384 195.189707 
L 169.511373 186.46835 
L 171.154361 184.724079 
L 172.79735 189.956893 
L 174.440339 184.724079 
L 176.083327 184.724079 
L 177.726316 177.746994 
L 179.369304 196.933978 
L 181.012293 179.491265 
L 182.655282 184.724079 
L 184.29827 193.445435 
L 185.941259 186.46835 
L 187.584247 177.746994 
L 189.227236 191.701164 
L 190.870225 182.979808 
L 192.513213 181.235536 
L 194.156202 186.46835 
L 195.79919 188.212622 
L 197.442179 179.491265 
L 199.085167 186.46835 
L 200.728156 188.212622 
L 202.371145 184.724079 
L 204.014133 186.46835 
L 205.657122 191.701164 
L 208.943099 177.746994 
L 210.586088 188.212622 
L 212.229076 181.235536 
L 213.872065 177.746994 
L 215.515053 184.724079 
L 217.158042 181.235536 
L 218.801031 181.235536 
L 220.444019 179.491265 
L 222.087008 188.212622 
L 225.372985 177.746994 
L 227.015974 186.46835 
L 228.658962 189.956893 
L 230.301951 184.724079 
L 231.944939 188.212622 
L 233.587928 186.46835 
L 235.230916 179.491265 
L 236.873905 179.491265 
L 238.516894 177.746994 
L 240.159882 184.724079 
L 241.802871 182.979808 
L 243.445859 189.956893 
L 245.088848 182.979808 
L 246.731837 182.979808 
L 248.374825 186.46835 
L 253.303791 176.002723 
L 254.94678 182.979808 
L 256.589768 188.212622 
L 258.232757 186.46835 
L 259.875745 182.979808 
L 263.161722 182.979808 
L 264.804711 184.724079 
L 266.4477 184.724079 
L 268.090688 179.491265 
L 269.733677 177.746994 
L 271.376665 186.46835 
L 273.019654 184.724079 
L 274.662643 176.002723 
L 276.305631 177.746994 
L 277.94862 184.724079 
L 279.591608 184.724079 
L 281.234597 182.979808 
L 282.877586 182.979808 
L 284.520574 172.51418 
L 286.163563 181.235536 
L 287.806551 179.491265 
L 289.44954 179.491265 
L 291.092529 176.002723 
L 292.735517 176.002723 
L 294.378506 177.746994 
L 296.021494 176.002723 
L 297.664483 179.491265 
L 299.307471 181.235536 
L 300.95046 179.491265 
L 302.593449 179.491265 
L 304.236437 184.724079 
L 305.879426 174.258451 
L 307.522414 182.979808 
L 309.165403 177.746994 
L 310.808392 179.491265 
L 312.45138 177.746994 
L 315.737357 181.235536 
L 317.380346 179.491265 
L 319.023335 184.724079 
L 320.666323 179.491265 
L 322.309312 181.235536 
L 323.9523 176.002723 
L 325.595289 186.46835 
L 327.238278 184.724079 
L 328.881266 181.235536 
L 330.524255 176.002723 
L 332.167243 182.979808 
L 335.45322 182.979808 
L 337.096209 176.002723 
L 338.739198 182.979808 
L 340.382186 179.491265 
L 343.668163 186.46835 
L 345.311152 174.258451 
L 346.954141 169.025637 
L 348.597129 170.769909 
L 350.240118 170.769909 
L 351.883106 172.51418 
L 353.526095 176.002723 
L 355.169084 174.258451 
L 356.812072 182.979808 
L 358.455061 182.979808 
L 360.098049 174.258451 
L 361.741038 182.979808 
L 363.384026 172.51418 
L 365.027015 181.235536 
L 366.670004 172.51418 
L 369.955981 172.51418 
L 371.598969 174.258451 
L 373.241958 184.724079 
L 374.884947 182.979808 
L 376.527935 176.002723 
L 378.170924 174.258451 
L 379.813912 182.979808 
L 381.456901 176.002723 
L 383.09989 176.002723 
L 384.742878 177.746994 
L 386.385867 176.002723 
L 388.028855 179.491265 
L 391.314833 176.002723 
L 392.957821 177.746994 
L 394.60081 176.002723 
L 396.243798 177.746994 
L 397.886787 182.979808 
L 399.529775 179.491265 
L 401.172764 179.491265 
L 404.458741 182.979808 
L 406.10173 177.746994 
L 407.744718 176.002723 
L 409.387707 176.002723 
L 411.030696 179.491265 
L 412.673684 177.746994 
L 414.316673 181.235536 
L 415.959661 176.002723 
L 417.60265 177.746994 
L 419.245639 172.51418 
L 420.888627 176.002723 
L 424.174604 176.002723 
L 425.817593 181.235536 
L 429.10357 181.235536 
L 430.746559 182.979808 
L 432.389547 176.002723 
L 434.032536 177.746994 
L 435.675524 176.002723 
L 438.961502 179.491265 
L 440.60449 176.002723 
L 442.247479 177.746994 
L 443.890467 181.235536 
L 445.533456 174.258451 
L 447.176445 179.491265 
L 450.462422 172.51418 
L 452.10541 172.51418 
L 453.748399 176.002723 
L 455.391388 176.002723 
L 457.034376 179.491265 
L 458.677365 172.51418 
L 461.963342 179.491265 
L 465.249319 172.51418 
L 466.892308 179.491265 
L 468.535296 174.258451 
L 470.178285 179.491265 
L 471.821273 179.491265 
L 473.464262 176.002723 
L 475.107251 176.002723 
L 476.750239 177.746994 
L 478.393228 174.258451 
L 480.036216 176.002723 
L 481.679205 170.769909 
L 483.322194 181.235536 
L 484.965182 179.491265 
L 486.608171 176.002723 
L 488.251159 174.258451 
L 489.894148 179.491265 
L 491.537137 174.258451 
L 493.180125 174.258451 
L 496.466102 170.769909 
L 498.109091 174.258451 
L 498.109091 174.258451 
" clip-path="url(#p1318ea1aad)" style="fill: none; stroke: #ff7f0e; stroke-width: 1.5; stroke-linecap: square"/>
   </g>
   <g id="patch_3">
    <path d="M 72 541.44 
L 72 138.24 
" style="fill: none; stroke: #000000; stroke-width: 0.8; stroke-linejoin: miter; stroke-linecap: square"/>
   </g>
   <g id="patch_4">
    <path d="M 518.4 541.44 
L 518.4 138.24 
" style="fill: none; stroke: #000000; stroke-width: 0.8; stroke-linejoin: miter; stroke-linecap: square"/>
   </g>
   <g id="patch_5">
    <path d="M 72 541.44 
L 518.4 541.44 
" style="fill: none; stroke: #000000; stroke-width: 0.8; stroke-linejoin: miter; stroke-linecap: square"/>
   </g>
   <g id="patch_6">
    <path d="M 72 138.24 
L 518.4 138.24 
" style="fill: none; stroke: #000000; stroke-width: 0.8; stroke-linejoin: miter; stroke-linecap: square"/>
   </g>
   <g id="legend_1">
    <g id="patch_7">
     <path d="M 79 175.874375 
L 175.94375 175.874375 
Q 177.94375 175.874375 177.94375 173.874375 
L 177.94375 145.24 
Q 177.94375 143.24 175.94375 143.24 
L 79 143.24 
Q 77 143.24 77 145.24 
L 77 173.874375 
Q 77 175.874375 79 175.874375 
z
" style="fill: #ffffff; opacity: 0.8; stroke: #cccccc; stroke-linejoin: miter"/>
    </g>
    <g id="line2d_14">
     <path d="M 81 151.338437 
L 91 151.338437 
L 101 151.338437 
" style="fill: none; stroke: #1f77b4; stroke-width: 1.5; stroke-linecap: square"/>
    </g>
    <g id="text_13">
     <!-- accuracy -->
     <g transform="translate(109 154.838437) scale(0.1 -0.1)">
      <defs>
       <path id="DejaVuSans-61" d="M 2194 1759 
Q 1497 1759 1228 1600 
Q 959 1441 959 1056 
Q 959 750 1161 570 
Q 1363 391 1709 391 
Q 2188 391 2477 730 
Q 2766 1069 2766 1631 
L 2766 1759 
L 2194 1759 
z
M 3341 1997 
L 3341 0 
L 2766 0 
L 2766 531 
Q 2569 213 2275 61 
Q 1981 -91 1556 -91 
Q 1019 -91 701 211 
Q 384 513 384 1019 
Q 384 1609 779 1909 
Q 1175 2209 1959 2209 
L 2766 2209 
L 2766 2266 
Q 2766 2663 2505 2880 
Q 2244 3097 1772 3097 
Q 1472 3097 1187 3025 
Q 903 2953 641 2809 
L 641 3341 
Q 956 3463 1253 3523 
Q 1550 3584 1831 3584 
Q 2591 3584 2966 3190 
Q 3341 2797 3341 1997 
z
" transform="scale(0.015625)"/>
       <path id="DejaVuSans-75" d="M 544 1381 
L 544 3500 
L 1119 3500 
L 1119 1403 
Q 1119 906 1312 657 
Q 1506 409 1894 409 
Q 2359 409 2629 706 
Q 2900 1003 2900 1516 
L 2900 3500 
L 3475 3500 
L 3475 0 
L 2900 0 
L 2900 538 
Q 2691 219 2414 64 
Q 2138 -91 1772 -91 
Q 1169 -91 856 284 
Q 544 659 544 1381 
z
M 1991 3584 
L 1991 3584 
z
" transform="scale(0.015625)"/>
       <path id="DejaVuSans-72" d="M 2631 2963 
Q 2534 3019 2420 3045 
Q 2306 3072 2169 3072 
Q 1681 3072 1420 2755 
Q 1159 2438 1159 1844 
L 1159 0 
L 581 0 
L 581 3500 
L 1159 3500 
L 1159 2956 
Q 1341 3275 1631 3429 
Q 1922 3584 2338 3584 
Q 2397 3584 2469 3576 
Q 2541 3569 2628 3553 
L 2631 2963 
z
" transform="scale(0.015625)"/>
       <path id="DejaVuSans-79" d="M 2059 -325 
Q 1816 -950 1584 -1140 
Q 1353 -1331 966 -1331 
L 506 -1331 
L 506 -850 
L 844 -850 
Q 1081 -850 1212 -737 
Q 1344 -625 1503 -206 
L 1606 56 
L 191 3500 
L 800 3500 
L 1894 763 
L 2988 3500 
L 3597 3500 
L 2059 -325 
z
" transform="scale(0.015625)"/>
      </defs>
      <use xlink:href="#DejaVuSans-61"/>
      <use xlink:href="#DejaVuSans-63" x="61.279297"/>
      <use xlink:href="#DejaVuSans-63" x="116.259766"/>
      <use xlink:href="#DejaVuSans-75" x="171.240234"/>
      <use xlink:href="#DejaVuSans-72" x="234.619141"/>
      <use xlink:href="#DejaVuSans-61" x="275.732422"/>
      <use xlink:href="#DejaVuSans-63" x="337.011719"/>
      <use xlink:href="#DejaVuSans-79" x="391.992188"/>
     </g>
    </g>
    <g id="line2d_15">
     <path d="M 81 166.016562 
L 91 166.016562 
L 101 166.016562 
" style="fill: none; stroke: #ff7f0e; stroke-width: 1.5; stroke-linecap: square"/>
    </g>
    <g id="text_14">
     <!-- val_accuracy -->
     <g transform="translate(109 169.516562) scale(0.1 -0.1)">
      <defs>
       <path id="DejaVuSans-76" d="M 191 3500 
L 800 3500 
L 1894 563 
L 2988 3500 
L 3597 3500 
L 2284 0 
L 1503 0 
L 191 3500 
z
" transform="scale(0.015625)"/>
       <path id="DejaVuSans-6c" d="M 603 4863 
L 1178 4863 
L 1178 0 
L 603 0 
L 603 4863 
z
" transform="scale(0.015625)"/>
       <path id="DejaVuSans-5f" d="M 3263 -1063 
L 3263 -1509 
L -63 -1509 
L -63 -1063 
L 3263 -1063 
z
" transform="scale(0.015625)"/>
      </defs>
      <use xlink:href="#DejaVuSans-76"/>
      <use xlink:href="#DejaVuSans-61" x="59.179688"/>
      <use xlink:href="#DejaVuSans-6c" x="120.458984"/>
      <use xlink:href="#DejaVuSans-5f" x="148.242188"/>
      <use xlink:href="#DejaVuSans-61" x="198.242188"/>
      <use xlink:href="#DejaVuSans-63" x="259.521484"/>
      <use xlink:href="#DejaVuSans-63" x="314.501953"/>
      <use xlink:href="#DejaVuSans-75" x="369.482422"/>
      <use xlink:href="#DejaVuSans-72" x="432.861328"/>
      <use xlink:href="#DejaVuSans-61" x="473.974609"/>
      <use xlink:href="#DejaVuSans-63" x="535.253906"/>
      <use xlink:href="#DejaVuSans-79" x="590.234375"/>
     </g>
    </g>
   </g>
  </g>
  <g id="axes_2">
   <g id="patch_8">
    <path d="M 72 1025.28 
L 518.4 1025.28 
L 518.4 622.08 
L 72 622.08 
z
" style="fill: #ffffff"/>
   </g>
   <g id="matplotlib.axis_3">
    <g id="xtick_7">
     <g id="line2d_16">
      <g>
       <use xlink:href="#m29122dd4dc" x="92.290909" y="1025.28" style="stroke: #000000; stroke-width: 0.8"/>
      </g>
     </g>
     <g id="text_15">
      <!-- 0 -->
      <g transform="translate(89.109659 1039.878438) scale(0.1 -0.1)">
       <use xlink:href="#DejaVuSans-30"/>
      </g>
     </g>
    </g>
    <g id="xtick_8">
     <g id="line2d_17">
      <g>
       <use xlink:href="#m29122dd4dc" x="174.440339" y="1025.28" style="stroke: #000000; stroke-width: 0.8"/>
      </g>
     </g>
     <g id="text_16">
      <!-- 50 -->
      <g transform="translate(168.077839 1039.878438) scale(0.1 -0.1)">
       <use xlink:href="#DejaVuSans-35"/>
       <use xlink:href="#DejaVuSans-30" x="63.623047"/>
      </g>
     </g>
    </g>
    <g id="xtick_9">
     <g id="line2d_18">
      <g>
       <use xlink:href="#m29122dd4dc" x="256.589768" y="1025.28" style="stroke: #000000; stroke-width: 0.8"/>
      </g>
     </g>
     <g id="text_17">
      <!-- 100 -->
      <g transform="translate(247.046018 1039.878438) scale(0.1 -0.1)">
       <use xlink:href="#DejaVuSans-31"/>
       <use xlink:href="#DejaVuSans-30" x="63.623047"/>
       <use xlink:href="#DejaVuSans-30" x="127.246094"/>
      </g>
     </g>
    </g>
    <g id="xtick_10">
     <g id="line2d_19">
      <g>
       <use xlink:href="#m29122dd4dc" x="338.739198" y="1025.28" style="stroke: #000000; stroke-width: 0.8"/>
      </g>
     </g>
     <g id="text_18">
      <!-- 150 -->
      <g transform="translate(329.195448 1039.878438) scale(0.1 -0.1)">
       <use xlink:href="#DejaVuSans-31"/>
       <use xlink:href="#DejaVuSans-35" x="63.623047"/>
       <use xlink:href="#DejaVuSans-30" x="127.246094"/>
      </g>
     </g>
    </g>
    <g id="xtick_11">
     <g id="line2d_20">
      <g>
       <use xlink:href="#m29122dd4dc" x="420.888627" y="1025.28" style="stroke: #000000; stroke-width: 0.8"/>
      </g>
     </g>
     <g id="text_19">
      <!-- 200 -->
      <g transform="translate(411.344877 1039.878438) scale(0.1 -0.1)">
       <use xlink:href="#DejaVuSans-32"/>
       <use xlink:href="#DejaVuSans-30" x="63.623047"/>
       <use xlink:href="#DejaVuSans-30" x="127.246094"/>
      </g>
     </g>
    </g>
    <g id="xtick_12">
     <g id="line2d_21">
      <g>
       <use xlink:href="#m29122dd4dc" x="503.038057" y="1025.28" style="stroke: #000000; stroke-width: 0.8"/>
      </g>
     </g>
     <g id="text_20">
      <!-- 250 -->
      <g transform="translate(493.494307 1039.878438) scale(0.1 -0.1)">
       <use xlink:href="#DejaVuSans-32"/>
       <use xlink:href="#DejaVuSans-35" x="63.623047"/>
       <use xlink:href="#DejaVuSans-30" x="127.246094"/>
      </g>
     </g>
    </g>
    <g id="text_21">
     <!-- Epoch -->
     <g transform="translate(279.889062 1053.556562) scale(0.1 -0.1)">
      <use xlink:href="#DejaVuSans-45"/>
      <use xlink:href="#DejaVuSans-70" x="63.183594"/>
      <use xlink:href="#DejaVuSans-6f" x="126.660156"/>
      <use xlink:href="#DejaVuSans-63" x="187.841797"/>
      <use xlink:href="#DejaVuSans-68" x="242.822266"/>
     </g>
    </g>
   </g>
   <g id="matplotlib.axis_4">
    <g id="ytick_6">
     <g id="line2d_22">
      <g>
       <use xlink:href="#ma35e93c0ef" x="72" y="1014.703931" style="stroke: #000000; stroke-width: 0.8"/>
      </g>
     </g>
     <g id="text_22">
      <!-- 0.00 -->
      <g transform="translate(42.734375 1018.50315) scale(0.1 -0.1)">
       <use xlink:href="#DejaVuSans-30"/>
       <use xlink:href="#DejaVuSans-2e" x="63.623047"/>
       <use xlink:href="#DejaVuSans-30" x="95.410156"/>
       <use xlink:href="#DejaVuSans-30" x="159.033203"/>
      </g>
     </g>
    </g>
    <g id="ytick_7">
     <g id="line2d_23">
      <g>
       <use xlink:href="#ma35e93c0ef" x="72" y="969.56526" style="stroke: #000000; stroke-width: 0.8"/>
      </g>
     </g>
     <g id="text_23">
      <!-- 0.25 -->
      <g transform="translate(42.734375 973.364478) scale(0.1 -0.1)">
       <use xlink:href="#DejaVuSans-30"/>
       <use xlink:href="#DejaVuSans-2e" x="63.623047"/>
       <use xlink:href="#DejaVuSans-32" x="95.410156"/>
       <use xlink:href="#DejaVuSans-35" x="159.033203"/>
      </g>
     </g>
    </g>
    <g id="ytick_8">
     <g id="line2d_24">
      <g>
       <use xlink:href="#ma35e93c0ef" x="72" y="924.426588" style="stroke: #000000; stroke-width: 0.8"/>
      </g>
     </g>
     <g id="text_24">
      <!-- 0.50 -->
      <g transform="translate(42.734375 928.225807) scale(0.1 -0.1)">
       <use xlink:href="#DejaVuSans-30"/>
       <use xlink:href="#DejaVuSans-2e" x="63.623047"/>
       <use xlink:href="#DejaVuSans-35" x="95.410156"/>
       <use xlink:href="#DejaVuSans-30" x="159.033203"/>
      </g>
     </g>
    </g>
    <g id="ytick_9">
     <g id="line2d_25">
      <g>
       <use xlink:href="#ma35e93c0ef" x="72" y="879.287916" style="stroke: #000000; stroke-width: 0.8"/>
      </g>
     </g>
     <g id="text_25">
      <!-- 0.75 -->
      <g transform="translate(42.734375 883.087135) scale(0.1 -0.1)">
       <defs>
        <path id="DejaVuSans-37" d="M 525 4666 
L 3525 4666 
L 3525 4397 
L 1831 0 
L 1172 0 
L 2766 4134 
L 525 4134 
L 525 4666 
z
" transform="scale(0.015625)"/>
       </defs>
       <use xlink:href="#DejaVuSans-30"/>
       <use xlink:href="#DejaVuSans-2e" x="63.623047"/>
       <use xlink:href="#DejaVuSans-37" x="95.410156"/>
       <use xlink:href="#DejaVuSans-35" x="159.033203"/>
      </g>
     </g>
    </g>
    <g id="ytick_10">
     <g id="line2d_26">
      <g>
       <use xlink:href="#ma35e93c0ef" x="72" y="834.149245" style="stroke: #000000; stroke-width: 0.8"/>
      </g>
     </g>
     <g id="text_26">
      <!-- 1.00 -->
      <g transform="translate(42.734375 837.948463) scale(0.1 -0.1)">
       <use xlink:href="#DejaVuSans-31"/>
       <use xlink:href="#DejaVuSans-2e" x="63.623047"/>
       <use xlink:href="#DejaVuSans-30" x="95.410156"/>
       <use xlink:href="#DejaVuSans-30" x="159.033203"/>
      </g>
     </g>
    </g>
    <g id="ytick_11">
     <g id="line2d_27">
      <g>
       <use xlink:href="#ma35e93c0ef" x="72" y="789.010573" style="stroke: #000000; stroke-width: 0.8"/>
      </g>
     </g>
     <g id="text_27">
      <!-- 1.25 -->
      <g transform="translate(42.734375 792.809792) scale(0.1 -0.1)">
       <use xlink:href="#DejaVuSans-31"/>
       <use xlink:href="#DejaVuSans-2e" x="63.623047"/>
       <use xlink:href="#DejaVuSans-32" x="95.410156"/>
       <use xlink:href="#DejaVuSans-35" x="159.033203"/>
      </g>
     </g>
    </g>
    <g id="ytick_12">
     <g id="line2d_28">
      <g>
       <use xlink:href="#ma35e93c0ef" x="72" y="743.871901" style="stroke: #000000; stroke-width: 0.8"/>
      </g>
     </g>
     <g id="text_28">
      <!-- 1.50 -->
      <g transform="translate(42.734375 747.67112) scale(0.1 -0.1)">
       <use xlink:href="#DejaVuSans-31"/>
       <use xlink:href="#DejaVuSans-2e" x="63.623047"/>
       <use xlink:href="#DejaVuSans-35" x="95.410156"/>
       <use xlink:href="#DejaVuSans-30" x="159.033203"/>
      </g>
     </g>
    </g>
    <g id="ytick_13">
     <g id="line2d_29">
      <g>
       <use xlink:href="#ma35e93c0ef" x="72" y="698.73323" style="stroke: #000000; stroke-width: 0.8"/>
      </g>
     </g>
     <g id="text_29">
      <!-- 1.75 -->
      <g transform="translate(42.734375 702.532448) scale(0.1 -0.1)">
       <use xlink:href="#DejaVuSans-31"/>
       <use xlink:href="#DejaVuSans-2e" x="63.623047"/>
       <use xlink:href="#DejaVuSans-37" x="95.410156"/>
       <use xlink:href="#DejaVuSans-35" x="159.033203"/>
      </g>
     </g>
    </g>
    <g id="ytick_14">
     <g id="line2d_30">
      <g>
       <use xlink:href="#ma35e93c0ef" x="72" y="653.594558" style="stroke: #000000; stroke-width: 0.8"/>
      </g>
     </g>
     <g id="text_30">
      <!-- 2.00 -->
      <g transform="translate(42.734375 657.393777) scale(0.1 -0.1)">
       <use xlink:href="#DejaVuSans-32"/>
       <use xlink:href="#DejaVuSans-2e" x="63.623047"/>
       <use xlink:href="#DejaVuSans-30" x="95.410156"/>
       <use xlink:href="#DejaVuSans-30" x="159.033203"/>
      </g>
     </g>
    </g>
   </g>
   <g id="line2d_31">
    <path d="M 92.290909 858.778354 
L 93.933898 911.051141 
L 95.576886 929.889403 
L 97.219875 936.009646 
L 98.862863 941.582167 
L 100.505852 942.069417 
L 102.148841 947.008294 
L 103.791829 956.578883 
L 105.434818 954.100159 
L 107.077806 957.151642 
L 110.363784 964.259601 
L 112.006772 965.544577 
L 113.649761 965.649947 
L 115.292749 968.905964 
L 116.935738 968.263942 
L 118.578727 970.341591 
L 120.221715 969.391369 
L 121.864704 967.872553 
L 123.507692 970.601969 
L 125.150681 974.746204 
L 126.793669 977.462825 
L 128.436658 976.552163 
L 130.079647 976.792372 
L 131.722635 977.729894 
L 133.365624 974.435567 
L 135.008612 977.596972 
L 136.651601 980.239685 
L 138.29459 979.281881 
L 139.937578 983.029252 
L 141.580567 978.149789 
L 143.223555 983.271825 
L 144.866544 980.919627 
L 146.509533 983.448721 
L 148.152521 985.140949 
L 149.79551 981.760169 
L 151.438498 980.124078 
L 153.081487 982.210436 
L 154.724476 983.678345 
L 156.367464 983.139067 
L 158.010453 986.105659 
L 159.653441 984.855339 
L 161.29643 980.733755 
L 162.939418 980.985885 
L 164.582407 987.319547 
L 166.225396 986.888237 
L 167.868384 986.259019 
L 169.511373 983.53974 
L 171.154361 987.825803 
L 172.79735 981.481027 
L 174.440339 988.105556 
L 176.083327 986.740033 
L 177.726316 983.319635 
L 179.369304 988.210296 
L 181.012293 987.313034 
L 182.655282 986.169039 
L 184.29827 986.432764 
L 185.941259 991.257043 
L 187.584247 990.278682 
L 189.227236 988.630198 
L 190.870225 992.803159 
L 192.513213 990.793246 
L 194.156202 990.510875 
L 195.79919 993.981162 
L 197.442179 993.977457 
L 199.085167 988.923248 
L 200.728156 987.492058 
L 202.371145 993.472443 
L 204.014133 992.150013 
L 205.657122 988.623039 
L 207.30011 992.259433 
L 208.943099 992.976481 
L 210.586088 996.172143 
L 212.229076 992.309085 
L 213.872065 993.298164 
L 215.515053 994.915939 
L 217.158042 994.941935 
L 218.801031 993.095909 
L 220.444019 994.304674 
L 222.087008 993.630604 
L 223.729996 990.095937 
L 225.372985 996.384014 
L 227.015974 994.600933 
L 228.658962 993.878246 
L 230.301951 993.814959 
L 231.944939 995.037436 
L 233.587928 993.521289 
L 235.230916 998.352603 
L 236.873905 996.990365 
L 238.516894 993.999153 
L 240.159882 995.035991 
L 241.802871 989.3089 
L 243.445859 995.189462 
L 245.088848 995.123664 
L 246.731837 994.128635 
L 248.374825 991.03354 
L 250.017814 992.895327 
L 251.660802 995.587865 
L 253.303791 997.215051 
L 254.94678 998.478936 
L 256.589768 997.677519 
L 258.232757 993.817766 
L 259.875745 997.537934 
L 261.518734 998.401647 
L 263.161722 998.035164 
L 264.804711 997.306812 
L 266.4477 995.564414 
L 268.090688 998.15983 
L 269.733677 994.540131 
L 271.376665 994.129594 
L 273.019654 998.115123 
L 276.305631 1001.388458 
L 277.94862 997.232076 
L 279.591608 996.929044 
L 281.234597 995.442121 
L 282.877586 1000.573812 
L 284.520574 1001.205679 
L 286.163563 996.144579 
L 287.806551 999.51609 
L 289.44954 997.332104 
L 291.092529 1000.78554 
L 292.735517 995.632043 
L 294.378506 1000.614613 
L 296.021494 1001.016838 
L 297.664483 997.692271 
L 299.307471 999.707084 
L 300.95046 1001.345 
L 302.593449 997.753067 
L 304.236437 997.997582 
L 305.879426 992.798279 
L 307.522414 1000.119286 
L 310.808392 1001.046146 
L 312.45138 998.642218 
L 314.094369 999.123813 
L 315.737357 1000.305678 
L 317.380346 1001.326674 
L 319.023335 996.755107 
L 320.666323 999.071217 
L 322.309312 998.829546 
L 323.9523 1000.000489 
L 327.238278 999.371256 
L 328.881266 1001.904338 
L 330.524255 1001.463116 
L 332.167243 1000.043384 
L 333.810232 999.922727 
L 335.45322 999.469935 
L 337.096209 1002.006788 
L 338.739198 1001.176854 
L 340.382186 995.775978 
L 342.025175 999.618326 
L 343.668163 1000.429163 
L 345.311152 999.926472 
L 346.954141 1004.26702 
L 348.597129 999.177699 
L 350.240118 995.584382 
L 351.883106 1001.989684 
L 353.526095 1003.174325 
L 355.169084 1002.928791 
L 356.812072 998.275116 
L 358.455061 1000.18239 
L 360.098049 1000.462693 
L 361.741038 998.574136 
L 363.384026 998.943732 
L 365.027015 1000.624939 
L 366.670004 1003.623988 
L 368.312992 1002.969201 
L 369.955981 1000.415381 
L 371.598969 1002.585678 
L 373.241958 1003.275612 
L 374.884947 999.784908 
L 376.527935 1004.929605 
L 378.170924 1003.474865 
L 379.813912 1000.800891 
L 381.456901 999.393919 
L 383.09989 1000.778093 
L 384.742878 1001.068695 
L 386.385867 1002.932622 
L 388.028855 1003.054146 
L 389.671844 994.899389 
L 391.314833 1001.296994 
L 392.957821 999.682209 
L 394.60081 1003.3253 
L 396.243798 1000.532075 
L 397.886787 1002.261144 
L 399.529775 1000.159178 
L 401.172764 1002.622725 
L 402.815753 1001.96868 
L 404.458741 1004.160889 
L 406.10173 1003.995289 
L 407.744718 1001.266364 
L 409.387707 1000.734854 
L 411.030696 1002.382278 
L 412.673684 1000.82421 
L 414.316673 1001.490541 
L 415.959661 1003.459207 
L 417.60265 1004.120213 
L 419.245639 1004.336279 
L 420.888627 1003.580271 
L 422.531616 999.124011 
L 424.174604 1003.439401 
L 425.817593 1001.718593 
L 427.460582 1001.068569 
L 429.10357 1003.641363 
L 430.746559 1001.828126 
L 432.389547 1004.043189 
L 434.032536 1002.405955 
L 435.675524 1001.706922 
L 437.318513 999.420493 
L 438.961502 1000.327143 
L 440.60449 1001.456734 
L 442.247479 1004.668075 
L 443.890467 1003.516919 
L 445.533456 1002.514439 
L 447.176445 1005.104185 
L 448.819433 1002.238931 
L 450.462422 1003.165487 
L 452.10541 1006.952727 
L 453.748399 1002.797033 
L 455.391388 1003.050395 
L 457.034376 1004.110355 
L 458.677365 1003.367247 
L 460.320353 1003.283049 
L 461.963342 997.138453 
L 463.606331 1001.587662 
L 465.249319 1003.381006 
L 466.892308 1002.977046 
L 468.535296 1002.853594 
L 470.178285 1002.348785 
L 471.821273 1005.892314 
L 473.464262 1002.636381 
L 475.107251 1002.940238 
L 476.750239 1002.937031 
L 480.036216 1005.892103 
L 481.679205 1005.14137 
L 483.322194 1004.883053 
L 484.965182 1001.050886 
L 486.608171 1000.748838 
L 488.251159 1004.764039 
L 489.894148 1002.055209 
L 491.537137 1002.170641 
L 493.180125 1006.806207 
L 494.823114 1003.784225 
L 496.466102 1005.20987 
L 498.109091 1002.756108 
L 498.109091 1002.756108 
" clip-path="url(#p5b32715445)" style="fill: none; stroke: #1f77b4; stroke-width: 1.5; stroke-linecap: square"/>
   </g>
   <g id="line2d_32">
    <path d="M 92.290909 640.407273 
L 93.933898 721.417309 
L 95.576886 780.580821 
L 97.219875 876.995008 
L 98.862863 926.59829 
L 100.505852 942.57428 
L 102.148841 950.75909 
L 103.791829 942.660552 
L 105.434818 957.271976 
L 107.077806 942.752825 
L 108.720795 953.691616 
L 110.363784 949.411087 
L 112.006772 958.390654 
L 113.649761 955.621058 
L 115.292749 963.085671 
L 116.935738 966.260017 
L 118.578727 946.245152 
L 120.221715 961.967338 
L 121.864704 959.633884 
L 123.507692 965.871507 
L 125.150681 962.477334 
L 126.793669 965.86893 
L 128.436658 961.321124 
L 130.079647 969.538661 
L 131.722635 961.582966 
L 133.365624 975.668805 
L 135.008612 972.95529 
L 136.651601 974.881217 
L 138.29459 974.378785 
L 139.937578 975.834275 
L 141.580567 966.246538 
L 143.223555 966.574345 
L 144.866544 975.78784 
L 146.509533 971.495963 
L 148.152521 966.123734 
L 149.79551 970.895844 
L 151.438498 970.460563 
L 153.081487 960.564374 
L 154.724476 967.195097 
L 156.367464 975.748059 
L 158.010453 970.726517 
L 159.653441 972.907714 
L 161.29643 979.736434 
L 162.939418 976.423179 
L 164.582407 978.716747 
L 166.225396 976.547065 
L 167.868384 964.633851 
L 169.511373 973.081737 
L 171.154361 979.358081 
L 172.79735 968.614973 
L 174.440339 974.200409 
L 176.083327 975.910779 
L 177.726316 979.293235 
L 179.369304 965.244842 
L 181.012293 978.410719 
L 182.655282 980.305647 
L 184.29827 975.413369 
L 185.941259 978.16386 
L 187.584247 980.384526 
L 189.227236 975.83481 
L 190.870225 980.374243 
L 192.513213 980.494053 
L 194.156202 973.846447 
L 195.79919 980.961536 
L 197.442179 983.537499 
L 199.085167 980.244062 
L 200.728156 976.646952 
L 202.371145 976.783808 
L 204.014133 975.880511 
L 205.657122 968.966085 
L 207.30011 979.694051 
L 208.943099 984.175553 
L 210.586088 973.569807 
L 212.229076 981.111318 
L 213.872065 983.077673 
L 215.515053 976.044218 
L 217.158042 982.847556 
L 220.444019 981.134929 
L 222.087008 977.458087 
L 225.372985 979.972359 
L 227.015974 973.461925 
L 228.658962 973.154151 
L 230.301951 977.301356 
L 231.944939 968.535179 
L 235.230916 974.830833 
L 236.873905 980.081802 
L 238.516894 980.950909 
L 240.159882 980.285732 
L 241.802871 981.765412 
L 243.445859 979.258272 
L 245.088848 980.071802 
L 246.731837 979.092391 
L 248.374825 981.509564 
L 250.017814 981.866773 
L 251.660802 982.987509 
L 253.303791 983.144961 
L 254.94678 978.987853 
L 256.589768 973.936885 
L 258.232757 978.897552 
L 259.875745 980.8525 
L 261.518734 977.904913 
L 263.161722 980.710601 
L 264.804711 976.947504 
L 266.4477 978.737157 
L 268.090688 981.951044 
L 269.733677 981.948155 
L 273.019654 980.192954 
L 274.662643 977.089734 
L 276.305631 983.79173 
L 277.94862 973.937165 
L 279.591608 973.824173 
L 281.234597 983.815678 
L 282.877586 982.748673 
L 284.520574 984.112364 
L 286.163563 980.541699 
L 287.806551 974.917246 
L 289.44954 983.651653 
L 291.092529 983.034458 
L 292.735517 981.439706 
L 294.378506 981.057594 
L 296.021494 984.303883 
L 297.664483 986.513823 
L 299.307471 984.274632 
L 300.95046 986.193307 
L 302.593449 983.51968 
L 304.236437 977.305677 
L 305.879426 985.504053 
L 307.522414 982.386753 
L 309.165403 984.237437 
L 310.808392 978.415578 
L 312.45138 984.627238 
L 314.094369 983.632812 
L 315.737357 980.883467 
L 317.380346 981.428829 
L 319.023335 980.215842 
L 320.666323 982.393657 
L 322.309312 976.647326 
L 323.9523 981.850754 
L 325.595289 983.124382 
L 327.238278 975.653335 
L 328.881266 980.491344 
L 330.524255 982.216339 
L 332.167243 981.149399 
L 333.810232 983.465714 
L 335.45322 981.490807 
L 337.096209 985.799354 
L 338.739198 981.84879 
L 340.382186 987.668927 
L 342.025175 983.266929 
L 343.668163 976.647476 
L 345.311152 985.87963 
L 346.954141 991.498981 
L 348.597129 988.096344 
L 350.240118 989.003217 
L 351.883106 986.706832 
L 353.526095 981.989682 
L 355.169084 985.540199 
L 356.812072 978.692092 
L 358.455061 983.615972 
L 360.098049 983.86988 
L 361.741038 978.313464 
L 363.384026 988.200947 
L 365.027015 980.715283 
L 366.670004 991.603996 
L 368.312992 986.039772 
L 369.955981 990.355683 
L 371.598969 982.959962 
L 373.241958 978.581018 
L 374.884947 981.580055 
L 376.527935 978.360633 
L 378.170924 989.471262 
L 379.813912 979.850123 
L 381.456901 982.364874 
L 383.09989 984.417844 
L 384.742878 984.898642 
L 386.385867 985.820124 
L 388.028855 985.098429 
L 389.671844 983.837917 
L 391.314833 984.524529 
L 392.957821 980.223461 
L 394.60081 980.540071 
L 396.243798 981.876392 
L 397.886787 978.418258 
L 399.529775 981.279115 
L 401.172764 977.470113 
L 402.815753 975.4572 
L 404.458741 978.619002 
L 406.10173 972.291886 
L 407.744718 981.392279 
L 411.030696 986.110919 
L 412.673684 983.568781 
L 414.316673 977.180844 
L 415.959661 983.43122 
L 417.60265 981.960945 
L 419.245639 984.247849 
L 420.888627 987.144597 
L 422.531616 988.076571 
L 424.174604 984.067619 
L 425.817593 983.698185 
L 427.460582 982.859257 
L 429.10357 982.801716 
L 430.746559 979.539319 
L 432.389547 984.991108 
L 434.032536 981.528312 
L 435.675524 982.586174 
L 437.318513 983.93393 
L 438.961502 983.118379 
L 440.60449 979.144366 
L 442.247479 975.905473 
L 443.890467 973.594581 
L 445.533456 981.502682 
L 447.176445 977.57711 
L 448.819433 978.863262 
L 450.462422 986.885517 
L 452.10541 985.994182 
L 453.748399 984.623049 
L 455.391388 982.636532 
L 457.034376 981.517784 
L 458.677365 983.646086 
L 460.320353 982.126399 
L 461.963342 985.163506 
L 463.606331 984.76587 
L 465.249319 986.033702 
L 466.892308 984.01339 
L 468.535296 985.377477 
L 470.178285 983.13579 
L 471.821273 981.140074 
L 473.464262 986.71792 
L 475.107251 986.42589 
L 476.750239 978.793552 
L 478.393228 981.894023 
L 480.036216 979.954137 
L 481.679205 989.801758 
L 483.322194 980.822194 
L 484.965182 982.951239 
L 486.608171 983.757919 
L 488.251159 982.495327 
L 489.894148 978.205 
L 491.537137 986.564382 
L 493.180125 984.670148 
L 494.823114 984.218848 
L 496.466102 988.127053 
L 498.109091 986.35933 
L 498.109091 986.35933 
" clip-path="url(#p5b32715445)" style="fill: none; stroke: #ff7f0e; stroke-width: 1.5; stroke-linecap: square"/>
   </g>
   <g id="patch_9">
    <path d="M 72 1025.28 
L 72 622.08 
" style="fill: none; stroke: #000000; stroke-width: 0.8; stroke-linejoin: miter; stroke-linecap: square"/>
   </g>
   <g id="patch_10">
    <path d="M 518.4 1025.28 
L 518.4 622.08 
" style="fill: none; stroke: #000000; stroke-width: 0.8; stroke-linejoin: miter; stroke-linecap: square"/>
   </g>
   <g id="patch_11">
    <path d="M 72 1025.28 
L 518.4 1025.28 
" style="fill: none; stroke: #000000; stroke-width: 0.8; stroke-linejoin: miter; stroke-linecap: square"/>
   </g>
   <g id="patch_12">
    <path d="M 72 622.08 
L 518.4 622.08 
" style="fill: none; stroke: #000000; stroke-width: 0.8; stroke-linejoin: miter; stroke-linecap: square"/>
   </g>
   <g id="legend_2">
    <g id="patch_13">
     <path d="M 79 659.714375 
L 150.140625 659.714375 
Q 152.140625 659.714375 152.140625 657.714375 
L 152.140625 629.08 
Q 152.140625 627.08 150.140625 627.08 
L 79 627.08 
Q 77 627.08 77 629.08 
L 77 657.714375 
Q 77 659.714375 79 659.714375 
z
" style="fill: #ffffff; opacity: 0.8; stroke: #cccccc; stroke-linejoin: miter"/>
    </g>
    <g id="line2d_33">
     <path d="M 81 635.178437 
L 91 635.178437 
L 101 635.178437 
" style="fill: none; stroke: #1f77b4; stroke-width: 1.5; stroke-linecap: square"/>
    </g>
    <g id="text_31">
     <!-- loss -->
     <g transform="translate(109 638.678437) scale(0.1 -0.1)">
      <defs>
       <path id="DejaVuSans-73" d="M 2834 3397 
L 2834 2853 
Q 2591 2978 2328 3040 
Q 2066 3103 1784 3103 
Q 1356 3103 1142 2972 
Q 928 2841 928 2578 
Q 928 2378 1081 2264 
Q 1234 2150 1697 2047 
L 1894 2003 
Q 2506 1872 2764 1633 
Q 3022 1394 3022 966 
Q 3022 478 2636 193 
Q 2250 -91 1575 -91 
Q 1294 -91 989 -36 
Q 684 19 347 128 
L 347 722 
Q 666 556 975 473 
Q 1284 391 1588 391 
Q 1994 391 2212 530 
Q 2431 669 2431 922 
Q 2431 1156 2273 1281 
Q 2116 1406 1581 1522 
L 1381 1569 
Q 847 1681 609 1914 
Q 372 2147 372 2553 
Q 372 3047 722 3315 
Q 1072 3584 1716 3584 
Q 2034 3584 2315 3537 
Q 2597 3491 2834 3397 
z
" transform="scale(0.015625)"/>
      </defs>
      <use xlink:href="#DejaVuSans-6c"/>
      <use xlink:href="#DejaVuSans-6f" x="27.783203"/>
      <use xlink:href="#DejaVuSans-73" x="88.964844"/>
      <use xlink:href="#DejaVuSans-73" x="141.064453"/>
     </g>
    </g>
    <g id="line2d_34">
     <path d="M 81 649.856562 
L 91 649.856562 
L 101 649.856562 
" style="fill: none; stroke: #ff7f0e; stroke-width: 1.5; stroke-linecap: square"/>
    </g>
    <g id="text_32">
     <!-- val_loss -->
     <g transform="translate(109 653.356562) scale(0.1 -0.1)">
      <use xlink:href="#DejaVuSans-76"/>
      <use xlink:href="#DejaVuSans-61" x="59.179688"/>
      <use xlink:href="#DejaVuSans-6c" x="120.458984"/>
      <use xlink:href="#DejaVuSans-5f" x="148.242188"/>
      <use xlink:href="#DejaVuSans-6c" x="198.242188"/>
      <use xlink:href="#DejaVuSans-6f" x="226.025391"/>
      <use xlink:href="#DejaVuSans-73" x="287.207031"/>
      <use xlink:href="#DejaVuSans-73" x="339.306641"/>
     </g>
    </g>
   </g>
  </g>
 </g>
 <defs>
  <clipPath id="p1318ea1aad">
   <rect x="72" y="138.24" width="446.4" height="403.2"/>
  </clipPath>
  <clipPath id="p5b32715445">
   <rect x="72" y="622.08" width="446.4" height="403.2"/>
  </clipPath>
 </defs>
</svg>
