<?xml version="1.0" encoding="utf-8" standalone="no"?>
<!DOCTYPE svg PUBLIC "-//W3C//DTD SVG 1.1//EN"
  "http://www.w3.org/Graphics/SVG/1.1/DTD/svg11.dtd">
<svg xmlns:xlink="http://www.w3.org/1999/xlink" width="576pt" height="1152pt" viewBox="0 0 576 1152" xmlns="http://www.w3.org/2000/svg" version="1.1">
 <metadata>
  <rdf:RDF xmlns:dc="http://purl.org/dc/elements/1.1/" xmlns:cc="http://creativecommons.org/ns#" xmlns:rdf="http://www.w3.org/1999/02/22-rdf-syntax-ns#">
   <cc:Work>
    <dc:type rdf:resource="http://purl.org/dc/dcmitype/StillImage"/>
    <dc:date>2023-11-16T13:04:28.396749</dc:date>
    <dc:format>image/svg+xml</dc:format>
    <dc:creator>
     <cc:Agent>
      <dc:title>Matplotlib v3.7.3, https://matplotlib.org/</dc:title>
     </cc:Agent>
    </dc:creator>
   </cc:Work>
  </rdf:RDF>
 </metadata>
 <defs>
  <style type="text/css">*{stroke-linejoin: round; stroke-linecap: butt}</style>
 </defs>
 <g id="figure_1">
  <g id="patch_1">
   <path d="M 0 1152 
L 576 1152 
L 576 0 
L 0 0 
z
" style="fill: #ffffff"/>
  </g>
  <g id="axes_1">
   <g id="patch_2">
    <path d="M 72 541.44 
L 518.4 541.44 
L 518.4 138.24 
L 72 138.24 
z
" style="fill: #ffffff"/>
   </g>
   <g id="matplotlib.axis_1">
    <g id="xtick_1">
     <g id="line2d_1">
      <defs>
       <path id="m193ef32e06" d="M 0 0 
L 0 3.5 
" style="stroke: #000000; stroke-width: 0.8"/>
      </defs>
      <g>
       <use xlink:href="#m193ef32e06" x="92.290909" y="541.44" style="stroke: #000000; stroke-width: 0.8"/>
      </g>
     </g>
     <g id="text_1">
      <!-- 0 -->
      <g transform="translate(89.109659 556.038437) scale(0.1 -0.1)">
       <defs>
        <path id="DejaVuSans-30" d="M 2034 4250 
Q 1547 4250 1301 3770 
Q 1056 3291 1056 2328 
Q 1056 1369 1301 889 
Q 1547 409 2034 409 
Q 2525 409 2770 889 
Q 3016 1369 3016 2328 
Q 3016 3291 2770 3770 
Q 2525 4250 2034 4250 
z
M 2034 4750 
Q 2819 4750 3233 4129 
Q 3647 3509 3647 2328 
Q 3647 1150 3233 529 
Q 2819 -91 2034 -91 
Q 1250 -91 836 529 
Q 422 1150 422 2328 
Q 422 3509 836 4129 
Q 1250 4750 2034 4750 
z
" transform="scale(0.015625)"/>
       </defs>
       <use xlink:href="#DejaVuSans-30"/>
      </g>
     </g>
    </g>
    <g id="xtick_2">
     <g id="line2d_2">
      <g>
       <use xlink:href="#m193ef32e06" x="155.7" y="541.44" style="stroke: #000000; stroke-width: 0.8"/>
      </g>
     </g>
     <g id="text_2">
      <!-- 20 -->
      <g transform="translate(149.3375 556.038437) scale(0.1 -0.1)">
       <defs>
        <path id="DejaVuSans-32" d="M 1228 531 
L 3431 531 
L 3431 0 
L 469 0 
L 469 531 
Q 828 903 1448 1529 
Q 2069 2156 2228 2338 
Q 2531 2678 2651 2914 
Q 2772 3150 2772 3378 
Q 2772 3750 2511 3984 
Q 2250 4219 1831 4219 
Q 1534 4219 1204 4116 
Q 875 4013 500 3803 
L 500 4441 
Q 881 4594 1212 4672 
Q 1544 4750 1819 4750 
Q 2544 4750 2975 4387 
Q 3406 4025 3406 3419 
Q 3406 3131 3298 2873 
Q 3191 2616 2906 2266 
Q 2828 2175 2409 1742 
Q 1991 1309 1228 531 
z
" transform="scale(0.015625)"/>
       </defs>
       <use xlink:href="#DejaVuSans-32"/>
       <use xlink:href="#DejaVuSans-30" x="63.623047"/>
      </g>
     </g>
    </g>
    <g id="xtick_3">
     <g id="line2d_3">
      <g>
       <use xlink:href="#m193ef32e06" x="219.109091" y="541.44" style="stroke: #000000; stroke-width: 0.8"/>
      </g>
     </g>
     <g id="text_3">
      <!-- 40 -->
      <g transform="translate(212.746591 556.038437) scale(0.1 -0.1)">
       <defs>
        <path id="DejaVuSans-34" d="M 2419 4116 
L 825 1625 
L 2419 1625 
L 2419 4116 
z
M 2253 4666 
L 3047 4666 
L 3047 1625 
L 3713 1625 
L 3713 1100 
L 3047 1100 
L 3047 0 
L 2419 0 
L 2419 1100 
L 313 1100 
L 313 1709 
L 2253 4666 
z
" transform="scale(0.015625)"/>
       </defs>
       <use xlink:href="#DejaVuSans-34"/>
       <use xlink:href="#DejaVuSans-30" x="63.623047"/>
      </g>
     </g>
    </g>
    <g id="xtick_4">
     <g id="line2d_4">
      <g>
       <use xlink:href="#m193ef32e06" x="282.518182" y="541.44" style="stroke: #000000; stroke-width: 0.8"/>
      </g>
     </g>
     <g id="text_4">
      <!-- 60 -->
      <g transform="translate(276.155682 556.038437) scale(0.1 -0.1)">
       <defs>
        <path id="DejaVuSans-36" d="M 2113 2584 
Q 1688 2584 1439 2293 
Q 1191 2003 1191 1497 
Q 1191 994 1439 701 
Q 1688 409 2113 409 
Q 2538 409 2786 701 
Q 3034 994 3034 1497 
Q 3034 2003 2786 2293 
Q 2538 2584 2113 2584 
z
M 3366 4563 
L 3366 3988 
Q 3128 4100 2886 4159 
Q 2644 4219 2406 4219 
Q 1781 4219 1451 3797 
Q 1122 3375 1075 2522 
Q 1259 2794 1537 2939 
Q 1816 3084 2150 3084 
Q 2853 3084 3261 2657 
Q 3669 2231 3669 1497 
Q 3669 778 3244 343 
Q 2819 -91 2113 -91 
Q 1303 -91 875 529 
Q 447 1150 447 2328 
Q 447 3434 972 4092 
Q 1497 4750 2381 4750 
Q 2619 4750 2861 4703 
Q 3103 4656 3366 4563 
z
" transform="scale(0.015625)"/>
       </defs>
       <use xlink:href="#DejaVuSans-36"/>
       <use xlink:href="#DejaVuSans-30" x="63.623047"/>
      </g>
     </g>
    </g>
    <g id="xtick_5">
     <g id="line2d_5">
      <g>
       <use xlink:href="#m193ef32e06" x="345.927273" y="541.44" style="stroke: #000000; stroke-width: 0.8"/>
      </g>
     </g>
     <g id="text_5">
      <!-- 80 -->
      <g transform="translate(339.564773 556.038437) scale(0.1 -0.1)">
       <defs>
        <path id="DejaVuSans-38" d="M 2034 2216 
Q 1584 2216 1326 1975 
Q 1069 1734 1069 1313 
Q 1069 891 1326 650 
Q 1584 409 2034 409 
Q 2484 409 2743 651 
Q 3003 894 3003 1313 
Q 3003 1734 2745 1975 
Q 2488 2216 2034 2216 
z
M 1403 2484 
Q 997 2584 770 2862 
Q 544 3141 544 3541 
Q 544 4100 942 4425 
Q 1341 4750 2034 4750 
Q 2731 4750 3128 4425 
Q 3525 4100 3525 3541 
Q 3525 3141 3298 2862 
Q 3072 2584 2669 2484 
Q 3125 2378 3379 2068 
Q 3634 1759 3634 1313 
Q 3634 634 3220 271 
Q 2806 -91 2034 -91 
Q 1263 -91 848 271 
Q 434 634 434 1313 
Q 434 1759 690 2068 
Q 947 2378 1403 2484 
z
M 1172 3481 
Q 1172 3119 1398 2916 
Q 1625 2713 2034 2713 
Q 2441 2713 2670 2916 
Q 2900 3119 2900 3481 
Q 2900 3844 2670 4047 
Q 2441 4250 2034 4250 
Q 1625 4250 1398 4047 
Q 1172 3844 1172 3481 
z
" transform="scale(0.015625)"/>
       </defs>
       <use xlink:href="#DejaVuSans-38"/>
       <use xlink:href="#DejaVuSans-30" x="63.623047"/>
      </g>
     </g>
    </g>
    <g id="xtick_6">
     <g id="line2d_6">
      <g>
       <use xlink:href="#m193ef32e06" x="409.336364" y="541.44" style="stroke: #000000; stroke-width: 0.8"/>
      </g>
     </g>
     <g id="text_6">
      <!-- 100 -->
      <g transform="translate(399.792614 556.038437) scale(0.1 -0.1)">
       <defs>
        <path id="DejaVuSans-31" d="M 794 531 
L 1825 531 
L 1825 4091 
L 703 3866 
L 703 4441 
L 1819 4666 
L 2450 4666 
L 2450 531 
L 3481 531 
L 3481 0 
L 794 0 
L 794 531 
z
" transform="scale(0.015625)"/>
       </defs>
       <use xlink:href="#DejaVuSans-31"/>
       <use xlink:href="#DejaVuSans-30" x="63.623047"/>
       <use xlink:href="#DejaVuSans-30" x="127.246094"/>
      </g>
     </g>
    </g>
    <g id="xtick_7">
     <g id="line2d_7">
      <g>
       <use xlink:href="#m193ef32e06" x="472.745455" y="541.44" style="stroke: #000000; stroke-width: 0.8"/>
      </g>
     </g>
     <g id="text_7">
      <!-- 120 -->
      <g transform="translate(463.201705 556.038437) scale(0.1 -0.1)">
       <use xlink:href="#DejaVuSans-31"/>
       <use xlink:href="#DejaVuSans-32" x="63.623047"/>
       <use xlink:href="#DejaVuSans-30" x="127.246094"/>
      </g>
     </g>
    </g>
    <g id="text_8">
     <!-- Epoch -->
     <g transform="translate(279.889062 569.716563) scale(0.1 -0.1)">
      <defs>
       <path id="DejaVuSans-45" d="M 628 4666 
L 3578 4666 
L 3578 4134 
L 1259 4134 
L 1259 2753 
L 3481 2753 
L 3481 2222 
L 1259 2222 
L 1259 531 
L 3634 531 
L 3634 0 
L 628 0 
L 628 4666 
z
" transform="scale(0.015625)"/>
       <path id="DejaVuSans-70" d="M 1159 525 
L 1159 -1331 
L 581 -1331 
L 581 3500 
L 1159 3500 
L 1159 2969 
Q 1341 3281 1617 3432 
Q 1894 3584 2278 3584 
Q 2916 3584 3314 3078 
Q 3713 2572 3713 1747 
Q 3713 922 3314 415 
Q 2916 -91 2278 -91 
Q 1894 -91 1617 61 
Q 1341 213 1159 525 
z
M 3116 1747 
Q 3116 2381 2855 2742 
Q 2594 3103 2138 3103 
Q 1681 3103 1420 2742 
Q 1159 2381 1159 1747 
Q 1159 1113 1420 752 
Q 1681 391 2138 391 
Q 2594 391 2855 752 
Q 3116 1113 3116 1747 
z
" transform="scale(0.015625)"/>
       <path id="DejaVuSans-6f" d="M 1959 3097 
Q 1497 3097 1228 2736 
Q 959 2375 959 1747 
Q 959 1119 1226 758 
Q 1494 397 1959 397 
Q 2419 397 2687 759 
Q 2956 1122 2956 1747 
Q 2956 2369 2687 2733 
Q 2419 3097 1959 3097 
z
M 1959 3584 
Q 2709 3584 3137 3096 
Q 3566 2609 3566 1747 
Q 3566 888 3137 398 
Q 2709 -91 1959 -91 
Q 1206 -91 779 398 
Q 353 888 353 1747 
Q 353 2609 779 3096 
Q 1206 3584 1959 3584 
z
" transform="scale(0.015625)"/>
       <path id="DejaVuSans-63" d="M 3122 3366 
L 3122 2828 
Q 2878 2963 2633 3030 
Q 2388 3097 2138 3097 
Q 1578 3097 1268 2742 
Q 959 2388 959 1747 
Q 959 1106 1268 751 
Q 1578 397 2138 397 
Q 2388 397 2633 464 
Q 2878 531 3122 666 
L 3122 134 
Q 2881 22 2623 -34 
Q 2366 -91 2075 -91 
Q 1284 -91 818 406 
Q 353 903 353 1747 
Q 353 2603 823 3093 
Q 1294 3584 2113 3584 
Q 2378 3584 2631 3529 
Q 2884 3475 3122 3366 
z
" transform="scale(0.015625)"/>
       <path id="DejaVuSans-68" d="M 3513 2113 
L 3513 0 
L 2938 0 
L 2938 2094 
Q 2938 2591 2744 2837 
Q 2550 3084 2163 3084 
Q 1697 3084 1428 2787 
Q 1159 2491 1159 1978 
L 1159 0 
L 581 0 
L 581 4863 
L 1159 4863 
L 1159 2956 
Q 1366 3272 1645 3428 
Q 1925 3584 2291 3584 
Q 2894 3584 3203 3211 
Q 3513 2838 3513 2113 
z
" transform="scale(0.015625)"/>
      </defs>
      <use xlink:href="#DejaVuSans-45"/>
      <use xlink:href="#DejaVuSans-70" x="63.183594"/>
      <use xlink:href="#DejaVuSans-6f" x="126.660156"/>
      <use xlink:href="#DejaVuSans-63" x="187.841797"/>
      <use xlink:href="#DejaVuSans-68" x="242.822266"/>
     </g>
    </g>
   </g>
   <g id="matplotlib.axis_2">
    <g id="ytick_1">
     <g id="line2d_8">
      <defs>
       <path id="m46bb328c45" d="M 0 0 
L -3.5 0 
" style="stroke: #000000; stroke-width: 0.8"/>
      </defs>
      <g>
       <use xlink:href="#m46bb328c45" x="72" y="512.619534" style="stroke: #000000; stroke-width: 0.8"/>
      </g>
     </g>
     <g id="text_9">
      <!-- 0.2 -->
      <g transform="translate(49.096875 516.418753) scale(0.1 -0.1)">
       <defs>
        <path id="DejaVuSans-2e" d="M 684 794 
L 1344 794 
L 1344 0 
L 684 0 
L 684 794 
z
" transform="scale(0.015625)"/>
       </defs>
       <use xlink:href="#DejaVuSans-30"/>
       <use xlink:href="#DejaVuSans-2e" x="63.623047"/>
       <use xlink:href="#DejaVuSans-32" x="95.410156"/>
      </g>
     </g>
    </g>
    <g id="ytick_2">
     <g id="line2d_9">
      <g>
       <use xlink:href="#m46bb328c45" x="72" y="466.666575" style="stroke: #000000; stroke-width: 0.8"/>
      </g>
     </g>
     <g id="text_10">
      <!-- 0.3 -->
      <g transform="translate(49.096875 470.465794) scale(0.1 -0.1)">
       <defs>
        <path id="DejaVuSans-33" d="M 2597 2516 
Q 3050 2419 3304 2112 
Q 3559 1806 3559 1356 
Q 3559 666 3084 287 
Q 2609 -91 1734 -91 
Q 1441 -91 1130 -33 
Q 819 25 488 141 
L 488 750 
Q 750 597 1062 519 
Q 1375 441 1716 441 
Q 2309 441 2620 675 
Q 2931 909 2931 1356 
Q 2931 1769 2642 2001 
Q 2353 2234 1838 2234 
L 1294 2234 
L 1294 2753 
L 1863 2753 
Q 2328 2753 2575 2939 
Q 2822 3125 2822 3475 
Q 2822 3834 2567 4026 
Q 2313 4219 1838 4219 
Q 1578 4219 1281 4162 
Q 984 4106 628 3988 
L 628 4550 
Q 988 4650 1302 4700 
Q 1616 4750 1894 4750 
Q 2613 4750 3031 4423 
Q 3450 4097 3450 3541 
Q 3450 3153 3228 2886 
Q 3006 2619 2597 2516 
z
" transform="scale(0.015625)"/>
       </defs>
       <use xlink:href="#DejaVuSans-30"/>
       <use xlink:href="#DejaVuSans-2e" x="63.623047"/>
       <use xlink:href="#DejaVuSans-33" x="95.410156"/>
      </g>
     </g>
    </g>
    <g id="ytick_3">
     <g id="line2d_10">
      <g>
       <use xlink:href="#m46bb328c45" x="72" y="420.713616" style="stroke: #000000; stroke-width: 0.8"/>
      </g>
     </g>
     <g id="text_11">
      <!-- 0.4 -->
      <g transform="translate(49.096875 424.512834) scale(0.1 -0.1)">
       <use xlink:href="#DejaVuSans-30"/>
       <use xlink:href="#DejaVuSans-2e" x="63.623047"/>
       <use xlink:href="#DejaVuSans-34" x="95.410156"/>
      </g>
     </g>
    </g>
    <g id="ytick_4">
     <g id="line2d_11">
      <g>
       <use xlink:href="#m46bb328c45" x="72" y="374.760656" style="stroke: #000000; stroke-width: 0.8"/>
      </g>
     </g>
     <g id="text_12">
      <!-- 0.5 -->
      <g transform="translate(49.096875 378.559875) scale(0.1 -0.1)">
       <defs>
        <path id="DejaVuSans-35" d="M 691 4666 
L 3169 4666 
L 3169 4134 
L 1269 4134 
L 1269 2991 
Q 1406 3038 1543 3061 
Q 1681 3084 1819 3084 
Q 2600 3084 3056 2656 
Q 3513 2228 3513 1497 
Q 3513 744 3044 326 
Q 2575 -91 1722 -91 
Q 1428 -91 1123 -41 
Q 819 9 494 109 
L 494 744 
Q 775 591 1075 516 
Q 1375 441 1709 441 
Q 2250 441 2565 725 
Q 2881 1009 2881 1497 
Q 2881 1984 2565 2268 
Q 2250 2553 1709 2553 
Q 1456 2553 1204 2497 
Q 953 2441 691 2322 
L 691 4666 
z
" transform="scale(0.015625)"/>
       </defs>
       <use xlink:href="#DejaVuSans-30"/>
       <use xlink:href="#DejaVuSans-2e" x="63.623047"/>
       <use xlink:href="#DejaVuSans-35" x="95.410156"/>
      </g>
     </g>
    </g>
    <g id="ytick_5">
     <g id="line2d_12">
      <g>
       <use xlink:href="#m46bb328c45" x="72" y="328.807697" style="stroke: #000000; stroke-width: 0.8"/>
      </g>
     </g>
     <g id="text_13">
      <!-- 0.6 -->
      <g transform="translate(49.096875 332.606916) scale(0.1 -0.1)">
       <use xlink:href="#DejaVuSans-30"/>
       <use xlink:href="#DejaVuSans-2e" x="63.623047"/>
       <use xlink:href="#DejaVuSans-36" x="95.410156"/>
      </g>
     </g>
    </g>
    <g id="ytick_6">
     <g id="line2d_13">
      <g>
       <use xlink:href="#m46bb328c45" x="72" y="282.854738" style="stroke: #000000; stroke-width: 0.8"/>
      </g>
     </g>
     <g id="text_14">
      <!-- 0.7 -->
      <g transform="translate(49.096875 286.653957) scale(0.1 -0.1)">
       <defs>
        <path id="DejaVuSans-37" d="M 525 4666 
L 3525 4666 
L 3525 4397 
L 1831 0 
L 1172 0 
L 2766 4134 
L 525 4134 
L 525 4666 
z
" transform="scale(0.015625)"/>
       </defs>
       <use xlink:href="#DejaVuSans-30"/>
       <use xlink:href="#DejaVuSans-2e" x="63.623047"/>
       <use xlink:href="#DejaVuSans-37" x="95.410156"/>
      </g>
     </g>
    </g>
    <g id="ytick_7">
     <g id="line2d_14">
      <g>
       <use xlink:href="#m46bb328c45" x="72" y="236.901779" style="stroke: #000000; stroke-width: 0.8"/>
      </g>
     </g>
     <g id="text_15">
      <!-- 0.8 -->
      <g transform="translate(49.096875 240.700997) scale(0.1 -0.1)">
       <use xlink:href="#DejaVuSans-30"/>
       <use xlink:href="#DejaVuSans-2e" x="63.623047"/>
       <use xlink:href="#DejaVuSans-38" x="95.410156"/>
      </g>
     </g>
    </g>
    <g id="ytick_8">
     <g id="line2d_15">
      <g>
       <use xlink:href="#m46bb328c45" x="72" y="190.948819" style="stroke: #000000; stroke-width: 0.8"/>
      </g>
     </g>
     <g id="text_16">
      <!-- 0.9 -->
      <g transform="translate(49.096875 194.748038) scale(0.1 -0.1)">
       <defs>
        <path id="DejaVuSans-39" d="M 703 97 
L 703 672 
Q 941 559 1184 500 
Q 1428 441 1663 441 
Q 2288 441 2617 861 
Q 2947 1281 2994 2138 
Q 2813 1869 2534 1725 
Q 2256 1581 1919 1581 
Q 1219 1581 811 2004 
Q 403 2428 403 3163 
Q 403 3881 828 4315 
Q 1253 4750 1959 4750 
Q 2769 4750 3195 4129 
Q 3622 3509 3622 2328 
Q 3622 1225 3098 567 
Q 2575 -91 1691 -91 
Q 1453 -91 1209 -44 
Q 966 3 703 97 
z
M 1959 2075 
Q 2384 2075 2632 2365 
Q 2881 2656 2881 3163 
Q 2881 3666 2632 3958 
Q 2384 4250 1959 4250 
Q 1534 4250 1286 3958 
Q 1038 3666 1038 3163 
Q 1038 2656 1286 2365 
Q 1534 2075 1959 2075 
z
" transform="scale(0.015625)"/>
       </defs>
       <use xlink:href="#DejaVuSans-30"/>
       <use xlink:href="#DejaVuSans-2e" x="63.623047"/>
       <use xlink:href="#DejaVuSans-39" x="95.410156"/>
      </g>
     </g>
    </g>
    <g id="ytick_9">
     <g id="line2d_16">
      <g>
       <use xlink:href="#m46bb328c45" x="72" y="144.99586" style="stroke: #000000; stroke-width: 0.8"/>
      </g>
     </g>
     <g id="text_17">
      <!-- 1.0 -->
      <g transform="translate(49.096875 148.795079) scale(0.1 -0.1)">
       <use xlink:href="#DejaVuSans-31"/>
       <use xlink:href="#DejaVuSans-2e" x="63.623047"/>
       <use xlink:href="#DejaVuSans-30" x="95.410156"/>
      </g>
     </g>
    </g>
   </g>
   <g id="line2d_17">
    <path d="M 92.290909 320.302705 
L 95.461364 238.579636 
L 98.631818 227.876078 
L 101.802273 225.272513 
L 104.972727 213.122539 
L 108.143182 207.481466 
L 111.313636 207.626113 
L 114.484091 201.551126 
L 117.654545 198.079705 
L 120.825 203.286837 
L 123.995455 194.174343 
L 127.165909 197.067203 
L 130.336364 192.293985 
L 133.506818 190.702922 
L 136.677273 194.608284 
L 139.847727 189.69042 
L 143.018182 188.099356 
L 146.188636 186.797587 
L 149.359091 184.194021 
L 152.529545 188.099356 
L 155.7 183.181519 
L 158.870455 181.735075 
L 162.040909 183.181519 
L 165.211364 181.879722 
L 168.381818 178.408301 
L 171.552273 184.049374 
L 174.722727 177.395799 
L 177.893182 175.804736 
L 181.063636 179.131509 
L 184.234091 178.842243 
L 187.404545 177.974387 
L 190.575 175.804736 
L 193.745455 177.974387 
L 196.915909 172.622609 
L 200.086364 174.647586 
L 203.256818 175.226174 
L 206.427273 174.792233 
L 209.597727 174.647586 
L 212.768182 172.622609 
L 215.938636 173.20117 
L 219.109091 172.188667 
L 222.279545 171.610106 
L 225.45 174.358319 
L 228.620455 169.440455 
L 231.790909 168.138685 
L 234.961364 173.635111 
L 238.131818 173.490464 
L 241.302273 172.333314 
L 244.472727 170.30831 
L 247.643182 175.081527 
L 250.813636 168.138685 
L 253.984091 172.477962 
L 257.154545 168.717246 
L 260.325 170.163663 
L 263.495455 167.849391 
L 266.665909 169.729749 
L 269.836364 169.585102 
L 273.006818 168.283332 
L 276.177273 169.874396 
L 279.347727 166.402975 
L 282.518182 168.283332 
L 285.688636 165.245825 
L 288.859091 168.283332 
L 292.029545 165.53512 
L 295.2 167.27083 
L 298.370455 166.981536 
L 301.540909 163.076201 
L 304.711364 165.824386 
L 307.881818 161.195843 
L 311.052273 164.667264 
L 314.222727 164.811911 
L 317.393182 165.245825 
L 320.563636 163.654762 
L 323.734091 167.27083 
L 326.904545 163.654762 
L 330.075 166.547622 
L 333.245455 165.101178 
L 336.415909 167.27083 
L 339.586364 165.245825 
L 342.756818 167.560097 
L 345.927273 164.667264 
L 349.097727 163.654762 
L 352.268182 163.654762 
L 355.438636 161.051196 
L 358.609091 162.64226 
L 361.779545 166.981536 
L 364.95 164.667264 
L 368.120455 161.774404 
L 371.290909 162.64226 
L 374.461364 161.774404 
L 377.631818 160.761902 
L 380.802273 161.195843 
L 383.972727 160.327988 
L 387.143182 162.786907 
L 390.313636 160.327988 
L 393.484091 160.761902 
L 396.654545 161.919051 
L 399.825 162.931554 
L 402.995455 161.195843 
L 406.165909 161.195843 
L 409.336364 163.220821 
L 412.506818 161.195843 
L 415.677273 159.315486 
L 418.847727 165.245825 
L 422.018182 160.472608 
L 425.188636 160.038694 
L 428.359091 164.811911 
L 431.529545 161.774404 
L 434.7 161.195843 
L 437.870455 162.063698 
L 441.040909 159.894047 
L 444.211364 161.48511 
L 447.381818 162.64226 
L 450.552273 160.761902 
L 453.722727 161.195843 
L 456.893182 157.869042 
L 460.063636 160.617255 
L 463.234091 159.7494 
L 466.404545 157.290481 
L 469.575 161.340463 
L 472.745455 159.7494 
L 475.915909 159.7494 
L 479.086364 160.761902 
L 482.256818 159.026191 
L 485.427273 159.170839 
L 488.597727 158.736897 
L 491.768182 159.170839 
L 494.938636 156.567273 
L 498.109091 159.7494 
L 498.109091 159.7494 
" clip-path="url(#pa5c1199bcf)" style="fill: none; stroke: #1f77b4; stroke-width: 1.5; stroke-linecap: square"/>
   </g>
   <g id="line2d_18">
    <path d="M 92.290909 523.112727 
L 95.461364 486.929298 
L 101.802273 327.722189 
L 104.972727 231.836111 
L 108.143182 210.126035 
L 111.313636 220.98106 
L 114.484091 208.316864 
L 117.654545 188.415986 
L 120.825 199.27101 
L 123.995455 192.034327 
L 127.165909 190.225157 
L 130.336364 193.843498 
L 133.506818 179.370132 
L 136.677273 181.179303 
L 139.847727 177.560961 
L 143.018182 186.606815 
L 146.188636 192.034327 
L 149.359091 186.606815 
L 152.529545 186.606815 
L 155.7 181.179303 
L 158.870455 179.370132 
L 162.040909 175.75179 
L 165.211364 188.415986 
L 168.381818 175.75179 
L 171.552273 177.560961 
L 177.893182 177.560961 
L 184.234091 184.797644 
L 187.404545 184.797644 
L 190.575 190.225157 
L 193.745455 175.75179 
L 196.915909 192.034327 
L 200.086364 173.94262 
L 203.256818 181.179303 
L 206.427273 173.94262 
L 209.597727 175.75179 
L 212.768182 188.415986 
L 215.938636 182.988474 
L 219.109091 182.988474 
L 222.279545 192.034327 
L 225.45 184.797644 
L 228.620455 173.94262 
L 231.790909 188.415986 
L 234.961364 177.560961 
L 238.131818 186.606815 
L 241.302273 179.370132 
L 244.472727 181.179303 
L 247.643182 186.606815 
L 250.813636 173.94262 
L 253.984091 179.370132 
L 257.154545 175.75179 
L 263.495455 179.370132 
L 269.836364 172.133422 
L 273.006818 181.179303 
L 276.177273 182.988474 
L 282.518182 179.370132 
L 285.688636 179.370132 
L 288.859091 186.606815 
L 292.029545 181.179303 
L 295.2 181.179303 
L 298.370455 173.94262 
L 301.540909 173.94262 
L 304.711364 177.560961 
L 307.881818 177.560961 
L 311.052273 188.415986 
L 314.222727 175.75179 
L 317.393182 175.75179 
L 320.563636 179.370132 
L 323.734091 177.560961 
L 326.904545 179.370132 
L 330.075 184.797644 
L 333.245455 181.179303 
L 336.415909 184.797644 
L 342.756818 177.560961 
L 345.927273 177.560961 
L 349.097727 175.75179 
L 352.268182 182.988474 
L 355.438636 172.133422 
L 358.609091 181.179303 
L 361.779545 172.133422 
L 364.95 173.94262 
L 368.120455 177.560961 
L 371.290909 172.133422 
L 374.461364 181.179303 
L 377.631818 186.606815 
L 380.802273 175.75179 
L 383.972727 181.179303 
L 390.313636 173.94262 
L 393.484091 173.94262 
L 396.654545 179.370132 
L 399.825 182.988474 
L 402.995455 184.797644 
L 406.165909 181.179303 
L 409.336364 182.988474 
L 415.677273 179.370132 
L 418.847727 182.988474 
L 422.018182 177.560961 
L 425.188636 186.606815 
L 428.359091 170.324251 
L 431.529545 179.370132 
L 434.7 172.133422 
L 437.870455 184.797644 
L 441.040909 175.75179 
L 444.211364 177.560961 
L 447.381818 182.988474 
L 450.552273 181.179303 
L 453.722727 173.94262 
L 456.893182 177.560961 
L 460.063636 177.560961 
L 463.234091 175.75179 
L 466.404545 179.370132 
L 469.575 172.133422 
L 472.745455 184.797644 
L 475.915909 177.560961 
L 479.086364 177.560961 
L 482.256818 172.133422 
L 485.427273 173.94262 
L 488.597727 179.370132 
L 491.768182 177.560961 
L 494.938636 181.179303 
L 498.109091 175.75179 
L 498.109091 175.75179 
" clip-path="url(#pa5c1199bcf)" style="fill: none; stroke: #ff7f0e; stroke-width: 1.5; stroke-linecap: square"/>
   </g>
   <g id="patch_3">
    <path d="M 72 541.44 
L 72 138.24 
" style="fill: none; stroke: #000000; stroke-width: 0.8; stroke-linejoin: miter; stroke-linecap: square"/>
   </g>
   <g id="patch_4">
    <path d="M 518.4 541.44 
L 518.4 138.24 
" style="fill: none; stroke: #000000; stroke-width: 0.8; stroke-linejoin: miter; stroke-linecap: square"/>
   </g>
   <g id="patch_5">
    <path d="M 72 541.44 
L 518.4 541.44 
" style="fill: none; stroke: #000000; stroke-width: 0.8; stroke-linejoin: miter; stroke-linecap: square"/>
   </g>
   <g id="patch_6">
    <path d="M 72 138.24 
L 518.4 138.24 
" style="fill: none; stroke: #000000; stroke-width: 0.8; stroke-linejoin: miter; stroke-linecap: square"/>
   </g>
   <g id="legend_1">
    <g id="patch_7">
     <path d="M 79 175.874375 
L 175.94375 175.874375 
Q 177.94375 175.874375 177.94375 173.874375 
L 177.94375 145.24 
Q 177.94375 143.24 175.94375 143.24 
L 79 143.24 
Q 77 143.24 77 145.24 
L 77 173.874375 
Q 77 175.874375 79 175.874375 
z
" style="fill: #ffffff; opacity: 0.8; stroke: #cccccc; stroke-linejoin: miter"/>
    </g>
    <g id="line2d_19">
     <path d="M 81 151.338437 
L 91 151.338437 
L 101 151.338437 
" style="fill: none; stroke: #1f77b4; stroke-width: 1.5; stroke-linecap: square"/>
    </g>
    <g id="text_18">
     <!-- accuracy -->
     <g transform="translate(109 154.838437) scale(0.1 -0.1)">
      <defs>
       <path id="DejaVuSans-61" d="M 2194 1759 
Q 1497 1759 1228 1600 
Q 959 1441 959 1056 
Q 959 750 1161 570 
Q 1363 391 1709 391 
Q 2188 391 2477 730 
Q 2766 1069 2766 1631 
L 2766 1759 
L 2194 1759 
z
M 3341 1997 
L 3341 0 
L 2766 0 
L 2766 531 
Q 2569 213 2275 61 
Q 1981 -91 1556 -91 
Q 1019 -91 701 211 
Q 384 513 384 1019 
Q 384 1609 779 1909 
Q 1175 2209 1959 2209 
L 2766 2209 
L 2766 2266 
Q 2766 2663 2505 2880 
Q 2244 3097 1772 3097 
Q 1472 3097 1187 3025 
Q 903 2953 641 2809 
L 641 3341 
Q 956 3463 1253 3523 
Q 1550 3584 1831 3584 
Q 2591 3584 2966 3190 
Q 3341 2797 3341 1997 
z
" transform="scale(0.015625)"/>
       <path id="DejaVuSans-75" d="M 544 1381 
L 544 3500 
L 1119 3500 
L 1119 1403 
Q 1119 906 1312 657 
Q 1506 409 1894 409 
Q 2359 409 2629 706 
Q 2900 1003 2900 1516 
L 2900 3500 
L 3475 3500 
L 3475 0 
L 2900 0 
L 2900 538 
Q 2691 219 2414 64 
Q 2138 -91 1772 -91 
Q 1169 -91 856 284 
Q 544 659 544 1381 
z
M 1991 3584 
L 1991 3584 
z
" transform="scale(0.015625)"/>
       <path id="DejaVuSans-72" d="M 2631 2963 
Q 2534 3019 2420 3045 
Q 2306 3072 2169 3072 
Q 1681 3072 1420 2755 
Q 1159 2438 1159 1844 
L 1159 0 
L 581 0 
L 581 3500 
L 1159 3500 
L 1159 2956 
Q 1341 3275 1631 3429 
Q 1922 3584 2338 3584 
Q 2397 3584 2469 3576 
Q 2541 3569 2628 3553 
L 2631 2963 
z
" transform="scale(0.015625)"/>
       <path id="DejaVuSans-79" d="M 2059 -325 
Q 1816 -950 1584 -1140 
Q 1353 -1331 966 -1331 
L 506 -1331 
L 506 -850 
L 844 -850 
Q 1081 -850 1212 -737 
Q 1344 -625 1503 -206 
L 1606 56 
L 191 3500 
L 800 3500 
L 1894 763 
L 2988 3500 
L 3597 3500 
L 2059 -325 
z
" transform="scale(0.015625)"/>
      </defs>
      <use xlink:href="#DejaVuSans-61"/>
      <use xlink:href="#DejaVuSans-63" x="61.279297"/>
      <use xlink:href="#DejaVuSans-63" x="116.259766"/>
      <use xlink:href="#DejaVuSans-75" x="171.240234"/>
      <use xlink:href="#DejaVuSans-72" x="234.619141"/>
      <use xlink:href="#DejaVuSans-61" x="275.732422"/>
      <use xlink:href="#DejaVuSans-63" x="337.011719"/>
      <use xlink:href="#DejaVuSans-79" x="391.992188"/>
     </g>
    </g>
    <g id="line2d_20">
     <path d="M 81 166.016562 
L 91 166.016562 
L 101 166.016562 
" style="fill: none; stroke: #ff7f0e; stroke-width: 1.5; stroke-linecap: square"/>
    </g>
    <g id="text_19">
     <!-- val_accuracy -->
     <g transform="translate(109 169.516562) scale(0.1 -0.1)">
      <defs>
       <path id="DejaVuSans-76" d="M 191 3500 
L 800 3500 
L 1894 563 
L 2988 3500 
L 3597 3500 
L 2284 0 
L 1503 0 
L 191 3500 
z
" transform="scale(0.015625)"/>
       <path id="DejaVuSans-6c" d="M 603 4863 
L 1178 4863 
L 1178 0 
L 603 0 
L 603 4863 
z
" transform="scale(0.015625)"/>
       <path id="DejaVuSans-5f" d="M 3263 -1063 
L 3263 -1509 
L -63 -1509 
L -63 -1063 
L 3263 -1063 
z
" transform="scale(0.015625)"/>
      </defs>
      <use xlink:href="#DejaVuSans-76"/>
      <use xlink:href="#DejaVuSans-61" x="59.179688"/>
      <use xlink:href="#DejaVuSans-6c" x="120.458984"/>
      <use xlink:href="#DejaVuSans-5f" x="148.242188"/>
      <use xlink:href="#DejaVuSans-61" x="198.242188"/>
      <use xlink:href="#DejaVuSans-63" x="259.521484"/>
      <use xlink:href="#DejaVuSans-63" x="314.501953"/>
      <use xlink:href="#DejaVuSans-75" x="369.482422"/>
      <use xlink:href="#DejaVuSans-72" x="432.861328"/>
      <use xlink:href="#DejaVuSans-61" x="473.974609"/>
      <use xlink:href="#DejaVuSans-63" x="535.253906"/>
      <use xlink:href="#DejaVuSans-79" x="590.234375"/>
     </g>
    </g>
   </g>
  </g>
  <g id="axes_2">
   <g id="patch_8">
    <path d="M 72 1025.28 
L 518.4 1025.28 
L 518.4 622.08 
L 72 622.08 
z
" style="fill: #ffffff"/>
   </g>
   <g id="matplotlib.axis_3">
    <g id="xtick_8">
     <g id="line2d_21">
      <g>
       <use xlink:href="#m193ef32e06" x="92.290909" y="1025.28" style="stroke: #000000; stroke-width: 0.8"/>
      </g>
     </g>
     <g id="text_20">
      <!-- 0 -->
      <g transform="translate(89.109659 1039.878438) scale(0.1 -0.1)">
       <use xlink:href="#DejaVuSans-30"/>
      </g>
     </g>
    </g>
    <g id="xtick_9">
     <g id="line2d_22">
      <g>
       <use xlink:href="#m193ef32e06" x="155.7" y="1025.28" style="stroke: #000000; stroke-width: 0.8"/>
      </g>
     </g>
     <g id="text_21">
      <!-- 20 -->
      <g transform="translate(149.3375 1039.878438) scale(0.1 -0.1)">
       <use xlink:href="#DejaVuSans-32"/>
       <use xlink:href="#DejaVuSans-30" x="63.623047"/>
      </g>
     </g>
    </g>
    <g id="xtick_10">
     <g id="line2d_23">
      <g>
       <use xlink:href="#m193ef32e06" x="219.109091" y="1025.28" style="stroke: #000000; stroke-width: 0.8"/>
      </g>
     </g>
     <g id="text_22">
      <!-- 40 -->
      <g transform="translate(212.746591 1039.878438) scale(0.1 -0.1)">
       <use xlink:href="#DejaVuSans-34"/>
       <use xlink:href="#DejaVuSans-30" x="63.623047"/>
      </g>
     </g>
    </g>
    <g id="xtick_11">
     <g id="line2d_24">
      <g>
       <use xlink:href="#m193ef32e06" x="282.518182" y="1025.28" style="stroke: #000000; stroke-width: 0.8"/>
      </g>
     </g>
     <g id="text_23">
      <!-- 60 -->
      <g transform="translate(276.155682 1039.878438) scale(0.1 -0.1)">
       <use xlink:href="#DejaVuSans-36"/>
       <use xlink:href="#DejaVuSans-30" x="63.623047"/>
      </g>
     </g>
    </g>
    <g id="xtick_12">
     <g id="line2d_25">
      <g>
       <use xlink:href="#m193ef32e06" x="345.927273" y="1025.28" style="stroke: #000000; stroke-width: 0.8"/>
      </g>
     </g>
     <g id="text_24">
      <!-- 80 -->
      <g transform="translate(339.564773 1039.878438) scale(0.1 -0.1)">
       <use xlink:href="#DejaVuSans-38"/>
       <use xlink:href="#DejaVuSans-30" x="63.623047"/>
      </g>
     </g>
    </g>
    <g id="xtick_13">
     <g id="line2d_26">
      <g>
       <use xlink:href="#m193ef32e06" x="409.336364" y="1025.28" style="stroke: #000000; stroke-width: 0.8"/>
      </g>
     </g>
     <g id="text_25">
      <!-- 100 -->
      <g transform="translate(399.792614 1039.878438) scale(0.1 -0.1)">
       <use xlink:href="#DejaVuSans-31"/>
       <use xlink:href="#DejaVuSans-30" x="63.623047"/>
       <use xlink:href="#DejaVuSans-30" x="127.246094"/>
      </g>
     </g>
    </g>
    <g id="xtick_14">
     <g id="line2d_27">
      <g>
       <use xlink:href="#m193ef32e06" x="472.745455" y="1025.28" style="stroke: #000000; stroke-width: 0.8"/>
      </g>
     </g>
     <g id="text_26">
      <!-- 120 -->
      <g transform="translate(463.201705 1039.878438) scale(0.1 -0.1)">
       <use xlink:href="#DejaVuSans-31"/>
       <use xlink:href="#DejaVuSans-32" x="63.623047"/>
       <use xlink:href="#DejaVuSans-30" x="127.246094"/>
      </g>
     </g>
    </g>
    <g id="text_27">
     <!-- Epoch -->
     <g transform="translate(279.889062 1053.556562) scale(0.1 -0.1)">
      <use xlink:href="#DejaVuSans-45"/>
      <use xlink:href="#DejaVuSans-70" x="63.183594"/>
      <use xlink:href="#DejaVuSans-6f" x="126.660156"/>
      <use xlink:href="#DejaVuSans-63" x="187.841797"/>
      <use xlink:href="#DejaVuSans-68" x="242.822266"/>
     </g>
    </g>
   </g>
   <g id="matplotlib.axis_4">
    <g id="ytick_10">
     <g id="line2d_28">
      <g>
       <use xlink:href="#m46bb328c45" x="72" y="1019.860694" style="stroke: #000000; stroke-width: 0.8"/>
      </g>
     </g>
     <g id="text_28">
      <!-- 0.00 -->
      <g transform="translate(42.734375 1023.659912) scale(0.1 -0.1)">
       <use xlink:href="#DejaVuSans-30"/>
       <use xlink:href="#DejaVuSans-2e" x="63.623047"/>
       <use xlink:href="#DejaVuSans-30" x="95.410156"/>
       <use xlink:href="#DejaVuSans-30" x="159.033203"/>
      </g>
     </g>
    </g>
    <g id="ytick_11">
     <g id="line2d_29">
      <g>
       <use xlink:href="#m46bb328c45" x="72" y="971.85154" style="stroke: #000000; stroke-width: 0.8"/>
      </g>
     </g>
     <g id="text_29">
      <!-- 0.25 -->
      <g transform="translate(42.734375 975.650759) scale(0.1 -0.1)">
       <use xlink:href="#DejaVuSans-30"/>
       <use xlink:href="#DejaVuSans-2e" x="63.623047"/>
       <use xlink:href="#DejaVuSans-32" x="95.410156"/>
       <use xlink:href="#DejaVuSans-35" x="159.033203"/>
      </g>
     </g>
    </g>
    <g id="ytick_12">
     <g id="line2d_30">
      <g>
       <use xlink:href="#m46bb328c45" x="72" y="923.842386" style="stroke: #000000; stroke-width: 0.8"/>
      </g>
     </g>
     <g id="text_30">
      <!-- 0.50 -->
      <g transform="translate(42.734375 927.641605) scale(0.1 -0.1)">
       <use xlink:href="#DejaVuSans-30"/>
       <use xlink:href="#DejaVuSans-2e" x="63.623047"/>
       <use xlink:href="#DejaVuSans-35" x="95.410156"/>
       <use xlink:href="#DejaVuSans-30" x="159.033203"/>
      </g>
     </g>
    </g>
    <g id="ytick_13">
     <g id="line2d_31">
      <g>
       <use xlink:href="#m46bb328c45" x="72" y="875.833233" style="stroke: #000000; stroke-width: 0.8"/>
      </g>
     </g>
     <g id="text_31">
      <!-- 0.75 -->
      <g transform="translate(42.734375 879.632452) scale(0.1 -0.1)">
       <use xlink:href="#DejaVuSans-30"/>
       <use xlink:href="#DejaVuSans-2e" x="63.623047"/>
       <use xlink:href="#DejaVuSans-37" x="95.410156"/>
       <use xlink:href="#DejaVuSans-35" x="159.033203"/>
      </g>
     </g>
    </g>
    <g id="ytick_14">
     <g id="line2d_32">
      <g>
       <use xlink:href="#m46bb328c45" x="72" y="827.824079" style="stroke: #000000; stroke-width: 0.8"/>
      </g>
     </g>
     <g id="text_32">
      <!-- 1.00 -->
      <g transform="translate(42.734375 831.623298) scale(0.1 -0.1)">
       <use xlink:href="#DejaVuSans-31"/>
       <use xlink:href="#DejaVuSans-2e" x="63.623047"/>
       <use xlink:href="#DejaVuSans-30" x="95.410156"/>
       <use xlink:href="#DejaVuSans-30" x="159.033203"/>
      </g>
     </g>
    </g>
    <g id="ytick_15">
     <g id="line2d_33">
      <g>
       <use xlink:href="#m46bb328c45" x="72" y="779.814926" style="stroke: #000000; stroke-width: 0.8"/>
      </g>
     </g>
     <g id="text_33">
      <!-- 1.25 -->
      <g transform="translate(42.734375 783.614144) scale(0.1 -0.1)">
       <use xlink:href="#DejaVuSans-31"/>
       <use xlink:href="#DejaVuSans-2e" x="63.623047"/>
       <use xlink:href="#DejaVuSans-32" x="95.410156"/>
       <use xlink:href="#DejaVuSans-35" x="159.033203"/>
      </g>
     </g>
    </g>
    <g id="ytick_16">
     <g id="line2d_34">
      <g>
       <use xlink:href="#m46bb328c45" x="72" y="731.805772" style="stroke: #000000; stroke-width: 0.8"/>
      </g>
     </g>
     <g id="text_34">
      <!-- 1.50 -->
      <g transform="translate(42.734375 735.604991) scale(0.1 -0.1)">
       <use xlink:href="#DejaVuSans-31"/>
       <use xlink:href="#DejaVuSans-2e" x="63.623047"/>
       <use xlink:href="#DejaVuSans-35" x="95.410156"/>
       <use xlink:href="#DejaVuSans-30" x="159.033203"/>
      </g>
     </g>
    </g>
    <g id="ytick_17">
     <g id="line2d_35">
      <g>
       <use xlink:href="#m46bb328c45" x="72" y="683.796618" style="stroke: #000000; stroke-width: 0.8"/>
      </g>
     </g>
     <g id="text_35">
      <!-- 1.75 -->
      <g transform="translate(42.734375 687.595837) scale(0.1 -0.1)">
       <use xlink:href="#DejaVuSans-31"/>
       <use xlink:href="#DejaVuSans-2e" x="63.623047"/>
       <use xlink:href="#DejaVuSans-37" x="95.410156"/>
       <use xlink:href="#DejaVuSans-35" x="159.033203"/>
      </g>
     </g>
    </g>
    <g id="ytick_18">
     <g id="line2d_36">
      <g>
       <use xlink:href="#m46bb328c45" x="72" y="635.787465" style="stroke: #000000; stroke-width: 0.8"/>
      </g>
     </g>
     <g id="text_36">
      <!-- 2.00 -->
      <g transform="translate(42.734375 639.586684) scale(0.1 -0.1)">
       <use xlink:href="#DejaVuSans-32"/>
       <use xlink:href="#DejaVuSans-2e" x="63.623047"/>
       <use xlink:href="#DejaVuSans-30" x="95.410156"/>
       <use xlink:href="#DejaVuSans-30" x="159.033203"/>
      </g>
     </g>
    </g>
   </g>
   <g id="line2d_37">
    <path d="M 92.290909 830.839097 
L 95.461364 913.634507 
L 98.631818 931.398473 
L 101.802273 932.835999 
L 104.972727 943.238418 
L 108.143182 950.881994 
L 111.313636 954.048303 
L 114.484091 956.899942 
L 117.654545 962.519553 
L 120.825 959.261852 
L 123.995455 963.783279 
L 130.336364 967.510329 
L 133.506818 969.066141 
L 136.677273 966.9982 
L 139.847727 966.290797 
L 143.018182 972.067414 
L 146.188636 973.772259 
L 149.359091 976.565634 
L 152.529545 971.850636 
L 155.7 977.321812 
L 158.870455 979.057505 
L 162.040909 979.662515 
L 165.211364 979.343787 
L 168.381818 981.023932 
L 171.552273 978.028573 
L 174.722727 982.653861 
L 177.893182 984.206872 
L 181.063636 980.471248 
L 184.234091 982.651234 
L 187.404545 981.876988 
L 190.575 983.584435 
L 193.745455 982.336135 
L 196.915909 988.251541 
L 200.086364 989.095933 
L 203.256818 987.0018 
L 206.427273 989.545133 
L 209.597727 987.235607 
L 212.768182 989.24636 
L 215.938636 989.815036 
L 219.109091 989.992517 
L 222.279545 989.79484 
L 225.45 988.623717 
L 228.620455 992.913789 
L 231.790909 993.369517 
L 234.961364 989.711024 
L 238.131818 989.762035 
L 241.302273 990.738336 
L 244.472727 990.873871 
L 247.643182 989.876821 
L 250.813636 992.918107 
L 253.984091 989.753498 
L 257.154545 992.889159 
L 260.325 991.211651 
L 263.495455 996.155264 
L 266.665909 995.054285 
L 269.836364 993.30405 
L 273.006818 993.019026 
L 276.177273 993.011211 
L 279.347727 996.634782 
L 282.518182 992.863085 
L 285.688636 996.364722 
L 288.859091 992.159937 
L 292.029545 995.985042 
L 295.2 995.873926 
L 298.370455 996.553311 
L 301.540909 999.379058 
L 304.711364 997.236223 
L 307.881818 1001.967052 
L 311.052273 998.118192 
L 314.222727 998.650602 
L 317.393182 996.787124 
L 320.563636 997.837109 
L 323.734091 996.580064 
L 326.904545 999.931143 
L 330.075 995.90061 
L 333.245455 997.400228 
L 336.415909 996.154983 
L 339.586364 997.299732 
L 342.756818 996.583852 
L 345.927273 998.962241 
L 349.097727 998.745315 
L 352.268182 998.830809 
L 355.438636 1003.549902 
L 358.609091 1002.016474 
L 361.779545 993.640708 
L 364.95 999.620949 
L 368.120455 1000.54055 
L 371.290909 1001.179423 
L 374.461364 1002.096851 
L 377.631818 1001.125976 
L 380.802273 1000.373549 
L 383.972727 1002.879407 
L 387.143182 1001.542109 
L 390.313636 1002.702537 
L 393.484091 1002.425164 
L 396.654545 1001.200854 
L 399.825 999.663113 
L 402.995455 1002.544501 
L 406.165909 1002.407196 
L 409.336364 999.111848 
L 412.506818 1001.934947 
L 415.677273 1003.407899 
L 418.847727 998.23665 
L 422.018182 1002.98324 
L 425.188636 1002.155322 
L 428.359091 999.538413 
L 431.529545 1001.20723 
L 434.7 1001.203946 
L 437.870455 1002.097543 
L 441.040909 1003.203663 
L 444.211364 1001.196831 
L 447.381818 999.641973 
L 450.552273 1003.137741 
L 453.722727 1003.030143 
L 456.893182 1004.912678 
L 460.063636 1004.376055 
L 463.234091 1002.890851 
L 466.404545 1004.718362 
L 469.575 1000.352153 
L 472.745455 1002.708517 
L 475.915909 1003.64675 
L 479.086364 1002.824623 
L 482.256818 1004.518072 
L 485.427273 1005.393447 
L 488.597727 1004.214906 
L 491.768182 1004.700292 
L 494.938636 1006.952727 
L 498.109091 1002.021196 
L 498.109091 1002.021196 
" clip-path="url(#p7114a41563)" style="fill: none; stroke: #1f77b4; stroke-width: 1.5; stroke-linecap: square"/>
   </g>
   <g id="line2d_38">
    <path d="M 92.290909 673.328932 
L 95.461364 640.407273 
L 98.631818 752.21734 
L 101.802273 857.030198 
L 104.972727 917.627678 
L 108.143182 939.484292 
L 111.313636 940.818768 
L 114.484091 950.339704 
L 117.654545 959.00039 
L 120.825 951.829259 
L 123.995455 962.043193 
L 127.165909 958.127703 
L 130.336364 953.849664 
L 133.506818 968.619249 
L 136.677273 969.491003 
L 139.847727 969.705375 
L 143.018182 962.223627 
L 146.188636 959.768401 
L 149.359091 963.136158 
L 152.529545 965.822198 
L 155.7 971.351847 
L 158.870455 973.288319 
L 162.040909 970.288208 
L 165.211364 969.928211 
L 168.381818 974.198567 
L 171.552273 970.966073 
L 174.722727 972.596057 
L 177.893182 974.083621 
L 181.063636 972.133997 
L 184.234091 968.748793 
L 187.404545 970.459559 
L 190.575 971.576904 
L 193.745455 976.471356 
L 196.915909 962.668137 
L 200.086364 979.459466 
L 203.256818 978.516703 
L 206.427273 980.246401 
L 209.597727 978.227192 
L 212.768182 968.476211 
L 215.938636 973.997696 
L 219.109091 972.691674 
L 222.279545 969.83513 
L 225.45 972.01487 
L 228.620455 975.218533 
L 231.790909 972.026622 
L 234.961364 974.428712 
L 238.131818 969.492177 
L 241.302273 976.631661 
L 244.472727 981.056834 
L 247.643182 978.410704 
L 250.813636 978.941082 
L 253.984091 977.574634 
L 257.154545 980.153325 
L 260.325 980.703353 
L 263.495455 973.51301 
L 269.836364 979.815065 
L 273.006818 980.93488 
L 276.177273 978.415847 
L 279.347727 971.717475 
L 282.518182 975.734657 
L 285.688636 973.042219 
L 288.859091 971.490645 
L 292.029545 972.544535 
L 295.2 973.854529 
L 298.370455 974.171886 
L 301.540909 977.772972 
L 304.711364 972.117537 
L 307.881818 971.937393 
L 311.052273 967.297268 
L 314.222727 978.065419 
L 317.393182 978.327413 
L 320.563636 976.334316 
L 323.734091 978.263142 
L 326.904545 970.206006 
L 330.075 972.556052 
L 333.245455 977.773673 
L 336.415909 979.354163 
L 339.586364 975.102202 
L 342.756818 981.02087 
L 345.927273 975.245892 
L 349.097727 972.859948 
L 352.268182 976.60179 
L 355.438636 978.620849 
L 358.609091 979.002108 
L 361.779545 975.81669 
L 364.95 976.148946 
L 368.120455 970.956184 
L 371.290909 979.701091 
L 374.461364 971.896555 
L 377.631818 964.836742 
L 380.802273 979.130995 
L 383.972727 973.416286 
L 387.143182 973.907339 
L 390.313636 970.528127 
L 393.484091 971.837278 
L 396.654545 978.66741 
L 399.825 975.521868 
L 402.995455 970.404691 
L 406.165909 972.476773 
L 409.336364 969.626636 
L 412.506818 966.948837 
L 415.677273 962.106354 
L 418.847727 975.888046 
L 422.018182 978.465526 
L 425.188636 969.00836 
L 428.359091 980.7042 
L 431.529545 972.894882 
L 434.7 976.239498 
L 437.870455 972.440705 
L 441.040909 979.189349 
L 444.211364 980.619572 
L 447.381818 974.943282 
L 450.552273 974.678478 
L 453.722727 979.231153 
L 456.893182 976.392065 
L 460.063636 969.328192 
L 463.234091 970.76411 
L 466.404545 965.77346 
L 469.575 976.193421 
L 472.745455 972.429405 
L 475.915909 973.574868 
L 479.086364 977.732461 
L 482.256818 975.449885 
L 485.427273 974.163933 
L 488.597727 968.306034 
L 491.768182 973.976936 
L 494.938636 973.413416 
L 498.109091 976.803659 
L 498.109091 976.803659 
" clip-path="url(#p7114a41563)" style="fill: none; stroke: #ff7f0e; stroke-width: 1.5; stroke-linecap: square"/>
   </g>
   <g id="patch_9">
    <path d="M 72 1025.28 
L 72 622.08 
" style="fill: none; stroke: #000000; stroke-width: 0.8; stroke-linejoin: miter; stroke-linecap: square"/>
   </g>
   <g id="patch_10">
    <path d="M 518.4 1025.28 
L 518.4 622.08 
" style="fill: none; stroke: #000000; stroke-width: 0.8; stroke-linejoin: miter; stroke-linecap: square"/>
   </g>
   <g id="patch_11">
    <path d="M 72 1025.28 
L 518.4 1025.28 
" style="fill: none; stroke: #000000; stroke-width: 0.8; stroke-linejoin: miter; stroke-linecap: square"/>
   </g>
   <g id="patch_12">
    <path d="M 72 622.08 
L 518.4 622.08 
" style="fill: none; stroke: #000000; stroke-width: 0.8; stroke-linejoin: miter; stroke-linecap: square"/>
   </g>
   <g id="legend_2">
    <g id="patch_13">
     <path d="M 79 659.714375 
L 150.140625 659.714375 
Q 152.140625 659.714375 152.140625 657.714375 
L 152.140625 629.08 
Q 152.140625 627.08 150.140625 627.08 
L 79 627.08 
Q 77 627.08 77 629.08 
L 77 657.714375 
Q 77 659.714375 79 659.714375 
z
" style="fill: #ffffff; opacity: 0.8; stroke: #cccccc; stroke-linejoin: miter"/>
    </g>
    <g id="line2d_39">
     <path d="M 81 635.178437 
L 91 635.178437 
L 101 635.178437 
" style="fill: none; stroke: #1f77b4; stroke-width: 1.5; stroke-linecap: square"/>
    </g>
    <g id="text_37">
     <!-- loss -->
     <g transform="translate(109 638.678437) scale(0.1 -0.1)">
      <defs>
       <path id="DejaVuSans-73" d="M 2834 3397 
L 2834 2853 
Q 2591 2978 2328 3040 
Q 2066 3103 1784 3103 
Q 1356 3103 1142 2972 
Q 928 2841 928 2578 
Q 928 2378 1081 2264 
Q 1234 2150 1697 2047 
L 1894 2003 
Q 2506 1872 2764 1633 
Q 3022 1394 3022 966 
Q 3022 478 2636 193 
Q 2250 -91 1575 -91 
Q 1294 -91 989 -36 
Q 684 19 347 128 
L 347 722 
Q 666 556 975 473 
Q 1284 391 1588 391 
Q 1994 391 2212 530 
Q 2431 669 2431 922 
Q 2431 1156 2273 1281 
Q 2116 1406 1581 1522 
L 1381 1569 
Q 847 1681 609 1914 
Q 372 2147 372 2553 
Q 372 3047 722 3315 
Q 1072 3584 1716 3584 
Q 2034 3584 2315 3537 
Q 2597 3491 2834 3397 
z
" transform="scale(0.015625)"/>
      </defs>
      <use xlink:href="#DejaVuSans-6c"/>
      <use xlink:href="#DejaVuSans-6f" x="27.783203"/>
      <use xlink:href="#DejaVuSans-73" x="88.964844"/>
      <use xlink:href="#DejaVuSans-73" x="141.064453"/>
     </g>
    </g>
    <g id="line2d_40">
     <path d="M 81 649.856562 
L 91 649.856562 
L 101 649.856562 
" style="fill: none; stroke: #ff7f0e; stroke-width: 1.5; stroke-linecap: square"/>
    </g>
    <g id="text_38">
     <!-- val_loss -->
     <g transform="translate(109 653.356562) scale(0.1 -0.1)">
      <use xlink:href="#DejaVuSans-76"/>
      <use xlink:href="#DejaVuSans-61" x="59.179688"/>
      <use xlink:href="#DejaVuSans-6c" x="120.458984"/>
      <use xlink:href="#DejaVuSans-5f" x="148.242188"/>
      <use xlink:href="#DejaVuSans-6c" x="198.242188"/>
      <use xlink:href="#DejaVuSans-6f" x="226.025391"/>
      <use xlink:href="#DejaVuSans-73" x="287.207031"/>
      <use xlink:href="#DejaVuSans-73" x="339.306641"/>
     </g>
    </g>
   </g>
  </g>
 </g>
 <defs>
  <clipPath id="pa5c1199bcf">
   <rect x="72" y="138.24" width="446.4" height="403.2"/>
  </clipPath>
  <clipPath id="p7114a41563">
   <rect x="72" y="622.08" width="446.4" height="403.2"/>
  </clipPath>
 </defs>
</svg>
