<?xml version="1.0" encoding="utf-8" standalone="no"?>
<!DOCTYPE svg PUBLIC "-//W3C//DTD SVG 1.1//EN"
  "http://www.w3.org/Graphics/SVG/1.1/DTD/svg11.dtd">
<svg xmlns:xlink="http://www.w3.org/1999/xlink" width="576pt" height="1152pt" viewBox="0 0 576 1152" xmlns="http://www.w3.org/2000/svg" version="1.1">
 <metadata>
  <rdf:RDF xmlns:dc="http://purl.org/dc/elements/1.1/" xmlns:cc="http://creativecommons.org/ns#" xmlns:rdf="http://www.w3.org/1999/02/22-rdf-syntax-ns#">
   <cc:Work>
    <dc:type rdf:resource="http://purl.org/dc/dcmitype/StillImage"/>
    <dc:date>2023-11-16T12:30:11.490161</dc:date>
    <dc:format>image/svg+xml</dc:format>
    <dc:creator>
     <cc:Agent>
      <dc:title>Matplotlib v3.7.3, https://matplotlib.org/</dc:title>
     </cc:Agent>
    </dc:creator>
   </cc:Work>
  </rdf:RDF>
 </metadata>
 <defs>
  <style type="text/css">*{stroke-linejoin: round; stroke-linecap: butt}</style>
 </defs>
 <g id="figure_1">
  <g id="patch_1">
   <path d="M 0 1152 
L 576 1152 
L 576 0 
L 0 0 
z
" style="fill: #ffffff"/>
  </g>
  <g id="axes_1">
   <g id="patch_2">
    <path d="M 72 541.44 
L 518.4 541.44 
L 518.4 138.24 
L 72 138.24 
z
" style="fill: #ffffff"/>
   </g>
   <g id="matplotlib.axis_1">
    <g id="xtick_1">
     <g id="line2d_1">
      <defs>
       <path id="m92005bd284" d="M 0 0 
L 0 3.5 
" style="stroke: #000000; stroke-width: 0.8"/>
      </defs>
      <g>
       <use xlink:href="#m92005bd284" x="92.290909" y="541.44" style="stroke: #000000; stroke-width: 0.8"/>
      </g>
     </g>
     <g id="text_1">
      <!-- 0 -->
      <g transform="translate(89.109659 556.038437) scale(0.1 -0.1)">
       <defs>
        <path id="DejaVuSans-30" d="M 2034 4250 
Q 1547 4250 1301 3770 
Q 1056 3291 1056 2328 
Q 1056 1369 1301 889 
Q 1547 409 2034 409 
Q 2525 409 2770 889 
Q 3016 1369 3016 2328 
Q 3016 3291 2770 3770 
Q 2525 4250 2034 4250 
z
M 2034 4750 
Q 2819 4750 3233 4129 
Q 3647 3509 3647 2328 
Q 3647 1150 3233 529 
Q 2819 -91 2034 -91 
Q 1250 -91 836 529 
Q 422 1150 422 2328 
Q 422 3509 836 4129 
Q 1250 4750 2034 4750 
z
" transform="scale(0.015625)"/>
       </defs>
       <use xlink:href="#DejaVuSans-30"/>
      </g>
     </g>
    </g>
    <g id="xtick_2">
     <g id="line2d_2">
      <g>
       <use xlink:href="#m92005bd284" x="148.654545" y="541.44" style="stroke: #000000; stroke-width: 0.8"/>
      </g>
     </g>
     <g id="text_2">
      <!-- 25 -->
      <g transform="translate(142.292045 556.038437) scale(0.1 -0.1)">
       <defs>
        <path id="DejaVuSans-32" d="M 1228 531 
L 3431 531 
L 3431 0 
L 469 0 
L 469 531 
Q 828 903 1448 1529 
Q 2069 2156 2228 2338 
Q 2531 2678 2651 2914 
Q 2772 3150 2772 3378 
Q 2772 3750 2511 3984 
Q 2250 4219 1831 4219 
Q 1534 4219 1204 4116 
Q 875 4013 500 3803 
L 500 4441 
Q 881 4594 1212 4672 
Q 1544 4750 1819 4750 
Q 2544 4750 2975 4387 
Q 3406 4025 3406 3419 
Q 3406 3131 3298 2873 
Q 3191 2616 2906 2266 
Q 2828 2175 2409 1742 
Q 1991 1309 1228 531 
z
" transform="scale(0.015625)"/>
        <path id="DejaVuSans-35" d="M 691 4666 
L 3169 4666 
L 3169 4134 
L 1269 4134 
L 1269 2991 
Q 1406 3038 1543 3061 
Q 1681 3084 1819 3084 
Q 2600 3084 3056 2656 
Q 3513 2228 3513 1497 
Q 3513 744 3044 326 
Q 2575 -91 1722 -91 
Q 1428 -91 1123 -41 
Q 819 9 494 109 
L 494 744 
Q 775 591 1075 516 
Q 1375 441 1709 441 
Q 2250 441 2565 725 
Q 2881 1009 2881 1497 
Q 2881 1984 2565 2268 
Q 2250 2553 1709 2553 
Q 1456 2553 1204 2497 
Q 953 2441 691 2322 
L 691 4666 
z
" transform="scale(0.015625)"/>
       </defs>
       <use xlink:href="#DejaVuSans-32"/>
       <use xlink:href="#DejaVuSans-35" x="63.623047"/>
      </g>
     </g>
    </g>
    <g id="xtick_3">
     <g id="line2d_3">
      <g>
       <use xlink:href="#m92005bd284" x="205.018182" y="541.44" style="stroke: #000000; stroke-width: 0.8"/>
      </g>
     </g>
     <g id="text_3">
      <!-- 50 -->
      <g transform="translate(198.655682 556.038437) scale(0.1 -0.1)">
       <use xlink:href="#DejaVuSans-35"/>
       <use xlink:href="#DejaVuSans-30" x="63.623047"/>
      </g>
     </g>
    </g>
    <g id="xtick_4">
     <g id="line2d_4">
      <g>
       <use xlink:href="#m92005bd284" x="261.381818" y="541.44" style="stroke: #000000; stroke-width: 0.8"/>
      </g>
     </g>
     <g id="text_4">
      <!-- 75 -->
      <g transform="translate(255.019318 556.038437) scale(0.1 -0.1)">
       <defs>
        <path id="DejaVuSans-37" d="M 525 4666 
L 3525 4666 
L 3525 4397 
L 1831 0 
L 1172 0 
L 2766 4134 
L 525 4134 
L 525 4666 
z
" transform="scale(0.015625)"/>
       </defs>
       <use xlink:href="#DejaVuSans-37"/>
       <use xlink:href="#DejaVuSans-35" x="63.623047"/>
      </g>
     </g>
    </g>
    <g id="xtick_5">
     <g id="line2d_5">
      <g>
       <use xlink:href="#m92005bd284" x="317.745455" y="541.44" style="stroke: #000000; stroke-width: 0.8"/>
      </g>
     </g>
     <g id="text_5">
      <!-- 100 -->
      <g transform="translate(308.201705 556.038437) scale(0.1 -0.1)">
       <defs>
        <path id="DejaVuSans-31" d="M 794 531 
L 1825 531 
L 1825 4091 
L 703 3866 
L 703 4441 
L 1819 4666 
L 2450 4666 
L 2450 531 
L 3481 531 
L 3481 0 
L 794 0 
L 794 531 
z
" transform="scale(0.015625)"/>
       </defs>
       <use xlink:href="#DejaVuSans-31"/>
       <use xlink:href="#DejaVuSans-30" x="63.623047"/>
       <use xlink:href="#DejaVuSans-30" x="127.246094"/>
      </g>
     </g>
    </g>
    <g id="xtick_6">
     <g id="line2d_6">
      <g>
       <use xlink:href="#m92005bd284" x="374.109091" y="541.44" style="stroke: #000000; stroke-width: 0.8"/>
      </g>
     </g>
     <g id="text_6">
      <!-- 125 -->
      <g transform="translate(364.565341 556.038437) scale(0.1 -0.1)">
       <use xlink:href="#DejaVuSans-31"/>
       <use xlink:href="#DejaVuSans-32" x="63.623047"/>
       <use xlink:href="#DejaVuSans-35" x="127.246094"/>
      </g>
     </g>
    </g>
    <g id="xtick_7">
     <g id="line2d_7">
      <g>
       <use xlink:href="#m92005bd284" x="430.472727" y="541.44" style="stroke: #000000; stroke-width: 0.8"/>
      </g>
     </g>
     <g id="text_7">
      <!-- 150 -->
      <g transform="translate(420.928977 556.038437) scale(0.1 -0.1)">
       <use xlink:href="#DejaVuSans-31"/>
       <use xlink:href="#DejaVuSans-35" x="63.623047"/>
       <use xlink:href="#DejaVuSans-30" x="127.246094"/>
      </g>
     </g>
    </g>
    <g id="xtick_8">
     <g id="line2d_8">
      <g>
       <use xlink:href="#m92005bd284" x="486.836364" y="541.44" style="stroke: #000000; stroke-width: 0.8"/>
      </g>
     </g>
     <g id="text_8">
      <!-- 175 -->
      <g transform="translate(477.292614 556.038437) scale(0.1 -0.1)">
       <use xlink:href="#DejaVuSans-31"/>
       <use xlink:href="#DejaVuSans-37" x="63.623047"/>
       <use xlink:href="#DejaVuSans-35" x="127.246094"/>
      </g>
     </g>
    </g>
    <g id="text_9">
     <!-- Epoch -->
     <g transform="translate(279.889062 569.716563) scale(0.1 -0.1)">
      <defs>
       <path id="DejaVuSans-45" d="M 628 4666 
L 3578 4666 
L 3578 4134 
L 1259 4134 
L 1259 2753 
L 3481 2753 
L 3481 2222 
L 1259 2222 
L 1259 531 
L 3634 531 
L 3634 0 
L 628 0 
L 628 4666 
z
" transform="scale(0.015625)"/>
       <path id="DejaVuSans-70" d="M 1159 525 
L 1159 -1331 
L 581 -1331 
L 581 3500 
L 1159 3500 
L 1159 2969 
Q 1341 3281 1617 3432 
Q 1894 3584 2278 3584 
Q 2916 3584 3314 3078 
Q 3713 2572 3713 1747 
Q 3713 922 3314 415 
Q 2916 -91 2278 -91 
Q 1894 -91 1617 61 
Q 1341 213 1159 525 
z
M 3116 1747 
Q 3116 2381 2855 2742 
Q 2594 3103 2138 3103 
Q 1681 3103 1420 2742 
Q 1159 2381 1159 1747 
Q 1159 1113 1420 752 
Q 1681 391 2138 391 
Q 2594 391 2855 752 
Q 3116 1113 3116 1747 
z
" transform="scale(0.015625)"/>
       <path id="DejaVuSans-6f" d="M 1959 3097 
Q 1497 3097 1228 2736 
Q 959 2375 959 1747 
Q 959 1119 1226 758 
Q 1494 397 1959 397 
Q 2419 397 2687 759 
Q 2956 1122 2956 1747 
Q 2956 2369 2687 2733 
Q 2419 3097 1959 3097 
z
M 1959 3584 
Q 2709 3584 3137 3096 
Q 3566 2609 3566 1747 
Q 3566 888 3137 398 
Q 2709 -91 1959 -91 
Q 1206 -91 779 398 
Q 353 888 353 1747 
Q 353 2609 779 3096 
Q 1206 3584 1959 3584 
z
" transform="scale(0.015625)"/>
       <path id="DejaVuSans-63" d="M 3122 3366 
L 3122 2828 
Q 2878 2963 2633 3030 
Q 2388 3097 2138 3097 
Q 1578 3097 1268 2742 
Q 959 2388 959 1747 
Q 959 1106 1268 751 
Q 1578 397 2138 397 
Q 2388 397 2633 464 
Q 2878 531 3122 666 
L 3122 134 
Q 2881 22 2623 -34 
Q 2366 -91 2075 -91 
Q 1284 -91 818 406 
Q 353 903 353 1747 
Q 353 2603 823 3093 
Q 1294 3584 2113 3584 
Q 2378 3584 2631 3529 
Q 2884 3475 3122 3366 
z
" transform="scale(0.015625)"/>
       <path id="DejaVuSans-68" d="M 3513 2113 
L 3513 0 
L 2938 0 
L 2938 2094 
Q 2938 2591 2744 2837 
Q 2550 3084 2163 3084 
Q 1697 3084 1428 2787 
Q 1159 2491 1159 1978 
L 1159 0 
L 581 0 
L 581 4863 
L 1159 4863 
L 1159 2956 
Q 1366 3272 1645 3428 
Q 1925 3584 2291 3584 
Q 2894 3584 3203 3211 
Q 3513 2838 3513 2113 
z
" transform="scale(0.015625)"/>
      </defs>
      <use xlink:href="#DejaVuSans-45"/>
      <use xlink:href="#DejaVuSans-70" x="63.183594"/>
      <use xlink:href="#DejaVuSans-6f" x="126.660156"/>
      <use xlink:href="#DejaVuSans-63" x="187.841797"/>
      <use xlink:href="#DejaVuSans-68" x="242.822266"/>
     </g>
    </g>
   </g>
   <g id="matplotlib.axis_2">
    <g id="ytick_1">
     <g id="line2d_9">
      <defs>
       <path id="mce22202333" d="M 0 0 
L -3.5 0 
" style="stroke: #000000; stroke-width: 0.8"/>
      </defs>
      <g>
       <use xlink:href="#mce22202333" x="72" y="508.953404" style="stroke: #000000; stroke-width: 0.8"/>
      </g>
     </g>
     <g id="text_10">
      <!-- 0.2 -->
      <g transform="translate(49.096875 512.752623) scale(0.1 -0.1)">
       <defs>
        <path id="DejaVuSans-2e" d="M 684 794 
L 1344 794 
L 1344 0 
L 684 0 
L 684 794 
z
" transform="scale(0.015625)"/>
       </defs>
       <use xlink:href="#DejaVuSans-30"/>
       <use xlink:href="#DejaVuSans-2e" x="63.623047"/>
       <use xlink:href="#DejaVuSans-32" x="95.410156"/>
      </g>
     </g>
    </g>
    <g id="ytick_2">
     <g id="line2d_10">
      <g>
       <use xlink:href="#mce22202333" x="72" y="463.820556" style="stroke: #000000; stroke-width: 0.8"/>
      </g>
     </g>
     <g id="text_11">
      <!-- 0.3 -->
      <g transform="translate(49.096875 467.619775) scale(0.1 -0.1)">
       <defs>
        <path id="DejaVuSans-33" d="M 2597 2516 
Q 3050 2419 3304 2112 
Q 3559 1806 3559 1356 
Q 3559 666 3084 287 
Q 2609 -91 1734 -91 
Q 1441 -91 1130 -33 
Q 819 25 488 141 
L 488 750 
Q 750 597 1062 519 
Q 1375 441 1716 441 
Q 2309 441 2620 675 
Q 2931 909 2931 1356 
Q 2931 1769 2642 2001 
Q 2353 2234 1838 2234 
L 1294 2234 
L 1294 2753 
L 1863 2753 
Q 2328 2753 2575 2939 
Q 2822 3125 2822 3475 
Q 2822 3834 2567 4026 
Q 2313 4219 1838 4219 
Q 1578 4219 1281 4162 
Q 984 4106 628 3988 
L 628 4550 
Q 988 4650 1302 4700 
Q 1616 4750 1894 4750 
Q 2613 4750 3031 4423 
Q 3450 4097 3450 3541 
Q 3450 3153 3228 2886 
Q 3006 2619 2597 2516 
z
" transform="scale(0.015625)"/>
       </defs>
       <use xlink:href="#DejaVuSans-30"/>
       <use xlink:href="#DejaVuSans-2e" x="63.623047"/>
       <use xlink:href="#DejaVuSans-33" x="95.410156"/>
      </g>
     </g>
    </g>
    <g id="ytick_3">
     <g id="line2d_11">
      <g>
       <use xlink:href="#mce22202333" x="72" y="418.687707" style="stroke: #000000; stroke-width: 0.8"/>
      </g>
     </g>
     <g id="text_12">
      <!-- 0.4 -->
      <g transform="translate(49.096875 422.486926) scale(0.1 -0.1)">
       <defs>
        <path id="DejaVuSans-34" d="M 2419 4116 
L 825 1625 
L 2419 1625 
L 2419 4116 
z
M 2253 4666 
L 3047 4666 
L 3047 1625 
L 3713 1625 
L 3713 1100 
L 3047 1100 
L 3047 0 
L 2419 0 
L 2419 1100 
L 313 1100 
L 313 1709 
L 2253 4666 
z
" transform="scale(0.015625)"/>
       </defs>
       <use xlink:href="#DejaVuSans-30"/>
       <use xlink:href="#DejaVuSans-2e" x="63.623047"/>
       <use xlink:href="#DejaVuSans-34" x="95.410156"/>
      </g>
     </g>
    </g>
    <g id="ytick_4">
     <g id="line2d_12">
      <g>
       <use xlink:href="#mce22202333" x="72" y="373.554859" style="stroke: #000000; stroke-width: 0.8"/>
      </g>
     </g>
     <g id="text_13">
      <!-- 0.5 -->
      <g transform="translate(49.096875 377.354078) scale(0.1 -0.1)">
       <use xlink:href="#DejaVuSans-30"/>
       <use xlink:href="#DejaVuSans-2e" x="63.623047"/>
       <use xlink:href="#DejaVuSans-35" x="95.410156"/>
      </g>
     </g>
    </g>
    <g id="ytick_5">
     <g id="line2d_13">
      <g>
       <use xlink:href="#mce22202333" x="72" y="328.42201" style="stroke: #000000; stroke-width: 0.8"/>
      </g>
     </g>
     <g id="text_14">
      <!-- 0.6 -->
      <g transform="translate(49.096875 332.221229) scale(0.1 -0.1)">
       <defs>
        <path id="DejaVuSans-36" d="M 2113 2584 
Q 1688 2584 1439 2293 
Q 1191 2003 1191 1497 
Q 1191 994 1439 701 
Q 1688 409 2113 409 
Q 2538 409 2786 701 
Q 3034 994 3034 1497 
Q 3034 2003 2786 2293 
Q 2538 2584 2113 2584 
z
M 3366 4563 
L 3366 3988 
Q 3128 4100 2886 4159 
Q 2644 4219 2406 4219 
Q 1781 4219 1451 3797 
Q 1122 3375 1075 2522 
Q 1259 2794 1537 2939 
Q 1816 3084 2150 3084 
Q 2853 3084 3261 2657 
Q 3669 2231 3669 1497 
Q 3669 778 3244 343 
Q 2819 -91 2113 -91 
Q 1303 -91 875 529 
Q 447 1150 447 2328 
Q 447 3434 972 4092 
Q 1497 4750 2381 4750 
Q 2619 4750 2861 4703 
Q 3103 4656 3366 4563 
z
" transform="scale(0.015625)"/>
       </defs>
       <use xlink:href="#DejaVuSans-30"/>
       <use xlink:href="#DejaVuSans-2e" x="63.623047"/>
       <use xlink:href="#DejaVuSans-36" x="95.410156"/>
      </g>
     </g>
    </g>
    <g id="ytick_6">
     <g id="line2d_14">
      <g>
       <use xlink:href="#mce22202333" x="72" y="283.289162" style="stroke: #000000; stroke-width: 0.8"/>
      </g>
     </g>
     <g id="text_15">
      <!-- 0.7 -->
      <g transform="translate(49.096875 287.088381) scale(0.1 -0.1)">
       <use xlink:href="#DejaVuSans-30"/>
       <use xlink:href="#DejaVuSans-2e" x="63.623047"/>
       <use xlink:href="#DejaVuSans-37" x="95.410156"/>
      </g>
     </g>
    </g>
    <g id="ytick_7">
     <g id="line2d_15">
      <g>
       <use xlink:href="#mce22202333" x="72" y="238.156313" style="stroke: #000000; stroke-width: 0.8"/>
      </g>
     </g>
     <g id="text_16">
      <!-- 0.8 -->
      <g transform="translate(49.096875 241.955532) scale(0.1 -0.1)">
       <defs>
        <path id="DejaVuSans-38" d="M 2034 2216 
Q 1584 2216 1326 1975 
Q 1069 1734 1069 1313 
Q 1069 891 1326 650 
Q 1584 409 2034 409 
Q 2484 409 2743 651 
Q 3003 894 3003 1313 
Q 3003 1734 2745 1975 
Q 2488 2216 2034 2216 
z
M 1403 2484 
Q 997 2584 770 2862 
Q 544 3141 544 3541 
Q 544 4100 942 4425 
Q 1341 4750 2034 4750 
Q 2731 4750 3128 4425 
Q 3525 4100 3525 3541 
Q 3525 3141 3298 2862 
Q 3072 2584 2669 2484 
Q 3125 2378 3379 2068 
Q 3634 1759 3634 1313 
Q 3634 634 3220 271 
Q 2806 -91 2034 -91 
Q 1263 -91 848 271 
Q 434 634 434 1313 
Q 434 1759 690 2068 
Q 947 2378 1403 2484 
z
M 1172 3481 
Q 1172 3119 1398 2916 
Q 1625 2713 2034 2713 
Q 2441 2713 2670 2916 
Q 2900 3119 2900 3481 
Q 2900 3844 2670 4047 
Q 2441 4250 2034 4250 
Q 1625 4250 1398 4047 
Q 1172 3844 1172 3481 
z
" transform="scale(0.015625)"/>
       </defs>
       <use xlink:href="#DejaVuSans-30"/>
       <use xlink:href="#DejaVuSans-2e" x="63.623047"/>
       <use xlink:href="#DejaVuSans-38" x="95.410156"/>
      </g>
     </g>
    </g>
    <g id="ytick_8">
     <g id="line2d_16">
      <g>
       <use xlink:href="#mce22202333" x="72" y="193.023465" style="stroke: #000000; stroke-width: 0.8"/>
      </g>
     </g>
     <g id="text_17">
      <!-- 0.9 -->
      <g transform="translate(49.096875 196.822684) scale(0.1 -0.1)">
       <defs>
        <path id="DejaVuSans-39" d="M 703 97 
L 703 672 
Q 941 559 1184 500 
Q 1428 441 1663 441 
Q 2288 441 2617 861 
Q 2947 1281 2994 2138 
Q 2813 1869 2534 1725 
Q 2256 1581 1919 1581 
Q 1219 1581 811 2004 
Q 403 2428 403 3163 
Q 403 3881 828 4315 
Q 1253 4750 1959 4750 
Q 2769 4750 3195 4129 
Q 3622 3509 3622 2328 
Q 3622 1225 3098 567 
Q 2575 -91 1691 -91 
Q 1453 -91 1209 -44 
Q 966 3 703 97 
z
M 1959 2075 
Q 2384 2075 2632 2365 
Q 2881 2656 2881 3163 
Q 2881 3666 2632 3958 
Q 2384 4250 1959 4250 
Q 1534 4250 1286 3958 
Q 1038 3666 1038 3163 
Q 1038 2656 1286 2365 
Q 1534 2075 1959 2075 
z
" transform="scale(0.015625)"/>
       </defs>
       <use xlink:href="#DejaVuSans-30"/>
       <use xlink:href="#DejaVuSans-2e" x="63.623047"/>
       <use xlink:href="#DejaVuSans-39" x="95.410156"/>
      </g>
     </g>
    </g>
    <g id="ytick_9">
     <g id="line2d_17">
      <g>
       <use xlink:href="#mce22202333" x="72" y="147.890617" style="stroke: #000000; stroke-width: 0.8"/>
      </g>
     </g>
     <g id="text_18">
      <!-- 1.0 -->
      <g transform="translate(49.096875 151.689835) scale(0.1 -0.1)">
       <use xlink:href="#DejaVuSans-31"/>
       <use xlink:href="#DejaVuSans-2e" x="63.623047"/>
       <use xlink:href="#DejaVuSans-30" x="95.410156"/>
      </g>
     </g>
    </g>
   </g>
   <g id="line2d_18">
    <path d="M 92.290909 339.203815 
L 94.545455 243.049381 
L 96.8 233.234801 
L 99.054545 226.26503 
L 101.309091 220.575411 
L 103.563636 220.433184 
L 105.818182 209.907388 
L 112.581818 204.075541 
L 114.836364 198.528176 
L 117.090909 199.6661 
L 119.345455 197.105771 
L 121.6 193.97648 
L 123.854545 191.273898 
L 126.109091 191.131671 
L 128.363636 191.84286 
L 130.618182 188.998077 
L 132.872727 188.286861 
L 135.127273 185.584305 
L 137.381818 186.722229 
L 139.636364 183.166203 
L 141.890909 186.153267 
L 144.145455 181.459317 
L 146.4 184.446381 
L 148.654545 180.890356 
L 150.909091 182.028279 
L 153.163636 179.610205 
L 155.418182 181.032609 
L 157.672727 179.752432 
L 159.927273 180.179167 
L 162.181818 179.610205 
L 164.436364 180.321394 
L 166.690909 181.174837 
L 168.945455 180.036913 
L 171.2 180.890356 
L 173.454545 177.761092 
L 175.709091 178.045573 
L 177.963636 173.636104 
L 180.218182 176.054206 
L 182.472727 174.916282 
L 184.727273 176.480914 
L 186.981818 177.049876 
L 189.236364 170.222333 
L 191.490909 171.929218 
L 193.745455 176.907649 
L 196 172.49818 
L 198.254545 174.205066 
L 200.509091 168.942182 
L 202.763636 172.640434 
L 205.018182 169.937852 
L 207.272727 173.067142 
L 209.527273 172.213699 
L 211.781818 170.506813 
L 214.036364 169.084409 
L 216.290909 171.644737 
L 218.545455 173.636104 
L 220.8 169.36889 
L 223.054545 169.937852 
L 225.309091 167.662031 
L 227.563636 168.230993 
L 229.818182 174.062839 
L 232.072727 169.226663 
L 234.327273 167.093069 
L 236.581818 168.515474 
L 238.836364 169.795625 
L 241.090909 172.640434 
L 243.345455 173.636104 
L 245.6 173.209396 
L 247.854545 169.36889 
L 250.109091 169.084409 
L 252.363636 171.929218 
L 254.618182 167.37755 
L 256.872727 164.674967 
L 259.127273 164.674967 
L 261.381818 168.230993 
L 263.636364 168.088739 
L 265.890909 163.821524 
L 268.145455 165.243929 
L 270.4 165.52841 
L 272.654545 171.644737 
L 274.909091 167.519777 
L 277.163636 165.955145 
L 279.418182 165.243929 
L 281.672727 166.524107 
L 283.927273 164.674967 
L 286.181818 164.53274 
L 288.436364 166.524107 
L 290.690909 169.795625 
L 292.945455 171.644737 
L 295.2 165.955145 
L 297.454545 164.674967 
L 299.709091 162.6836 
L 301.963636 166.808588 
L 304.218182 163.394816 
L 306.472727 164.817221 
L 308.727273 164.106005 
L 310.981818 165.243929 
L 313.236364 170.364586 
L 315.490909 165.812891 
L 317.745455 164.390486 
L 320 166.239626 
L 322.254545 163.252562 
L 324.509091 163.252562 
L 326.763636 166.950815 
L 329.018182 163.537043 
L 331.272727 167.946512 
L 333.527273 163.537043 
L 335.781818 165.386183 
L 338.036364 164.390486 
L 340.290909 161.68793 
L 342.545455 162.825854 
L 344.8 164.53274 
L 347.054545 162.256892 
L 349.309091 165.812891 
L 351.563636 166.666334 
L 353.818182 164.106005 
L 356.072727 160.976714 
L 358.327273 171.929218 
L 362.836364 164.248259 
L 365.090909 165.101702 
L 367.345455 161.830157 
L 369.6 161.68793 
L 371.854545 164.106005 
L 374.109091 164.817221 
L 376.363636 159.981044 
L 378.618182 160.265525 
L 380.872727 163.679297 
L 383.127273 162.6836 
L 385.381818 160.123271 
L 387.636364 162.541373 
L 389.890909 162.399119 
L 392.145455 161.261195 
L 394.4 161.118968 
L 396.654545 163.394816 
L 398.909091 161.403449 
L 401.163636 162.968081 
L 403.418182 162.825854 
L 405.672727 163.537043 
L 407.927273 162.399119 
L 410.181818 162.114638 
L 412.436364 159.83879 
L 414.690909 161.118968 
L 416.945455 161.403449 
L 419.2 160.265525 
L 421.454545 157.989678 
L 423.709091 157.420716 
L 425.963636 160.550006 
L 428.218182 168.657701 
L 430.472727 162.541373 
L 432.727273 163.537043 
L 434.981818 160.550006 
L 437.236364 160.550006 
L 439.490909 161.403449 
L 441.745455 160.407752 
L 444 158.131932 
L 446.254545 159.127601 
L 448.509091 159.269829 
L 450.763636 160.976714 
L 453.018182 161.830157 
L 455.272727 160.123271 
L 457.527273 159.269829 
L 459.781818 161.403449 
L 462.036364 160.834487 
L 464.290909 160.692233 
L 466.545455 163.394816 
L 468.8 156.567273 
L 471.054545 157.56297 
L 473.309091 156.994008 
L 475.563636 156.851754 
L 477.818182 158.985348 
L 480.072727 160.407752 
L 482.327273 159.412082 
L 484.581818 161.403449 
L 486.836364 161.118968 
L 489.090909 158.274159 
L 491.345455 159.981044 
L 493.6 159.83879 
L 495.854545 157.278489 
L 498.109091 158.416386 
L 498.109091 158.416386 
" clip-path="url(#pfd52f1c9d6)" style="fill: none; stroke: #1f77b4; stroke-width: 1.5; stroke-linecap: square"/>
   </g>
   <g id="line2d_19">
    <path d="M 92.290909 523.112727 
L 94.545455 443.466522 
L 96.8 393.908887 
L 99.054545 324.882169 
L 101.309091 266.474956 
L 103.563636 220.457153 
L 105.818182 200.988082 
L 108.072727 197.448251 
L 110.327273 247.005886 
L 112.581818 200.988082 
L 114.836364 192.138505 
L 117.090909 209.83766 
L 119.345455 209.83766 
L 121.6 185.058842 
L 123.854545 199.218167 
L 126.109091 199.218167 
L 128.363636 193.90842 
L 130.618182 183.288927 
L 132.872727 185.058842 
L 135.127273 208.067744 
L 137.381818 192.138505 
L 139.636364 181.519011 
L 141.890909 195.678336 
L 144.145455 192.138505 
L 146.4 216.917322 
L 148.654545 190.368589 
L 150.909091 185.058842 
L 153.163636 183.288927 
L 155.418182 186.828758 
L 157.672727 197.448251 
L 159.927273 188.598674 
L 162.181818 181.519011 
L 164.436364 192.138505 
L 166.690909 185.058842 
L 168.945455 179.749096 
L 171.2 183.288927 
L 173.454545 177.97918 
L 175.709091 190.368589 
L 177.963636 179.749096 
L 182.472727 179.749096 
L 184.727273 176.209265 
L 186.981818 181.519011 
L 189.236364 185.058842 
L 191.490909 186.828758 
L 193.745455 197.448251 
L 196 185.058842 
L 198.254545 197.448251 
L 200.509091 186.828758 
L 202.763636 174.439349 
L 205.018182 183.288927 
L 207.272727 209.83766 
L 209.527273 206.297829 
L 211.781818 181.519011 
L 214.036364 176.209265 
L 216.290909 215.147406 
L 218.545455 188.598674 
L 220.8 188.598674 
L 223.054545 181.519011 
L 225.309091 185.058842 
L 227.563636 174.439349 
L 229.818182 183.288927 
L 232.072727 174.439349 
L 234.327273 174.439349 
L 236.581818 181.519011 
L 238.836364 186.828758 
L 241.090909 193.90842 
L 243.345455 192.138505 
L 245.6 188.598674 
L 247.854545 186.828758 
L 250.109091 186.828758 
L 252.363636 181.519011 
L 254.618182 186.828758 
L 256.872727 181.519011 
L 259.127273 193.90842 
L 261.381818 193.90842 
L 263.636364 176.209265 
L 265.890909 176.209265 
L 268.145455 177.97918 
L 270.4 188.598674 
L 272.654545 177.97918 
L 274.909091 192.138505 
L 277.163636 176.209265 
L 279.418182 185.058842 
L 281.672727 192.138505 
L 283.927273 177.97918 
L 286.181818 188.598674 
L 288.436364 195.678336 
L 292.945455 192.138505 
L 295.2 186.828758 
L 297.454545 188.598674 
L 299.709091 177.97918 
L 304.218182 174.439349 
L 306.472727 181.519011 
L 308.727273 179.749096 
L 310.981818 186.828758 
L 313.236364 179.749096 
L 315.490909 188.598674 
L 317.745455 170.899518 
L 320 193.90842 
L 322.254545 183.288927 
L 324.509091 177.97918 
L 326.763636 192.138505 
L 329.018182 188.598674 
L 331.272727 179.749096 
L 333.527273 183.288927 
L 335.781818 181.519011 
L 338.036364 197.448251 
L 340.290909 185.058842 
L 342.545455 181.519011 
L 344.8 183.288927 
L 347.054545 183.288927 
L 349.309091 188.598674 
L 351.563636 190.368589 
L 353.818182 195.678336 
L 356.072727 183.288927 
L 358.327273 192.138505 
L 360.581818 186.828758 
L 362.836364 190.368589 
L 365.090909 190.368589 
L 367.345455 186.828758 
L 371.854545 183.288927 
L 374.109091 183.288927 
L 376.363636 192.138505 
L 378.618182 179.749096 
L 380.872727 188.598674 
L 383.127273 186.828758 
L 385.381818 177.97918 
L 389.890909 188.598674 
L 394.4 188.598674 
L 396.654545 185.058842 
L 398.909091 190.368589 
L 401.163636 188.598674 
L 403.418182 193.90842 
L 405.672727 186.828758 
L 407.927273 193.90842 
L 410.181818 190.368589 
L 412.436364 190.368589 
L 414.690909 181.519011 
L 416.945455 186.828758 
L 419.2 183.288927 
L 421.454545 181.519011 
L 423.709091 188.598674 
L 425.963636 186.828758 
L 428.218182 181.519011 
L 432.727273 188.598674 
L 434.981818 188.598674 
L 437.236364 181.519011 
L 439.490909 186.828758 
L 441.745455 181.519011 
L 444 185.058842 
L 446.254545 185.058842 
L 448.509091 179.749096 
L 453.018182 193.90842 
L 455.272727 195.678336 
L 457.527273 185.058842 
L 459.781818 197.448251 
L 462.036364 186.828758 
L 464.290909 192.138505 
L 466.545455 190.368589 
L 468.8 186.828758 
L 471.054545 181.519011 
L 473.309091 183.288927 
L 475.563636 181.519011 
L 477.818182 193.90842 
L 480.072727 177.97918 
L 482.327273 181.519011 
L 484.581818 179.749096 
L 486.836364 188.598674 
L 489.090909 179.749096 
L 491.345455 185.058842 
L 493.6 188.598674 
L 495.854545 179.749096 
L 498.109091 174.439349 
L 498.109091 174.439349 
" clip-path="url(#pfd52f1c9d6)" style="fill: none; stroke: #ff7f0e; stroke-width: 1.5; stroke-linecap: square"/>
   </g>
   <g id="patch_3">
    <path d="M 72 541.44 
L 72 138.24 
" style="fill: none; stroke: #000000; stroke-width: 0.8; stroke-linejoin: miter; stroke-linecap: square"/>
   </g>
   <g id="patch_4">
    <path d="M 518.4 541.44 
L 518.4 138.24 
" style="fill: none; stroke: #000000; stroke-width: 0.8; stroke-linejoin: miter; stroke-linecap: square"/>
   </g>
   <g id="patch_5">
    <path d="M 72 541.44 
L 518.4 541.44 
" style="fill: none; stroke: #000000; stroke-width: 0.8; stroke-linejoin: miter; stroke-linecap: square"/>
   </g>
   <g id="patch_6">
    <path d="M 72 138.24 
L 518.4 138.24 
" style="fill: none; stroke: #000000; stroke-width: 0.8; stroke-linejoin: miter; stroke-linecap: square"/>
   </g>
   <g id="legend_1">
    <g id="patch_7">
     <path d="M 79 175.874375 
L 175.94375 175.874375 
Q 177.94375 175.874375 177.94375 173.874375 
L 177.94375 145.24 
Q 177.94375 143.24 175.94375 143.24 
L 79 143.24 
Q 77 143.24 77 145.24 
L 77 173.874375 
Q 77 175.874375 79 175.874375 
z
" style="fill: #ffffff; opacity: 0.8; stroke: #cccccc; stroke-linejoin: miter"/>
    </g>
    <g id="line2d_20">
     <path d="M 81 151.338437 
L 91 151.338437 
L 101 151.338437 
" style="fill: none; stroke: #1f77b4; stroke-width: 1.5; stroke-linecap: square"/>
    </g>
    <g id="text_19">
     <!-- accuracy -->
     <g transform="translate(109 154.838437) scale(0.1 -0.1)">
      <defs>
       <path id="DejaVuSans-61" d="M 2194 1759 
Q 1497 1759 1228 1600 
Q 959 1441 959 1056 
Q 959 750 1161 570 
Q 1363 391 1709 391 
Q 2188 391 2477 730 
Q 2766 1069 2766 1631 
L 2766 1759 
L 2194 1759 
z
M 3341 1997 
L 3341 0 
L 2766 0 
L 2766 531 
Q 2569 213 2275 61 
Q 1981 -91 1556 -91 
Q 1019 -91 701 211 
Q 384 513 384 1019 
Q 384 1609 779 1909 
Q 1175 2209 1959 2209 
L 2766 2209 
L 2766 2266 
Q 2766 2663 2505 2880 
Q 2244 3097 1772 3097 
Q 1472 3097 1187 3025 
Q 903 2953 641 2809 
L 641 3341 
Q 956 3463 1253 3523 
Q 1550 3584 1831 3584 
Q 2591 3584 2966 3190 
Q 3341 2797 3341 1997 
z
" transform="scale(0.015625)"/>
       <path id="DejaVuSans-75" d="M 544 1381 
L 544 3500 
L 1119 3500 
L 1119 1403 
Q 1119 906 1312 657 
Q 1506 409 1894 409 
Q 2359 409 2629 706 
Q 2900 1003 2900 1516 
L 2900 3500 
L 3475 3500 
L 3475 0 
L 2900 0 
L 2900 538 
Q 2691 219 2414 64 
Q 2138 -91 1772 -91 
Q 1169 -91 856 284 
Q 544 659 544 1381 
z
M 1991 3584 
L 1991 3584 
z
" transform="scale(0.015625)"/>
       <path id="DejaVuSans-72" d="M 2631 2963 
Q 2534 3019 2420 3045 
Q 2306 3072 2169 3072 
Q 1681 3072 1420 2755 
Q 1159 2438 1159 1844 
L 1159 0 
L 581 0 
L 581 3500 
L 1159 3500 
L 1159 2956 
Q 1341 3275 1631 3429 
Q 1922 3584 2338 3584 
Q 2397 3584 2469 3576 
Q 2541 3569 2628 3553 
L 2631 2963 
z
" transform="scale(0.015625)"/>
       <path id="DejaVuSans-79" d="M 2059 -325 
Q 1816 -950 1584 -1140 
Q 1353 -1331 966 -1331 
L 506 -1331 
L 506 -850 
L 844 -850 
Q 1081 -850 1212 -737 
Q 1344 -625 1503 -206 
L 1606 56 
L 191 3500 
L 800 3500 
L 1894 763 
L 2988 3500 
L 3597 3500 
L 2059 -325 
z
" transform="scale(0.015625)"/>
      </defs>
      <use xlink:href="#DejaVuSans-61"/>
      <use xlink:href="#DejaVuSans-63" x="61.279297"/>
      <use xlink:href="#DejaVuSans-63" x="116.259766"/>
      <use xlink:href="#DejaVuSans-75" x="171.240234"/>
      <use xlink:href="#DejaVuSans-72" x="234.619141"/>
      <use xlink:href="#DejaVuSans-61" x="275.732422"/>
      <use xlink:href="#DejaVuSans-63" x="337.011719"/>
      <use xlink:href="#DejaVuSans-79" x="391.992188"/>
     </g>
    </g>
    <g id="line2d_21">
     <path d="M 81 166.016562 
L 91 166.016562 
L 101 166.016562 
" style="fill: none; stroke: #ff7f0e; stroke-width: 1.5; stroke-linecap: square"/>
    </g>
    <g id="text_20">
     <!-- val_accuracy -->
     <g transform="translate(109 169.516562) scale(0.1 -0.1)">
      <defs>
       <path id="DejaVuSans-76" d="M 191 3500 
L 800 3500 
L 1894 563 
L 2988 3500 
L 3597 3500 
L 2284 0 
L 1503 0 
L 191 3500 
z
" transform="scale(0.015625)"/>
       <path id="DejaVuSans-6c" d="M 603 4863 
L 1178 4863 
L 1178 0 
L 603 0 
L 603 4863 
z
" transform="scale(0.015625)"/>
       <path id="DejaVuSans-5f" d="M 3263 -1063 
L 3263 -1509 
L -63 -1509 
L -63 -1063 
L 3263 -1063 
z
" transform="scale(0.015625)"/>
      </defs>
      <use xlink:href="#DejaVuSans-76"/>
      <use xlink:href="#DejaVuSans-61" x="59.179688"/>
      <use xlink:href="#DejaVuSans-6c" x="120.458984"/>
      <use xlink:href="#DejaVuSans-5f" x="148.242188"/>
      <use xlink:href="#DejaVuSans-61" x="198.242188"/>
      <use xlink:href="#DejaVuSans-63" x="259.521484"/>
      <use xlink:href="#DejaVuSans-63" x="314.501953"/>
      <use xlink:href="#DejaVuSans-75" x="369.482422"/>
      <use xlink:href="#DejaVuSans-72" x="432.861328"/>
      <use xlink:href="#DejaVuSans-61" x="473.974609"/>
      <use xlink:href="#DejaVuSans-63" x="535.253906"/>
      <use xlink:href="#DejaVuSans-79" x="590.234375"/>
     </g>
    </g>
   </g>
  </g>
  <g id="axes_2">
   <g id="patch_8">
    <path d="M 72 1025.28 
L 518.4 1025.28 
L 518.4 622.08 
L 72 622.08 
z
" style="fill: #ffffff"/>
   </g>
   <g id="matplotlib.axis_3">
    <g id="xtick_9">
     <g id="line2d_22">
      <g>
       <use xlink:href="#m92005bd284" x="92.290909" y="1025.28" style="stroke: #000000; stroke-width: 0.8"/>
      </g>
     </g>
     <g id="text_21">
      <!-- 0 -->
      <g transform="translate(89.109659 1039.878438) scale(0.1 -0.1)">
       <use xlink:href="#DejaVuSans-30"/>
      </g>
     </g>
    </g>
    <g id="xtick_10">
     <g id="line2d_23">
      <g>
       <use xlink:href="#m92005bd284" x="148.654545" y="1025.28" style="stroke: #000000; stroke-width: 0.8"/>
      </g>
     </g>
     <g id="text_22">
      <!-- 25 -->
      <g transform="translate(142.292045 1039.878438) scale(0.1 -0.1)">
       <use xlink:href="#DejaVuSans-32"/>
       <use xlink:href="#DejaVuSans-35" x="63.623047"/>
      </g>
     </g>
    </g>
    <g id="xtick_11">
     <g id="line2d_24">
      <g>
       <use xlink:href="#m92005bd284" x="205.018182" y="1025.28" style="stroke: #000000; stroke-width: 0.8"/>
      </g>
     </g>
     <g id="text_23">
      <!-- 50 -->
      <g transform="translate(198.655682 1039.878438) scale(0.1 -0.1)">
       <use xlink:href="#DejaVuSans-35"/>
       <use xlink:href="#DejaVuSans-30" x="63.623047"/>
      </g>
     </g>
    </g>
    <g id="xtick_12">
     <g id="line2d_25">
      <g>
       <use xlink:href="#m92005bd284" x="261.381818" y="1025.28" style="stroke: #000000; stroke-width: 0.8"/>
      </g>
     </g>
     <g id="text_24">
      <!-- 75 -->
      <g transform="translate(255.019318 1039.878438) scale(0.1 -0.1)">
       <use xlink:href="#DejaVuSans-37"/>
       <use xlink:href="#DejaVuSans-35" x="63.623047"/>
      </g>
     </g>
    </g>
    <g id="xtick_13">
     <g id="line2d_26">
      <g>
       <use xlink:href="#m92005bd284" x="317.745455" y="1025.28" style="stroke: #000000; stroke-width: 0.8"/>
      </g>
     </g>
     <g id="text_25">
      <!-- 100 -->
      <g transform="translate(308.201705 1039.878438) scale(0.1 -0.1)">
       <use xlink:href="#DejaVuSans-31"/>
       <use xlink:href="#DejaVuSans-30" x="63.623047"/>
       <use xlink:href="#DejaVuSans-30" x="127.246094"/>
      </g>
     </g>
    </g>
    <g id="xtick_14">
     <g id="line2d_27">
      <g>
       <use xlink:href="#m92005bd284" x="374.109091" y="1025.28" style="stroke: #000000; stroke-width: 0.8"/>
      </g>
     </g>
     <g id="text_26">
      <!-- 125 -->
      <g transform="translate(364.565341 1039.878438) scale(0.1 -0.1)">
       <use xlink:href="#DejaVuSans-31"/>
       <use xlink:href="#DejaVuSans-32" x="63.623047"/>
       <use xlink:href="#DejaVuSans-35" x="127.246094"/>
      </g>
     </g>
    </g>
    <g id="xtick_15">
     <g id="line2d_28">
      <g>
       <use xlink:href="#m92005bd284" x="430.472727" y="1025.28" style="stroke: #000000; stroke-width: 0.8"/>
      </g>
     </g>
     <g id="text_27">
      <!-- 150 -->
      <g transform="translate(420.928977 1039.878438) scale(0.1 -0.1)">
       <use xlink:href="#DejaVuSans-31"/>
       <use xlink:href="#DejaVuSans-35" x="63.623047"/>
       <use xlink:href="#DejaVuSans-30" x="127.246094"/>
      </g>
     </g>
    </g>
    <g id="xtick_16">
     <g id="line2d_29">
      <g>
       <use xlink:href="#m92005bd284" x="486.836364" y="1025.28" style="stroke: #000000; stroke-width: 0.8"/>
      </g>
     </g>
     <g id="text_28">
      <!-- 175 -->
      <g transform="translate(477.292614 1039.878438) scale(0.1 -0.1)">
       <use xlink:href="#DejaVuSans-31"/>
       <use xlink:href="#DejaVuSans-37" x="63.623047"/>
       <use xlink:href="#DejaVuSans-35" x="127.246094"/>
      </g>
     </g>
    </g>
    <g id="text_29">
     <!-- Epoch -->
     <g transform="translate(279.889062 1053.556562) scale(0.1 -0.1)">
      <use xlink:href="#DejaVuSans-45"/>
      <use xlink:href="#DejaVuSans-70" x="63.183594"/>
      <use xlink:href="#DejaVuSans-6f" x="126.660156"/>
      <use xlink:href="#DejaVuSans-63" x="187.841797"/>
      <use xlink:href="#DejaVuSans-68" x="242.822266"/>
     </g>
    </g>
   </g>
   <g id="matplotlib.axis_4">
    <g id="ytick_10">
     <g id="line2d_30">
      <g>
       <use xlink:href="#mce22202333" x="72" y="1017.700553" style="stroke: #000000; stroke-width: 0.8"/>
      </g>
     </g>
     <g id="text_30">
      <!-- 0.00 -->
      <g transform="translate(42.734375 1021.499771) scale(0.1 -0.1)">
       <use xlink:href="#DejaVuSans-30"/>
       <use xlink:href="#DejaVuSans-2e" x="63.623047"/>
       <use xlink:href="#DejaVuSans-30" x="95.410156"/>
       <use xlink:href="#DejaVuSans-30" x="159.033203"/>
      </g>
     </g>
    </g>
    <g id="ytick_11">
     <g id="line2d_31">
      <g>
       <use xlink:href="#mce22202333" x="72" y="966.343414" style="stroke: #000000; stroke-width: 0.8"/>
      </g>
     </g>
     <g id="text_31">
      <!-- 0.25 -->
      <g transform="translate(42.734375 970.142633) scale(0.1 -0.1)">
       <use xlink:href="#DejaVuSans-30"/>
       <use xlink:href="#DejaVuSans-2e" x="63.623047"/>
       <use xlink:href="#DejaVuSans-32" x="95.410156"/>
       <use xlink:href="#DejaVuSans-35" x="159.033203"/>
      </g>
     </g>
    </g>
    <g id="ytick_12">
     <g id="line2d_32">
      <g>
       <use xlink:href="#mce22202333" x="72" y="914.986275" style="stroke: #000000; stroke-width: 0.8"/>
      </g>
     </g>
     <g id="text_32">
      <!-- 0.50 -->
      <g transform="translate(42.734375 918.785494) scale(0.1 -0.1)">
       <use xlink:href="#DejaVuSans-30"/>
       <use xlink:href="#DejaVuSans-2e" x="63.623047"/>
       <use xlink:href="#DejaVuSans-35" x="95.410156"/>
       <use xlink:href="#DejaVuSans-30" x="159.033203"/>
      </g>
     </g>
    </g>
    <g id="ytick_13">
     <g id="line2d_33">
      <g>
       <use xlink:href="#mce22202333" x="72" y="863.629137" style="stroke: #000000; stroke-width: 0.8"/>
      </g>
     </g>
     <g id="text_33">
      <!-- 0.75 -->
      <g transform="translate(42.734375 867.428356) scale(0.1 -0.1)">
       <use xlink:href="#DejaVuSans-30"/>
       <use xlink:href="#DejaVuSans-2e" x="63.623047"/>
       <use xlink:href="#DejaVuSans-37" x="95.410156"/>
       <use xlink:href="#DejaVuSans-35" x="159.033203"/>
      </g>
     </g>
    </g>
    <g id="ytick_14">
     <g id="line2d_34">
      <g>
       <use xlink:href="#mce22202333" x="72" y="812.271998" style="stroke: #000000; stroke-width: 0.8"/>
      </g>
     </g>
     <g id="text_34">
      <!-- 1.00 -->
      <g transform="translate(42.734375 816.071217) scale(0.1 -0.1)">
       <use xlink:href="#DejaVuSans-31"/>
       <use xlink:href="#DejaVuSans-2e" x="63.623047"/>
       <use xlink:href="#DejaVuSans-30" x="95.410156"/>
       <use xlink:href="#DejaVuSans-30" x="159.033203"/>
      </g>
     </g>
    </g>
    <g id="ytick_15">
     <g id="line2d_35">
      <g>
       <use xlink:href="#mce22202333" x="72" y="760.91486" style="stroke: #000000; stroke-width: 0.8"/>
      </g>
     </g>
     <g id="text_35">
      <!-- 1.25 -->
      <g transform="translate(42.734375 764.714078) scale(0.1 -0.1)">
       <use xlink:href="#DejaVuSans-31"/>
       <use xlink:href="#DejaVuSans-2e" x="63.623047"/>
       <use xlink:href="#DejaVuSans-32" x="95.410156"/>
       <use xlink:href="#DejaVuSans-35" x="159.033203"/>
      </g>
     </g>
    </g>
    <g id="ytick_16">
     <g id="line2d_36">
      <g>
       <use xlink:href="#mce22202333" x="72" y="709.557721" style="stroke: #000000; stroke-width: 0.8"/>
      </g>
     </g>
     <g id="text_36">
      <!-- 1.50 -->
      <g transform="translate(42.734375 713.35694) scale(0.1 -0.1)">
       <use xlink:href="#DejaVuSans-31"/>
       <use xlink:href="#DejaVuSans-2e" x="63.623047"/>
       <use xlink:href="#DejaVuSans-35" x="95.410156"/>
       <use xlink:href="#DejaVuSans-30" x="159.033203"/>
      </g>
     </g>
    </g>
    <g id="ytick_17">
     <g id="line2d_37">
      <g>
       <use xlink:href="#mce22202333" x="72" y="658.200582" style="stroke: #000000; stroke-width: 0.8"/>
      </g>
     </g>
     <g id="text_37">
      <!-- 1.75 -->
      <g transform="translate(42.734375 661.999801) scale(0.1 -0.1)">
       <use xlink:href="#DejaVuSans-31"/>
       <use xlink:href="#DejaVuSans-2e" x="63.623047"/>
       <use xlink:href="#DejaVuSans-37" x="95.410156"/>
       <use xlink:href="#DejaVuSans-35" x="159.033203"/>
      </g>
     </g>
    </g>
   </g>
   <g id="line2d_38">
    <path d="M 92.290909 805.582585 
L 94.545455 902.937153 
L 96.8 917.526225 
L 99.054545 928.106467 
L 101.309091 932.616103 
L 103.563636 935.177045 
L 105.818182 942.70269 
L 108.072727 947.381869 
L 110.327273 949.979563 
L 114.836364 956.734913 
L 117.090909 956.249645 
L 119.345455 960.246849 
L 121.6 960.670117 
L 123.854545 964.737438 
L 126.109091 966.226461 
L 128.363636 964.539622 
L 130.618182 966.809684 
L 132.872727 968.055547 
L 135.127273 972.295329 
L 137.381818 972.666732 
L 139.636364 975.582474 
L 141.890909 972.98642 
L 144.145455 974.77843 
L 146.4 974.435777 
L 148.654545 976.324206 
L 150.909091 976.416272 
L 153.163636 979.501906 
L 155.418182 976.964222 
L 157.672727 979.496592 
L 159.927273 979.6126 
L 164.436364 979.003641 
L 166.690909 975.693571 
L 168.945455 980.276527 
L 171.2 977.210055 
L 173.454545 980.951887 
L 175.709091 982.490831 
L 177.963636 986.453845 
L 180.218182 984.706604 
L 182.472727 986.905082 
L 184.727273 983.927686 
L 186.981818 982.154823 
L 189.236364 990.639016 
L 191.490909 989.35358 
L 193.745455 983.534582 
L 196 988.421302 
L 198.254545 985.581886 
L 200.509091 991.035429 
L 202.763636 988.599536 
L 205.018182 988.365566 
L 207.272727 985.366616 
L 209.527273 989.706665 
L 211.781818 988.777415 
L 214.036364 990.366148 
L 216.290909 990.708489 
L 218.545455 985.050855 
L 220.8 992.111818 
L 223.054545 991.591112 
L 225.309091 994.315279 
L 227.563636 992.227818 
L 229.818182 986.373337 
L 232.072727 991.905569 
L 234.327273 993.368997 
L 236.581818 992.333682 
L 238.836364 993.018723 
L 241.090909 986.211624 
L 243.345455 984.428179 
L 245.6 988.22708 
L 247.854545 992.426725 
L 250.109091 990.605267 
L 252.363636 989.168599 
L 254.618182 996.698216 
L 256.872727 996.218261 
L 259.127273 996.70706 
L 261.381818 993.951583 
L 263.636364 993.526761 
L 265.890909 997.137229 
L 268.145455 996.399426 
L 270.4 995.402461 
L 272.654545 989.947025 
L 274.909091 993.496547 
L 277.163636 995.293342 
L 279.418182 995.994548 
L 281.672727 994.513509 
L 283.927273 996.035048 
L 286.181818 998.877086 
L 288.436364 995.686291 
L 290.690909 990.319723 
L 292.945455 990.266591 
L 295.2 995.221746 
L 297.454545 996.857148 
L 299.709091 999.695878 
L 301.963636 995.092692 
L 304.218182 998.651778 
L 306.472727 998.325765 
L 308.727273 996.153366 
L 310.981818 996.395705 
L 313.236364 990.948214 
L 315.490909 996.414981 
L 317.745455 997.118449 
L 320 994.699337 
L 322.254545 999.004649 
L 324.509091 998.692615 
L 326.763636 994.063595 
L 329.018182 998.657442 
L 331.272727 994.408876 
L 333.527273 998.204727 
L 335.781818 997.637667 
L 338.036364 999.546707 
L 340.290909 1000.077527 
L 342.545455 998.633552 
L 344.8 998.216789 
L 347.054545 1000.156734 
L 349.309091 996.562112 
L 351.563636 995.700136 
L 353.818182 998.402794 
L 356.072727 1000.531463 
L 358.327273 986.261964 
L 360.581818 992.772357 
L 362.836364 998.772054 
L 365.090909 998.631723 
L 367.345455 1000.491878 
L 369.6 1001.941713 
L 371.854545 998.990357 
L 374.109091 997.851289 
L 376.363636 1004.381128 
L 378.618182 1002.404111 
L 380.872727 996.496136 
L 383.127273 998.898327 
L 385.381818 1001 
L 387.636364 1001.07828 
L 389.890909 999.43736 
L 392.145455 1002.52008 
L 394.4 1001.296897 
L 396.654545 996.818769 
L 398.909091 1000.734055 
L 401.163636 999.12566 
L 403.418182 1000.312165 
L 405.672727 998.355092 
L 407.927273 1001.170895 
L 410.181818 998.697811 
L 412.436364 1001.908269 
L 414.690909 1001.886249 
L 416.945455 1000.680034 
L 419.2 1001.657635 
L 421.454545 1004.754087 
L 423.709091 1006.952727 
L 425.963636 1000.976622 
L 428.218182 991.778051 
L 430.472727 1000.681964 
L 432.727273 999.18342 
L 434.981818 1001.856222 
L 437.236364 1001.483543 
L 439.490909 1002.971232 
L 441.745455 1003.529146 
L 444 1004.53604 
L 446.254545 1004.512329 
L 448.509091 1002.178981 
L 450.763636 1001.179731 
L 453.018182 1000.795833 
L 455.272727 1004.114272 
L 457.527273 1002.889071 
L 459.781818 1000.128579 
L 462.036364 1001.974313 
L 464.290909 1003.995389 
L 466.545455 999.018966 
L 468.8 1006.600375 
L 471.054545 1005.035712 
L 473.309091 1005.273106 
L 475.563636 1005.693881 
L 477.818182 1004.207165 
L 480.072727 1003.191279 
L 482.327273 1003.375077 
L 484.581818 1002.372972 
L 486.836364 1003.119597 
L 489.090909 1005.586903 
L 491.345455 1003.075753 
L 493.6 1003.415918 
L 495.854545 1006.354613 
L 498.109091 1003.173011 
L 498.109091 1003.173011 
" clip-path="url(#p90d048ad80)" style="fill: none; stroke: #1f77b4; stroke-width: 1.5; stroke-linecap: square"/>
   </g>
   <g id="line2d_39">
    <path d="M 92.290909 640.407273 
L 94.545455 657.568546 
L 96.8 724.734994 
L 99.054545 831.65719 
L 101.309091 895.194566 
L 103.563636 923.815445 
L 105.818182 941.325607 
L 108.072727 942.684642 
L 110.327273 902.793586 
L 112.581818 938.763011 
L 114.836364 954.574782 
L 117.090909 942.344606 
L 119.345455 947.9315 
L 121.6 955.194696 
L 123.854545 951.664761 
L 126.109091 961.990771 
L 128.363636 958.432496 
L 130.618182 966.380395 
L 132.872727 965.628697 
L 135.127273 945.516598 
L 137.381818 966.935451 
L 139.636364 968.670499 
L 141.890909 964.401988 
L 144.145455 963.723649 
L 146.4 943.255982 
L 148.654545 967.432764 
L 150.909091 965.342316 
L 153.163636 968.580269 
L 155.418182 965.761402 
L 157.672727 962.671308 
L 159.927273 967.143047 
L 162.181818 970.616764 
L 164.436364 959.217981 
L 166.690909 972.550691 
L 168.945455 972.156666 
L 171.2 969.585744 
L 173.454545 977.242665 
L 175.709091 967.890592 
L 177.963636 966.976828 
L 180.218182 975.871527 
L 182.472727 978.385701 
L 184.727273 976.577293 
L 186.981818 975.10758 
L 189.236364 976.66951 
L 191.490909 973.481658 
L 193.745455 951.722427 
L 196 966.798208 
L 198.254545 954.917848 
L 200.509091 971.202137 
L 202.763636 976.769789 
L 205.018182 975.214769 
L 207.272727 955.921983 
L 209.527273 953.342771 
L 211.781818 972.37486 
L 214.036364 978.734467 
L 216.290909 939.203672 
L 218.545455 971.635433 
L 220.8 968.382401 
L 223.054545 970.861967 
L 225.309091 973.098751 
L 227.563636 976.219705 
L 229.818182 974.337346 
L 232.072727 979.835012 
L 234.327273 978.615038 
L 236.581818 976.279764 
L 238.836364 967.955794 
L 241.090909 967.204857 
L 243.345455 965.614903 
L 245.6 967.841963 
L 247.854545 967.043178 
L 250.109091 974.833343 
L 252.363636 971.269595 
L 254.618182 974.23104 
L 256.872727 977.408095 
L 259.127273 957.483352 
L 261.381818 965.09922 
L 263.636364 978.246203 
L 268.145455 978.526054 
L 270.4 970.194106 
L 272.654545 975.255044 
L 274.909091 958.949593 
L 277.163636 978.870501 
L 279.418182 973.652398 
L 281.672727 970.505073 
L 283.927273 975.819589 
L 286.181818 965.605616 
L 288.436364 963.261633 
L 290.690909 964.956357 
L 292.945455 964.84339 
L 295.2 968.745974 
L 297.454545 971.095742 
L 299.709091 976.860949 
L 301.963636 979.976757 
L 304.218182 978.748989 
L 306.472727 976.778804 
L 308.727273 970.846658 
L 310.981818 963.19293 
L 313.236364 974.06415 
L 315.490909 963.482096 
L 317.745455 983.438273 
L 320 971.173363 
L 322.254545 975.205359 
L 324.509091 976.097545 
L 326.763636 968.277169 
L 329.018182 970.286555 
L 331.272727 976.969074 
L 333.527273 975.946148 
L 335.781818 974.154711 
L 338.036364 965.521594 
L 340.290909 974.908883 
L 342.545455 978.304511 
L 344.8 976.294574 
L 347.054545 976.426306 
L 349.309091 969.087375 
L 351.563636 967.752247 
L 353.818182 957.928176 
L 356.072727 969.021959 
L 358.327273 969.049784 
L 360.581818 971.300858 
L 362.836364 959.61098 
L 365.090909 962.045418 
L 367.345455 965.85255 
L 369.6 969.88616 
L 371.854545 973.145669 
L 374.109091 977.488302 
L 376.363636 961.184875 
L 378.618182 975.99909 
L 380.872727 966.025118 
L 383.127273 966.97291 
L 385.381818 978.833158 
L 389.890909 969.522455 
L 392.145455 962.401017 
L 394.4 961.201613 
L 396.654545 974.090669 
L 398.909091 962.757968 
L 401.163636 953.020233 
L 403.418182 958.279495 
L 405.672727 964.127399 
L 407.927273 962.049881 
L 410.181818 967.519332 
L 412.436364 970.241602 
L 414.690909 974.172542 
L 416.945455 968.428551 
L 419.2 972.43768 
L 421.454545 967.699911 
L 423.709091 955.764053 
L 425.963636 973.014476 
L 428.218182 972.994961 
L 430.472727 973.926938 
L 432.727273 965.45016 
L 434.981818 967.131023 
L 437.236364 975.653651 
L 439.490909 956.417352 
L 441.745455 973.365844 
L 444 970.731688 
L 446.254545 967.491023 
L 448.509091 971.667523 
L 450.763636 960.990402 
L 453.018182 956.912354 
L 455.272727 961.453305 
L 457.527273 962.437665 
L 459.781818 955.473626 
L 462.036364 968.906493 
L 464.290909 961.660611 
L 466.545455 963.980894 
L 468.8 970.212212 
L 471.054545 972.267604 
L 473.309091 967.23912 
L 475.563636 969.613334 
L 477.818182 955.762816 
L 480.072727 975.271813 
L 482.327273 967.996188 
L 484.581818 962.544161 
L 486.836364 963.226082 
L 489.090909 972.841439 
L 491.345455 969.676259 
L 493.6 962.913161 
L 495.854545 974.573583 
L 498.109091 969.458475 
L 498.109091 969.458475 
" clip-path="url(#p90d048ad80)" style="fill: none; stroke: #ff7f0e; stroke-width: 1.5; stroke-linecap: square"/>
   </g>
   <g id="patch_9">
    <path d="M 72 1025.28 
L 72 622.08 
" style="fill: none; stroke: #000000; stroke-width: 0.8; stroke-linejoin: miter; stroke-linecap: square"/>
   </g>
   <g id="patch_10">
    <path d="M 518.4 1025.28 
L 518.4 622.08 
" style="fill: none; stroke: #000000; stroke-width: 0.8; stroke-linejoin: miter; stroke-linecap: square"/>
   </g>
   <g id="patch_11">
    <path d="M 72 1025.28 
L 518.4 1025.28 
" style="fill: none; stroke: #000000; stroke-width: 0.8; stroke-linejoin: miter; stroke-linecap: square"/>
   </g>
   <g id="patch_12">
    <path d="M 72 622.08 
L 518.4 622.08 
" style="fill: none; stroke: #000000; stroke-width: 0.8; stroke-linejoin: miter; stroke-linecap: square"/>
   </g>
   <g id="legend_2">
    <g id="patch_13">
     <path d="M 79 659.714375 
L 150.140625 659.714375 
Q 152.140625 659.714375 152.140625 657.714375 
L 152.140625 629.08 
Q 152.140625 627.08 150.140625 627.08 
L 79 627.08 
Q 77 627.08 77 629.08 
L 77 657.714375 
Q 77 659.714375 79 659.714375 
z
" style="fill: #ffffff; opacity: 0.8; stroke: #cccccc; stroke-linejoin: miter"/>
    </g>
    <g id="line2d_40">
     <path d="M 81 635.178437 
L 91 635.178437 
L 101 635.178437 
" style="fill: none; stroke: #1f77b4; stroke-width: 1.5; stroke-linecap: square"/>
    </g>
    <g id="text_38">
     <!-- loss -->
     <g transform="translate(109 638.678437) scale(0.1 -0.1)">
      <defs>
       <path id="DejaVuSans-73" d="M 2834 3397 
L 2834 2853 
Q 2591 2978 2328 3040 
Q 2066 3103 1784 3103 
Q 1356 3103 1142 2972 
Q 928 2841 928 2578 
Q 928 2378 1081 2264 
Q 1234 2150 1697 2047 
L 1894 2003 
Q 2506 1872 2764 1633 
Q 3022 1394 3022 966 
Q 3022 478 2636 193 
Q 2250 -91 1575 -91 
Q 1294 -91 989 -36 
Q 684 19 347 128 
L 347 722 
Q 666 556 975 473 
Q 1284 391 1588 391 
Q 1994 391 2212 530 
Q 2431 669 2431 922 
Q 2431 1156 2273 1281 
Q 2116 1406 1581 1522 
L 1381 1569 
Q 847 1681 609 1914 
Q 372 2147 372 2553 
Q 372 3047 722 3315 
Q 1072 3584 1716 3584 
Q 2034 3584 2315 3537 
Q 2597 3491 2834 3397 
z
" transform="scale(0.015625)"/>
      </defs>
      <use xlink:href="#DejaVuSans-6c"/>
      <use xlink:href="#DejaVuSans-6f" x="27.783203"/>
      <use xlink:href="#DejaVuSans-73" x="88.964844"/>
      <use xlink:href="#DejaVuSans-73" x="141.064453"/>
     </g>
    </g>
    <g id="line2d_41">
     <path d="M 81 649.856562 
L 91 649.856562 
L 101 649.856562 
" style="fill: none; stroke: #ff7f0e; stroke-width: 1.5; stroke-linecap: square"/>
    </g>
    <g id="text_39">
     <!-- val_loss -->
     <g transform="translate(109 653.356562) scale(0.1 -0.1)">
      <use xlink:href="#DejaVuSans-76"/>
      <use xlink:href="#DejaVuSans-61" x="59.179688"/>
      <use xlink:href="#DejaVuSans-6c" x="120.458984"/>
      <use xlink:href="#DejaVuSans-5f" x="148.242188"/>
      <use xlink:href="#DejaVuSans-6c" x="198.242188"/>
      <use xlink:href="#DejaVuSans-6f" x="226.025391"/>
      <use xlink:href="#DejaVuSans-73" x="287.207031"/>
      <use xlink:href="#DejaVuSans-73" x="339.306641"/>
     </g>
    </g>
   </g>
  </g>
 </g>
 <defs>
  <clipPath id="pfd52f1c9d6">
   <rect x="72" y="138.24" width="446.4" height="403.2"/>
  </clipPath>
  <clipPath id="p90d048ad80">
   <rect x="72" y="622.08" width="446.4" height="403.2"/>
  </clipPath>
 </defs>
</svg>
