<?xml version="1.0" encoding="utf-8" standalone="no"?>
<!DOCTYPE svg PUBLIC "-//W3C//DTD SVG 1.1//EN"
  "http://www.w3.org/Graphics/SVG/1.1/DTD/svg11.dtd">
<svg xmlns:xlink="http://www.w3.org/1999/xlink" width="576pt" height="1152pt" viewBox="0 0 576 1152" xmlns="http://www.w3.org/2000/svg" version="1.1">
 <metadata>
  <rdf:RDF xmlns:dc="http://purl.org/dc/elements/1.1/" xmlns:cc="http://creativecommons.org/ns#" xmlns:rdf="http://www.w3.org/1999/02/22-rdf-syntax-ns#">
   <cc:Work>
    <dc:type rdf:resource="http://purl.org/dc/dcmitype/StillImage"/>
    <dc:date>2023-11-16T12:35:31.493431</dc:date>
    <dc:format>image/svg+xml</dc:format>
    <dc:creator>
     <cc:Agent>
      <dc:title>Matplotlib v3.7.3, https://matplotlib.org/</dc:title>
     </cc:Agent>
    </dc:creator>
   </cc:Work>
  </rdf:RDF>
 </metadata>
 <defs>
  <style type="text/css">*{stroke-linejoin: round; stroke-linecap: butt}</style>
 </defs>
 <g id="figure_1">
  <g id="patch_1">
   <path d="M 0 1152 
L 576 1152 
L 576 0 
L 0 0 
z
" style="fill: #ffffff"/>
  </g>
  <g id="axes_1">
   <g id="patch_2">
    <path d="M 72 541.44 
L 518.4 541.44 
L 518.4 138.24 
L 72 138.24 
z
" style="fill: #ffffff"/>
   </g>
   <g id="matplotlib.axis_1">
    <g id="xtick_1">
     <g id="line2d_1">
      <defs>
       <path id="m481298554e" d="M 0 0 
L 0 3.5 
" style="stroke: #000000; stroke-width: 0.8"/>
      </defs>
      <g>
       <use xlink:href="#m481298554e" x="92.290909" y="541.44" style="stroke: #000000; stroke-width: 0.8"/>
      </g>
     </g>
     <g id="text_1">
      <!-- 0 -->
      <g transform="translate(89.109659 556.038437) scale(0.1 -0.1)">
       <defs>
        <path id="DejaVuSans-30" d="M 2034 4250 
Q 1547 4250 1301 3770 
Q 1056 3291 1056 2328 
Q 1056 1369 1301 889 
Q 1547 409 2034 409 
Q 2525 409 2770 889 
Q 3016 1369 3016 2328 
Q 3016 3291 2770 3770 
Q 2525 4250 2034 4250 
z
M 2034 4750 
Q 2819 4750 3233 4129 
Q 3647 3509 3647 2328 
Q 3647 1150 3233 529 
Q 2819 -91 2034 -91 
Q 1250 -91 836 529 
Q 422 1150 422 2328 
Q 422 3509 836 4129 
Q 1250 4750 2034 4750 
z
" transform="scale(0.015625)"/>
       </defs>
       <use xlink:href="#DejaVuSans-30"/>
      </g>
     </g>
    </g>
    <g id="xtick_2">
     <g id="line2d_2">
      <g>
       <use xlink:href="#m481298554e" x="190.790468" y="541.44" style="stroke: #000000; stroke-width: 0.8"/>
      </g>
     </g>
     <g id="text_2">
      <!-- 50 -->
      <g transform="translate(184.427968 556.038437) scale(0.1 -0.1)">
       <defs>
        <path id="DejaVuSans-35" d="M 691 4666 
L 3169 4666 
L 3169 4134 
L 1269 4134 
L 1269 2991 
Q 1406 3038 1543 3061 
Q 1681 3084 1819 3084 
Q 2600 3084 3056 2656 
Q 3513 2228 3513 1497 
Q 3513 744 3044 326 
Q 2575 -91 1722 -91 
Q 1428 -91 1123 -41 
Q 819 9 494 109 
L 494 744 
Q 775 591 1075 516 
Q 1375 441 1709 441 
Q 2250 441 2565 725 
Q 2881 1009 2881 1497 
Q 2881 1984 2565 2268 
Q 2250 2553 1709 2553 
Q 1456 2553 1204 2497 
Q 953 2441 691 2322 
L 691 4666 
z
" transform="scale(0.015625)"/>
       </defs>
       <use xlink:href="#DejaVuSans-35"/>
       <use xlink:href="#DejaVuSans-30" x="63.623047"/>
      </g>
     </g>
    </g>
    <g id="xtick_3">
     <g id="line2d_3">
      <g>
       <use xlink:href="#m481298554e" x="289.290026" y="541.44" style="stroke: #000000; stroke-width: 0.8"/>
      </g>
     </g>
     <g id="text_3">
      <!-- 100 -->
      <g transform="translate(279.746276 556.038437) scale(0.1 -0.1)">
       <defs>
        <path id="DejaVuSans-31" d="M 794 531 
L 1825 531 
L 1825 4091 
L 703 3866 
L 703 4441 
L 1819 4666 
L 2450 4666 
L 2450 531 
L 3481 531 
L 3481 0 
L 794 0 
L 794 531 
z
" transform="scale(0.015625)"/>
       </defs>
       <use xlink:href="#DejaVuSans-31"/>
       <use xlink:href="#DejaVuSans-30" x="63.623047"/>
       <use xlink:href="#DejaVuSans-30" x="127.246094"/>
      </g>
     </g>
    </g>
    <g id="xtick_4">
     <g id="line2d_4">
      <g>
       <use xlink:href="#m481298554e" x="387.789585" y="541.44" style="stroke: #000000; stroke-width: 0.8"/>
      </g>
     </g>
     <g id="text_4">
      <!-- 150 -->
      <g transform="translate(378.245835 556.038437) scale(0.1 -0.1)">
       <use xlink:href="#DejaVuSans-31"/>
       <use xlink:href="#DejaVuSans-35" x="63.623047"/>
       <use xlink:href="#DejaVuSans-30" x="127.246094"/>
      </g>
     </g>
    </g>
    <g id="xtick_5">
     <g id="line2d_5">
      <g>
       <use xlink:href="#m481298554e" x="486.289144" y="541.44" style="stroke: #000000; stroke-width: 0.8"/>
      </g>
     </g>
     <g id="text_5">
      <!-- 200 -->
      <g transform="translate(476.745394 556.038437) scale(0.1 -0.1)">
       <defs>
        <path id="DejaVuSans-32" d="M 1228 531 
L 3431 531 
L 3431 0 
L 469 0 
L 469 531 
Q 828 903 1448 1529 
Q 2069 2156 2228 2338 
Q 2531 2678 2651 2914 
Q 2772 3150 2772 3378 
Q 2772 3750 2511 3984 
Q 2250 4219 1831 4219 
Q 1534 4219 1204 4116 
Q 875 4013 500 3803 
L 500 4441 
Q 881 4594 1212 4672 
Q 1544 4750 1819 4750 
Q 2544 4750 2975 4387 
Q 3406 4025 3406 3419 
Q 3406 3131 3298 2873 
Q 3191 2616 2906 2266 
Q 2828 2175 2409 1742 
Q 1991 1309 1228 531 
z
" transform="scale(0.015625)"/>
       </defs>
       <use xlink:href="#DejaVuSans-32"/>
       <use xlink:href="#DejaVuSans-30" x="63.623047"/>
       <use xlink:href="#DejaVuSans-30" x="127.246094"/>
      </g>
     </g>
    </g>
    <g id="text_6">
     <!-- Epoch -->
     <g transform="translate(279.889062 569.716563) scale(0.1 -0.1)">
      <defs>
       <path id="DejaVuSans-45" d="M 628 4666 
L 3578 4666 
L 3578 4134 
L 1259 4134 
L 1259 2753 
L 3481 2753 
L 3481 2222 
L 1259 2222 
L 1259 531 
L 3634 531 
L 3634 0 
L 628 0 
L 628 4666 
z
" transform="scale(0.015625)"/>
       <path id="DejaVuSans-70" d="M 1159 525 
L 1159 -1331 
L 581 -1331 
L 581 3500 
L 1159 3500 
L 1159 2969 
Q 1341 3281 1617 3432 
Q 1894 3584 2278 3584 
Q 2916 3584 3314 3078 
Q 3713 2572 3713 1747 
Q 3713 922 3314 415 
Q 2916 -91 2278 -91 
Q 1894 -91 1617 61 
Q 1341 213 1159 525 
z
M 3116 1747 
Q 3116 2381 2855 2742 
Q 2594 3103 2138 3103 
Q 1681 3103 1420 2742 
Q 1159 2381 1159 1747 
Q 1159 1113 1420 752 
Q 1681 391 2138 391 
Q 2594 391 2855 752 
Q 3116 1113 3116 1747 
z
" transform="scale(0.015625)"/>
       <path id="DejaVuSans-6f" d="M 1959 3097 
Q 1497 3097 1228 2736 
Q 959 2375 959 1747 
Q 959 1119 1226 758 
Q 1494 397 1959 397 
Q 2419 397 2687 759 
Q 2956 1122 2956 1747 
Q 2956 2369 2687 2733 
Q 2419 3097 1959 3097 
z
M 1959 3584 
Q 2709 3584 3137 3096 
Q 3566 2609 3566 1747 
Q 3566 888 3137 398 
Q 2709 -91 1959 -91 
Q 1206 -91 779 398 
Q 353 888 353 1747 
Q 353 2609 779 3096 
Q 1206 3584 1959 3584 
z
" transform="scale(0.015625)"/>
       <path id="DejaVuSans-63" d="M 3122 3366 
L 3122 2828 
Q 2878 2963 2633 3030 
Q 2388 3097 2138 3097 
Q 1578 3097 1268 2742 
Q 959 2388 959 1747 
Q 959 1106 1268 751 
Q 1578 397 2138 397 
Q 2388 397 2633 464 
Q 2878 531 3122 666 
L 3122 134 
Q 2881 22 2623 -34 
Q 2366 -91 2075 -91 
Q 1284 -91 818 406 
Q 353 903 353 1747 
Q 353 2603 823 3093 
Q 1294 3584 2113 3584 
Q 2378 3584 2631 3529 
Q 2884 3475 3122 3366 
z
" transform="scale(0.015625)"/>
       <path id="DejaVuSans-68" d="M 3513 2113 
L 3513 0 
L 2938 0 
L 2938 2094 
Q 2938 2591 2744 2837 
Q 2550 3084 2163 3084 
Q 1697 3084 1428 2787 
Q 1159 2491 1159 1978 
L 1159 0 
L 581 0 
L 581 4863 
L 1159 4863 
L 1159 2956 
Q 1366 3272 1645 3428 
Q 1925 3584 2291 3584 
Q 2894 3584 3203 3211 
Q 3513 2838 3513 2113 
z
" transform="scale(0.015625)"/>
      </defs>
      <use xlink:href="#DejaVuSans-45"/>
      <use xlink:href="#DejaVuSans-70" x="63.183594"/>
      <use xlink:href="#DejaVuSans-6f" x="126.660156"/>
      <use xlink:href="#DejaVuSans-63" x="187.841797"/>
      <use xlink:href="#DejaVuSans-68" x="242.822266"/>
     </g>
    </g>
   </g>
   <g id="matplotlib.axis_2">
    <g id="ytick_1">
     <g id="line2d_6">
      <defs>
       <path id="mf511d1d95f" d="M 0 0 
L -3.5 0 
" style="stroke: #000000; stroke-width: 0.8"/>
      </defs>
      <g>
       <use xlink:href="#mf511d1d95f" x="72" y="507.247782" style="stroke: #000000; stroke-width: 0.8"/>
      </g>
     </g>
     <g id="text_7">
      <!-- 0.2 -->
      <g transform="translate(49.096875 511.047001) scale(0.1 -0.1)">
       <defs>
        <path id="DejaVuSans-2e" d="M 684 794 
L 1344 794 
L 1344 0 
L 684 0 
L 684 794 
z
" transform="scale(0.015625)"/>
       </defs>
       <use xlink:href="#DejaVuSans-30"/>
       <use xlink:href="#DejaVuSans-2e" x="63.623047"/>
       <use xlink:href="#DejaVuSans-32" x="95.410156"/>
      </g>
     </g>
    </g>
    <g id="ytick_2">
     <g id="line2d_7">
      <g>
       <use xlink:href="#mf511d1d95f" x="72" y="462.297097" style="stroke: #000000; stroke-width: 0.8"/>
      </g>
     </g>
     <g id="text_8">
      <!-- 0.3 -->
      <g transform="translate(49.096875 466.096316) scale(0.1 -0.1)">
       <defs>
        <path id="DejaVuSans-33" d="M 2597 2516 
Q 3050 2419 3304 2112 
Q 3559 1806 3559 1356 
Q 3559 666 3084 287 
Q 2609 -91 1734 -91 
Q 1441 -91 1130 -33 
Q 819 25 488 141 
L 488 750 
Q 750 597 1062 519 
Q 1375 441 1716 441 
Q 2309 441 2620 675 
Q 2931 909 2931 1356 
Q 2931 1769 2642 2001 
Q 2353 2234 1838 2234 
L 1294 2234 
L 1294 2753 
L 1863 2753 
Q 2328 2753 2575 2939 
Q 2822 3125 2822 3475 
Q 2822 3834 2567 4026 
Q 2313 4219 1838 4219 
Q 1578 4219 1281 4162 
Q 984 4106 628 3988 
L 628 4550 
Q 988 4650 1302 4700 
Q 1616 4750 1894 4750 
Q 2613 4750 3031 4423 
Q 3450 4097 3450 3541 
Q 3450 3153 3228 2886 
Q 3006 2619 2597 2516 
z
" transform="scale(0.015625)"/>
       </defs>
       <use xlink:href="#DejaVuSans-30"/>
       <use xlink:href="#DejaVuSans-2e" x="63.623047"/>
       <use xlink:href="#DejaVuSans-33" x="95.410156"/>
      </g>
     </g>
    </g>
    <g id="ytick_3">
     <g id="line2d_8">
      <g>
       <use xlink:href="#mf511d1d95f" x="72" y="417.346413" style="stroke: #000000; stroke-width: 0.8"/>
      </g>
     </g>
     <g id="text_9">
      <!-- 0.4 -->
      <g transform="translate(49.096875 421.145631) scale(0.1 -0.1)">
       <defs>
        <path id="DejaVuSans-34" d="M 2419 4116 
L 825 1625 
L 2419 1625 
L 2419 4116 
z
M 2253 4666 
L 3047 4666 
L 3047 1625 
L 3713 1625 
L 3713 1100 
L 3047 1100 
L 3047 0 
L 2419 0 
L 2419 1100 
L 313 1100 
L 313 1709 
L 2253 4666 
z
" transform="scale(0.015625)"/>
       </defs>
       <use xlink:href="#DejaVuSans-30"/>
       <use xlink:href="#DejaVuSans-2e" x="63.623047"/>
       <use xlink:href="#DejaVuSans-34" x="95.410156"/>
      </g>
     </g>
    </g>
    <g id="ytick_4">
     <g id="line2d_9">
      <g>
       <use xlink:href="#mf511d1d95f" x="72" y="372.395728" style="stroke: #000000; stroke-width: 0.8"/>
      </g>
     </g>
     <g id="text_10">
      <!-- 0.5 -->
      <g transform="translate(49.096875 376.194947) scale(0.1 -0.1)">
       <use xlink:href="#DejaVuSans-30"/>
       <use xlink:href="#DejaVuSans-2e" x="63.623047"/>
       <use xlink:href="#DejaVuSans-35" x="95.410156"/>
      </g>
     </g>
    </g>
    <g id="ytick_5">
     <g id="line2d_10">
      <g>
       <use xlink:href="#mf511d1d95f" x="72" y="327.445043" style="stroke: #000000; stroke-width: 0.8"/>
      </g>
     </g>
     <g id="text_11">
      <!-- 0.6 -->
      <g transform="translate(49.096875 331.244262) scale(0.1 -0.1)">
       <defs>
        <path id="DejaVuSans-36" d="M 2113 2584 
Q 1688 2584 1439 2293 
Q 1191 2003 1191 1497 
Q 1191 994 1439 701 
Q 1688 409 2113 409 
Q 2538 409 2786 701 
Q 3034 994 3034 1497 
Q 3034 2003 2786 2293 
Q 2538 2584 2113 2584 
z
M 3366 4563 
L 3366 3988 
Q 3128 4100 2886 4159 
Q 2644 4219 2406 4219 
Q 1781 4219 1451 3797 
Q 1122 3375 1075 2522 
Q 1259 2794 1537 2939 
Q 1816 3084 2150 3084 
Q 2853 3084 3261 2657 
Q 3669 2231 3669 1497 
Q 3669 778 3244 343 
Q 2819 -91 2113 -91 
Q 1303 -91 875 529 
Q 447 1150 447 2328 
Q 447 3434 972 4092 
Q 1497 4750 2381 4750 
Q 2619 4750 2861 4703 
Q 3103 4656 3366 4563 
z
" transform="scale(0.015625)"/>
       </defs>
       <use xlink:href="#DejaVuSans-30"/>
       <use xlink:href="#DejaVuSans-2e" x="63.623047"/>
       <use xlink:href="#DejaVuSans-36" x="95.410156"/>
      </g>
     </g>
    </g>
    <g id="ytick_6">
     <g id="line2d_11">
      <g>
       <use xlink:href="#mf511d1d95f" x="72" y="282.494358" style="stroke: #000000; stroke-width: 0.8"/>
      </g>
     </g>
     <g id="text_12">
      <!-- 0.7 -->
      <g transform="translate(49.096875 286.293577) scale(0.1 -0.1)">
       <defs>
        <path id="DejaVuSans-37" d="M 525 4666 
L 3525 4666 
L 3525 4397 
L 1831 0 
L 1172 0 
L 2766 4134 
L 525 4134 
L 525 4666 
z
" transform="scale(0.015625)"/>
       </defs>
       <use xlink:href="#DejaVuSans-30"/>
       <use xlink:href="#DejaVuSans-2e" x="63.623047"/>
       <use xlink:href="#DejaVuSans-37" x="95.410156"/>
      </g>
     </g>
    </g>
    <g id="ytick_7">
     <g id="line2d_12">
      <g>
       <use xlink:href="#mf511d1d95f" x="72" y="237.543674" style="stroke: #000000; stroke-width: 0.8"/>
      </g>
     </g>
     <g id="text_13">
      <!-- 0.8 -->
      <g transform="translate(49.096875 241.342892) scale(0.1 -0.1)">
       <defs>
        <path id="DejaVuSans-38" d="M 2034 2216 
Q 1584 2216 1326 1975 
Q 1069 1734 1069 1313 
Q 1069 891 1326 650 
Q 1584 409 2034 409 
Q 2484 409 2743 651 
Q 3003 894 3003 1313 
Q 3003 1734 2745 1975 
Q 2488 2216 2034 2216 
z
M 1403 2484 
Q 997 2584 770 2862 
Q 544 3141 544 3541 
Q 544 4100 942 4425 
Q 1341 4750 2034 4750 
Q 2731 4750 3128 4425 
Q 3525 4100 3525 3541 
Q 3525 3141 3298 2862 
Q 3072 2584 2669 2484 
Q 3125 2378 3379 2068 
Q 3634 1759 3634 1313 
Q 3634 634 3220 271 
Q 2806 -91 2034 -91 
Q 1263 -91 848 271 
Q 434 634 434 1313 
Q 434 1759 690 2068 
Q 947 2378 1403 2484 
z
M 1172 3481 
Q 1172 3119 1398 2916 
Q 1625 2713 2034 2713 
Q 2441 2713 2670 2916 
Q 2900 3119 2900 3481 
Q 2900 3844 2670 4047 
Q 2441 4250 2034 4250 
Q 1625 4250 1398 4047 
Q 1172 3844 1172 3481 
z
" transform="scale(0.015625)"/>
       </defs>
       <use xlink:href="#DejaVuSans-30"/>
       <use xlink:href="#DejaVuSans-2e" x="63.623047"/>
       <use xlink:href="#DejaVuSans-38" x="95.410156"/>
      </g>
     </g>
    </g>
    <g id="ytick_8">
     <g id="line2d_13">
      <g>
       <use xlink:href="#mf511d1d95f" x="72" y="192.592989" style="stroke: #000000; stroke-width: 0.8"/>
      </g>
     </g>
     <g id="text_14">
      <!-- 0.9 -->
      <g transform="translate(49.096875 196.392208) scale(0.1 -0.1)">
       <defs>
        <path id="DejaVuSans-39" d="M 703 97 
L 703 672 
Q 941 559 1184 500 
Q 1428 441 1663 441 
Q 2288 441 2617 861 
Q 2947 1281 2994 2138 
Q 2813 1869 2534 1725 
Q 2256 1581 1919 1581 
Q 1219 1581 811 2004 
Q 403 2428 403 3163 
Q 403 3881 828 4315 
Q 1253 4750 1959 4750 
Q 2769 4750 3195 4129 
Q 3622 3509 3622 2328 
Q 3622 1225 3098 567 
Q 2575 -91 1691 -91 
Q 1453 -91 1209 -44 
Q 966 3 703 97 
z
M 1959 2075 
Q 2384 2075 2632 2365 
Q 2881 2656 2881 3163 
Q 2881 3666 2632 3958 
Q 2384 4250 1959 4250 
Q 1534 4250 1286 3958 
Q 1038 3666 1038 3163 
Q 1038 2656 1286 2365 
Q 1534 2075 1959 2075 
z
" transform="scale(0.015625)"/>
       </defs>
       <use xlink:href="#DejaVuSans-30"/>
       <use xlink:href="#DejaVuSans-2e" x="63.623047"/>
       <use xlink:href="#DejaVuSans-39" x="95.410156"/>
      </g>
     </g>
    </g>
    <g id="ytick_9">
     <g id="line2d_14">
      <g>
       <use xlink:href="#mf511d1d95f" x="72" y="147.642304" style="stroke: #000000; stroke-width: 0.8"/>
      </g>
     </g>
     <g id="text_15">
      <!-- 1.0 -->
      <g transform="translate(49.096875 151.441523) scale(0.1 -0.1)">
       <use xlink:href="#DejaVuSans-31"/>
       <use xlink:href="#DejaVuSans-2e" x="63.623047"/>
       <use xlink:href="#DejaVuSans-30" x="95.410156"/>
      </g>
     </g>
    </g>
   </g>
   <g id="line2d_15">
    <path d="M 92.290909 338.32501 
L 94.2609 248.083647 
L 96.230891 232.642025 
L 98.200883 219.892078 
L 100.170874 213.658757 
L 102.140865 221.167062 
L 104.110856 211.675428 
L 106.080847 207.00045 
L 108.050838 204.592109 
L 110.02083 200.62545 
L 111.990821 200.342117 
L 113.960812 195.383807 
L 115.930803 195.100474 
L 117.900794 194.250476 
L 119.870786 191.700481 
L 121.840777 191.842161 
L 123.810768 187.59217 
L 125.780759 189.150513 
L 127.75075 189.575499 
L 129.720741 185.892173 
L 131.690733 184.758842 
L 133.660724 183.058846 
L 135.630715 180.933863 
L 137.600706 184.758842 
L 139.570697 180.650531 
L 141.540688 181.925515 
L 143.51068 182.775513 
L 145.480671 177.817203 
L 147.450662 182.208847 
L 149.420653 181.783862 
L 151.390644 177.108884 
L 153.360635 177.250537 
L 155.330627 176.825552 
L 157.300618 175.975553 
L 159.270609 177.67555 
L 161.2406 175.833874 
L 163.210591 172.717213 
L 165.180583 174.275557 
L 167.150574 173.142226 
L 169.120565 174.983875 
L 171.090556 171.583882 
L 173.060547 171.583882 
L 175.030538 176.542219 
L 177.00053 175.692221 
L 178.970521 174.983875 
L 180.940512 173.850544 
L 182.910503 170.592231 
L 184.880494 174.133877 
L 186.850485 173.708891 
L 188.820477 171.583882 
L 190.790468 171.300549 
L 192.760459 172.57556 
L 194.73045 169.742233 
L 196.700441 171.867215 
L 198.670432 171.867215 
L 200.640424 171.725562 
L 202.610415 168.467249 
L 204.580406 170.308898 
L 206.550397 170.592231 
L 208.520388 169.033887 
L 210.49038 169.600553 
L 212.460371 166.483919 
L 214.430362 168.750555 
L 216.400353 169.175567 
L 218.370344 167.900583 
L 222.310327 172.008895 
L 224.280318 168.892234 
L 226.250309 169.175567 
L 228.2203 168.042236 
L 230.190291 168.608902 
L 232.160282 171.158896 
L 234.130274 167.61725 
L 236.100265 165.917254 
L 238.070256 167.758903 
L 240.040247 171.867215 
L 242.010238 169.600553 
L 243.980229 166.483919 
L 245.950221 166.625572 
L 247.920212 167.050585 
L 249.890203 166.483919 
L 251.860194 162.517261 
L 253.830185 165.350588 
L 255.800177 165.775574 
L 257.770168 161.950595 
L 259.740159 162.092248 
L 261.71015 164.50059 
L 263.680141 164.35891 
L 265.650132 163.792245 
L 267.620124 171.442229 
L 269.590115 166.767252 
L 271.560106 164.075577 
L 273.530097 164.925576 
L 275.500088 164.783923 
L 277.470079 165.208909 
L 279.440071 164.925576 
L 281.410062 162.375581 
L 283.380053 165.492241 
L 285.350044 162.658914 
L 287.320035 163.083926 
L 289.290026 162.517261 
L 291.260018 166.058907 
L 293.230009 163.225579 
L 295.2 166.908905 
L 297.169991 158.975588 
L 299.139982 165.350588 
L 301.109974 164.642243 
L 303.079965 164.217257 
L 305.049956 164.217257 
L 307.019947 158.975588 
L 308.989938 163.083926 
L 310.959929 163.792245 
L 312.929921 167.192238 
L 314.899912 165.492241 
L 316.869903 167.900583 
L 318.839894 163.367259 
L 320.809885 162.658914 
L 322.779876 158.692255 
L 324.749868 161.24225 
L 326.719859 162.658914 
L 328.68985 163.225579 
L 330.659841 161.38393 
L 332.629832 165.633921 
L 334.599823 162.942246 
L 336.569815 160.958917 
L 338.539806 161.950595 
L 340.509797 163.225579 
L 342.479788 159.825586 
L 344.449779 162.517261 
L 346.419771 163.083926 
L 348.389762 165.492241 
L 350.359753 160.817264 
L 352.329744 163.508912 
L 354.299735 160.958917 
L 356.269726 161.38393 
L 358.239718 162.800593 
L 360.209709 162.517261 
L 362.1797 160.108919 
L 364.149691 163.933924 
L 366.119682 160.958917 
L 368.089673 159.683933 
L 370.059665 161.38393 
L 372.029656 160.817264 
L 373.999647 159.117268 
L 375.969638 166.625572 
L 377.939629 160.250599 
L 379.90962 162.375581 
L 381.879612 162.942246 
L 383.849603 160.675584 
L 385.819594 159.825586 
L 387.789585 159.542253 
L 389.759576 161.100597 
L 391.729568 160.817264 
L 393.699559 160.250599 
L 395.66955 157.700604 
L 397.639541 159.258921 
L 399.609532 160.392252 
L 401.579523 160.533931 
L 403.549515 160.250599 
L 405.519506 157.983937 
L 407.489497 161.525583 
L 409.459488 158.12559 
L 411.429479 162.658914 
L 415.369462 159.117268 
L 417.339453 160.533931 
L 419.309444 161.808915 
L 421.279435 161.38393 
L 423.249426 159.967266 
L 425.219417 158.833935 
L 427.189409 158.833935 
L 429.1594 161.808915 
L 433.099382 159.825586 
L 435.069373 157.842284 
L 437.039365 164.35891 
L 439.009356 159.258921 
L 440.979347 159.967266 
L 442.949338 161.24225 
L 444.919329 161.950595 
L 446.88932 158.692255 
L 448.859312 157.275618 
L 450.829303 158.408922 
L 452.799294 162.942246 
L 454.769285 157.842284 
L 456.739276 160.250599 
L 458.709267 158.12559 
L 460.679259 158.550602 
L 462.64925 158.408922 
L 464.619241 157.417271 
L 466.589232 157.558951 
L 468.559223 160.108919 
L 470.529214 164.217257 
L 472.499206 160.958917 
L 474.469197 159.117268 
L 476.439188 158.550602 
L 478.409179 156.567273 
L 480.37917 160.958917 
L 482.349162 160.108919 
L 484.319153 156.992285 
L 486.289144 157.983937 
L 488.259135 157.558951 
L 490.229126 156.850605 
L 492.199117 160.958917 
L 494.169109 156.850605 
L 498.109091 157.417271 
L 498.109091 157.417271 
" clip-path="url(#p95e45da5ef)" style="fill: none; stroke: #1f77b4; stroke-width: 1.5; stroke-linecap: square"/>
   </g>
   <g id="line2d_16">
    <path d="M 92.290909 523.112727 
L 94.2609 484.33174 
L 96.230891 390.904832 
L 98.200883 315.105629 
L 100.170874 285.138508 
L 102.140865 221.678722 
L 104.110856 216.390406 
L 106.080847 216.390406 
L 108.050838 212.864862 
L 110.02083 212.864862 
L 111.990821 214.627634 
L 113.960812 209.339319 
L 115.930803 207.576547 
L 117.900794 209.339319 
L 119.870786 200.52546 
L 121.840777 198.762688 
L 123.810768 225.204265 
L 125.780759 207.576547 
L 127.75075 202.288231 
L 129.720741 195.237144 
L 131.690733 196.999916 
L 133.660724 205.813775 
L 135.630715 209.339319 
L 137.600706 204.051003 
L 139.570697 204.051003 
L 141.540688 202.288231 
L 143.51068 204.051003 
L 145.480671 198.762688 
L 147.450662 200.52546 
L 151.390644 193.474372 
L 153.360635 202.288231 
L 155.330627 198.762688 
L 157.300618 200.52546 
L 159.270609 212.864862 
L 161.2406 196.999916 
L 163.210591 200.52546 
L 165.180583 186.423285 
L 167.150574 200.52546 
L 169.120565 205.813775 
L 171.090556 209.339319 
L 173.060547 209.339319 
L 175.030538 212.864862 
L 177.00053 202.288231 
L 178.970521 202.288231 
L 180.940512 204.051003 
L 182.910503 200.52546 
L 184.880494 207.576547 
L 186.850485 193.474372 
L 188.820477 205.813775 
L 190.790468 198.762688 
L 192.760459 200.52546 
L 194.73045 209.339319 
L 198.670432 198.762688 
L 200.640424 200.52546 
L 202.610415 211.102091 
L 204.580406 205.813775 
L 206.550397 207.576547 
L 208.520388 204.051003 
L 210.49038 198.762688 
L 212.460371 196.999916 
L 214.430362 205.813775 
L 216.400353 202.288231 
L 218.370344 191.7116 
L 220.340335 191.7116 
L 222.310327 200.52546 
L 224.280318 212.864862 
L 226.250309 204.051003 
L 228.2203 198.762688 
L 230.190291 196.999916 
L 232.160282 207.576547 
L 234.130274 200.52546 
L 236.100265 204.051003 
L 238.070256 202.288231 
L 240.040247 191.7116 
L 242.010238 196.999916 
L 243.980229 191.7116 
L 245.950221 198.762688 
L 247.920212 193.474372 
L 249.890203 200.52546 
L 251.860194 193.474372 
L 253.830185 198.762688 
L 255.800177 200.52546 
L 257.770168 198.762688 
L 259.740159 198.762688 
L 261.71015 191.7116 
L 263.680141 200.52546 
L 265.650132 189.948828 
L 267.620124 196.999916 
L 269.590115 193.474372 
L 271.560106 195.237144 
L 273.530097 193.474372 
L 275.500088 200.52546 
L 277.470079 198.762688 
L 279.440071 202.288231 
L 281.410062 198.762688 
L 283.380053 198.762688 
L 285.350044 193.474372 
L 287.320035 195.237144 
L 289.290026 189.948828 
L 291.260018 193.474372 
L 293.230009 202.288231 
L 295.2 191.7116 
L 297.169991 186.423285 
L 299.139982 198.762688 
L 301.109974 188.186057 
L 303.079965 193.474372 
L 305.049956 191.7116 
L 307.019947 193.474372 
L 308.989938 191.7116 
L 312.929921 191.7116 
L 314.899912 188.186057 
L 316.869903 188.186057 
L 318.839894 196.999916 
L 320.809885 193.474372 
L 322.779876 195.237144 
L 324.749868 198.762688 
L 326.719859 196.999916 
L 328.68985 196.999916 
L 330.659841 202.288231 
L 332.629832 196.999916 
L 334.599823 189.948828 
L 336.569815 195.237144 
L 338.539806 189.948828 
L 340.509797 181.134969 
L 342.479788 191.7116 
L 344.449779 195.237144 
L 348.389762 195.237144 
L 350.359753 200.52546 
L 352.329744 191.7116 
L 354.299735 189.948828 
L 356.269726 186.423285 
L 358.239718 198.762688 
L 360.209709 200.52546 
L 362.1797 193.474372 
L 364.149691 189.948828 
L 366.119682 202.288231 
L 368.089673 193.474372 
L 370.059665 195.237144 
L 372.029656 205.813775 
L 373.999647 198.762688 
L 377.939629 195.237144 
L 379.90962 200.52546 
L 381.879612 211.102091 
L 383.849603 189.948828 
L 385.819594 189.948828 
L 387.789585 200.52546 
L 389.759576 195.237144 
L 391.729568 202.288231 
L 393.699559 193.474372 
L 395.66955 188.186057 
L 397.639541 207.576547 
L 399.609532 205.813775 
L 401.579523 195.237144 
L 403.549515 189.948828 
L 405.519506 193.474372 
L 407.489497 195.237144 
L 409.459488 200.52546 
L 411.429479 191.7116 
L 413.39947 191.7116 
L 415.369462 196.999916 
L 417.339453 193.474372 
L 419.309444 191.7116 
L 421.279435 191.7116 
L 423.249426 196.999916 
L 425.219417 191.7116 
L 427.189409 189.948828 
L 429.1594 189.948828 
L 431.129391 198.762688 
L 435.069373 191.7116 
L 437.039365 195.237144 
L 442.949338 195.237144 
L 444.919329 200.52546 
L 448.859312 189.948828 
L 450.829303 182.897741 
L 452.799294 189.948828 
L 454.769285 195.237144 
L 458.709267 191.7116 
L 460.679259 188.186057 
L 462.64925 193.474372 
L 464.619241 191.7116 
L 466.589232 191.7116 
L 468.559223 188.186057 
L 470.529214 195.237144 
L 472.499206 191.7116 
L 474.469197 184.660513 
L 476.439188 191.7116 
L 480.37917 191.7116 
L 482.349162 188.186057 
L 484.319153 193.474372 
L 486.289144 189.948828 
L 488.259135 188.186057 
L 490.229126 193.474372 
L 492.199117 191.7116 
L 494.169109 193.474372 
L 496.1391 196.999916 
L 498.109091 182.897741 
L 498.109091 182.897741 
" clip-path="url(#p95e45da5ef)" style="fill: none; stroke: #ff7f0e; stroke-width: 1.5; stroke-linecap: square"/>
   </g>
   <g id="patch_3">
    <path d="M 72 541.44 
L 72 138.24 
" style="fill: none; stroke: #000000; stroke-width: 0.8; stroke-linejoin: miter; stroke-linecap: square"/>
   </g>
   <g id="patch_4">
    <path d="M 518.4 541.44 
L 518.4 138.24 
" style="fill: none; stroke: #000000; stroke-width: 0.8; stroke-linejoin: miter; stroke-linecap: square"/>
   </g>
   <g id="patch_5">
    <path d="M 72 541.44 
L 518.4 541.44 
" style="fill: none; stroke: #000000; stroke-width: 0.8; stroke-linejoin: miter; stroke-linecap: square"/>
   </g>
   <g id="patch_6">
    <path d="M 72 138.24 
L 518.4 138.24 
" style="fill: none; stroke: #000000; stroke-width: 0.8; stroke-linejoin: miter; stroke-linecap: square"/>
   </g>
   <g id="legend_1">
    <g id="patch_7">
     <path d="M 79 175.874375 
L 175.94375 175.874375 
Q 177.94375 175.874375 177.94375 173.874375 
L 177.94375 145.24 
Q 177.94375 143.24 175.94375 143.24 
L 79 143.24 
Q 77 143.24 77 145.24 
L 77 173.874375 
Q 77 175.874375 79 175.874375 
z
" style="fill: #ffffff; opacity: 0.8; stroke: #cccccc; stroke-linejoin: miter"/>
    </g>
    <g id="line2d_17">
     <path d="M 81 151.338437 
L 91 151.338437 
L 101 151.338437 
" style="fill: none; stroke: #1f77b4; stroke-width: 1.5; stroke-linecap: square"/>
    </g>
    <g id="text_16">
     <!-- accuracy -->
     <g transform="translate(109 154.838437) scale(0.1 -0.1)">
      <defs>
       <path id="DejaVuSans-61" d="M 2194 1759 
Q 1497 1759 1228 1600 
Q 959 1441 959 1056 
Q 959 750 1161 570 
Q 1363 391 1709 391 
Q 2188 391 2477 730 
Q 2766 1069 2766 1631 
L 2766 1759 
L 2194 1759 
z
M 3341 1997 
L 3341 0 
L 2766 0 
L 2766 531 
Q 2569 213 2275 61 
Q 1981 -91 1556 -91 
Q 1019 -91 701 211 
Q 384 513 384 1019 
Q 384 1609 779 1909 
Q 1175 2209 1959 2209 
L 2766 2209 
L 2766 2266 
Q 2766 2663 2505 2880 
Q 2244 3097 1772 3097 
Q 1472 3097 1187 3025 
Q 903 2953 641 2809 
L 641 3341 
Q 956 3463 1253 3523 
Q 1550 3584 1831 3584 
Q 2591 3584 2966 3190 
Q 3341 2797 3341 1997 
z
" transform="scale(0.015625)"/>
       <path id="DejaVuSans-75" d="M 544 1381 
L 544 3500 
L 1119 3500 
L 1119 1403 
Q 1119 906 1312 657 
Q 1506 409 1894 409 
Q 2359 409 2629 706 
Q 2900 1003 2900 1516 
L 2900 3500 
L 3475 3500 
L 3475 0 
L 2900 0 
L 2900 538 
Q 2691 219 2414 64 
Q 2138 -91 1772 -91 
Q 1169 -91 856 284 
Q 544 659 544 1381 
z
M 1991 3584 
L 1991 3584 
z
" transform="scale(0.015625)"/>
       <path id="DejaVuSans-72" d="M 2631 2963 
Q 2534 3019 2420 3045 
Q 2306 3072 2169 3072 
Q 1681 3072 1420 2755 
Q 1159 2438 1159 1844 
L 1159 0 
L 581 0 
L 581 3500 
L 1159 3500 
L 1159 2956 
Q 1341 3275 1631 3429 
Q 1922 3584 2338 3584 
Q 2397 3584 2469 3576 
Q 2541 3569 2628 3553 
L 2631 2963 
z
" transform="scale(0.015625)"/>
       <path id="DejaVuSans-79" d="M 2059 -325 
Q 1816 -950 1584 -1140 
Q 1353 -1331 966 -1331 
L 506 -1331 
L 506 -850 
L 844 -850 
Q 1081 -850 1212 -737 
Q 1344 -625 1503 -206 
L 1606 56 
L 191 3500 
L 800 3500 
L 1894 763 
L 2988 3500 
L 3597 3500 
L 2059 -325 
z
" transform="scale(0.015625)"/>
      </defs>
      <use xlink:href="#DejaVuSans-61"/>
      <use xlink:href="#DejaVuSans-63" x="61.279297"/>
      <use xlink:href="#DejaVuSans-63" x="116.259766"/>
      <use xlink:href="#DejaVuSans-75" x="171.240234"/>
      <use xlink:href="#DejaVuSans-72" x="234.619141"/>
      <use xlink:href="#DejaVuSans-61" x="275.732422"/>
      <use xlink:href="#DejaVuSans-63" x="337.011719"/>
      <use xlink:href="#DejaVuSans-79" x="391.992188"/>
     </g>
    </g>
    <g id="line2d_18">
     <path d="M 81 166.016562 
L 91 166.016562 
L 101 166.016562 
" style="fill: none; stroke: #ff7f0e; stroke-width: 1.5; stroke-linecap: square"/>
    </g>
    <g id="text_17">
     <!-- val_accuracy -->
     <g transform="translate(109 169.516562) scale(0.1 -0.1)">
      <defs>
       <path id="DejaVuSans-76" d="M 191 3500 
L 800 3500 
L 1894 563 
L 2988 3500 
L 3597 3500 
L 2284 0 
L 1503 0 
L 191 3500 
z
" transform="scale(0.015625)"/>
       <path id="DejaVuSans-6c" d="M 603 4863 
L 1178 4863 
L 1178 0 
L 603 0 
L 603 4863 
z
" transform="scale(0.015625)"/>
       <path id="DejaVuSans-5f" d="M 3263 -1063 
L 3263 -1509 
L -63 -1509 
L -63 -1063 
L 3263 -1063 
z
" transform="scale(0.015625)"/>
      </defs>
      <use xlink:href="#DejaVuSans-76"/>
      <use xlink:href="#DejaVuSans-61" x="59.179688"/>
      <use xlink:href="#DejaVuSans-6c" x="120.458984"/>
      <use xlink:href="#DejaVuSans-5f" x="148.242188"/>
      <use xlink:href="#DejaVuSans-61" x="198.242188"/>
      <use xlink:href="#DejaVuSans-63" x="259.521484"/>
      <use xlink:href="#DejaVuSans-63" x="314.501953"/>
      <use xlink:href="#DejaVuSans-75" x="369.482422"/>
      <use xlink:href="#DejaVuSans-72" x="432.861328"/>
      <use xlink:href="#DejaVuSans-61" x="473.974609"/>
      <use xlink:href="#DejaVuSans-63" x="535.253906"/>
      <use xlink:href="#DejaVuSans-79" x="590.234375"/>
     </g>
    </g>
   </g>
  </g>
  <g id="axes_2">
   <g id="patch_8">
    <path d="M 72 1025.28 
L 518.4 1025.28 
L 518.4 622.08 
L 72 622.08 
z
" style="fill: #ffffff"/>
   </g>
   <g id="matplotlib.axis_3">
    <g id="xtick_6">
     <g id="line2d_19">
      <g>
       <use xlink:href="#m481298554e" x="92.290909" y="1025.28" style="stroke: #000000; stroke-width: 0.8"/>
      </g>
     </g>
     <g id="text_18">
      <!-- 0 -->
      <g transform="translate(89.109659 1039.878438) scale(0.1 -0.1)">
       <use xlink:href="#DejaVuSans-30"/>
      </g>
     </g>
    </g>
    <g id="xtick_7">
     <g id="line2d_20">
      <g>
       <use xlink:href="#m481298554e" x="190.790468" y="1025.28" style="stroke: #000000; stroke-width: 0.8"/>
      </g>
     </g>
     <g id="text_19">
      <!-- 50 -->
      <g transform="translate(184.427968 1039.878438) scale(0.1 -0.1)">
       <use xlink:href="#DejaVuSans-35"/>
       <use xlink:href="#DejaVuSans-30" x="63.623047"/>
      </g>
     </g>
    </g>
    <g id="xtick_8">
     <g id="line2d_21">
      <g>
       <use xlink:href="#m481298554e" x="289.290026" y="1025.28" style="stroke: #000000; stroke-width: 0.8"/>
      </g>
     </g>
     <g id="text_20">
      <!-- 100 -->
      <g transform="translate(279.746276 1039.878438) scale(0.1 -0.1)">
       <use xlink:href="#DejaVuSans-31"/>
       <use xlink:href="#DejaVuSans-30" x="63.623047"/>
       <use xlink:href="#DejaVuSans-30" x="127.246094"/>
      </g>
     </g>
    </g>
    <g id="xtick_9">
     <g id="line2d_22">
      <g>
       <use xlink:href="#m481298554e" x="387.789585" y="1025.28" style="stroke: #000000; stroke-width: 0.8"/>
      </g>
     </g>
     <g id="text_21">
      <!-- 150 -->
      <g transform="translate(378.245835 1039.878438) scale(0.1 -0.1)">
       <use xlink:href="#DejaVuSans-31"/>
       <use xlink:href="#DejaVuSans-35" x="63.623047"/>
       <use xlink:href="#DejaVuSans-30" x="127.246094"/>
      </g>
     </g>
    </g>
    <g id="xtick_10">
     <g id="line2d_23">
      <g>
       <use xlink:href="#m481298554e" x="486.289144" y="1025.28" style="stroke: #000000; stroke-width: 0.8"/>
      </g>
     </g>
     <g id="text_22">
      <!-- 200 -->
      <g transform="translate(476.745394 1039.878438) scale(0.1 -0.1)">
       <use xlink:href="#DejaVuSans-32"/>
       <use xlink:href="#DejaVuSans-30" x="63.623047"/>
       <use xlink:href="#DejaVuSans-30" x="127.246094"/>
      </g>
     </g>
    </g>
    <g id="text_23">
     <!-- Epoch -->
     <g transform="translate(279.889062 1053.556562) scale(0.1 -0.1)">
      <use xlink:href="#DejaVuSans-45"/>
      <use xlink:href="#DejaVuSans-70" x="63.183594"/>
      <use xlink:href="#DejaVuSans-6f" x="126.660156"/>
      <use xlink:href="#DejaVuSans-63" x="187.841797"/>
      <use xlink:href="#DejaVuSans-68" x="242.822266"/>
     </g>
    </g>
   </g>
   <g id="matplotlib.axis_4">
    <g id="ytick_10">
     <g id="line2d_24">
      <g>
       <use xlink:href="#mf511d1d95f" x="72" y="1016.798007" style="stroke: #000000; stroke-width: 0.8"/>
      </g>
     </g>
     <g id="text_24">
      <!-- 0.00 -->
      <g transform="translate(42.734375 1020.597226) scale(0.1 -0.1)">
       <use xlink:href="#DejaVuSans-30"/>
       <use xlink:href="#DejaVuSans-2e" x="63.623047"/>
       <use xlink:href="#DejaVuSans-30" x="95.410156"/>
       <use xlink:href="#DejaVuSans-30" x="159.033203"/>
      </g>
     </g>
    </g>
    <g id="ytick_11">
     <g id="line2d_25">
      <g>
       <use xlink:href="#mf511d1d95f" x="72" y="969.000329" style="stroke: #000000; stroke-width: 0.8"/>
      </g>
     </g>
     <g id="text_25">
      <!-- 0.25 -->
      <g transform="translate(42.734375 972.799548) scale(0.1 -0.1)">
       <use xlink:href="#DejaVuSans-30"/>
       <use xlink:href="#DejaVuSans-2e" x="63.623047"/>
       <use xlink:href="#DejaVuSans-32" x="95.410156"/>
       <use xlink:href="#DejaVuSans-35" x="159.033203"/>
      </g>
     </g>
    </g>
    <g id="ytick_12">
     <g id="line2d_26">
      <g>
       <use xlink:href="#mf511d1d95f" x="72" y="921.202652" style="stroke: #000000; stroke-width: 0.8"/>
      </g>
     </g>
     <g id="text_26">
      <!-- 0.50 -->
      <g transform="translate(42.734375 925.00187) scale(0.1 -0.1)">
       <use xlink:href="#DejaVuSans-30"/>
       <use xlink:href="#DejaVuSans-2e" x="63.623047"/>
       <use xlink:href="#DejaVuSans-35" x="95.410156"/>
       <use xlink:href="#DejaVuSans-30" x="159.033203"/>
      </g>
     </g>
    </g>
    <g id="ytick_13">
     <g id="line2d_27">
      <g>
       <use xlink:href="#mf511d1d95f" x="72" y="873.404974" style="stroke: #000000; stroke-width: 0.8"/>
      </g>
     </g>
     <g id="text_27">
      <!-- 0.75 -->
      <g transform="translate(42.734375 877.204193) scale(0.1 -0.1)">
       <use xlink:href="#DejaVuSans-30"/>
       <use xlink:href="#DejaVuSans-2e" x="63.623047"/>
       <use xlink:href="#DejaVuSans-37" x="95.410156"/>
       <use xlink:href="#DejaVuSans-35" x="159.033203"/>
      </g>
     </g>
    </g>
    <g id="ytick_14">
     <g id="line2d_28">
      <g>
       <use xlink:href="#mf511d1d95f" x="72" y="825.607296" style="stroke: #000000; stroke-width: 0.8"/>
      </g>
     </g>
     <g id="text_28">
      <!-- 1.00 -->
      <g transform="translate(42.734375 829.406515) scale(0.1 -0.1)">
       <use xlink:href="#DejaVuSans-31"/>
       <use xlink:href="#DejaVuSans-2e" x="63.623047"/>
       <use xlink:href="#DejaVuSans-30" x="95.410156"/>
       <use xlink:href="#DejaVuSans-30" x="159.033203"/>
      </g>
     </g>
    </g>
    <g id="ytick_15">
     <g id="line2d_29">
      <g>
       <use xlink:href="#mf511d1d95f" x="72" y="777.809619" style="stroke: #000000; stroke-width: 0.8"/>
      </g>
     </g>
     <g id="text_29">
      <!-- 1.25 -->
      <g transform="translate(42.734375 781.608838) scale(0.1 -0.1)">
       <use xlink:href="#DejaVuSans-31"/>
       <use xlink:href="#DejaVuSans-2e" x="63.623047"/>
       <use xlink:href="#DejaVuSans-32" x="95.410156"/>
       <use xlink:href="#DejaVuSans-35" x="159.033203"/>
      </g>
     </g>
    </g>
    <g id="ytick_16">
     <g id="line2d_30">
      <g>
       <use xlink:href="#mf511d1d95f" x="72" y="730.011941" style="stroke: #000000; stroke-width: 0.8"/>
      </g>
     </g>
     <g id="text_30">
      <!-- 1.50 -->
      <g transform="translate(42.734375 733.81116) scale(0.1 -0.1)">
       <use xlink:href="#DejaVuSans-31"/>
       <use xlink:href="#DejaVuSans-2e" x="63.623047"/>
       <use xlink:href="#DejaVuSans-35" x="95.410156"/>
       <use xlink:href="#DejaVuSans-30" x="159.033203"/>
      </g>
     </g>
    </g>
    <g id="ytick_17">
     <g id="line2d_31">
      <g>
       <use xlink:href="#mf511d1d95f" x="72" y="682.214264" style="stroke: #000000; stroke-width: 0.8"/>
      </g>
     </g>
     <g id="text_31">
      <!-- 1.75 -->
      <g transform="translate(42.734375 686.013482) scale(0.1 -0.1)">
       <use xlink:href="#DejaVuSans-31"/>
       <use xlink:href="#DejaVuSans-2e" x="63.623047"/>
       <use xlink:href="#DejaVuSans-37" x="95.410156"/>
       <use xlink:href="#DejaVuSans-35" x="159.033203"/>
      </g>
     </g>
    </g>
    <g id="ytick_18">
     <g id="line2d_32">
      <g>
       <use xlink:href="#mf511d1d95f" x="72" y="634.416586" style="stroke: #000000; stroke-width: 0.8"/>
      </g>
     </g>
     <g id="text_32">
      <!-- 2.00 -->
      <g transform="translate(42.734375 638.215805) scale(0.1 -0.1)">
       <use xlink:href="#DejaVuSans-32"/>
       <use xlink:href="#DejaVuSans-2e" x="63.623047"/>
       <use xlink:href="#DejaVuSans-30" x="95.410156"/>
       <use xlink:href="#DejaVuSans-30" x="159.033203"/>
      </g>
     </g>
    </g>
   </g>
   <g id="line2d_33">
    <path d="M 92.290909 809.715755 
L 94.2609 901.147874 
L 96.230891 923.600499 
L 98.200883 934.353285 
L 100.170874 942.376599 
L 102.140865 937.993332 
L 104.110856 948.738529 
L 106.080847 952.989245 
L 108.050838 954.388115 
L 110.02083 959.71652 
L 111.990821 957.194971 
L 113.960812 963.569304 
L 115.930803 962.070083 
L 117.900794 965.766835 
L 119.870786 968.405944 
L 121.840777 967.89741 
L 123.810768 972.134155 
L 125.780759 971.073682 
L 127.75075 970.659298 
L 129.720741 971.313993 
L 131.690733 974.829554 
L 133.660724 976.334613 
L 135.630715 980.490855 
L 137.600706 973.564953 
L 139.570697 979.790679 
L 141.540688 977.75781 
L 143.51068 978.027185 
L 145.480671 981.592244 
L 147.450662 977.911719 
L 149.420653 978.016045 
L 151.390644 983.931571 
L 153.360635 983.305155 
L 155.330627 982.414717 
L 157.300618 984.541155 
L 159.270609 984.743565 
L 161.2406 984.644054 
L 163.210591 987.495653 
L 165.180583 985.884504 
L 167.150574 988.569655 
L 169.120565 986.233331 
L 171.090556 986.959073 
L 173.060547 989.378781 
L 175.030538 986.937663 
L 177.00053 985.226536 
L 178.970521 985.315022 
L 180.940512 989.036127 
L 182.910503 991.160488 
L 184.880494 987.296863 
L 186.850485 988.418663 
L 188.820477 990.229837 
L 190.790468 990.631743 
L 192.760459 990.148759 
L 194.73045 992.076461 
L 196.700441 990.582801 
L 198.670432 988.429546 
L 200.640424 989.993214 
L 202.610415 992.893114 
L 204.580406 993.227629 
L 206.550397 992.010955 
L 208.520388 992.279624 
L 210.49038 992.346669 
L 212.460371 994.641024 
L 214.430362 993.997248 
L 216.400353 992.227109 
L 218.370344 993.766242 
L 220.340335 990.352648 
L 222.310327 991.584007 
L 224.280318 992.637704 
L 226.250309 989.724437 
L 228.2203 994.557877 
L 230.190291 994.945012 
L 232.160282 989.737274 
L 234.130274 993.530722 
L 236.100265 996.856465 
L 238.070256 993.764498 
L 240.040247 988.802219 
L 242.010238 991.743064 
L 243.980229 996.241042 
L 245.950221 995.365601 
L 247.920212 993.443757 
L 249.890203 995.971881 
L 251.860194 998.972589 
L 253.830185 997.439115 
L 255.800177 995.273754 
L 257.770168 998.345035 
L 259.740159 998.844459 
L 261.71015 997.95616 
L 263.680141 997.996242 
L 265.650132 997.622898 
L 267.620124 988.791387 
L 269.590115 995.383943 
L 271.560106 998.706542 
L 273.530097 995.895144 
L 275.500088 998.455248 
L 279.440071 996.736548 
L 281.410062 999.691919 
L 283.380053 997.403572 
L 285.350044 999.735954 
L 287.320035 999.686612 
L 289.290026 999.349905 
L 291.260018 998.098797 
L 293.230009 999.589287 
L 295.2 995.528925 
L 297.169991 1002.199517 
L 299.139982 996.248236 
L 301.109974 997.475924 
L 305.049956 997.611085 
L 307.019947 1002.146807 
L 308.989938 999.592079 
L 310.959929 999.415131 
L 312.929921 996.53406 
L 314.899912 996.172998 
L 316.869903 994.757011 
L 318.839894 999.029649 
L 320.809885 998.831987 
L 322.779876 1002.850977 
L 324.749868 1000.253384 
L 326.719859 1000.02542 
L 328.68985 999.454818 
L 330.659841 1001.5283 
L 332.629832 997.059642 
L 334.599823 999.171425 
L 336.569815 1000.249451 
L 338.539806 1000.118935 
L 340.509797 998.682678 
L 342.479788 1003.4137 
L 344.449779 998.838103 
L 346.419771 999.352605 
L 348.389762 996.596965 
L 350.359753 1002.565469 
L 352.329744 997.44447 
L 354.299735 1001.689299 
L 356.269726 1001.666147 
L 358.239718 998.807642 
L 360.209709 999.689542 
L 362.1797 1003.125289 
L 364.149691 999.246344 
L 366.119682 1002.235247 
L 368.089673 1001.526343 
L 370.059665 1001.476154 
L 373.999647 1004.047091 
L 375.969638 995.588671 
L 377.939629 1001.357019 
L 379.90962 999.78071 
L 381.879612 999.053469 
L 383.849603 1002.58428 
L 387.789585 1003.952514 
L 389.759576 1002.976267 
L 391.729568 1002.917875 
L 393.699559 1003.101533 
L 395.66955 1004.927599 
L 397.639541 1003.132368 
L 399.609532 1001.903883 
L 401.579523 1000.541242 
L 403.549515 1002.895731 
L 405.519506 1004.207625 
L 407.489497 1002.569177 
L 409.459488 1004.450174 
L 411.429479 999.825184 
L 413.39947 1001.06262 
L 415.369462 1003.479323 
L 417.339453 1002.749246 
L 419.309444 1001.091883 
L 421.279435 1001.812433 
L 423.249426 1003.04647 
L 425.219417 1004.713156 
L 427.189409 1003.876044 
L 429.1594 1000.42424 
L 431.129391 1002.232869 
L 433.099382 1002.435403 
L 435.069373 1006.952727 
L 437.039365 995.728628 
L 439.009356 1003.752655 
L 442.949338 1001.646803 
L 444.919329 1001.314086 
L 446.88932 1003.291766 
L 448.859312 1006.06417 
L 450.829303 1005.699467 
L 452.799294 999.76491 
L 454.769285 1005.494693 
L 456.739276 1003.012583 
L 458.709267 1005.612547 
L 460.679259 1004.633177 
L 462.64925 1004.11428 
L 464.619241 1005.544774 
L 466.589232 1006.338187 
L 468.559223 1001.525183 
L 470.529214 997.61226 
L 472.499206 1001.670745 
L 474.469197 1004.402303 
L 476.439188 1004.620051 
L 478.409179 1005.183616 
L 480.37917 1000.127313 
L 482.349162 1002.680728 
L 484.319153 1004.830502 
L 486.289144 1005.162517 
L 488.259135 1004.219143 
L 490.229126 1005.571983 
L 492.199117 1000.121765 
L 494.169109 1006.316082 
L 496.1391 1006.499377 
L 498.109091 1005.476154 
L 498.109091 1005.476154 
" clip-path="url(#p9655e92aee)" style="fill: none; stroke: #1f77b4; stroke-width: 1.5; stroke-linecap: square"/>
   </g>
   <g id="line2d_34">
    <path d="M 92.290909 658.630794 
L 94.2609 640.407273 
L 96.230891 767.720892 
L 98.200883 839.027647 
L 100.170874 856.337232 
L 102.140865 920.574489 
L 104.110856 923.866239 
L 106.080847 926.721368 
L 108.050838 931.402403 
L 110.02083 934.165658 
L 111.990821 923.965115 
L 113.960812 936.666365 
L 115.930803 940.086642 
L 117.900794 929.620564 
L 119.870786 946.684813 
L 121.840777 952.497195 
L 123.810768 932.662608 
L 125.780759 949.356429 
L 127.75075 948.177625 
L 129.720741 949.556523 
L 131.690733 947.194841 
L 133.660724 945.298753 
L 135.630715 941.900435 
L 137.600706 943.611585 
L 139.570697 950.55827 
L 141.540688 952.444221 
L 143.51068 948.553813 
L 145.480671 952.61423 
L 147.450662 939.031095 
L 149.420653 950.552418 
L 151.390644 955.487 
L 153.360635 949.008588 
L 155.330627 951.102901 
L 157.300618 947.468518 
L 159.270609 944.505134 
L 161.2406 950.721333 
L 163.210591 955.609858 
L 165.180583 963.322687 
L 167.150574 952.863064 
L 169.120565 947.101201 
L 171.090556 949.371397 
L 173.060547 939.238774 
L 175.030538 937.063225 
L 177.00053 952.367504 
L 178.970521 941.882874 
L 180.940512 946.321855 
L 182.910503 947.169525 
L 184.880494 943.956612 
L 186.850485 956.490986 
L 188.820477 949.689644 
L 190.790468 950.159637 
L 192.760459 947.70464 
L 194.73045 941.077438 
L 196.700441 951.310858 
L 198.670432 956.106792 
L 200.640424 952.147268 
L 202.610415 943.997551 
L 204.580406 951.241451 
L 206.550397 941.323947 
L 208.520388 954.026285 
L 210.49038 952.93981 
L 212.460371 956.698824 
L 214.430362 944.322191 
L 216.400353 951.329747 
L 218.370344 959.918278 
L 220.340335 963.398577 
L 222.310327 961.775494 
L 224.280318 930.388309 
L 226.250309 957.320587 
L 228.2203 956.410828 
L 230.190291 950.87904 
L 232.160282 956.53388 
L 234.130274 953.94697 
L 236.100265 955.875046 
L 238.070256 954.842804 
L 240.040247 957.018819 
L 242.010238 955.688353 
L 243.980229 953.774664 
L 245.950221 952.959354 
L 247.920212 962.229995 
L 249.890203 958.892469 
L 251.860194 962.953871 
L 253.830185 961.72468 
L 255.800177 944.141532 
L 257.770168 955.594218 
L 259.740159 954.79975 
L 261.71015 961.097281 
L 263.680141 955.753161 
L 265.650132 955.58681 
L 267.620124 955.184981 
L 269.590115 956.434326 
L 271.560106 956.560848 
L 273.530097 962.151107 
L 275.500088 950.157335 
L 277.470079 959.744383 
L 281.410062 951.159441 
L 283.380053 956.783945 
L 285.350044 957.175877 
L 287.320035 957.813184 
L 289.290026 958.732909 
L 291.260018 961.782907 
L 293.230009 955.270336 
L 295.2 961.42653 
L 297.169991 958.059152 
L 299.139982 955.201306 
L 301.109974 969.620759 
L 303.079965 966.728383 
L 305.049956 960.953494 
L 307.019947 956.549458 
L 308.989938 965.127716 
L 310.959929 959.0874 
L 312.929921 961.745717 
L 314.899912 966.397584 
L 316.869903 969.655508 
L 318.839894 965.710802 
L 320.809885 966.286999 
L 322.779876 953.133648 
L 324.749868 963.958855 
L 326.719859 945.334707 
L 328.68985 955.906652 
L 330.659841 945.590299 
L 332.629832 958.091084 
L 334.599823 967.085091 
L 336.569815 964.195905 
L 338.539806 970.884132 
L 340.509797 972.165915 
L 342.479788 952.026831 
L 344.449779 961.515954 
L 346.419771 960.002522 
L 348.389762 958.742294 
L 350.359753 955.581614 
L 352.329744 962.833901 
L 354.299735 956.132239 
L 356.269726 964.609484 
L 358.239718 957.850101 
L 360.209709 953.81247 
L 362.1797 954.475447 
L 364.149691 955.298125 
L 366.119682 940.163108 
L 368.089673 955.653983 
L 370.059665 958.888594 
L 372.029656 945.591432 
L 373.999647 960.307902 
L 375.969638 953.475728 
L 377.939629 945.879104 
L 379.90962 941.688489 
L 381.879612 948.07631 
L 383.849603 962.454197 
L 385.819594 958.115875 
L 387.789585 946.544696 
L 389.759576 962.761669 
L 391.729568 950.725983 
L 393.699559 953.781263 
L 395.66955 951.043916 
L 397.639541 942.984762 
L 399.609532 950.449895 
L 401.579523 948.788346 
L 403.549515 961.268709 
L 405.519506 951.945727 
L 407.489497 961.5547 
L 409.459488 941.643202 
L 411.429479 956.074758 
L 413.39947 954.898928 
L 415.369462 956.446217 
L 417.339453 964.085086 
L 419.309444 959.740935 
L 421.279435 962.932795 
L 423.249426 946.445546 
L 425.219417 946.310824 
L 427.189409 958.673657 
L 429.1594 960.120776 
L 431.129391 956.743877 
L 433.099382 957.761219 
L 435.069373 953.007712 
L 437.039365 955.200913 
L 439.009356 946.429421 
L 440.979347 952.11785 
L 442.949338 941.532896 
L 444.919329 957.339322 
L 446.88932 957.25926 
L 448.859312 960.64482 
L 450.829303 956.24871 
L 452.799294 957.995108 
L 454.769285 961.313415 
L 456.739276 944.694903 
L 458.709267 947.118756 
L 460.679259 955.571073 
L 462.64925 955.364603 
L 464.619241 953.606553 
L 466.589232 958.529072 
L 468.559223 961.562916 
L 470.529214 951.568051 
L 472.499206 955.014243 
L 474.469197 957.902038 
L 476.439188 953.242586 
L 478.409179 950.234531 
L 480.37917 955.858117 
L 482.349162 963.887739 
L 484.319153 964.185495 
L 486.289144 956.534695 
L 488.259135 964.198635 
L 490.229126 956.241992 
L 492.199117 957.248947 
L 494.169109 958.669805 
L 496.1391 950.523957 
L 498.109091 965.979431 
L 498.109091 965.979431 
" clip-path="url(#p9655e92aee)" style="fill: none; stroke: #ff7f0e; stroke-width: 1.5; stroke-linecap: square"/>
   </g>
   <g id="patch_9">
    <path d="M 72 1025.28 
L 72 622.08 
" style="fill: none; stroke: #000000; stroke-width: 0.8; stroke-linejoin: miter; stroke-linecap: square"/>
   </g>
   <g id="patch_10">
    <path d="M 518.4 1025.28 
L 518.4 622.08 
" style="fill: none; stroke: #000000; stroke-width: 0.8; stroke-linejoin: miter; stroke-linecap: square"/>
   </g>
   <g id="patch_11">
    <path d="M 72 1025.28 
L 518.4 1025.28 
" style="fill: none; stroke: #000000; stroke-width: 0.8; stroke-linejoin: miter; stroke-linecap: square"/>
   </g>
   <g id="patch_12">
    <path d="M 72 622.08 
L 518.4 622.08 
" style="fill: none; stroke: #000000; stroke-width: 0.8; stroke-linejoin: miter; stroke-linecap: square"/>
   </g>
   <g id="legend_2">
    <g id="patch_13">
     <path d="M 79 659.714375 
L 150.140625 659.714375 
Q 152.140625 659.714375 152.140625 657.714375 
L 152.140625 629.08 
Q 152.140625 627.08 150.140625 627.08 
L 79 627.08 
Q 77 627.08 77 629.08 
L 77 657.714375 
Q 77 659.714375 79 659.714375 
z
" style="fill: #ffffff; opacity: 0.8; stroke: #cccccc; stroke-linejoin: miter"/>
    </g>
    <g id="line2d_35">
     <path d="M 81 635.178437 
L 91 635.178437 
L 101 635.178437 
" style="fill: none; stroke: #1f77b4; stroke-width: 1.5; stroke-linecap: square"/>
    </g>
    <g id="text_33">
     <!-- loss -->
     <g transform="translate(109 638.678437) scale(0.1 -0.1)">
      <defs>
       <path id="DejaVuSans-73" d="M 2834 3397 
L 2834 2853 
Q 2591 2978 2328 3040 
Q 2066 3103 1784 3103 
Q 1356 3103 1142 2972 
Q 928 2841 928 2578 
Q 928 2378 1081 2264 
Q 1234 2150 1697 2047 
L 1894 2003 
Q 2506 1872 2764 1633 
Q 3022 1394 3022 966 
Q 3022 478 2636 193 
Q 2250 -91 1575 -91 
Q 1294 -91 989 -36 
Q 684 19 347 128 
L 347 722 
Q 666 556 975 473 
Q 1284 391 1588 391 
Q 1994 391 2212 530 
Q 2431 669 2431 922 
Q 2431 1156 2273 1281 
Q 2116 1406 1581 1522 
L 1381 1569 
Q 847 1681 609 1914 
Q 372 2147 372 2553 
Q 372 3047 722 3315 
Q 1072 3584 1716 3584 
Q 2034 3584 2315 3537 
Q 2597 3491 2834 3397 
z
" transform="scale(0.015625)"/>
      </defs>
      <use xlink:href="#DejaVuSans-6c"/>
      <use xlink:href="#DejaVuSans-6f" x="27.783203"/>
      <use xlink:href="#DejaVuSans-73" x="88.964844"/>
      <use xlink:href="#DejaVuSans-73" x="141.064453"/>
     </g>
    </g>
    <g id="line2d_36">
     <path d="M 81 649.856562 
L 91 649.856562 
L 101 649.856562 
" style="fill: none; stroke: #ff7f0e; stroke-width: 1.5; stroke-linecap: square"/>
    </g>
    <g id="text_34">
     <!-- val_loss -->
     <g transform="translate(109 653.356562) scale(0.1 -0.1)">
      <use xlink:href="#DejaVuSans-76"/>
      <use xlink:href="#DejaVuSans-61" x="59.179688"/>
      <use xlink:href="#DejaVuSans-6c" x="120.458984"/>
      <use xlink:href="#DejaVuSans-5f" x="148.242188"/>
      <use xlink:href="#DejaVuSans-6c" x="198.242188"/>
      <use xlink:href="#DejaVuSans-6f" x="226.025391"/>
      <use xlink:href="#DejaVuSans-73" x="287.207031"/>
      <use xlink:href="#DejaVuSans-73" x="339.306641"/>
     </g>
    </g>
   </g>
  </g>
 </g>
 <defs>
  <clipPath id="p95e45da5ef">
   <rect x="72" y="138.24" width="446.4" height="403.2"/>
  </clipPath>
  <clipPath id="p9655e92aee">
   <rect x="72" y="622.08" width="446.4" height="403.2"/>
  </clipPath>
 </defs>
</svg>
