<?xml version="1.0" encoding="utf-8" standalone="no"?>
<!DOCTYPE svg PUBLIC "-//W3C//DTD SVG 1.1//EN"
  "http://www.w3.org/Graphics/SVG/1.1/DTD/svg11.dtd">
<svg xmlns:xlink="http://www.w3.org/1999/xlink" width="576pt" height="1152pt" viewBox="0 0 576 1152" xmlns="http://www.w3.org/2000/svg" version="1.1">
 <metadata>
  <rdf:RDF xmlns:dc="http://purl.org/dc/elements/1.1/" xmlns:cc="http://creativecommons.org/ns#" xmlns:rdf="http://www.w3.org/1999/02/22-rdf-syntax-ns#">
   <cc:Work>
    <dc:type rdf:resource="http://purl.org/dc/dcmitype/StillImage"/>
    <dc:date>2023-11-16T12:48:55.321675</dc:date>
    <dc:format>image/svg+xml</dc:format>
    <dc:creator>
     <cc:Agent>
      <dc:title>Matplotlib v3.7.3, https://matplotlib.org/</dc:title>
     </cc:Agent>
    </dc:creator>
   </cc:Work>
  </rdf:RDF>
 </metadata>
 <defs>
  <style type="text/css">*{stroke-linejoin: round; stroke-linecap: butt}</style>
 </defs>
 <g id="figure_1">
  <g id="patch_1">
   <path d="M 0 1152 
L 576 1152 
L 576 0 
L 0 0 
z
" style="fill: #ffffff"/>
  </g>
  <g id="axes_1">
   <g id="patch_2">
    <path d="M 72 541.44 
L 518.4 541.44 
L 518.4 138.24 
L 72 138.24 
z
" style="fill: #ffffff"/>
   </g>
   <g id="matplotlib.axis_1">
    <g id="xtick_1">
     <g id="line2d_1">
      <defs>
       <path id="m07b9dd4f95" d="M 0 0 
L 0 3.5 
" style="stroke: #000000; stroke-width: 0.8"/>
      </defs>
      <g>
       <use xlink:href="#m07b9dd4f95" x="92.290909" y="541.44" style="stroke: #000000; stroke-width: 0.8"/>
      </g>
     </g>
     <g id="text_1">
      <!-- 0 -->
      <g transform="translate(89.109659 556.038437) scale(0.1 -0.1)">
       <defs>
        <path id="DejaVuSans-30" d="M 2034 4250 
Q 1547 4250 1301 3770 
Q 1056 3291 1056 2328 
Q 1056 1369 1301 889 
Q 1547 409 2034 409 
Q 2525 409 2770 889 
Q 3016 1369 3016 2328 
Q 3016 3291 2770 3770 
Q 2525 4250 2034 4250 
z
M 2034 4750 
Q 2819 4750 3233 4129 
Q 3647 3509 3647 2328 
Q 3647 1150 3233 529 
Q 2819 -91 2034 -91 
Q 1250 -91 836 529 
Q 422 1150 422 2328 
Q 422 3509 836 4129 
Q 1250 4750 2034 4750 
z
" transform="scale(0.015625)"/>
       </defs>
       <use xlink:href="#DejaVuSans-30"/>
      </g>
     </g>
    </g>
    <g id="xtick_2">
     <g id="line2d_2">
      <g>
       <use xlink:href="#m07b9dd4f95" x="143.660299" y="541.44" style="stroke: #000000; stroke-width: 0.8"/>
      </g>
     </g>
     <g id="text_2">
      <!-- 20 -->
      <g transform="translate(137.297799 556.038437) scale(0.1 -0.1)">
       <defs>
        <path id="DejaVuSans-32" d="M 1228 531 
L 3431 531 
L 3431 0 
L 469 0 
L 469 531 
Q 828 903 1448 1529 
Q 2069 2156 2228 2338 
Q 2531 2678 2651 2914 
Q 2772 3150 2772 3378 
Q 2772 3750 2511 3984 
Q 2250 4219 1831 4219 
Q 1534 4219 1204 4116 
Q 875 4013 500 3803 
L 500 4441 
Q 881 4594 1212 4672 
Q 1544 4750 1819 4750 
Q 2544 4750 2975 4387 
Q 3406 4025 3406 3419 
Q 3406 3131 3298 2873 
Q 3191 2616 2906 2266 
Q 2828 2175 2409 1742 
Q 1991 1309 1228 531 
z
" transform="scale(0.015625)"/>
       </defs>
       <use xlink:href="#DejaVuSans-32"/>
       <use xlink:href="#DejaVuSans-30" x="63.623047"/>
      </g>
     </g>
    </g>
    <g id="xtick_3">
     <g id="line2d_3">
      <g>
       <use xlink:href="#m07b9dd4f95" x="195.029689" y="541.44" style="stroke: #000000; stroke-width: 0.8"/>
      </g>
     </g>
     <g id="text_3">
      <!-- 40 -->
      <g transform="translate(188.667189 556.038437) scale(0.1 -0.1)">
       <defs>
        <path id="DejaVuSans-34" d="M 2419 4116 
L 825 1625 
L 2419 1625 
L 2419 4116 
z
M 2253 4666 
L 3047 4666 
L 3047 1625 
L 3713 1625 
L 3713 1100 
L 3047 1100 
L 3047 0 
L 2419 0 
L 2419 1100 
L 313 1100 
L 313 1709 
L 2253 4666 
z
" transform="scale(0.015625)"/>
       </defs>
       <use xlink:href="#DejaVuSans-34"/>
       <use xlink:href="#DejaVuSans-30" x="63.623047"/>
      </g>
     </g>
    </g>
    <g id="xtick_4">
     <g id="line2d_4">
      <g>
       <use xlink:href="#m07b9dd4f95" x="246.399079" y="541.44" style="stroke: #000000; stroke-width: 0.8"/>
      </g>
     </g>
     <g id="text_4">
      <!-- 60 -->
      <g transform="translate(240.036579 556.038437) scale(0.1 -0.1)">
       <defs>
        <path id="DejaVuSans-36" d="M 2113 2584 
Q 1688 2584 1439 2293 
Q 1191 2003 1191 1497 
Q 1191 994 1439 701 
Q 1688 409 2113 409 
Q 2538 409 2786 701 
Q 3034 994 3034 1497 
Q 3034 2003 2786 2293 
Q 2538 2584 2113 2584 
z
M 3366 4563 
L 3366 3988 
Q 3128 4100 2886 4159 
Q 2644 4219 2406 4219 
Q 1781 4219 1451 3797 
Q 1122 3375 1075 2522 
Q 1259 2794 1537 2939 
Q 1816 3084 2150 3084 
Q 2853 3084 3261 2657 
Q 3669 2231 3669 1497 
Q 3669 778 3244 343 
Q 2819 -91 2113 -91 
Q 1303 -91 875 529 
Q 447 1150 447 2328 
Q 447 3434 972 4092 
Q 1497 4750 2381 4750 
Q 2619 4750 2861 4703 
Q 3103 4656 3366 4563 
z
" transform="scale(0.015625)"/>
       </defs>
       <use xlink:href="#DejaVuSans-36"/>
       <use xlink:href="#DejaVuSans-30" x="63.623047"/>
      </g>
     </g>
    </g>
    <g id="xtick_5">
     <g id="line2d_5">
      <g>
       <use xlink:href="#m07b9dd4f95" x="297.76847" y="541.44" style="stroke: #000000; stroke-width: 0.8"/>
      </g>
     </g>
     <g id="text_5">
      <!-- 80 -->
      <g transform="translate(291.40597 556.038437) scale(0.1 -0.1)">
       <defs>
        <path id="DejaVuSans-38" d="M 2034 2216 
Q 1584 2216 1326 1975 
Q 1069 1734 1069 1313 
Q 1069 891 1326 650 
Q 1584 409 2034 409 
Q 2484 409 2743 651 
Q 3003 894 3003 1313 
Q 3003 1734 2745 1975 
Q 2488 2216 2034 2216 
z
M 1403 2484 
Q 997 2584 770 2862 
Q 544 3141 544 3541 
Q 544 4100 942 4425 
Q 1341 4750 2034 4750 
Q 2731 4750 3128 4425 
Q 3525 4100 3525 3541 
Q 3525 3141 3298 2862 
Q 3072 2584 2669 2484 
Q 3125 2378 3379 2068 
Q 3634 1759 3634 1313 
Q 3634 634 3220 271 
Q 2806 -91 2034 -91 
Q 1263 -91 848 271 
Q 434 634 434 1313 
Q 434 1759 690 2068 
Q 947 2378 1403 2484 
z
M 1172 3481 
Q 1172 3119 1398 2916 
Q 1625 2713 2034 2713 
Q 2441 2713 2670 2916 
Q 2900 3119 2900 3481 
Q 2900 3844 2670 4047 
Q 2441 4250 2034 4250 
Q 1625 4250 1398 4047 
Q 1172 3844 1172 3481 
z
" transform="scale(0.015625)"/>
       </defs>
       <use xlink:href="#DejaVuSans-38"/>
       <use xlink:href="#DejaVuSans-30" x="63.623047"/>
      </g>
     </g>
    </g>
    <g id="xtick_6">
     <g id="line2d_6">
      <g>
       <use xlink:href="#m07b9dd4f95" x="349.13786" y="541.44" style="stroke: #000000; stroke-width: 0.8"/>
      </g>
     </g>
     <g id="text_6">
      <!-- 100 -->
      <g transform="translate(339.59411 556.038437) scale(0.1 -0.1)">
       <defs>
        <path id="DejaVuSans-31" d="M 794 531 
L 1825 531 
L 1825 4091 
L 703 3866 
L 703 4441 
L 1819 4666 
L 2450 4666 
L 2450 531 
L 3481 531 
L 3481 0 
L 794 0 
L 794 531 
z
" transform="scale(0.015625)"/>
       </defs>
       <use xlink:href="#DejaVuSans-31"/>
       <use xlink:href="#DejaVuSans-30" x="63.623047"/>
       <use xlink:href="#DejaVuSans-30" x="127.246094"/>
      </g>
     </g>
    </g>
    <g id="xtick_7">
     <g id="line2d_7">
      <g>
       <use xlink:href="#m07b9dd4f95" x="400.50725" y="541.44" style="stroke: #000000; stroke-width: 0.8"/>
      </g>
     </g>
     <g id="text_7">
      <!-- 120 -->
      <g transform="translate(390.9635 556.038437) scale(0.1 -0.1)">
       <use xlink:href="#DejaVuSans-31"/>
       <use xlink:href="#DejaVuSans-32" x="63.623047"/>
       <use xlink:href="#DejaVuSans-30" x="127.246094"/>
      </g>
     </g>
    </g>
    <g id="xtick_8">
     <g id="line2d_8">
      <g>
       <use xlink:href="#m07b9dd4f95" x="451.87664" y="541.44" style="stroke: #000000; stroke-width: 0.8"/>
      </g>
     </g>
     <g id="text_8">
      <!-- 140 -->
      <g transform="translate(442.33289 556.038437) scale(0.1 -0.1)">
       <use xlink:href="#DejaVuSans-31"/>
       <use xlink:href="#DejaVuSans-34" x="63.623047"/>
       <use xlink:href="#DejaVuSans-30" x="127.246094"/>
      </g>
     </g>
    </g>
    <g id="xtick_9">
     <g id="line2d_9">
      <g>
       <use xlink:href="#m07b9dd4f95" x="503.24603" y="541.44" style="stroke: #000000; stroke-width: 0.8"/>
      </g>
     </g>
     <g id="text_9">
      <!-- 160 -->
      <g transform="translate(493.70228 556.038437) scale(0.1 -0.1)">
       <use xlink:href="#DejaVuSans-31"/>
       <use xlink:href="#DejaVuSans-36" x="63.623047"/>
       <use xlink:href="#DejaVuSans-30" x="127.246094"/>
      </g>
     </g>
    </g>
    <g id="text_10">
     <!-- Epoch -->
     <g transform="translate(279.889062 569.716563) scale(0.1 -0.1)">
      <defs>
       <path id="DejaVuSans-45" d="M 628 4666 
L 3578 4666 
L 3578 4134 
L 1259 4134 
L 1259 2753 
L 3481 2753 
L 3481 2222 
L 1259 2222 
L 1259 531 
L 3634 531 
L 3634 0 
L 628 0 
L 628 4666 
z
" transform="scale(0.015625)"/>
       <path id="DejaVuSans-70" d="M 1159 525 
L 1159 -1331 
L 581 -1331 
L 581 3500 
L 1159 3500 
L 1159 2969 
Q 1341 3281 1617 3432 
Q 1894 3584 2278 3584 
Q 2916 3584 3314 3078 
Q 3713 2572 3713 1747 
Q 3713 922 3314 415 
Q 2916 -91 2278 -91 
Q 1894 -91 1617 61 
Q 1341 213 1159 525 
z
M 3116 1747 
Q 3116 2381 2855 2742 
Q 2594 3103 2138 3103 
Q 1681 3103 1420 2742 
Q 1159 2381 1159 1747 
Q 1159 1113 1420 752 
Q 1681 391 2138 391 
Q 2594 391 2855 752 
Q 3116 1113 3116 1747 
z
" transform="scale(0.015625)"/>
       <path id="DejaVuSans-6f" d="M 1959 3097 
Q 1497 3097 1228 2736 
Q 959 2375 959 1747 
Q 959 1119 1226 758 
Q 1494 397 1959 397 
Q 2419 397 2687 759 
Q 2956 1122 2956 1747 
Q 2956 2369 2687 2733 
Q 2419 3097 1959 3097 
z
M 1959 3584 
Q 2709 3584 3137 3096 
Q 3566 2609 3566 1747 
Q 3566 888 3137 398 
Q 2709 -91 1959 -91 
Q 1206 -91 779 398 
Q 353 888 353 1747 
Q 353 2609 779 3096 
Q 1206 3584 1959 3584 
z
" transform="scale(0.015625)"/>
       <path id="DejaVuSans-63" d="M 3122 3366 
L 3122 2828 
Q 2878 2963 2633 3030 
Q 2388 3097 2138 3097 
Q 1578 3097 1268 2742 
Q 959 2388 959 1747 
Q 959 1106 1268 751 
Q 1578 397 2138 397 
Q 2388 397 2633 464 
Q 2878 531 3122 666 
L 3122 134 
Q 2881 22 2623 -34 
Q 2366 -91 2075 -91 
Q 1284 -91 818 406 
Q 353 903 353 1747 
Q 353 2603 823 3093 
Q 1294 3584 2113 3584 
Q 2378 3584 2631 3529 
Q 2884 3475 3122 3366 
z
" transform="scale(0.015625)"/>
       <path id="DejaVuSans-68" d="M 3513 2113 
L 3513 0 
L 2938 0 
L 2938 2094 
Q 2938 2591 2744 2837 
Q 2550 3084 2163 3084 
Q 1697 3084 1428 2787 
Q 1159 2491 1159 1978 
L 1159 0 
L 581 0 
L 581 4863 
L 1159 4863 
L 1159 2956 
Q 1366 3272 1645 3428 
Q 1925 3584 2291 3584 
Q 2894 3584 3203 3211 
Q 3513 2838 3513 2113 
z
" transform="scale(0.015625)"/>
      </defs>
      <use xlink:href="#DejaVuSans-45"/>
      <use xlink:href="#DejaVuSans-70" x="63.183594"/>
      <use xlink:href="#DejaVuSans-6f" x="126.660156"/>
      <use xlink:href="#DejaVuSans-63" x="187.841797"/>
      <use xlink:href="#DejaVuSans-68" x="242.822266"/>
     </g>
    </g>
   </g>
   <g id="matplotlib.axis_2">
    <g id="ytick_1">
     <g id="line2d_10">
      <defs>
       <path id="m6fd9083109" d="M 0 0 
L -3.5 0 
" style="stroke: #000000; stroke-width: 0.8"/>
      </defs>
      <g>
       <use xlink:href="#m6fd9083109" x="72" y="512.347497" style="stroke: #000000; stroke-width: 0.8"/>
      </g>
     </g>
     <g id="text_11">
      <!-- 0.2 -->
      <g transform="translate(49.096875 516.146716) scale(0.1 -0.1)">
       <defs>
        <path id="DejaVuSans-2e" d="M 684 794 
L 1344 794 
L 1344 0 
L 684 0 
L 684 794 
z
" transform="scale(0.015625)"/>
       </defs>
       <use xlink:href="#DejaVuSans-30"/>
       <use xlink:href="#DejaVuSans-2e" x="63.623047"/>
       <use xlink:href="#DejaVuSans-32" x="95.410156"/>
      </g>
     </g>
    </g>
    <g id="ytick_2">
     <g id="line2d_11">
      <g>
       <use xlink:href="#m6fd9083109" x="72" y="466.595262" style="stroke: #000000; stroke-width: 0.8"/>
      </g>
     </g>
     <g id="text_12">
      <!-- 0.3 -->
      <g transform="translate(49.096875 470.394481) scale(0.1 -0.1)">
       <defs>
        <path id="DejaVuSans-33" d="M 2597 2516 
Q 3050 2419 3304 2112 
Q 3559 1806 3559 1356 
Q 3559 666 3084 287 
Q 2609 -91 1734 -91 
Q 1441 -91 1130 -33 
Q 819 25 488 141 
L 488 750 
Q 750 597 1062 519 
Q 1375 441 1716 441 
Q 2309 441 2620 675 
Q 2931 909 2931 1356 
Q 2931 1769 2642 2001 
Q 2353 2234 1838 2234 
L 1294 2234 
L 1294 2753 
L 1863 2753 
Q 2328 2753 2575 2939 
Q 2822 3125 2822 3475 
Q 2822 3834 2567 4026 
Q 2313 4219 1838 4219 
Q 1578 4219 1281 4162 
Q 984 4106 628 3988 
L 628 4550 
Q 988 4650 1302 4700 
Q 1616 4750 1894 4750 
Q 2613 4750 3031 4423 
Q 3450 4097 3450 3541 
Q 3450 3153 3228 2886 
Q 3006 2619 2597 2516 
z
" transform="scale(0.015625)"/>
       </defs>
       <use xlink:href="#DejaVuSans-30"/>
       <use xlink:href="#DejaVuSans-2e" x="63.623047"/>
       <use xlink:href="#DejaVuSans-33" x="95.410156"/>
      </g>
     </g>
    </g>
    <g id="ytick_3">
     <g id="line2d_12">
      <g>
       <use xlink:href="#m6fd9083109" x="72" y="420.843027" style="stroke: #000000; stroke-width: 0.8"/>
      </g>
     </g>
     <g id="text_13">
      <!-- 0.4 -->
      <g transform="translate(49.096875 424.642246) scale(0.1 -0.1)">
       <use xlink:href="#DejaVuSans-30"/>
       <use xlink:href="#DejaVuSans-2e" x="63.623047"/>
       <use xlink:href="#DejaVuSans-34" x="95.410156"/>
      </g>
     </g>
    </g>
    <g id="ytick_4">
     <g id="line2d_13">
      <g>
       <use xlink:href="#m6fd9083109" x="72" y="375.090792" style="stroke: #000000; stroke-width: 0.8"/>
      </g>
     </g>
     <g id="text_14">
      <!-- 0.5 -->
      <g transform="translate(49.096875 378.890011) scale(0.1 -0.1)">
       <defs>
        <path id="DejaVuSans-35" d="M 691 4666 
L 3169 4666 
L 3169 4134 
L 1269 4134 
L 1269 2991 
Q 1406 3038 1543 3061 
Q 1681 3084 1819 3084 
Q 2600 3084 3056 2656 
Q 3513 2228 3513 1497 
Q 3513 744 3044 326 
Q 2575 -91 1722 -91 
Q 1428 -91 1123 -41 
Q 819 9 494 109 
L 494 744 
Q 775 591 1075 516 
Q 1375 441 1709 441 
Q 2250 441 2565 725 
Q 2881 1009 2881 1497 
Q 2881 1984 2565 2268 
Q 2250 2553 1709 2553 
Q 1456 2553 1204 2497 
Q 953 2441 691 2322 
L 691 4666 
z
" transform="scale(0.015625)"/>
       </defs>
       <use xlink:href="#DejaVuSans-30"/>
       <use xlink:href="#DejaVuSans-2e" x="63.623047"/>
       <use xlink:href="#DejaVuSans-35" x="95.410156"/>
      </g>
     </g>
    </g>
    <g id="ytick_5">
     <g id="line2d_14">
      <g>
       <use xlink:href="#m6fd9083109" x="72" y="329.338557" style="stroke: #000000; stroke-width: 0.8"/>
      </g>
     </g>
     <g id="text_15">
      <!-- 0.6 -->
      <g transform="translate(49.096875 333.137775) scale(0.1 -0.1)">
       <use xlink:href="#DejaVuSans-30"/>
       <use xlink:href="#DejaVuSans-2e" x="63.623047"/>
       <use xlink:href="#DejaVuSans-36" x="95.410156"/>
      </g>
     </g>
    </g>
    <g id="ytick_6">
     <g id="line2d_15">
      <g>
       <use xlink:href="#m6fd9083109" x="72" y="283.586321" style="stroke: #000000; stroke-width: 0.8"/>
      </g>
     </g>
     <g id="text_16">
      <!-- 0.7 -->
      <g transform="translate(49.096875 287.38554) scale(0.1 -0.1)">
       <defs>
        <path id="DejaVuSans-37" d="M 525 4666 
L 3525 4666 
L 3525 4397 
L 1831 0 
L 1172 0 
L 2766 4134 
L 525 4134 
L 525 4666 
z
" transform="scale(0.015625)"/>
       </defs>
       <use xlink:href="#DejaVuSans-30"/>
       <use xlink:href="#DejaVuSans-2e" x="63.623047"/>
       <use xlink:href="#DejaVuSans-37" x="95.410156"/>
      </g>
     </g>
    </g>
    <g id="ytick_7">
     <g id="line2d_16">
      <g>
       <use xlink:href="#m6fd9083109" x="72" y="237.834086" style="stroke: #000000; stroke-width: 0.8"/>
      </g>
     </g>
     <g id="text_17">
      <!-- 0.8 -->
      <g transform="translate(49.096875 241.633305) scale(0.1 -0.1)">
       <use xlink:href="#DejaVuSans-30"/>
       <use xlink:href="#DejaVuSans-2e" x="63.623047"/>
       <use xlink:href="#DejaVuSans-38" x="95.410156"/>
      </g>
     </g>
    </g>
    <g id="ytick_8">
     <g id="line2d_17">
      <g>
       <use xlink:href="#m6fd9083109" x="72" y="192.081851" style="stroke: #000000; stroke-width: 0.8"/>
      </g>
     </g>
     <g id="text_18">
      <!-- 0.9 -->
      <g transform="translate(49.096875 195.88107) scale(0.1 -0.1)">
       <defs>
        <path id="DejaVuSans-39" d="M 703 97 
L 703 672 
Q 941 559 1184 500 
Q 1428 441 1663 441 
Q 2288 441 2617 861 
Q 2947 1281 2994 2138 
Q 2813 1869 2534 1725 
Q 2256 1581 1919 1581 
Q 1219 1581 811 2004 
Q 403 2428 403 3163 
Q 403 3881 828 4315 
Q 1253 4750 1959 4750 
Q 2769 4750 3195 4129 
Q 3622 3509 3622 2328 
Q 3622 1225 3098 567 
Q 2575 -91 1691 -91 
Q 1453 -91 1209 -44 
Q 966 3 703 97 
z
M 1959 2075 
Q 2384 2075 2632 2365 
Q 2881 2656 2881 3163 
Q 2881 3666 2632 3958 
Q 2384 4250 1959 4250 
Q 1534 4250 1286 3958 
Q 1038 3666 1038 3163 
Q 1038 2656 1286 2365 
Q 1534 2075 1959 2075 
z
" transform="scale(0.015625)"/>
       </defs>
       <use xlink:href="#DejaVuSans-30"/>
       <use xlink:href="#DejaVuSans-2e" x="63.623047"/>
       <use xlink:href="#DejaVuSans-39" x="95.410156"/>
      </g>
     </g>
    </g>
    <g id="ytick_9">
     <g id="line2d_18">
      <g>
       <use xlink:href="#m6fd9083109" x="72" y="146.329616" style="stroke: #000000; stroke-width: 0.8"/>
      </g>
     </g>
     <g id="text_19">
      <!-- 1.0 -->
      <g transform="translate(49.096875 150.128835) scale(0.1 -0.1)">
       <use xlink:href="#DejaVuSans-31"/>
       <use xlink:href="#DejaVuSans-2e" x="63.623047"/>
       <use xlink:href="#DejaVuSans-30" x="95.410156"/>
      </g>
     </g>
    </g>
   </g>
   <g id="line2d_19">
    <path d="M 92.290909 322.2443 
L 94.859379 245.96654 
L 97.427848 226.500561 
L 99.996318 216.551289 
L 102.564787 215.541955 
L 105.133257 209.485868 
L 107.701726 207.467172 
L 110.270196 207.322993 
L 112.838665 202.564626 
L 115.407135 199.96916 
L 117.975604 195.066641 
L 123.112543 189.298939 
L 125.681013 190.019888 
L 128.249482 188.00122 
L 130.817952 189.443118 
L 133.386421 189.731503 
L 135.954891 184.540599 
L 138.52336 186.415088 
L 141.09183 182.954467 
L 143.660299 179.205461 
L 146.228769 181.656748 
L 148.797238 181.368363 
L 151.365708 179.782231 
L 153.934177 177.619357 
L 156.502647 181.656748 
L 159.071116 178.628691 
L 161.639586 181.079978 
L 164.208055 177.042587 
L 166.776525 175.889046 
L 169.344994 179.926437 
L 171.913464 174.879712 
L 174.481933 175.312276 
L 177.050403 174.302942 
L 179.618872 177.907742 
L 182.187342 176.754201 
L 184.755811 172.71681 
L 187.324281 169.977166 
L 189.89275 176.465816 
L 192.46122 176.898408 
L 195.029689 170.842321 
L 197.598159 169.68878 
L 200.166628 173.005195 
L 202.735098 175.168097 
L 205.303567 173.581966 
L 207.872037 172.428425 
L 210.440506 174.447121 
L 213.008976 174.158736 
L 215.577445 169.256189 
L 218.145915 169.544574 
L 220.714384 169.400395 
L 223.282854 172.14004 
L 225.851323 168.823625 
L 228.419793 170.842321 
L 230.988262 167.093315 
L 233.556732 170.265551 
L 236.125201 169.68878 
L 238.693671 174.014557 
L 241.26214 169.400395 
L 243.83061 166.228159 
L 246.399079 167.95847 
L 248.967549 167.670085 
L 251.536018 166.083981 
L 254.104488 171.274885 
L 256.672957 166.228159 
L 259.241427 166.228159 
L 261.809896 168.823625 
L 264.378366 166.228159 
L 266.946835 172.14004 
L 269.515305 165.939774 
L 272.083774 168.391034 
L 274.652244 166.228159 
L 277.220713 167.237521 
L 279.789183 168.823625 
L 282.357652 167.525906 
L 284.926122 166.80493 
L 287.494591 173.149402 
L 290.063061 165.50721 
L 292.63153 164.642055 
L 295.2 164.209464 
L 297.76847 165.50721 
L 300.336939 166.228159 
L 302.905409 170.9865 
L 305.473878 166.949136 
L 308.042348 166.083981 
L 310.610817 164.35367 
L 313.179287 163.344309 
L 315.747756 169.11201 
L 318.316226 165.074619 
L 320.884695 173.870351 
L 323.453165 163.488515 
L 326.021634 164.209464 
L 328.590104 164.209464 
L 331.158573 175.889046 
L 333.727043 162.767538 
L 336.295512 163.488515 
L 338.863982 163.488515 
L 341.432451 161.613998 
L 344.000921 162.62336 
L 346.56939 164.065285 
L 349.13786 160.604664 
L 351.706329 161.181434 
L 354.274799 160.460458 
L 356.843268 163.921079 
L 359.411738 162.767538 
L 361.980207 160.027894 
L 364.548677 166.660751 
L 367.117146 164.065285 
L 369.685616 162.767538 
L 372.254085 163.921079 
L 374.822555 161.469819 
L 377.391024 162.62336 
L 379.959494 161.469819 
L 382.527963 163.055924 
L 385.096433 161.902383 
L 387.664902 159.739509 
L 390.233372 159.739509 
L 392.801841 160.460458 
L 395.370311 162.334974 
L 397.93878 161.325613 
L 400.50725 160.604664 
L 403.075719 163.488515 
L 405.644189 164.35367 
L 408.212658 166.372366 
L 410.781128 163.20013 
L 413.349597 164.065285 
L 415.918067 160.893049 
L 418.486536 160.748843 
L 421.055006 162.767538 
L 423.623475 163.20013 
L 426.191945 159.306917 
L 428.760414 158.441762 
L 431.328884 161.181434 
L 433.897353 157.864992 
L 436.465823 159.883688 
L 439.034292 161.758204 
L 441.602762 165.363004 
L 444.171231 159.306917 
L 446.739701 160.172073 
L 449.30817 163.20013 
L 451.87664 161.037228 
L 454.445109 158.153377 
L 457.013579 159.018532 
L 459.582048 159.451124 
L 462.150518 157.864992 
L 464.718987 161.325613 
L 467.287457 160.316279 
L 469.855926 168.53524 
L 472.424396 159.451124 
L 474.992865 158.441762 
L 480.129804 160.460458 
L 482.698274 159.162738 
L 485.266743 158.009198 
L 487.835213 160.172073 
L 490.403682 158.874353 
L 492.972152 158.585968 
L 495.540621 158.874353 
L 498.109091 156.567273 
L 498.109091 156.567273 
" clip-path="url(#pa44bba3e98)" style="fill: none; stroke: #1f77b4; stroke-width: 1.5; stroke-linecap: square"/>
   </g>
   <g id="line2d_20">
    <path d="M 92.290909 523.112727 
L 94.859379 483.640206 
L 97.427848 365.22265 
L 99.996318 280.895005 
L 102.564787 241.422491 
L 105.133257 223.480439 
L 107.701726 218.097824 
L 110.270196 207.332592 
L 112.838665 201.949977 
L 115.407135 198.361566 
L 117.975604 205.538387 
L 120.544074 216.303618 
L 123.112543 205.538387 
L 125.681013 210.921003 
L 128.249482 205.538387 
L 130.817952 201.949977 
L 133.386421 203.744182 
L 135.954891 207.332592 
L 138.52336 209.126798 
L 141.09183 196.567361 
L 143.660299 203.744182 
L 146.228769 191.184746 
L 148.797238 196.567361 
L 151.365708 203.744182 
L 153.934177 205.538387 
L 156.502647 194.773156 
L 159.071116 203.744182 
L 161.639586 200.155772 
L 164.208055 191.184746 
L 166.776525 201.949977 
L 169.344994 203.744182 
L 174.481933 203.744182 
L 177.050403 198.361566 
L 179.618872 207.332592 
L 182.187342 205.538387 
L 184.755811 196.567361 
L 187.324281 198.361566 
L 189.89275 201.949977 
L 192.46122 192.978951 
L 195.029689 196.567361 
L 197.598159 205.538387 
L 200.166628 200.155772 
L 202.735098 200.155772 
L 205.303567 205.538387 
L 207.872037 191.184746 
L 210.440506 198.361566 
L 215.577445 194.773156 
L 218.145915 189.390541 
L 220.714384 201.949977 
L 225.851323 198.361566 
L 228.419793 205.538387 
L 230.988262 198.361566 
L 233.556732 201.949977 
L 236.125201 192.978951 
L 238.693671 182.21372 
L 241.26214 192.978951 
L 246.399079 185.80213 
L 248.967549 191.184746 
L 251.536018 194.773156 
L 254.104488 196.567361 
L 256.672957 200.155772 
L 259.241427 200.155772 
L 261.809896 207.332592 
L 264.378366 185.80213 
L 266.946835 185.80213 
L 272.083774 192.978951 
L 277.220713 189.390541 
L 279.789183 191.184746 
L 282.357652 189.390541 
L 284.926122 191.184746 
L 287.494591 185.80213 
L 290.063061 191.184746 
L 292.63153 182.21372 
L 295.2 191.184746 
L 297.76847 187.596335 
L 300.336939 192.978951 
L 302.905409 192.978951 
L 305.473878 194.773156 
L 308.042348 192.978951 
L 310.610817 184.007925 
L 313.179287 184.007925 
L 315.747756 200.155772 
L 318.316226 200.155772 
L 320.884695 187.596335 
L 323.453165 189.390541 
L 326.021634 200.155772 
L 328.590104 191.184746 
L 331.158573 180.419515 
L 333.727043 187.596335 
L 336.295512 187.596335 
L 338.863982 191.184746 
L 341.432451 192.978951 
L 344.000921 178.625309 
L 349.13786 185.80213 
L 351.706329 191.184746 
L 354.274799 185.80213 
L 356.843268 185.80213 
L 359.411738 196.567361 
L 361.980207 189.390541 
L 367.117146 185.80213 
L 369.685616 189.390541 
L 374.822555 182.21372 
L 377.391024 187.596335 
L 382.527963 191.184746 
L 387.664902 184.007925 
L 390.233372 184.007925 
L 395.370311 194.773156 
L 397.93878 192.978951 
L 400.50725 192.978951 
L 403.075719 198.361566 
L 405.644189 187.596335 
L 408.212658 201.949977 
L 410.781128 180.419515 
L 413.349597 196.567361 
L 415.918067 187.596335 
L 418.486536 194.773156 
L 421.055006 184.007925 
L 423.623475 189.390541 
L 426.191945 182.21372 
L 428.760414 184.007925 
L 431.328884 178.625309 
L 433.897353 187.596335 
L 436.465823 191.184746 
L 439.034292 182.21372 
L 441.602762 180.419515 
L 444.171231 187.596335 
L 446.739701 184.007925 
L 449.30817 185.80213 
L 451.87664 182.21372 
L 454.445109 182.21372 
L 457.013579 184.007925 
L 459.582048 187.596335 
L 462.150518 176.831104 
L 464.718987 189.390541 
L 467.287457 187.596335 
L 472.424396 187.596335 
L 477.561335 191.184746 
L 480.129804 185.80213 
L 482.698274 189.390541 
L 485.266743 180.419515 
L 487.835213 184.007925 
L 490.403682 185.80213 
L 492.972152 189.390541 
L 495.540621 184.007925 
L 498.109091 185.80213 
L 498.109091 185.80213 
" clip-path="url(#pa44bba3e98)" style="fill: none; stroke: #ff7f0e; stroke-width: 1.5; stroke-linecap: square"/>
   </g>
   <g id="patch_3">
    <path d="M 72 541.44 
L 72 138.24 
" style="fill: none; stroke: #000000; stroke-width: 0.8; stroke-linejoin: miter; stroke-linecap: square"/>
   </g>
   <g id="patch_4">
    <path d="M 518.4 541.44 
L 518.4 138.24 
" style="fill: none; stroke: #000000; stroke-width: 0.8; stroke-linejoin: miter; stroke-linecap: square"/>
   </g>
   <g id="patch_5">
    <path d="M 72 541.44 
L 518.4 541.44 
" style="fill: none; stroke: #000000; stroke-width: 0.8; stroke-linejoin: miter; stroke-linecap: square"/>
   </g>
   <g id="patch_6">
    <path d="M 72 138.24 
L 518.4 138.24 
" style="fill: none; stroke: #000000; stroke-width: 0.8; stroke-linejoin: miter; stroke-linecap: square"/>
   </g>
   <g id="legend_1">
    <g id="patch_7">
     <path d="M 79 175.874375 
L 175.94375 175.874375 
Q 177.94375 175.874375 177.94375 173.874375 
L 177.94375 145.24 
Q 177.94375 143.24 175.94375 143.24 
L 79 143.24 
Q 77 143.24 77 145.24 
L 77 173.874375 
Q 77 175.874375 79 175.874375 
z
" style="fill: #ffffff; opacity: 0.8; stroke: #cccccc; stroke-linejoin: miter"/>
    </g>
    <g id="line2d_21">
     <path d="M 81 151.338437 
L 91 151.338437 
L 101 151.338437 
" style="fill: none; stroke: #1f77b4; stroke-width: 1.5; stroke-linecap: square"/>
    </g>
    <g id="text_20">
     <!-- accuracy -->
     <g transform="translate(109 154.838437) scale(0.1 -0.1)">
      <defs>
       <path id="DejaVuSans-61" d="M 2194 1759 
Q 1497 1759 1228 1600 
Q 959 1441 959 1056 
Q 959 750 1161 570 
Q 1363 391 1709 391 
Q 2188 391 2477 730 
Q 2766 1069 2766 1631 
L 2766 1759 
L 2194 1759 
z
M 3341 1997 
L 3341 0 
L 2766 0 
L 2766 531 
Q 2569 213 2275 61 
Q 1981 -91 1556 -91 
Q 1019 -91 701 211 
Q 384 513 384 1019 
Q 384 1609 779 1909 
Q 1175 2209 1959 2209 
L 2766 2209 
L 2766 2266 
Q 2766 2663 2505 2880 
Q 2244 3097 1772 3097 
Q 1472 3097 1187 3025 
Q 903 2953 641 2809 
L 641 3341 
Q 956 3463 1253 3523 
Q 1550 3584 1831 3584 
Q 2591 3584 2966 3190 
Q 3341 2797 3341 1997 
z
" transform="scale(0.015625)"/>
       <path id="DejaVuSans-75" d="M 544 1381 
L 544 3500 
L 1119 3500 
L 1119 1403 
Q 1119 906 1312 657 
Q 1506 409 1894 409 
Q 2359 409 2629 706 
Q 2900 1003 2900 1516 
L 2900 3500 
L 3475 3500 
L 3475 0 
L 2900 0 
L 2900 538 
Q 2691 219 2414 64 
Q 2138 -91 1772 -91 
Q 1169 -91 856 284 
Q 544 659 544 1381 
z
M 1991 3584 
L 1991 3584 
z
" transform="scale(0.015625)"/>
       <path id="DejaVuSans-72" d="M 2631 2963 
Q 2534 3019 2420 3045 
Q 2306 3072 2169 3072 
Q 1681 3072 1420 2755 
Q 1159 2438 1159 1844 
L 1159 0 
L 581 0 
L 581 3500 
L 1159 3500 
L 1159 2956 
Q 1341 3275 1631 3429 
Q 1922 3584 2338 3584 
Q 2397 3584 2469 3576 
Q 2541 3569 2628 3553 
L 2631 2963 
z
" transform="scale(0.015625)"/>
       <path id="DejaVuSans-79" d="M 2059 -325 
Q 1816 -950 1584 -1140 
Q 1353 -1331 966 -1331 
L 506 -1331 
L 506 -850 
L 844 -850 
Q 1081 -850 1212 -737 
Q 1344 -625 1503 -206 
L 1606 56 
L 191 3500 
L 800 3500 
L 1894 763 
L 2988 3500 
L 3597 3500 
L 2059 -325 
z
" transform="scale(0.015625)"/>
      </defs>
      <use xlink:href="#DejaVuSans-61"/>
      <use xlink:href="#DejaVuSans-63" x="61.279297"/>
      <use xlink:href="#DejaVuSans-63" x="116.259766"/>
      <use xlink:href="#DejaVuSans-75" x="171.240234"/>
      <use xlink:href="#DejaVuSans-72" x="234.619141"/>
      <use xlink:href="#DejaVuSans-61" x="275.732422"/>
      <use xlink:href="#DejaVuSans-63" x="337.011719"/>
      <use xlink:href="#DejaVuSans-79" x="391.992188"/>
     </g>
    </g>
    <g id="line2d_22">
     <path d="M 81 166.016562 
L 91 166.016562 
L 101 166.016562 
" style="fill: none; stroke: #ff7f0e; stroke-width: 1.5; stroke-linecap: square"/>
    </g>
    <g id="text_21">
     <!-- val_accuracy -->
     <g transform="translate(109 169.516562) scale(0.1 -0.1)">
      <defs>
       <path id="DejaVuSans-76" d="M 191 3500 
L 800 3500 
L 1894 563 
L 2988 3500 
L 3597 3500 
L 2284 0 
L 1503 0 
L 191 3500 
z
" transform="scale(0.015625)"/>
       <path id="DejaVuSans-6c" d="M 603 4863 
L 1178 4863 
L 1178 0 
L 603 0 
L 603 4863 
z
" transform="scale(0.015625)"/>
       <path id="DejaVuSans-5f" d="M 3263 -1063 
L 3263 -1509 
L -63 -1509 
L -63 -1063 
L 3263 -1063 
z
" transform="scale(0.015625)"/>
      </defs>
      <use xlink:href="#DejaVuSans-76"/>
      <use xlink:href="#DejaVuSans-61" x="59.179688"/>
      <use xlink:href="#DejaVuSans-6c" x="120.458984"/>
      <use xlink:href="#DejaVuSans-5f" x="148.242188"/>
      <use xlink:href="#DejaVuSans-61" x="198.242188"/>
      <use xlink:href="#DejaVuSans-63" x="259.521484"/>
      <use xlink:href="#DejaVuSans-63" x="314.501953"/>
      <use xlink:href="#DejaVuSans-75" x="369.482422"/>
      <use xlink:href="#DejaVuSans-72" x="432.861328"/>
      <use xlink:href="#DejaVuSans-61" x="473.974609"/>
      <use xlink:href="#DejaVuSans-63" x="535.253906"/>
      <use xlink:href="#DejaVuSans-79" x="590.234375"/>
     </g>
    </g>
   </g>
  </g>
  <g id="axes_2">
   <g id="patch_8">
    <path d="M 72 1025.28 
L 518.4 1025.28 
L 518.4 622.08 
L 72 622.08 
z
" style="fill: #ffffff"/>
   </g>
   <g id="matplotlib.axis_3">
    <g id="xtick_10">
     <g id="line2d_23">
      <g>
       <use xlink:href="#m07b9dd4f95" x="92.290909" y="1025.28" style="stroke: #000000; stroke-width: 0.8"/>
      </g>
     </g>
     <g id="text_22">
      <!-- 0 -->
      <g transform="translate(89.109659 1039.878438) scale(0.1 -0.1)">
       <use xlink:href="#DejaVuSans-30"/>
      </g>
     </g>
    </g>
    <g id="xtick_11">
     <g id="line2d_24">
      <g>
       <use xlink:href="#m07b9dd4f95" x="143.660299" y="1025.28" style="stroke: #000000; stroke-width: 0.8"/>
      </g>
     </g>
     <g id="text_23">
      <!-- 20 -->
      <g transform="translate(137.297799 1039.878438) scale(0.1 -0.1)">
       <use xlink:href="#DejaVuSans-32"/>
       <use xlink:href="#DejaVuSans-30" x="63.623047"/>
      </g>
     </g>
    </g>
    <g id="xtick_12">
     <g id="line2d_25">
      <g>
       <use xlink:href="#m07b9dd4f95" x="195.029689" y="1025.28" style="stroke: #000000; stroke-width: 0.8"/>
      </g>
     </g>
     <g id="text_24">
      <!-- 40 -->
      <g transform="translate(188.667189 1039.878438) scale(0.1 -0.1)">
       <use xlink:href="#DejaVuSans-34"/>
       <use xlink:href="#DejaVuSans-30" x="63.623047"/>
      </g>
     </g>
    </g>
    <g id="xtick_13">
     <g id="line2d_26">
      <g>
       <use xlink:href="#m07b9dd4f95" x="246.399079" y="1025.28" style="stroke: #000000; stroke-width: 0.8"/>
      </g>
     </g>
     <g id="text_25">
      <!-- 60 -->
      <g transform="translate(240.036579 1039.878438) scale(0.1 -0.1)">
       <use xlink:href="#DejaVuSans-36"/>
       <use xlink:href="#DejaVuSans-30" x="63.623047"/>
      </g>
     </g>
    </g>
    <g id="xtick_14">
     <g id="line2d_27">
      <g>
       <use xlink:href="#m07b9dd4f95" x="297.76847" y="1025.28" style="stroke: #000000; stroke-width: 0.8"/>
      </g>
     </g>
     <g id="text_26">
      <!-- 80 -->
      <g transform="translate(291.40597 1039.878438) scale(0.1 -0.1)">
       <use xlink:href="#DejaVuSans-38"/>
       <use xlink:href="#DejaVuSans-30" x="63.623047"/>
      </g>
     </g>
    </g>
    <g id="xtick_15">
     <g id="line2d_28">
      <g>
       <use xlink:href="#m07b9dd4f95" x="349.13786" y="1025.28" style="stroke: #000000; stroke-width: 0.8"/>
      </g>
     </g>
     <g id="text_27">
      <!-- 100 -->
      <g transform="translate(339.59411 1039.878438) scale(0.1 -0.1)">
       <use xlink:href="#DejaVuSans-31"/>
       <use xlink:href="#DejaVuSans-30" x="63.623047"/>
       <use xlink:href="#DejaVuSans-30" x="127.246094"/>
      </g>
     </g>
    </g>
    <g id="xtick_16">
     <g id="line2d_29">
      <g>
       <use xlink:href="#m07b9dd4f95" x="400.50725" y="1025.28" style="stroke: #000000; stroke-width: 0.8"/>
      </g>
     </g>
     <g id="text_28">
      <!-- 120 -->
      <g transform="translate(390.9635 1039.878438) scale(0.1 -0.1)">
       <use xlink:href="#DejaVuSans-31"/>
       <use xlink:href="#DejaVuSans-32" x="63.623047"/>
       <use xlink:href="#DejaVuSans-30" x="127.246094"/>
      </g>
     </g>
    </g>
    <g id="xtick_17">
     <g id="line2d_30">
      <g>
       <use xlink:href="#m07b9dd4f95" x="451.87664" y="1025.28" style="stroke: #000000; stroke-width: 0.8"/>
      </g>
     </g>
     <g id="text_29">
      <!-- 140 -->
      <g transform="translate(442.33289 1039.878438) scale(0.1 -0.1)">
       <use xlink:href="#DejaVuSans-31"/>
       <use xlink:href="#DejaVuSans-34" x="63.623047"/>
       <use xlink:href="#DejaVuSans-30" x="127.246094"/>
      </g>
     </g>
    </g>
    <g id="xtick_18">
     <g id="line2d_31">
      <g>
       <use xlink:href="#m07b9dd4f95" x="503.24603" y="1025.28" style="stroke: #000000; stroke-width: 0.8"/>
      </g>
     </g>
     <g id="text_30">
      <!-- 160 -->
      <g transform="translate(493.70228 1039.878438) scale(0.1 -0.1)">
       <use xlink:href="#DejaVuSans-31"/>
       <use xlink:href="#DejaVuSans-36" x="63.623047"/>
       <use xlink:href="#DejaVuSans-30" x="127.246094"/>
      </g>
     </g>
    </g>
    <g id="text_31">
     <!-- Epoch -->
     <g transform="translate(279.889062 1053.556562) scale(0.1 -0.1)">
      <use xlink:href="#DejaVuSans-45"/>
      <use xlink:href="#DejaVuSans-70" x="63.183594"/>
      <use xlink:href="#DejaVuSans-6f" x="126.660156"/>
      <use xlink:href="#DejaVuSans-63" x="187.841797"/>
      <use xlink:href="#DejaVuSans-68" x="242.822266"/>
     </g>
    </g>
   </g>
   <g id="matplotlib.axis_4">
    <g id="ytick_10">
     <g id="line2d_32">
      <g>
       <use xlink:href="#m6fd9083109" x="72" y="1017.699098" style="stroke: #000000; stroke-width: 0.8"/>
      </g>
     </g>
     <g id="text_32">
      <!-- 0.0 -->
      <g transform="translate(49.096875 1021.498317) scale(0.1 -0.1)">
       <use xlink:href="#DejaVuSans-30"/>
       <use xlink:href="#DejaVuSans-2e" x="63.623047"/>
       <use xlink:href="#DejaVuSans-30" x="95.410156"/>
      </g>
     </g>
    </g>
    <g id="ytick_11">
     <g id="line2d_33">
      <g>
       <use xlink:href="#m6fd9083109" x="72" y="935.295935" style="stroke: #000000; stroke-width: 0.8"/>
      </g>
     </g>
     <g id="text_33">
      <!-- 0.5 -->
      <g transform="translate(49.096875 939.095154) scale(0.1 -0.1)">
       <use xlink:href="#DejaVuSans-30"/>
       <use xlink:href="#DejaVuSans-2e" x="63.623047"/>
       <use xlink:href="#DejaVuSans-35" x="95.410156"/>
      </g>
     </g>
    </g>
    <g id="ytick_12">
     <g id="line2d_34">
      <g>
       <use xlink:href="#m6fd9083109" x="72" y="852.892771" style="stroke: #000000; stroke-width: 0.8"/>
      </g>
     </g>
     <g id="text_34">
      <!-- 1.0 -->
      <g transform="translate(49.096875 856.69199) scale(0.1 -0.1)">
       <use xlink:href="#DejaVuSans-31"/>
       <use xlink:href="#DejaVuSans-2e" x="63.623047"/>
       <use xlink:href="#DejaVuSans-30" x="95.410156"/>
      </g>
     </g>
    </g>
    <g id="ytick_13">
     <g id="line2d_35">
      <g>
       <use xlink:href="#m6fd9083109" x="72" y="770.489608" style="stroke: #000000; stroke-width: 0.8"/>
      </g>
     </g>
     <g id="text_35">
      <!-- 1.5 -->
      <g transform="translate(49.096875 774.288827) scale(0.1 -0.1)">
       <use xlink:href="#DejaVuSans-31"/>
       <use xlink:href="#DejaVuSans-2e" x="63.623047"/>
       <use xlink:href="#DejaVuSans-35" x="95.410156"/>
      </g>
     </g>
    </g>
    <g id="ytick_14">
     <g id="line2d_36">
      <g>
       <use xlink:href="#m6fd9083109" x="72" y="688.086445" style="stroke: #000000; stroke-width: 0.8"/>
      </g>
     </g>
     <g id="text_36">
      <!-- 2.0 -->
      <g transform="translate(49.096875 691.885663) scale(0.1 -0.1)">
       <use xlink:href="#DejaVuSans-32"/>
       <use xlink:href="#DejaVuSans-2e" x="63.623047"/>
       <use xlink:href="#DejaVuSans-30" x="95.410156"/>
      </g>
     </g>
    </g>
   </g>
   <g id="line2d_37">
    <path d="M 92.290909 858.32519 
L 94.859379 926.798533 
L 97.427848 941.426971 
L 99.996318 949.700816 
L 102.564787 952.81548 
L 105.133257 957.27541 
L 107.701726 959.718534 
L 110.270196 960.988539 
L 112.838665 965.141906 
L 115.407135 968.942987 
L 117.975604 970.396686 
L 120.544074 973.037286 
L 123.112543 975.114367 
L 125.681013 975.271593 
L 128.249482 978.551795 
L 130.817952 975.542527 
L 133.386421 976.927749 
L 135.954891 980.926614 
L 138.52336 979.683438 
L 141.09183 981.499045 
L 143.660299 984.250527 
L 146.228769 983.539895 
L 148.797238 983.405347 
L 151.365708 985.821415 
L 153.934177 986.9689 
L 156.502647 982.501082 
L 159.071116 984.826399 
L 161.639586 983.751107 
L 164.208055 986.679829 
L 166.776525 988.685363 
L 169.344994 986.045792 
L 171.913464 988.675029 
L 174.481933 989.835687 
L 177.050403 991.559866 
L 179.618872 987.562665 
L 182.187342 988.74138 
L 184.755811 990.811067 
L 187.324281 993.258702 
L 189.89275 990.035518 
L 192.46122 990.514359 
L 195.029689 991.845462 
L 197.598159 994.40753 
L 200.166628 994.109764 
L 202.735098 989.321377 
L 205.303567 991.818283 
L 207.872037 992.335088 
L 210.440506 988.691667 
L 213.008976 993.322553 
L 215.577445 994.659258 
L 218.145915 994.912184 
L 220.714384 995.296434 
L 223.282854 994.509655 
L 225.851323 995.73742 
L 228.419793 996.718465 
L 230.988262 997.246017 
L 233.556732 993.810217 
L 236.125201 996.35579 
L 238.693671 991.560301 
L 243.83061 1000.468422 
L 246.399079 997.072598 
L 248.967549 999.03319 
L 251.536018 999.300425 
L 254.104488 995.595396 
L 256.672957 998.845784 
L 259.241427 999.829282 
L 261.809896 996.071771 
L 264.378366 999.285957 
L 266.946835 993.49427 
L 269.515305 999.527458 
L 272.083774 996.268287 
L 274.652244 997.890377 
L 277.220713 997.130919 
L 279.789183 995.50569 
L 282.357652 997.651049 
L 284.926122 999.053604 
L 287.494591 992.738847 
L 290.063061 1000.672881 
L 292.63153 1000.38105 
L 295.2 1000.457905 
L 297.76847 999.778222 
L 300.336939 1000.194165 
L 302.905409 995.455737 
L 305.473878 999.460253 
L 308.042348 999.211356 
L 310.610817 999.587045 
L 313.179287 1000.71015 
L 315.747756 995.209068 
L 318.316226 1000.259116 
L 320.884695 990.981252 
L 323.453165 1000.310028 
L 326.021634 1000.997051 
L 328.590104 1001.532864 
L 331.158573 985.685019 
L 333.727043 1000.864481 
L 336.295512 1001.527713 
L 338.863982 999.615238 
L 341.432451 1002.620059 
L 344.000921 1002.958377 
L 346.56939 1000.443672 
L 349.13786 1003.677887 
L 351.706329 1002.532 
L 354.274799 1004.106385 
L 356.843268 1000.776439 
L 359.411738 1002.853494 
L 361.980207 1002.791212 
L 364.548677 998.538133 
L 367.117146 1000.305786 
L 369.685616 1002.863089 
L 372.254085 1002.340734 
L 374.822555 1004.532905 
L 377.391024 1001.53633 
L 379.959494 1002.706706 
L 382.527963 1003.055584 
L 385.096433 1002.804114 
L 387.664902 1005.175784 
L 390.233372 1004.721283 
L 392.801841 1004.404657 
L 395.370311 1000.931071 
L 397.93878 1003.236781 
L 400.50725 1003.315235 
L 403.075719 1000.503309 
L 405.644189 1001.249575 
L 408.212658 998.517731 
L 410.781128 1000.456688 
L 413.349597 1000.831645 
L 415.918067 1003.660915 
L 418.486536 1004.335411 
L 421.055006 1002.434019 
L 423.623475 1001.7004 
L 426.191945 1003.926346 
L 428.760414 1005.314559 
L 431.328884 1003.709264 
L 433.897353 1005.833952 
L 436.465823 1004.674781 
L 439.034292 1003.368254 
L 441.602762 999.962203 
L 444.171231 1004.815185 
L 446.739701 1003.271627 
L 449.30817 999.478658 
L 451.87664 1004.638157 
L 454.445109 1006.72113 
L 457.013579 1006.350295 
L 459.582048 1005.428344 
L 462.150518 1005.56929 
L 464.718987 1003.223342 
L 467.287457 1004.594293 
L 469.855926 995.838199 
L 472.424396 1005.109915 
L 474.992865 1006.451598 
L 477.561335 1005.758859 
L 480.129804 1001.977442 
L 482.698274 1005.804582 
L 485.266743 1005.50305 
L 487.835213 1003.963501 
L 490.403682 1006.320557 
L 492.972152 1005.371187 
L 495.540621 1006.088672 
L 498.109091 1006.952727 
L 498.109091 1006.952727 
" clip-path="url(#pc56b5ec777)" style="fill: none; stroke: #1f77b4; stroke-width: 1.5; stroke-linecap: square"/>
   </g>
   <g id="line2d_38">
    <path d="M 92.290909 684.318728 
L 94.859379 640.407273 
L 97.427848 810.605488 
L 99.996318 892.453069 
L 102.564787 907.07252 
L 105.133257 937.506017 
L 107.701726 943.149842 
L 110.270196 952.446903 
L 112.838665 953.425439 
L 115.407135 955.61946 
L 117.975604 960.243703 
L 120.544074 948.408508 
L 123.112543 956.258947 
L 125.681013 949.320451 
L 128.249482 958.175512 
L 130.817952 963.436506 
L 133.386421 957.845668 
L 135.954891 962.272174 
L 138.52336 957.068872 
L 141.09183 968.567381 
L 146.228769 972.789004 
L 148.797238 970.030143 
L 151.365708 966.661617 
L 153.934177 957.129938 
L 156.502647 969.242035 
L 159.071116 967.586798 
L 161.639586 968.029501 
L 164.208055 971.733794 
L 166.776525 967.948906 
L 169.344994 964.811074 
L 171.913464 972.145971 
L 174.481933 967.723925 
L 177.050403 969.948325 
L 179.618872 965.030731 
L 182.187342 964.333592 
L 184.755811 969.413254 
L 187.324281 971.260698 
L 189.89275 966.896923 
L 192.46122 972.94236 
L 195.029689 973.602348 
L 197.598159 970.283631 
L 200.166628 971.716068 
L 202.735098 964.402305 
L 205.303567 961.581793 
L 210.440506 974.054285 
L 213.008976 971.103055 
L 215.577445 975.381756 
L 218.145915 974.208342 
L 220.714384 966.600242 
L 223.282854 971.757453 
L 225.851323 969.895633 
L 228.419793 962.404969 
L 230.988262 968.437621 
L 233.556732 971.795464 
L 236.125201 977.407424 
L 238.693671 973.000616 
L 241.26214 975.900338 
L 243.83061 978.209677 
L 246.399079 979.948628 
L 248.967549 977.766274 
L 251.536018 974.040237 
L 254.104488 972.898386 
L 256.672957 965.124091 
L 259.241427 977.354104 
L 261.809896 965.592693 
L 264.378366 969.698673 
L 266.946835 978.5617 
L 269.515305 976.728721 
L 272.083774 970.09558 
L 274.652244 978.506351 
L 277.220713 975.466859 
L 279.789183 971.781196 
L 282.357652 972.877153 
L 284.926122 967.119045 
L 287.494591 972.888283 
L 290.063061 974.307616 
L 292.63153 984.462598 
L 295.2 978.487601 
L 297.76847 980.338613 
L 300.336939 975.880535 
L 302.905409 976.000216 
L 305.473878 969.39539 
L 308.042348 974.373456 
L 310.610817 978.972748 
L 313.179287 982.616041 
L 315.747756 970.847808 
L 318.316226 965.056434 
L 320.884695 980.969273 
L 323.453165 973.933999 
L 326.021634 969.546978 
L 328.590104 978.107955 
L 331.158573 982.122836 
L 333.727043 974.499444 
L 336.295512 972.302519 
L 338.863982 978.819201 
L 341.432451 978.254837 
L 344.000921 977.893703 
L 346.56939 983.091279 
L 349.13786 978.035435 
L 351.706329 973.299061 
L 354.274799 981.671322 
L 356.843268 973.361463 
L 359.411738 976.761157 
L 361.980207 978.24664 
L 364.548677 982.042731 
L 367.117146 980.00076 
L 369.685616 982.65124 
L 372.254085 977.527808 
L 374.822555 979.285627 
L 377.391024 980.226621 
L 379.959494 978.493512 
L 382.527963 974.032394 
L 385.096433 978.399413 
L 387.664902 974.931503 
L 390.233372 979.468474 
L 392.801841 972.171404 
L 395.370311 963.899995 
L 397.93878 973.829544 
L 400.50725 977.150412 
L 403.075719 959.174642 
L 405.644189 977.509181 
L 408.212658 967.921563 
L 410.781128 981.492296 
L 413.349597 964.439138 
L 415.918067 978.839643 
L 418.486536 973.326138 
L 421.055006 979.44562 
L 423.623475 982.433029 
L 426.191945 982.890121 
L 428.760414 983.016512 
L 431.328884 981.199346 
L 433.897353 974.725265 
L 436.465823 975.879641 
L 439.034292 975.177192 
L 441.602762 981.369452 
L 444.171231 973.824701 
L 446.739701 978.732531 
L 449.30817 982.167999 
L 451.87664 978.432426 
L 454.445109 978.270382 
L 457.013579 978.366554 
L 459.582048 972.810733 
L 462.150518 983.030018 
L 464.718987 974.16263 
L 467.287457 973.334061 
L 469.855926 977.455455 
L 472.424396 978.519644 
L 474.992865 970.038816 
L 477.561335 970.031975 
L 480.129804 978.224631 
L 482.698274 972.24079 
L 485.266743 977.422911 
L 487.835213 974.67661 
L 490.403682 978.561481 
L 492.972152 976.495488 
L 495.540621 977.924524 
L 498.109091 976.526903 
L 498.109091 976.526903 
" clip-path="url(#pc56b5ec777)" style="fill: none; stroke: #ff7f0e; stroke-width: 1.5; stroke-linecap: square"/>
   </g>
   <g id="patch_9">
    <path d="M 72 1025.28 
L 72 622.08 
" style="fill: none; stroke: #000000; stroke-width: 0.8; stroke-linejoin: miter; stroke-linecap: square"/>
   </g>
   <g id="patch_10">
    <path d="M 518.4 1025.28 
L 518.4 622.08 
" style="fill: none; stroke: #000000; stroke-width: 0.8; stroke-linejoin: miter; stroke-linecap: square"/>
   </g>
   <g id="patch_11">
    <path d="M 72 1025.28 
L 518.4 1025.28 
" style="fill: none; stroke: #000000; stroke-width: 0.8; stroke-linejoin: miter; stroke-linecap: square"/>
   </g>
   <g id="patch_12">
    <path d="M 72 622.08 
L 518.4 622.08 
" style="fill: none; stroke: #000000; stroke-width: 0.8; stroke-linejoin: miter; stroke-linecap: square"/>
   </g>
   <g id="legend_2">
    <g id="patch_13">
     <path d="M 79 659.714375 
L 150.140625 659.714375 
Q 152.140625 659.714375 152.140625 657.714375 
L 152.140625 629.08 
Q 152.140625 627.08 150.140625 627.08 
L 79 627.08 
Q 77 627.08 77 629.08 
L 77 657.714375 
Q 77 659.714375 79 659.714375 
z
" style="fill: #ffffff; opacity: 0.8; stroke: #cccccc; stroke-linejoin: miter"/>
    </g>
    <g id="line2d_39">
     <path d="M 81 635.178437 
L 91 635.178437 
L 101 635.178437 
" style="fill: none; stroke: #1f77b4; stroke-width: 1.5; stroke-linecap: square"/>
    </g>
    <g id="text_37">
     <!-- loss -->
     <g transform="translate(109 638.678437) scale(0.1 -0.1)">
      <defs>
       <path id="DejaVuSans-73" d="M 2834 3397 
L 2834 2853 
Q 2591 2978 2328 3040 
Q 2066 3103 1784 3103 
Q 1356 3103 1142 2972 
Q 928 2841 928 2578 
Q 928 2378 1081 2264 
Q 1234 2150 1697 2047 
L 1894 2003 
Q 2506 1872 2764 1633 
Q 3022 1394 3022 966 
Q 3022 478 2636 193 
Q 2250 -91 1575 -91 
Q 1294 -91 989 -36 
Q 684 19 347 128 
L 347 722 
Q 666 556 975 473 
Q 1284 391 1588 391 
Q 1994 391 2212 530 
Q 2431 669 2431 922 
Q 2431 1156 2273 1281 
Q 2116 1406 1581 1522 
L 1381 1569 
Q 847 1681 609 1914 
Q 372 2147 372 2553 
Q 372 3047 722 3315 
Q 1072 3584 1716 3584 
Q 2034 3584 2315 3537 
Q 2597 3491 2834 3397 
z
" transform="scale(0.015625)"/>
      </defs>
      <use xlink:href="#DejaVuSans-6c"/>
      <use xlink:href="#DejaVuSans-6f" x="27.783203"/>
      <use xlink:href="#DejaVuSans-73" x="88.964844"/>
      <use xlink:href="#DejaVuSans-73" x="141.064453"/>
     </g>
    </g>
    <g id="line2d_40">
     <path d="M 81 649.856562 
L 91 649.856562 
L 101 649.856562 
" style="fill: none; stroke: #ff7f0e; stroke-width: 1.5; stroke-linecap: square"/>
    </g>
    <g id="text_38">
     <!-- val_loss -->
     <g transform="translate(109 653.356562) scale(0.1 -0.1)">
      <use xlink:href="#DejaVuSans-76"/>
      <use xlink:href="#DejaVuSans-61" x="59.179688"/>
      <use xlink:href="#DejaVuSans-6c" x="120.458984"/>
      <use xlink:href="#DejaVuSans-5f" x="148.242188"/>
      <use xlink:href="#DejaVuSans-6c" x="198.242188"/>
      <use xlink:href="#DejaVuSans-6f" x="226.025391"/>
      <use xlink:href="#DejaVuSans-73" x="287.207031"/>
      <use xlink:href="#DejaVuSans-73" x="339.306641"/>
     </g>
    </g>
   </g>
  </g>
 </g>
 <defs>
  <clipPath id="pa44bba3e98">
   <rect x="72" y="138.24" width="446.4" height="403.2"/>
  </clipPath>
  <clipPath id="pc56b5ec777">
   <rect x="72" y="622.08" width="446.4" height="403.2"/>
  </clipPath>
 </defs>
</svg>
