<?xml version="1.0" encoding="utf-8" standalone="no"?>
<!DOCTYPE svg PUBLIC "-//W3C//DTD SVG 1.1//EN"
  "http://www.w3.org/Graphics/SVG/1.1/DTD/svg11.dtd">
<svg xmlns:xlink="http://www.w3.org/1999/xlink" width="576pt" height="1152pt" viewBox="0 0 576 1152" xmlns="http://www.w3.org/2000/svg" version="1.1">
 <metadata>
  <rdf:RDF xmlns:dc="http://purl.org/dc/elements/1.1/" xmlns:cc="http://creativecommons.org/ns#" xmlns:rdf="http://www.w3.org/1999/02/22-rdf-syntax-ns#">
   <cc:Work>
    <dc:type rdf:resource="http://purl.org/dc/dcmitype/StillImage"/>
    <dc:date>2023-11-16T12:44:47.554189</dc:date>
    <dc:format>image/svg+xml</dc:format>
    <dc:creator>
     <cc:Agent>
      <dc:title>Matplotlib v3.7.3, https://matplotlib.org/</dc:title>
     </cc:Agent>
    </dc:creator>
   </cc:Work>
  </rdf:RDF>
 </metadata>
 <defs>
  <style type="text/css">*{stroke-linejoin: round; stroke-linecap: butt}</style>
 </defs>
 <g id="figure_1">
  <g id="patch_1">
   <path d="M 0 1152 
L 576 1152 
L 576 0 
L 0 0 
z
" style="fill: #ffffff"/>
  </g>
  <g id="axes_1">
   <g id="patch_2">
    <path d="M 72 541.44 
L 518.4 541.44 
L 518.4 138.24 
L 72 138.24 
z
" style="fill: #ffffff"/>
   </g>
   <g id="matplotlib.axis_1">
    <g id="xtick_1">
     <g id="line2d_1">
      <defs>
       <path id="m41c89353e6" d="M 0 0 
L 0 3.5 
" style="stroke: #000000; stroke-width: 0.8"/>
      </defs>
      <g>
       <use xlink:href="#m41c89353e6" x="92.290909" y="541.44" style="stroke: #000000; stroke-width: 0.8"/>
      </g>
     </g>
     <g id="text_1">
      <!-- 0 -->
      <g transform="translate(89.109659 556.038437) scale(0.1 -0.1)">
       <defs>
        <path id="DejaVuSans-30" d="M 2034 4250 
Q 1547 4250 1301 3770 
Q 1056 3291 1056 2328 
Q 1056 1369 1301 889 
Q 1547 409 2034 409 
Q 2525 409 2770 889 
Q 3016 1369 3016 2328 
Q 3016 3291 2770 3770 
Q 2525 4250 2034 4250 
z
M 2034 4750 
Q 2819 4750 3233 4129 
Q 3647 3509 3647 2328 
Q 3647 1150 3233 529 
Q 2819 -91 2034 -91 
Q 1250 -91 836 529 
Q 422 1150 422 2328 
Q 422 3509 836 4129 
Q 1250 4750 2034 4750 
z
" transform="scale(0.015625)"/>
       </defs>
       <use xlink:href="#DejaVuSans-30"/>
      </g>
     </g>
    </g>
    <g id="xtick_2">
     <g id="line2d_2">
      <g>
       <use xlink:href="#m41c89353e6" x="179.376356" y="541.44" style="stroke: #000000; stroke-width: 0.8"/>
      </g>
     </g>
     <g id="text_2">
      <!-- 50 -->
      <g transform="translate(173.013856 556.038437) scale(0.1 -0.1)">
       <defs>
        <path id="DejaVuSans-35" d="M 691 4666 
L 3169 4666 
L 3169 4134 
L 1269 4134 
L 1269 2991 
Q 1406 3038 1543 3061 
Q 1681 3084 1819 3084 
Q 2600 3084 3056 2656 
Q 3513 2228 3513 1497 
Q 3513 744 3044 326 
Q 2575 -91 1722 -91 
Q 1428 -91 1123 -41 
Q 819 9 494 109 
L 494 744 
Q 775 591 1075 516 
Q 1375 441 1709 441 
Q 2250 441 2565 725 
Q 2881 1009 2881 1497 
Q 2881 1984 2565 2268 
Q 2250 2553 1709 2553 
Q 1456 2553 1204 2497 
Q 953 2441 691 2322 
L 691 4666 
z
" transform="scale(0.015625)"/>
       </defs>
       <use xlink:href="#DejaVuSans-35"/>
       <use xlink:href="#DejaVuSans-30" x="63.623047"/>
      </g>
     </g>
    </g>
    <g id="xtick_3">
     <g id="line2d_3">
      <g>
       <use xlink:href="#m41c89353e6" x="266.461803" y="541.44" style="stroke: #000000; stroke-width: 0.8"/>
      </g>
     </g>
     <g id="text_3">
      <!-- 100 -->
      <g transform="translate(256.918053 556.038437) scale(0.1 -0.1)">
       <defs>
        <path id="DejaVuSans-31" d="M 794 531 
L 1825 531 
L 1825 4091 
L 703 3866 
L 703 4441 
L 1819 4666 
L 2450 4666 
L 2450 531 
L 3481 531 
L 3481 0 
L 794 0 
L 794 531 
z
" transform="scale(0.015625)"/>
       </defs>
       <use xlink:href="#DejaVuSans-31"/>
       <use xlink:href="#DejaVuSans-30" x="63.623047"/>
       <use xlink:href="#DejaVuSans-30" x="127.246094"/>
      </g>
     </g>
    </g>
    <g id="xtick_4">
     <g id="line2d_4">
      <g>
       <use xlink:href="#m41c89353e6" x="353.547249" y="541.44" style="stroke: #000000; stroke-width: 0.8"/>
      </g>
     </g>
     <g id="text_4">
      <!-- 150 -->
      <g transform="translate(344.003499 556.038437) scale(0.1 -0.1)">
       <use xlink:href="#DejaVuSans-31"/>
       <use xlink:href="#DejaVuSans-35" x="63.623047"/>
       <use xlink:href="#DejaVuSans-30" x="127.246094"/>
      </g>
     </g>
    </g>
    <g id="xtick_5">
     <g id="line2d_5">
      <g>
       <use xlink:href="#m41c89353e6" x="440.632696" y="541.44" style="stroke: #000000; stroke-width: 0.8"/>
      </g>
     </g>
     <g id="text_5">
      <!-- 200 -->
      <g transform="translate(431.088946 556.038437) scale(0.1 -0.1)">
       <defs>
        <path id="DejaVuSans-32" d="M 1228 531 
L 3431 531 
L 3431 0 
L 469 0 
L 469 531 
Q 828 903 1448 1529 
Q 2069 2156 2228 2338 
Q 2531 2678 2651 2914 
Q 2772 3150 2772 3378 
Q 2772 3750 2511 3984 
Q 2250 4219 1831 4219 
Q 1534 4219 1204 4116 
Q 875 4013 500 3803 
L 500 4441 
Q 881 4594 1212 4672 
Q 1544 4750 1819 4750 
Q 2544 4750 2975 4387 
Q 3406 4025 3406 3419 
Q 3406 3131 3298 2873 
Q 3191 2616 2906 2266 
Q 2828 2175 2409 1742 
Q 1991 1309 1228 531 
z
" transform="scale(0.015625)"/>
       </defs>
       <use xlink:href="#DejaVuSans-32"/>
       <use xlink:href="#DejaVuSans-30" x="63.623047"/>
       <use xlink:href="#DejaVuSans-30" x="127.246094"/>
      </g>
     </g>
    </g>
    <g id="text_6">
     <!-- Epoch -->
     <g transform="translate(279.889062 569.716563) scale(0.1 -0.1)">
      <defs>
       <path id="DejaVuSans-45" d="M 628 4666 
L 3578 4666 
L 3578 4134 
L 1259 4134 
L 1259 2753 
L 3481 2753 
L 3481 2222 
L 1259 2222 
L 1259 531 
L 3634 531 
L 3634 0 
L 628 0 
L 628 4666 
z
" transform="scale(0.015625)"/>
       <path id="DejaVuSans-70" d="M 1159 525 
L 1159 -1331 
L 581 -1331 
L 581 3500 
L 1159 3500 
L 1159 2969 
Q 1341 3281 1617 3432 
Q 1894 3584 2278 3584 
Q 2916 3584 3314 3078 
Q 3713 2572 3713 1747 
Q 3713 922 3314 415 
Q 2916 -91 2278 -91 
Q 1894 -91 1617 61 
Q 1341 213 1159 525 
z
M 3116 1747 
Q 3116 2381 2855 2742 
Q 2594 3103 2138 3103 
Q 1681 3103 1420 2742 
Q 1159 2381 1159 1747 
Q 1159 1113 1420 752 
Q 1681 391 2138 391 
Q 2594 391 2855 752 
Q 3116 1113 3116 1747 
z
" transform="scale(0.015625)"/>
       <path id="DejaVuSans-6f" d="M 1959 3097 
Q 1497 3097 1228 2736 
Q 959 2375 959 1747 
Q 959 1119 1226 758 
Q 1494 397 1959 397 
Q 2419 397 2687 759 
Q 2956 1122 2956 1747 
Q 2956 2369 2687 2733 
Q 2419 3097 1959 3097 
z
M 1959 3584 
Q 2709 3584 3137 3096 
Q 3566 2609 3566 1747 
Q 3566 888 3137 398 
Q 2709 -91 1959 -91 
Q 1206 -91 779 398 
Q 353 888 353 1747 
Q 353 2609 779 3096 
Q 1206 3584 1959 3584 
z
" transform="scale(0.015625)"/>
       <path id="DejaVuSans-63" d="M 3122 3366 
L 3122 2828 
Q 2878 2963 2633 3030 
Q 2388 3097 2138 3097 
Q 1578 3097 1268 2742 
Q 959 2388 959 1747 
Q 959 1106 1268 751 
Q 1578 397 2138 397 
Q 2388 397 2633 464 
Q 2878 531 3122 666 
L 3122 134 
Q 2881 22 2623 -34 
Q 2366 -91 2075 -91 
Q 1284 -91 818 406 
Q 353 903 353 1747 
Q 353 2603 823 3093 
Q 1294 3584 2113 3584 
Q 2378 3584 2631 3529 
Q 2884 3475 3122 3366 
z
" transform="scale(0.015625)"/>
       <path id="DejaVuSans-68" d="M 3513 2113 
L 3513 0 
L 2938 0 
L 2938 2094 
Q 2938 2591 2744 2837 
Q 2550 3084 2163 3084 
Q 1697 3084 1428 2787 
Q 1159 2491 1159 1978 
L 1159 0 
L 581 0 
L 581 4863 
L 1159 4863 
L 1159 2956 
Q 1366 3272 1645 3428 
Q 1925 3584 2291 3584 
Q 2894 3584 3203 3211 
Q 3513 2838 3513 2113 
z
" transform="scale(0.015625)"/>
      </defs>
      <use xlink:href="#DejaVuSans-45"/>
      <use xlink:href="#DejaVuSans-70" x="63.183594"/>
      <use xlink:href="#DejaVuSans-6f" x="126.660156"/>
      <use xlink:href="#DejaVuSans-63" x="187.841797"/>
      <use xlink:href="#DejaVuSans-68" x="242.822266"/>
     </g>
    </g>
   </g>
   <g id="matplotlib.axis_2">
    <g id="ytick_1">
     <g id="line2d_6">
      <defs>
       <path id="m0fffd735cf" d="M 0 0 
L -3.5 0 
" style="stroke: #000000; stroke-width: 0.8"/>
      </defs>
      <g>
       <use xlink:href="#m0fffd735cf" x="72" y="508.991762" style="stroke: #000000; stroke-width: 0.8"/>
      </g>
     </g>
     <g id="text_7">
      <!-- 0.2 -->
      <g transform="translate(49.096875 512.790981) scale(0.1 -0.1)">
       <defs>
        <path id="DejaVuSans-2e" d="M 684 794 
L 1344 794 
L 1344 0 
L 684 0 
L 684 794 
z
" transform="scale(0.015625)"/>
       </defs>
       <use xlink:href="#DejaVuSans-30"/>
       <use xlink:href="#DejaVuSans-2e" x="63.623047"/>
       <use xlink:href="#DejaVuSans-32" x="95.410156"/>
      </g>
     </g>
    </g>
    <g id="ytick_2">
     <g id="line2d_7">
      <g>
       <use xlink:href="#m0fffd735cf" x="72" y="463.981179" style="stroke: #000000; stroke-width: 0.8"/>
      </g>
     </g>
     <g id="text_8">
      <!-- 0.3 -->
      <g transform="translate(49.096875 467.780397) scale(0.1 -0.1)">
       <defs>
        <path id="DejaVuSans-33" d="M 2597 2516 
Q 3050 2419 3304 2112 
Q 3559 1806 3559 1356 
Q 3559 666 3084 287 
Q 2609 -91 1734 -91 
Q 1441 -91 1130 -33 
Q 819 25 488 141 
L 488 750 
Q 750 597 1062 519 
Q 1375 441 1716 441 
Q 2309 441 2620 675 
Q 2931 909 2931 1356 
Q 2931 1769 2642 2001 
Q 2353 2234 1838 2234 
L 1294 2234 
L 1294 2753 
L 1863 2753 
Q 2328 2753 2575 2939 
Q 2822 3125 2822 3475 
Q 2822 3834 2567 4026 
Q 2313 4219 1838 4219 
Q 1578 4219 1281 4162 
Q 984 4106 628 3988 
L 628 4550 
Q 988 4650 1302 4700 
Q 1616 4750 1894 4750 
Q 2613 4750 3031 4423 
Q 3450 4097 3450 3541 
Q 3450 3153 3228 2886 
Q 3006 2619 2597 2516 
z
" transform="scale(0.015625)"/>
       </defs>
       <use xlink:href="#DejaVuSans-30"/>
       <use xlink:href="#DejaVuSans-2e" x="63.623047"/>
       <use xlink:href="#DejaVuSans-33" x="95.410156"/>
      </g>
     </g>
    </g>
    <g id="ytick_3">
     <g id="line2d_8">
      <g>
       <use xlink:href="#m0fffd735cf" x="72" y="418.970595" style="stroke: #000000; stroke-width: 0.8"/>
      </g>
     </g>
     <g id="text_9">
      <!-- 0.4 -->
      <g transform="translate(49.096875 422.769814) scale(0.1 -0.1)">
       <defs>
        <path id="DejaVuSans-34" d="M 2419 4116 
L 825 1625 
L 2419 1625 
L 2419 4116 
z
M 2253 4666 
L 3047 4666 
L 3047 1625 
L 3713 1625 
L 3713 1100 
L 3047 1100 
L 3047 0 
L 2419 0 
L 2419 1100 
L 313 1100 
L 313 1709 
L 2253 4666 
z
" transform="scale(0.015625)"/>
       </defs>
       <use xlink:href="#DejaVuSans-30"/>
       <use xlink:href="#DejaVuSans-2e" x="63.623047"/>
       <use xlink:href="#DejaVuSans-34" x="95.410156"/>
      </g>
     </g>
    </g>
    <g id="ytick_4">
     <g id="line2d_9">
      <g>
       <use xlink:href="#m0fffd735cf" x="72" y="373.960012" style="stroke: #000000; stroke-width: 0.8"/>
      </g>
     </g>
     <g id="text_10">
      <!-- 0.5 -->
      <g transform="translate(49.096875 377.75923) scale(0.1 -0.1)">
       <use xlink:href="#DejaVuSans-30"/>
       <use xlink:href="#DejaVuSans-2e" x="63.623047"/>
       <use xlink:href="#DejaVuSans-35" x="95.410156"/>
      </g>
     </g>
    </g>
    <g id="ytick_5">
     <g id="line2d_10">
      <g>
       <use xlink:href="#m0fffd735cf" x="72" y="328.949428" style="stroke: #000000; stroke-width: 0.8"/>
      </g>
     </g>
     <g id="text_11">
      <!-- 0.6 -->
      <g transform="translate(49.096875 332.748647) scale(0.1 -0.1)">
       <defs>
        <path id="DejaVuSans-36" d="M 2113 2584 
Q 1688 2584 1439 2293 
Q 1191 2003 1191 1497 
Q 1191 994 1439 701 
Q 1688 409 2113 409 
Q 2538 409 2786 701 
Q 3034 994 3034 1497 
Q 3034 2003 2786 2293 
Q 2538 2584 2113 2584 
z
M 3366 4563 
L 3366 3988 
Q 3128 4100 2886 4159 
Q 2644 4219 2406 4219 
Q 1781 4219 1451 3797 
Q 1122 3375 1075 2522 
Q 1259 2794 1537 2939 
Q 1816 3084 2150 3084 
Q 2853 3084 3261 2657 
Q 3669 2231 3669 1497 
Q 3669 778 3244 343 
Q 2819 -91 2113 -91 
Q 1303 -91 875 529 
Q 447 1150 447 2328 
Q 447 3434 972 4092 
Q 1497 4750 2381 4750 
Q 2619 4750 2861 4703 
Q 3103 4656 3366 4563 
z
" transform="scale(0.015625)"/>
       </defs>
       <use xlink:href="#DejaVuSans-30"/>
       <use xlink:href="#DejaVuSans-2e" x="63.623047"/>
       <use xlink:href="#DejaVuSans-36" x="95.410156"/>
      </g>
     </g>
    </g>
    <g id="ytick_6">
     <g id="line2d_11">
      <g>
       <use xlink:href="#m0fffd735cf" x="72" y="283.938845" style="stroke: #000000; stroke-width: 0.8"/>
      </g>
     </g>
     <g id="text_12">
      <!-- 0.7 -->
      <g transform="translate(49.096875 287.738063) scale(0.1 -0.1)">
       <defs>
        <path id="DejaVuSans-37" d="M 525 4666 
L 3525 4666 
L 3525 4397 
L 1831 0 
L 1172 0 
L 2766 4134 
L 525 4134 
L 525 4666 
z
" transform="scale(0.015625)"/>
       </defs>
       <use xlink:href="#DejaVuSans-30"/>
       <use xlink:href="#DejaVuSans-2e" x="63.623047"/>
       <use xlink:href="#DejaVuSans-37" x="95.410156"/>
      </g>
     </g>
    </g>
    <g id="ytick_7">
     <g id="line2d_12">
      <g>
       <use xlink:href="#m0fffd735cf" x="72" y="238.928261" style="stroke: #000000; stroke-width: 0.8"/>
      </g>
     </g>
     <g id="text_13">
      <!-- 0.8 -->
      <g transform="translate(49.096875 242.72748) scale(0.1 -0.1)">
       <defs>
        <path id="DejaVuSans-38" d="M 2034 2216 
Q 1584 2216 1326 1975 
Q 1069 1734 1069 1313 
Q 1069 891 1326 650 
Q 1584 409 2034 409 
Q 2484 409 2743 651 
Q 3003 894 3003 1313 
Q 3003 1734 2745 1975 
Q 2488 2216 2034 2216 
z
M 1403 2484 
Q 997 2584 770 2862 
Q 544 3141 544 3541 
Q 544 4100 942 4425 
Q 1341 4750 2034 4750 
Q 2731 4750 3128 4425 
Q 3525 4100 3525 3541 
Q 3525 3141 3298 2862 
Q 3072 2584 2669 2484 
Q 3125 2378 3379 2068 
Q 3634 1759 3634 1313 
Q 3634 634 3220 271 
Q 2806 -91 2034 -91 
Q 1263 -91 848 271 
Q 434 634 434 1313 
Q 434 1759 690 2068 
Q 947 2378 1403 2484 
z
M 1172 3481 
Q 1172 3119 1398 2916 
Q 1625 2713 2034 2713 
Q 2441 2713 2670 2916 
Q 2900 3119 2900 3481 
Q 2900 3844 2670 4047 
Q 2441 4250 2034 4250 
Q 1625 4250 1398 4047 
Q 1172 3844 1172 3481 
z
" transform="scale(0.015625)"/>
       </defs>
       <use xlink:href="#DejaVuSans-30"/>
       <use xlink:href="#DejaVuSans-2e" x="63.623047"/>
       <use xlink:href="#DejaVuSans-38" x="95.410156"/>
      </g>
     </g>
    </g>
    <g id="ytick_8">
     <g id="line2d_13">
      <g>
       <use xlink:href="#m0fffd735cf" x="72" y="193.917678" style="stroke: #000000; stroke-width: 0.8"/>
      </g>
     </g>
     <g id="text_14">
      <!-- 0.9 -->
      <g transform="translate(49.096875 197.716897) scale(0.1 -0.1)">
       <defs>
        <path id="DejaVuSans-39" d="M 703 97 
L 703 672 
Q 941 559 1184 500 
Q 1428 441 1663 441 
Q 2288 441 2617 861 
Q 2947 1281 2994 2138 
Q 2813 1869 2534 1725 
Q 2256 1581 1919 1581 
Q 1219 1581 811 2004 
Q 403 2428 403 3163 
Q 403 3881 828 4315 
Q 1253 4750 1959 4750 
Q 2769 4750 3195 4129 
Q 3622 3509 3622 2328 
Q 3622 1225 3098 567 
Q 2575 -91 1691 -91 
Q 1453 -91 1209 -44 
Q 966 3 703 97 
z
M 1959 2075 
Q 2384 2075 2632 2365 
Q 2881 2656 2881 3163 
Q 2881 3666 2632 3958 
Q 2384 4250 1959 4250 
Q 1534 4250 1286 3958 
Q 1038 3666 1038 3163 
Q 1038 2656 1286 2365 
Q 1534 2075 1959 2075 
z
" transform="scale(0.015625)"/>
       </defs>
       <use xlink:href="#DejaVuSans-30"/>
       <use xlink:href="#DejaVuSans-2e" x="63.623047"/>
       <use xlink:href="#DejaVuSans-39" x="95.410156"/>
      </g>
     </g>
    </g>
    <g id="ytick_9">
     <g id="line2d_14">
      <g>
       <use xlink:href="#m0fffd735cf" x="72" y="148.907094" style="stroke: #000000; stroke-width: 0.8"/>
      </g>
     </g>
     <g id="text_15">
      <!-- 1.0 -->
      <g transform="translate(49.096875 152.706313) scale(0.1 -0.1)">
       <use xlink:href="#DejaVuSans-31"/>
       <use xlink:href="#DejaVuSans-2e" x="63.623047"/>
       <use xlink:href="#DejaVuSans-30" x="95.410156"/>
      </g>
     </g>
    </g>
   </g>
   <g id="line2d_15">
    <path d="M 92.290909 337.148659 
L 94.032618 244.942914 
L 95.774327 231.750398 
L 99.257745 214.585938 
L 100.999454 212.458124 
L 102.741163 210.0466 
L 104.482872 203.663104 
L 106.224581 204.230525 
L 107.96629 201.960842 
L 109.707998 194.726243 
L 111.449707 193.023981 
L 113.191416 196.002953 
L 114.933125 189.193905 
L 116.674834 190.470615 
L 118.416543 188.484643 
L 120.158252 189.619484 
L 121.899961 185.363829 
L 123.64167 185.64754 
L 125.383379 187.349801 
L 127.125088 184.228988 
L 128.866797 184.087119 
L 130.608506 184.65454 
L 132.350215 180.824464 
L 134.091924 180.682596 
L 135.833632 182.668568 
L 137.575341 181.675595 
L 139.31705 182.668568 
L 141.058759 179.831492 
L 142.800468 183.235988 
L 144.542177 177.987361 
L 146.283886 183.235988 
L 148.025595 177.41994 
L 149.767304 179.405913 
L 151.509013 177.845519 
L 153.250722 185.505671 
L 154.992431 175.575837 
L 156.73414 175.859547 
L 158.475849 179.122202 
L 160.217558 177.561809 
L 161.959266 175.433968 
L 163.700975 178.271071 
L 165.442684 180.257044 
L 167.184393 172.880575 
L 168.926102 174.157285 
L 170.667811 177.41994 
L 172.40952 175.008416 
L 174.151229 174.866548 
L 175.892938 171.745734 
L 177.634647 172.313155 
L 179.376356 175.433968 
L 181.118065 179.973333 
L 182.859774 173.447996 
L 184.601483 173.731706 
L 186.343192 169.901631 
L 188.084901 170.752762 
L 189.826609 171.887603 
L 191.568318 175.859547 
L 193.310027 180.115202 
L 195.051736 169.192368 
L 196.793445 170.894603 
L 198.535154 171.320182 
L 200.276863 168.766789 
L 202.018572 170.610893 
L 203.760281 171.887603 
L 205.50199 174.724706 
L 207.243699 170.185341 
L 208.985408 172.596865 
L 210.727117 171.745734 
L 214.210535 166.497107 
L 215.952243 168.908658 
L 217.693952 167.490106 
L 219.435661 171.320182 
L 221.17737 169.901631 
L 222.919079 171.178314 
L 224.660788 166.071555 
L 226.402497 164.653003 
L 228.144206 171.887603 
L 229.885915 169.61792 
L 231.627624 168.908658 
L 233.369333 169.476079 
L 235.111042 169.192368 
L 236.852751 167.064527 
L 238.59446 164.369293 
L 240.336169 166.638975 
L 242.077877 167.490106 
L 243.819586 163.943714 
L 245.561295 166.213397 
L 247.303004 173.306154 
L 249.044713 170.043472 
L 250.786422 169.0505 
L 252.528131 166.638975 
L 254.26984 167.490106 
L 256.011549 164.369293 
L 257.753258 164.653003 
L 259.494967 164.085583 
L 261.236676 166.071555 
L 262.978385 169.33421 
L 264.720094 167.206396 
L 266.461803 163.660004 
L 268.203512 164.653003 
L 269.94522 163.801872 
L 271.686929 164.227424 
L 273.428638 166.213397 
L 275.170347 165.078555 
L 276.912056 163.376293 
L 278.653765 167.773817 
L 280.395474 168.057527 
L 282.137183 165.220424 
L 283.878892 164.369293 
L 285.620601 163.660004 
L 287.36231 164.794845 
L 289.104019 165.504134 
L 290.845728 161.674032 
L 292.587437 165.504134 
L 294.329146 163.801872 
L 296.070854 164.794845 
L 297.812563 163.943714 
L 299.554272 163.801872 
L 301.295981 162.950741 
L 303.03769 165.220424 
L 304.779399 166.922686 
L 306.521108 167.490106 
L 308.262817 166.071555 
L 310.004526 164.227424 
L 311.746235 160.681059 
L 313.487944 164.653003 
L 315.229653 159.546218 
L 318.713071 163.092583 
L 320.45478 164.511135 
L 322.196488 162.808873 
L 323.938197 162.383321 
L 325.679906 163.943714 
L 327.421615 161.248479 
L 329.163324 163.092583 
L 330.905033 160.113638 
L 332.646742 166.213397 
L 334.388451 160.397349 
L 336.13016 161.8159 
L 337.871869 159.688059 
L 339.613578 160.822901 
L 341.355287 167.773817 
L 343.096996 164.227424 
L 344.838705 161.53219 
L 346.580414 159.829928 
L 348.322123 164.085583 
L 350.063831 162.383321 
L 351.80554 161.957742 
L 353.547249 160.113638 
L 355.288958 163.943714 
L 357.030667 161.390321 
L 358.772376 163.376293 
L 360.514085 159.120666 
L 362.255794 160.964769 
L 363.997503 163.376293 
L 365.739212 161.390321 
L 367.480921 165.929686 
L 369.22263 162.808873 
L 370.964339 164.085583 
L 372.706048 159.262507 
L 374.447757 162.09961 
L 376.189465 160.53919 
L 377.931174 160.397349 
L 379.672883 166.922686 
L 381.414592 162.950741 
L 383.156301 160.681059 
L 384.89801 161.390321 
L 386.639719 159.829928 
L 388.381428 158.836955 
L 390.123137 158.411376 
L 391.864846 161.8159 
L 393.606555 162.09961 
L 395.348264 160.822901 
L 397.089973 159.97177 
L 398.831682 165.645976 
L 400.573391 159.97177 
L 402.315099 161.248479 
L 404.056808 167.064527 
L 405.798517 161.674032 
L 407.540226 161.8159 
L 409.281935 162.383321 
L 411.023644 159.688059 
L 412.765353 160.53919 
L 414.507062 160.822901 
L 416.248771 158.978797 
L 417.99048 159.546218 
L 419.732189 157.418404 
L 421.473898 161.390321 
L 423.215607 158.411376 
L 424.957316 161.390321 
L 426.699025 157.418404 
L 428.440734 161.390321 
L 430.182442 158.411376 
L 431.924151 158.553245 
L 433.66586 159.829928 
L 435.407569 158.269535 
L 437.149278 157.276535 
L 438.890987 159.97177 
L 440.632696 157.843956 
L 442.374405 158.553245 
L 444.116114 163.376293 
L 445.857823 160.53919 
L 447.599532 159.546218 
L 449.341241 159.120666 
L 451.08295 159.262507 
L 452.824659 162.09961 
L 454.566368 166.780817 
L 456.308076 159.262507 
L 458.049785 158.127666 
L 461.533203 157.276535 
L 463.274912 156.567273 
L 465.016621 158.269535 
L 466.75833 158.695087 
L 468.500039 158.836955 
L 470.241748 161.106611 
L 473.725166 157.276535 
L 475.466875 160.53919 
L 477.208584 156.992825 
L 478.950293 160.964769 
L 480.692002 157.702114 
L 482.43371 161.248479 
L 484.175419 159.120666 
L 485.917128 160.113638 
L 487.658837 160.397349 
L 489.400546 157.560245 
L 491.142255 159.97177 
L 492.883964 157.276535 
L 494.625673 157.276535 
L 496.367382 159.829928 
L 498.109091 157.702114 
L 498.109091 157.702114 
" clip-path="url(#p195d420b8f)" style="fill: none; stroke: #1f77b4; stroke-width: 1.5; stroke-linecap: square"/>
   </g>
   <g id="line2d_16">
    <path d="M 92.290909 523.112727 
L 94.032618 448.977646 
L 95.774327 369.547196 
L 97.516036 321.888934 
L 99.257745 237.163135 
L 100.999454 240.693377 
L 102.741163 214.216564 
L 104.482872 228.337531 
L 106.224581 226.57241 
L 107.96629 210.686323 
L 109.707998 223.042169 
L 111.449707 226.57241 
L 113.191416 228.337531 
L 114.933125 244.223618 
L 116.674834 203.62584 
L 120.158252 217.746806 
L 123.64167 193.035115 
L 125.383379 203.62584 
L 127.125088 196.565356 
L 128.866797 193.035115 
L 130.608506 212.451444 
L 132.350215 203.62584 
L 134.091924 212.451444 
L 135.833632 205.39096 
L 137.575341 208.921202 
L 139.31705 200.095598 
L 141.058759 207.156081 
L 142.800468 203.62584 
L 144.542177 194.800235 
L 146.283886 196.565356 
L 148.025595 207.156081 
L 149.767304 194.800235 
L 151.509013 214.216564 
L 153.250722 203.62584 
L 154.992431 196.565356 
L 156.73414 214.216564 
L 158.475849 214.216564 
L 160.217558 212.451444 
L 161.959266 217.746806 
L 163.700975 205.39096 
L 165.442684 201.860719 
L 167.184393 193.035115 
L 168.926102 208.921202 
L 170.667811 198.330477 
L 172.40952 194.800235 
L 174.151229 203.62584 
L 175.892938 200.095598 
L 177.634647 198.330477 
L 179.376356 194.800235 
L 181.118065 198.330477 
L 182.859774 185.974631 
L 184.601483 212.451444 
L 186.343192 194.800235 
L 188.084901 196.565356 
L 189.826609 205.39096 
L 191.568318 207.156081 
L 193.310027 207.156081 
L 195.051736 200.095598 
L 196.793445 203.62584 
L 198.535154 203.62584 
L 200.276863 198.330477 
L 202.018572 205.39096 
L 203.760281 205.39096 
L 205.50199 194.800235 
L 207.243699 194.800235 
L 208.985408 210.686323 
L 210.727117 194.800235 
L 212.468826 201.860719 
L 214.210535 194.800235 
L 215.952243 194.800235 
L 217.693952 196.565356 
L 219.435661 191.269994 
L 221.17737 200.095598 
L 222.919079 193.035115 
L 224.660788 189.504873 
L 226.402497 200.095598 
L 228.144206 200.095598 
L 229.885915 187.739752 
L 231.627624 194.800235 
L 233.369333 198.330477 
L 235.111042 198.330477 
L 236.852751 191.269994 
L 238.59446 196.565356 
L 240.336169 203.62584 
L 242.077877 200.095598 
L 243.819586 203.62584 
L 245.561295 205.39096 
L 247.303004 196.565356 
L 249.044713 201.860719 
L 250.786422 196.565356 
L 252.528131 196.565356 
L 254.26984 194.800235 
L 257.753258 198.330477 
L 259.494967 198.330477 
L 262.978385 201.860719 
L 264.720094 200.095598 
L 266.461803 196.565356 
L 268.203512 194.800235 
L 269.94522 187.739752 
L 271.686929 191.269994 
L 273.428638 191.269994 
L 275.170347 196.565356 
L 276.912056 203.62584 
L 278.653765 203.62584 
L 280.395474 196.565356 
L 283.878892 196.565356 
L 285.620601 194.800235 
L 287.36231 185.974631 
L 289.104019 198.330477 
L 290.845728 219.511927 
L 292.587437 203.62584 
L 294.329146 191.269994 
L 296.070854 203.62584 
L 297.812563 187.739752 
L 299.554272 189.504873 
L 301.295981 189.504873 
L 303.03769 194.800235 
L 304.779399 193.035115 
L 306.521108 201.860719 
L 308.262817 187.739752 
L 310.004526 193.035115 
L 311.746235 196.565356 
L 313.487944 187.739752 
L 316.971362 198.330477 
L 318.713071 189.504873 
L 320.45478 193.035115 
L 322.196488 201.860719 
L 323.938197 203.62584 
L 325.679906 201.860719 
L 327.421615 185.974631 
L 329.163324 191.269994 
L 330.905033 194.800235 
L 332.646742 196.565356 
L 334.388451 191.269994 
L 336.13016 205.39096 
L 337.871869 196.565356 
L 339.613578 200.095598 
L 341.355287 193.035115 
L 343.096996 191.269994 
L 344.838705 196.565356 
L 346.580414 198.330477 
L 348.322123 191.269994 
L 350.063831 191.269994 
L 351.80554 193.035115 
L 353.547249 198.330477 
L 355.288958 187.739752 
L 357.030667 191.269994 
L 358.772376 178.914148 
L 360.514085 201.860719 
L 362.255794 196.565356 
L 363.997503 193.035115 
L 365.739212 203.62584 
L 367.480921 196.565356 
L 369.22263 198.330477 
L 370.964339 196.565356 
L 372.706048 198.330477 
L 374.447757 196.565356 
L 376.189465 198.330477 
L 377.931174 196.565356 
L 379.672883 187.739752 
L 381.414592 198.330477 
L 383.156301 187.739752 
L 384.89801 196.565356 
L 386.639719 207.156081 
L 388.381428 203.62584 
L 390.123137 191.269994 
L 391.864846 201.860719 
L 393.606555 200.095598 
L 395.348264 185.974631 
L 397.089973 201.860719 
L 398.831682 193.035115 
L 400.573391 193.035115 
L 402.315099 189.504873 
L 404.056808 194.800235 
L 405.798517 191.269994 
L 407.540226 191.269994 
L 411.023644 187.739752 
L 412.765353 193.035115 
L 414.507062 185.974631 
L 416.248771 196.565356 
L 417.99048 184.209511 
L 419.732189 184.209511 
L 423.215607 191.269994 
L 424.957316 184.209511 
L 426.699025 182.44439 
L 428.440734 185.974631 
L 430.182442 184.209511 
L 431.924151 185.974631 
L 433.66586 189.504873 
L 435.407569 185.974631 
L 437.149278 198.330477 
L 438.890987 189.504873 
L 440.632696 198.330477 
L 442.374405 187.739752 
L 444.116114 187.739752 
L 445.857823 198.330477 
L 447.599532 193.035115 
L 449.341241 193.035115 
L 451.08295 189.504873 
L 452.824659 180.679269 
L 454.566368 185.974631 
L 456.308076 196.565356 
L 458.049785 187.739752 
L 459.791494 191.269994 
L 461.533203 187.739752 
L 463.274912 193.035115 
L 465.016621 193.035115 
L 466.75833 187.739752 
L 468.500039 184.209511 
L 470.241748 187.739752 
L 471.983457 187.739752 
L 473.725166 189.504873 
L 475.466875 200.095598 
L 477.208584 200.095598 
L 478.950293 193.035115 
L 482.43371 203.62584 
L 484.175419 194.800235 
L 485.917128 196.565356 
L 487.658837 184.209511 
L 489.400546 193.035115 
L 491.142255 187.739752 
L 492.883964 205.39096 
L 494.625673 191.269994 
L 496.367382 189.504873 
L 498.109091 193.035115 
L 498.109091 193.035115 
" clip-path="url(#p195d420b8f)" style="fill: none; stroke: #ff7f0e; stroke-width: 1.5; stroke-linecap: square"/>
   </g>
   <g id="patch_3">
    <path d="M 72 541.44 
L 72 138.24 
" style="fill: none; stroke: #000000; stroke-width: 0.8; stroke-linejoin: miter; stroke-linecap: square"/>
   </g>
   <g id="patch_4">
    <path d="M 518.4 541.44 
L 518.4 138.24 
" style="fill: none; stroke: #000000; stroke-width: 0.8; stroke-linejoin: miter; stroke-linecap: square"/>
   </g>
   <g id="patch_5">
    <path d="M 72 541.44 
L 518.4 541.44 
" style="fill: none; stroke: #000000; stroke-width: 0.8; stroke-linejoin: miter; stroke-linecap: square"/>
   </g>
   <g id="patch_6">
    <path d="M 72 138.24 
L 518.4 138.24 
" style="fill: none; stroke: #000000; stroke-width: 0.8; stroke-linejoin: miter; stroke-linecap: square"/>
   </g>
   <g id="legend_1">
    <g id="patch_7">
     <path d="M 79 175.874375 
L 175.94375 175.874375 
Q 177.94375 175.874375 177.94375 173.874375 
L 177.94375 145.24 
Q 177.94375 143.24 175.94375 143.24 
L 79 143.24 
Q 77 143.24 77 145.24 
L 77 173.874375 
Q 77 175.874375 79 175.874375 
z
" style="fill: #ffffff; opacity: 0.8; stroke: #cccccc; stroke-linejoin: miter"/>
    </g>
    <g id="line2d_17">
     <path d="M 81 151.338437 
L 91 151.338437 
L 101 151.338437 
" style="fill: none; stroke: #1f77b4; stroke-width: 1.5; stroke-linecap: square"/>
    </g>
    <g id="text_16">
     <!-- accuracy -->
     <g transform="translate(109 154.838437) scale(0.1 -0.1)">
      <defs>
       <path id="DejaVuSans-61" d="M 2194 1759 
Q 1497 1759 1228 1600 
Q 959 1441 959 1056 
Q 959 750 1161 570 
Q 1363 391 1709 391 
Q 2188 391 2477 730 
Q 2766 1069 2766 1631 
L 2766 1759 
L 2194 1759 
z
M 3341 1997 
L 3341 0 
L 2766 0 
L 2766 531 
Q 2569 213 2275 61 
Q 1981 -91 1556 -91 
Q 1019 -91 701 211 
Q 384 513 384 1019 
Q 384 1609 779 1909 
Q 1175 2209 1959 2209 
L 2766 2209 
L 2766 2266 
Q 2766 2663 2505 2880 
Q 2244 3097 1772 3097 
Q 1472 3097 1187 3025 
Q 903 2953 641 2809 
L 641 3341 
Q 956 3463 1253 3523 
Q 1550 3584 1831 3584 
Q 2591 3584 2966 3190 
Q 3341 2797 3341 1997 
z
" transform="scale(0.015625)"/>
       <path id="DejaVuSans-75" d="M 544 1381 
L 544 3500 
L 1119 3500 
L 1119 1403 
Q 1119 906 1312 657 
Q 1506 409 1894 409 
Q 2359 409 2629 706 
Q 2900 1003 2900 1516 
L 2900 3500 
L 3475 3500 
L 3475 0 
L 2900 0 
L 2900 538 
Q 2691 219 2414 64 
Q 2138 -91 1772 -91 
Q 1169 -91 856 284 
Q 544 659 544 1381 
z
M 1991 3584 
L 1991 3584 
z
" transform="scale(0.015625)"/>
       <path id="DejaVuSans-72" d="M 2631 2963 
Q 2534 3019 2420 3045 
Q 2306 3072 2169 3072 
Q 1681 3072 1420 2755 
Q 1159 2438 1159 1844 
L 1159 0 
L 581 0 
L 581 3500 
L 1159 3500 
L 1159 2956 
Q 1341 3275 1631 3429 
Q 1922 3584 2338 3584 
Q 2397 3584 2469 3576 
Q 2541 3569 2628 3553 
L 2631 2963 
z
" transform="scale(0.015625)"/>
       <path id="DejaVuSans-79" d="M 2059 -325 
Q 1816 -950 1584 -1140 
Q 1353 -1331 966 -1331 
L 506 -1331 
L 506 -850 
L 844 -850 
Q 1081 -850 1212 -737 
Q 1344 -625 1503 -206 
L 1606 56 
L 191 3500 
L 800 3500 
L 1894 763 
L 2988 3500 
L 3597 3500 
L 2059 -325 
z
" transform="scale(0.015625)"/>
      </defs>
      <use xlink:href="#DejaVuSans-61"/>
      <use xlink:href="#DejaVuSans-63" x="61.279297"/>
      <use xlink:href="#DejaVuSans-63" x="116.259766"/>
      <use xlink:href="#DejaVuSans-75" x="171.240234"/>
      <use xlink:href="#DejaVuSans-72" x="234.619141"/>
      <use xlink:href="#DejaVuSans-61" x="275.732422"/>
      <use xlink:href="#DejaVuSans-63" x="337.011719"/>
      <use xlink:href="#DejaVuSans-79" x="391.992188"/>
     </g>
    </g>
    <g id="line2d_18">
     <path d="M 81 166.016562 
L 91 166.016562 
L 101 166.016562 
" style="fill: none; stroke: #ff7f0e; stroke-width: 1.5; stroke-linecap: square"/>
    </g>
    <g id="text_17">
     <!-- val_accuracy -->
     <g transform="translate(109 169.516562) scale(0.1 -0.1)">
      <defs>
       <path id="DejaVuSans-76" d="M 191 3500 
L 800 3500 
L 1894 563 
L 2988 3500 
L 3597 3500 
L 2284 0 
L 1503 0 
L 191 3500 
z
" transform="scale(0.015625)"/>
       <path id="DejaVuSans-6c" d="M 603 4863 
L 1178 4863 
L 1178 0 
L 603 0 
L 603 4863 
z
" transform="scale(0.015625)"/>
       <path id="DejaVuSans-5f" d="M 3263 -1063 
L 3263 -1509 
L -63 -1509 
L -63 -1063 
L 3263 -1063 
z
" transform="scale(0.015625)"/>
      </defs>
      <use xlink:href="#DejaVuSans-76"/>
      <use xlink:href="#DejaVuSans-61" x="59.179688"/>
      <use xlink:href="#DejaVuSans-6c" x="120.458984"/>
      <use xlink:href="#DejaVuSans-5f" x="148.242188"/>
      <use xlink:href="#DejaVuSans-61" x="198.242188"/>
      <use xlink:href="#DejaVuSans-63" x="259.521484"/>
      <use xlink:href="#DejaVuSans-63" x="314.501953"/>
      <use xlink:href="#DejaVuSans-75" x="369.482422"/>
      <use xlink:href="#DejaVuSans-72" x="432.861328"/>
      <use xlink:href="#DejaVuSans-61" x="473.974609"/>
      <use xlink:href="#DejaVuSans-63" x="535.253906"/>
      <use xlink:href="#DejaVuSans-79" x="590.234375"/>
     </g>
    </g>
   </g>
  </g>
  <g id="axes_2">
   <g id="patch_8">
    <path d="M 72 1025.28 
L 518.4 1025.28 
L 518.4 622.08 
L 72 622.08 
z
" style="fill: #ffffff"/>
   </g>
   <g id="matplotlib.axis_3">
    <g id="xtick_6">
     <g id="line2d_19">
      <g>
       <use xlink:href="#m41c89353e6" x="92.290909" y="1025.28" style="stroke: #000000; stroke-width: 0.8"/>
      </g>
     </g>
     <g id="text_18">
      <!-- 0 -->
      <g transform="translate(89.109659 1039.878438) scale(0.1 -0.1)">
       <use xlink:href="#DejaVuSans-30"/>
      </g>
     </g>
    </g>
    <g id="xtick_7">
     <g id="line2d_20">
      <g>
       <use xlink:href="#m41c89353e6" x="179.376356" y="1025.28" style="stroke: #000000; stroke-width: 0.8"/>
      </g>
     </g>
     <g id="text_19">
      <!-- 50 -->
      <g transform="translate(173.013856 1039.878438) scale(0.1 -0.1)">
       <use xlink:href="#DejaVuSans-35"/>
       <use xlink:href="#DejaVuSans-30" x="63.623047"/>
      </g>
     </g>
    </g>
    <g id="xtick_8">
     <g id="line2d_21">
      <g>
       <use xlink:href="#m41c89353e6" x="266.461803" y="1025.28" style="stroke: #000000; stroke-width: 0.8"/>
      </g>
     </g>
     <g id="text_20">
      <!-- 100 -->
      <g transform="translate(256.918053 1039.878438) scale(0.1 -0.1)">
       <use xlink:href="#DejaVuSans-31"/>
       <use xlink:href="#DejaVuSans-30" x="63.623047"/>
       <use xlink:href="#DejaVuSans-30" x="127.246094"/>
      </g>
     </g>
    </g>
    <g id="xtick_9">
     <g id="line2d_22">
      <g>
       <use xlink:href="#m41c89353e6" x="353.547249" y="1025.28" style="stroke: #000000; stroke-width: 0.8"/>
      </g>
     </g>
     <g id="text_21">
      <!-- 150 -->
      <g transform="translate(344.003499 1039.878438) scale(0.1 -0.1)">
       <use xlink:href="#DejaVuSans-31"/>
       <use xlink:href="#DejaVuSans-35" x="63.623047"/>
       <use xlink:href="#DejaVuSans-30" x="127.246094"/>
      </g>
     </g>
    </g>
    <g id="xtick_10">
     <g id="line2d_23">
      <g>
       <use xlink:href="#m41c89353e6" x="440.632696" y="1025.28" style="stroke: #000000; stroke-width: 0.8"/>
      </g>
     </g>
     <g id="text_22">
      <!-- 200 -->
      <g transform="translate(431.088946 1039.878438) scale(0.1 -0.1)">
       <use xlink:href="#DejaVuSans-32"/>
       <use xlink:href="#DejaVuSans-30" x="63.623047"/>
       <use xlink:href="#DejaVuSans-30" x="127.246094"/>
      </g>
     </g>
    </g>
    <g id="text_23">
     <!-- Epoch -->
     <g transform="translate(279.889062 1053.556562) scale(0.1 -0.1)">
      <use xlink:href="#DejaVuSans-45"/>
      <use xlink:href="#DejaVuSans-70" x="63.183594"/>
      <use xlink:href="#DejaVuSans-6f" x="126.660156"/>
      <use xlink:href="#DejaVuSans-63" x="187.841797"/>
      <use xlink:href="#DejaVuSans-68" x="242.822266"/>
     </g>
    </g>
   </g>
   <g id="matplotlib.axis_4">
    <g id="ytick_10">
     <g id="line2d_24">
      <g>
       <use xlink:href="#m0fffd735cf" x="72" y="1016.077091" style="stroke: #000000; stroke-width: 0.8"/>
      </g>
     </g>
     <g id="text_24">
      <!-- 0.00 -->
      <g transform="translate(42.734375 1019.87631) scale(0.1 -0.1)">
       <use xlink:href="#DejaVuSans-30"/>
       <use xlink:href="#DejaVuSans-2e" x="63.623047"/>
       <use xlink:href="#DejaVuSans-30" x="95.410156"/>
       <use xlink:href="#DejaVuSans-30" x="159.033203"/>
      </g>
     </g>
    </g>
    <g id="ytick_11">
     <g id="line2d_25">
      <g>
       <use xlink:href="#m0fffd735cf" x="72" y="969.336798" style="stroke: #000000; stroke-width: 0.8"/>
      </g>
     </g>
     <g id="text_25">
      <!-- 0.25 -->
      <g transform="translate(42.734375 973.136017) scale(0.1 -0.1)">
       <use xlink:href="#DejaVuSans-30"/>
       <use xlink:href="#DejaVuSans-2e" x="63.623047"/>
       <use xlink:href="#DejaVuSans-32" x="95.410156"/>
       <use xlink:href="#DejaVuSans-35" x="159.033203"/>
      </g>
     </g>
    </g>
    <g id="ytick_12">
     <g id="line2d_26">
      <g>
       <use xlink:href="#m0fffd735cf" x="72" y="922.596505" style="stroke: #000000; stroke-width: 0.8"/>
      </g>
     </g>
     <g id="text_26">
      <!-- 0.50 -->
      <g transform="translate(42.734375 926.395724) scale(0.1 -0.1)">
       <use xlink:href="#DejaVuSans-30"/>
       <use xlink:href="#DejaVuSans-2e" x="63.623047"/>
       <use xlink:href="#DejaVuSans-35" x="95.410156"/>
       <use xlink:href="#DejaVuSans-30" x="159.033203"/>
      </g>
     </g>
    </g>
    <g id="ytick_13">
     <g id="line2d_27">
      <g>
       <use xlink:href="#m0fffd735cf" x="72" y="875.856212" style="stroke: #000000; stroke-width: 0.8"/>
      </g>
     </g>
     <g id="text_27">
      <!-- 0.75 -->
      <g transform="translate(42.734375 879.655431) scale(0.1 -0.1)">
       <use xlink:href="#DejaVuSans-30"/>
       <use xlink:href="#DejaVuSans-2e" x="63.623047"/>
       <use xlink:href="#DejaVuSans-37" x="95.410156"/>
       <use xlink:href="#DejaVuSans-35" x="159.033203"/>
      </g>
     </g>
    </g>
    <g id="ytick_14">
     <g id="line2d_28">
      <g>
       <use xlink:href="#m0fffd735cf" x="72" y="829.115919" style="stroke: #000000; stroke-width: 0.8"/>
      </g>
     </g>
     <g id="text_28">
      <!-- 1.00 -->
      <g transform="translate(42.734375 832.915138) scale(0.1 -0.1)">
       <use xlink:href="#DejaVuSans-31"/>
       <use xlink:href="#DejaVuSans-2e" x="63.623047"/>
       <use xlink:href="#DejaVuSans-30" x="95.410156"/>
       <use xlink:href="#DejaVuSans-30" x="159.033203"/>
      </g>
     </g>
    </g>
    <g id="ytick_15">
     <g id="line2d_29">
      <g>
       <use xlink:href="#m0fffd735cf" x="72" y="782.375626" style="stroke: #000000; stroke-width: 0.8"/>
      </g>
     </g>
     <g id="text_29">
      <!-- 1.25 -->
      <g transform="translate(42.734375 786.174845) scale(0.1 -0.1)">
       <use xlink:href="#DejaVuSans-31"/>
       <use xlink:href="#DejaVuSans-2e" x="63.623047"/>
       <use xlink:href="#DejaVuSans-32" x="95.410156"/>
       <use xlink:href="#DejaVuSans-35" x="159.033203"/>
      </g>
     </g>
    </g>
    <g id="ytick_16">
     <g id="line2d_30">
      <g>
       <use xlink:href="#m0fffd735cf" x="72" y="735.635333" style="stroke: #000000; stroke-width: 0.8"/>
      </g>
     </g>
     <g id="text_30">
      <!-- 1.50 -->
      <g transform="translate(42.734375 739.434552) scale(0.1 -0.1)">
       <use xlink:href="#DejaVuSans-31"/>
       <use xlink:href="#DejaVuSans-2e" x="63.623047"/>
       <use xlink:href="#DejaVuSans-35" x="95.410156"/>
       <use xlink:href="#DejaVuSans-30" x="159.033203"/>
      </g>
     </g>
    </g>
    <g id="ytick_17">
     <g id="line2d_31">
      <g>
       <use xlink:href="#m0fffd735cf" x="72" y="688.89504" style="stroke: #000000; stroke-width: 0.8"/>
      </g>
     </g>
     <g id="text_31">
      <!-- 1.75 -->
      <g transform="translate(42.734375 692.694259) scale(0.1 -0.1)">
       <use xlink:href="#DejaVuSans-31"/>
       <use xlink:href="#DejaVuSans-2e" x="63.623047"/>
       <use xlink:href="#DejaVuSans-37" x="95.410156"/>
       <use xlink:href="#DejaVuSans-35" x="159.033203"/>
      </g>
     </g>
    </g>
    <g id="ytick_18">
     <g id="line2d_32">
      <g>
       <use xlink:href="#m0fffd735cf" x="72" y="642.154747" style="stroke: #000000; stroke-width: 0.8"/>
      </g>
     </g>
     <g id="text_32">
      <!-- 2.00 -->
      <g transform="translate(42.734375 645.953966) scale(0.1 -0.1)">
       <use xlink:href="#DejaVuSans-32"/>
       <use xlink:href="#DejaVuSans-2e" x="63.623047"/>
       <use xlink:href="#DejaVuSans-30" x="95.410156"/>
       <use xlink:href="#DejaVuSans-30" x="159.033203"/>
      </g>
     </g>
    </g>
   </g>
   <g id="line2d_33">
    <path d="M 92.290909 816.440478 
L 94.032618 912.110667 
L 95.774327 925.366196 
L 97.516036 932.435331 
L 99.257745 943.360395 
L 100.999454 944.065895 
L 102.741163 948.109579 
L 104.482872 956.471997 
L 106.224581 954.620568 
L 107.96629 957.20802 
L 109.707998 962.464434 
L 111.449707 966.169069 
L 113.191416 963.69247 
L 114.933125 971.251507 
L 116.674834 968.837753 
L 118.416543 970.680378 
L 120.158252 971.739528 
L 121.899961 974.16067 
L 123.64167 974.251236 
L 125.383379 973.24949 
L 127.125088 977.341321 
L 130.608506 976.92039 
L 132.350215 979.458807 
L 134.091924 978.831054 
L 135.833632 979.896238 
L 137.575341 978.252696 
L 139.31705 980.230542 
L 141.058759 980.231448 
L 142.800468 979.981942 
L 144.542177 981.565483 
L 146.283886 978.347763 
L 148.025595 982.687124 
L 149.767304 982.144635 
L 151.509013 984.392046 
L 153.250722 973.283342 
L 154.992431 985.588805 
L 156.73414 986.122479 
L 158.475849 984.097247 
L 160.217558 982.243781 
L 161.959266 986.878848 
L 163.700975 984.306209 
L 165.442684 981.008248 
L 167.184393 990.261506 
L 168.926102 990.073024 
L 170.667811 985.887577 
L 172.40952 988.657928 
L 174.151229 987.346239 
L 175.892938 991.233228 
L 177.634647 990.074472 
L 179.376356 987.495679 
L 181.118065 982.808313 
L 182.859774 990.282989 
L 184.601483 989.651806 
L 186.343192 991.377854 
L 188.084901 992.68464 
L 189.826609 991.764214 
L 191.568318 984.498664 
L 193.310027 981.009814 
L 195.051736 992.973524 
L 196.793445 992.320025 
L 198.535154 991.463355 
L 200.276863 993.050586 
L 202.018572 991.4847 
L 203.760281 990.270084 
L 205.50199 988.614393 
L 207.243699 992.721003 
L 208.985408 989.199565 
L 210.727117 993.060632 
L 212.468826 994.382242 
L 214.210535 994.885636 
L 217.693952 994.774281 
L 219.435661 989.229681 
L 221.17737 992.516331 
L 222.919079 994.116241 
L 224.660788 996.517219 
L 226.402497 998.405777 
L 228.144206 989.707032 
L 229.885915 993.606019 
L 231.627624 995.467967 
L 233.369333 994.575698 
L 235.111042 994.779913 
L 236.852751 997.302849 
L 238.59446 996.171819 
L 242.077877 996.782679 
L 243.819586 998.670518 
L 245.561295 996.729667 
L 247.303004 989.151806 
L 249.044713 993.118191 
L 250.786422 994.84351 
L 252.528131 997.792348 
L 254.26984 996.580241 
L 256.011549 997.706258 
L 257.753258 999.066585 
L 259.494967 999.031947 
L 261.236676 998.743096 
L 262.978385 991.495646 
L 264.720094 996.473268 
L 266.461803 999.684208 
L 268.203512 998.62304 
L 269.94522 1000.572564 
L 271.686929 998.666884 
L 273.428638 997.62628 
L 275.170347 997.838659 
L 276.912056 999.311114 
L 278.653765 996.809763 
L 280.395474 995.432746 
L 282.137183 998.464835 
L 283.878892 998.832269 
L 285.620601 998.810493 
L 287.36231 998.473687 
L 289.104019 999.236939 
L 290.845728 1000.205091 
L 292.587437 997.827441 
L 294.329146 1000.35409 
L 296.070854 997.947074 
L 297.812563 997.940826 
L 299.554272 1000.586058 
L 301.295981 999.390546 
L 303.03769 997.348373 
L 304.779399 997.498656 
L 306.521108 994.887252 
L 308.262817 997.767782 
L 310.004526 999.186301 
L 311.746235 1002.866207 
L 313.487944 999.394326 
L 315.229653 1004.179695 
L 316.971362 1002.502416 
L 318.713071 1001.041021 
L 320.45478 999.926947 
L 322.196488 1001.654817 
L 323.938197 1001.512299 
L 325.679906 998.065877 
L 327.421615 1002.052892 
L 329.163324 1001.693211 
L 330.905033 1003.856861 
L 332.646742 997.212817 
L 334.388451 1001.13574 
L 337.871869 1002.163964 
L 339.613578 1000.207158 
L 341.355287 996.775099 
L 343.096996 998.690306 
L 344.838705 1000.281536 
L 346.580414 1002.885676 
L 348.322123 998.930594 
L 350.063831 1001.57438 
L 351.80554 1002.047527 
L 353.547249 1004.43566 
L 355.288958 999.280984 
L 357.030667 1002.311455 
L 358.772376 1000.372801 
L 360.514085 1003.3689 
L 362.255794 1003.104542 
L 363.997503 1000.561403 
L 365.739212 1002.389441 
L 367.480921 997.092835 
L 369.22263 1001.725816 
L 370.964339 1001.49976 
L 372.706048 1003.58561 
L 374.447757 1002.563432 
L 376.189465 1002.90538 
L 377.931174 1003.061696 
L 379.672883 996.26462 
L 381.414592 1000.700173 
L 383.156301 1003.603941 
L 384.89801 1002.003952 
L 386.639719 1003.172533 
L 388.381428 1006.055656 
L 390.123137 1004.16803 
L 391.864846 1001.118553 
L 393.606555 1002.972205 
L 395.348264 1004.137542 
L 397.089973 1003.483806 
L 398.831682 998.146293 
L 400.573391 1004.061682 
L 402.315099 1001.514276 
L 404.056808 997.797342 
L 405.798517 1001.95764 
L 407.540226 1002.137334 
L 409.281935 999.976527 
L 411.023644 1003.563289 
L 412.765353 1002.755275 
L 414.507062 1003.295191 
L 416.248771 1005.246687 
L 417.99048 1003.822335 
L 419.732189 1005.33118 
L 421.473898 1001.420465 
L 423.215607 1005.751818 
L 424.957316 1001.999352 
L 426.699025 1004.845632 
L 428.440734 1002.930735 
L 430.182442 1006.056467 
L 431.924151 1004.781743 
L 433.66586 1003.985129 
L 435.407569 1005.329538 
L 437.149278 1005.682215 
L 438.890987 1003.851518 
L 440.632696 1006.705444 
L 442.374405 1002.863262 
L 444.116114 1000.613945 
L 445.857823 1003.141016 
L 447.599532 1002.940008 
L 449.341241 1004.1033 
L 451.08295 1004.249294 
L 452.824659 1001.729749 
L 454.566368 995.24639 
L 456.308076 1004.342143 
L 458.049785 1004.928354 
L 459.791494 1006.410094 
L 461.533203 1006.952727 
L 463.274912 1006.618243 
L 466.75833 1003.876217 
L 468.500039 1004.095084 
L 470.241748 1001.839345 
L 473.725166 1006.589453 
L 475.466875 1004.574783 
L 477.208584 1006.337955 
L 478.950293 1002.387794 
L 480.692002 1004.853196 
L 482.43371 1003.068497 
L 484.175419 1003.338749 
L 485.917128 1003.144586 
L 487.658837 1003.809936 
L 489.400546 1005.995913 
L 491.142255 1004.947734 
L 492.883964 1005.237687 
L 494.625673 1006.164204 
L 496.367382 1003.554885 
L 498.109091 1006.137011 
L 498.109091 1006.137011 
" clip-path="url(#paf4444044f)" style="fill: none; stroke: #1f77b4; stroke-width: 1.5; stroke-linecap: square"/>
   </g>
   <g id="line2d_34">
    <path d="M 92.290909 640.407273 
L 94.032618 680.86465 
L 95.774327 760.639577 
L 97.516036 848.131287 
L 99.257745 907.469394 
L 100.999454 913.918942 
L 102.741163 943.690272 
L 104.482872 931.240387 
L 106.224581 935.248399 
L 107.96629 946.62303 
L 109.707998 936.398507 
L 113.191416 933.847005 
L 114.933125 930.153207 
L 116.674834 950.984361 
L 118.416543 951.214463 
L 120.158252 945.247428 
L 121.899961 951.206345 
L 123.64167 952.978904 
L 125.383379 951.006141 
L 127.125088 956.998461 
L 128.866797 954.867815 
L 130.608506 947.806876 
L 132.350215 954.247392 
L 134.091924 947.02844 
L 135.833632 951.642305 
L 137.575341 950.780414 
L 139.31705 956.180995 
L 141.058759 951.803828 
L 142.800468 955.442091 
L 144.542177 959.574585 
L 146.283886 960.799824 
L 148.025595 954.102478 
L 149.767304 961.325615 
L 151.509013 944.856522 
L 153.250722 955.354284 
L 154.992431 960.357378 
L 156.73414 948.355756 
L 158.475849 952.190238 
L 160.217558 947.957472 
L 161.959266 942.638324 
L 163.700975 954.111237 
L 165.442684 954.247302 
L 167.184393 959.436152 
L 168.926102 956.132803 
L 170.667811 958.190002 
L 172.40952 961.528448 
L 174.151229 953.661498 
L 175.892938 959.787632 
L 177.634647 957.819455 
L 179.376356 961.589448 
L 181.118065 961.248132 
L 182.859774 965.523517 
L 184.601483 954.081801 
L 186.343192 962.665774 
L 188.084901 960.726019 
L 189.826609 956.130647 
L 191.568318 948.136396 
L 193.310027 953.763123 
L 195.051736 963.611366 
L 196.793445 960.943183 
L 198.535154 957.987626 
L 200.276863 959.499599 
L 202.018572 952.377503 
L 203.760281 946.834355 
L 205.50199 959.880738 
L 207.243699 959.294214 
L 208.985408 951.260007 
L 210.727117 959.252531 
L 212.468826 956.016858 
L 214.210535 953.777978 
L 215.952243 967.830023 
L 217.693952 960.950605 
L 219.435661 961.152457 
L 221.17737 962.906233 
L 222.919079 966.587857 
L 224.660788 960.905384 
L 226.402497 962.091402 
L 228.144206 962.527702 
L 229.885915 966.308316 
L 231.627624 962.606974 
L 233.369333 958.325794 
L 235.111042 954.745523 
L 236.852751 964.753456 
L 238.59446 960.18845 
L 240.336169 950.92765 
L 242.077877 950.622328 
L 243.819586 959.161414 
L 245.561295 956.054017 
L 247.303004 958.954887 
L 249.044713 954.693448 
L 250.786422 961.172388 
L 252.528131 962.940835 
L 254.26984 965.327337 
L 256.011549 960.438627 
L 257.753258 956.725718 
L 259.494967 957.643194 
L 261.236676 957.936336 
L 262.978385 945.711705 
L 264.720094 960.236987 
L 266.461803 963.172118 
L 268.203512 963.881435 
L 269.94522 967.238892 
L 271.686929 962.096606 
L 273.428638 956.397657 
L 275.170347 952.866302 
L 276.912056 953.197243 
L 278.653765 954.808045 
L 280.395474 963.137773 
L 282.137183 960.950622 
L 285.620601 955.910435 
L 287.36231 964.516757 
L 289.104019 964.249931 
L 290.845728 923.810567 
L 292.587437 947.205085 
L 294.329146 955.001551 
L 297.812563 964.617346 
L 299.554272 960.881681 
L 301.295981 960.046479 
L 303.03769 962.146307 
L 304.779399 962.803154 
L 306.521108 960.051165 
L 308.262817 969.070089 
L 310.004526 961.5521 
L 311.746235 960.561181 
L 313.487944 964.474238 
L 315.229653 960.053533 
L 316.971362 958.786995 
L 318.713071 964.033029 
L 320.45478 961.166225 
L 322.196488 958.765092 
L 323.938197 944.29934 
L 325.679906 953.194897 
L 327.421615 958.72089 
L 329.163324 962.845405 
L 330.905033 958.467041 
L 332.646742 952.844036 
L 334.388451 965.977948 
L 336.13016 949.396421 
L 337.871869 958.139782 
L 339.613578 949.282164 
L 341.355287 959.480577 
L 343.096996 963.451726 
L 344.838705 959.041864 
L 346.580414 960.085237 
L 350.063831 965.809438 
L 351.80554 958.324986 
L 353.547249 944.730235 
L 355.288958 962.081657 
L 357.030667 960.704534 
L 358.772376 971.809466 
L 360.514085 959.368938 
L 362.255794 959.831521 
L 363.997503 956.829812 
L 365.739212 954.672537 
L 367.480921 957.177525 
L 369.22263 958.809539 
L 370.964339 963.281667 
L 372.706048 953.122095 
L 374.447757 961.307779 
L 376.189465 958.939174 
L 377.931174 961.977925 
L 379.672883 962.454789 
L 381.414592 961.156597 
L 383.156301 962.106814 
L 384.89801 957.490196 
L 386.639719 948.094513 
L 388.381428 943.882959 
L 390.123137 959.829499 
L 391.864846 951.407762 
L 393.606555 955.739056 
L 395.348264 966.690079 
L 397.089973 946.158101 
L 398.831682 963.17243 
L 400.573391 964.886657 
L 402.315099 969.755519 
L 404.056808 963.948392 
L 405.798517 964.445387 
L 407.540226 960.491527 
L 409.281935 966.656742 
L 411.023644 962.285649 
L 412.765353 959.611532 
L 416.248771 960.076127 
L 417.99048 966.291918 
L 419.732189 970.021033 
L 421.473898 961.965182 
L 423.215607 961.215347 
L 424.957316 964.877408 
L 426.699025 964.268006 
L 428.440734 965.14186 
L 430.182442 965.403203 
L 431.924151 964.432933 
L 433.66586 962.867487 
L 435.407569 962.176507 
L 437.149278 956.914683 
L 438.890987 965.095602 
L 440.632696 953.493567 
L 442.374405 959.991222 
L 444.116114 963.488383 
L 445.857823 962.039132 
L 447.599532 963.552839 
L 449.341241 964.480133 
L 451.08295 965.10079 
L 452.824659 967.101016 
L 454.566368 969.624235 
L 456.308076 959.483034 
L 458.049785 963.595202 
L 459.791494 962.615816 
L 461.533203 958.903046 
L 463.274912 949.940236 
L 465.016621 954.45875 
L 466.75833 960.935605 
L 468.500039 962.986441 
L 470.241748 962.409523 
L 471.983457 962.009997 
L 473.725166 966.462133 
L 475.466875 960.995732 
L 477.208584 959.591401 
L 478.950293 963.674384 
L 480.692002 959.451803 
L 482.43371 950.886547 
L 484.175419 951.728318 
L 485.917128 957.46086 
L 487.658837 962.098868 
L 489.400546 951.64464 
L 491.142255 964.027178 
L 492.883964 950.740157 
L 494.625673 960.755188 
L 496.367382 964.135501 
L 498.109091 956.255167 
L 498.109091 956.255167 
" clip-path="url(#paf4444044f)" style="fill: none; stroke: #ff7f0e; stroke-width: 1.5; stroke-linecap: square"/>
   </g>
   <g id="patch_9">
    <path d="M 72 1025.28 
L 72 622.08 
" style="fill: none; stroke: #000000; stroke-width: 0.8; stroke-linejoin: miter; stroke-linecap: square"/>
   </g>
   <g id="patch_10">
    <path d="M 518.4 1025.28 
L 518.4 622.08 
" style="fill: none; stroke: #000000; stroke-width: 0.8; stroke-linejoin: miter; stroke-linecap: square"/>
   </g>
   <g id="patch_11">
    <path d="M 72 1025.28 
L 518.4 1025.28 
" style="fill: none; stroke: #000000; stroke-width: 0.8; stroke-linejoin: miter; stroke-linecap: square"/>
   </g>
   <g id="patch_12">
    <path d="M 72 622.08 
L 518.4 622.08 
" style="fill: none; stroke: #000000; stroke-width: 0.8; stroke-linejoin: miter; stroke-linecap: square"/>
   </g>
   <g id="legend_2">
    <g id="patch_13">
     <path d="M 79 659.714375 
L 150.140625 659.714375 
Q 152.140625 659.714375 152.140625 657.714375 
L 152.140625 629.08 
Q 152.140625 627.08 150.140625 627.08 
L 79 627.08 
Q 77 627.08 77 629.08 
L 77 657.714375 
Q 77 659.714375 79 659.714375 
z
" style="fill: #ffffff; opacity: 0.8; stroke: #cccccc; stroke-linejoin: miter"/>
    </g>
    <g id="line2d_35">
     <path d="M 81 635.178437 
L 91 635.178437 
L 101 635.178437 
" style="fill: none; stroke: #1f77b4; stroke-width: 1.5; stroke-linecap: square"/>
    </g>
    <g id="text_33">
     <!-- loss -->
     <g transform="translate(109 638.678437) scale(0.1 -0.1)">
      <defs>
       <path id="DejaVuSans-73" d="M 2834 3397 
L 2834 2853 
Q 2591 2978 2328 3040 
Q 2066 3103 1784 3103 
Q 1356 3103 1142 2972 
Q 928 2841 928 2578 
Q 928 2378 1081 2264 
Q 1234 2150 1697 2047 
L 1894 2003 
Q 2506 1872 2764 1633 
Q 3022 1394 3022 966 
Q 3022 478 2636 193 
Q 2250 -91 1575 -91 
Q 1294 -91 989 -36 
Q 684 19 347 128 
L 347 722 
Q 666 556 975 473 
Q 1284 391 1588 391 
Q 1994 391 2212 530 
Q 2431 669 2431 922 
Q 2431 1156 2273 1281 
Q 2116 1406 1581 1522 
L 1381 1569 
Q 847 1681 609 1914 
Q 372 2147 372 2553 
Q 372 3047 722 3315 
Q 1072 3584 1716 3584 
Q 2034 3584 2315 3537 
Q 2597 3491 2834 3397 
z
" transform="scale(0.015625)"/>
      </defs>
      <use xlink:href="#DejaVuSans-6c"/>
      <use xlink:href="#DejaVuSans-6f" x="27.783203"/>
      <use xlink:href="#DejaVuSans-73" x="88.964844"/>
      <use xlink:href="#DejaVuSans-73" x="141.064453"/>
     </g>
    </g>
    <g id="line2d_36">
     <path d="M 81 649.856562 
L 91 649.856562 
L 101 649.856562 
" style="fill: none; stroke: #ff7f0e; stroke-width: 1.5; stroke-linecap: square"/>
    </g>
    <g id="text_34">
     <!-- val_loss -->
     <g transform="translate(109 653.356562) scale(0.1 -0.1)">
      <use xlink:href="#DejaVuSans-76"/>
      <use xlink:href="#DejaVuSans-61" x="59.179688"/>
      <use xlink:href="#DejaVuSans-6c" x="120.458984"/>
      <use xlink:href="#DejaVuSans-5f" x="148.242188"/>
      <use xlink:href="#DejaVuSans-6c" x="198.242188"/>
      <use xlink:href="#DejaVuSans-6f" x="226.025391"/>
      <use xlink:href="#DejaVuSans-73" x="287.207031"/>
      <use xlink:href="#DejaVuSans-73" x="339.306641"/>
     </g>
    </g>
   </g>
  </g>
 </g>
 <defs>
  <clipPath id="p195d420b8f">
   <rect x="72" y="138.24" width="446.4" height="403.2"/>
  </clipPath>
  <clipPath id="paf4444044f">
   <rect x="72" y="622.08" width="446.4" height="403.2"/>
  </clipPath>
 </defs>
</svg>
